<?xml version="1.0" encoding="UTF-8"?><svg id="_レイヤー_1" xmlns="http://www.w3.org/2000/svg" viewBox="0 0 1277.8 494.53"><path d="M75.99,16.32h-35.59v6.58c0,7.01-1.15,16.95-7.63,23.67-.5-.67-1.84-1.78-2.54-2.16,6.13-6.34,6.88-15.07,6.88-21.55v-6c-1.3,1.15-2.64,2.26-4.14,3.31-.6-.77-1.69-1.87-2.54-2.3,6.93-4.66,11.71-11.09,14.11-16.23l4.39.62c-.05.43-.4.62-1.05.67-.35.67-.75,1.39-1.2,2.11h13.46l.6-.19,2.69,1.63c-.1.24-.4.38-.7.48-1,1.87-2.49,4.27-3.99,6.38h17.25v2.98ZM54.85,13.34c1.2-1.58,2.39-3.65,3.34-5.47h-13.31c-1.2,1.82-2.64,3.65-4.29,5.47h14.26ZM49.27,40.27c0,2.11.8,2.59,4.89,2.59h14.86c3.64,0,4.19-1.15,4.59-7.34.8.58,2.24,1.1,3.14,1.3-.6,7.15-1.79,9.02-7.63,9.02h-14.96c-6.23,0-8.18-1.06-8.18-5.57v-19.06h20.59l.75-.05,1.84.24c0,.34-.05.67-.15,1.01-.75,13.01-1.55,13.35-6.88,13.35-1.25,0-2.89-.05-4.49-.14-.1-.82-.45-2.02-.95-2.83,2.54.19,4.94.24,5.73.24.85,0,1.35-.05,1.69-.43.7-.67,1.15-2.93,1.55-8.5h-16.4v16.18Z"/><path d="M95.24,3.69l2.24,1.3c-.1.14-.25.34-.45.43-1.4,3.7-3.49,8.83-5.43,12.96,5.04,4.7,5.68,7.78,5.68,10.32,0,6.34-4.59,6.34-7.28,6.34-.55,0-1.05,0-1.55-.05-.05-.82-.4-2.11-.9-2.88.85.1,1.69.14,2.39.14,2.24,0,4.24,0,4.24-4.03,0-2.64-1.65-5.66-5.73-9.41,1.75-3.84,3.44-8.54,4.69-12.05h-7.58v39.6h-3.04V3.84h12.21l.5-.14ZM124.5,33.22h-10.27c2.84,6.1,7.03,8.59,13.16,10.56-.8.67-1.65,1.82-1.99,2.78-6.28-2.3-10.67-5.28-13.66-11.67-1.69,4.56-5.83,8.78-15.05,11.62-.35-.67-1.25-1.92-1.84-2.4,9.27-2.83,12.86-6.72,14.21-10.9h-10.47v-12.38h11.17v-4.75h-8.08v-2.3c-1.5,1.01-3.09,1.92-4.69,2.74-.35-.72-1.05-1.87-1.65-2.54,5.83-2.78,11.62-7.68,14.36-12.19l4.29.14c-.1.29-.35.53-.75.58,3.29,4.27,9.22,8.64,14.46,10.9-.65.72-1.35,1.92-1.79,2.78-1.45-.72-2.99-1.58-4.49-2.54v2.45h-8.57v4.75h11.67v12.38ZM101.62,30.53h7.98c.1-.91.15-1.82.15-2.74v-4.32h-8.13v7.06ZM120.81,13.25c-3.69-2.5-7.23-5.57-9.52-8.54-1.99,2.83-5.18,5.9-8.87,8.54h18.39ZM121.41,23.47h-8.57v4.42c0,.86-.05,1.78-.15,2.64h8.72v-7.06Z"/><path d="M149.83,28.37l-7.03,1.49v16.47h-3.29v-15.75c-2.74.58-5.23,1.1-7.23,1.49-.05.34-.3.62-.65.72l-1.3-3.7c2.49-.38,5.68-.96,9.17-1.63v-12.39h-4.94c-.5,2.88-1.1,5.52-1.84,7.54-.65-.43-1.74-1.01-2.49-1.34,1.4-3.89,2.14-10.61,2.64-16.9l3.89.82c-.1.34-.45.48-1.05.53-.15,2.02-.4,4.18-.65,6.24h4.44V1.77l4.24.24c-.05.34-.3.58-.95.67v9.27h6.33v3.12h-6.33v11.81l6.73-1.3.3,2.78ZM173.61,11.18l1.79.14c0,.29-.05.77-.1,1.1-.95,22.47-1.79,29.86-3.69,32.11-.95,1.3-1.99,1.82-5.28,1.82-1.1,0-2.34-.05-3.59-.1-.05-.96-.4-2.35-.95-3.22,2.24.14,4.24.19,5.13.19.85,0,1.3-.14,1.79-.82,1.45-1.63,2.44-8.64,3.24-28.18h-3.89c-1.45,11.62-4.89,25.3-10.22,32.11-.7-.53-1.94-1.25-2.89-1.58,5.48-6.34,8.82-19.2,10.32-30.53h-4.29c-1.89,9.84-5.73,21.51-10.72,27.46-.75-.58-1.99-1.2-2.99-1.58,5.04-5.47,8.87-16.27,10.77-25.87h-3.99c-1.3,4.08-2.94,7.78-4.89,10.56-.55-.53-1.79-1.34-2.54-1.82,3.44-4.75,5.83-13.06,7.13-21.41l4.14.86c-.1.34-.45.53-1.1.53-.5,2.78-1.1,5.57-1.84,8.26h17.85l.8-.05Z"/><path d="M205.82,7.15h-4.64v39.17h-3.24v-9.89c-5.98,1.01-11.91,2.02-15.8,2.59-.1.38-.4.62-.75.67l-1.3-3.7c1.3-.14,2.79-.34,4.44-.58V7.15h-4.34v-3.02h25.62v3.02ZM197.94,14.11v-6.96h-10.22v6.96h10.22ZM197.94,24.14v-7.06h-10.22v7.06h10.22ZM187.72,27.12v7.92c3.19-.43,6.73-.96,10.22-1.44v-6.48h-10.22ZM222.77,8.69l2.09.67c-.05.24-.25.48-.4.62-1.35,9.7-4.14,17.62-8.03,23.81,2.74,4.27,6.18,7.68,10.42,9.94-.8.58-1.89,1.82-2.39,2.64-4.04-2.35-7.33-5.57-10.02-9.6-2.99,4.03-6.48,7.2-10.37,9.55-.5-.77-1.5-1.97-2.24-2.59,3.99-2.21,7.63-5.62,10.67-10.08-3.14-5.76-5.33-12.77-6.83-20.64l3.09-.58c1.25,6.67,3.09,12.82,5.78,18,2.84-5.09,5.03-11.33,6.28-18.48h-16.7v-3.17h18.05l.6-.1Z"/><path d="M247.75,25.82l-6.78,2.02v14.5c0,3.84-2.29,3.98-8.77,3.98-.15-.82-.6-2.16-1.1-3.02,1.3.05,2.49.05,3.49.05,2.74,0,3.04,0,3.04-1.01v-13.49c-2.19.62-4.24,1.2-5.83,1.68-.05.38-.3.67-.65.77l-1.35-3.84c2.14-.48,4.84-1.15,7.83-1.92v-10.85h-7.38v-3.02h7.38V1.72l4.29.24c-.05.38-.3.58-.95.67v9.02h6.23v3.02h-6.23v9.98l6.43-1.63.35,2.78ZM273.87,16.41l2.09.82c-.1.24-.25.43-.4.53-1.74,7.97-5.13,14.31-9.52,19.2,2.99,2.88,6.53,5.14,10.72,6.58-.8.67-1.79,1.97-2.34,2.88-4.19-1.68-7.73-4.08-10.67-7.1-3.29,3.07-6.98,5.42-10.92,7.06-.45-.77-1.35-1.97-2.04-2.54,3.89-1.49,7.58-3.79,10.87-6.91-3.49-4.32-6.03-9.65-7.93-15.75h-.05c-.95,10.8-3.14,19.59-8.23,24.96-.55-.48-1.74-1.44-2.59-1.92,6.68-6.96,7.98-20.5,8.23-36.77h-3.79v-3.02h18.29l.7-.1,1.89.48c-.35,1.68-1.89,9.89-2.24,11.76h7.33l.6-.14ZM261.66,21.74c.95-4.32,2.04-10.18,2.74-14.31h-10.02c-.05,1.82-.1,3.65-.2,5.38,1.84,8.59,4.94,16.13,9.67,21.79,3.49-4.03,6.28-9.12,7.93-15.12h-6.48l-.55,2.59-3.09-.34Z"/><path d="M287.23,18.77c-1.99,3.12-4.19,5.9-6.43,8.21-.4-.77-1.25-2.3-1.79-3.02,5.03-4.99,9.97-13.39,12.91-21.89l4.09,1.3c-.2.34-.55.48-1.15.48-1.35,3.46-2.94,6.86-4.74,10.13l1.4.38c-.05.34-.35.53-.95.62v31.35h-3.34v-27.55ZM326.47,13.01h-16v7.39h14.81v3.02h-14.81v7.73h15.5v3.07h-15.5v12.05h-3.39V13.01h-4.64c-2.09,4.18-4.49,8.02-7.03,10.85-.6-.62-1.79-1.68-2.54-2.21,4.04-4.42,7.93-12,10.27-19.3l4.29,1.2c-.2.34-.55.53-1.2.53-.7,1.92-1.45,3.89-2.29,5.81h22.53v3.12Z"/><path d="M375.03,34.61h-17.3c4.64,3.7,11.91,6.77,18.49,8.16-.75.67-1.75,1.97-2.24,2.83-6.93-1.87-14.61-5.71-19.49-10.27v10.99h-3.34v-10.75c-4.89,4.37-12.56,8.02-19.34,9.89-.45-.82-1.45-2.06-2.19-2.74,6.48-1.44,13.66-4.51,18.3-8.11h-17v-2.78h20.24v-3.89h-15.45v-2.59h15.45v-3.84h-18v-2.69h11.37c-.5-1.49-1.55-3.55-2.59-5.09l1.94-.38h-12.76v-2.83h8.38c-.75-2.02-2.54-5.04-4.19-7.3l2.84-.96c1.79,2.21,3.69,5.28,4.44,7.3l-2.64.96h6.53V1.68l4.24.24c-.05.48-.45.72-1.1.82v7.78h6.48V1.68l4.34.24c-.05.48-.5.72-1.15.82v7.78h6.28c-.65-.24-1.4-.53-1.84-.67,1.45-2.06,3.19-5.28,4.09-7.49l3.94,1.3c-.1.29-.5.43-1.05.43-1.05,1.87-2.64,4.51-4.04,6.43h8.18v2.83h-11.27l1.45.43c-.15.34-.55.48-1.05.43-.7,1.3-1.79,3.17-2.79,4.61h11.81v2.69h-18.49v3.84h16.05v2.59h-16.05v3.89h20.54v2.78ZM357.93,18.53c.9-1.39,2.04-3.5,2.79-5.18h-15.5c1.15,1.58,2.24,3.7,2.74,5.14l-1.55.34h12.31l-.8-.29Z"/><path d="M405.64,10.46c-.2.43-.6.77-1.25.77-1.79,14.93-6.98,27.94-15.25,27.94-4.19,0-7.98-4.03-7.98-11.62,0-11.52,9.32-21.17,22.43-21.17,14.41,0,20.64,8.78,20.64,18.15,0,11.42-6.88,16.95-18.94,19.63-.45-.77-1.3-2.06-2.09-2.93,11.47-2.11,17.35-7.49,17.35-16.56,0-7.92-5.28-15.12-16.95-15.12-.5,0-1.05.05-1.5.1l3.54.82ZM400.85,9.84c-10.07,1.2-16.3,9.22-16.3,17.62,0,5.14,2.29,8.35,4.69,8.35,6.03,0,10.37-12.82,11.62-25.97Z"/><path d="M440.49,42.77c2.49-2.3,4.19-4.9,5.04-8.45.75-3.17,1.05-7.01,1-12.05l.45-.29,5.88.86.4.38c-.1,3.94-.35,7.2-.8,9.94,1,1.87,2.44,3.36,4.29,4.42v-20.31h-5.08l-6.38.14-.4-.29v-5.52l.35-.24,6.43.14h1.2c-1.25-2.4-2.89-4.9-4.84-7.15l.1-.34,4.99-2.78.35.05c2.09,2.21,3.94,4.61,5.43,7.1l-.15.38-4.59,2.74h6.43c1.55-3.46,2.89-7.01,3.89-10.37l.5-.14,6.43,2.35v.53c-1.4,3.02-2.59,5.38-3.89,7.63h1.55l6.43-.14.3.24v5.47l-.35.34-6.38-.14h-5.28v6.96h3.24l5.78-.14.4.29v5.42l-.25.29-5.93-.14h-3.24v9.31c1.79.1,3.94.19,6.48.19,1.94,0,4.14-.05,6.58-.14l-2.39,5.86c-.25.62-.7.91-1.55.91-7.93,0-14.01-.53-18.2-2.69-1.6-.82-2.89-1.92-4.09-3.46-1,2.59-2.39,4.61-4.29,6.48-.3.34-.55.48-.8.48s-.5-.1-.8-.34l-4.24-2.93v3.41h-6.88l.25-12.53v-5.38c-.65.77-1.25,1.34-1.99,2.06-.25.19-.5.29-.65.29-.3,0-.5-.19-.6-.53l-2.29-5.86c3.79-3.12,7.38-7.1,10.32-13.01l.5-.05,5.18,2.78.15.43c-1.2,2.5-2.54,4.66-3.99,6.62v20.88ZM438.7.86l5.18,3.02.15.43c-3.14,4.51-6.78,8.02-10.57,10.66-.25.19-.45.29-.6.29-.2,0-.4-.19-.65-.53l-3.64-4.85c3.89-2.3,7.03-5.18,9.62-8.98l.5-.05Z"/><path d="M506.05,39.74c0,5.47-1.65,7.25-9.97,7.25-1,0-1.1-.1-1.3-.58l-2.49-5.62c2.34,0,4.49-.1,5.33-.19,1.05-.1,1.35-.38,1.35-1.54v-.53h-8.47l-6.73.1-.4-.38v-4.08l.4-.29,6.73.14h8.47v-1.44h-13.46l-6.58.1-.4-.38v-4.08l.4-.29,6.58.14h13.46v-1.34h-8.42l-6.58.1-.4-.38v-4.08l.4-.29,6.58.14h8.42v-1.54h-6.93l-6.53.14-.3-.38.25-4.08v-1.78l-.15-3.89.35-.34,6.38.14h6.93v-1.63h-12.46l-7.08.1-.4-.38v-4.42l.4-.29,7.08.14h12.46V1.39l.45-.38h5.98l.45.38v2.64h12.01l7.63-.14.35.34v4.42l-.35.34-7.63-.1h-12.01v1.63h7.13l6.48-.14.35.34-.15,3.89v1.78l.15,4.03-.35.43-6.48-.14h-7.13v1.54h7.18l7.43-.14.35.29-.15,4.99v.53l5.58-.1.35.34v4.37l-.35.34-5.58-.05.25,7.63h-6.98v-1.87h-7.93l.05,1.2ZM491.99,14.59v1.97h6.98v-1.97h-6.98ZM505.85,16.56h7.08v-1.97h-7.08v1.97ZM513.93,28.08v-1.34h-8.08v1.34h8.08ZM513.93,34.03v-1.44h-8.03l.05,1.44h7.98Z"/><path d="M544.64,2.64l5.28-.14.35.34-.15,5.09v6.1l.15,5.38-.4.43-5.28-.14h-7.78v27.31h-6.38l.25-16.32V9.21l-.15-6.38.3-.34,5.33.14h8.47ZM544.04,9.21v-1.97h-7.23v1.97h7.23ZM536.81,15.07h7.23v-2.02h-7.23v2.02ZM542.8,34.94l-4.34.1-.4-.29v-4.46l.35-.29,4.39.14h1.5c.05-1.25,0-2.45,0-3.7h-.45l-4.09.1-.4-.29v-4.37l.35-.29,4.14.14h16.8l4.14-.14.35.34v4.32l-.35.29-4.14-.1h-.55v3.7h1.84l4.14-.14.35.34v4.42l-.35.29-4.14-.1h-1.84l.25,9.79h-6.63l.25-9.79h-4.09c-.25,1.44-.6,2.69-1.15,3.79-1.35,2.78-3.44,4.85-6.88,6.48-.2.1-.4.14-.55.14-.3,0-.55-.14-.75-.38l-3.59-3.94c3.09-1.2,5.08-2.4,6.13-4.27.3-.53.55-1.15.7-1.82h-1ZM550.42,26.45c0,1.25,0,2.45-.05,3.7h3.59v-3.7h-3.54ZM559.25,19.68l-5.28.14-.4-.43.15-5.38v-6.1l-.15-5.09.35-.34,5.28.14h9.22l5.33-.14.3.34-.15,6.38v18.15l.25,13.73c0,4.27-3.19,5.57-8.42,5.57-1,0-1.2-.24-1.4-.72l-2.14-5.62c1.84,0,3.14-.05,4.59-.19.6-.1.7-.29.7-1.44v-19.01h-8.23ZM567.47,9.21v-1.97h-7.58v1.97h7.58ZM559.89,15.07h7.58v-2.02h-7.58v2.02Z"/><path d="M597.49,19.53c-.3,4.56-1.05,9.12-2.64,13.39,1.65,1.25,3.14,2.5,4.39,3.79l-.05.48-4.04,4.56-.5-.05c-1-1.06-1.99-2.02-3.04-2.98-1.99,2.59-4.64,4.8-7.98,6.91-.25.14-.45.24-.65.24-.25,0-.45-.14-.65-.38l-3.64-4.22c3.34-1.78,5.93-3.79,7.88-6.43-.65-.38-1.25-.77-1.84-1.1l-.45,1.34-.5.19-4.89-1.82-.2-.43c1.65-5.57,2.84-10.85,3.84-16.23l-2.99.05-.35-.34v-5.23l.35-.34,3.94.1c.45-3.02.85-6.14,1.25-9.41l.35-.34,5.83.82.35.34-1.35,8.64h1.55l5.98-.14.35.34-.2,6.38c1.2-.05,2.34-.05,3.49-.1,1.94-5.28,3.74-11.23,4.94-16.56l.5-.14,6.43,1.82.2.48c-1.3,4.27-3.04,9.17-4.98,14.11,2.84-.14,5.68-.34,8.52-.62-1-1.58-2.04-3.17-3.19-4.7l.2-.43,4.69-2.59.5.05c3.09,3.94,5.68,7.87,7.88,12.29l-.15.48-5.33,3.07-.5-.14c-.45-.96-.85-1.92-1.3-2.83-6.28.91-13.06,1.73-20.24,2.35l-.45-.19-1.3-4.46ZM588.96,16.7c-.75,3.79-1.55,7.58-2.59,11.33,1.05.43,1.99.96,2.94,1.49,1.25-3.41,1.89-7.58,2.19-12.82h-2.54ZM606.71,47.09h-7.08l.25-9.02v-5.76l-.15-5.95.35-.34,6.13.14h10.37l6.13-.14.35.34-.15,5.9v5.42l.25,9.02h-7.38v-2.59h-9.07v2.98ZM615.78,38.4v-6.53h-9.07v6.53h9.07Z"/><path d="M641.61,43.15v3.7h-7.53l.25-21.07v-13.2l-.15-8.21.4-.29,8.42.14h18l8.38-.14.4.29-.15,8.21v12.48l.25,21.79h-7.73v-3.7h-20.54ZM662.15,10.27h-20.54v10.18h20.54v-10.18ZM662.15,26.45h-20.54v10.56h20.54v-10.56Z"/><path d="M680.8,42.96c2.69-8.35,5.18-15.65,7.73-22.99-2.29.34-4.98.67-7.48.96l-.4-.29-1.1-5.81.3-.34c3.94-.29,7.63-.72,11.07-1.2,1.2-3.31,2.34-6.72,3.64-10.42l.5-.24,6.73,1.58.15.53c-1.05,2.74-1.99,5.28-2.84,7.63,1-.05,1.95-.1,2.89-.1,4.14,0,8.03,2.45,7.97,9.46-.05,6.34-.95,12.67-2.29,16.42-1.79,5.42-5.08,6.58-7.73,6.58-1.84,0-3.94-.29-6.13-.86-.35-.1-.5-.19-.55-.86l-.6-6.82c1.59.58,3.79,1.06,4.98,1.06,1.6,0,2.29-.29,3.04-2.54.8-2.45,1.79-8.35,1.79-12.53,0-2.88-.35-3.46-2.54-3.46-.9,0-2.04.1-3.29.19-3.34,9.12-5.83,16.56-8.58,25.87l-.55.14-6.58-1.58-.15-.38ZM710.51,14.11l5.29-3.22h.5c4.24,4.46,7.43,9.7,9.57,15.12l-.2.48-6.23,3.46-.45-.1c-1.94-5.52-4.79-11.18-8.57-15.27l.1-.48Z"/><path d="M738.53,14.3l6.23,1.15.3.43c-1,3.5-1.54,6.62-1.99,10.23,3.79-3.79,8.82-5.86,14.26-5.86,8.32,0,12.86,4.99,12.86,11.04,0,9.36-9.42,13.39-23.33,14.11-.9,0-1.2-.05-1.6-.62l-4.14-5.86c13.36-.38,20.79-2.93,20.79-7.54,0-2.88-1.05-4.99-5.19-4.99-4.49,0-10.02,2.4-14.06,9.22l-.5.24-6.08-.53-.35-.43c-.1-6.62.8-13.54,2.29-20.4l.5-.19ZM742.27,8.11l3.09-5.23.5-.24c3.89,1.01,7.58,2.21,12.06,4.46l.1.48-3.39,5.62-.5.1c-4.04-2.16-7.38-3.6-11.71-4.8l-.15-.38Z"/><path d="M815.91,36.24v6h-24.23v-6h7.78V12.96l-8.57,3.12v-6.62l12.81-4.61h4.49v31.39h7.73Z"/><path d="M870,30.91l8.08-.14.3.24v5.47l-.3.24-8.08-.14h-9.02l.2,10.23h-7.73l.2-10.23h-14.71l-8.03.14-.35-.29v-5.38l.3-.29,8.08.14h.55v-7.2l-.15-5.18.3-.34,5.73.14h8.32v-6h-10.37c-1.99,3.07-4.04,5.66-5.93,7.54-.3.29-.55.38-.85.38-.25,0-.5-.1-.8-.29l-4.94-3.17c5.38-5.33,8.57-10.22,10.77-16.37l.4-.05,6.48,2.35.05.53c-.6,1.2-1.2,2.35-1.85,3.46h22.63l7.58-.14.3.24v5.42l-.3.24-7.58-.14h-8.38v6h5.48l7.58-.14.3.24v5.14l-.3.24-7.58-.14h-5.48v7.25h9.07ZM853.7,23.66h-7.38v7.25h7.38v-7.25Z"/><path d="M886.11,4.41l.35-.34,6.38-.14.35.29.7,27.46c4.04-1.73,7.78-3.46,11.67-5.38l.75,5.23c.1.58-.15.77-.65,1.06-6.78,3.6-13.11,6.48-21.84,10.08l-.5-.05-3.24-5.23.25-.48c2.34-.82,4.49-1.58,6.58-2.4l-.8-30.1ZM922.95,3.74c.15,17.23-1.1,24.34-4.19,29.62,3.24,2.74,6.38,5.95,8.43,8.78l-.15.48-4.94,3.98-.5-.1c-1.6-2.3-4.09-5.33-6.73-7.97-3.99,4.32-8.97,7.01-15.35,8.59-.55.14-1,0-1.35-.34l-4.74-4.46c8.38-2.11,14.86-5.33,18.45-10.95,2.99-4.66,4.09-10.22,3.79-28.13l.35-.34,6.58.48.35.34ZM901.26,6.38l.5-.1c3.49,2.11,6.93,5.04,9.22,7.92l-.1.48-4.49,4.22-.5-.1c-2.09-2.98-5.43-6.14-8.72-8.4l.1-.53,3.99-3.5Z"/><path d="M961.84,33.98c-2.54-3.41-4.84-6-7.33-8.35-1.95,3.55-5.04,6.48-9.27,8.74-.2.1-.4.14-.55.14-.3,0-.5-.19-.85-.58l-2.99-3.26v15.89h-7.43l.25-15.12v-15.7l-.15-6.14.35-.34,8.42.14h7.98V1.82l.35-.34h6.48l.35.34v7.58h8.47l8.43-.14.35.34-.15,6.14v10.9l.2,13.44c0,4.18-1.5,6.05-7.48,6.05h-2.84c-1,0-1.1-.1-1.3-.58l-2.29-5.81c1.45,0,4.09-.05,5.38-.14.75-.05.9-.38.9-1.54v-8.54l-4.88,4.46h-.4ZM940.85,15.36v13.44c3.79-1.87,6.53-4.18,7.93-7.39.8-1.73,1.2-3.74,1.4-6.05h-9.32ZM957.35,15.36c-.1,1.39-.25,2.74-.55,4.08,3.84,2.59,7.33,5.62,10.32,9.07v-13.15h-9.77Z"/><path d="M992.2,5.28c-.15.53-.65.82-1.64.77-1.74,7.82-2.64,16.42-2.64,21.6,0,3.6.15,7.25.65,9.5.95-2.35,3.09-7.39,3.79-9.07l2.09,2.11c-2.04,4.85-3.54,7.58-4.24,9.74-.25.82-.4,1.58-.4,2.26,0,.53.1,1.01.25,1.49l-3.54.62c-1.6-4.56-2.19-10.13-2.19-16.51s1.05-15.07,2.64-23.38l5.23.86ZM1023.96,40.37c-1.79.1-3.64.14-5.48.14-3.54,0-6.88-.19-9.27-.53-6.13-.86-8.97-4.13-8.97-7.97,0-3.31,1.89-6.1,4.69-9.26l3.24,1.34c-2.49,2.5-4.24,4.8-4.24,7.54,0,5.57,8.47,5.57,13.66,5.57,2.09,0,4.34-.1,6.43-.24l-.05,3.41ZM1000.87,11.04c6.43-.14,15.11-.72,21.74-1.82l.3,3.36c-6.18,1.01-16.2,1.63-21.93,1.78l-.1-3.31Z"/><path d="M1067.18,24.38l2.49,1.39c-.1.24-.4.38-.7.48-2.64,5.04-6.68,9.02-11.57,12.1,5.48,2.45,11.96,4.13,19.09,4.99-.75.77-1.65,2.16-2.14,3.12-7.68-1.1-14.56-3.17-20.34-6.19-5.88,2.98-12.71,4.94-19.84,6.19-.4-.86-1.29-2.3-1.99-3.02,6.63-.96,13.06-2.59,18.54-5.09-4.14-2.69-7.53-5.95-10.07-9.89l2.64-1.06h-5.08v-2.88h28.31l.65-.14ZM1035.53,18.67v7.25h-3.19v-10.13h8.12c-.65-1.82-2.09-4.42-3.44-6.38l2.99-.86c1.5,2.06,3.09,4.85,3.69,6.62l-1.89.62h21.14c1.75-2.45,3.84-6.05,5.04-8.54l3.99,1.44c-.15.29-.55.38-1.05.38-1.1,1.97-2.84,4.56-4.44,6.72h9.02v10.13h-3.29v-7.25h-36.69ZM1072.56,4.56c-.15.1-.3.14-.55.14-.15,0-.3-.05-.5-.1-9.12,1.78-24.78,3.07-37.89,3.6-.05-.82-.5-2.02-.8-2.78,13.01-.53,28.62-1.87,37.19-3.65l2.54,2.78ZM1043.75,27.41c2.44,3.7,5.98,6.77,10.37,9.27,4.24-2.4,7.78-5.47,10.17-9.27h-20.54ZM1053.22,7.77c1.2,2.26,2.44,5.33,2.79,7.15l-3.24.82c-.3-1.92-1.45-4.99-2.59-7.34l3.04-.62Z"/><path d="M1080.5,12.67v-2.74h16.8v2.74h-16.8ZM1096.2,29.9v14.11h-10.72v2.26h-2.89v-16.37h13.61ZM1096,16.65v2.64h-13.36v-2.64h13.36ZM1082.64,25.92v-2.64h13.36v2.64h-13.36ZM1095.85,3.45v2.64h-12.91v-2.64h12.91ZM1093.26,32.64h-7.78v8.64h7.78v-8.64ZM1127.11,35.81v2.74h-3.09v4.37c0,3.22-1.45,3.41-8.58,3.41-.1-.82-.5-1.92-.9-2.69,1.5.05,2.89.1,3.89.1,2.19,0,2.44,0,2.44-.86v-4.32h-16.75v7.78h-2.94v-7.78h-3.44v-2.74h3.44v-12.38h9.67v-2.98h-13.11v-2.64h7.53v-3.5h-5.13v-2.5h5.13v-3.26h-6.13v-2.54h6.13V1.72l4.04.29c-.05.29-.3.53-.95.62v3.36h8.47V1.72l4.04.29c-.05.29-.3.53-.95.62v3.36h6.33v2.54h-6.33v3.26h5.38v2.5h-5.38v3.5h7.08v2.64h-13.26v2.98h10.27v12.38h3.09ZM1110.86,25.87h-6.73v3.89h6.73v-3.89ZM1104.13,32.11v3.7h6.73v-3.7h-6.73ZM1108.36,8.54v3.26h8.47v-3.26h-8.47ZM1108.36,14.3v3.5h8.47v-3.5h-8.47ZM1120.88,25.87h-7.13v3.89h7.13v-3.89ZM1113.75,35.81h7.13v-3.7h-7.13v3.7Z"/><path d="M1155.08,9.65c-.05-1.06-.2-6.29-.3-7.49l5.13.19c-.05.38-.4.86-1.29,1.01,0,.58,0,1.15.1,6.19,6.13-.19,12.56-.34,16.3-.38v3.31c-4.24-.1-10.27,0-16.2.19.1,3.74.2,7.2.35,9.84.5,1.58.6,3.02.6,5.04,0,1.54-.15,3.31-.5,4.66-1.3,5.62-5.58,10.56-14.36,13.92-.65-.82-1.74-2.02-2.54-2.74,7.63-2.64,11.71-6.62,12.96-11.19h-.05c-1.05,1.44-2.89,2.54-5.13,2.54-4.44,0-8.38-3.5-8.38-8.4-.05-5.09,4.24-8.98,8.97-8.98,1.79,0,3.64.62,4.64,1.49,0-.82-.1-4.03-.2-6.1-5.19.1-20.94.62-22.98.72l-.1-3.17,11.37-.29,11.62-.38ZM1156.03,26.5c0-1.87,0-6.24-5.09-6.24-3.44.05-5.88,2.59-5.93,6.1,0,3.36,2.64,5.57,5.53,5.57,3.54,0,5.48-2.64,5.48-5.42Z"/><path d="M1197.26,22.8c3.29-1.63,8.42-2.78,12.36-2.78,7.93,0,12.91,4.46,12.91,11.52,0,8.69-7.93,13.49-17.95,13.49-6.48,0-10.92-2.5-10.92-6.72,0-3.55,3.64-6.43,8.18-6.43,5.63,0,9.42,4.32,10.17,8.69,3.99-1.44,6.88-4.51,6.88-8.98,0-5.18-3.99-8.5-10.27-8.5-7.48,0-14.81,3.22-18.1,6.29-1.5,1.34-3.44,3.36-4.79,4.85l-2.54-2.45c4.49-4.51,18.74-17.62,25.52-23.71-2.89.38-12.86.77-18.54.96-.15.34-.65.62-1.05.72l-.4-4.08c6.73-.05,19.59-.53,23.23-1.06l.75-.34,2.64,3.12c-.25.19-.7.38-1.2.43-3.54,2.78-13.01,11.33-16.9,14.93v.05ZM1204.14,42c1.49,0,3.24-.19,4.54-.48-.55-3.7-3.39-6.82-7.08-6.82-2.59,0-4.88,1.34-4.88,3.55,0,2.93,4.14,3.74,7.43,3.74Z"/><path d="M1244.07,39.6c0,3.7-3.14,6.72-6.98,6.72s-6.98-3.02-6.98-6.72,3.14-6.72,6.98-6.72,6.98,3.12,6.98,6.72ZM1242.28,39.6c0-2.78-2.29-4.99-5.18-4.99s-5.13,2.21-5.13,4.99,2.29,4.94,5.13,4.94c2.99,0,5.18-2.3,5.18-4.94Z"/><path d="M57.97,460.49c-1.84,2.21-3.79,4.27-5.63,6-.4-.67-1.3-2.11-1.89-2.78,4.19-3.65,9.12-9.7,12.26-15.46l3.79,1.49c-.15.34-.55.43-1.15.43-1.2,2.02-2.59,4.08-4.04,6.05l.95.34c-.15.29-.4.53-1.05.62v25.15h-3.24v-21.84ZM65.39,439.32c-.15.29-.6.43-1.15.38-2.79,3.31-7.63,7.87-11.67,10.9-.4-.67-1.35-1.87-1.99-2.5,3.79-2.74,8.47-6.96,10.92-10.37l3.89,1.58ZM83.49,465.05v12.91c1.45.29,3.04.38,4.74.38,1.05,0,7.93,0,9.42-.05-.5.77-1,2.26-1.1,3.07h-8.52c-7.63,0-13.01-1.82-16.4-9.22-1.25,4.22-3.14,7.78-5.83,10.27-.6-.62-1.69-1.58-2.44-2.06,4.79-4.27,6.63-12.34,7.23-21.89l4.19.53c-.05.34-.35.53-.95.62-.25,2.69-.55,5.28-1.05,7.73,1.6,5.33,4.14,8.16,7.43,9.65v-24.96h-12.61v-3.12h19.24l-1.94-.82c1.79-2.74,4.14-7.25,5.38-10.42l3.89,1.54c-.15.29-.55.43-1.1.43-1.3,2.74-3.34,6.58-5.08,9.26h8.52v3.12h-13.01v9.98h11.07v3.02h-11.07ZM73.12,438.03c2.04,2.98,4.39,6.91,5.43,9.41l-2.94,1.34c-1-2.54-3.34-6.62-5.28-9.65l2.79-1.1Z"/><path d="M146.71,466.06v2.64h-5.28v8.69h-3.39v-2.21h-12.66v3.26c0,2.16-.65,3.02-2.14,3.5-1.55.48-4.19.48-8.42.48-.15-.77-.75-2.02-1.2-2.78,1.84.05,3.69.1,5.03.1,3.04,0,3.34,0,3.34-1.25v-3.31h-16.6v-2.54h16.6v-3.94h-20.89v-2.64h20.89v-3.65h-16.15v-2.45h16.15v-3.22h-14.66v-9.26h14.66v-3.02h-19.99v-2.74h19.99v-4.03l4.34.24c-.05.38-.3.62-.95.67v3.12h20.39v2.74h-20.39v3.02h15.35v9.26h-15.35v3.22h16.05v6.1h5.28ZM110.56,454.4h11.42v-4.56h-11.42v4.56ZM137.28,449.84h-11.91v4.56h11.91v-4.56ZM125.37,462.41v3.65h12.66v-3.65h-12.66ZM138.03,472.64v-3.94h-12.66v3.94h12.66Z"/><path d="M171.24,456.08h-14.96v26.31h-3.29v-42.53h18.25v16.23ZM168.05,442.4h-11.76v4.22h11.76v-4.22ZM156.28,453.53h11.76v-4.51h-11.76v4.51ZM187.34,470.33h-7.08v11.09h-3.04v-11.09h-7.63c-.35,3.12-1.94,8.35-6.88,11.52-.5-.62-1.5-1.54-2.24-2.02,4.39-2.64,5.83-6.67,6.13-9.5h-6.53v-2.74h6.63v-5.62h-5.63v-2.74h25.17v2.74h-5.98v5.62h7.08v2.74ZM169.69,467.6h7.53v-5.62h-7.53v5.62ZM194.62,439.85v38.12c0,4.13-1.89,4.32-9.72,4.32-.15-.91-.6-2.4-1.1-3.31,1.69.05,3.34.1,4.59.1,2.64,0,2.94,0,2.94-1.1v-21.84h-15.4v-16.27h18.69ZM191.33,442.4h-12.16v4.22h12.16v-4.22ZM179.16,453.58h12.16v-4.56h-12.16v4.56Z"/><path d="M217.65,447.72l1.89.48-.3.67c-.7,8.5-2.29,15.31-4.79,20.64,2.44,1.82,4.54,3.6,5.88,5.23l-2.04,2.64c-1.25-1.54-3.14-3.26-5.33-4.99-2.54,4.46-5.88,7.73-9.87,10.03-.45-.82-1.4-1.97-2.09-2.64,3.74-1.92,6.88-5.04,9.37-9.36-1.84-1.34-3.79-2.59-5.68-3.7l-.6,2.11-2.84-1.44c1.25-4.22,2.79-10.32,4.24-16.51h-4.98v-3.02h5.68c.8-3.6,1.5-7.06,2.09-10.13l4.09.48c-.05.34-.35.53-1,.58-.55,2.74-1.25,5.86-1.99,9.07h7.68l.6-.14ZM208.68,450.89c-1.05,4.46-2.19,8.98-3.24,12.91,2.09,1.1,4.24,2.45,6.33,3.79,1.99-4.46,3.44-10.03,4.14-16.71h-7.23ZM239.14,445.66c3.24,3.94,6.73,9.12,7.98,12.62l-2.94,1.54c-.35-.96-.85-2.06-1.45-3.26-7.88.62-15.95,1.1-21.19,1.44-.1.38-.4.58-.7.62l-1.4-3.74,4.04-.14c2.09-4.75,4.44-11.91,5.68-17.04l4.39,1.06c-.15.34-.55.53-1.15.58-1.35,4.46-3.59,10.7-5.63,15.31l14.51-.67c-1.45-2.35-3.19-4.85-4.89-6.96l2.74-1.34ZM223.19,482.33v-19.68h21.14v19.49h-3.34v-2.06h-14.61v2.26h-3.19ZM240.98,465.68h-14.61v11.42h14.61v-11.42Z"/><path d="M257.49,440.86h32.35v40.42h-3.49v-2.88h-25.42v3.17h-3.44v-40.71ZM286.35,444.12h-25.42v13.78h25.42v-13.78ZM260.93,475.13h25.42v-14.07h-25.42v14.07Z"/><path d="M543.87,454.64l2.49,1.39c-.1.24-.4.38-.7.48-2.64,5.04-6.68,9.02-11.57,12.1,5.48,2.45,11.96,4.13,19.09,4.99-.75.77-1.65,2.16-2.14,3.12-7.68-1.1-14.56-3.17-20.34-6.19-5.88,2.98-12.71,4.94-19.84,6.19-.4-.86-1.3-2.3-1.99-3.02,6.63-.96,13.06-2.59,18.54-5.09-4.14-2.69-7.53-5.95-10.07-9.89l2.64-1.06h-5.08v-2.88h28.31l.65-.14ZM512.22,448.92v7.25h-3.19v-10.13h8.13c-.65-1.82-2.09-4.42-3.44-6.38l2.99-.86c1.5,2.06,3.09,4.85,3.69,6.62l-1.89.62h21.14c1.75-2.45,3.84-6.05,5.04-8.54l3.99,1.44c-.15.29-.55.38-1.05.38-1.1,1.97-2.84,4.56-4.44,6.72h9.02v10.13h-3.29v-7.25h-36.69ZM549.26,434.81c-.15.1-.3.14-.55.14-.15,0-.3-.05-.5-.1-9.12,1.78-24.78,3.07-37.89,3.6-.05-.82-.5-2.02-.8-2.78,13.01-.53,28.61-1.87,37.19-3.65l2.54,2.78ZM520.44,457.66c2.44,3.7,5.98,6.77,10.37,9.26,4.24-2.4,7.78-5.47,10.17-9.26h-20.54ZM529.92,438.03c1.2,2.26,2.44,5.33,2.79,7.15l-3.24.82c-.3-1.92-1.45-4.99-2.59-7.34l3.04-.62Z"/><path d="M557.19,442.92v-2.74h16.8v2.74h-16.8ZM572.89,460.16v14.11h-10.72v2.26h-2.89v-16.37h13.61ZM572.69,446.91v2.64h-13.36v-2.64h13.36ZM559.33,456.17v-2.64h13.36v2.64h-13.36ZM572.54,433.71v2.64h-12.91v-2.64h12.91ZM569.95,462.89h-7.78v8.64h7.78v-8.64ZM603.8,466.06v2.74h-3.09v4.37c0,3.22-1.45,3.41-8.58,3.41-.1-.82-.5-1.92-.9-2.69,1.5.05,2.89.1,3.89.1,2.19,0,2.44,0,2.44-.86v-4.32h-16.75v7.78h-2.94v-7.78h-3.44v-2.74h3.44v-12.38h9.67v-2.98h-13.11v-2.64h7.53v-3.5h-5.13v-2.5h5.13v-3.26h-6.13v-2.54h6.13v-4.27l4.04.29c-.05.29-.3.53-.95.62v3.36h8.47v-4.27l4.04.29c-.05.29-.3.53-.95.62v3.36h6.33v2.54h-6.33v3.26h5.38v2.5h-5.38v3.5h7.08v2.64h-13.26v2.98h10.27v12.38h3.09ZM587.55,456.12h-6.73v3.89h6.73v-3.89ZM580.82,462.36v3.7h6.73v-3.7h-6.73ZM585.06,438.79v3.26h8.47v-3.26h-8.47ZM585.06,444.56v3.5h8.47v-3.5h-8.47ZM597.57,456.12h-7.13v3.89h7.13v-3.89ZM590.44,466.06h7.13v-3.7h-7.13v3.7Z"/><path d="M632.12,461.74v2.93h-25.07v-2.93h5.03v-20.26h-4.34v-2.93h4.34v-6l4.04.24c-.05.34-.3.53-.95.62v5.14h9.72v-6l4.09.24c-.05.34-.3.58-.95.62v5.14h3.79v2.93h-3.79v20.26h4.09ZM618.11,467.07c-.15.29-.5.43-1.05.43-1.75,3.22-4.54,6.77-7.23,9.02-.6-.53-1.74-1.39-2.49-1.82,2.59-2.02,5.28-5.47,6.88-8.88l3.89,1.25ZM624.89,441.48h-9.72v4.75h9.72v-4.75ZM615.17,448.92v4.85h9.72v-4.85h-9.72ZM615.17,456.41v5.33h9.72v-5.33h-9.72ZM651.86,434.43v38.07c0,3.89-1.84,4.18-9.32,4.08-.1-.82-.6-2.26-1.05-3.12,1.59.05,3.14.1,4.29.1,2.54,0,2.84,0,2.84-1.06v-12.53h-11.37c-.6,5.95-2.14,12.24-5.88,16.9-.5-.62-1.84-1.58-2.59-1.92.5-.58.95-1.2,1.4-1.87-.1,0-2.24,1.25-2.74,1.54-.95-1.97-3.19-5.18-5.18-7.44l2.64-1.39c1.99,2.26,4.24,5.23,5.28,7.2,3.89-6.29,4.29-14.45,4.29-20.88v-17.67h17.4ZM637.6,452.09c0,1.54-.05,3.22-.15,4.94h11.17v-8.45h-11.02v3.5ZM648.62,437.4h-11.02v8.26h11.02v-8.26Z"/><path d="M672.46,433.95l2.24,1.3c-.1.14-.25.34-.45.43-1.45,3.7-3.54,8.59-5.48,12.53,4.24,3.94,5.73,7.25,5.73,10.42,0,7.01-4.83,6.82-9.07,6.67-.05-.86-.4-2.11-.85-2.88,1.35.1,2.64.1,3.59.1.7-.1,1.3-.24,1.84-.53.9-.48,1.3-1.87,1.3-3.36s-.1-4.9-5.78-10.03c1.74-3.65,3.54-8.21,4.79-11.57h-8.08v39.6h-3.14v-42.53h12.81l.55-.14ZM689.45,455.64c.75,2.59,1.75,5.09,2.94,7.3,2.39-1.82,5.13-4.27,6.83-6.14l3.09,2.3c-.15.19-.55.29-1,.24-1.89,1.78-4.98,4.18-7.53,5.95,2.44,3.79,5.68,6.72,9.67,8.45-.75.62-1.74,1.82-2.24,2.69-7.53-3.65-12.26-11.23-14.76-20.79h-5.73v15.36l9.57-1.97.25,2.88c-6.18,1.39-12.76,2.88-16.85,3.74-.05.34-.3.62-.65.72l-1.45-3.65c1.65-.29,3.64-.67,5.83-1.1v-37.49h22.63v21.51h-10.62ZM696.73,437.02h-16v6.34h16v-6.34ZM680.73,446.14v6.62h16v-6.62h-16Z"/><path d="M714.09,435.1h32.35v40.42h-3.49v-2.88h-25.42v3.17h-3.44v-40.71ZM742.95,438.36h-25.42v13.78h25.42v-13.78ZM717.53,469.37h25.42v-14.07h-25.42v14.07Z"/><path d="M275.94,257.41v-32.21h-.1l-6.13,3.41-1-2.98,7.73-4.18h3.54v35.96h-4.04Z"/><path d="M350.72,247.33v3.17h-18.64v10.99h-3.39v-10.99h-23.63v-3.17h8.38v-13.2h15.25v-7.87h-12.86c-2.39,3.79-5.13,7.2-7.98,9.7-.6-.58-1.89-1.63-2.69-2.11,4.64-3.84,9.02-10.47,11.62-17.14l4.24,1.3c-.2.43-.65.53-1.15.43-.65,1.58-1.4,3.12-2.24,4.66h30.71v3.17h-16.25v7.87h15.15v3.07h-15.15v10.13h18.64ZM316.82,247.33h11.86v-10.13h-11.86v10.13Z"/><path d="M364.64,249.44c3.69-1.06,7.68-2.21,11.57-3.36l.5,3.02c-7.33,2.3-15.15,4.75-20.09,6.19,0,.38-.3.67-.65.77l-1.6-3.79c1.89-.48,4.19-1.1,6.73-1.82l-.65-31.01c2.54.19,3.54.24,4.54.29-.05.34-.35.58-1,.67l.65,29.04ZM397.24,220.01c-.1.43-.45.62-1.15.67-1.35,10.71-3.44,19.2-7.33,25.87,4.44,4.13,9.82,9.36,12.61,12.67l-2.94,2.4c-2.49-3.17-7.33-8.11-11.57-12.19-3.99,5.38-9.52,9.36-17.3,12.24-.5-.72-1.65-1.97-2.44-2.64,17.55-5.9,23.13-18.19,25.52-39.7l4.59.67ZM374.26,222.46c3.39,3.5,6.68,8.31,8.08,11.67l-3.24,1.63c-1.25-3.36-4.54-8.35-7.83-11.9l2.99-1.39Z"/><path d="M447.84,225.25v31.87c0,2.26-.55,3.31-2.24,3.89-1.69.53-4.79.58-9.32.58-.15-.96-.7-2.4-1.2-3.31,1.84.05,3.64.1,5.08.1,4.14,0,4.34,0,4.34-1.25v-28.71h-15.6c-.1,1.97-.35,4.03-.85,6.14,5.18,4.37,11.42,10.18,14.56,13.87l-2.74,2.06c-2.74-3.31-7.98-8.54-12.81-12.82-1.84,4.85-5.53,9.65-12.71,13.68-.5-.72-1.6-1.87-2.39-2.45,11.37-5.9,13.26-14.02,13.56-20.5h-14.81v33.17h-3.34v-36.34h18.2v-8.4l4.39.29c-.05.34-.3.58-1,.67v7.44h18.89Z"/><path d="M532.53,130.58l16.45,15.84,16.45-15.84,1.45,1.39-16.45,15.84,16.45,15.84-1.45,1.39-16.45-15.84-16.5,15.89-1.45-1.39,16.5-15.89-16.45-15.84,1.45-1.39ZM534.77,151.42c-2.04,0-3.74-1.63-3.74-3.6s1.69-3.6,3.74-3.6,3.74,1.63,3.74,3.6c0,2.06-1.79,3.6-3.74,3.6ZM545.24,134.14c0-1.97,1.7-3.6,3.74-3.6s3.74,1.63,3.74,3.6-1.7,3.6-3.74,3.6-3.74-1.73-3.74-3.6ZM552.72,161.5c0,1.97-1.7,3.6-3.74,3.6s-3.74-1.63-3.74-3.6,1.7-3.6,3.74-3.6c2.14,0,3.74,1.73,3.74,3.6ZM563.19,144.22c2.04,0,3.74,1.63,3.74,3.6s-1.69,3.6-3.74,3.6-3.74-1.63-3.74-3.6,1.79-3.6,3.74-3.6Z"/><path d="M585.78,158.09c3.69-1.06,7.68-2.21,11.57-3.36l.5,3.02c-7.33,2.3-15.15,4.75-20.09,6.19,0,.38-.3.67-.65.77l-1.59-3.79c1.89-.48,4.19-1.1,6.73-1.82l-.65-31.01c2.54.19,3.54.24,4.54.29-.05.34-.35.58-1,.67l.65,29.04ZM618.38,128.66c-.1.43-.45.62-1.15.67-1.35,10.71-3.44,19.2-7.33,25.87,4.44,4.13,9.82,9.36,12.61,12.67l-2.94,2.4c-2.49-3.17-7.33-8.11-11.57-12.19-3.99,5.38-9.52,9.36-17.3,12.24-.5-.72-1.65-1.97-2.44-2.64,17.55-5.9,23.13-18.19,25.52-39.7l4.59.67ZM595.4,131.11c3.39,3.5,6.68,8.3,8.08,11.66l-3.24,1.63c-1.25-3.36-4.54-8.35-7.83-11.9l2.99-1.39Z"/><path d="M639.87,127.51l2.14,1.25c-.05.14-.25.34-.4.43-1.3,3.65-3.24,8.5-4.94,12.48,3.84,3.94,5.18,7.3,5.18,10.37,0,6.91-4.39,6.72-8.28,6.58-.05-.82-.4-2.06-.85-2.83.75.1,1.5.14,2.14.14,1.94,0,3.89,0,3.89-4.08-.05-2.69-1.4-5.95-5.23-9.79,1.6-3.65,3.14-8.11,4.24-11.47h-7.13v39.6h-3.04v-42.53h11.71l.55-.14ZM661.01,152.95v6.58h10.87v2.88h-10.87v7.73h-3.24v-7.73h-15.85v-2.88h6.18v-6.58h-3.74v-2.83h13.41v-4.03l4.24.24c-.05.34-.35.58-1,.67v3.12h8.77v2.83h-8.77ZM665.74,129.38l2.14,1.01c-.1.24-.3.34-.45.48-1.75,3.74-4.39,6.96-7.58,9.6,3.59,2.26,7.83,3.94,12.46,4.85-.7.62-1.6,1.82-2.04,2.64-4.79-1.1-9.17-3.02-12.86-5.62-4.09,2.83-8.82,4.9-13.51,6.24-.35-.77-1.15-1.97-1.79-2.59,4.44-1.06,8.97-2.93,12.86-5.52-1.99-1.68-3.74-3.6-5.18-5.66-1.4,1.68-3.04,3.31-4.88,4.8-.55-.62-1.55-1.58-2.29-2.02,4.64-3.55,7.83-8.3,9.47-12.15l3.99.58c-.15.38-.4.53-1,.58-.45.91-1,1.92-1.59,2.93h11.67l.6-.14ZM651.19,159.53h6.58v-6.58h-6.58v6.58ZM651.73,132.22l-.15.24c1.45,2.3,3.44,4.42,5.78,6.29,2.39-1.87,4.44-4.08,5.88-6.53h-11.52Z"/><path d="M680.35,167.45c-1.54-3.46-2.14-10.61-2.14-16.9s1.05-14.4,2.69-22.42l4.83.91c-.1.48-.6.82-1.3.86-1.79,6.58-2.89,15.12-2.89,20.69,0,3.65.05,7.3.45,9.07,1.1-2.88,3.09-7.49,4.14-9.74l2.24,2.02c-1.65,3.26-5.13,10.56-5.13,12.82,0,.67.15,1.39.5,2.3l-3.39.38ZM693.02,139.18c4.19.05,8.38.1,12.56-.19-.2-4.13-.35-7.68-.45-11.23l5.03.14c-.05.48-.5.86-1.3,1.01.05,3.07.15,6.19.25,9.84,3.94-.38,7.13-1.06,9.77-1.92l.45,3.36c-2.39.72-5.83,1.39-10.07,1.73.2,5.33.45,10.94.6,14.02,3.79,1.49,7.58,3.84,10.17,6.1l-1.94,3.07c-2.04-1.97-4.99-4.08-8.08-5.47-.05,4.08-.85,8.64-8.33,8.64-5.83,0-9.72-2.69-9.72-6.91,0-4.9,5.13-7.06,9.72-7.06,1.55,0,3.19.19,4.74.62-.15-3.02-.45-8.06-.7-12.77-1.54.1-3.64.14-5.08.14h-7.58l-.05-3.12ZM706.68,158.04c-1.59-.48-3.29-.86-4.94-.86-3.04,0-6.68,1.06-6.68,4.08,0,2.69,2.99,4.03,6.63,4.03s5.04-1.73,5.04-5.57l-.05-1.68Z"/><path d="M771.09,147.1h-24.73v23.04h-3.24v-5.62c-5.93.86-11.81,1.63-15.7,2.11-.05.34-.35.58-.7.62l-1.15-3.36,4.79-.48v-16.32h-4.59v-2.74h45.31v2.74ZM764.56,127.61v13.63h-32.25v-13.63h32.25ZM743.12,150.51v-3.41h-9.62v3.41h9.62ZM743.12,156.51v-3.5h-9.62v3.5h9.62ZM733.5,159v4.08c3.04-.34,6.33-.67,9.62-1.06v-3.02h-9.62ZM761.22,133.22v-3.26h-25.67v3.26h25.67ZM761.22,138.89v-3.36h-25.67v3.36h25.67ZM766.7,150.27l2.14.82c-.15.29-.3.38-.45.58-1.5,4.42-4.04,8.16-7.13,11.19,2.89,2.16,6.38,3.74,10.27,4.7-.75.62-1.59,1.78-2.04,2.54-3.99-1.1-7.53-2.93-10.52-5.28-2.94,2.35-6.33,4.13-9.77,5.38-.4-.77-1.25-1.92-1.89-2.54,3.29-1.01,6.53-2.69,9.37-4.9-2.59-2.54-4.64-5.62-6.08-9.12l1.94-.58h-4.74v-2.69h18.29l.6-.1ZM753.44,153.05c1.25,2.98,3.09,5.62,5.48,7.82,2.29-2.21,4.24-4.85,5.53-7.82h-11.02Z"/><path d="M795.77,145.75c-.2.19-.6.29-1,.24-1,1.25-2.64,3.07-4.04,4.42,1.7,1.73,3.34,3.41,3.94,4.08l-2.04,2.4c-1.15-1.54-3.89-4.75-5.98-7.01v20.26h-3.34v-18.58c-2.29,2.45-4.69,4.61-7.03,6.34-.35-.77-1.3-2.21-1.89-2.78,5.73-3.84,11.91-10.71,15.25-17.62h-13.81v-2.98h7.48v-8.98l4.29.24c-.05.34-.3.58-.95.67v8.06h4.79l.6-.14,2.29,1.3c-.1.24-.4.43-.7.48-1.54,3.7-3.84,7.39-6.43,10.8.55.48,1.25,1.15,1.99,1.92,1.3-1.58,2.94-3.74,3.84-5.23l2.74,2.11ZM818.6,130.1l1.84.14c-.05.24-.05.77-.1,1.15-.55,25.54-1.1,33.75-3.04,36.15-1.2,1.63-2.44,2.11-6.23,2.11-1.45,0-3.14-.05-4.74-.14-.1-.96-.5-2.35-1.1-3.31,3.19.24,5.93.24,7.18.24.8,0,1.3-.19,1.74-.82,1.6-1.73,2.24-9.89,2.79-32.4h-10.77c-.45,13.06-1.3,28.8-13.31,36.96-.6-.77-1.69-1.82-2.59-2.4,11.27-7.2,12.21-21.75,12.46-34.56h-8.87v-3.07h23.93l.8-.05Z"/><path d="M851.01,134.28c-.2.43-.6.77-1.25.77-1.79,14.93-6.98,27.94-15.25,27.94-4.19,0-7.98-4.03-7.98-11.62,0-11.52,9.32-21.17,22.43-21.17,14.41,0,20.64,8.78,20.64,18.15,0,11.42-6.88,16.95-18.94,19.63-.45-.77-1.3-2.06-2.09-2.93,11.47-2.11,17.35-7.49,17.35-16.56,0-7.92-5.28-15.12-16.95-15.12-.5,0-1.05.05-1.5.1l3.54.82ZM846.23,133.66c-10.07,1.2-16.3,9.22-16.3,17.62,0,5.14,2.29,8.35,4.69,8.35,6.03,0,10.37-12.82,11.62-25.97Z"/><path d="M906.75,166.06h-3.94v-10.08h-16.3v-2.54l15.95-23.33h4.29v22.8h5.08v3.07h-5.08v10.08ZM890.7,152.91h12.11v-12.77c0-1.97.1-3.89.2-5.76h-.2c-1.15,2.21-2.04,3.74-2.99,5.38l-9.12,13.06v.1Z"/><path d="M966.38,128.14v37.25c0,2.5-.7,3.6-2.54,4.18s-5.18.62-10.62.58c-.25-.91-.9-2.45-1.45-3.41,2.39.1,4.69.14,6.48.14,4.34,0,4.64,0,4.64-1.49v-10.71h-24.68c-1.3,5.62-3.89,11.28-9.17,15.55-.5-.72-1.74-1.92-2.49-2.4,8.57-7.01,9.42-16.95,9.42-24.91v-14.79h30.41ZM939.36,142.92c0,2.45-.1,5.47-.55,8.64h24.08v-8.64h-23.53ZM962.89,131.3h-23.53v8.54h23.53v-8.54Z"/><path d="M1000.73,166.06v-32.21h-.1l-6.13,3.41-1-2.98,7.73-4.18h3.54v35.96h-4.04Z"/><path d="M1036.73,128.66h32.35v40.42h-3.49v-2.88h-25.42v3.17h-3.44v-40.71ZM1065.59,131.93h-25.42v13.78h25.42v-13.78ZM1040.17,162.94h25.42v-14.07h-25.42v14.07Z"/><path d="M1098.65,127.85c-.1.58-.7.82-1.65.86-.55,2.69-1.45,7.34-2.04,10.22,2.24-.24,4.29-.43,5.53-.43,7.58-.1,10.17,4.75,10.17,11.95,0,3.6-.7,7.87-1.69,10.75-1.55,4.9-4.74,7.25-8.87,7.25-2.04,0-4.74-.82-9.02-4.18.55-.86.95-1.92,1.35-2.93,3.99,2.98,6.08,3.65,7.63,3.65,2.84,0,4.54-1.73,5.53-4.8,1.05-2.98,1.6-7.39,1.6-9.84-.05-5.47-1.89-8.74-6.88-8.69-1.5,0-3.54.19-6.08.48-2.49,9.79-5.43,18.19-10.22,25.92l-3.29-1.54c4.83-7.44,7.58-14.88,9.92-24-2.54.29-6.18.72-8.87,1.15l-.3-3.36c2.44-.29,6.53-.72,9.87-1.1.75-3.5,1.54-7.82,2.14-12.05l5.18.67ZM1121.73,150.94c-1.6-7.01-6.33-12.96-11.22-16.42l2.69-2.02c5.28,3.6,10.52,10.22,12.11,17.09l-3.59,1.34Z"/><path d="M1142.77,135.86c-.2.48-.6.72-1.3.82-.4,7.1-1.35,13.15-2.04,14.16h.05c4.89-3.5,12.51-5.9,18.35-5.9,7.68,0,12.46,3.79,12.36,10.51-.15,8.83-7.73,12.77-27.02,13.54-.25-.91-.7-2.26-1.25-3.17,17.4-.72,24.38-3.46,24.53-10.32.05-4.61-3.29-7.39-9.12-7.39-9.22,0-17.55,5.33-18.94,7.68l-3.39-1.58c1-.91,2.74-9.5,2.84-18.91l4.93.58ZM1143.62,126.55c6.78.77,14.46,2.26,19.34,4.22l-1.25,3.31c-5.13-2.11-12.56-3.5-19.14-4.37l1.05-3.17Z"/><path d="M539.71,206.62c4.39.72,8.12,4.13,8.12,9.31,0,5.71-4.29,10.71-12.66,10.71-3.74,0-7.13-1.15-8.82-2.3l1.25-3.07c1.35.86,4.34,2.16,7.63,2.16,6.28,0,8.32-4.22,8.32-7.54,0-5.28-4.64-7.68-9.52-7.68h-2.44v-2.98h2.44c3.59,0,8.23-2.16,8.23-6.67,0-3.12-1.94-5.81-6.43-5.81-2.74,0-5.33,1.3-6.83,2.35l-1.25-2.93c1.79-1.34,5.28-2.69,8.87-2.69,6.83,0,9.87,4.18,9.87,8.5,0,3.7-2.44,7.01-6.78,8.5v.14Z"/><path d="M611.8,215.98v3.17h-18.64v10.99h-3.39v-10.99h-23.63v-3.17h8.38v-13.2h15.25v-7.87h-12.86c-2.39,3.79-5.13,7.2-7.98,9.7-.6-.58-1.89-1.63-2.69-2.11,4.64-3.84,9.02-10.47,11.62-17.14l4.24,1.3c-.2.43-.65.53-1.15.43-.65,1.58-1.4,3.12-2.24,4.66h30.71v3.17h-16.25v7.87h15.16v3.07h-15.16v10.13h18.64ZM577.9,215.98h11.86v-10.13h-11.86v10.13Z"/><path d="M625.71,218.09c3.69-1.06,7.68-2.21,11.57-3.36l.5,3.02c-7.33,2.3-15.16,4.75-20.09,6.19,0,.38-.3.67-.65.77l-1.6-3.79c1.89-.48,4.19-1.1,6.73-1.82l-.65-31.01c2.54.19,3.54.24,4.54.29-.05.34-.35.58-1,.67l.65,29.04ZM658.31,188.66c-.1.43-.45.62-1.15.67-1.35,10.71-3.44,19.2-7.33,25.87,4.44,4.13,9.82,9.36,12.61,12.67l-2.94,2.4c-2.49-3.17-7.33-8.11-11.57-12.19-3.99,5.38-9.52,9.36-17.3,12.24-.5-.72-1.65-1.97-2.44-2.64,17.55-5.9,23.13-18.19,25.52-39.7l4.59.67ZM635.33,191.11c3.39,3.5,6.68,8.3,8.08,11.66l-3.24,1.63c-1.25-3.36-4.54-8.35-7.83-11.9l2.99-1.39Z"/><path d="M708.92,193.9v31.87c0,2.26-.55,3.31-2.24,3.89-1.69.53-4.79.58-9.32.58-.15-.96-.7-2.4-1.2-3.31,1.84.05,3.64.1,5.08.1,4.14,0,4.34,0,4.34-1.25v-28.71h-15.6c-.1,1.97-.35,4.03-.85,6.14,5.18,4.37,11.42,10.18,14.56,13.87l-2.74,2.06c-2.74-3.31-7.98-8.54-12.81-12.82-1.84,4.85-5.53,9.65-12.71,13.68-.5-.72-1.59-1.87-2.39-2.45,11.37-5.9,13.26-14.02,13.56-20.5h-14.81v33.17h-3.34v-36.34h18.2v-8.4l4.39.29c-.05.34-.3.58-1,.67v7.44h18.89Z"/><path d="M726.67,189.1c-.15.53-.65.82-1.64.77-1.75,7.82-2.64,16.42-2.64,21.6,0,3.6.15,7.25.65,9.5.95-2.35,3.09-7.39,3.79-9.07l2.09,2.11c-2.04,4.85-3.54,7.58-4.24,9.74-.25.82-.4,1.58-.4,2.26,0,.53.1,1.01.25,1.49l-3.54.62c-1.6-4.56-2.19-10.13-2.19-16.51s1.05-15.07,2.64-23.38l5.23.86ZM758.42,224.19c-1.79.1-3.64.14-5.48.14-3.54,0-6.88-.19-9.27-.53-6.13-.86-8.97-4.13-8.97-7.97,0-3.31,1.89-6.1,4.69-9.26l3.24,1.34c-2.49,2.5-4.24,4.8-4.24,7.54,0,5.57,8.47,5.57,13.66,5.57,2.09,0,4.34-.1,6.43-.24l-.05,3.41ZM735.34,194.86c6.43-.14,15.11-.72,21.74-1.82l.3,3.36c-6.18,1.01-16.2,1.63-21.93,1.78l-.1-3.31Z"/><path d="M801.65,208.2l2.49,1.39c-.1.24-.4.38-.7.48-2.64,5.04-6.68,9.02-11.57,12.1,5.48,2.45,11.96,4.13,19.09,4.99-.75.77-1.65,2.16-2.14,3.12-7.68-1.1-14.56-3.17-20.34-6.19-5.88,2.98-12.71,4.94-19.84,6.19-.4-.86-1.3-2.3-1.99-3.02,6.63-.96,13.06-2.59,18.54-5.09-4.14-2.69-7.53-5.95-10.07-9.89l2.64-1.06h-5.08v-2.88h28.31l.65-.14ZM770,202.49v7.25h-3.19v-10.13h8.13c-.65-1.82-2.09-4.42-3.44-6.38l2.99-.86c1.5,2.06,3.09,4.85,3.69,6.62l-1.89.62h21.14c1.75-2.45,3.84-6.05,5.04-8.54l3.99,1.44c-.15.29-.55.38-1.05.38-1.1,1.97-2.84,4.56-4.44,6.72h9.02v10.13h-3.29v-7.25h-36.69ZM807.04,188.38c-.15.1-.3.14-.55.14-.15,0-.3-.05-.5-.1-9.12,1.78-24.78,3.07-37.89,3.6-.05-.82-.5-2.02-.8-2.78,13.01-.53,28.61-1.87,37.19-3.65l2.54,2.78ZM778.22,211.23c2.44,3.7,5.98,6.77,10.37,9.27,4.24-2.4,7.78-5.47,10.17-9.27h-20.54ZM787.69,191.59c1.2,2.26,2.44,5.33,2.79,7.15l-3.24.82c-.3-1.92-1.45-4.99-2.59-7.34l3.04-.62Z"/><path d="M814.97,196.49v-2.74h16.8v2.74h-16.8ZM830.67,213.72v14.11h-10.72v2.26h-2.89v-16.37h13.61ZM830.47,200.47v2.64h-13.36v-2.64h13.36ZM817.11,209.74v-2.64h13.36v2.64h-13.36ZM830.32,187.27v2.64h-12.91v-2.64h12.91ZM827.73,216.46h-7.78v8.64h7.78v-8.64ZM861.58,219.63v2.74h-3.09v4.37c0,3.22-1.45,3.41-8.58,3.41-.1-.82-.5-1.92-.9-2.69,1.5.05,2.89.1,3.89.1,2.19,0,2.44,0,2.44-.86v-4.32h-16.75v7.78h-2.94v-7.78h-3.44v-2.74h3.44v-12.39h9.67v-2.98h-13.11v-2.64h7.53v-3.5h-5.13v-2.5h5.13v-3.26h-6.13v-2.54h6.13v-4.27l4.04.29c-.05.29-.3.53-.95.62v3.36h8.47v-4.27l4.04.29c-.05.29-.3.53-.95.62v3.36h6.33v2.54h-6.33v3.26h5.38v2.5h-5.38v3.5h7.08v2.64h-13.26v2.98h10.27v12.39h3.09ZM845.33,209.69h-6.73v3.89h6.73v-3.89ZM838.6,215.93v3.7h6.73v-3.7h-6.73ZM842.83,192.36v3.26h8.47v-3.26h-8.47ZM842.83,198.12v3.5h8.47v-3.5h-8.47ZM855.35,209.69h-7.13v3.89h7.13v-3.89ZM848.22,219.63h7.13v-3.7h-7.13v3.7Z"/><line x1=".01" y1="338.59" x2="1277.79" y2="337.2" style="stroke:#000; stroke-miterlimit:10; stroke-width:20px;"/><polygon points="639.06 344.02 670.22 398 607.9 398 639.06 344.02" style="stroke:#231815; stroke-linecap:round; stroke-miterlimit:10;"/><circle cx="145.15" cy="326.78" r="38.19" style="stroke:#231815; stroke-linecap:round; stroke-miterlimit:10;"/><line x1="638.9" y1="339.98" x2="638.9" y2="274.7" style="stroke:#231815; stroke-linecap:round; stroke-miterlimit:10; stroke-width:10px;"/><line x1="145.15" y1="337.2" x2="145.15" y2="430.25" style="fill:none; stroke:#231815; stroke-linecap:round; stroke-miterlimit:10; stroke-width:10px;"/><line x1="165.29" y1="285.81" x2="250.01" y2="239.98" style="stroke:#231815; stroke-linecap:round; stroke-miterlimit:10;"/><line x1="462.51" y1="245.53" x2="629.18" y2="320.53" style="stroke:#231815; stroke-linecap:round; stroke-miterlimit:10;"/></svg>