<?xml version="1.0" encoding="UTF-8"?><svg id="_レイヤー_1" xmlns="http://www.w3.org/2000/svg" viewBox="0 0 1277.8 534.24"><path d="M58.31,39.07c0,1.06.3,1.39.9,1.63.55.14,1.99.29,4.09.29,2.29,0,3.79-.24,4.54-.91.8-.72,1.2-1.87,1.25-5.52.9.58,2.29,1.1,3.69,1.44q1.25.34,1.15,1.58c-.3,3.31-1.05,4.75-2.39,5.95-1.5,1.3-4.09,1.87-8.62,1.87s-6.73-.34-7.93-.96c-1-.53-1.79-1.54-1.79-3.98v-10.22h-4.94c-.65,8.83-5.23,13.35-15,15.6-.5.1-.9.19-1.15.19-.5,0-.65-.24-1.05-1.15-.5-1.15-1.2-2.26-2.19-3.22,9.17-1.34,13.66-4.32,14.16-11.42h-.8c-4.84,0-6.58.1-6.93.1-.5,0-.55-.05-.55-.58,0-.29.1-1.44.1-4.03v-5.52c0-1.15,0-1.97-.05-2.59l-2.49,1.58c-.55.34-.85.48-1.1.48-.3,0-.5-.29-.8-1.06-.5-1.15-1.15-2.16-1.89-3.02,5.33-2.74,9.92-6.58,12.71-10.61.75-1.1,1.2-2.02,1.6-3.07,1.99.29,3.54.62,4.79.91.65.19.8.43.8.77,0,.29-.15.48-.55.77-.35.24-.75.77-1.4,1.68l-.45.67h9.62c.65,0,.9-.05,1.15-.14.35-.14.5-.19.75-.19.3,0,.8.24,1.99,1.2,1.15.96,1.35,1.3,1.35,1.73,0,.38-.25.62-.75.86-.4.19-.9.62-1.55,1.49-1.2,1.39-2.44,2.74-3.74,4.03h6.43c4.89,0,6.63-.1,6.98-.1.45,0,.5.05.5.58,0,.29-.1,1.34-.1,4.03v5.52c0,2.59.1,3.74.1,4.03,0,.53-.05.58-.5.58-.35,0-2.09-.1-6.98-.1h-2.94v8.83ZM48.89,15.69c1.3-1.39,2.54-2.93,4.04-4.85h-10.22c-1.55,1.73-3.24,3.31-5.18,4.85h11.37ZM49.04,26.16v-6.34h-9.12v6.34h9.12ZM63.54,19.82h-9.47v6.34h9.47v-6.34Z"/><path d="M87.28,9.41c0-3.41-.05-4.9-.4-7.25,1.94.05,3.54.14,5.28.34.5.05.8.24.8.48,0,.34-.15.62-.3.96-.25.62-.3,1.82-.3,5.33v27.84c0,5.47.1,8.21.1,8.45,0,.48-.05.53-.55.53h-4.14c-.55,0-.6-.05-.6-.53,0-.29.1-2.98.1-8.4v-7.39c-1.65,1.1-3.24,2.02-4.84,2.98-.7.38-1.1.77-1.3,1.01-.2.24-.45.43-.7.43s-.6-.14-.75-.48c-.6-1.34-1.3-3.07-1.84-4.61,1.05-.34,1.94-.72,2.79-1.1,2.69-1.2,4.69-2.26,6.63-3.55v-15.03ZM81.85,9.45c.55-.24.65-.19.9.24,1.5,2.54,2.59,4.99,3.69,7.97.2.48.1.67-.55.96l-2.99,1.3c-.65.29-.8.29-.95-.24-.95-2.93-1.94-5.52-3.39-7.97-.25-.48-.2-.62.4-.91l2.89-1.34ZM101.69,20.11c-4.84,0-6.48.1-6.78.1-.5,0-.55-.05-.55-.53v-3.7c0-.48.05-.53.55-.53.3,0,1.94.1,6.78.1h3.49c.05-1.97.1-4.08.1-6.38,0-2.93-.1-4.51-.35-6.72,1.84.05,3.69.14,5.43.34.55.05.8.29.8.58,0,.43-.15.67-.35,1.01-.25.48-.3,1.2-.3,4.75,0,2.16-.05,4.32-.15,6.43h5.88c4.79,0,6.48-.1,6.78-.1.45,0,.5.05.5.53v3.7c0,.48-.05.53-.5.53-.3,0-1.99-.1-6.78-.1h-5.18c1.79,9.07,6.73,16.51,13.56,21.27-1,.91-1.99,2.16-2.69,3.46-.35.62-.6.96-.9.96-.25,0-.55-.19-1.05-.58-5.13-4.08-9.02-10.18-11.12-17.33-.2.96-.5,1.87-.75,2.69-2.24,6.34-5.58,10.61-10.22,14.55-.55.43-.85.67-1.1.67-.3,0-.5-.29-.95-.86-.85-1.15-1.89-2.21-2.84-2.93,4.49-3.17,7.63-6.96,10.07-13.2.9-2.45,1.45-5.28,1.79-8.69h-3.19ZM115.89,4.27c.3-.19.45-.24.6-.24s.3.14.5.34c1.65,1.63,3.49,3.84,4.98,6.19.25.43.25.53-.35.91l-2.94,1.68c-.25.19-.45.29-.6.29s-.25-.1-.4-.38c-1.45-2.45-2.99-4.46-4.69-6.34-.35-.38-.3-.58.3-.91l2.59-1.54Z"/><path d="M144.46,22.61c.55-.24.65-.19.9.24,1.55,2.98,3.34,5.47,5.48,7.68,1.2-1.34,2.29-2.74,3.24-4.27.95-1.49,1.55-2.74,2.09-4.18,1.89.77,3.19,1.44,4.39,1.97.45.24.75.58.75.86,0,.34-.2.62-.6.96-.5.38-1.1,1.1-1.84,2.16-1.5,2.11-2.89,3.98-4.39,5.66,4.69,3.36,10.77,5.62,19.04,7.06-.9,1.06-1.54,2.4-2.04,3.74-.35.91-.5,1.3-.95,1.3-.25,0-.7-.1-1.15-.19-8.18-2.11-13.96-4.8-18.49-8.35-4.19,3.5-9.47,6-18,8.4-.55.14-.9.24-1.15.24-.5,0-.6-.29-1-1.2-.55-1.2-1.45-2.35-2.24-3.17,7.93-1.63,14.01-4.18,18.64-7.68-2.39-2.54-4.44-5.47-6.33-8.83-.25-.43-.15-.58.45-.86l3.19-1.54ZM138.93,16.08c.7-.77,1.4-1.82,1.89-2.93,1.5.67,2.89,1.34,3.94,2.06.7.48.9.67.9.96s-.2.48-.65.77c-.5.29-1.1.86-1.74,1.73-2.24,2.69-5.28,5.52-9.62,8.26-.6.38-.95.58-1.2.58s-.45-.24-.85-.82c-.95-1.34-1.84-2.3-2.69-2.88,4.64-2.4,7.63-4.99,10.02-7.73ZM136.14,12.29c-4.54,0-6.03.1-6.33.1-.5,0-.55-.05-.55-.48v-3.89c0-.48.05-.48.55-.48.3,0,1.79.05,6.33.05h11.91v-.86c0-2.02-.1-3.26-.35-4.42,1.79,0,3.54.1,5.33.24.45.05.75.24.75.48,0,.29-.15.58-.3.91-.15.43-.2,1.06-.2,2.83v.82h12.51c4.49,0,6.03-.05,6.33-.05.5,0,.55,0,.55.48v3.89c0,.43-.05.48-.55.48-.3,0-1.84-.1-6.33-.1h-29.66ZM159.12,13.58c.25-.14.45-.24.6-.24s.25.1.45.29c3.24,3.74,7.63,7.25,12.76,9.22-.85.86-1.89,2.02-2.49,3.07-.45.77-.65,1.1-1.05,1.1-.25,0-.65-.19-1.2-.48-4.79-2.64-8.82-6.05-12.06-10.42-.35-.43-.25-.58.3-.91l2.69-1.63Z"/><path d="M184.7,27.31c0-1.73,0-3.6.05-5.57-1.1,1.54-2.29,3.02-3.59,4.51-.4.43-.65.62-.85.62-.25,0-.4-.24-.6-.77-.45-1.63-1.25-3.17-1.99-4.27,4.59-4.51,7.88-10.46,10.02-16.32.4-1.15.7-2.26.85-3.46,1.94.48,3.54.91,5.03,1.49.55.19.8.38.8.72s-.15.53-.55.86c-.35.29-.6.72-1,1.92-.9,2.16-1.84,4.27-2.94,6.38v24.77c0,4.66.1,7.01.1,7.25,0,.48-.05.53-.55.53h-4.34c-.5,0-.55-.05-.55-.53,0-.29.1-2.59.1-7.25v-10.9ZM200.75,17.37c-4.79,0-6.48.1-6.78.1-.5,0-.55-.05-.55-.53v-3.79c0-.48.05-.53.55-.53.3,0,1.99.1,6.78.1h10.52v-3.6c0-3.12-.05-4.9-.35-6.82,1.84.05,3.69.14,5.48.34.5.05.8.29.8.53,0,.43-.2.72-.35,1.06-.25.58-.35,1.54-.35,4.75v3.74c4.29,0,5.83-.1,6.13-.1.5,0,.55.05.55.53v3.79c0,.48-.05.53-.55.53-.3,0-1.84-.1-6.13-.1v13.3c0,3.36.15,6.58.15,9.22,0,2.45-.35,3.46-1.65,4.46-1.05.82-3.14,1.1-7.98,1.1q-1.55,0-1.89-1.49c-.4-1.54-.85-2.78-1.5-3.74,1.94.14,4.24.24,5.73.19,1.4,0,1.89-.43,1.89-1.58v-21.46h-10.52ZM202.2,33.74c-.3.19-.5.29-.6.29-.15,0-.25-.14-.4-.43-1.75-3.55-3.54-6.62-5.78-9.46-.35-.43-.3-.48.35-.86l3.14-1.73c.5-.29.6-.19.95.14,2.29,2.74,4.19,5.62,6.03,9.12.25.43.1.53-.45.86l-3.24,2.06Z"/><path d="M235.2,45.26c-.5,0-.55-.05-.55-.53,0-.34.1-3.17.1-17.09v-9.26c0-9.31-.1-12.24-.1-12.53,0-.53.05-.58.55-.58.35,0,2.04.1,6.88.1h17.1c4.84,0,6.58-.1,6.88-.1.5,0,.55.05.55.58,0,.29-.1,3.22-.1,11.09v10.66c0,13.78.1,16.61.1,16.9,0,.48-.05.53-.55.53h-4.44c-.5,0-.55-.05-.55-.53v-2.35h-20.89v2.59c0,.48-.05.53-.55.53h-4.44ZM240.19,21.07h20.89v-10.94h-20.89v10.94ZM261.07,37.39v-11.62h-20.89v11.62h20.89Z"/><path d="M299.22,25.2c-3.84.14-7.88.14-11.47-.14-.4,0-.5-.14-.55-.58-.1-.62-.15-1.78-.15-2.45,3.69.43,8.18.53,12.06.34,0-2.35-.05-4.85-.05-7.15-4.84.19-9.12.14-13.21-.24-.3-.05-.4-.14-.45-.48-.1-.72-.2-1.44-.2-2.5,4.39.53,9.07.58,13.86.38,0-1.97-.05-3.31-.05-5.09-.05-1.39-.15-2.21-.45-3.17,1.65.14,2.99.34,3.94.62.55.19.7.72.45,1.1-.35.53-.55,1.25-.6,2.21-.1,1.54-.1,2.59-.15,4.22,4.54-.34,8.62-.96,12.16-1.58.4-.1.5,0,.55.34.1.77.15,1.54.15,2.11,0,.38-.2.48-.35.48-3.89.62-7.93,1.1-12.51,1.39,0,2.35,0,4.85.05,7.1,3.84-.24,7.18-.67,11.02-1.39.35-.1.5,0,.55.24,0,.58.05,1.49.05,2.3,0,.29-.15.43-.5.48-3.54.62-7.03,1.06-11.02,1.3,0,2.98.15,5.47.35,8.35,4.49,1.2,9.17,3.22,13.31,6.19.25.19.35.38.2.82-.2.62-.75,1.54-1.25,2.06-.25.29-.45.34-.75.14-4.04-3.02-7.38-4.8-11.37-6.1.05,5.38-2.89,7.49-8.92,7.49s-8.82-2.16-8.82-5.71c0-3.12,3.39-5.86,9.17-5.86,1.99,0,3.79.14,5.23.38-.15-2.74-.25-4.85-.3-7.63ZM294.28,35.09c-4.19,0-6.28,1.3-6.28,3.02,0,2.02,1.94,2.98,5.58,2.98,2.29,0,4.19-.48,5.08-1.49.6-.72,1.05-1.92.9-3.89-1.74-.38-3.49-.62-5.28-.62Z"/><path d="M353.61,11.66c.4-.1.55,0,.6.34.1.58.2,1.39.25,1.97.05.48-.05.62-.5.72-3.24.86-5.98,1.49-9.02,1.97-2.99,9.75-6.03,18.1-9.57,25.87-.2.43-.4.43-.75.29-.4-.14-1.69-.72-2.34-1.06-.25-.14-.3-.38-.2-.62,4.14-8.45,6.98-15.94,9.32-23.95-3.24.34-6.68.53-10.07.58-.6,0-.7-.05-.8-.48-.1-.67-.25-1.68-.4-2.64.95.1,1.79.1,3.14.1,2.34,0,5.78-.19,8.97-.58.7-2.54,1.1-4.27,1.45-6.05.25-1.34.5-2.93.4-4.51,1.4.24,2.94.67,3.99,1.1.25.1.4.29.4.53s-.15.48-.4.77c-.35.43-.55.86-.8,1.87-.6,1.97-1.05,3.94-1.6,5.76,2.34-.38,5.13-1.1,7.93-1.97ZM351.11,33.65c.4,0,.5.1.55.48.35,4.32,3.14,5.76,9.42,5.76,2.54,0,5.33-.34,7.38-.62.4-.05.55-.05.6.34.1.58.2,1.63.2,2.3,0,.48-.15.58-.55.62-1.54.24-4.14.48-6.53.48-5.38,0-8.72-.67-10.97-2.64-1.75-1.44-2.39-3.6-2.44-6.48.85-.14,1.79-.24,2.34-.24ZM352.36,21.31c0-.43.1-.58.65-.72,2.89-.62,5.78-1.01,8.72-1.01,2.04,0,4.24.24,6.18.48.6.1.7.24.75.53.05.48.1,1.49.05,2.11-.05.58-.2.72-.65.62-2.14-.34-4.29-.53-6.38-.53-3.09,0-6.18.43-9.17,1.06-.1-.82-.15-1.97-.15-2.54Z"/><path d="M388.61,7.1c.6.38.65.77.3,1.3-.3.48-.55,1.2-.8,2.4-1.5,6.91-2.39,13.25-2.39,17.71,0,2.74-.05,5.23.35,8.3,1.05-2.59,2.19-4.99,3.49-7.82.35.91.75,1.44,1.15,1.97.3.43.25.67.05,1.06-1.69,3.65-2.79,6.34-2.99,7.58-.1.86-.15,1.58-.05,2.16.1.34,0,.48-.25.62-.6.24-1.5.48-2.24.62-.35.1-.5,0-.65-.38-1.65-4.03-1.89-9.6-1.89-14.02,0-5.28.85-10.66,2.14-18,.25-1.58.4-3.41.25-4.75,1.25.24,2.84.82,3.54,1.25ZM407.7,18.33c-3.54.19-7.18.29-11.12.05-.3,0-.5-.05-.55-.43-.1-.67-.2-1.68-.2-2.54,4.14.29,8.13.24,11.76,0,0-1.78.05-3.6.05-5.52,0-1.34-.1-2.64-.5-4.27,1.65.14,2.79.34,3.84.67.35.14.55.34.55.58s-.05.38-.2.67c-.25.43-.35,1.39-.4,2.3-.1,1.68-.1,3.36-.1,5.33,2.59-.24,5.28-.62,7.88-1.1.4-.1.45,0,.5.34.1.53.2,1.34.2,1.92,0,.34-.15.53-.35.58-2.54.58-5.53.91-8.23,1.15.05,5.62.2,10.18.45,14.5,3.24,1.3,6.18,2.93,8.77,4.94.25.19.25.29.1.62-.3.67-.8,1.49-1.35,2.11-.2.29-.4.24-.6.05-2.19-1.78-4.39-3.22-6.98-4.42-.2,4.22-2.69,6.48-8.33,6.48-4.69,0-7.78-1.97-7.78-5.47s3.44-5.71,7.68-5.71c1.6,0,3.64.19,5.23.53-.2-3.98-.35-8.4-.35-13.35ZM408.05,34.61c-1.89-.53-3.69-.82-5.43-.82-2.79,0-4.64,1.1-4.64,3.07,0,1.73,1.79,2.74,4.79,2.74,3.54,0,5.28-1.54,5.28-4.08v-.91Z"/><path d="M458.7,23.9c.75,0,1.2-.1,1.35-.14.25-.1.45-.19.65-.19.45,0,.9.29,2.34,1.68,1.25,1.15,1.45,1.63,1.45,2.02,0,.34-.2.53-.6.77-.35.24-.95.67-1.65,1.63-2.19,2.88-4.59,5.28-7.33,7.3,4.64,2.02,10.42,3.22,17.85,3.94-.75,1.06-1.4,2.35-1.89,3.6-.4,1.06-.5,1.34-1.15,1.34-.2,0-.55-.05-.95-.1-7.78-1.15-13.76-3.02-18.59-5.81-5.08,2.64-11.07,4.42-18.2,5.66-.5.1-.75.1-1.05.1-.55,0-.7-.29-1.1-1.25-.55-1.3-1.35-2.59-1.99-3.41,7.08-.82,13.01-2.26,17.85-4.37-2.64-2.3-4.79-5.04-6.68-8.35-1.84,0-2.99.05-3.19.05-.5,0-.55-.05-.55-.53v-3.5c0-.48.05-.53.55-.53.3,0,1.94.1,6.78.1h16.1ZM439.06,10.27c.6-.24.8-.14,1.05.29.95,1.54,1.94,3.41,2.69,5.23h5.53c-.45-1.54-1.05-3.12-1.7-4.46-.2-.43-.1-.62.5-.82l3.04-.91c.55-.14.75-.19,1,.29.85,1.73,1.65,3.98,2.09,5.9h3.34c1.2-1.68,2.09-3.36,2.89-4.9.35-.77.55-1.39.75-2.35,1.69.48,3.09.96,4.34,1.44.5.19.75.38.75.72,0,.29-.25.53-.55.82-.4.38-.7.77-1.1,1.49-.5.91-1,1.82-1.6,2.78h2.14c4.59,0,6.23-.1,6.53-.1.5,0,.55.05.55.53,0,.29-.1,1.1-.1,2.4v2.78c0,3.07.1,4.18.1,4.46,0,.48-.05.53-.55.53h-4.04c-.5,0-.55-.05-.55-.53v-5.57h-32.3v5.57c0,.48-.05.53-.55.53h-3.99c-.5,0-.55-.05-.55-.53,0-.29.1-1.39.1-4.51v-2.4c0-1.63-.1-2.4-.1-2.74,0-.48.05-.53.55-.53.3,0,1.94.1,6.53.1h1.79c-.55-1.3-1.25-2.64-1.89-3.65-.3-.43-.3-.53.4-.77l2.89-1.1ZM467.73,5.28c.35.38.55.67.55,1.01,0,.29-.25.48-.8.48-.65,0-1.45.05-2.39.19-4.89.67-8.72,1.2-14.76,1.73-5.28.48-11.32.86-17.1,1.06q-1.1.05-1.6-1.44c-.45-1.1-.95-2.21-1.55-3.02,6.33-.05,12.86-.38,18.69-.86,4.98-.43,8.37-.86,11.17-1.34,1.74-.34,2.99-.67,4.19-1.06,1.45.96,2.54,2.16,3.59,3.26ZM444.4,28.27c1.6,2.45,3.54,4.42,5.83,6.05,2.79-1.73,5.04-3.74,6.83-6.05h-12.66Z"/><path d="M487.62,10.51c3.79,0,5.03-.1,5.28-.1.5,0,.55.05.55.53v3.41c0,.53-.05.58-.55.58-.25,0-1.5-.1-5.28-.1h-4.59c-3.79,0-5.03.1-5.28.1-.5,0-.55-.05-.55-.58v-3.41c0-.48.05-.53.55-.53.25,0,1.5.1,5.28.1h4.59ZM492.16,37.78c0,5.57.1,6.62.1,6.91,0,.48-.05.53-.55.53h-3.39c-.5,0-.55-.05-.55-.53v-1.34h-4.39v2.21c0,.48-.05.53-.55.53h-3.34c-.55,0-.6-.05-.6-.53,0-.29.1-1.39.1-7.2v-3.07c0-3.02-.1-4.18-.1-4.51,0-.48.05-.53.6-.53.3,0,1.35.1,4.54.1h3.09c3.19,0,4.24-.1,4.59-.1.5,0,.55.05.55.53,0,.29-.1,1.44-.1,3.7v3.31ZM487.37,3.93c3.19,0,4.19-.1,4.49-.1.55,0,.6.05.6.53v3.17c0,.48-.05.53-.6.53-.3,0-1.3-.1-4.49-.1h-3.34c-3.24,0-4.24.1-4.54.1-.5,0-.55-.05-.55-.53v-3.17c0-.48.05-.53.55-.53.3,0,1.3.1,4.54.1h3.34ZM486.92,17.33c2.99,0,3.89-.1,4.19-.1.55,0,.6.05.6.53v3.12c0,.48-.05.53-.6.53-.3,0-1.2-.1-4.19-.1h-2.69c-3.04,0-3.94.1-4.24.1-.5,0-.55-.05-.55-.53v-3.12c0-.48.05-.53.55-.53.3,0,1.2.1,4.24.1h2.69ZM486.92,23.81c2.99,0,3.89-.1,4.19-.1.55,0,.6.05.6.53v3.07c0,.48-.05.53-.6.53-.3,0-1.2-.1-4.19-.1h-2.69c-3.04,0-3.94.1-4.24.1-.5,0-.55-.05-.55-.53v-3.07c0-.48.05-.53.55-.53.3,0,1.2.1,4.24.1h2.69ZM483.38,34.32v5.04h4.39v-5.04h-4.39ZM523.02,37.54c0,.53-.05.58-.55.58-.15,0-1-.05-2.74-.05.05,1.06.1,2.06.1,2.88,0,2.02-.25,2.88-1.15,3.7-.9.82-2.09.96-5.88,1.01q-1.5,0-1.84-1.49c-.25-1.01-.7-2.11-1.1-2.78,1.4.1,2.59.14,3.79.14,1.35,0,1.65-.34,1.65-1.3v-2.21h-14.81v2.16c0,3.41.1,5.04.1,5.33,0,.43-.05.48-.55.48h-3.49c-.5,0-.55-.05-.55-.48,0-.34.1-1.78.1-5.18v-2.26c-1.45,0-2.09.05-2.24.05-.5,0-.55-.05-.55-.58v-2.64c0-.48.05-.53.55-.53.15,0,.8.05,2.24.1v-5.57c0-3.36-.1-4.9-.1-5.23,0-.48.05-.53.55-.53.3,0,1.79.1,6.18.1h2.64v-2.26h-4.59c-4.79,0-6.43.1-6.73.1-.5,0-.55-.05-.55-.58v-2.5c0-.48.05-.53.55-.53.3,0,1.94.1,6.73.1v-2.4c-2.94.05-4.04.1-4.29.1-.5,0-.55-.05-.55-.53v-2.26c0-.43.05-.48.55-.48.25,0,1.35.1,4.29.1v-2.35c-3.84.05-5.28.1-5.53.1-.5,0-.55-.05-.55-.58v-2.3c0-.48.05-.53.55-.53.25,0,1.69.1,5.53.1v-.77c0-1.68-.05-2.69-.3-3.6,1.65.1,3.19.19,4.54.34.5.05.75.24.75.38,0,.29-.1.48-.25.77-.25.43-.3.91-.3,2.26v.62h4.94v-.77c0-1.68-.05-2.69-.3-3.6,1.65.1,3.19.19,4.54.34.5.05.75.24.75.38,0,.29-.15.58-.3.86-.25.43-.25.82-.25,2.16v.62c4.54,0,6.13-.1,6.48-.1.5,0,.55.05.55.53v2.3c0,.53-.05.58-.55.58-.35,0-1.94-.1-6.48-.1v2.35c3.54,0,4.94-.1,5.23-.1.5,0,.55.05.55.48v2.26c0,.48-.05.53-.55.53-.3,0-1.69-.05-5.23-.1v2.4h.75c4.84,0,6.48-.1,6.78-.1.45,0,.5.05.5.53v2.5c0,.53-.05.58-.5.58-.3,0-1.94-.1-6.78-.1h-5.63v2.26h3.29c4.39,0,5.93-.1,6.23-.1.5,0,.55.05.55.53,0,.29-.1,2.16-.1,5.66v5.14c1.79-.05,2.64-.1,2.79-.1.5,0,.55.05.55.53v2.64ZM505.42,29.04v-2.5h-4.94v2.5h4.94ZM505.42,34.46v-2.54h-4.94v2.54h4.94ZM510.15,12.09v-2.35h-4.94v2.35h4.94ZM510.15,17.57v-2.4h-4.94v2.4h4.94ZM509.66,26.54v2.5h5.63v-2.5h-5.63ZM515.29,34.46v-2.54h-5.63v2.54h5.63Z"/><path d="M534.34,45.26c-.5,0-.55-.05-.55-.53,0-.34.1-3.17.1-17.09v-9.26c0-9.31-.1-12.24-.1-12.53,0-.53.05-.58.55-.58.35,0,2.04.1,6.88.1h17.1c4.84,0,6.58-.1,6.88-.1.5,0,.55.05.55.58,0,.29-.1,3.22-.1,11.09v10.66c0,13.78.1,16.61.1,16.9,0,.48-.05.53-.55.53h-4.44c-.5,0-.55-.05-.55-.53v-2.35h-20.89v2.59c0,.48-.05.53-.55.53h-4.44ZM539.32,21.07h20.89v-10.94h-20.89v10.94ZM560.21,37.39v-11.62h-20.89v11.62h20.89Z"/><path d="M587.98,30.72c3.89-1.49,8.13-3.36,12.46-5.62-.15,1.1-.1,2.45.05,3.65q.25,1.58-1.15,2.3c-5.53,2.83-11.52,5.38-18.1,7.73-.75.29-1.2.53-1.45.82-.2.24-.5.38-.7.38-.3,0-.55-.24-.7-.67-.6-1.54-1.1-3.5-1.5-5.18,1.74-.34,3.19-.72,4.74-1.2l1-.29-.2-20.64c-.05-3.36-.05-5.18-.4-7.3,1.79.05,3.84.14,5.48.34.5.05.85.29.85.58,0,.38-.2.67-.35,1.01-.3.58-.35,1.82-.3,5.28l.25,18.82ZM606.83,28.94c2.69-4.18,4.39-9.98,4.89-17.81.25-2.78.2-4.94-.05-6.82,2.14.14,4.24.38,5.73.62.5.1.75.29.75.67,0,.43-.2.72-.4,1.15-.2.48-.4,2.02-.6,4.37-.65,8.11-2.29,14.26-4.74,18.53,2.94,4.32,6.58,7.78,10.42,10.46-.95,1.06-2.04,2.59-2.79,3.94-.35.67-.55,1.01-.8,1.01-.2,0-.5-.24-1.05-.72-3.24-2.88-6.13-6.14-8.87-9.98-3.29,4.32-7.58,7.68-15.15,11.09-.6.24-.95.38-1.2.38-.4,0-.55-.29-1.05-1.1-.7-1.2-1.6-2.26-2.69-3.17,9.02-3.46,14.06-6.91,17.6-12.63ZM596.76,8.3c.25-.14.4-.24.55-.24s.25.1.45.29c2.94,2.64,5.28,5.47,7.48,8.83.3.43.2.62-.3.91l-3.19,2.21c-.25.19-.45.29-.6.29-.25,0-.4-.19-.6-.53-2.29-3.65-4.44-6.34-7.08-8.93-.4-.38-.3-.58.25-.91l3.04-1.92Z"/><path d="M631.86,32.5c0-1.49.05-3.55.1-5.33-.9.86-1.79,1.68-2.69,2.4-.55.38-.9.62-1.15.62s-.45-.29-.65-.96c-.4-1.34-1.1-2.74-1.7-3.46,3.89-2.98,7.58-6.91,10.07-10.66.5-.72,1-1.63,1.3-2.54,1.35.67,2.59,1.44,3.69,2.21.45.34.65.53.65.86,0,.24-.1.38-.35.53-.4.24-.7.58-1.1,1.15-1,1.54-2.09,3.07-3.24,4.51v17.71c0,3.84.1,5.66.1,5.9,0,.48-.05.53-.55.53h-4.09c-.45,0-.5-.05-.5-.53,0-.29.1-2.06.1-5.9v-7.06ZM640.53,4.27c.45.29.7.53.7.86s-.3.53-.8.82c-.35.19-.8.58-1.35,1.3-2.29,2.74-5.04,5.47-8.57,7.97-.55.38-.9.58-1.15.58-.35,0-.6-.34-.95-1.15-.55-1.15-1.4-2.21-2.14-2.83,3.49-2.02,6.53-4.7,8.92-7.58.7-.86,1.1-1.49,1.45-2.21,1.45.58,2.64,1.39,3.89,2.26ZM664.16,14.06c.55-.34.65-.29.95.05,2.79,2.98,4.84,6.1,6.53,9.22.25.48.15.62-.35.91l-2.99,1.58c-.6.34-.7.34-.95-.19-.5-1.01-1-2.02-1.54-3.02-4.99.58-10.72,1.06-15.6,1.44,1.05.19,1.89.38,2.74.58.55.14.85.34.85.67,0,.29-.2.53-.6.72-.2.1-.5.38-.8.77h8.67c.5,0,.8-.05,1.05-.14.2-.1.45-.19.7-.19.4,0,.75.24,1.99,1.39,1.1,1.1,1.3,1.49,1.3,1.92,0,.38-.15.62-.55.86-.4.19-.8.62-1.5,1.58-1.45,1.97-3.04,3.7-4.79,5.23,3.64,1.63,8.08,2.69,13.46,3.46-.7.82-1.3,2.02-1.69,3.22q-.5,1.44-2.04,1.15c-5.28-1.15-9.82-2.69-13.66-4.9-3.79,2.35-8.23,4.08-13.66,5.18-1.5.29-1.54.29-2.14-1.1-.45-1.06-1-1.92-1.75-2.78,5.33-.82,9.77-2.16,13.46-4.08-1.59-1.25-3.04-2.69-4.39-4.32-1.59,1.39-3.39,2.64-5.23,3.7-.6.34-.9.53-1.15.53-.35,0-.55-.34-1-1.1-.55-.86-1.25-1.63-1.99-2.3,4.49-2.26,7.28-4.42,9.47-7.2.5-.58,1.15-1.63,1.6-2.74-1.45.14-2.79.24-3.99.29-1.25.1-2.24.24-2.69.43-.35.14-.65.34-.95.34-.45,0-.65-.38-.75-.86-.25-1.39-.45-2.88-.6-4.37,1.3.1,2.74.14,3.94.1,1.4,0,2.79-.05,4.24-.1l1.89-1.87c-2.69-2.5-5.13-4.46-7.93-6.48-.2-.14-.3-.29-.3-.43s.1-.29.35-.58l1.99-2.26c.4-.48.5-.43.9-.14.6.48,1.25.91,1.89,1.34,1.15-1.44,2.39-3.07,3.79-5.18.5-.77.9-1.58,1.3-2.59,1.45.48,3.14,1.15,4.34,1.78.45.24.65.48.65.82,0,.29-.25.58-.6.77-.4.19-.8.53-1.45,1.39-1.54,1.97-3.04,3.89-4.64,5.71,1.05.82,2.04,1.63,2.94,2.5,2.04-2.26,3.89-4.42,5.58-6.58.6-.72,1.3-1.73,1.7-2.69,1.64.62,3.14,1.25,4.29,1.78.55.29.75.48.75.82s-.25.62-.65.77c-.45.19-.85.62-1.75,1.68-2.34,2.88-5.43,6-8.72,9.17,3.19-.19,6.33-.38,9.42-.67-.7-.91-1.45-1.82-2.19-2.74-.35-.38-.25-.58.3-.86l2.54-1.34ZM650.15,30.62c1.4,1.78,3.04,3.26,4.94,4.56,1.69-1.34,3.19-2.83,4.49-4.56h-9.42Z"/><path d="M688.89,7.44c.85.43,1.15.72,1.15,1.15,0,.34-.1.48-.75,1.44-.5.86-.75,1.54-1.2,3.41-1.4,5.95-2.09,11.86-2.09,15.51,0,2.35.1,3.94.3,5.62,1.05-2.21,1.94-3.79,3.39-7.15.4,1.2,1.05,1.97,1.75,3.02.15.24.35.53.35.72,0,.34-.1.53-.25.77-1.15,2.5-2.09,4.56-2.84,7.25-.1.29-.15.82-.15,1.49,0,.58.1.96.1,1.34,0,.34-.2.53-.65.62-1.25.34-2.64.62-4.09.77-.35.05-.55-.19-.65-.53-1.4-3.36-2.29-9.46-2.29-14.31,0-4.32.55-9.55,1.7-15.75.65-3.55.9-5.14.9-7.15,2.24.53,3.84,1.01,5.33,1.78ZM699.56,30.05c.4-.05.5.19.5.72.3,3.31,2.69,4.51,8.13,4.51,3.74,0,6.18-.24,9.52-.62.5-.05.6,0,.7.62.15,1.01.3,2.88.3,4.13,0,.58,0,.62-.85.72-3.39.38-5.78.53-8.13.53-7.38,0-10.82-1.15-12.96-3.98-1.25-1.54-1.75-3.98-1.75-6.24l4.54-.38ZM696.77,12.09c.05-.58.2-.72.7-.82,2.94-.53,8.52-.86,10.82-.86,2.99,0,5.28.1,7.38.29,1.05.05,1.15.14,1.15.62,0,1.44,0,2.74-.1,4.08-.05.43-.2.62-.65.58-2.99-.19-5.58-.29-8.12-.29-3.34,0-6.58.29-11.32,1.1.05-2.69.05-3.89.15-4.7Z"/><path d="M740.24,18.96c-2.49.19-5.04.38-8.38.38-.85,0-1.1-.29-1.2-1.01-.15-.91-.35-2.5-.55-4.18,1.3.19,2.59.24,3.89.24,2.09,0,4.24-.19,6.33-.38,0-1.58.05-3.41.05-5.47,0-1.25-.05-2.64-.35-3.89,2.49.14,4.59.48,5.93.86.6.14,1,.48,1,.91,0,.19-.1.43-.3.77-.35.62-.6,1.25-.7,1.87-.15,1.25-.2,2.45-.25,3.98,2.19-.43,4.24-1.06,6.38-1.78.45-.14.8-.05.85.43.2,1.2.3,2.5.3,3.74,0,.48-.15.62-.65.77-3.29,1.01-4.14,1.25-7.13,1.82-.05,2.3-.05,4.66-.1,6.96,4.69-1.92,9.07-2.69,12.26-2.64,6.18.05,10.62,3.84,10.62,9.6,0,6.14-4.09,9.75-10.82,9.75-1.45,0-3.04-.19-4.09-.43-.8-.19-1.1-.67-1.1-1.44-.1-1.06-.45-2.69-1.5-4.08,2.39.77,4.39.86,6.23.86,2.79,0,5.38-1.54,5.38-4.94,0-3.12-1.99-4.85-5.48-4.85-2.84,0-6.28.72-11.42,3.26.05,2.02.1,3.65.2,5.76.15,2.11.4,5.14.4,6.24,0,.67.1,1.39-.75,1.58-1.1.29-2.69.53-3.69.58-.55.05-.75-.34-1.2-.96-1.35-1.78-3.94-4.08-7.08-6.14-.55.29-1.15.67-1.6,1.06-.25.24-.6.34-.85.34-.4,0-.8-.29-1.1-.77-.55-.86-1.54-2.88-2.29-4.46,1.3-.29,2.94-.82,4.59-1.68,2.14-1.15,4.49-2.45,8.13-4.46v-8.21ZM735.61,35.47c1.4.72,3.09,1.54,4.69,2.16.4.1.55.05.5-.38-.1-1.25-.2-3.46-.3-5.04-1.4.91-3.09,2.02-4.88,3.26ZM759.43,10.27c.35-.53.5-.67.85-.58,4.59,1.3,7.98,3.31,10.57,5.86.2.19.3.34.3.48s-.1.29-.2.48c-.65.96-1.94,2.45-2.69,3.41-.15.19-.85.24-1,0-2.64-2.83-6.13-4.61-10.12-5.9.65-1.3,1.45-2.54,2.29-3.74Z"/><path d="M789.65,40.9c0,.34-.15.48-.65.67-1.5.62-2.39.86-3.44,1.01-.6.1-.85-.05-1.15-.62-1.6-3.07-2.94-9.89-2.94-14.88,0-3.89.45-8.3,1.5-15.36.3-2.21.55-4.37.55-7.15,2.29.53,3.94,1.06,5.23,1.68.8.38,1.1.72,1.1,1.06,0,.19,0,.43-.3.96-.25.62-.6,1.92-.95,3.55-.95,5.18-1.89,10.18-1.89,14.4,0,3.07.1,5.81.5,7.58,1.25-2.54,2.14-4.18,3.34-6.86.7,1.82,1.15,2.45,1.65,3.22.3.34.45.62.45.91,0,.34-.1.62-.6,1.58-1.35,2.88-1.75,4.18-2.24,5.86-.1.38-.15.91-.15,1.25v1.15ZM806.9,19.15c-2.64.19-4.54.29-5.98.29-1.05.05-2.34.05-4.19,0-.7,0-1.1-.24-1.15-.77-.2-.96-.3-2.26-.55-4.37,1.84.19,4.34.24,6.18.24,1.4,0,3.74-.05,5.53-.19-.1-2.4-.1-4.56-.3-6.38-.2-1.68-.35-2.64-.85-3.94,2.94.1,5.28.34,6.43.67.55.14.8.38.8.77,0,.34-.15.62-.35.96-.15.29-.25,1.06-.25,2.02v5.33c2.14-.29,4.29-.62,6.38-1.06.6-.14.85-.05.9.43.2,1.2.3,2.35.4,3.6.05.62-.2.82-.65.86-2.39.43-4.59.72-6.88.96l.05,7.39c.05,4.46-.75,8.3-2.19,11.14-1.54,3.17-4.04,5.71-7.13,7.44-.55.34-.9.43-1.25.43-.4,0-.6,0-1-.43-.9-.77-2.19-1.58-3.89-2.35,4.69-2.4,6.93-4.61,8.42-7.97,1.1-2.45,1.6-5.71,1.55-10.71l-.05-4.37Z"/><path d="M845.79,22.13c2.79-1.54,5.13-2.16,7.93-2.16,7.28,0,12.36,4.61,12.36,11.52,0,8.02-6.73,13.15-17.4,13.15-6.28,0-10.07-2.59-10.07-7.06,0-3.22,3.14-5.86,7.03-5.86,4.69,0,8.13,2.4,9.37,7.01,3.49-1.54,5.08-3.65,5.08-7.3,0-4.37-3.19-7.25-7.83-7.25-4.14,0-8.72,1.78-12.76,5.09-1.45,1.25-2.84,2.64-4.34,4.08-.35.34-.6.53-.85.53-.2,0-.45-.14-.75-.43-1.05-.86-2.14-2.11-2.94-3.12-.3-.38-.15-.72.25-1.1,3.89-3.02,7.33-6.1,11.81-10.61,3.09-3.07,5.43-5.47,7.73-8.21-2.99.53-6.53,1.2-9.62,1.82-.65.14-1.3.29-2.09.58-.25.1-.75.24-1,.24-.5,0-.85-.24-1.1-.82-.6-1.1-1.05-2.45-1.75-5.18,1.5.19,3.14.19,4.64.1,3.04-.29,7.43-.91,11.32-1.63,1.25-.24,2.24-.48,2.74-.72.25-.14.7-.38.95-.38.5,0,.8.14,1.15.38,1.5,1.1,2.49,2.06,3.34,3.07.4.43.55.77.55,1.15,0,.48-.3.91-.85,1.15-.85.38-1.25.72-2.19,1.54-3.64,3.41-6.98,6.77-10.77,10.27l.05.14ZM845.84,35.81c-1.45,0-2.39.82-2.39,1.82,0,1.49,1.35,2.5,4.34,2.5.9,0,1.55-.05,2.29-.19-.65-2.64-2.14-4.13-4.24-4.13Z"/><path d="M893.55,46.13c-.5,0-.55-.05-.55-.53,0-.29.05-1.78.1-4.75-3.99.82-8.92,1.68-12.96,2.26-.8.1-1.54.34-1.79.48-.2.1-.5.29-.8.29s-.55-.29-.7-.77c-.45-1.3-.7-2.45-1-3.84,1.75-.05,3.14-.14,4.69-.34.3,0,.6-.05.9-.1v-15.07c-3.39.05-4.69.1-4.93.1-.5,0-.55-.05-.55-.53v-3.02c0-.48.05-.53.55-.53.3,0,1.74.1,6.08.1h32c4.34,0,5.78-.1,6.08-.1.45,0,.5.05.5.53v3.02c0,.48-.05.53-.5.53-.3,0-1.75-.1-6.08-.1h-16.9v16.08c0,3.7.1,5.47.1,5.76,0,.48-.05.53-.55.53h-3.69ZM907.61,3.88c4.93,0,6.68-.1,6.98-.1.5,0,.55.05.55.58,0,.29-.1,1.34-.1,3.94v5.04c0,2.59.1,3.65.1,3.94,0,.53-.05.58-.55.58-.3,0-2.04-.1-6.98-.1h-18.15c-4.94,0-6.63.1-6.98.1-.5,0-.55-.05-.55-.58,0-.29.1-1.34.1-3.94v-5.04c0-2.59-.1-3.65-.1-3.94,0-.53.05-.58.55-.58.35,0,2.04.1,6.98.1h18.15ZM893.1,26.3v-2.54h-7.03v2.54h7.03ZM893.1,31.87v-2.5h-7.03v2.5h7.03ZM893.1,34.94h-7.03v3.31c2.34-.34,4.79-.67,7.03-1.06v-2.26ZM886.97,9.45h23.13v-2.02h-23.13v2.02ZM910.1,12.33h-23.13v2.06h23.13v-2.06ZM913.49,26.59c.3,0,.65-.1.9-.19s.5-.19.75-.19c.35,0,.6.1,1.75,1.1,1.2,1.1,1.35,1.44,1.35,1.78,0,.38-.15.62-.5.86-.4.24-.75.82-1.35,2.02-1.1,2.11-2.39,4.08-4.04,5.81,2.44,1.49,5.38,2.54,8.82,3.26-.55.77-1.25,1.82-1.75,3.07-.5,1.3-.6,1.3-1.89.91-3.34-1.01-6.13-2.4-8.52-4.13-2.19,1.63-4.69,3.07-7.53,4.22-.5.19-.8.34-1,.34-.35,0-.55-.34-.9-1.1-.55-1.15-1.15-2.06-1.84-2.74,3.19-.91,5.83-2.11,8.03-3.6-1.94-2.11-3.59-4.66-4.89-7.68-.8.05-1.15.05-1.3.05-.5,0-.55-.05-.55-.58v-2.78c0-.48.05-.53.55-.53.3,0,1.55.1,5.48.1h8.42ZM905.42,30.29c.95,1.92,2.14,3.6,3.64,4.99,1.4-1.44,2.54-3.12,3.44-4.99h-7.08Z"/><path d="M933.34,27.98c-1.54,1.54-3.19,3.02-4.83,4.27-.5.38-.85.58-1.05.58-.35,0-.5-.34-.8-1.1-.4-1.1-1-2.21-1.6-2.98,5.68-3.84,10.57-9.46,13.16-14.83h-5.68c-3.74,0-4.93.1-5.23.1-.5,0-.55-.05-.55-.53v-3.55c0-.48.05-.53.55-.53.3,0,1.5.1,5.23.1h.85v-1.63c0-2.11,0-3.94-.4-5.81,1.89.05,3.39.14,5.18.34.5.05.8.29.8.48,0,.43-.15.72-.3,1.06-.3.58-.35,1.58-.35,3.74v1.82h1.64c.65,0,.9-.14,1.1-.24.15-.1.45-.29.65-.29.35,0,.95.38,1.94,1.39.9.91,1.25,1.44,1.25,1.82,0,.29-.2.48-.6.77-.35.29-.7.82-1.1,1.54-1.2,2.3-2.69,4.66-4.34,6.96.5.72,1.1,1.39,1.79,2.06.85-1.01,1.54-1.97,2.14-2.88.4-.62.8-1.49,1.15-2.4,1.1.62,2.59,1.44,3.54,2.16.4.34.5.43.5.77,0,.24-.2.43-.5.53-.35.19-.6.43-1.15,1.1-1.05,1.2-1.74,2.11-2.79,3.26,1.1.82,2.24,1.63,3.44,2.35-.6.62-1.65,1.92-2.14,2.78-.45.67-.65,1.01-.95,1.01-.25,0-.55-.24-1.05-.72-1.59-1.39-3.24-3.07-4.59-4.7v13.25c0,3.6.1,5.28.1,5.52,0,.48-.05.53-.55.53h-4.04c-.5,0-.55-.05-.55-.53,0-.29.1-1.92.1-5.52v-12.05ZM957.86,10.7c-.15,7.54-.8,14.31-2.79,20.26-1.99,5.81-5.23,10.27-10.07,14.11-.5.43-.75.67-1,.67-.3,0-.55-.34-1.05-1.01-.8-1.06-2.19-2.16-3.09-2.74,5.23-3.22,8.47-7.73,10.32-13.15,1.75-5.14,2.19-11.04,2.24-18.15h-.25c-4.49,0-5.98.1-6.28.1-.55,0-.6-.05-.6-.53v-3.79c0-.53.05-.58.6-.58.3,0,1.79.1,6.28.1h10.67c4.49,0,6.03-.1,6.33-.1.5,0,.6.1.6.62-.1,1.58-.1,2.93-.1,4.27-.05,12.39-.5,21.7-1.64,28.32-.7,4.08-2.59,6.19-7.33,6.19-1.6,0-2.59.05-3.89-.1-1.2-.1-1.2-.19-1.5-1.82-.2-1.15-.6-2.69-1.3-3.6,2.59.43,4.04.48,5.68.48,2.04,0,2.94-1.15,3.29-3.31.9-5.23,1.4-13.54,1.4-26.26h-6.53Z"/><path d="M1001.64,12.81c-1.15,8.16-3.24,15.65-6.23,20.69-2.14,3.6-4.74,5.52-8.47,5.52-4.39,0-8.82-4.51-8.82-12.34,0-4.61,2.04-9.02,5.63-12.48,4.19-4.03,9.47-6.14,16.2-6.14,11.96,0,18.99,7.1,18.99,16.66,0,8.93-5.23,14.55-15.35,17.47-1.05.29-1.5.1-2.14-.86-.55-.82-1.59-1.92-3.49-3.02,8.42-1.92,15.05-5.28,15.05-14.35,0-5.71-4.49-11.14-11.17-11.14h-.2ZM987.33,17.47c-2.39,2.59-3.89,5.81-3.89,8.88,0,4.42,1.84,6.86,3.39,6.86,1.3,0,2.39-.62,3.74-2.93,2.19-3.89,4.44-10.8,5.28-17.19-3.49.67-6.28,2.02-8.52,4.37Z"/><path d="M1057.83,29.52h4.74v4.51h-4.74v8.3h-5.73v-8.3h-14.51v-4.22l12.36-24.34h7.88v24.05ZM1052.09,21.45c0-3.89.15-7.54.3-11.23h-.7c-1.25,3.17-2.69,6.38-4.24,9.6l-4.69,9.7h9.32v-8.06Z"/><path d="M1116.31,30.14c0,3.31.15,6.96.15,9.6,0,2.06-.35,3.31-1.59,4.46-1.3,1.15-2.99,1.39-8.28,1.39-1.55,0-1.65.05-1.84-1.49-.2-1.39-.75-3.07-1.3-4.03,2.14.19,3.74.24,5.68.24,1.2,0,1.75-.62,1.75-1.68v-8.4h-17.8c-.95,6.67-3.09,10.42-7.18,14.88-.5.53-.75.82-1.05.82s-.6-.24-1.15-.77c-1.05-1.01-2.39-1.78-3.59-2.26,6.58-5.9,8.23-9.98,8.23-24.58v-7.06c0-4.08-.1-6.24-.1-6.53,0-.53.05-.58.55-.58.35,0,1.99.1,6.63.1h13.86c4.64,0,6.23-.1,6.58-.1.5,0,.55.05.55.58,0,.29-.1,2.45-.1,6.53v18.87ZM1110.87,25.58v-6.1h-17.1c-.05,2.26-.1,4.27-.2,6.1h17.3ZM1093.77,9.02v5.81h17.1v-5.81h-17.1Z"/><path d="M1157.09,37.68h7.13v4.66h-20.54v-4.66h7.48V11.57c-1.89,1.25-4.29,2.4-7.03,3.26l-1-5.04c3.29-.91,6.23-2.45,8.87-4.32h5.08v32.21Z"/><path d="M1189.75,45.26c-.5,0-.55-.05-.55-.53,0-.34.1-3.17.1-17.09v-9.26c0-9.31-.1-12.24-.1-12.53,0-.53.05-.58.55-.58.35,0,2.04.1,6.88.1h17.1c4.84,0,6.58-.1,6.88-.1.5,0,.55.05.55.58,0,.29-.1,3.22-.1,11.09v10.66c0,13.78.1,16.61.1,16.9,0,.48-.05.53-.55.53h-4.44c-.5,0-.55-.05-.55-.53v-2.35h-20.89v2.59c0,.48-.05.53-.55.53h-4.44ZM1194.73,21.07h20.89v-10.94h-20.89v10.94ZM1215.62,37.39v-11.62h-20.89v11.62h20.89Z"/><path d="M44.4,69.36c.25-1.44.5-3.31.5-5.33,2.59.53,3.99.86,5.98,1.58.5.14.8.53.8.96,0,.24-.1.48-.35.72-.5.62-.75,1.15-1,1.82-.65,1.97-1.15,3.74-1.79,5.76,1.35-.14,2.84-.19,3.89-.19,4.69,0,7.23,3.07,7.23,8.88s-1,11.95-2.69,15.41c-1.45,3.07-3.84,4.51-6.73,4.51-2.39,0-3.84-.19-4.94-.53-.6-.19-.9-.62-.9-1.34-.15-1.54-.25-2.88-.95-4.46,2.24.82,3.94,1.06,5.48,1.06,1.65,0,2.39-.58,3.19-2.54,1.05-2.69,1.94-7.25,1.94-11.9,0-3.41-.65-4.46-2.84-4.46-1.2,0-2.74.14-4.19.34-3.29,9.22-6.13,15.84-10.02,22.56-.3.62-.7.72-1.3.43-.9-.43-2.84-1.58-3.44-2.11-.25-.24-.4-.43-.4-.72,0-.14.05-.34.2-.53,3.99-6.67,6.58-11.76,9.12-18.82-1.94.29-3.54.58-4.89.82-1.3.24-2.09.53-2.74.77-.7.24-1.3.14-1.6-.62-.45-1.1-1-2.83-1.55-4.94,2.19,0,4.39-.14,6.58-.34,2.09-.19,3.94-.43,5.88-.72.8-2.74,1.15-4.42,1.5-6.05ZM64.69,72.57c.35-.19.6-.1.95.24,3.39,3.07,6.43,7.06,8.28,11.67.2.43.15.67-.2.96-.85.77-2.74,1.92-3.74,2.4-.5.24-1,.19-1.15-.38-1.99-5.04-4.59-9.17-8.18-12.43,1.25-.82,2.69-1.78,4.04-2.45Z"/><path d="M92.56,75.31c.55.24.8.53.8.91,0,.24-.1.48-.25.72-.45.77-.8,1.63-1,2.54-.5,2.45-1,6-1.2,8.74,4.59-4.46,10.57-7.58,16.65-7.58,7.28,0,11.62,4.08,11.62,10.27,0,5.23-3.24,8.69-7.53,10.75-3.34,1.63-8.47,2.78-12.76,3.31-1.1.14-1.55.1-1.99-.62-.95-1.63-1.84-2.93-3.39-4.08,5.58-.34,10.37-1.25,13.71-2.69,4.04-1.68,5.88-4.18,5.88-7.25,0-2.59-1.7-4.94-5.98-4.94s-9.67,2.74-14.36,7.3c-.9.86-1.55,1.68-2.14,2.64-.3.48-.5.48-1.15.34-1.15-.38-2.34-.82-3.39-1.3-.5-.19-.7-.29-.7-.96.3-5.57.95-11.23,1.55-15.5.2-1.44.45-2.69.45-4.32,1.94.53,4.04,1.1,5.18,1.73ZM93.81,63.17c.25-.24.55-.38.95-.24,3.69,1.39,6.78,3.22,9.77,5.71.25.19.35.34.35.53,0,.14-.1.34-.25.58-.65,1.01-1.7,2.4-2.54,3.36-.2.24-.4.38-.55.38-.2,0-.35-.1-.6-.34-2.79-2.35-6.13-4.56-10.07-6.24,1.2-1.73,2.14-2.98,2.94-3.74Z"/><path d="M140.88,73.01c1.45-5.18,5.73-7.92,11.52-7.92,6.93,0,11.42,3.89,11.42,9.22,0,4.32-2.69,7.49-7.28,8.26v.34c5.13,1.06,8.03,4.37,8.03,9.22,0,6.48-4.89,10.9-12.16,10.9-6.28,0-10.42-2.45-12.11-8.11l6.13-1.73c.85,3.7,2.64,5.18,5.93,5.18,3.59,0,5.83-2.3,5.83-6.19,0-4.18-2.04-6.62-7.38-6.62h-2.89v-4.9h2.64c4.98,0,6.98-2.06,6.98-5.76,0-3.36-2.04-5.14-5.23-5.14-2.64,0-4.79,1.58-5.28,5.04l-6.13-1.78Z"/><path d="M188.79,95.33c-4.39,0-5.93.1-6.23.1-.5,0-.55-.05-.55-.53v-3.79c0-.43.05-.48.55-.48.3,0,1.84.1,6.23.1h1.2v-6.72c0-2.74-.1-4.03-.1-4.32,0-.48.05-.53.6-.53.3,0,1.99.1,6.83.1h6.38v-6.38h-10.22c-1.65,2.4-3.59,4.7-5.83,6.86-.5.53-.8.77-1.05.77s-.5-.29-1-.91c-.95-1.25-1.84-2.02-2.79-2.59,4.14-3.46,7.18-7.44,9.22-11.62.6-1.2,1.05-2.35,1.3-3.5,1.79.34,3.44.67,4.79,1.06.6.19.9.43.9.82s-.25.58-.6.91c-.4.34-.75.72-1.25,1.73l-1,2.06h20.59c4.84,0,6.53-.1,6.83-.1.5,0,.55.05.55.53v3.55c0,.48-.05.53-.55.53-.3,0-1.99-.1-6.83-.1h-7.68v6.38h5.33c4.89,0,6.53-.1,6.83-.1.45,0,.5.05.5.53v3.6c0,.48-.05.53-.5.53-.3,0-1.94-.1-6.83-.1h-5.33v7.01h10.57c4.39,0,5.93-.1,6.23-.1.5,0,.55.05.55.48v3.79c0,.48-.05.53-.55.53-.3,0-1.84-.1-6.23-.1h-10.57v2.35c0,5.04.1,7.58.1,7.82,0,.48-.05.53-.55.53h-4.44c-.55,0-.6-.05-.6-.53,0-.29.1-2.78.1-7.82v-2.35h-14.91ZM203.69,90.72v-7.01h-8.42v7.01h8.42Z"/><path d="M242.63,90.72c3.89-1.49,8.13-3.36,12.46-5.62-.15,1.1-.1,2.45.05,3.65q.25,1.58-1.15,2.3c-5.53,2.83-11.52,5.38-18.1,7.73-.75.29-1.2.53-1.45.82-.2.24-.5.38-.7.38-.3,0-.55-.24-.7-.67-.6-1.54-1.1-3.5-1.5-5.18,1.75-.34,3.19-.72,4.74-1.2l1-.29-.2-20.64c-.05-3.36-.05-5.18-.4-7.3,1.79.05,3.84.14,5.48.34.5.05.85.29.85.58,0,.38-.2.67-.35,1.01-.3.58-.35,1.82-.3,5.28l.25,18.82ZM261.47,88.94c2.69-4.18,4.39-9.98,4.89-17.81.25-2.78.2-4.94-.05-6.82,2.14.14,4.24.38,5.73.62.5.1.75.29.75.67,0,.43-.2.72-.4,1.15-.2.48-.4,2.02-.6,4.37-.65,8.11-2.29,14.26-4.74,18.53,2.94,4.32,6.58,7.78,10.42,10.46-.95,1.06-2.04,2.59-2.79,3.94-.35.67-.55,1.01-.8,1.01-.2,0-.5-.24-1.05-.72-3.24-2.88-6.13-6.14-8.87-9.98-3.29,4.32-7.58,7.68-15.15,11.09-.6.24-.95.38-1.2.38-.4,0-.55-.29-1.05-1.1-.7-1.2-1.6-2.26-2.69-3.17,9.02-3.46,14.06-6.91,17.6-12.63ZM251.4,68.3c.25-.14.4-.24.55-.24s.25.1.45.29c2.94,2.64,5.28,5.47,7.48,8.83.3.43.2.62-.3.91l-3.19,2.21c-.25.19-.45.29-.6.29-.25,0-.4-.19-.6-.53-2.29-3.65-4.44-6.34-7.08-8.93-.4-.38-.3-.58.25-.91l3.04-1.92Z"/><path d="M324.24,91.34c0,4.18.15,6.72.1,8.35,0,1.78-.5,3.17-1.6,3.98-1.1.82-2.84,1.25-7.73,1.25-1.45,0-1.6-.05-1.89-1.54-.3-1.49-.8-2.78-1.4-3.74,2.09.14,4.29.24,5.23.19,1.55-.05,1.99-.43,1.99-1.63v-8.16c-1,.91-1.84,1.97-2.49,3.02-.45.67-.7,1.01-1,1.01-.25,0-.55-.19-1.1-.58-4.39-3.17-7.83-6.86-10.12-11.86l-.15.38c-2.09,4.7-4.64,8.35-10.22,12.1-.55.43-.85.62-1.1.62-.3,0-.5-.29-.95-.96-.7-1.06-1.5-2.02-2.39-2.78v6.67c0,4.46.1,6.67.1,6.96,0,.43-.05.48-.6.48h-4.34c-.5,0-.55-.05-.55-.48,0-.34.1-2.59.1-7.54v-18.58c0-4.94-.1-7.25-.1-7.58,0-.48.05-.53.55-.53.35,0,1.99.1,6.73.1h9.77c.05-1.1.1-2.26.1-3.46,0-1.73-.05-3.36-.3-5.14,1.74.05,3.69.19,5.48.34.5.05.75.29.75.58,0,.34-.15.62-.3,1.01-.15.48-.2,1.54-.25,3.5,0,1.06-.05,2.11-.1,3.17h10.62c4.69,0,6.38-.1,6.68-.1.5,0,.55.05.55.53,0,.29-.1,2.88-.1,7.87v12.53ZM289.44,90.53c5.28-2.88,8.08-6.24,9.72-9.94.7-1.58,1.2-3.46,1.55-5.47h-11.27v15.41ZM318.96,75.12h-12.76c2.64,7.39,6.53,11.19,12.76,14.64v-14.64Z"/><path d="M343.54,67.44c.85.43,1.15.72,1.15,1.15,0,.34-.1.48-.75,1.44-.5.86-.75,1.54-1.2,3.41-1.4,5.95-2.09,11.86-2.09,15.51,0,2.35.1,3.94.3,5.62,1.05-2.21,1.94-3.79,3.39-7.15.4,1.2,1.05,1.97,1.74,3.02.15.24.35.53.35.72,0,.34-.1.53-.25.77-1.15,2.5-2.09,4.56-2.84,7.25-.1.29-.15.82-.15,1.49,0,.58.1.96.1,1.34,0,.34-.2.53-.65.62-1.25.34-2.64.62-4.09.77-.35.05-.55-.19-.65-.53-1.4-3.36-2.29-9.46-2.29-14.31,0-4.32.55-9.55,1.7-15.75.65-3.55.9-5.14.9-7.15,2.24.53,3.84,1.01,5.33,1.78ZM354.21,90.05c.4-.05.5.19.5.72.3,3.31,2.69,4.51,8.13,4.51,3.74,0,6.18-.24,9.52-.62.5-.05.6,0,.7.62.15,1.01.3,2.88.3,4.13,0,.58,0,.62-.85.72-3.39.38-5.78.53-8.13.53-7.38,0-10.82-1.15-12.96-3.98-1.25-1.54-1.74-3.98-1.74-6.24l4.54-.38ZM351.41,72.09c.05-.58.2-.72.7-.82,2.94-.53,8.52-.86,10.82-.86,2.99,0,5.28.1,7.38.29,1.05.05,1.15.14,1.15.62,0,1.44,0,2.74-.1,4.08-.05.43-.2.62-.65.58-2.99-.19-5.58-.29-8.13-.29-3.34,0-6.58.29-11.32,1.1.05-2.69.05-3.89.15-4.7Z"/><path d="M412.94,84.33c.7,0,1.05-.1,1.2-.14.2-.05.4-.14.5-.14.4,0,.7.24,1.5,1.06.7.67.95,1.06.95,1.3s-.15.38-.45.58c-.3.19-.75.43-1.35,1.25-2.49,3.5-5.28,6.29-8.52,8.59,5.04,2.74,11.42,4.32,19.39,5.62-.55.58-1,1.34-1.35,2.11q-.45.96-1.4.77c-8.38-1.78-14.56-3.7-19.39-6.72-5.03,2.93-11.17,4.9-19.04,6.48-.95.19-1,.19-1.4-.72-.35-.77-.8-1.49-1.3-1.97,7.88-1.15,14.11-2.98,19.14-5.66-3.14-2.5-5.68-5.62-7.88-9.74-2.79.05-4.14.1-4.34.1-.35,0-.4-.05-.4-.38v-2.06c0-.34.05-.38.4-.38.25,0,1.89.1,6.83.1h16.9ZM424.45,81.31c0,3.6.1,4.32.1,4.61,0,.34-.05.38-.4.38h-2.29c-.35,0-.4-.05-.4-.38v-6.58h-35.29v6.58c0,.34-.05.38-.4.38h-2.24c-.35,0-.4-.05-.4-.38,0-.29.1-1.01.1-4.66v-1.82c0-1.49-.1-2.16-.1-2.45,0-.34.05-.38.4-.38.3,0,1.99.1,6.83.1h20.64c1.45-2.02,2.59-4.13,3.64-6.34.35-.77.5-1.39.65-2.11,1.05.34,1.99.67,2.69.96.35.14.55.34.55.53,0,.29-.25.53-.5.77-.3.29-.55.62-.95,1.34-.8,1.54-1.74,3.12-2.94,4.85h3.19c4.84,0,6.58-.1,6.83-.1.35,0,.4.05.4.38,0,.29-.1.96-.1,2.21v2.11ZM420.21,65.76c-.45,0-1.15.05-1.94.19-4.39.82-8.18,1.39-14.36,2.02-5.68.53-11.02.91-16.45,1.1q-.8.05-1.15-.91c-.3-.82-.65-1.39-1.05-1.87,6.38-.1,12.01-.38,18.25-.96,5.04-.48,8.28-.96,10.77-1.49,1.79-.38,2.94-.77,3.74-1.1.95.62,1.69,1.2,2.44,1.87.3.29.4.48.4.67,0,.24-.15.48-.65.48ZM392,69.98c.5-.19.6-.14.8.14,1.1,1.58,1.79,2.78,2.59,4.7.1.29.1.38-.5.62l-1.4.48c-.7.24-.8.19-.95-.24-.6-1.73-1.35-3.22-2.29-4.56-.25-.34-.15-.38.45-.62l1.3-.53ZM396.68,86.98c1.94,3.46,4.39,6.1,7.38,8.21,3.49-2.26,6.23-4.99,8.52-8.21h-15.9ZM402.92,69.36c.5-.19.6-.14.8.19.85,1.54,1.65,3.36,2.14,5.28.1.34.05.38-.55.58l-1.45.43c-.65.19-.75.19-.85-.24-.55-2.02-1.05-3.41-1.94-5.14-.2-.34-.2-.43.5-.67l1.35-.43Z"/><path d="M447.24,73.68c0,.34-.05.38-.35.38s-1.35-.1-4.98-.1h-4.99c-3.64,0-4.84.1-5.03.1-.3,0-.35-.05-.35-.38v-2.02c0-.34.05-.38.35-.38.2,0,1.4.1,5.03.1h4.99c3.64,0,4.69-.1,4.98-.1s.35.05.35.38v2.02ZM446.24,67.15c0,.34-.05.38-.4.38-.2,0-1.1-.1-4.14-.1h-3.74c-3.04,0-3.94.1-4.24.1-.35,0-.4-.05-.4-.38v-1.92c0-.34.05-.38.4-.38.3,0,1.2.1,4.24.1h3.74c3.04,0,3.94-.1,4.14-.1.35,0,.4.05.4.38v1.92ZM445.64,97.54c0,5.52.05,6.62.05,6.86,0,.34-.05.38-.35.38h-1.94c-.3,0-.35-.05-.35-.38v-1.58h-6.83v2.4c0,.34-.05.38-.4.38h-1.94c-.4,0-.45-.05-.45-.38,0-.24.1-1.06.1-6.91v-2.88c0-2.88-.1-3.98-.1-4.27,0-.34.05-.34.45-.34.25,0,1.2.1,4.14.1h3.14c3.04,0,3.94-.1,4.19-.1.3,0,.35,0,.35.34,0,.29-.05,1.3-.05,3.46v2.93ZM445.24,80.06c0,.34-.05.38-.4.38-.25,0-1.05-.1-3.94-.1h-2.69c-2.84,0-3.74.1-3.94.1-.35,0-.4-.05-.4-.38v-1.87c0-.34.05-.38.4-.38.2,0,1.1.1,3.94.1h2.69c2.89,0,3.69-.1,3.94-.1.35,0,.4.05.4.38v1.87ZM445.24,86.5c0,.34-.05.38-.4.38-.25,0-1.05-.1-3.94-.1h-2.69c-2.84,0-3.74.1-3.94.1-.35,0-.4-.05-.4-.38v-1.87c0-.34.05-.38.4-.38.2,0,1.1.1,3.94.1h2.69c2.89,0,3.69-.1,3.94-.1.35,0,.4.05.4.38v1.87ZM443.05,93.26h-6.83v7.2h6.83v-7.2ZM476.3,96.43c0,.34-.05.38-.4.38-.2,0-1.15-.05-3.44-.1,0,1.78.05,3.46.05,4.46,0,1.78-.3,2.54-1.05,3.12-.7.62-1.84.86-5.43.86-1,0-1-.1-1.2-.82-.2-.67-.55-1.39-.9-1.87,1.25.14,2.34.19,3.84.19,1.65,0,1.99-.48,1.99-1.78v-4.18h-16.7v3.17c0,3.6.1,5.09.1,5.33,0,.34-.05.38-.4.38h-2.14c-.3,0-.35-.05-.35-.38,0-.29.1-1.54.1-5.23v-3.22c-2.04,0-2.89.05-3.04.05-.35,0-.4-.05-.4-.38v-1.44c0-.34.05-.38.4-.38.15,0,1,.05,3.04.1v-5.38c0-3.7-.1-5.04-.1-5.28,0-.34.05-.38.35-.38s1.79.1,6.23.1h2.99v-3.46h-5.18c-4.94,0-6.58.1-6.83.1-.35,0-.4-.05-.4-.38v-1.49c0-.34.05-.38.4-.38.25,0,1.89.1,6.83.1h.65v-3.6c-3.44.05-4.69.1-4.89.1-.35,0-.4-.05-.4-.38v-1.44c0-.34.05-.38.4-.38.2,0,1.45.1,4.89.1v-3.26c-4.34,0-5.83.1-6.08.1-.35,0-.4-.05-.4-.38v-1.44c0-.34.05-.38.4-.38.25,0,1.74.1,6.08.1v-.58c0-2.21-.05-3.36-.35-4.27,1.1.05,2.04.14,2.89.29.35.05.6.24.6.38,0,.19-.1.43-.25.67-.25.34-.3,1.1-.3,2.98v.53h6.63v-.58c0-2.21-.05-3.36-.35-4.27,1.15.05,2.04.14,2.89.29.35.05.6.24.6.38,0,.19-.1.43-.25.67-.25.34-.3,1.1-.3,2.98v.53h.5c4.74,0,6.23-.1,6.53-.1.35,0,.4.05.4.38v1.44c0,.34-.05.38-.4.38-.3,0-1.79-.1-6.53-.1h-.5v3.26c4.09,0,5.48-.1,5.78-.1.35,0,.4.05.4.38v1.44c0,.34-.05.38-.4.38-.3,0-1.69-.1-5.78-.1v3.6h1.5c4.94,0,6.58-.1,6.83-.1.35,0,.4.05.4.38v1.49c0,.34-.05.38-.4.38-.25,0-1.89-.1-6.83-.1h-6.23v3.46h3.54c4.44,0,5.93-.1,6.23-.1.35,0,.4.05.4.38,0,.24-.1,1.87-.1,5.57v5.09c2.29,0,3.24-.1,3.44-.1.35,0,.4.05.4.38v1.44ZM459.85,85.82h-6.78v3.41h6.78v-3.41ZM459.85,91.06h-6.78v3.65h6.78v-3.65ZM464.54,69.36h-6.63v3.26h6.63v-3.26ZM464.54,74.64h-6.63v3.6h6.63v-3.6ZM469.77,85.82h-7.38v3.41h7.38v-3.41ZM469.77,91.06h-7.38v3.65h7.38v-3.65Z"/><path d="M524.36,73.87c0,.43-.15.48-.65.48-5.33-.14-10.22-.19-15.85,0,0,3.02,0,6.34.05,9.55.4,1.49.6,3.22.6,5.04,0,6.05-2.69,11.19-9.72,14.83-.5.29-.9.43-1.15.43-.3,0-.6-.14-.9-.38-.55-.48-1.45-1.06-2.29-1.34,7.13-2.83,10.42-7.25,10.87-12.1-1.1,1.82-3.24,2.74-5.48,2.74-3.44,0-6.58-2.21-6.58-6.77,0-4.08,3.14-6.67,6.83-6.67,1.89,0,3.64.53,4.69,1.63-.05-2.35-.05-4.51-.1-6.77-7.13.38-13.86.86-18.59,1.44-1.2.14-1.79.48-2.19.48-.3,0-.5-.14-.6-.48-.3-.62-.55-1.78-.8-3.07,1.7.1,3.34-.05,6.28-.29,4.04-.29,9.17-.62,15.8-1.01-.05-1.97-.05-2.93-.1-4.46-.05-1.2-.15-1.97-.5-3.22,1.5.1,2.94.34,3.79.53.55.14.9.38.9.72,0,.29-.15.53-.35.86-.2.34-.3.67-.35,1.3-.1,1.06-.1,1.97-.1,4.08,5.53-.14,10.42-.14,15.95-.14.45,0,.55.05.55.53v2.06ZM496.2,86.25c0,2.64,1.79,4.13,4.04,4.13,2.79,0,4.54-2.06,4.54-4.22,0-2.4-1.84-4.08-4.44-4.08-2.19,0-4.14,1.58-4.14,4.18Z"/><path d="M547.05,84.24c3.59-2.26,7.13-3.41,10.72-3.41,7.18,0,11.62,4.27,11.62,10.51,0,7.15-5.88,12.34-16.45,12.34-5.98,0-8.67-2.59-8.67-5.66,0-2.5,2.29-4.9,5.83-4.9,4.49,0,7.53,2.78,8.47,6.86,4.29-1.34,7.28-4.03,7.28-8.74s-3.89-7.87-8.62-7.87-9.87,2.45-13.71,5.42c-1.6,1.2-2.89,2.5-4.39,3.94-.4.38-.65.43-1,.1-.6-.58-1.35-1.3-1.84-1.92-.2-.24-.15-.43.2-.72,3.94-3.31,6.48-5.76,11.27-10.71,2.89-3.02,5.88-6.1,9.72-10.46-4.14.62-8.03,1.34-12.46,2.16-.65.1-1.25.24-1.74.43-.35.14-.75.24-.95.24-.35,0-.6-.19-.8-.58-.45-.86-.8-1.78-1.2-3.31,1.65.19,3.04.19,4.39.05,3.94-.38,8.03-.91,12.41-1.73.6-.1,1.2-.24,1.55-.43.2-.14.5-.34.7-.34.25,0,.5.1.9.38.95.72,1.69,1.44,2.14,2.02.25.29.35.58.35.82,0,.38-.25.72-.75.91-.65.19-1.2.53-2.34,1.68-4.44,4.51-7.78,7.87-12.76,12.77l.15.14ZM550.19,95.71c-1.6,0-3.04.77-3.04,2.26,0,1.58,1.79,2.93,5.13,2.93,1.1,0,2.09-.05,3.24-.24-.65-2.74-2.49-4.94-5.33-4.94Z"/><path d="M594.86,99.74c0,3.7-3.19,6.67-7.03,6.67s-7.03-2.98-7.03-6.67,3.19-6.67,7.03-6.67,7.03,2.98,7.03,6.67ZM583.4,99.74c0,2.35,1.99,4.27,4.44,4.27s4.44-1.92,4.44-4.27-1.94-4.27-4.44-4.27-4.44,1.92-4.44,4.27Z"/><path d="M751.51,310.2c4.39.72,8.13,4.13,8.13,9.31,0,5.71-4.29,10.71-12.66,10.71-3.74,0-7.13-1.15-8.82-2.3l1.25-3.07c1.35.86,4.34,2.16,7.63,2.16,6.28,0,8.33-4.22,8.33-7.54,0-5.28-4.64-7.68-9.52-7.68h-2.44v-2.98h2.44c3.59,0,8.22-2.16,8.22-6.67,0-3.12-1.94-5.81-6.43-5.81-2.74,0-5.33,1.3-6.83,2.35l-1.25-2.93c1.79-1.34,5.28-2.69,8.87-2.69,6.83,0,9.87,4.18,9.87,8.5,0,3.7-2.44,7.01-6.78,8.5v.14Z"/><path d="M823.6,319.56v3.17h-18.64v10.99h-3.39v-10.99h-23.63v-3.17h8.38v-13.2h15.25v-7.87h-12.86c-2.39,3.79-5.13,7.2-7.98,9.7-.6-.58-1.89-1.63-2.69-2.11,4.64-3.84,9.02-10.47,11.62-17.14l4.24,1.3c-.2.43-.65.53-1.15.43-.65,1.58-1.4,3.12-2.24,4.66h30.71v3.17h-16.25v7.87h15.15v3.07h-15.15v10.13h18.64ZM789.7,319.56h11.86v-10.13h-11.86v10.13Z"/><path d="M837.51,321.67c3.69-1.06,7.68-2.21,11.57-3.36l.5,3.02c-7.33,2.3-15.15,4.75-20.09,6.19,0,.38-.3.67-.65.77l-1.59-3.79c1.89-.48,4.19-1.1,6.73-1.82l-.65-31.01c2.54.19,3.54.24,4.54.29-.05.34-.35.58-1,.67l.65,29.04ZM870.11,292.24c-.1.43-.45.62-1.15.67-1.35,10.71-3.44,19.2-7.33,25.87,4.44,4.13,9.82,9.36,12.61,12.67l-2.94,2.4c-2.49-3.17-7.33-8.11-11.57-12.19-3.99,5.38-9.52,9.36-17.3,12.24-.5-.72-1.64-1.97-2.44-2.64,17.55-5.9,23.13-18.19,25.52-39.7l4.59.67ZM847.13,294.69c3.39,3.5,6.68,8.31,8.08,11.67l-3.24,1.63c-1.25-3.36-4.54-8.35-7.83-11.9l2.99-1.39Z"/><path d="M920.72,297.48v31.88c0,2.26-.55,3.31-2.24,3.89-1.69.53-4.79.58-9.32.58-.15-.96-.7-2.4-1.2-3.31,1.84.05,3.64.1,5.08.1,4.14,0,4.34,0,4.34-1.25v-28.71h-15.6c-.1,1.97-.35,4.03-.85,6.14,5.18,4.37,11.42,10.18,14.56,13.87l-2.74,2.06c-2.74-3.31-7.98-8.54-12.81-12.82-1.84,4.85-5.53,9.65-12.71,13.68-.5-.72-1.6-1.87-2.39-2.45,11.37-5.9,13.26-14.02,13.56-20.5h-14.81v33.17h-3.34v-36.34h18.2v-8.4l4.39.29c-.05.34-.3.58-1,.67v7.44h18.89Z"/><line x1=".01" y1="406.55" x2="1277.79" y2="405.16" style="stroke:#000; stroke-miterlimit:10; stroke-width:20px;"/><polygon points="1109.89 411.98 1141.05 465.96 1078.73 465.96 1109.89 411.98" style="stroke:#231815; stroke-linecap:round; stroke-miterlimit:10;"/><line x1="1109.89" y1="399.72" x2="1109.89" y2="334.44" style="stroke:#231815; stroke-linecap:round; stroke-miterlimit:10; stroke-width:10px;"/><line x1="409.35" y1="390" x2="720.31" y2="311.4" style="stroke:#231815; stroke-linecap:round; stroke-miterlimit:10;"/><line x1="931.24" y1="313.49" x2="1097.91" y2="388.49" style="stroke:#231815; stroke-linecap:round; stroke-miterlimit:10;"/><line x1="399.29" y1="450.18" x2="399.29" y2="341.15" style="stroke:#231815; stroke-linecap:round; stroke-miterlimit:10; stroke-width:10px;"/><path d="M1021.14,298.6c4.22.72,7.83,4.13,7.83,9.31,0,5.71-4.13,10.71-12.19,10.71-3.6,0-6.86-1.15-8.5-2.3l1.2-3.07c1.3.86,4.18,2.16,7.34,2.16,6.05,0,8.02-4.22,8.02-7.54,0-5.28-4.46-7.68-9.17-7.68h-2.35v-2.98h2.35c3.46,0,7.92-2.16,7.92-6.67,0-3.12-1.87-5.81-6.19-5.81-2.64,0-5.14,1.3-6.58,2.35l-1.2-2.93c1.73-1.34,5.09-2.69,8.54-2.69,6.58,0,9.5,4.18,9.5,8.5,0,3.7-2.35,7.01-6.53,8.5v.14Z"/><path d="M1083.93,280.12v37.25c0,2.5-.67,3.6-2.45,4.18-1.78.58-4.99.62-10.22.58-.24-.91-.86-2.45-1.39-3.41,2.3.1,4.51.14,6.24.14,4.18,0,4.46,0,4.46-1.49v-10.71h-23.76c-1.25,5.62-3.74,11.28-8.83,15.55-.48-.72-1.68-1.92-2.4-2.4,8.26-7.01,9.07-16.95,9.07-24.91v-14.79h29.28ZM1057.91,294.91c0,2.45-.1,5.47-.53,8.64h23.19v-8.64h-22.66ZM1080.57,283.29h-22.66v8.54h22.66v-8.54Z"/><path d="M1119.59,298.6c4.22.72,7.83,4.13,7.83,9.31,0,5.71-4.13,10.71-12.19,10.71-3.6,0-6.87-1.15-8.5-2.3l1.2-3.07c1.3.86,4.18,2.16,7.34,2.16,6.05,0,8.02-4.22,8.02-7.54,0-5.28-4.46-7.68-9.17-7.68h-2.35v-2.98h2.35c3.46,0,7.92-2.16,7.92-6.67,0-3.12-1.87-5.81-6.19-5.81-2.64,0-5.14,1.3-6.58,2.35l-1.2-2.93c1.73-1.34,5.09-2.69,8.54-2.69,6.58,0,9.5,4.18,9.5,8.5,0,3.7-2.35,7.01-6.53,8.5v.14Z"/><path d="M1143.44,318.05v-32.21h-.1l-5.9,3.41-.96-2.98,7.44-4.18h3.41v35.96h-3.89Z"/><path d="M1178.1,280.65h31.16v40.42h-3.36v-2.88h-24.48v3.17h-3.31v-40.71ZM1205.89,283.92h-24.48v13.78h24.48v-13.78ZM1181.41,314.93h24.48v-14.07h-24.48v14.07Z"/><path d="M357.6,244.15h-23.81v23.04h-3.12v-5.62c-5.71.86-11.38,1.63-15.12,2.11-.05.34-.34.58-.67.62l-1.1-3.36,4.61-.48v-16.32h-4.42v-2.74h43.64v2.74ZM351.31,224.66v13.63h-31.06v-13.63h31.06ZM330.67,247.56v-3.41h-9.27v3.41h9.27ZM330.67,253.56v-3.5h-9.27v3.5h9.27ZM321.41,256.05v4.08c2.93-.34,6.1-.67,9.27-1.06v-3.02h-9.27ZM348.1,230.27v-3.26h-24.72v3.26h24.72ZM348.1,235.94v-3.36h-24.72v3.36h24.72ZM353.38,247.32l2.06.82c-.14.29-.29.38-.43.58-1.44,4.42-3.89,8.16-6.87,11.19,2.78,2.16,6.14,3.74,9.89,4.7-.72.62-1.54,1.78-1.97,2.54-3.84-1.1-7.25-2.93-10.13-5.28-2.83,2.35-6.1,4.13-9.41,5.38-.38-.77-1.2-1.92-1.82-2.54,3.17-1.01,6.29-2.69,9.02-4.9-2.5-2.54-4.46-5.62-5.86-9.12l1.87-.58h-4.56v-2.69h17.62l.58-.1ZM340.61,250.1c1.2,2.98,2.98,5.62,5.28,7.82,2.21-2.21,4.08-4.85,5.33-7.82h-10.61Z"/><path d="M381.36,242.8c-.19.19-.58.29-.96.24-.96,1.25-2.54,3.07-3.89,4.42,1.63,1.73,3.22,3.41,3.79,4.08l-1.97,2.4c-1.1-1.54-3.74-4.75-5.76-7.01v20.26h-3.22v-18.58c-2.21,2.45-4.51,4.61-6.77,6.34-.34-.77-1.25-2.21-1.82-2.78,5.52-3.84,11.47-10.71,14.69-17.62h-13.3v-2.98h7.2v-8.98l4.13.24c-.05.34-.29.58-.91.67v8.06h4.61l.58-.14,2.21,1.3c-.1.24-.38.43-.67.48-1.49,3.7-3.7,7.39-6.19,10.8.53.48,1.2,1.15,1.92,1.92,1.25-1.58,2.83-3.74,3.7-5.23l2.64,2.11ZM403.35,227.15l1.78.14c-.05.24-.05.77-.1,1.15-.53,25.54-1.06,33.75-2.93,36.15-1.15,1.63-2.35,2.11-6,2.11-1.39,0-3.02-.05-4.56-.14-.1-.96-.48-2.35-1.06-3.31,3.07.24,5.71.24,6.91.24.77,0,1.25-.19,1.68-.82,1.54-1.73,2.16-9.89,2.69-32.4h-10.37c-.43,13.06-1.25,28.8-12.82,36.96-.58-.77-1.63-1.82-2.5-2.4,10.85-7.2,11.76-21.75,12-34.56h-8.54v-3.07h23.04l.77-.05Z"/><path d="M434.54,231.33c-.19.43-.58.77-1.2.77-1.73,14.93-6.72,27.94-14.69,27.94-4.03,0-7.68-4.03-7.68-11.62,0-11.52,8.98-21.17,21.6-21.17,13.87,0,19.87,8.78,19.87,18.15,0,11.42-6.62,16.95-18.24,19.63-.43-.77-1.25-2.06-2.02-2.93,11.04-2.11,16.71-7.49,16.71-16.56,0-7.92-5.09-15.12-16.32-15.12-.48,0-1.01.05-1.44.1l3.41.82ZM429.94,230.71c-9.7,1.2-15.7,9.22-15.7,17.62,0,5.14,2.21,8.35,4.51,8.35,5.81,0,9.98-12.82,11.18-25.97Z"/><path d="M332.21,323.11h-3.79v-10.08h-15.7v-2.54l15.36-23.33h4.13v22.8h4.9v3.07h-4.9v10.08ZM316.75,309.96h11.67v-12.77c0-1.97.1-3.89.19-5.76h-.19c-1.1,2.21-1.97,3.74-2.88,5.38l-8.79,13.06v.1Z"/><path d="M389.62,285.19v37.25c0,2.5-.67,3.6-2.45,4.18-1.78.58-4.99.62-10.22.58-.24-.91-.86-2.45-1.39-3.41,2.3.1,4.51.14,6.24.14,4.18,0,4.46,0,4.46-1.49v-10.71h-23.76c-1.25,5.62-3.74,11.28-8.83,15.55-.48-.72-1.68-1.92-2.4-2.4,8.26-7.01,9.07-16.95,9.07-24.92v-14.79h29.28ZM363.6,299.97c0,2.45-.1,5.47-.53,8.64h23.19v-8.64h-22.66ZM386.26,288.35h-22.66v8.54h22.66v-8.54Z"/><path d="M422.69,323.11v-32.21h-.1l-5.9,3.41-.96-2.98,7.44-4.18h3.41v35.96h-3.89Z"/><path d="M457.34,285.71h31.16v40.42h-3.36v-2.88h-24.48v3.17h-3.31v-40.71ZM485.14,288.98h-24.48v13.78h24.48v-13.78ZM460.65,319.99h24.48v-14.07h-24.48v14.07Z"/><polygon points="176.31 340.1 145.15 394.07 113.99 340.1 176.31 340.1" style="fill:#e6e6e6; stroke:#000; stroke-linecap:round; stroke-miterlimit:10; stroke-width:6px;"/><line x1="427.57" y1="485.73" x2="470.68" y2="450.18" style="fill:none;"/><path d="M1059.48,505.76l2.4,1.39c-.1.24-.38.38-.67.48-2.54,5.04-6.43,9.02-11.14,12.1,5.28,2.45,11.52,4.13,18.39,4.99-.72.77-1.58,2.16-2.06,3.12-7.39-1.1-14.02-3.17-19.58-6.19-5.67,2.98-12.24,4.94-19.11,6.19-.38-.86-1.25-2.3-1.92-3.02,6.38-.96,12.58-2.59,17.86-5.09-3.98-2.69-7.25-5.95-9.7-9.89l2.54-1.06h-4.9v-2.88h27.27l.62-.14ZM1029,500.04v7.25h-3.07v-10.13h7.82c-.62-1.82-2.02-4.42-3.31-6.38l2.88-.86c1.44,2.06,2.98,4.85,3.55,6.62l-1.82.62h20.35c1.68-2.45,3.7-6.05,4.85-8.54l3.84,1.44c-.14.29-.53.38-1.01.38-1.06,1.97-2.74,4.56-4.27,6.72h8.69v10.13h-3.17v-7.25h-35.33ZM1064.66,485.93c-.14.1-.29.14-.53.14-.14,0-.29-.05-.48-.1-8.78,1.78-23.86,3.07-36.48,3.6-.05-.82-.48-2.02-.77-2.78,12.53-.53,27.55-1.87,35.81-3.65l2.45,2.78ZM1036.92,508.78c2.35,3.7,5.76,6.77,9.99,9.26,4.08-2.4,7.49-5.47,9.79-9.26h-19.78ZM1046.04,489.15c1.15,2.26,2.35,5.33,2.69,7.15l-3.12.82c-.29-1.92-1.39-4.99-2.5-7.34l2.93-.62Z"/><path d="M1072.29,494.04v-2.74h16.18v2.74h-16.18ZM1087.41,511.28v14.11h-10.32v2.26h-2.78v-16.37h13.11ZM1087.22,498.03v2.64h-12.87v-2.64h12.87ZM1074.35,507.29v-2.64h12.87v2.64h-12.87ZM1087.08,484.83v2.64h-12.43v-2.64h12.43ZM1084.58,514.01h-7.49v8.64h7.49v-8.64ZM1117.17,517.18v2.74h-2.98v4.37c0,3.22-1.39,3.41-8.26,3.41-.1-.82-.48-1.92-.86-2.69,1.44.05,2.78.1,3.74.1,2.11,0,2.35,0,2.35-.86v-4.32h-16.13v7.78h-2.83v-7.78h-3.31v-2.74h3.31v-12.38h9.31v-2.98h-12.62v-2.64h7.25v-3.5h-4.94v-2.5h4.94v-3.26h-5.9v-2.54h5.9v-4.27l3.89.29c-.05.29-.29.53-.91.62v3.36h8.16v-4.27l3.89.29c-.05.29-.29.53-.91.62v3.36h6.1v2.54h-6.1v3.26h5.18v2.5h-5.18v3.5h6.82v2.64h-12.77v2.98h9.89v12.38h2.98ZM1101.52,507.24h-6.48v3.89h6.48v-3.89ZM1095.04,513.48v3.7h6.48v-3.7h-6.48ZM1099.13,489.91v3.26h8.16v-3.26h-8.16ZM1099.13,495.67v3.5h8.16v-3.5h-8.16ZM1111.17,507.24h-6.86v3.89h6.86v-3.89ZM1104.31,517.18h6.86v-3.7h-6.86v3.7Z"/><path d="M1144.44,512.86v2.93h-24.15v-2.93h4.85v-20.26h-4.18v-2.93h4.18v-6l3.89.24c-.05.34-.29.53-.91.62v5.14h9.36v-6l3.94.24c-.05.34-.29.58-.91.62v5.14h3.65v2.93h-3.65v20.26h3.94ZM1130.95,518.19c-.14.29-.48.43-1.01.43-1.68,3.22-4.37,6.77-6.96,9.02-.58-.53-1.68-1.39-2.4-1.82,2.5-2.02,5.09-5.47,6.62-8.88l3.74,1.25ZM1137.48,492.6h-9.36v4.75h9.36v-4.75ZM1128.12,500.04v4.85h9.36v-4.85h-9.36ZM1128.12,507.53v5.33h9.36v-5.33h-9.36ZM1163.45,485.55v38.07c0,3.89-1.78,4.18-8.98,4.08-.1-.82-.58-2.26-1.01-3.12,1.54.05,3.02.1,4.13.1,2.45,0,2.74,0,2.74-1.06v-12.53h-10.95c-.58,5.95-2.06,12.24-5.66,16.9-.48-.62-1.78-1.58-2.5-1.92.48-.58.91-1.2,1.34-1.87-.1,0-2.16,1.25-2.64,1.54-.91-1.97-3.07-5.18-4.99-7.44l2.54-1.39c1.92,2.26,4.08,5.23,5.09,7.2,3.74-6.29,4.13-14.45,4.13-20.88v-17.67h16.75ZM1149.72,503.21c0,1.54-.05,3.22-.14,4.94h10.75v-8.45h-10.61v3.5ZM1160.33,488.52h-10.61v8.26h10.61v-8.26Z"/><path d="M1183.27,485.07l2.16,1.3c-.1.14-.24.34-.43.43-1.39,3.7-3.41,8.59-5.28,12.53,4.08,3.94,5.52,7.25,5.52,10.42,0,7.01-4.66,6.82-8.74,6.67-.05-.86-.38-2.11-.82-2.88,1.3.1,2.54.1,3.46.1.67-.1,1.25-.24,1.78-.53.86-.48,1.25-1.87,1.25-3.36s-.1-4.9-5.57-10.03c1.68-3.65,3.41-8.21,4.61-11.57h-7.78v39.6h-3.02v-42.53h12.34l.53-.14ZM1199.64,506.76c.72,2.59,1.68,5.09,2.83,7.3,2.3-1.82,4.94-4.27,6.58-6.14l2.98,2.3c-.14.19-.53.29-.96.24-1.82,1.78-4.8,4.18-7.25,5.95,2.35,3.79,5.47,6.72,9.31,8.45-.72.62-1.68,1.82-2.16,2.69-7.25-3.65-11.81-11.23-14.21-20.79h-5.52v15.36l9.22-1.97.24,2.88c-5.95,1.39-12.29,2.88-16.23,3.74-.05.34-.29.62-.62.72l-1.39-3.65c1.58-.29,3.5-.67,5.62-1.1v-37.49h21.79v21.51h-10.23ZM1206.65,488.14h-15.41v6.34h15.41v-6.34ZM1191.24,497.26v6.62h15.41v-6.62h-15.41Z"/><path d="M53.3,167.16l2.4,1.39c-.1.24-.38.38-.67.48-2.54,5.04-6.43,9.02-11.14,12.1,5.28,2.45,11.52,4.13,18.39,4.99-.72.77-1.58,2.16-2.06,3.12-7.39-1.1-14.02-3.17-19.59-6.19-5.66,2.98-12.24,4.94-19.11,6.19-.38-.86-1.25-2.3-1.92-3.02,6.38-.96,12.58-2.59,17.86-5.09-3.98-2.69-7.25-5.95-9.7-9.89l2.54-1.06h-4.9v-2.88h27.27l.62-.14ZM22.82,161.45v7.25h-3.07v-10.13h7.82c-.62-1.82-2.02-4.42-3.31-6.38l2.88-.86c1.44,2.06,2.98,4.85,3.55,6.62l-1.82.62h20.35c1.68-2.45,3.7-6.05,4.85-8.54l3.84,1.44c-.14.29-.53.38-1.01.38-1.06,1.97-2.74,4.56-4.27,6.72h8.69v10.13h-3.17v-7.25H22.82ZM58.48,147.33c-.14.1-.29.14-.53.14-.14,0-.29-.05-.48-.1-8.78,1.78-23.86,3.07-36.48,3.6-.05-.82-.48-2.02-.77-2.78,12.53-.53,27.55-1.87,35.81-3.65l2.45,2.78ZM30.74,170.18c2.35,3.7,5.76,6.77,9.98,9.27,4.08-2.4,7.49-5.47,9.79-9.27h-19.78ZM39.86,150.55c1.15,2.26,2.35,5.33,2.69,7.15l-3.12.82c-.29-1.92-1.39-4.99-2.5-7.34l2.93-.62Z"/><path d="M66.11,155.45v-2.74h16.18v2.74h-16.18ZM81.23,172.68v14.11h-10.32v2.26h-2.78v-16.37h13.1ZM81.04,159.43v2.64h-12.87v-2.64h12.87ZM68.18,168.69v-2.64h12.87v2.64h-12.87ZM80.9,146.23v2.64h-12.43v-2.64h12.43ZM78.4,175.42h-7.49v8.64h7.49v-8.64ZM111,178.58v2.74h-2.98v4.37c0,3.22-1.39,3.41-8.26,3.41-.1-.82-.48-1.92-.86-2.69,1.44.05,2.78.1,3.74.1,2.11,0,2.35,0,2.35-.86v-4.32h-16.13v7.78h-2.83v-7.78h-3.31v-2.74h3.31v-12.38h9.31v-2.98h-12.62v-2.64h7.25v-3.5h-4.94v-2.5h4.94v-3.26h-5.9v-2.54h5.9v-4.27l3.89.29c-.05.29-.29.53-.91.62v3.36h8.16v-4.27l3.89.29c-.05.29-.29.53-.91.62v3.36h6.1v2.54h-6.1v3.26h5.18v2.5h-5.18v3.5h6.82v2.64h-12.77v2.98h9.89v12.38h2.98ZM95.35,168.65h-6.48v3.89h6.48v-3.89ZM88.87,174.89v3.7h6.48v-3.7h-6.48ZM92.95,151.32v3.26h8.16v-3.26h-8.16ZM92.95,157.08v3.5h8.16v-3.5h-8.16ZM105,168.65h-6.86v3.89h6.86v-3.89ZM98.13,178.58h6.86v-3.7h-6.86v3.7Z"/><path d="M121.17,147.62h31.15v40.42h-3.36v-2.88h-24.48v3.17h-3.31v-40.71ZM148.96,150.89h-24.48v13.78h24.48v-13.78ZM124.48,181.9h24.48v-14.07h-24.48v14.07Z"/><path d="M166.05,151.94c2.98.19,6.96.19,10.23.19,2.16,0,4.61-.05,6.62-.1-.05-2.3-.1-4.99-.1-6.67l4.85.24c-.05.58-.48.86-1.3,1.01-.05.77,0,4.46,0,5.28,5.62-.29,11.19-.77,15.94-1.87l.43,3.17c-4.7,1.06-10.27,1.54-16.37,1.82.05,2.88.1,5.86.19,8.83,4.66-.29,9.65-.91,13.54-1.87l.38,3.12c-4.03.86-9.07,1.44-13.87,1.68l.38,8.02c4.42,1.44,9.12,3.94,14.11,7.49l-2.11,2.93c-4.32-3.41-8.4-5.71-11.91-7.06,0,.77.05,1.63.05,2.26-.05,4.56-2.78,7.2-8.59,7.2-6.1,0-10.56-2.5-10.56-7.01s5.23-7.15,10.61-7.15c1.58,0,3.26.14,5.04.58-.05-2.06-.14-4.56-.19-7.15-1.54.05-3.26.1-4.66.1-8.21,0-10.51-1.3-10.51-4.08,0-1.82,1.39-3.31,4.46-5.28l2.3,1.49c-2.16,1.2-3.31,2.26-3.31,3.22,0,1.44,2.26,1.73,8.35,1.73,1.06,0,2.16,0,3.22-.05l-.29-8.88c-2.06.1-4.46.1-6.62.1-3.07,0-7.44,0-10.32-.1v-3.17ZM183.81,176.95c-1.92-.53-3.7-.77-5.38-.77-3.65,0-7.34,1.49-7.34,4.37s3.36,4.22,7.54,4.22c3.79,0,5.23-1.68,5.23-5.04l-.05-2.78Z"/><path d="M239.83,155.01c-4.08,1.44-9.5,2.35-14.74,2.74-2.02,10.99-4.94,21.94-8.78,30l-3.46-1.3c3.94-7.73,6.82-17.67,8.69-28.56-.96.05-7.39.1-8.83.05l-.05-3.26c.77.05,1.78.05,2.88.05.43,0,5.23,0,6.48-.05.48-3.07.96-6.43,1.25-9.36l4.94.48c-.05.53-.72.91-1.39.96-.29,2.11-.77,4.7-1.2,7.63,4.7-.43,9.46-1.25,13.44-2.69l.77,3.31ZM252.6,186.98c-1.44.05-2.93.1-4.42.1-4.51,0-8.78-.34-11.38-1.06-3.41-.96-5.38-3.46-5.33-6.62.05-2.11.96-4.51,2.98-6.96l2.88,1.25c-1.68,1.97-2.5,3.84-2.5,5.33,0,3.79,3.65,4.75,12.38,4.75,1.78,0,3.6-.05,5.38-.19v3.41ZM233.87,163.85c4.94-1.58,11.76-2.59,17.43-2.45v3.26c-5.42-.14-11.71.62-16.61,2.16l-.82-2.98Z"/><path d="M262.96,186.41c-1.49-3.46-2.06-10.61-2.06-16.9s1.01-14.4,2.59-22.42l4.66.91c-.1.48-.58.82-1.25.86-1.73,6.58-2.78,15.12-2.78,20.69,0,3.65.05,7.3.43,9.07,1.06-2.88,2.98-7.49,3.98-9.74l2.16,2.02c-1.58,3.26-4.94,10.56-4.94,12.82,0,.67.14,1.39.48,2.3l-3.26.38ZM275.15,158.13c4.03.05,8.06.1,12.1-.19-.19-4.13-.34-7.68-.43-11.23l4.85.14c-.05.48-.48.86-1.25,1.01.05,3.07.14,6.19.24,9.84,3.79-.38,6.86-1.06,9.41-1.92l.43,3.36c-2.3.72-5.62,1.39-9.7,1.73.19,5.33.43,10.94.58,14.02,3.65,1.49,7.3,3.84,9.79,6.1l-1.87,3.07c-1.97-1.97-4.8-4.08-7.78-5.47-.05,4.08-.82,8.64-8.02,8.64-5.62,0-9.36-2.69-9.36-6.91,0-4.9,4.94-7.06,9.36-7.06,1.49,0,3.07.19,4.56.62-.14-3.02-.43-8.06-.67-12.77-1.49.1-3.5.14-4.9.14h-7.3l-.05-3.12ZM288.31,177c-1.54-.48-3.17-.86-4.75-.86-2.93,0-6.43,1.06-6.43,4.08,0,2.69,2.88,4.03,6.38,4.03s4.85-1.73,4.85-5.57l-.05-1.68Z"/><path d="M36.74,233.02c-.05.29-.38.53-.96.62-1.34,7.49-4.13,12.91-15.79,15.65-.34-.82-1.2-2.11-1.82-2.78,10.8-2.3,13.35-6.86,14.31-13.97l4.27.48ZM47.44,244.15c0,1.34.43,1.58,2.5,1.58h7.3c1.97,0,2.3-.86,2.5-6.91.72.58,2.11,1.1,3.02,1.34-.43,6.96-1.34,8.64-5.28,8.64h-7.82c-4.37,0-5.52-1.01-5.52-4.66v-12.34h-20.79v-12.48c-.86.72-1.82,1.39-2.78,2.02-.53-.77-1.54-1.92-2.3-2.4,6.67-4.22,11.52-9.98,14.02-14.59l4.22.72c-.1.38-.43.62-1.06.62-.48.82-1.06,1.68-1.68,2.59h12.67l.53-.19,2.5,1.58c-.14.24-.38.38-.67.38-1.1,1.97-2.88,4.42-4.66,6.53h14.69v15.22h-10.51c-.1.19-.38.38-.86.43v11.9ZM40.29,216.6c1.49-1.58,2.98-3.65,4.13-5.52h-12.72c-1.49,1.82-3.17,3.7-5.14,5.52h13.73ZM26.56,219.53v9.36h12.24v-9.36h-12.24ZM55.46,228.89v-9.36h-13.49v9.36h13.49Z"/><path d="M65.78,236.81c2.64-1.44,6.62-3.74,10.56-6.1v-26.16l4.13.24c-.05.34-.34.58-.96.67v43.64h-3.17v-14.98c-3.02,2.02-6.05,3.98-8.16,5.28.05.34-.14.67-.38.91l-2.02-3.5ZM69.04,210.93c2.3,2.98,4.8,6.86,5.71,9.46-1.44.91-2.16,1.2-2.83,1.54-.96-2.59-3.31-6.67-5.57-9.7l2.69-1.3ZM110.56,222.26h-12.87c2.06,10.9,6.14,19.87,13.54,24-.82.67-1.82,1.92-2.4,2.78-6.72-4.22-10.66-12.05-13.01-22.03h-.05c-1.58,8.78-5.04,16.9-12.53,22.03-.53-.72-1.58-1.68-2.4-2.21,8.21-5.42,11.23-14.69,12.38-24.58h-11.86v-3.22h12.15c.38-4.9.38-9.84.38-14.45l4.42.24c-.05.43-.43.67-1.15.82-.05,4.22-.1,8.78-.43,13.39h13.83v3.22ZM103.27,206.08c2.59,2.35,5.42,5.71,6.67,8.02l-2.64,1.54c-1.15-2.3-3.98-5.76-6.53-8.16l2.5-1.39Z"/><path d="M129.38,224.47c1.68,4.27,4.08,7.97,7.2,11.09,3.12-3.07,5.52-6.82,7.2-11.38l4.03,1.34c-.1.29-.53.48-1.1.43-1.87,4.7-4.46,8.54-7.68,11.76,5.14,4.18,11.81,6.96,19.97,8.31-.72.72-1.68,2.16-2.16,3.07-8.35-1.63-15.07-4.61-20.35-9.12-5.33,4.37-12.15,7.3-20.31,9.27-.38-.82-1.25-2.21-1.87-2.93,7.97-1.73,14.64-4.42,19.83-8.54-3.31-3.41-5.9-7.54-7.82-12.34l3.07-.96ZM131.68,217.46c-.14.38-.58.43-1.06.38-3.31,4.27-8.54,8.59-13.25,11.43-.53-.72-1.68-1.87-2.4-2.45,4.56-2.45,9.84-6.67,12.87-10.99l3.84,1.63ZM157.8,210.98v3.17h-42.63v-3.17h19.59v-6.53l4.22.24c-.05.34-.29.58-.96.67v5.62h19.78ZM155.4,228.84c-2.59-3.22-8.26-7.92-12.96-11.19l2.64-1.92c4.61,3.07,10.37,7.63,13.15,10.85l-2.83,2.26Z"/><path d="M169.27,221.54c-1.92,3.12-4.03,5.9-6.19,8.21-.38-.77-1.2-2.3-1.73-3.02,4.85-4.99,9.6-13.39,12.43-21.89l3.94,1.3c-.19.34-.53.48-1.1.48-1.3,3.46-2.83,6.86-4.56,10.13l1.34.38c-.05.34-.34.53-.91.62v31.35h-3.22v-27.55ZM206.8,215.35v3.22h-6.72v25.97c0,2.54-.72,3.55-2.4,4.08-1.73.58-4.8.62-9.84.58-.19-.86-.77-2.35-1.25-3.26,2.02.05,3.94.1,5.52.1,4.46,0,4.75,0,4.75-1.49v-25.97h-20.31v-3.22h20.31v-10.27l4.18.24c-.05.34-.29.58-.96.67v9.36h6.72ZM182.27,223.8c3.02,3.7,6.24,8.74,7.49,12.05l-2.98,1.54c-1.2-3.26-4.32-8.45-7.3-12.24l2.78-1.34Z"/><path d="M217.17,207.62h31.15v40.42h-3.36v-2.88h-24.48v3.17h-3.31v-40.71ZM244.96,210.89h-24.48v13.78h24.48v-13.78ZM220.48,241.9h24.48v-14.07h-24.48v14.07Z"/><circle cx="537.16" cy="406.55" r="38.19" style="stroke:#231815; stroke-linecap:round; stroke-miterlimit:10;"/><line x1="537.16" y1="465" x2="537.16" y2="399.72" style="stroke:#231815; stroke-linecap:round; stroke-miterlimit:10; stroke-width:10px;"/><path d="M435.5,507.74c0-1.58,0-3.55.05-5.23-1.3,1.54-2.78,2.98-4.32,4.32-.34.29-.58.43-.72.43-.19,0-.29-.19-.48-.58-.29-.62-.72-1.25-1.15-1.63,4.27-3.5,7.44-7.63,9.7-11.81.38-.72.72-1.63.91-2.35.91.43,1.63.86,2.4,1.39.34.19.48.38.48.62s-.19.43-.38.58c-.34.24-.72.67-1.15,1.44-.72,1.3-1.54,2.69-2.5,4.03v17.38c0,4.18.1,5.95.1,6.19,0,.34-.05.38-.34.38h-2.26c-.34,0-.38-.05-.38-.38,0-.24.05-2.02.05-6.19v-8.59ZM441.93,482.68c-.34.19-.77.53-1.2,1.1-2.02,2.74-4.9,6-8.59,8.88-.34.24-.53.38-.67.38-.19,0-.38-.19-.62-.62-.38-.62-.91-1.15-1.34-1.49,3.74-2.54,6.77-5.67,8.78-8.69.62-.91.96-1.54,1.15-2.16,1.01.48,1.73.91,2.45,1.39.34.24.48.38.48.67,0,.19-.14.38-.43.53ZM458.49,517.34c3.02.91,6.77,1.3,11.19,1.34,1.3,0,2.45,0,3.7-.1-.34.58-.58,1.3-.72,2.02q-.19.96-1.15,1.01c-1.44,0-2.83-.05-4.18-.14-10.99-.58-16.8-3.5-19.73-9.89-1.06,3.98-2.69,7.34-5.04,10.18-.29.34-.43.53-.58.53s-.34-.14-.62-.48c-.58-.62-1.1-1.01-1.68-1.3,4.42-4.94,6-10.61,6.67-17.91.1-1.2.14-2.06.05-3.02,1.1.1,1.82.19,2.69.38.53.1.72.24.72.48s-.14.43-.29.72c-.19.34-.24.77-.29,1.3-.24,2.02-.48,3.89-.82,5.67,1.39,3.84,3.74,6.43,7.2,8.06v-22.42h-4.42c-4.7,0-6.34.1-6.58.1-.34,0-.38-.05-.38-.38v-2.06c0-.34.05-.38.38-.38.24,0,1.87.1,6.58.1h7.68c1.58-2.79,2.74-5.33,3.6-7.54.29-.77.53-1.63.67-2.64,1.1.29,1.92.53,2.88.91.34.14.48.34.48.58,0,.29-.19.48-.38.67-.34.29-.67.91-.96,1.49-.91,1.97-2.02,4.18-3.36,6.53h2.64c4.7,0,6.29-.1,6.58-.1.34,0,.38.05.38.38v2.06c0,.34-.05.38-.38.38-.29,0-1.87-.1-6.58-.1h-5.95v9.36h5.9c3.02,0,3.84-.1,4.08-.1.34,0,.38.05.38.38v2.02c0,.34-.05.38-.38.38-.24,0-1.06-.1-4.08-.1h-5.9v11.62ZM449.66,481.29c.43-.24.53-.19.77.1,1.49,1.97,2.54,3.94,3.65,6.43.14.34.1.38-.34.62l-1.44.77c-.53.29-.67.34-.82-.05-.96-2.35-1.97-4.37-3.46-6.43-.24-.34-.29-.43.24-.72l1.39-.72Z"/><path d="M520.84,508.55c0,.34-.05.38-.34.38-.24,0-1.49-.05-4.7-.1v3.07c0,3.02.1,4.08.1,4.32,0,.34-.05.38-.38.38h-2.11c-.34,0-.38-.05-.38-.38v-1.49h-12.1c0,1.34.05,2.54.05,3.5,0,2.11-.34,2.98-1.34,3.65-1.06.67-2.78.86-6.48.86-.91,0-.91-.05-1.2-.91-.29-.77-.62-1.44-1.15-2.16,1.68.19,2.59.24,4.22.19,2.59,0,3.07-.38,3.07-2.3v-2.83h-8.26c-4.9,0-6.48.1-6.77.1-.34,0-.38-.05-.38-.38v-1.68c0-.34.05-.38.38-.38.29,0,1.87.1,6.77.1h8.26v-3.65h-13.2c-4.46,0-5.95.1-6.19.1-.34,0-.38-.05-.38-.38v-1.68c0-.34.05-.38.38-.38.24,0,1.73.1,6.19.1h13.2v-3.36h-8.26c-4.85,0-6.48.1-6.77.1-.34,0-.38-.05-.38-.34v-1.73c0-.34.05-.38.38-.38.29,0,1.92.1,6.77.1h8.26v-3.26h-6.34c-4.8,0-6.53.1-6.77.1-.34,0-.38-.05-.38-.43,0-.24.1-.77.1-2.64v-2.02c0-1.82-.1-2.35-.1-2.64,0-.34.05-.38.38-.38.24,0,1.97.1,6.77.1h6.34v-2.98h-12.87c-4.51,0-6.05.1-6.29.1-.34,0-.38-.05-.38-.38v-1.78c0-.34.05-.38.38-.38.24,0,1.78.1,6.29.1h12.87c0-2.5-.05-3.79-.34-4.99,1.2,0,2.11.1,3.12.24.34.05.58.19.58.38,0,.38-.14.58-.29.91-.19.48-.24,1.25-.24,3.36v.1h12.87c4.51,0,6-.1,6.29-.1.34,0,.38.05.38.38v1.78c0,.34-.05.38-.38.38-.29,0-1.78-.1-6.29-.1h-12.87v2.98h6.53c4.85,0,6.53-.1,6.82-.1.34,0,.38.05.38.38,0,.29-.1.82-.1,2.64v2.02c0,1.87.1,2.4.1,2.64,0,.38-.05.43-.38.43-.29,0-1.97-.1-6.82-.1h-6.53v3.26h7.73c4.9,0,6.62-.1,6.86-.1.34,0,.38.05.38.38,0,.24-.1,1.25-.1,4.27v1.06c3.22,0,4.46-.1,4.7-.1.29,0,.34.05.34.38v1.68ZM498.09,491.9h-10.75v3.7h10.75v-3.7ZM511.91,491.9h-10.99v3.7h10.99v-3.7ZM513.02,503.23h-12.1v3.36h12.1v-3.36ZM513.02,508.84h-12.1v3.65h12.1v-3.65Z"/><path d="M544.98,490.99c0,2.98.1,4.18.1,4.42,0,.34-.05.38-.38.38-.24,0-1.44-.1-4.8-.1h-8.69v16.75c0,6.86.1,9.7.1,9.98,0,.34-.05.38-.38.38h-2.26c-.34,0-.38-.05-.38-.38,0-.29.1-3.12.1-9.98v-20.79c0-6.86-.1-9.79-.1-10.08,0-.34.05-.38.38-.38.29,0,1.87.1,5.42.1h5.81c3.36,0,4.56-.1,4.8-.1.34,0,.38.05.38.38,0,.29-.1,1.49-.1,4.42v4.99ZM542.25,483.64h-11.04v3.65h11.04v-3.65ZM542.25,489.59h-11.04v3.79h11.04v-3.79ZM560.92,510.09c0,.34-.05.38-.38.38-.24,0-1.82-.1-6.53-.1h-.67v5.14c0,3.55.1,4.99.1,5.28,0,.34-.05.38-.38.38h-2.11c-.34,0-.38-.05-.38-.38,0-.29.1-1.73.1-5.28v-5.14h-6.82c-.34,2.5-.67,3.74-1.44,5.47-.91,2.02-2.35,3.89-4.27,5.42-.29.24-.48.38-.62.38-.19,0-.38-.19-.77-.58-.53-.53-1.1-.91-1.68-1.15,2.06-1.2,3.74-2.83,4.8-4.99.72-1.44,1.15-2.98,1.25-4.56h-.29c-4.7,0-6.24.1-6.53.1-.34,0-.38-.05-.38-.38v-1.78c0-.34.05-.38.38-.38.29,0,1.82.1,6.53.1h.48c.05-1.49.14-3.36.14-5.71-3.84,0-5.23.1-5.38.1-.38,0-.43-.05-.43-.38v-1.78c0-.34.05-.38.43-.38.19,0,1.68.1,6.19.1h10.66c4.51,0,6-.1,6.24-.1.29,0,.34.05.34.38v1.78c0,.34-.05.38-.34.38-.24,0-1.68-.1-5.81-.1v5.71h.67c4.7,0,6.29-.1,6.53-.1.34,0,.38.05.38.38v1.78ZM550.65,502.31h-6.48c0,2.26-.05,4.13-.14,5.71h6.62v-5.71ZM566.83,510.62c0,2.64.14,5.14.14,6.96,0,2.11-.34,2.93-1.25,3.65-.91.77-1.97.96-5.81.96-.91,0-.86,0-1.1-.91-.24-.91-.48-1.49-.86-2.11,1.25.14,2.35.19,3.5.19,2.11,0,2.54-.38,2.54-2.3v-21.36h-8.78c-3.74,0-4.94.1-5.18.1-.38,0-.43-.05-.43-.38,0-.24.1-1.15.1-4.13v-5.57c0-2.93-.1-3.84-.1-4.13,0-.34.05-.38.43-.38.24,0,1.44.1,5.18.1h6.14c3.7,0,4.94-.1,5.18-.1.34,0,.38.05.38.38,0,.29-.1,2.21-.1,6.87v22.18ZM563.99,483.64h-11.57v3.65h11.57v-3.65ZM563.99,489.59h-11.57v3.79h11.57v-3.79Z"/><path d="M585.11,490.27c3.55,0,4.61-.1,4.85-.1.34,0,.53.19.48.53-.24,1.2-.34,2.4-.43,3.07-.67,6.34-1.68,11.33-3.6,15.55,1.58,1.3,3.22,2.69,4.99,4.37.29.24.19.48-.14.86l-.82,1.1c-.38.53-.58.58-.86.29-1.54-1.63-2.98-3.02-4.42-4.22-1.97,3.46-4.66,6.43-8.4,9.41-.24.19-.43.34-.58.34-.19,0-.38-.19-.72-.67-.38-.53-.86-1.01-1.39-1.3,3.79-2.64,6.72-5.67,8.83-9.55-1.39-1.01-2.83-1.92-4.42-2.88l-.72,2.06c-.1.34-.19.48-.82.29l-1.2-.38c-.77-.19-.77-.24-.62-.67,2.02-5.23,3.46-10.51,4.51-15.51-3.46,0-4.51.1-4.8.1s-.34-.05-.34-.38v-2.02c0-.34.05-.38.34-.38s1.34.1,4.85.1h.48c.38-2.21.72-4.37,1.01-6.38.14-.91.24-2.35.1-3.74,1.01.05,2.21.19,3.12.38.34.1.58.24.58.48,0,.19-.14.43-.34.72-.29.43-.38,1.01-.58,2.06-.38,2.21-.72,4.37-1.15,6.48h2.21ZM582.38,492.86c-.82,4.03-1.82,7.92-3.07,11.76,1.68.96,3.26,1.97,4.75,3.02,1.78-3.98,2.83-8.74,3.36-14.79h-5.04ZM609.02,488.58c.43-.19.48-.19.72.05,3.22,3.94,5.14,7.2,7.3,11.67.19.34.14.38-.48.72l-1.2.62c-.67.34-.77.34-.91,0-.58-1.3-1.15-2.54-1.78-3.74-5.57.86-11.95,1.63-18.15,2.26-1.39.14-1.63.29-1.82.43-.19.14-.38.29-.67.29-.14,0-.38-.19-.48-.58-.24-.77-.48-1.97-.62-2.93,1.63.1,3.12.1,4.42,0,2.11-4.85,3.55-8.88,4.99-13.35.43-1.25.67-2.54.72-3.41,1.15.19,2.02.43,2.83.72.58.24.72.38.72.67s-.19.53-.43.77c-.29.29-.72,1.25-.96,1.92-1.58,4.51-3.02,8.35-4.9,12.43,4.51-.43,8.93-.96,13.06-1.58-1.1-1.82-2.35-3.7-3.89-5.67-.24-.34-.19-.38.38-.72l1.15-.58ZM613.87,513.93c0,6.82.1,7.92.1,8.21s-.05.34-.43.34h-2.16c-.34,0-.38-.05-.38-.34v-2.21h-13.83v2.4c0,.34-.05.38-.38.38h-2.16c-.34,0-.38-.05-.38-.38,0-.24.1-1.34.1-8.21v-3.79c0-3.79-.1-4.99-.1-5.28,0-.34.05-.38.38-.38.29,0,1.63.1,5.71.1h7.54c4.08,0,5.42-.1,5.66-.1.38,0,.43.05.43.38,0,.24-.1,1.49-.1,4.66v4.22ZM610.99,507.35h-13.83v10.08h13.83v-10.08Z"/><path d="M657.64,504.57c0,13.73.1,16.13.1,16.37,0,.34-.05.38-.38.38h-2.3c-.34,0-.38-.05-.38-.38v-2.93h-22.23v3.02c0,.34-.05.38-.34.38h-2.35c-.34,0-.38-.05-.38-.38,0-.29.1-2.69.1-16.47v-9.26c0-9.31-.1-11.81-.1-12.1,0-.34.05-.38.38-.38.29,0,1.92.1,6.67.1h14.26c4.75,0,6.38-.1,6.67-.1.34,0,.38.05.38.38,0,.29-.1,2.78-.1,10.9v10.46ZM654.67,485.66h-22.23v13.01h22.23v-13.01ZM654.67,501.35h-22.23v13.92h22.23v-13.92Z"/><line x1="498.97" y1="406.55" x2="368.07" y2="485.73" style="fill:none;"/><line x1="498.97" y1="420.43" x2="399.29" y2="467.95" style="fill:none; stroke:#231815; stroke-linecap:round; stroke-miterlimit:10; stroke-width:2px;"/><line x1="145.15" y1="420.43" x2="202.79" y2="465" style="fill:none; stroke:#231815; stroke-linecap:round; stroke-miterlimit:10; stroke-width:2px;"/><path d="M205.91,468.14c1.01-6.1,5.04-9.31,10.42-9.31,5.71,0,9.75,3.36,9.75,9.07,0,3.84-1.44,6.72-7.25,11.81-5.18,4.56-7.63,7.68-9.22,11.18h16.51v3.31h-20.5v-2.98c1.97-4.66,5.04-8.78,10.27-13.63,4.94-4.61,6.05-6.62,6.05-9.7,0-3.55-2.3-5.76-5.66-5.76s-5.81,2.3-6.43,6.91l-3.94-.91Z"/><path d="M286.22,486.77c0,.34-.05.38-.38.38-.24,0-1.78-.1-6.29-.1h-10.8v3.22c0,5.33.1,7.68.1,7.92,0,.34-.05.34-.34.34h-2.4c-.38,0-.43,0-.43-.34,0-.29.1-2.59.1-7.92v-3.22h-14.59c-4.51,0-6.05.1-6.29.1-.34,0-.38-.05-.38-.38v-2.16c0-.34.05-.38.38-.38.24,0,1.78.1,6.29.1h1.44v-7.06c0-2.78-.1-3.89-.1-4.18,0-.34.05-.38.38-.38.24,0,1.92.1,6.72.1h6.14v-7.92h-10.94c-1.68,2.54-3.65,4.99-6.1,7.44-.29.34-.48.53-.62.53s-.34-.19-.67-.58c-.48-.58-1.06-1.01-1.63-1.3,4.56-4.13,7.44-8.3,9.41-12.63.53-1.2.86-2.21,1.01-3.17,1.2.29,2.16.62,2.98.91.34.14.48.34.48.62s-.14.43-.43.67c-.38.29-.72.72-1.2,1.73-.53,1.06-1.06,2.11-1.63,3.12h20.21c4.8,0,6.43-.1,6.67-.1.34,0,.38.05.38.38v2.06c0,.34-.05.38-.38.38-.24,0-1.87-.1-6.67-.1h-7.87v7.92h5.81c4.8,0,6.38-.1,6.67-.1s.34.05.34.38v2.06c0,.34-.05.38-.34.38s-1.87-.1-6.67-.1h-5.81v8.88h10.8c4.51,0,6.05-.1,6.29-.1.34,0,.38.05.38.38v2.16ZM265.77,475.44h-10.22v8.88h10.22v-8.88Z"/><path d="M301.24,485.23c4.13-1.58,8.54-3.55,13.06-5.9-.1.62-.1,1.34,0,2.02.14,1.01.1.96-.77,1.44-5.62,2.93-11.04,5.33-17.57,7.68-1.01.38-1.44.58-1.68.82-.19.19-.38.29-.58.29s-.38-.14-.53-.48c-.38-.86-.77-1.97-1.06-2.98,1.44-.29,2.69-.62,3.89-1.01.77-.24,1.54-.53,2.3-.82l-.24-21.07c-.05-3.26-.05-5.04-.38-6.58,1.15.05,2.35.14,3.26.29.38.05.62.24.62.43,0,.34-.14.58-.29.91-.24.53-.34,1.78-.29,4.9l.24,20.07ZM333.59,496.56c-.24.38-.38.58-.53.58s-.34-.14-.62-.43c-3.65-3.46-6.58-6.96-9.84-11.76-3.5,5.09-7.68,8.74-16.71,12.96-.34.14-.53.24-.72.24-.24,0-.38-.19-.67-.72-.43-.72-.86-1.15-1.58-1.68,9.7-3.98,14.26-7.82,17.76-13.1,3.02-4.51,4.9-10.66,5.52-17.86.24-2.93.29-4.94.05-6.62,1.3.1,2.45.24,3.31.38.38.1.62.24.62.53,0,.38-.19.62-.34,1.01-.19.48-.43,2.3-.62,4.61-.62,6.86-2.4,13.06-4.94,17.57,3.5,5.52,7.06,9.22,10.99,12.29-.58.53-1.2,1.25-1.68,2.02ZM309.83,462.28c.38-.29.53-.29.77-.05,2.88,2.64,5.04,5.33,7.39,8.83.19.29.1.43-.34.72l-1.34.96c-.29.19-.48.29-.62.29s-.19-.1-.34-.29c-2.3-3.65-4.18-6.1-7.1-8.88-.24-.24-.19-.34.29-.67l1.3-.91Z"/><path d="M379.86,485.47c0,3.84.1,6.14.1,7.68,0,1.44-.34,2.45-1.25,3.17-.77.62-2.11.91-6.14.91-.91,0-.96,0-1.2-.96-.19-.86-.53-1.68-.96-2.26,1.54.14,3.41.24,4.37.24,1.68-.05,2.16-.43,2.16-1.82v-25.54h-14.4c2.54,8.3,6.67,12.96,13.68,16.9-.67.48-1.25,1.01-1.68,1.68-.29.43-.43.62-.62.62s-.38-.14-.72-.38c-5.57-3.7-9.36-8.11-11.71-14.98-.24.91-.53,1.82-.86,2.59-1.87,4.66-4.51,8.69-10.85,12.62-.34.24-.53.38-.67.38-.19,0-.34-.19-.62-.58-.53-.72-1.01-1.2-1.63-1.63,6.48-3.46,9.31-7.39,11.09-11.67.67-1.58,1.1-3.5,1.39-5.57h-13.06v23.28c0,4.8.1,6.82.1,7.06,0,.34-.05.38-.38.38h-2.35c-.34,0-.38-.05-.38-.38,0-.24.1-2.21.1-7.3v-18.05c0-5.09-.1-7.15-.1-7.39,0-.34.05-.38.38-.38.29,0,1.92.1,6.72.1h9.26c.1-1.49.14-2.98.14-4.46,0-1.58-.05-3.36-.29-4.75,1.06.05,2.16.14,3.22.29.38.05.53.24.53.48,0,.29-.14.58-.24.91-.14.48-.24,1.44-.29,3.6,0,1.15-.05,2.54-.19,3.94h10.37c4.8,0,6.48-.1,6.72-.1.34,0,.38.05.38.38,0,.24-.1,2.5-.1,7.58v13.39Z"/></svg>