<?xml version="1.0" encoding="UTF-8"?><svg id="_レイヤー_1" xmlns="http://www.w3.org/2000/svg" viewBox="0 0 1277.8 539.89"><path d="M34.73,25.82c0-1.82.05-4.51.1-6.86-1.25,1.87-2.69,3.79-4.29,5.62-.25.29-.4.43-.55.43-.2,0-.3-.19-.5-.53-.4-.82-.85-1.44-1.3-1.82,4.89-5.38,7.98-10.7,10.17-16.99.4-1.2.65-2.3.7-3.22,1.2.29,2.14.58,3.09,1.01.35.14.55.29.55.53,0,.29-.1.43-.4.67-.3.24-.6.72-1.05,1.82-1.05,2.64-2.19,5.23-3.59,7.82v23.62c0,5.04.1,7.2.1,7.44,0,.34-.05.38-.4.38h-2.39c-.3,0-.35-.05-.35-.38,0-.24.1-2.4.1-7.44v-12.1ZM59.71,27.69c3.69,5.28,7.88,8.59,14.66,11.57-.55.58-1,1.25-1.35,2.02-.2.48-.3.62-.5.62-.15,0-.4-.1-.75-.29-5.98-3.12-10.32-7.06-13.61-12.62,0,7.44.25,14.26.25,16.18,0,.34-.05.38-.4.38h-2.29c-.35,0-.4-.05-.4-.38,0-1.92.2-8.69.25-16.08-2.99,5.38-6.98,9.27-13.36,12.63-.35.19-.55.29-.75.29s-.4-.19-.7-.67c-.4-.62-.95-1.15-1.5-1.58,6.53-2.83,11.22-6.86,14.51-12.05h-5.48c-5.08,0-6.78.1-7.08.1-.35,0-.4-.05-.4-.38v-1.97c0-.34.05-.38.4-.38.3,0,1.99.1,7.08.1h7.13v-5.57h-3.14c-4.49,0-6.03.1-6.28.1-.35,0-.4-.05-.4-.38,0-.29.1-1.3.1-4.18v-5.33c0-2.88-.1-3.89-.1-4.13,0-.34.05-.38.4-.38.25,0,1.79.1,6.28.1h9.72c4.49,0,5.98-.1,6.23-.1.35,0,.4.05.4.38,0,.24-.1,1.25-.1,4.13v5.33c0,2.88.1,3.94.1,4.18,0,.34-.05.38-.4.38-.25,0-1.74-.1-6.23-.1h-3.69v5.57h7.68c5.08,0,6.78-.1,7.03-.1.35,0,.4.05.4.38v1.97c0,.34-.05.38-.4.38-.25,0-1.94-.1-7.03-.1h-6.28ZM65.54,7.92h-16.9v9.22h16.9V7.92Z"/><path d="M122.82,23.28c0,.34-.05.38-.4.38-.3,0-1.84-.1-6.58-.1h-3.99c-1.6,4.85-3.69,8.64-6.43,11.57,4.89,2.06,9.52,4.42,14.16,6.91.3.19.4.34,0,.86l-1.15,1.63c-.15.24-.3.38-.45.38s-.3-.1-.55-.24c-4.39-2.69-9.17-5.23-14.26-7.39-4.94,4.08-11.52,6.24-20.39,7.49-.95.1-1,.05-1.4-.77-.35-.77-.8-1.39-1.3-1.87,9.12-.96,15.4-2.88,19.94-6.1-3.19-1.25-6.43-2.35-9.82-3.22-.45.62-.95,1.34-1.4,1.87-.25.29-.45.43-1,.29l-1.5-.53c-.8-.29-.8-.43-.5-.77.8-.91,1.69-2.11,2.44-3.12,1.55-2.21,2.99-4.56,4.34-7.01h-5.68c-4.74,0-6.33.1-6.58.1-.35,0-.4-.05-.4-.38v-2.02c0-.34.05-.38.4-.38.25,0,1.84.1,6.58.1h7.08c.75-1.44,1.45-2.88,2.09-4.37.45-.91,1.05-2.45,1.25-3.79,1.3.29,2.29.58,3.29.91.3.1.5.29.5.48,0,.29-.2.53-.55.77-.35.24-.75.86-1.2,1.82-.65,1.44-1.35,2.83-2.04,4.18h18.49c4.74,0,6.28-.1,6.58-.1.35,0,.4.05.4.38v2.02ZM120.88,12.48c0,4.22.1,4.8.1,5.09,0,.34-.05.38-.4.38h-2.29c-.35,0-.4-.05-.4-.38v-6.86h-33.75v6.86c0,.34-.05.38-.4.38h-2.29c-.35,0-.4-.05-.4-.38,0-.29.1-.86.1-5.09v-1.54c0-1.58-.1-2.3-.1-2.54,0-.34.05-.38.4-.38.3,0,2.04.1,6.98.1h10.72v-.72c0-2.45-.1-3.74-.4-4.9,1.25.05,2.34.14,3.34.24.4.05.6.19.6.38,0,.34-.15.58-.3.91-.15.43-.25,1.2-.25,3.36v.72h11.52c4.94,0,6.63-.1,6.93-.1.35,0,.4.05.4.38,0,.24-.1.96-.1,2.26v1.82ZM96,23.57c-1.3,2.35-2.69,4.7-4.24,7.06,3.74.91,7.33,2.06,10.72,3.36,2.74-2.69,4.69-6.14,6.18-10.42h-12.66Z"/><path d="M144.46,13.68c0,.34-.05.38-.35.38s-1.35-.1-4.98-.1h-4.99c-3.64,0-4.84.1-5.03.1-.3,0-.35-.05-.35-.38v-2.02c0-.34.05-.38.35-.38.2,0,1.4.1,5.03.1h4.99c3.64,0,4.69-.1,4.98-.1s.35.05.35.38v2.02ZM143.47,7.15c0,.34-.05.38-.4.38-.2,0-1.1-.1-4.14-.1h-3.74c-3.04,0-3.94.1-4.24.1-.35,0-.4-.05-.4-.38v-1.92c0-.34.05-.38.4-.38.3,0,1.2.1,4.24.1h3.74c3.04,0,3.94-.1,4.14-.1.35,0,.4.05.4.38v1.92ZM142.87,37.54c0,5.52.05,6.62.05,6.86,0,.34-.05.38-.35.38h-1.94c-.3,0-.35-.05-.35-.38v-1.58h-6.83v2.4c0,.34-.05.38-.4.38h-1.94c-.4,0-.45-.05-.45-.38,0-.24.1-1.06.1-6.91v-2.88c0-2.88-.1-3.98-.1-4.27,0-.34.05-.34.45-.34.25,0,1.2.1,4.14.1h3.14c3.04,0,3.94-.1,4.19-.1.3,0,.35,0,.35.34,0,.29-.05,1.3-.05,3.46v2.93ZM142.47,20.06c0,.34-.05.38-.4.38-.25,0-1.05-.1-3.94-.1h-2.69c-2.84,0-3.74.1-3.94.1-.35,0-.4-.05-.4-.38v-1.87c0-.34.05-.38.4-.38.2,0,1.1.1,3.94.1h2.69c2.89,0,3.69-.1,3.94-.1.35,0,.4.05.4.38v1.87ZM142.47,26.5c0,.34-.05.38-.4.38-.25,0-1.05-.1-3.94-.1h-2.69c-2.84,0-3.74.1-3.94.1-.35,0-.4-.05-.4-.38v-1.87c0-.34.05-.38.4-.38.2,0,1.1.1,3.94.1h2.69c2.89,0,3.69-.1,3.94-.1.35,0,.4.05.4.38v1.87ZM140.28,33.26h-6.83v7.2h6.83v-7.2ZM173.53,36.43c0,.34-.05.38-.4.38-.2,0-1.15-.05-3.44-.1,0,1.78.05,3.46.05,4.46,0,1.78-.3,2.54-1.05,3.12-.7.62-1.84.86-5.43.86-1,0-1-.1-1.2-.82-.2-.67-.55-1.39-.9-1.87,1.25.14,2.34.19,3.84.19,1.65,0,1.99-.48,1.99-1.78v-4.18h-16.7v3.17c0,3.6.1,5.09.1,5.33,0,.34-.05.38-.4.38h-2.14c-.3,0-.35-.05-.35-.38,0-.29.1-1.54.1-5.23v-3.22c-2.04,0-2.89.05-3.04.05-.35,0-.4-.05-.4-.38v-1.44c0-.34.05-.38.4-.38.15,0,1,.05,3.04.1v-5.38c0-3.7-.1-5.04-.1-5.28,0-.34.05-.38.35-.38s1.79.1,6.23.1h2.99v-3.46h-5.18c-4.94,0-6.58.1-6.83.1-.35,0-.4-.05-.4-.38v-1.49c0-.34.05-.38.4-.38.25,0,1.89.1,6.83.1h.65v-3.6c-3.44.05-4.69.1-4.89.1-.35,0-.4-.05-.4-.38v-1.44c0-.34.05-.38.4-.38.2,0,1.45.1,4.89.1v-3.26c-4.34,0-5.83.1-6.08.1-.35,0-.4-.05-.4-.38v-1.44c0-.34.05-.38.4-.38.25,0,1.74.1,6.08.1v-.58c0-2.21-.05-3.36-.35-4.27,1.1.05,2.04.14,2.89.29.35.05.6.24.6.38,0,.19-.1.43-.25.67-.25.34-.3,1.1-.3,2.98v.53h6.63v-.58c0-2.21-.05-3.36-.35-4.27,1.15.05,2.04.14,2.89.29.35.05.6.24.6.38,0,.19-.1.43-.25.67-.25.34-.3,1.1-.3,2.98v.53h.5c4.74,0,6.23-.1,6.53-.1.35,0,.4.05.4.38v1.44c0,.34-.05.38-.4.38-.3,0-1.79-.1-6.53-.1h-.5v3.26c4.09,0,5.48-.1,5.78-.1.35,0,.4.05.4.38v1.44c0,.34-.05.38-.4.38-.3,0-1.69-.1-5.78-.1v3.6h1.5c4.94,0,6.58-.1,6.83-.1.35,0,.4.05.4.38v1.49c0,.34-.05.38-.4.38-.25,0-1.89-.1-6.83-.1h-6.23v3.46h3.54c4.44,0,5.93-.1,6.23-.1.35,0,.4.05.4.38,0,.24-.1,1.87-.1,5.57v5.09c2.29,0,3.24-.1,3.44-.1.35,0,.4.05.4.38v1.44ZM157.07,25.82h-6.78v3.41h6.78v-3.41ZM157.07,31.06h-6.78v3.65h6.78v-3.65ZM161.76,9.36h-6.63v3.26h6.63v-3.26ZM161.76,14.64h-6.63v3.6h6.63v-3.6ZM167,25.82h-7.38v3.41h7.38v-3.41ZM167,31.06h-7.38v3.65h7.38v-3.65Z"/><path d="M192.42,16.94c-2.84,1.39-5.98,2.83-8.97,4.13-1,.43-1.35.77-1.65,1.06-.2.19-.4.29-.6.29s-.4-.1-.55-.38c-.45-.82-.85-1.78-1.2-2.69,1.35-.24,2.44-.58,3.49-.96,2.84-1.06,6.43-2.59,10.32-4.66-.05.48-.05,1.15,0,1.82q.05.96-.85,1.39ZM198.85,13.77c0,2.02.1,3.98.1,5.14,0,1.54-.25,2.4-1.1,2.98-.75.58-1.79.86-5.48.86q-.9,0-1.15-.96c-.2-.72-.55-1.34-.9-1.82,1.45.14,2.14.14,3.39.14,1.94,0,2.24-.48,2.24-1.73V6.67h-10.37c-4.09,0-5.33.1-5.63.1-.35,0-.4-.05-.4-.43v-1.87c0-.34.05-.38.4-.38.3,0,1.55.1,5.63.1h7.28c4.14,0,5.43-.1,5.68-.1.35,0,.4.05.4.38,0,.24-.1,1.1-.1,3.46v5.86ZM183.2,8.49c.2-.24.4-.29.7-.19,1.89.77,3.84,1.87,5.73,3.26.3.24.35.29-.05.77l-.85,1.01c-.45.53-.55.58-.9.29-1.65-1.39-3.74-2.59-5.63-3.46-.3-.14-.25-.24.15-.67l.85-1.01ZM215.65,36.53c0,7.25.1,8.45.1,8.69,0,.34-.05.38-.4.38h-2.29c-.35,0-.4-.05-.4-.38v-1.58h-23.33v1.78c0,.34-.05.38-.4.38h-2.29c-.35,0-.4-.05-.4-.38,0-.29.1-1.44.1-8.79v-4.27c0-4.37-.1-5.57-.1-5.81,0-.34.05-.38.4-.38.3,0,1.99.1,6.98.1h3.99l.7-1.54c.4-.96.6-1.68.8-2.78,1.05.14,2.24.38,3.09.67.35.14.5.29.5.48,0,.29-.15.48-.4.67-.3.19-.55.53-.75.91l-.85,1.58h7.63c4.99,0,6.73-.1,7.03-.1.35,0,.4.05.4.38,0,.24-.1,1.44-.1,5.18v4.8ZM212.66,28.66h-23.33v4.85h23.33v-4.85ZM212.66,35.81h-23.33v5.42h23.33v-5.42ZM220.49,13.77c0,2.02.1,3.98.1,5.14,0,1.54-.25,2.3-1.1,2.98-.8.58-1.94.82-5.53.86q-.9,0-1.15-.86c-.2-.77-.55-1.34-.9-1.92,1.3.1,2.39.14,3.34.14,1.99,0,2.34-.48,2.34-1.73V6.67h-10.27c-4.14,0-5.33.1-5.63.1-.35,0-.4-.05-.4-.43v-1.87c0-.34.05-.38.4-.38.3,0,1.5.1,5.63.1h7.13c4.09,0,5.48-.1,5.73-.1.35,0,.4.05.4.38,0,.24-.1,1.1-.1,3.46v5.86ZM214.11,16.51c-3.04,1.44-5.23,2.4-8.13,3.65-1.05.48-1.5.62-1.84.96-.2.19-.45.38-.7.38-.2,0-.4-.29-.55-.53-.4-.77-.75-1.49-1.1-2.5,1.05-.14,2.34-.48,3.79-1.01,2.54-.91,5.38-2.16,9.37-4.18-.05.43-.05,1.2,0,1.82q.1.96-.85,1.39ZM204.39,8.54c.35-.34.5-.29.8-.19,1.94.86,3.84,2.02,5.58,3.36.3.24.3.29-.05.72l-.9,1.1c-.4.53-.55.53-.85.29-1.69-1.54-3.49-2.64-5.53-3.65-.35-.14-.35-.19.1-.72l.85-.91Z"/><path d="M254.99,35.28c0,.38-.1.53-.55.58-.5.1-1.5.19-2.14.19-.3,0-.45-.24-.45-.58,0-2.11,0-4.46.05-6.91-5.48,2.64-8.18,5.09-8.18,7.97s2.74,3.98,8.52,3.98c4.14,0,8.23-.48,11.86-.96.25-.05.45,0,.55.34.15.72.3,1.68.3,2.35,0,.43-.2.62-.4.67-3.54.43-7.63.67-12.31.67-6.98,0-11.52-1.73-11.52-6.86,0-4.03,2.74-7.3,11.02-11.19-.1-3.26-1.25-4.56-4.19-4.51-2.14.05-4.98,1.25-8.18,3.89-1.79,1.63-2.99,2.88-4.74,4.66-.3.34-.5.34-.75.1-.5-.43-1.35-1.34-1.74-1.87-.15-.29-.2-.38.1-.67,4.54-3.79,8.67-8.45,11.57-13.35-3.09.19-6.13.19-9.27.1-.4,0-.5-.14-.55-.48-.1-.58-.25-1.63-.3-2.4,3.64.19,7.53.19,11.57-.05.6-1.44,1.3-3.02,1.79-4.8.25-.82.45-1.54.4-2.59,1.45.24,2.89.67,3.74,1.06.5.24.5.72.1,1.06-.2.19-.5.53-.9,1.34-.6,1.2-1.05,2.21-1.69,3.65,3.49-.34,7.08-.86,10.52-1.58.4-.1.5-.1.6.19.1.67.25,1.34.3,2.11,0,.34-.1.48-.65.58-3.94.67-8.18,1.2-12.16,1.58-1.69,2.93-3.29,5.18-5.08,7.15l.05.1c2.09-1.44,4.29-2.06,6.23-2.06,3.69,0,5.88,1.87,6.28,5.62,2.44-1.06,5.28-2.3,7.78-3.46,1.45-.67,2.74-1.44,3.79-2.45,1.15.96,2.14,2.21,2.44,2.78.4.72,0,1.01-.5,1.1-.6.1-1.6.34-2.74.77-3.79,1.54-6.93,2.64-10.57,4.13v8.06Z"/><path d="M309.14,23.9c.75,0,1.2-.1,1.35-.14.25-.1.45-.19.65-.19.45,0,.9.29,2.34,1.68,1.25,1.15,1.45,1.63,1.45,2.02,0,.34-.2.53-.6.77-.35.24-.95.67-1.65,1.63-2.19,2.88-4.59,5.28-7.33,7.3,4.64,2.02,10.42,3.22,17.85,3.94-.75,1.06-1.4,2.35-1.89,3.6-.4,1.06-.5,1.34-1.15,1.34-.2,0-.55-.05-.95-.1-7.78-1.15-13.76-3.02-18.59-5.81-5.08,2.64-11.07,4.42-18.2,5.66-.5.1-.75.1-1.05.1-.55,0-.7-.29-1.1-1.25-.55-1.3-1.35-2.59-1.99-3.41,7.08-.82,13.01-2.26,17.85-4.37-2.64-2.3-4.79-5.04-6.68-8.35-1.84,0-2.99.05-3.19.05-.5,0-.55-.05-.55-.53v-3.5c0-.48.05-.53.55-.53.3,0,1.94.1,6.78.1h16.1ZM289.49,10.27c.6-.24.8-.14,1.05.29.95,1.54,1.94,3.41,2.69,5.23h5.53c-.45-1.54-1.05-3.12-1.69-4.46-.2-.43-.1-.62.5-.82l3.04-.91c.55-.14.75-.19,1,.29.85,1.73,1.65,3.98,2.09,5.9h3.34c1.2-1.68,2.09-3.36,2.89-4.9.35-.77.55-1.39.75-2.35,1.69.48,3.09.96,4.34,1.44.5.19.75.38.75.72,0,.29-.25.53-.55.82-.4.38-.7.77-1.1,1.49-.5.91-1,1.82-1.6,2.78h2.14c4.59,0,6.23-.1,6.53-.1.5,0,.55.05.55.53,0,.29-.1,1.1-.1,2.4v2.78c0,3.07.1,4.18.1,4.46,0,.48-.05.53-.55.53h-4.04c-.5,0-.55-.05-.55-.53v-5.57h-32.3v5.57c0,.48-.05.53-.55.53h-3.99c-.5,0-.55-.05-.55-.53,0-.29.1-1.39.1-4.51v-2.4c0-1.63-.1-2.4-.1-2.74,0-.48.05-.53.55-.53.3,0,1.94.1,6.53.1h1.79c-.55-1.3-1.25-2.64-1.89-3.65-.3-.43-.3-.53.4-.77l2.89-1.1ZM318.16,5.28c.35.38.55.67.55,1.01,0,.29-.25.48-.8.48-.65,0-1.45.05-2.39.19-4.89.67-8.72,1.2-14.76,1.73-5.28.48-11.32.86-17.1,1.06q-1.1.05-1.6-1.44c-.45-1.1-.95-2.21-1.55-3.02,6.33-.05,12.86-.38,18.69-.86,4.98-.43,8.37-.86,11.17-1.34,1.74-.34,2.99-.67,4.19-1.06,1.45.96,2.54,2.16,3.59,3.26ZM294.83,28.27c1.6,2.45,3.54,4.42,5.83,6.05,2.79-1.73,5.04-3.74,6.83-6.05h-12.66Z"/><path d="M338.05,10.51c3.79,0,5.03-.1,5.28-.1.5,0,.55.05.55.53v3.41c0,.53-.05.58-.55.58-.25,0-1.5-.1-5.28-.1h-4.59c-3.79,0-5.03.1-5.28.1-.5,0-.55-.05-.55-.58v-3.41c0-.48.05-.53.55-.53.25,0,1.5.1,5.28.1h4.59ZM342.59,37.78c0,5.57.1,6.62.1,6.91,0,.48-.05.53-.55.53h-3.39c-.5,0-.55-.05-.55-.53v-1.34h-4.39v2.21c0,.48-.05.53-.55.53h-3.34c-.55,0-.6-.05-.6-.53,0-.29.1-1.39.1-7.2v-3.07c0-3.02-.1-4.18-.1-4.51,0-.48.05-.53.6-.53.3,0,1.35.1,4.54.1h3.09c3.19,0,4.24-.1,4.59-.1.5,0,.55.05.55.53,0,.29-.1,1.44-.1,3.7v3.31ZM337.8,3.93c3.19,0,4.19-.1,4.49-.1.55,0,.6.05.6.53v3.17c0,.48-.05.53-.6.53-.3,0-1.3-.1-4.49-.1h-3.34c-3.24,0-4.24.1-4.54.1-.5,0-.55-.05-.55-.53v-3.17c0-.48.05-.53.55-.53.3,0,1.3.1,4.54.1h3.34ZM337.36,17.33c2.99,0,3.89-.1,4.19-.1.55,0,.6.05.6.53v3.12c0,.48-.05.53-.6.53-.3,0-1.2-.1-4.19-.1h-2.69c-3.04,0-3.94.1-4.24.1-.5,0-.55-.05-.55-.53v-3.12c0-.48.05-.53.55-.53.3,0,1.2.1,4.24.1h2.69ZM337.36,23.81c2.99,0,3.89-.1,4.19-.1.55,0,.6.05.6.53v3.07c0,.48-.05.53-.6.53-.3,0-1.2-.1-4.19-.1h-2.69c-3.04,0-3.94.1-4.24.1-.5,0-.55-.05-.55-.53v-3.07c0-.48.05-.53.55-.53.3,0,1.2.1,4.24.1h2.69ZM333.82,34.32v5.04h4.39v-5.04h-4.39ZM373.45,37.54c0,.53-.05.58-.55.58-.15,0-1-.05-2.74-.05.05,1.06.1,2.06.1,2.88,0,2.02-.25,2.88-1.15,3.7-.9.82-2.09.96-5.88,1.01q-1.5,0-1.84-1.49c-.25-1.01-.7-2.11-1.1-2.78,1.4.1,2.59.14,3.79.14,1.35,0,1.65-.34,1.65-1.3v-2.21h-14.81v2.16c0,3.41.1,5.04.1,5.33,0,.43-.05.48-.55.48h-3.49c-.5,0-.55-.05-.55-.48,0-.34.1-1.78.1-5.18v-2.26c-1.45,0-2.09.05-2.24.05-.5,0-.55-.05-.55-.58v-2.64c0-.48.05-.53.55-.53.15,0,.8.05,2.24.1v-5.57c0-3.36-.1-4.9-.1-5.23,0-.48.05-.53.55-.53.3,0,1.79.1,6.18.1h2.64v-2.26h-4.59c-4.79,0-6.43.1-6.73.1-.5,0-.55-.05-.55-.58v-2.5c0-.48.05-.53.55-.53.3,0,1.94.1,6.73.1v-2.4c-2.94.05-4.04.1-4.29.1-.5,0-.55-.05-.55-.53v-2.26c0-.43.05-.48.55-.48.25,0,1.35.1,4.29.1v-2.35c-3.84.05-5.28.1-5.53.1-.5,0-.55-.05-.55-.58v-2.3c0-.48.05-.53.55-.53.25,0,1.69.1,5.53.1v-.77c0-1.68-.05-2.69-.3-3.6,1.65.1,3.19.19,4.54.34.5.05.75.24.75.38,0,.29-.1.48-.25.77-.25.43-.3.91-.3,2.26v.62h4.94v-.77c0-1.68-.05-2.69-.3-3.6,1.65.1,3.19.19,4.54.34.5.05.75.24.75.38,0,.29-.15.58-.3.86-.25.43-.25.82-.25,2.16v.62c4.54,0,6.13-.1,6.48-.1.5,0,.55.05.55.53v2.3c0,.53-.05.58-.55.58-.35,0-1.94-.1-6.48-.1v2.35c3.54,0,4.94-.1,5.23-.1.5,0,.55.05.55.48v2.26c0,.48-.05.53-.55.53-.3,0-1.69-.05-5.23-.1v2.4h.75c4.84,0,6.48-.1,6.78-.1.45,0,.5.05.5.53v2.5c0,.53-.05.58-.5.58-.3,0-1.94-.1-6.78-.1h-5.63v2.26h3.29c4.39,0,5.93-.1,6.23-.1.5,0,.55.05.55.53,0,.29-.1,2.16-.1,5.66v5.14c1.79-.05,2.64-.1,2.79-.1.5,0,.55.05.55.53v2.64ZM355.85,29.04v-2.5h-4.94v2.5h4.94ZM355.85,34.46v-2.54h-4.94v2.54h4.94ZM360.59,12.09v-2.35h-4.94v2.35h4.94ZM360.59,17.57v-2.4h-4.94v2.4h4.94ZM360.09,26.54v2.5h5.63v-2.5h-5.63ZM365.72,34.46v-2.54h-5.63v2.54h5.63Z"/><path d="M394.79,5.23c.85.19,1.2.43,1.2.91,0,.53-.3,1.1-.5,1.58-.25.67-.45,2.16-.7,5.86-.5,7.39-.75,12.29-.75,18.58,0,4.85.6,5.95,4.59,5.95,4.44,0,11.37-2.59,17.45-8.83.2,1.82.65,3.41,1.15,4.56.25.53.4.86.4,1.15,0,.43-.2.82-1,1.49-5.38,4.75-12.41,7.2-18.89,7.2s-9.37-2.45-9.37-9.79c0-8.06.45-14.98.7-20.74.1-2.83.25-5.9-.5-8.79,2.29.24,4.69.48,6.23.86Z"/><path d="M454.07,10.61c.55-.14.75.1.8.48.15,1.06.3,2.45.35,3.46.05.62-.1.77-.75.91-3.09.82-5.63,1.34-8.67,1.82-3.39,10.66-5.93,18-9.12,25.97-.25.67-.55.62-1.1.48-.5-.19-2.94-1.2-3.99-1.78-.4-.24-.55-.62-.4-.96,3.79-8.4,6.18-14.74,8.62-22.75-2.89.29-6.38.53-8.72.53-.75,0-.95-.14-1.05-.77-.2-1.01-.45-2.64-.7-4.37,1.05.14,1.65.14,3.69.14,2.49,0,5.18-.14,8.08-.48.5-1.92.9-4.03,1.25-6,.2-1.44.3-2.88.3-4.42,2.64.38,4.69.72,6.28,1.34.4.14.55.48.55.77,0,.19,0,.43-.25.77-.4.67-.8,1.15-1.05,1.92-.5,1.73-.85,3.36-1.2,4.56,1.94-.34,4.64-.96,7.08-1.63ZM452.12,33.55c.5,0,.7.19.75.67.4,3.5,2.84,4.51,7.63,4.51,2.79,0,6.38-.43,8.37-.67.4-.05.55.05.6.43.2,1.25.4,2.88.4,4.18.05.58,0,.72-.8.77-1.69.24-4.94.53-6.78.53-6.53,0-9.92-.86-12.16-3.12-1.6-1.54-2.14-3.79-2.24-6.58,1.55-.38,3.59-.72,4.24-.72ZM451.57,20.83c0-.67.15-.82.9-.96,3.14-.62,6.83-1.1,9.72-1.1,1.94,0,4.09.19,5.83.48.7.1.85.14.85.72.1,1.2.1,2.54.05,3.84,0,.82-.25,1.01-.95.86-1.75-.34-4.04-.58-6.18-.58-2.99,0-6.78.48-10.02,1.1-.1-1.68-.2-3.41-.2-4.37Z"/><path d="M484.48,45.26c-.5,0-.55-.05-.55-.53,0-.34.1-3.17.1-17.09v-9.26c0-9.31-.1-12.24-.1-12.53,0-.53.05-.58.55-.58.35,0,2.04.1,6.88.1h17.1c4.84,0,6.58-.1,6.88-.1.5,0,.55.05.55.58,0,.29-.1,3.22-.1,11.09v10.66c0,13.78.1,16.61.1,16.9,0,.48-.05.53-.55.53h-4.44c-.5,0-.55-.05-.55-.53v-2.35h-20.89v2.59c0,.48-.05.53-.55.53h-4.44ZM489.47,21.07h20.89v-10.94h-20.89v10.94ZM510.35,37.39v-11.62h-20.89v11.62h20.89Z"/><path d="M538.13,30.72c3.89-1.49,8.13-3.36,12.46-5.62-.15,1.1-.1,2.45.05,3.65q.25,1.58-1.15,2.3c-5.53,2.83-11.52,5.38-18.1,7.73-.75.29-1.2.53-1.45.82-.2.24-.5.38-.7.38-.3,0-.55-.24-.7-.67-.6-1.54-1.1-3.5-1.5-5.18,1.75-.34,3.19-.72,4.74-1.2l1-.29-.2-20.64c-.05-3.36-.05-5.18-.4-7.3,1.79.05,3.84.14,5.48.34.5.05.85.29.85.58,0,.38-.2.67-.35,1.01-.3.58-.35,1.82-.3,5.28l.25,18.82ZM556.97,28.94c2.69-4.18,4.39-9.98,4.89-17.81.25-2.78.2-4.94-.05-6.82,2.14.14,4.24.38,5.73.62.5.1.75.29.75.67,0,.43-.2.72-.4,1.15-.2.48-.4,2.02-.6,4.37-.65,8.11-2.29,14.26-4.74,18.53,2.94,4.32,6.58,7.78,10.42,10.46-.95,1.06-2.04,2.59-2.79,3.94-.35.67-.55,1.01-.8,1.01-.2,0-.5-.24-1.05-.72-3.24-2.88-6.13-6.14-8.87-9.98-3.29,4.32-7.58,7.68-15.15,11.09-.6.24-.95.38-1.2.38-.4,0-.55-.29-1.05-1.1-.7-1.2-1.6-2.26-2.69-3.17,9.02-3.46,14.06-6.91,17.6-12.63ZM546.9,8.3c.25-.14.4-.24.55-.24s.25.1.45.29c2.94,2.64,5.28,5.47,7.48,8.83.3.43.2.62-.3.91l-3.19,2.21c-.25.19-.45.29-.6.29-.25,0-.4-.19-.6-.53-2.29-3.65-4.44-6.34-7.08-8.93-.4-.38-.3-.58.25-.91l3.04-1.92Z"/><path d="M582,32.5c0-1.49.05-3.55.1-5.33-.9.86-1.79,1.68-2.69,2.4-.55.38-.9.62-1.15.62s-.45-.29-.65-.96c-.4-1.34-1.1-2.74-1.7-3.46,3.89-2.98,7.58-6.91,10.07-10.66.5-.72,1-1.63,1.3-2.54,1.35.67,2.59,1.44,3.69,2.21.45.34.65.53.65.86,0,.24-.1.38-.35.53-.4.24-.7.58-1.1,1.15-1,1.54-2.09,3.07-3.24,4.51v17.71c0,3.84.1,5.66.1,5.9,0,.48-.05.53-.55.53h-4.09c-.45,0-.5-.05-.5-.53,0-.29.1-2.06.1-5.9v-7.06ZM590.67,4.27c.45.29.7.53.7.86s-.3.53-.8.82c-.35.19-.8.58-1.35,1.3-2.29,2.74-5.03,5.47-8.57,7.97-.55.38-.9.58-1.15.58-.35,0-.6-.34-.95-1.15-.55-1.15-1.4-2.21-2.14-2.83,3.49-2.02,6.53-4.7,8.92-7.58.7-.86,1.1-1.49,1.45-2.21,1.45.58,2.64,1.39,3.89,2.26ZM614.3,14.06c.55-.34.65-.29.95.05,2.79,2.98,4.83,6.1,6.53,9.22.25.48.15.62-.35.91l-2.99,1.58c-.6.34-.7.34-.95-.19-.5-1.01-1-2.02-1.55-3.02-4.98.58-10.72,1.06-15.6,1.44,1.05.19,1.89.38,2.74.58.55.14.85.34.85.67,0,.29-.2.53-.6.72-.2.1-.5.38-.8.77h8.67c.5,0,.8-.05,1.05-.14.2-.1.45-.19.7-.19.4,0,.75.24,1.99,1.39,1.1,1.1,1.3,1.49,1.3,1.92,0,.38-.15.62-.55.86-.4.19-.8.62-1.5,1.58-1.45,1.97-3.04,3.7-4.79,5.23,3.64,1.63,8.08,2.69,13.46,3.46-.7.82-1.3,2.02-1.7,3.22q-.5,1.44-2.04,1.15c-5.28-1.15-9.82-2.69-13.66-4.9-3.79,2.35-8.23,4.08-13.66,5.18-1.5.29-1.55.29-2.14-1.1-.45-1.06-1-1.92-1.74-2.78,5.33-.82,9.77-2.16,13.46-4.08-1.6-1.25-3.04-2.69-4.39-4.32-1.6,1.39-3.39,2.64-5.23,3.7-.6.34-.9.53-1.15.53-.35,0-.55-.34-1-1.1-.55-.86-1.25-1.63-1.99-2.3,4.49-2.26,7.28-4.42,9.47-7.2.5-.58,1.15-1.63,1.6-2.74-1.45.14-2.79.24-3.99.29-1.25.1-2.24.24-2.69.43-.35.14-.65.34-.95.34-.45,0-.65-.38-.75-.86-.25-1.39-.45-2.88-.6-4.37,1.3.1,2.74.14,3.94.1,1.4,0,2.79-.05,4.24-.1l1.89-1.87c-2.69-2.5-5.13-4.46-7.93-6.48-.2-.14-.3-.29-.3-.43s.1-.29.35-.58l1.99-2.26c.4-.48.5-.43.9-.14.6.48,1.25.91,1.89,1.34,1.15-1.44,2.39-3.07,3.79-5.18.5-.77.9-1.58,1.3-2.59,1.45.48,3.14,1.15,4.34,1.78.45.24.65.48.65.82,0,.29-.25.58-.6.77-.4.19-.8.53-1.45,1.39-1.55,1.97-3.04,3.89-4.64,5.71,1.05.82,2.04,1.63,2.94,2.5,2.04-2.26,3.89-4.42,5.58-6.58.6-.72,1.3-1.73,1.69-2.69,1.65.62,3.14,1.25,4.29,1.78.55.29.75.48.75.82s-.25.62-.65.77c-.45.19-.85.62-1.74,1.68-2.34,2.88-5.43,6-8.72,9.17,3.19-.19,6.33-.38,9.42-.67-.7-.91-1.45-1.82-2.19-2.74-.35-.38-.25-.58.3-.86l2.54-1.34ZM600.29,30.62c1.4,1.78,3.04,3.26,4.94,4.56,1.7-1.34,3.19-2.83,4.49-4.56h-9.42Z"/><path d="M639.03,7.44c.85.43,1.15.72,1.15,1.15,0,.34-.1.48-.75,1.44-.5.86-.75,1.54-1.2,3.41-1.4,5.95-2.09,11.86-2.09,15.51,0,2.35.1,3.94.3,5.62,1.05-2.21,1.94-3.79,3.39-7.15.4,1.2,1.05,1.97,1.75,3.02.15.24.35.53.35.72,0,.34-.1.53-.25.77-1.15,2.5-2.09,4.56-2.84,7.25-.1.29-.15.82-.15,1.49,0,.58.1.96.1,1.34,0,.34-.2.53-.65.62-1.25.34-2.64.62-4.09.77-.35.05-.55-.19-.65-.53-1.4-3.36-2.29-9.46-2.29-14.31,0-4.32.55-9.55,1.7-15.75.65-3.55.9-5.14.9-7.15,2.24.53,3.84,1.01,5.33,1.78ZM649.7,30.05c.4-.05.5.19.5.72.3,3.31,2.69,4.51,8.13,4.51,3.74,0,6.18-.24,9.52-.62.5-.05.6,0,.7.62.15,1.01.3,2.88.3,4.13,0,.58,0,.62-.85.72-3.39.38-5.78.53-8.13.53-7.38,0-10.82-1.15-12.96-3.98-1.25-1.54-1.75-3.98-1.75-6.24l4.54-.38ZM646.91,12.09c.05-.58.2-.72.7-.82,2.94-.53,8.52-.86,10.82-.86,2.99,0,5.28.1,7.38.29,1.05.05,1.15.14,1.15.62,0,1.44,0,2.74-.1,4.08-.05.43-.2.62-.65.58-2.99-.19-5.58-.29-8.12-.29-3.34,0-6.58.29-11.32,1.1.05-2.69.05-3.89.15-4.7Z"/><path d="M690.39,18.96c-2.49.19-5.04.38-8.38.38-.85,0-1.1-.29-1.2-1.01-.15-.91-.35-2.5-.55-4.18,1.3.19,2.59.24,3.89.24,2.09,0,4.24-.19,6.33-.38,0-1.58.05-3.41.05-5.47,0-1.25-.05-2.64-.35-3.89,2.49.14,4.59.48,5.93.86.6.14,1,.48,1,.91,0,.19-.1.43-.3.77-.35.62-.6,1.25-.7,1.87-.15,1.25-.2,2.45-.25,3.98,2.19-.43,4.24-1.06,6.38-1.78.45-.14.8-.05.85.43.2,1.2.3,2.5.3,3.74,0,.48-.15.62-.65.77-3.29,1.01-4.14,1.25-7.13,1.82-.05,2.3-.05,4.66-.1,6.96,4.69-1.92,9.07-2.69,12.26-2.64,6.18.05,10.62,3.84,10.62,9.6,0,6.14-4.09,9.75-10.82,9.75-1.45,0-3.04-.19-4.09-.43-.8-.19-1.1-.67-1.1-1.44-.1-1.06-.45-2.69-1.5-4.08,2.39.77,4.39.86,6.23.86,2.79,0,5.38-1.54,5.38-4.94,0-3.12-1.99-4.85-5.48-4.85-2.84,0-6.28.72-11.42,3.26.05,2.02.1,3.65.2,5.76.15,2.11.4,5.14.4,6.24,0,.67.1,1.39-.75,1.58-1.1.29-2.69.53-3.69.58-.55.05-.75-.34-1.2-.96-1.35-1.78-3.94-4.08-7.08-6.14-.55.29-1.15.67-1.6,1.06-.25.24-.6.34-.85.34-.4,0-.8-.29-1.1-.77-.55-.86-1.54-2.88-2.29-4.46,1.3-.29,2.94-.82,4.59-1.68,2.14-1.15,4.49-2.45,8.13-4.46v-8.21ZM685.75,35.47c1.4.72,3.09,1.54,4.69,2.16.4.1.55.05.5-.38-.1-1.25-.2-3.46-.3-5.04-1.4.91-3.09,2.02-4.88,3.26ZM709.58,10.27c.35-.53.5-.67.85-.58,4.59,1.3,7.98,3.31,10.57,5.86.2.19.3.34.3.48s-.1.29-.2.48c-.65.96-1.94,2.45-2.69,3.41-.15.19-.85.24-1,0-2.64-2.83-6.13-4.61-10.12-5.9.65-1.3,1.45-2.54,2.29-3.74Z"/><path d="M739.79,40.9c0,.34-.15.48-.65.67-1.5.62-2.39.86-3.44,1.01-.6.1-.85-.05-1.15-.62-1.6-3.07-2.94-9.89-2.94-14.88,0-3.89.45-8.3,1.5-15.36.3-2.21.55-4.37.55-7.15,2.29.53,3.94,1.06,5.23,1.68.8.38,1.1.72,1.1,1.06,0,.19,0,.43-.3.96-.25.62-.6,1.92-.95,3.55-.95,5.18-1.89,10.18-1.89,14.4,0,3.07.1,5.81.5,7.58,1.25-2.54,2.14-4.18,3.34-6.86.7,1.82,1.15,2.45,1.65,3.22.3.34.45.62.45.91,0,.34-.1.62-.6,1.58-1.35,2.88-1.75,4.18-2.24,5.86-.1.38-.15.91-.15,1.25v1.15ZM757.04,19.15c-2.64.19-4.54.29-5.98.29-1.05.05-2.34.05-4.19,0-.7,0-1.1-.24-1.15-.77-.2-.96-.3-2.26-.55-4.37,1.84.19,4.34.24,6.18.24,1.4,0,3.74-.05,5.53-.19-.1-2.4-.1-4.56-.3-6.38-.2-1.68-.35-2.64-.85-3.94,2.94.1,5.28.34,6.43.67.55.14.8.38.8.77,0,.34-.15.62-.35.96-.15.29-.25,1.06-.25,2.02v5.33c2.14-.29,4.29-.62,6.38-1.06.6-.14.85-.05.9.43.2,1.2.3,2.35.4,3.6.05.62-.2.82-.65.86-2.39.43-4.59.72-6.88.96l.05,7.39c.05,4.46-.75,8.3-2.19,11.14-1.54,3.17-4.04,5.71-7.13,7.44-.55.34-.9.43-1.25.43-.4,0-.6,0-1-.43-.9-.77-2.19-1.58-3.89-2.35,4.69-2.4,6.93-4.61,8.42-7.97,1.1-2.45,1.6-5.71,1.55-10.71l-.05-4.37Z"/><path d="M795.93,22.13c2.79-1.54,5.13-2.16,7.93-2.16,7.28,0,12.36,4.61,12.36,11.52,0,8.02-6.73,13.15-17.4,13.15-6.28,0-10.07-2.59-10.07-7.06,0-3.22,3.14-5.86,7.03-5.86,4.69,0,8.13,2.4,9.37,7.01,3.49-1.54,5.08-3.65,5.08-7.3,0-4.37-3.19-7.25-7.83-7.25-4.14,0-8.72,1.78-12.76,5.09-1.45,1.25-2.84,2.64-4.34,4.08-.35.34-.6.53-.85.53-.2,0-.45-.14-.75-.43-1.05-.86-2.14-2.11-2.94-3.12-.3-.38-.15-.72.25-1.1,3.89-3.02,7.33-6.1,11.81-10.61,3.09-3.07,5.43-5.47,7.73-8.21-2.99.53-6.53,1.2-9.62,1.82-.65.14-1.3.29-2.09.58-.25.1-.75.24-1,.24-.5,0-.85-.24-1.1-.82-.6-1.1-1.05-2.45-1.75-5.18,1.5.19,3.14.19,4.64.1,3.04-.29,7.43-.91,11.32-1.63,1.25-.24,2.24-.48,2.74-.72.25-.14.7-.38.95-.38.5,0,.8.14,1.15.38,1.5,1.1,2.49,2.06,3.34,3.07.4.43.55.77.55,1.15,0,.48-.3.91-.85,1.15-.85.38-1.25.72-2.19,1.54-3.64,3.41-6.98,6.77-10.77,10.27l.05.14ZM795.98,35.81c-1.45,0-2.39.82-2.39,1.82,0,1.49,1.35,2.5,4.34,2.5.9,0,1.55-.05,2.29-.19-.65-2.64-2.14-4.13-4.24-4.13Z"/><path d="M843.69,46.13c-.5,0-.55-.05-.55-.53,0-.29.05-1.78.1-4.75-3.99.82-8.92,1.68-12.96,2.26-.8.1-1.55.34-1.79.48-.2.1-.5.29-.8.29s-.55-.29-.7-.77c-.45-1.3-.7-2.45-1-3.84,1.75-.05,3.14-.14,4.69-.34.3,0,.6-.05.9-.1v-15.07c-3.39.05-4.69.1-4.93.1-.5,0-.55-.05-.55-.53v-3.02c0-.48.05-.53.55-.53.3,0,1.74.1,6.08.1h32c4.34,0,5.78-.1,6.08-.1.45,0,.5.05.5.53v3.02c0,.48-.05.53-.5.53-.3,0-1.75-.1-6.08-.1h-16.9v16.08c0,3.7.1,5.47.1,5.76,0,.48-.05.53-.55.53h-3.69ZM857.75,3.88c4.93,0,6.68-.1,6.98-.1.5,0,.55.05.55.58,0,.29-.1,1.34-.1,3.94v5.04c0,2.59.1,3.65.1,3.94,0,.53-.05.58-.55.58-.3,0-2.04-.1-6.98-.1h-18.15c-4.94,0-6.63.1-6.98.1-.5,0-.55-.05-.55-.58,0-.29.1-1.34.1-3.94v-5.04c0-2.59-.1-3.65-.1-3.94,0-.53.05-.58.55-.58.35,0,2.04.1,6.98.1h18.15ZM843.25,26.3v-2.54h-7.03v2.54h7.03ZM843.25,31.87v-2.5h-7.03v2.5h7.03ZM843.25,34.94h-7.03v3.31c2.34-.34,4.79-.67,7.03-1.06v-2.26ZM837.11,9.45h23.13v-2.02h-23.13v2.02ZM860.24,12.33h-23.13v2.06h23.13v-2.06ZM863.63,26.59c.3,0,.65-.1.9-.19s.5-.19.75-.19c.35,0,.6.1,1.74,1.1,1.2,1.1,1.35,1.44,1.35,1.78,0,.38-.15.62-.5.86-.4.24-.75.82-1.35,2.02-1.1,2.11-2.39,4.08-4.04,5.81,2.44,1.49,5.38,2.54,8.82,3.26-.55.77-1.25,1.82-1.75,3.07-.5,1.3-.6,1.3-1.89.91-3.34-1.01-6.13-2.4-8.52-4.13-2.19,1.63-4.69,3.07-7.53,4.22-.5.19-.8.34-1,.34-.35,0-.55-.34-.9-1.1-.55-1.15-1.15-2.06-1.84-2.74,3.19-.91,5.83-2.11,8.03-3.6-1.94-2.11-3.59-4.66-4.89-7.68-.8.05-1.15.05-1.3.05-.5,0-.55-.05-.55-.58v-2.78c0-.48.05-.53.55-.53.3,0,1.55.1,5.48.1h8.42ZM855.56,30.29c.95,1.92,2.14,3.6,3.64,4.99,1.4-1.44,2.54-3.12,3.44-4.99h-7.08Z"/><path d="M883.48,27.98c-1.54,1.54-3.19,3.02-4.83,4.27-.5.38-.85.58-1.05.58-.35,0-.5-.34-.8-1.1-.4-1.1-1-2.21-1.6-2.98,5.68-3.84,10.57-9.46,13.16-14.83h-5.68c-3.74,0-4.93.1-5.23.1-.5,0-.55-.05-.55-.53v-3.55c0-.48.05-.53.55-.53.3,0,1.5.1,5.23.1h.85v-1.63c0-2.11,0-3.94-.4-5.81,1.89.05,3.39.14,5.18.34.5.05.8.29.8.48,0,.43-.15.72-.3,1.06-.3.58-.35,1.58-.35,3.74v1.82h1.64c.65,0,.9-.14,1.1-.24.15-.1.45-.29.65-.29.35,0,.95.38,1.94,1.39.9.91,1.25,1.44,1.25,1.82,0,.29-.2.48-.6.77-.35.29-.7.82-1.1,1.54-1.2,2.3-2.69,4.66-4.34,6.96.5.72,1.1,1.39,1.79,2.06.85-1.01,1.54-1.97,2.14-2.88.4-.62.8-1.49,1.15-2.4,1.1.62,2.59,1.44,3.54,2.16.4.34.5.43.5.77,0,.24-.2.43-.5.53-.35.19-.6.43-1.15,1.1-1.05,1.2-1.74,2.11-2.79,3.26,1.1.82,2.24,1.63,3.44,2.35-.6.62-1.65,1.92-2.14,2.78-.45.67-.65,1.01-.95,1.01-.25,0-.55-.24-1.05-.72-1.59-1.39-3.24-3.07-4.59-4.7v13.25c0,3.6.1,5.28.1,5.52,0,.48-.05.53-.55.53h-4.04c-.5,0-.55-.05-.55-.53,0-.29.1-1.92.1-5.52v-12.05ZM908.01,10.7c-.15,7.54-.8,14.31-2.79,20.26-1.99,5.81-5.23,10.27-10.07,14.11-.5.43-.75.67-1,.67-.3,0-.55-.34-1.05-1.01-.8-1.06-2.19-2.16-3.09-2.74,5.23-3.22,8.47-7.73,10.32-13.15,1.75-5.14,2.19-11.04,2.24-18.15h-.25c-4.49,0-5.98.1-6.28.1-.55,0-.6-.05-.6-.53v-3.79c0-.53.05-.58.6-.58.3,0,1.79.1,6.28.1h10.67c4.49,0,6.03-.1,6.33-.1.5,0,.6.1.6.62-.1,1.58-.1,2.93-.1,4.27-.05,12.39-.5,21.7-1.64,28.32-.7,4.08-2.59,6.19-7.33,6.19-1.6,0-2.59.05-3.89-.1-1.2-.1-1.2-.19-1.5-1.82-.2-1.15-.6-2.69-1.3-3.6,2.59.43,4.04.48,5.68.48,2.04,0,2.94-1.15,3.29-3.31.9-5.23,1.4-13.54,1.4-26.26h-6.53Z"/><path d="M951.78,12.81c-1.15,8.16-3.24,15.65-6.23,20.69-2.14,3.6-4.74,5.52-8.47,5.52-4.39,0-8.82-4.51-8.82-12.34,0-4.61,2.04-9.02,5.63-12.48,4.19-4.03,9.47-6.14,16.2-6.14,11.96,0,18.99,7.1,18.99,16.66,0,8.93-5.23,14.55-15.35,17.47-1.05.29-1.5.1-2.14-.86-.55-.82-1.59-1.92-3.49-3.02,8.42-1.92,15.05-5.28,15.05-14.35,0-5.71-4.49-11.14-11.17-11.14h-.2ZM937.47,17.47c-2.39,2.59-3.89,5.81-3.89,8.88,0,4.42,1.84,6.86,3.39,6.86,1.3,0,2.39-.62,3.74-2.93,2.19-3.89,4.44-10.8,5.28-17.19-3.49.67-6.28,2.02-8.52,4.37Z"/><path d="M1007.97,29.52h4.74v4.51h-4.74v8.3h-5.73v-8.3h-14.51v-4.22l12.36-24.34h7.88v24.05ZM1002.24,21.45c0-3.89.15-7.54.3-11.23h-.7c-1.25,3.17-2.69,6.38-4.24,9.6l-4.69,9.7h9.32v-8.06Z"/><path d="M1066.45,30.14c0,3.31.15,6.96.15,9.6,0,2.06-.35,3.31-1.59,4.46-1.3,1.15-2.99,1.39-8.28,1.39-1.55,0-1.65.05-1.84-1.49-.2-1.39-.75-3.07-1.3-4.03,2.14.19,3.74.24,5.68.24,1.2,0,1.75-.62,1.75-1.68v-8.4h-17.8c-.95,6.67-3.09,10.42-7.18,14.88-.5.53-.75.82-1.05.82s-.6-.24-1.15-.77c-1.05-1.01-2.39-1.78-3.59-2.26,6.58-5.9,8.23-9.98,8.23-24.58v-7.06c0-4.08-.1-6.24-.1-6.53,0-.53.05-.58.55-.58.35,0,1.99.1,6.63.1h13.86c4.64,0,6.23-.1,6.58-.1.5,0,.55.05.55.58,0,.29-.1,2.45-.1,6.53v18.87ZM1061.02,25.58v-6.1h-17.1c-.05,2.26-.1,4.27-.2,6.1h17.3ZM1043.92,9.02v5.81h17.1v-5.81h-17.1Z"/><path d="M1107.23,37.68h7.13v4.66h-20.54v-4.66h7.48V11.57c-1.89,1.25-4.29,2.4-7.03,3.26l-1-5.04c3.29-.91,6.23-2.45,8.87-4.32h5.08v32.21Z"/><path d="M1139.89,45.26c-.5,0-.55-.05-.55-.53,0-.34.1-3.17.1-17.09v-9.26c0-9.31-.1-12.24-.1-12.53,0-.53.05-.58.55-.58.35,0,2.04.1,6.88.1h17.1c4.83,0,6.58-.1,6.88-.1.5,0,.55.05.55.58,0,.29-.1,3.22-.1,11.09v10.66c0,13.78.1,16.61.1,16.9,0,.48-.05.53-.55.53h-4.44c-.5,0-.55-.05-.55-.53v-2.35h-20.89v2.59c0,.48-.05.53-.55.53h-4.44ZM1144.88,21.07h20.89v-10.94h-20.89v10.94ZM1165.76,37.39v-11.62h-20.89v11.62h20.89Z"/><path d="M44.4,69.36c.25-1.44.5-3.31.5-5.33,2.59.53,3.99.86,5.98,1.58.5.14.8.53.8.96,0,.24-.1.48-.35.72-.5.62-.75,1.15-1,1.82-.65,1.97-1.15,3.74-1.79,5.76,1.35-.14,2.84-.19,3.89-.19,4.69,0,7.23,3.07,7.23,8.88s-1,11.95-2.69,15.41c-1.45,3.07-3.84,4.51-6.73,4.51-2.39,0-3.84-.19-4.94-.53-.6-.19-.9-.62-.9-1.34-.15-1.54-.25-2.88-.95-4.46,2.24.82,3.94,1.06,5.48,1.06,1.65,0,2.39-.58,3.19-2.54,1.05-2.69,1.94-7.25,1.94-11.9,0-3.41-.65-4.46-2.84-4.46-1.2,0-2.74.14-4.19.34-3.29,9.22-6.13,15.84-10.02,22.56-.3.62-.7.72-1.3.43-.9-.43-2.84-1.58-3.44-2.11-.25-.24-.4-.43-.4-.72,0-.14.05-.34.2-.53,3.99-6.67,6.58-11.76,9.12-18.82-1.94.29-3.54.58-4.89.82-1.3.24-2.09.53-2.74.77-.7.24-1.3.14-1.6-.62-.45-1.1-1-2.83-1.55-4.94,2.19,0,4.39-.14,6.58-.34,2.09-.19,3.94-.43,5.88-.72.8-2.74,1.15-4.42,1.5-6.05ZM64.69,72.57c.35-.19.6-.1.95.24,3.39,3.07,6.43,7.06,8.28,11.67.2.43.15.67-.2.96-.85.77-2.74,1.92-3.74,2.4-.5.24-1,.19-1.15-.38-1.99-5.04-4.59-9.17-8.18-12.43,1.25-.82,2.69-1.78,4.04-2.45Z"/><path d="M92.56,75.31c.55.24.8.53.8.91,0,.24-.1.48-.25.72-.45.77-.8,1.63-1,2.54-.5,2.45-1,6-1.2,8.74,4.59-4.46,10.57-7.58,16.65-7.58,7.28,0,11.62,4.08,11.62,10.27,0,5.23-3.24,8.69-7.53,10.75-3.34,1.63-8.47,2.78-12.76,3.31-1.1.14-1.55.1-1.99-.62-.95-1.63-1.84-2.93-3.39-4.08,5.58-.34,10.37-1.25,13.71-2.69,4.04-1.68,5.88-4.18,5.88-7.25,0-2.59-1.7-4.94-5.98-4.94s-9.67,2.74-14.36,7.3c-.9.86-1.55,1.68-2.14,2.64-.3.48-.5.48-1.15.34-1.15-.38-2.34-.82-3.39-1.3-.5-.19-.7-.29-.7-.96.3-5.57.95-11.23,1.55-15.5.2-1.44.45-2.69.45-4.32,1.94.53,4.04,1.1,5.18,1.73ZM93.81,63.17c.25-.24.55-.38.95-.24,3.69,1.39,6.78,3.22,9.77,5.71.25.19.35.34.35.53,0,.14-.1.34-.25.58-.65,1.01-1.7,2.4-2.54,3.36-.2.24-.4.38-.55.38-.2,0-.35-.1-.6-.34-2.79-2.35-6.13-4.56-10.07-6.24,1.2-1.73,2.14-2.98,2.94-3.74Z"/><path d="M140.88,73.01c1.45-5.18,5.73-7.92,11.52-7.92,6.93,0,11.42,3.89,11.42,9.22,0,4.32-2.69,7.49-7.28,8.26v.34c5.13,1.06,8.03,4.37,8.03,9.22,0,6.48-4.89,10.9-12.16,10.9-6.28,0-10.42-2.45-12.11-8.11l6.13-1.73c.85,3.7,2.64,5.18,5.93,5.18,3.59,0,5.83-2.3,5.83-6.19,0-4.18-2.04-6.62-7.38-6.62h-2.89v-4.9h2.64c4.98,0,6.98-2.06,6.98-5.76,0-3.36-2.04-5.14-5.23-5.14-2.64,0-4.79,1.58-5.28,5.04l-6.13-1.78Z"/><path d="M188.79,95.33c-4.39,0-5.93.1-6.23.1-.5,0-.55-.05-.55-.53v-3.79c0-.43.05-.48.55-.48.3,0,1.84.1,6.23.1h1.2v-6.72c0-2.74-.1-4.03-.1-4.32,0-.48.05-.53.6-.53.3,0,1.99.1,6.83.1h6.38v-6.38h-10.22c-1.65,2.4-3.59,4.7-5.83,6.86-.5.53-.8.77-1.05.77s-.5-.29-1-.91c-.95-1.25-1.84-2.02-2.79-2.59,4.14-3.46,7.18-7.44,9.22-11.62.6-1.2,1.05-2.35,1.3-3.5,1.79.34,3.44.67,4.79,1.06.6.19.9.43.9.82s-.25.58-.6.91c-.4.34-.75.72-1.25,1.73l-1,2.06h20.59c4.84,0,6.53-.1,6.83-.1.5,0,.55.05.55.53v3.55c0,.48-.05.53-.55.53-.3,0-1.99-.1-6.83-.1h-7.68v6.38h5.33c4.89,0,6.53-.1,6.83-.1.45,0,.5.05.5.53v3.6c0,.48-.05.53-.5.53-.3,0-1.94-.1-6.83-.1h-5.33v7.01h10.57c4.39,0,5.93-.1,6.23-.1.5,0,.55.05.55.48v3.79c0,.48-.05.53-.55.53-.3,0-1.84-.1-6.23-.1h-10.57v2.35c0,5.04.1,7.58.1,7.82,0,.48-.05.53-.55.53h-4.44c-.55,0-.6-.05-.6-.53,0-.29.1-2.78.1-7.82v-2.35h-14.91ZM203.69,90.72v-7.01h-8.42v7.01h8.42Z"/><path d="M242.63,90.72c3.89-1.49,8.13-3.36,12.46-5.62-.15,1.1-.1,2.45.05,3.65q.25,1.58-1.15,2.3c-5.53,2.83-11.52,5.38-18.1,7.73-.75.29-1.2.53-1.45.82-.2.24-.5.38-.7.38-.3,0-.55-.24-.7-.67-.6-1.54-1.1-3.5-1.5-5.18,1.75-.34,3.19-.72,4.74-1.2l1-.29-.2-20.64c-.05-3.36-.05-5.18-.4-7.3,1.79.05,3.84.14,5.48.34.5.05.85.29.85.58,0,.38-.2.67-.35,1.01-.3.58-.35,1.82-.3,5.28l.25,18.82ZM261.47,88.94c2.69-4.18,4.39-9.98,4.89-17.81.25-2.78.2-4.94-.05-6.82,2.14.14,4.24.38,5.73.62.5.1.75.29.75.67,0,.43-.2.72-.4,1.15-.2.48-.4,2.02-.6,4.37-.65,8.11-2.29,14.26-4.74,18.53,2.94,4.32,6.58,7.78,10.42,10.46-.95,1.06-2.04,2.59-2.79,3.94-.35.67-.55,1.01-.8,1.01-.2,0-.5-.24-1.05-.72-3.24-2.88-6.13-6.14-8.87-9.98-3.29,4.32-7.58,7.68-15.15,11.09-.6.24-.95.38-1.2.38-.4,0-.55-.29-1.05-1.1-.7-1.2-1.6-2.26-2.69-3.17,9.02-3.46,14.06-6.91,17.6-12.63ZM251.4,68.3c.25-.14.4-.24.55-.24s.25.1.45.29c2.94,2.64,5.28,5.47,7.48,8.83.3.43.2.62-.3.91l-3.19,2.21c-.25.19-.45.29-.6.29-.25,0-.4-.19-.6-.53-2.29-3.65-4.44-6.34-7.08-8.93-.4-.38-.3-.58.25-.91l3.04-1.92Z"/><path d="M324.24,91.34c0,4.18.15,6.72.1,8.35,0,1.78-.5,3.17-1.6,3.98-1.1.82-2.84,1.25-7.73,1.25-1.45,0-1.6-.05-1.89-1.54-.3-1.49-.8-2.78-1.4-3.74,2.09.14,4.29.24,5.23.19,1.55-.05,1.99-.43,1.99-1.63v-8.16c-1,.91-1.84,1.97-2.49,3.02-.45.67-.7,1.01-1,1.01-.25,0-.55-.19-1.1-.58-4.39-3.17-7.83-6.86-10.12-11.86l-.15.38c-2.09,4.7-4.64,8.35-10.22,12.1-.55.43-.85.62-1.1.62-.3,0-.5-.29-.95-.96-.7-1.06-1.5-2.02-2.39-2.78v6.67c0,4.46.1,6.67.1,6.96,0,.43-.05.48-.6.48h-4.34c-.5,0-.55-.05-.55-.48,0-.34.1-2.59.1-7.54v-18.58c0-4.94-.1-7.25-.1-7.58,0-.48.05-.53.55-.53.35,0,1.99.1,6.73.1h9.77c.05-1.1.1-2.26.1-3.46,0-1.73-.05-3.36-.3-5.14,1.74.05,3.69.19,5.48.34.5.05.75.29.75.58,0,.34-.15.62-.3,1.01-.15.48-.2,1.54-.25,3.5,0,1.06-.05,2.11-.1,3.17h10.62c4.69,0,6.38-.1,6.68-.1.5,0,.55.05.55.53,0,.29-.1,2.88-.1,7.87v12.53ZM289.44,90.53c5.28-2.88,8.08-6.24,9.72-9.94.7-1.58,1.2-3.46,1.55-5.47h-11.27v15.41ZM318.96,75.12h-12.76c2.64,7.39,6.53,11.19,12.76,14.64v-14.64Z"/><path d="M343.29,88.66c.45.24.5.48.25.86-.75,1.1-1.3,2.69-1.3,3.65,0,3.02,3.24,4.51,11.81,4.51,4.84,0,9.42-.53,13.51-1.39.7-.14.95,0,1.05.43.25.91.7,3.5.8,4.7.05.43-.25.62-.85.72-4.64.82-9.22,1.15-14.61,1.15-11.52,0-17.15-3.46-17.15-9.7,0-1.97.75-4.03,2.64-6.86,1.3.62,2.54,1.25,3.84,1.92ZM354.56,69.84c3.64,0,7.18-.19,10.37-.43.5-.05.7.14.75.53.2,1.1.4,2.45.45,4.08,0,.67-.25.96-.85,1.01-4.74.67-8.18,2.26-12.21,4.75-.4.29-.85.43-1.25.43-.35,0-.7-.1-1.05-.29-1-.62-2.04-1.15-3.49-1.54,2.59-1.63,4.79-2.98,6.53-3.98-1.1.14-2.64.14-3.64.14-2.04,0-6.33-.29-9.17-.82-.45-.1-.65-.29-.65-.86,0-1.15.1-2.54.2-4.27,3.79.86,8.57,1.25,14.01,1.25ZM368.11,64.51c.25-.19.45-.14.75.1,1.55,1.15,3.34,3.07,4.74,5.14.2.29.2.53-.15.77l-2.09,1.49c-.35.24-.6.19-.85-.14-1.5-2.21-3.09-4.03-5.03-5.57l2.64-1.78ZM372.55,61.39c.3-.19.45-.14.75.1,1.84,1.34,3.64,3.26,4.74,4.94.2.29.25.58-.15.86l-1.99,1.49c-.4.29-.65.14-.85-.14-1.35-2.06-2.94-3.89-4.99-5.52l2.49-1.73Z"/><path d="M400.77,64.75c.6.14.9.38.9.77,0,.67-.35,1.34-.35,2.02,0,.96.15,2.11.25,3.22.45,3.36.95,5.76,1.6,8.26,2.49-1.3,4.29-2.21,7.08-3.65,1.45-.82,2.64-1.63,3.44-2.59,1.6,1.58,2.89,3.26,3.64,4.51.2.29.35.67.35,1.01,0,.48-.3.86-1,.96-1.5.24-3.19.82-4.79,1.44-4.29,1.68-8.27,3.46-11.71,5.62-4.34,2.74-5.88,4.99-5.88,7.25,0,2.83,2.19,4.03,7.93,4.03,6.28,0,11.37-.43,15.2-1.1.55-.1.8,0,.9.58.25,1.3.4,3.02.5,4.46.05.53-.3.77-.9.82-4.54.58-8.52.72-14.86.72-9.42,0-14.41-2.98-14.41-9.22,0-5.33,3.64-8.83,9.47-12.38-1.2-3.7-2.09-8.02-2.59-11.71-.35-2.54-.7-4.22-1.3-5.57,2.39,0,4.69.14,6.53.58Z"/><path d="M443.25,67.44c.85.43,1.15.72,1.15,1.15,0,.34-.1.48-.75,1.44-.5.86-.75,1.54-1.2,3.41-1.4,5.95-2.09,11.86-2.09,15.51,0,2.35.1,3.94.3,5.62,1.05-2.21,1.94-3.79,3.39-7.15.4,1.2,1.05,1.97,1.74,3.02.15.24.35.53.35.72,0,.34-.1.53-.25.77-1.15,2.5-2.09,4.56-2.84,7.25-.1.29-.15.82-.15,1.49,0,.58.1.96.1,1.34,0,.34-.2.53-.65.62-1.25.34-2.64.62-4.09.77-.35.05-.55-.19-.65-.53-1.4-3.36-2.29-9.46-2.29-14.31,0-4.32.55-9.55,1.7-15.75.65-3.55.9-5.14.9-7.15,2.24.53,3.84,1.01,5.33,1.78ZM453.92,90.05c.4-.05.5.19.5.72.3,3.31,2.69,4.51,8.13,4.51,3.74,0,6.18-.24,9.52-.62.5-.05.6,0,.7.62.15,1.01.3,2.88.3,4.13,0,.58,0,.62-.85.72-3.39.38-5.78.53-8.13.53-7.38,0-10.82-1.15-12.96-3.98-1.25-1.54-1.74-3.98-1.74-6.24l4.54-.38ZM451.13,72.09c.05-.58.2-.72.7-.82,2.94-.53,8.52-.86,10.82-.86,2.99,0,5.28.1,7.38.29,1.05.05,1.15.14,1.15.62,0,1.44,0,2.74-.1,4.08-.05.43-.2.62-.65.58-2.99-.19-5.58-.29-8.13-.29-3.34,0-6.58.29-11.32,1.1.05-2.69.05-3.89.15-4.7Z"/><path d="M508.96,97.68h7.13v4.66h-20.54v-4.66h7.48v-26.11c-1.89,1.25-4.29,2.4-7.03,3.26l-1-5.04c3.29-.91,6.23-2.45,8.87-4.32h5.08v32.21Z"/><path d="M541.72,105.6c0,.48-.05.53-.55.53h-4.29c-.5,0-.55-.05-.55-.53,0-.34.1-3.55.1-18.39v-9.46c0-9.55-.1-12.87-.1-13.2,0-.48.05-.53.55-.53.35,0,1.99.1,6.68.1h26.87c4.69,0,6.33-.1,6.68-.1.5,0,.55.05.55.53,0,.34-.1,3.65-.1,11.57v11.09c0,14.83.1,18.05.1,18.34,0,.48-.05.53-.55.53h-4.29c-.5,0-.55-.05-.55-.53v-2.3h-30.56v2.35ZM541.72,68.69v30.05h30.56v-30.05h-30.56ZM566.14,86.69c0,4.61.1,6.24.1,6.58,0,.48-.05.53-.55.53h-3.84c-.55,0-.6-.05-.6-.53v-1.15h-8.77v1.15c0,.48-.05.53-.55.53h-3.89c-.5,0-.55-.05-.55-.53,0-.34.1-1.97.1-6.58v-6.48c0-3.17-.1-4.51-.1-4.8,0-.48.05-.53.55-.53.35,0,1.6.1,5.43.1h6.83c3.84,0,5.08-.1,5.38-.1.5,0,.55.05.55.53,0,.29-.1,1.63-.1,4.56v6.72ZM552.48,79.25v8.54h8.77v-8.54h-8.77Z"/><path d="M616,84.33c.7,0,1.05-.1,1.2-.14.2-.05.4-.14.5-.14.4,0,.7.24,1.5,1.06.7.67.95,1.06.95,1.3s-.15.38-.45.58c-.3.19-.75.43-1.35,1.25-2.49,3.5-5.28,6.29-8.52,8.59,5.04,2.74,11.42,4.32,19.39,5.62-.55.58-1,1.34-1.35,2.11q-.45.96-1.4.77c-8.38-1.78-14.56-3.7-19.39-6.72-5.03,2.93-11.17,4.9-19.04,6.48-.95.19-1,.19-1.4-.72-.35-.77-.8-1.49-1.3-1.97,7.88-1.15,14.11-2.98,19.14-5.66-3.14-2.5-5.68-5.62-7.88-9.74-2.79.05-4.14.1-4.34.1-.35,0-.4-.05-.4-.38v-2.06c0-.34.05-.38.4-.38.25,0,1.89.1,6.83.1h16.9ZM627.51,81.31c0,3.6.1,4.32.1,4.61,0,.34-.05.38-.4.38h-2.29c-.35,0-.4-.05-.4-.38v-6.58h-35.29v6.58c0,.34-.05.38-.4.38h-2.24c-.35,0-.4-.05-.4-.38,0-.29.1-1.01.1-4.66v-1.82c0-1.49-.1-2.16-.1-2.45,0-.34.05-.38.4-.38.3,0,1.99.1,6.83.1h20.64c1.45-2.02,2.59-4.13,3.64-6.34.35-.77.5-1.39.65-2.11,1.05.34,1.99.67,2.69.96.35.14.55.34.55.53,0,.29-.25.53-.5.77-.3.29-.55.62-.95,1.34-.8,1.54-1.75,3.12-2.94,4.85h3.19c4.84,0,6.58-.1,6.83-.1.35,0,.4.05.4.38,0,.29-.1.96-.1,2.21v2.11ZM623.28,65.76c-.45,0-1.15.05-1.94.19-4.39.82-8.18,1.39-14.36,2.02-5.68.53-11.02.91-16.45,1.1q-.8.05-1.15-.91c-.3-.82-.65-1.39-1.05-1.87,6.38-.1,12.01-.38,18.25-.96,5.04-.48,8.28-.96,10.77-1.49,1.79-.38,2.94-.77,3.74-1.1.95.62,1.69,1.2,2.44,1.87.3.29.4.48.4.67,0,.24-.15.48-.65.48ZM595.06,69.98c.5-.19.6-.14.8.14,1.1,1.58,1.79,2.78,2.59,4.7.1.29.1.38-.5.62l-1.4.48c-.7.24-.8.19-.95-.24-.6-1.73-1.35-3.22-2.29-4.56-.25-.34-.15-.38.45-.62l1.3-.53ZM599.75,86.98c1.94,3.46,4.39,6.1,7.38,8.21,3.49-2.26,6.23-4.99,8.52-8.21h-15.9ZM605.98,69.36c.5-.19.6-.14.8.19.85,1.54,1.65,3.36,2.14,5.28.1.34.05.38-.55.58l-1.45.43c-.65.19-.75.19-.85-.24-.55-2.02-1.05-3.41-1.94-5.14-.2-.34-.2-.43.5-.67l1.35-.43Z"/><path d="M650.3,73.68c0,.34-.05.38-.35.38s-1.35-.1-4.99-.1h-4.98c-3.64,0-4.84.1-5.04.1-.3,0-.35-.05-.35-.38v-2.02c0-.34.05-.38.35-.38.2,0,1.4.1,5.04.1h4.98c3.64,0,4.69-.1,4.99-.1s.35.05.35.38v2.02ZM649.3,67.15c0,.34-.05.38-.4.38-.2,0-1.1-.1-4.14-.1h-3.74c-3.04,0-3.94.1-4.24.1-.35,0-.4-.05-.4-.38v-1.92c0-.34.05-.38.4-.38.3,0,1.2.1,4.24.1h3.74c3.04,0,3.94-.1,4.14-.1.35,0,.4.05.4.38v1.92ZM648.71,97.54c0,5.52.05,6.62.05,6.86,0,.34-.05.38-.35.38h-1.94c-.3,0-.35-.05-.35-.38v-1.58h-6.83v2.4c0,.34-.05.38-.4.38h-1.94c-.4,0-.45-.05-.45-.38,0-.24.1-1.06.1-6.91v-2.88c0-2.88-.1-3.98-.1-4.27,0-.34.05-.34.45-.34.25,0,1.2.1,4.14.1h3.14c3.04,0,3.94-.1,4.19-.1.3,0,.35,0,.35.34,0,.29-.05,1.3-.05,3.46v2.93ZM648.31,80.06c0,.34-.05.38-.4.38-.25,0-1.05-.1-3.94-.1h-2.69c-2.84,0-3.74.1-3.94.1-.35,0-.4-.05-.4-.38v-1.87c0-.34.05-.38.4-.38.2,0,1.1.1,3.94.1h2.69c2.89,0,3.69-.1,3.94-.1.35,0,.4.05.4.38v1.87ZM648.31,86.5c0,.34-.05.38-.4.38-.25,0-1.05-.1-3.94-.1h-2.69c-2.84,0-3.74.1-3.94.1-.35,0-.4-.05-.4-.38v-1.87c0-.34.05-.38.4-.38.2,0,1.1.1,3.94.1h2.69c2.89,0,3.69-.1,3.94-.1.35,0,.4.05.4.38v1.87ZM646.11,93.26h-6.83v7.2h6.83v-7.2ZM679.36,96.43c0,.34-.05.38-.4.38-.2,0-1.15-.05-3.44-.1,0,1.78.05,3.46.05,4.46,0,1.78-.3,2.54-1.05,3.12-.7.62-1.84.86-5.43.86-1,0-1-.1-1.2-.82-.2-.67-.55-1.39-.9-1.87,1.25.14,2.34.19,3.84.19,1.64,0,1.99-.48,1.99-1.78v-4.18h-16.7v3.17c0,3.6.1,5.09.1,5.33,0,.34-.05.38-.4.38h-2.14c-.3,0-.35-.05-.35-.38,0-.29.1-1.54.1-5.23v-3.22c-2.04,0-2.89.05-3.04.05-.35,0-.4-.05-.4-.38v-1.44c0-.34.05-.38.4-.38.15,0,1,.05,3.04.1v-5.38c0-3.7-.1-5.04-.1-5.28,0-.34.05-.38.35-.38s1.79.1,6.23.1h2.99v-3.46h-5.18c-4.93,0-6.58.1-6.83.1-.35,0-.4-.05-.4-.38v-1.49c0-.34.05-.38.4-.38.25,0,1.89.1,6.83.1h.65v-3.6c-3.44.05-4.69.1-4.89.1-.35,0-.4-.05-.4-.38v-1.44c0-.34.05-.38.4-.38.2,0,1.45.1,4.89.1v-3.26c-4.34,0-5.83.1-6.08.1-.35,0-.4-.05-.4-.38v-1.44c0-.34.05-.38.4-.38.25,0,1.75.1,6.08.1v-.58c0-2.21-.05-3.36-.35-4.27,1.1.05,2.04.14,2.89.29.35.05.6.24.6.38,0,.19-.1.43-.25.67-.25.34-.3,1.1-.3,2.98v.53h6.63v-.58c0-2.21-.05-3.36-.35-4.27,1.15.05,2.04.14,2.89.29.35.05.6.24.6.38,0,.19-.1.43-.25.67-.25.34-.3,1.1-.3,2.98v.53h.5c4.74,0,6.23-.1,6.53-.1.35,0,.4.05.4.38v1.44c0,.34-.05.38-.4.38-.3,0-1.79-.1-6.53-.1h-.5v3.26c4.09,0,5.48-.1,5.78-.1.35,0,.4.05.4.38v1.44c0,.34-.05.38-.4.38-.3,0-1.7-.1-5.78-.1v3.6h1.5c4.93,0,6.58-.1,6.83-.1.35,0,.4.05.4.38v1.49c0,.34-.05.38-.4.38-.25,0-1.89-.1-6.83-.1h-6.23v3.46h3.54c4.44,0,5.93-.1,6.23-.1.35,0,.4.05.4.38,0,.24-.1,1.87-.1,5.57v5.09c2.29,0,3.24-.1,3.44-.1.35,0,.4.05.4.38v1.44ZM662.91,85.82h-6.78v3.41h6.78v-3.41ZM662.91,91.06h-6.78v3.65h6.78v-3.65ZM667.6,69.36h-6.63v3.26h6.63v-3.26ZM667.6,74.64h-6.63v3.6h6.63v-3.6ZM672.83,85.82h-7.38v3.41h7.38v-3.41ZM672.83,91.06h-7.38v3.65h7.38v-3.65Z"/><path d="M727.43,73.87c0,.43-.15.48-.65.48-5.33-.14-10.22-.19-15.85,0,0,3.02,0,6.34.05,9.55.4,1.49.6,3.22.6,5.04,0,6.05-2.69,11.19-9.72,14.83-.5.29-.9.43-1.15.43-.3,0-.6-.14-.9-.38-.55-.48-1.45-1.06-2.29-1.34,7.13-2.83,10.42-7.25,10.87-12.1-1.1,1.82-3.24,2.74-5.48,2.74-3.44,0-6.58-2.21-6.58-6.77,0-4.08,3.14-6.67,6.83-6.67,1.89,0,3.64.53,4.69,1.63-.05-2.35-.05-4.51-.1-6.77-7.13.38-13.86.86-18.59,1.44-1.2.14-1.79.48-2.19.48-.3,0-.5-.14-.6-.48-.3-.62-.55-1.78-.8-3.07,1.69.1,3.34-.05,6.28-.29,4.04-.29,9.17-.62,15.8-1.01-.05-1.97-.05-2.93-.1-4.46-.05-1.2-.15-1.97-.5-3.22,1.5.1,2.94.34,3.79.53.55.14.9.38.9.72,0,.29-.15.53-.35.86-.2.34-.3.67-.35,1.3-.1,1.06-.1,1.97-.1,4.08,5.53-.14,10.42-.14,15.95-.14.45,0,.55.05.55.53v2.06ZM699.26,86.25c0,2.64,1.79,4.13,4.04,4.13,2.79,0,4.54-2.06,4.54-4.22,0-2.4-1.84-4.08-4.44-4.08-2.19,0-4.14,1.58-4.14,4.18Z"/><path d="M750.11,84.24c3.59-2.26,7.13-3.41,10.72-3.41,7.18,0,11.61,4.27,11.61,10.51,0,7.15-5.88,12.34-16.45,12.34-5.98,0-8.67-2.59-8.67-5.66,0-2.5,2.29-4.9,5.83-4.9,4.49,0,7.53,2.78,8.47,6.86,4.29-1.34,7.28-4.03,7.28-8.74s-3.89-7.87-8.62-7.87-9.87,2.45-13.71,5.42c-1.59,1.2-2.89,2.5-4.39,3.94-.4.38-.65.43-1,.1-.6-.58-1.35-1.3-1.84-1.92-.2-.24-.15-.43.2-.72,3.94-3.31,6.48-5.76,11.27-10.71,2.89-3.02,5.88-6.1,9.72-10.46-4.14.62-8.03,1.34-12.46,2.16-.65.1-1.25.24-1.75.43-.35.14-.75.24-.95.24-.35,0-.6-.19-.8-.58-.45-.86-.8-1.78-1.2-3.31,1.65.19,3.04.19,4.39.05,3.94-.38,8.03-.91,12.41-1.73.6-.1,1.2-.24,1.54-.43.2-.14.5-.34.7-.34.25,0,.5.1.9.38.95.72,1.7,1.44,2.14,2.02.25.29.35.58.35.82,0,.38-.25.72-.75.91-.65.19-1.2.53-2.34,1.68-4.44,4.51-7.78,7.87-12.76,12.77l.15.14ZM753.25,95.71c-1.59,0-3.04.77-3.04,2.26,0,1.58,1.79,2.93,5.13,2.93,1.1,0,2.09-.05,3.24-.24-.65-2.74-2.49-4.94-5.33-4.94Z"/><path d="M797.93,99.74c0,3.7-3.19,6.67-7.03,6.67s-7.03-2.98-7.03-6.67,3.19-6.67,7.03-6.67,7.03,2.98,7.03,6.67ZM786.46,99.74c0,2.35,1.99,4.27,4.44,4.27s4.44-1.92,4.44-4.27-1.94-4.27-4.44-4.27-4.44,1.92-4.44,4.27Z"/><path d="M751.51,310.2c4.39.72,8.13,4.13,8.13,9.31,0,5.71-4.29,10.71-12.66,10.71-3.74,0-7.13-1.15-8.82-2.3l1.25-3.07c1.35.86,4.34,2.16,7.63,2.16,6.28,0,8.33-4.22,8.33-7.54,0-5.28-4.64-7.68-9.52-7.68h-2.44v-2.98h2.44c3.59,0,8.22-2.16,8.22-6.67,0-3.12-1.94-5.81-6.43-5.81-2.74,0-5.33,1.3-6.83,2.35l-1.25-2.93c1.79-1.34,5.28-2.69,8.87-2.69,6.83,0,9.87,4.18,9.87,8.5,0,3.7-2.44,7.01-6.78,8.5v.14Z"/><path d="M823.6,319.56v3.17h-18.64v10.99h-3.39v-10.99h-23.63v-3.17h8.38v-13.2h15.25v-7.87h-12.86c-2.39,3.79-5.13,7.2-7.98,9.7-.6-.58-1.89-1.63-2.69-2.11,4.64-3.84,9.02-10.47,11.62-17.14l4.24,1.3c-.2.43-.65.53-1.15.43-.65,1.58-1.4,3.12-2.24,4.66h30.71v3.17h-16.25v7.87h15.15v3.07h-15.15v10.13h18.64ZM789.7,319.56h11.86v-10.13h-11.86v10.13Z"/><path d="M837.51,321.67c3.69-1.06,7.68-2.21,11.57-3.36l.5,3.02c-7.33,2.3-15.15,4.75-20.09,6.19,0,.38-.3.67-.65.77l-1.59-3.79c1.89-.48,4.19-1.1,6.73-1.82l-.65-31.01c2.54.19,3.54.24,4.54.29-.05.34-.35.58-1,.67l.65,29.04ZM870.11,292.24c-.1.43-.45.62-1.15.67-1.35,10.71-3.44,19.2-7.33,25.87,4.44,4.13,9.82,9.36,12.61,12.67l-2.94,2.4c-2.49-3.17-7.33-8.11-11.57-12.19-3.99,5.38-9.52,9.36-17.3,12.24-.5-.72-1.64-1.97-2.44-2.64,17.55-5.9,23.13-18.19,25.52-39.7l4.59.67ZM847.13,294.69c3.39,3.5,6.68,8.31,8.08,11.67l-3.24,1.63c-1.25-3.36-4.54-8.35-7.83-11.9l2.99-1.39Z"/><path d="M920.72,297.48v31.88c0,2.26-.55,3.31-2.24,3.89-1.69.53-4.79.58-9.32.58-.15-.96-.7-2.4-1.2-3.31,1.84.05,3.64.1,5.08.1,4.14,0,4.34,0,4.34-1.25v-28.71h-15.6c-.1,1.97-.35,4.03-.85,6.14,5.18,4.37,11.42,10.18,14.56,13.87l-2.74,2.06c-2.74-3.31-7.98-8.54-12.81-12.82-1.84,4.85-5.53,9.65-12.71,13.68-.5-.72-1.6-1.87-2.39-2.45,11.37-5.9,13.26-14.02,13.56-20.5h-14.81v33.17h-3.34v-36.34h18.2v-8.4l4.39.29c-.05.34-.3.58-1,.67v7.44h18.89Z"/><line x1=".01" y1="406.55" x2="1277.79" y2="405.16" style="stroke:#000; stroke-miterlimit:10; stroke-width:20px;"/><polygon points="1109.89 411.98 1141.05 465.96 1078.73 465.96 1109.89 411.98" style="stroke:#231815; stroke-linecap:round; stroke-miterlimit:10;"/><line x1="1109.89" y1="399.72" x2="1109.89" y2="334.44" style="stroke:#231815; stroke-linecap:round; stroke-miterlimit:10; stroke-width:10px;"/><line x1="409.35" y1="390" x2="720.31" y2="311.4" style="stroke:#231815; stroke-linecap:round; stroke-miterlimit:10;"/><line x1="931.24" y1="313.49" x2="1097.91" y2="388.49" style="stroke:#231815; stroke-linecap:round; stroke-miterlimit:10;"/><line x1="399.29" y1="450.18" x2="399.29" y2="341.15" style="stroke:#231815; stroke-linecap:round; stroke-miterlimit:10; stroke-width:10px;"/><path d="M1021.14,298.6c4.22.72,7.83,4.13,7.83,9.31,0,5.71-4.13,10.71-12.19,10.71-3.6,0-6.86-1.15-8.5-2.3l1.2-3.07c1.3.86,4.18,2.16,7.34,2.16,6.05,0,8.02-4.22,8.02-7.54,0-5.28-4.46-7.68-9.17-7.68h-2.35v-2.98h2.35c3.46,0,7.92-2.16,7.92-6.67,0-3.12-1.87-5.81-6.19-5.81-2.64,0-5.14,1.3-6.58,2.35l-1.2-2.93c1.73-1.34,5.09-2.69,8.54-2.69,6.58,0,9.5,4.18,9.5,8.5,0,3.7-2.35,7.01-6.53,8.5v.14Z"/><path d="M1083.93,280.12v37.25c0,2.5-.67,3.6-2.45,4.18-1.78.58-4.99.62-10.22.58-.24-.91-.86-2.45-1.39-3.41,2.3.1,4.51.14,6.24.14,4.18,0,4.46,0,4.46-1.49v-10.71h-23.76c-1.25,5.62-3.74,11.28-8.83,15.55-.48-.72-1.68-1.92-2.4-2.4,8.26-7.01,9.07-16.95,9.07-24.91v-14.79h29.28ZM1057.91,294.91c0,2.45-.1,5.47-.53,8.64h23.19v-8.64h-22.66ZM1080.57,283.29h-22.66v8.54h22.66v-8.54Z"/><path d="M1119.59,298.6c4.22.72,7.83,4.13,7.83,9.31,0,5.71-4.13,10.71-12.19,10.71-3.6,0-6.87-1.15-8.5-2.3l1.2-3.07c1.3.86,4.18,2.16,7.34,2.16,6.05,0,8.02-4.22,8.02-7.54,0-5.28-4.46-7.68-9.17-7.68h-2.35v-2.98h2.35c3.46,0,7.92-2.16,7.92-6.67,0-3.12-1.87-5.81-6.19-5.81-2.64,0-5.14,1.3-6.58,2.35l-1.2-2.93c1.73-1.34,5.09-2.69,8.54-2.69,6.58,0,9.5,4.18,9.5,8.5,0,3.7-2.35,7.01-6.53,8.5v.14Z"/><path d="M1143.44,318.05v-32.21h-.1l-5.9,3.41-.96-2.98,7.44-4.18h3.41v35.96h-3.89Z"/><path d="M1178.1,280.65h31.16v40.42h-3.36v-2.88h-24.48v3.17h-3.31v-40.71ZM1205.89,283.92h-24.48v13.78h24.48v-13.78ZM1181.41,314.93h24.48v-14.07h-24.48v14.07Z"/><path d="M357.6,244.15h-23.81v23.04h-3.12v-5.62c-5.71.86-11.38,1.63-15.12,2.11-.05.34-.34.58-.67.62l-1.1-3.36,4.61-.48v-16.32h-4.42v-2.74h43.64v2.74ZM351.31,224.66v13.63h-31.06v-13.63h31.06ZM330.67,247.56v-3.41h-9.27v3.41h9.27ZM330.67,253.56v-3.5h-9.27v3.5h9.27ZM321.41,256.05v4.08c2.93-.34,6.1-.67,9.27-1.06v-3.02h-9.27ZM348.1,230.27v-3.26h-24.72v3.26h24.72ZM348.1,235.94v-3.36h-24.72v3.36h24.72ZM353.38,247.32l2.06.82c-.14.29-.29.38-.43.58-1.44,4.42-3.89,8.16-6.87,11.19,2.78,2.16,6.14,3.74,9.89,4.7-.72.62-1.54,1.78-1.97,2.54-3.84-1.1-7.25-2.93-10.13-5.28-2.83,2.35-6.1,4.13-9.41,5.38-.38-.77-1.2-1.92-1.82-2.54,3.17-1.01,6.29-2.69,9.02-4.9-2.5-2.54-4.46-5.62-5.86-9.12l1.87-.58h-4.56v-2.69h17.62l.58-.1ZM340.61,250.1c1.2,2.98,2.98,5.62,5.28,7.82,2.21-2.21,4.08-4.85,5.33-7.82h-10.61Z"/><path d="M381.36,242.8c-.19.19-.58.29-.96.24-.96,1.25-2.54,3.07-3.89,4.42,1.63,1.73,3.22,3.41,3.79,4.08l-1.97,2.4c-1.1-1.54-3.74-4.75-5.76-7.01v20.26h-3.22v-18.58c-2.21,2.45-4.51,4.61-6.77,6.34-.34-.77-1.25-2.21-1.82-2.78,5.52-3.84,11.47-10.71,14.69-17.62h-13.3v-2.98h7.2v-8.98l4.13.24c-.05.34-.29.58-.91.67v8.06h4.61l.58-.14,2.21,1.3c-.1.24-.38.43-.67.48-1.49,3.7-3.7,7.39-6.19,10.8.53.48,1.2,1.15,1.92,1.92,1.25-1.58,2.83-3.74,3.7-5.23l2.64,2.11ZM403.35,227.15l1.78.14c-.05.24-.05.77-.1,1.15-.53,25.54-1.06,33.75-2.93,36.15-1.15,1.63-2.35,2.11-6,2.11-1.39,0-3.02-.05-4.56-.14-.1-.96-.48-2.35-1.06-3.31,3.07.24,5.71.24,6.91.24.77,0,1.25-.19,1.68-.82,1.54-1.73,2.16-9.89,2.69-32.4h-10.37c-.43,13.06-1.25,28.8-12.82,36.96-.58-.77-1.63-1.82-2.5-2.4,10.85-7.2,11.76-21.75,12-34.56h-8.54v-3.07h23.04l.77-.05Z"/><path d="M434.54,231.33c-.19.43-.58.77-1.2.77-1.73,14.93-6.72,27.94-14.69,27.94-4.03,0-7.68-4.03-7.68-11.62,0-11.52,8.98-21.17,21.6-21.17,13.87,0,19.87,8.78,19.87,18.15,0,11.42-6.62,16.95-18.24,19.63-.43-.77-1.25-2.06-2.02-2.93,11.04-2.11,16.71-7.49,16.71-16.56,0-7.92-5.09-15.12-16.32-15.12-.48,0-1.01.05-1.44.1l3.41.82ZM429.94,230.71c-9.7,1.2-15.7,9.22-15.7,17.62,0,5.14,2.21,8.35,4.51,8.35,5.81,0,9.98-12.82,11.18-25.97Z"/><path d="M332.21,323.11h-3.79v-10.08h-15.7v-2.54l15.36-23.33h4.13v22.8h4.9v3.07h-4.9v10.08ZM316.75,309.96h11.67v-12.77c0-1.97.1-3.89.19-5.76h-.19c-1.1,2.21-1.97,3.74-2.88,5.38l-8.79,13.06v.1Z"/><path d="M389.62,285.19v37.25c0,2.5-.67,3.6-2.45,4.18-1.78.58-4.99.62-10.22.58-.24-.91-.86-2.45-1.39-3.41,2.3.1,4.51.14,6.24.14,4.18,0,4.46,0,4.46-1.49v-10.71h-23.76c-1.25,5.62-3.74,11.28-8.83,15.55-.48-.72-1.68-1.92-2.4-2.4,8.26-7.01,9.07-16.95,9.07-24.92v-14.79h29.28ZM363.6,299.97c0,2.45-.1,5.47-.53,8.64h23.19v-8.64h-22.66ZM386.26,288.35h-22.66v8.54h22.66v-8.54Z"/><path d="M422.69,323.11v-32.21h-.1l-5.9,3.41-.96-2.98,7.44-4.18h3.41v35.96h-3.89Z"/><path d="M457.34,285.71h31.16v40.42h-3.36v-2.88h-24.48v3.17h-3.31v-40.71ZM485.14,288.98h-24.48v13.78h24.48v-13.78ZM460.65,319.99h24.48v-14.07h-24.48v14.07Z"/><polygon points="176.31 340.1 145.15 394.07 113.99 340.1 176.31 340.1" style="fill:#e6e6e6; stroke:#000; stroke-linecap:round; stroke-miterlimit:10; stroke-width:6px;"/><line x1="427.57" y1="485.73" x2="470.68" y2="450.18" style="fill:none;"/><path d="M1059.48,505.76l2.4,1.39c-.1.24-.38.38-.67.48-2.54,5.04-6.43,9.02-11.14,12.1,5.28,2.45,11.52,4.13,18.39,4.99-.72.77-1.58,2.16-2.06,3.12-7.39-1.1-14.02-3.17-19.58-6.19-5.67,2.98-12.24,4.94-19.11,6.19-.38-.86-1.25-2.3-1.92-3.02,6.38-.96,12.58-2.59,17.86-5.09-3.98-2.69-7.25-5.95-9.7-9.89l2.54-1.06h-4.9v-2.88h27.27l.62-.14ZM1029,500.04v7.25h-3.07v-10.13h7.82c-.62-1.82-2.02-4.42-3.31-6.38l2.88-.86c1.44,2.06,2.98,4.85,3.55,6.62l-1.82.62h20.35c1.68-2.45,3.7-6.05,4.85-8.54l3.84,1.44c-.14.29-.53.38-1.01.38-1.06,1.97-2.74,4.56-4.27,6.72h8.69v10.13h-3.17v-7.25h-35.33ZM1064.66,485.93c-.14.1-.29.14-.53.14-.14,0-.29-.05-.48-.1-8.78,1.78-23.86,3.07-36.48,3.6-.05-.82-.48-2.02-.77-2.78,12.53-.53,27.55-1.87,35.81-3.65l2.45,2.78ZM1036.92,508.78c2.35,3.7,5.76,6.77,9.99,9.26,4.08-2.4,7.49-5.47,9.79-9.26h-19.78ZM1046.04,489.15c1.15,2.26,2.35,5.33,2.69,7.15l-3.12.82c-.29-1.92-1.39-4.99-2.5-7.34l2.93-.62Z"/><path d="M1072.29,494.04v-2.74h16.18v2.74h-16.18ZM1087.41,511.28v14.11h-10.32v2.26h-2.78v-16.37h13.11ZM1087.22,498.03v2.64h-12.87v-2.64h12.87ZM1074.35,507.29v-2.64h12.87v2.64h-12.87ZM1087.08,484.83v2.64h-12.43v-2.64h12.43ZM1084.58,514.01h-7.49v8.64h7.49v-8.64ZM1117.17,517.18v2.74h-2.98v4.37c0,3.22-1.39,3.41-8.26,3.41-.1-.82-.48-1.92-.86-2.69,1.44.05,2.78.1,3.74.1,2.11,0,2.35,0,2.35-.86v-4.32h-16.13v7.78h-2.83v-7.78h-3.31v-2.74h3.31v-12.38h9.31v-2.98h-12.62v-2.64h7.25v-3.5h-4.94v-2.5h4.94v-3.26h-5.9v-2.54h5.9v-4.27l3.89.29c-.05.29-.29.53-.91.62v3.36h8.16v-4.27l3.89.29c-.05.29-.29.53-.91.62v3.36h6.1v2.54h-6.1v3.26h5.18v2.5h-5.18v3.5h6.82v2.64h-12.77v2.98h9.89v12.38h2.98ZM1101.52,507.24h-6.48v3.89h6.48v-3.89ZM1095.04,513.48v3.7h6.48v-3.7h-6.48ZM1099.13,489.91v3.26h8.16v-3.26h-8.16ZM1099.13,495.67v3.5h8.16v-3.5h-8.16ZM1111.17,507.24h-6.86v3.89h6.86v-3.89ZM1104.31,517.18h6.86v-3.7h-6.86v3.7Z"/><path d="M1144.44,512.86v2.93h-24.15v-2.93h4.85v-20.26h-4.18v-2.93h4.18v-6l3.89.24c-.05.34-.29.53-.91.62v5.14h9.36v-6l3.94.24c-.05.34-.29.58-.91.62v5.14h3.65v2.93h-3.65v20.26h3.94ZM1130.95,518.19c-.14.29-.48.43-1.01.43-1.68,3.22-4.37,6.77-6.96,9.02-.58-.53-1.68-1.39-2.4-1.82,2.5-2.02,5.09-5.47,6.62-8.88l3.74,1.25ZM1137.48,492.6h-9.36v4.75h9.36v-4.75ZM1128.12,500.04v4.85h9.36v-4.85h-9.36ZM1128.12,507.53v5.33h9.36v-5.33h-9.36ZM1163.45,485.55v38.07c0,3.89-1.78,4.18-8.98,4.08-.1-.82-.58-2.26-1.01-3.12,1.54.05,3.02.1,4.13.1,2.45,0,2.74,0,2.74-1.06v-12.53h-10.95c-.58,5.95-2.06,12.24-5.66,16.9-.48-.62-1.78-1.58-2.5-1.92.48-.58.91-1.2,1.34-1.87-.1,0-2.16,1.25-2.64,1.54-.91-1.97-3.07-5.18-4.99-7.44l2.54-1.39c1.92,2.26,4.08,5.23,5.09,7.2,3.74-6.29,4.13-14.45,4.13-20.88v-17.67h16.75ZM1149.72,503.21c0,1.54-.05,3.22-.14,4.94h10.75v-8.45h-10.61v3.5ZM1160.33,488.52h-10.61v8.26h10.61v-8.26Z"/><path d="M1183.27,485.07l2.16,1.3c-.1.14-.24.34-.43.43-1.39,3.7-3.41,8.59-5.28,12.53,4.08,3.94,5.52,7.25,5.52,10.42,0,7.01-4.66,6.82-8.74,6.67-.05-.86-.38-2.11-.82-2.88,1.3.1,2.54.1,3.46.1.67-.1,1.25-.24,1.78-.53.86-.48,1.25-1.87,1.25-3.36s-.1-4.9-5.57-10.03c1.68-3.65,3.41-8.21,4.61-11.57h-7.78v39.6h-3.02v-42.53h12.34l.53-.14ZM1199.64,506.76c.72,2.59,1.68,5.09,2.83,7.3,2.3-1.82,4.94-4.27,6.58-6.14l2.98,2.3c-.14.19-.53.29-.96.24-1.82,1.78-4.8,4.18-7.25,5.95,2.35,3.79,5.47,6.72,9.31,8.45-.72.62-1.68,1.82-2.16,2.69-7.25-3.65-11.81-11.23-14.21-20.79h-5.52v15.36l9.22-1.97.24,2.88c-5.95,1.39-12.29,2.88-16.23,3.74-.05.34-.29.62-.62.72l-1.39-3.65c1.58-.29,3.5-.67,5.62-1.1v-37.49h21.79v21.51h-10.23ZM1206.65,488.14h-15.41v6.34h15.41v-6.34ZM1191.24,497.26v6.62h15.41v-6.62h-15.41Z"/><path d="M112.16,300.19l2.4,1.39c-.1.24-.38.38-.67.48-2.54,5.04-6.43,9.02-11.14,12.1,5.28,2.45,11.52,4.13,18.39,4.99-.72.77-1.58,2.16-2.06,3.12-7.39-1.1-14.02-3.17-19.59-6.19-5.66,2.98-12.24,4.94-19.11,6.19-.38-.86-1.25-2.3-1.92-3.02,6.38-.96,12.58-2.59,17.86-5.09-3.98-2.69-7.25-5.95-9.7-9.89l2.54-1.06h-4.9v-2.88h27.27l.62-.14ZM81.68,294.48v7.25h-3.07v-10.13h7.82c-.62-1.82-2.02-4.42-3.31-6.38l2.88-.86c1.44,2.06,2.98,4.85,3.55,6.62l-1.82.62h20.35c1.68-2.45,3.7-6.05,4.85-8.54l3.84,1.44c-.14.29-.53.38-1.01.38-1.06,1.97-2.74,4.56-4.27,6.72h8.69v10.13h-3.17v-7.25h-35.33ZM117.35,280.36c-.14.1-.29.14-.53.14-.14,0-.29-.05-.48-.1-8.78,1.78-23.86,3.07-36.48,3.6-.05-.82-.48-2.02-.77-2.78,12.53-.53,27.55-1.87,35.81-3.65l2.45,2.78ZM89.6,303.21c2.35,3.7,5.76,6.77,9.98,9.27,4.08-2.4,7.49-5.47,9.79-9.27h-19.78ZM98.72,283.58c1.15,2.26,2.35,5.33,2.69,7.15l-3.12.82c-.29-1.92-1.39-4.99-2.5-7.34l2.93-.62Z"/><path d="M124.98,288.48v-2.74h16.18v2.74h-16.18ZM140.1,305.71v14.11h-10.32v2.26h-2.78v-16.37h13.1ZM139.9,292.46v2.64h-12.87v-2.64h12.87ZM127.04,301.72v-2.64h12.87v2.64h-12.87ZM139.76,279.26v2.64h-12.43v-2.64h12.43ZM137.26,308.45h-7.49v8.64h7.49v-8.64ZM169.86,311.61v2.74h-2.98v4.37c0,3.22-1.39,3.41-8.26,3.41-.1-.82-.48-1.92-.86-2.69,1.44.05,2.78.1,3.74.1,2.11,0,2.35,0,2.35-.86v-4.32h-16.13v7.78h-2.83v-7.78h-3.31v-2.74h3.31v-12.38h9.31v-2.98h-12.62v-2.64h7.25v-3.5h-4.94v-2.5h4.94v-3.26h-5.9v-2.54h5.9v-4.27l3.89.29c-.05.29-.29.53-.91.62v3.36h8.16v-4.27l3.89.29c-.05.29-.29.53-.91.62v3.36h6.1v2.54h-6.1v3.26h5.18v2.5h-5.18v3.5h6.82v2.64h-12.77v2.98h9.89v12.38h2.98ZM154.21,301.68h-6.48v3.89h6.48v-3.89ZM147.73,307.92v3.7h6.48v-3.7h-6.48ZM151.81,284.35v3.26h8.16v-3.26h-8.16ZM151.81,290.11v3.5h8.16v-3.5h-8.16ZM163.86,301.68h-6.86v3.89h6.86v-3.89ZM156.99,311.61h6.86v-3.7h-6.86v3.7Z"/><path d="M180.03,280.65h31.15v40.42h-3.36v-2.88h-24.48v3.17h-3.31v-40.71ZM207.83,283.92h-24.48v13.78h24.48v-13.78ZM183.34,314.93h24.48v-14.07h-24.48v14.07Z"/></svg>