<?xml version="1.0" encoding="UTF-8"?><svg id="_レイヤー_2" xmlns="http://www.w3.org/2000/svg" viewBox="0 0 1571.34 560"><g id="_レイヤー_1-2"><rect x="11.34" width="1560" height="560" rx="18" ry="18" fill="#cde3f9"/><text transform="translate(80.44 108.64)" font-family="KozMinPr6N-Regular-83pv-RKSJ-H, &apos;Kozuka Mincho Pr6N&apos;"><tspan x="0" y="0" font-size="86"> </tspan><tspan x="23.91" y="-5.32" font-size="72">同一場所で危険</tspan><tspan x="527.91" y="-5.32" font-size="72" letter-spacing=".25em">物</tspan><tspan x="617.91" y="-5.32" font-size="72">A・</tspan><tspan x="736.42" y="-5.32" font-size="72" letter-spacing=".25em">Bの2</tspan><tspan x="950.12" y="-5.32" font-size="72">種類を貯蔵し</tspan><tspan x="1382.12" y="-5.32" font-size="72" letter-spacing="-.5em">、</tspan><tspan font-size="72"><tspan x="0" y="73.68" xml:space="preserve"> または 取り扱う場合</tspan></tspan></text><text transform="translate(700.09 360.23)" font-family="KozMinPr6N-Regular-83pv-RKSJ-H, &apos;Kozuka Mincho Pr6N&apos;" font-size="72"><tspan x="0" y="0"> </tspan><tspan x="20.02" y="0" letter-spacing=".25em">A</tspan><tspan x="84.53" y="0">貯蔵量</tspan></text><text transform="translate(664.16 497.35)" font-family="KozMinPr6N-Regular-83pv-RKSJ-H, &apos;Kozuka Mincho Pr6N&apos;" font-size="72"><tspan x="0" y="0"> </tspan><tspan x="20.02" y="0" letter-spacing=".25em">A</tspan><tspan x="84.53" y="0">指定数量</tspan></text><text transform="translate(0 413.72)" font-family="KozMinPr6N-Regular-83pv-RKSJ-H, &apos;Kozuka Mincho Pr6N&apos;" font-size="86"><tspan x="0" y="0" xml:space="preserve"> 指定数量の倍</tspan><tspan x="539.91" y="0" letter-spacing=".25em">数</tspan><tspan x="647.41" y="0" letter-spacing="0em">= </tspan></text><text/><text transform="translate(1166.88 352.31)" font-family="KozMinPr6N-Regular-83pv-RKSJ-H, &apos;Kozuka Mincho Pr6N&apos;" font-size="72"><tspan x="0" y="0"> </tspan><tspan x="20.02" y="0" letter-spacing=".25em">B</tspan><tspan x="81.5" y="0">貯蔵量</tspan></text><text transform="translate(1141.23 491.3)" font-family="KozMinPr6N-Regular-83pv-RKSJ-H, &apos;Kozuka Mincho Pr6N&apos;" font-size="72"><tspan x="0" y="0"> </tspan><tspan x="20.02" y="0" letter-spacing=".25em">B</tspan><tspan x="81.5" y="0">指定数量</tspan></text><line x1="715.41" y1="390.5" x2="1036.96" y2="390.5" fill="none" stroke="#000" stroke-miterlimit="10" stroke-width="5"/><line x1="1179.6" y1="390.5" x2="1501.15" y2="390.5" fill="none" stroke="#000" stroke-miterlimit="10" stroke-width="5"/><text transform="translate(1075.49 412.95)" font-family="KozGoPr6N-Regular-83pv-RKSJ-H, &apos;Kozuka Gothic Pr6N&apos;" font-size="72"><tspan x="0" y="0">＋</tspan></text></g></svg>