<?xml version="1.0" encoding="UTF-8"?><svg id="_レイヤー_1" xmlns="http://www.w3.org/2000/svg" viewBox="0 0 604 503"><defs><style>.cls-1{fill:#f1f1f1;}.cls-2{fill:#e0e0e0;}.cls-3{fill:#2b2b2b;}.cls-4{fill:#ced6de;}.cls-5{fill:#5e917b;}.cls-6{fill:#6c839c;}.cls-7{fill:#6d6d6d;}.cls-8{fill:#dae1e8;}.cls-9{fill:#dfdfdf;}.cls-10{fill:#90aac5;}.cls-11{fill:#3669e3;}.cls-12{fill:#151515;}.cls-13{fill:#6c6c6c;}.cls-14{fill:#b2403a;}.cls-15{fill:#f4f4f5;}.cls-16{fill:#6c727f;}.cls-17{fill:#232323;}.cls-18{fill:#393939;}.cls-19{fill:#ced3d8;}.cls-20{fill:#939393;}.cls-21{fill:#3568e3;}.cls-22{fill:#ced5dc;}.cls-23{fill:#545454;}.cls-24{fill:#e3e3e3;}.cls-25{fill:#d2d2d2;}.cls-26{fill:#f5f5f6;}.cls-27{fill:#727272;}.cls-28{fill:#777;}.cls-29{fill:#707070;}.cls-30{fill:#687e95;}.cls-31{fill:#c3c9d0;}.cls-32{fill:#3b6ce3;}.cls-33{fill:#d1d4da;}.cls-34{fill:#dde6ed;}.cls-35{fill:#d0d0d0;}.cls-36{fill:#ae6433;}.cls-37{fill:#6f87a0;}.cls-38{fill:#a0b6cb;}.cls-39{fill:#767676;}.cls-40{fill:#7a7a7a;}.cls-41{fill:#efefef;}.cls-42{fill:#c9cfd5;}.cls-43{fill:#dde4ec;}.cls-44{fill:#ac2d24;}.cls-45{fill:#e4e4e4;}.cls-46{fill:#f6f6f6;}.cls-47{fill:#ebebeb;}.cls-48{fill:#454545;}.cls-49{fill:#d9d9d9;}.cls-50{fill:#dbdbdb;}.cls-51{fill:#2c2c2c;}.cls-52{fill:#171717;}.cls-53{fill:#2e5faf;}.cls-54{fill:#b7754b;}.cls-55{fill:#97a3c4;}.cls-56{fill:#5ab445;}.cls-57{fill:#3b3b3b;}.cls-58{fill:#a75823;}.cls-59{fill:#d6dee6;}.cls-60{fill:#f9fafa;}.cls-61{fill:#3e3e3e;}.cls-62{fill:#212121;}.cls-63{fill:#e5e5e5;}.cls-64{fill:#ccc;}.cls-65{fill:#757575;}.cls-66{fill:#d8d8d8;}.cls-67{fill:#143792;}.cls-68{fill:#dedede;}.cls-69{fill:#a0a0a0;}.cls-70{fill:#373737;}.cls-71{fill:#696969;}.cls-72{fill:#272727;}.cls-73{fill:#575757;}.cls-74{fill:#5d5d5d;}.cls-75{fill:#303030;}.cls-76{fill:#4f4f4f;}.cls-77{fill:#c7c7c7;}.cls-78{fill:#797979;}.cls-79{fill:#7b95b0;}.cls-80{fill:#ddd;}.cls-81{fill:#141414;}.cls-82{fill:#717171;}.cls-83{fill:#72869c;}.cls-84{fill:#4b78e6;}.cls-85{fill:#e7e7e7;}.cls-86{fill:#464646;}.cls-87{fill:#101d19;}.cls-88{fill:#6f6f6f;}.cls-89{fill:#7d7d7d;}.cls-90{fill:#121212;}.cls-91{fill:#0a2e8d;}.cls-92{fill:#d5dce3;}.cls-93{fill:#233c84;}.cls-94{fill:#96b0f0;}.cls-95{fill:#343434;}.cls-96{fill:#f9f9f9;}.cls-97{fill:#f0f0f0;}.cls-98{fill:#666;}.cls-99{fill:#242424;}.cls-100{fill:#bcbcbc;}.cls-101{fill:#717783;}.cls-102{fill:#3266e2;}.cls-103{fill:#cdcdcd;}.cls-104{fill:#60927e;}.cls-105{fill:#bababa;}.cls-106{fill:#fafafa;}.cls-107{fill:#a8281e;}.cls-108{fill:#061711;}.cls-109{fill:#e9e9e9;}.cls-110{fill:#02081d;}.cls-111{fill:#f8f8f8;}.cls-112{fill:#7e7e7e;}.cls-113{fill:#878787;}.cls-114{fill:#797e8a;}.cls-115{fill:#f8f9fa;}.cls-116{fill:#f7f7f7;}.cls-117{fill:#2f4e9f;}.cls-118{fill:#a3a3a3;}.cls-119{fill:#282828;}.cls-120{fill:#858585;}.cls-121{fill:#8b8b8b;}.cls-122{fill:#fefefe;}.cls-123{fill:#747474;}.cls-124{fill:#7b92ab;}.cls-125{fill:#2a61bb;}.cls-126{fill:#6e86a0;}.cls-127{fill:#c5d3e2;}.cls-128{fill:#ccd2d8;}.cls-129{fill:#85a0bc;}.cls-130{fill:#f2f2f2;}.cls-131{fill:#6b6b6b;}.cls-132{fill:#dce3ea;}.cls-133{fill:#f5f5f5;}.cls-134{fill:#e1e1e1;}.cls-135{fill:#949494;}.cls-136{fill:#7f7f7f;}.cls-137{fill:#8d8d8d;}.cls-138{fill:#131313;}.cls-139{fill:#8c8c8c;}.cls-140{fill:#f3f3f3;}.cls-141{fill:#fbfbfb;}.cls-142{fill:#fcfcfc;}.cls-143{fill:#252525;}.cls-144{fill:#3956a3;}.cls-145{fill:#eef1fd;}.cls-146{fill:#494949;}.cls-147{fill:#86a1bd;}.cls-148{fill:#090f20;}.cls-149{fill:#737373;}.cls-150{fill:#6e6e6e;}.cls-151{fill:#6a6a6a;}.cls-152{fill:#e0e7ee;}.cls-153{fill:#191919;}.cls-154{fill:#c4c9cf;}.cls-155{fill:#353535;}.cls-156{fill:#ededed;}.cls-157{fill:#849cb5;}.cls-158{fill:#787878;}.cls-159{fill:#333;}.cls-160{fill:#4b4b4b;}.cls-161{fill:#d3d3d3;}.cls-162{fill:#75879a;}.cls-163{fill:#dadada;}.cls-164{fill:#afc3d4;}.cls-165{fill:#ab3d37;}.cls-166{fill:#484848;}.cls-167{fill:#eee;}.cls-168{fill:#5b8f79;}.cls-169{fill:#b6b6b6;}.cls-170{fill:#161616;}.cls-171{fill:#101529;}.cls-172{fill:#4c4c4c;}.cls-173{fill:#434343;}.cls-174{fill:#e8e8e8;}.cls-175{fill:#91abc6;}.cls-176{fill:#ececec;}.cls-177{fill:#347659;}.cls-178{fill:#7b7b7b;}.cls-179{fill:#fdfdfd;}</style></defs><path class="cls-179" d="M601,0l1,.48v501.89l-1,.63H1l-.5-.16V.36l.5-.36h600Z"/><rect class="cls-111" x="601" width="3" height="503"/><rect class="cls-111" width="1" height="503"/><path class="cls-145" d="M117,94c-.21.77-.54,1.27-1,1.5.12,1.91-2.86,2.69-4.5,2.82-5.5.42-11.2.85-16.83.75-18.32-.69-36.64-.88-54.95-.55-1.81-.02-5.78-.89-5.72-3.02-.43-.15-.76-.65-1-1.5-.46-5.26-.64-17.66.04-22.71.51-3.75,3.88-6.74,7.69-6.81,22.16,1.28,46.09-1.63,68.04,0,3.72.28,7.18,2.05,8.01,5.99.89,4.22.63,18.81.22,23.53Z"/><path class="cls-45" d="M78.5,130c-2.49-.03-5.01.03-7.5,0v-1s498,0,498,0c-.25,76.49.33,153.01,0,229.5-.14.44-.31.43-.5,0l-1-.34v-44.05l1-.6-.48,1h-161.4l-.62-1,1,.34v44.05l-1,.6c-.3.72-.7.72-1,0l-1-.34v-43.34c-6.67-.38-13.48-.49-20.41-.32l-.59-1c-.4-.13-.35-.73,0-1-.03-.24-.03-.46.04-.67.34-1.02,19.63-.63,21.37-.33l.59,1-1-.34v-43.55l1-.61-.35,1h-116.03l-.62-1c1.44.34,1.51,3.68,0,4-.14.44-.31.43-.5,0l-1-.86.09-8.25.91-.88c2.1-.82,2.17,4.48.5,5l.35-1h116.03l.62,1-1-.34v-44.05l1-.6-.48,1h-160.9l-.62-1,1,.46v34.44l-1,.6c-.28.96-.72.96-1,0l-1-.46c.09-11.38.03-22.72-.17-34.04H80.12s-.62-1-.62-1c-.75-.01-.73-.81,0-1l.48-1h161.4l.62,1-1-.34v-44.05l1-.6-.48,1H80.12l-.62-1c-.75-.01-.73-.81,0-1l.48-1h161.4l.62,1-1-.34v-44.05l1-.6-8.13.62c-48.75.63-97.51.67-146.26.1l-8.12-.73c-.27.97-.73.97-1,0Z"/><path class="cls-103" d="M79.5,130c.39,0,.99.1,1,.34.32,14.37.32,29.68,0,44.05l-1,.6v1c.39,0,.99.1,1,.34.32,14.37.32,29.68,0,44.05l-1,.6v1c.98,14.99.98,30.01,0,45,.96.28.96.72,0,1,1.24,14.82,1.22,29.67,0,44.5.96.28.96.72,0,1,1.32,14.81,1.25,29.68.63,44.52,7.28-.72,14.64-.88,21.87.48.09-.45.26-.43.5,0,.09-.45.26-.43.5,0,38.32-1.37,76.68-1.37,115,0,.09-.45.26-.43.5,0,.28-.96.72-.96,1,0,7.23-1.39,14.57-1.18,21.85-.43-.65-14.86-.17-29.72.65-44.57-1.33-.16-1.27-.62,0-1,.16-1.33.62-1.27,1,0,1.33.16,1.27.62,0,1,.98,14.99.98,30.01,0,45-.03-.24-.03-.46.04-.67.34-1.02,19.63-.63,21.37-.33l.59,1c-.98-14.99-.98-30.01,0-45-1.33-.16-1.27-.62,0-1-1.64-.82-1.57-7.03,0-8,.09-.45.26-.43.5,0,.06,18.36.23,36.36.5,54,.14-.44.31-.43.5,0l.35-1h114.03l.62,1c.14-.44.31-.43.5,0,.21-27.22.38-54.88.5-83,1.15-.89,1.51.07,1.56,1.28l-.05,28.87c-.13,2.31-.47,4.59-1.01,6.84v1c.82,14.85,1.3,29.71.65,44.58,7.11-.76,14.28-.96,21.35.42.33,0,.67,0,1,0,7.47-1.36,15.03-1.38,22.5,0,.28-.96.72-.96,1,0,.09-.45.26-.43.5,0,38.32-1.42,76.68-1.45,115,0,.14-.44.31-.43.5,0,.14-.44.31-.43.5,0-.03-.24-.03-.46.04-.67.35-1.04,19.97-.62,21.87-.33l.59,1h.5c0,2.24.09,4.52,0,6.75-.03.62.38,1.86-.5,1.75v-7.5c-54.16,0-108.34.01-162.5,0-.28.96-.72.96-1,0-53.99-.01-108.01,0-162,0-.16,1.33-.62,1.27-1,0-54.15,0-108.36.48-162.5,0-.28.96-.72.96-1,0-.96-.28-.96-.72,0-1-.13-14.99,0-30.01,0-45-.96-.28-.96-.72,0-1,0-14.82,0-29.68,0-44.5-.96-.28-.96-.72,0-1,0-14.99,0-30.01,0-45-1.33-.16-1.27-.62,0-1v-45c-1.33-.16-1.27-.62,0-1v-45c.26,0,.73,0,1,0Z"/><path class="cls-16" d="M38.5,101.5l4.82-.73c19.31-.69,38.69-.5,58.02-.28,1.61.02,3.22.17,4.83.34s3.22.41,4.83.67c35.06-.02,70.14.02,105.21,0l.29,2.01H33c-.1,0-.07-1.93,0-2,.19-.2,4.63.01,5.5,0Z"/><path class="cls-102" d="M116,95.5c.45-.6.62-.44.5.5-.98,3.03-2.68,4.17-5.5,5.5-24.14.01-48.36-.36-72.5,0-2.47-1.64-4.05-2.55-5-5.5-.09-.57-.07-.73.5-.5,1.31,1.16,3.97,1.86,5.73,2.02,22.76-1.38,47.52,1.76,70.04,0,1.87-.15,4.84-.68,6.23-2.02Z"/><path class="cls-33" d="M40.87,455.12l103.16.1c3.54.89,6.73,3.96,7.35,7.65.58,3.46.59,18.32-.1,21.66-.81,3.94-4.55,7.02-8.53,7.47l-102.28-.22c-3.44-.88-6.53-3.74-7.25-7.25s-.62-19.71.25-22.8c.97-3.41,4.02-5.82,7.39-6.61Z"/><path class="cls-17" d="M90,23c1.15-.11,1.9.33,2.47,1.31l-2.37,3.44c.11,1.12,2.91,1.83,2.91,2.01.03,1.14-1.37,3.26-1.02,4.73l-2.02-.24.02-2.76c-2.75,1.85,1.15,7.95-2.74,8.53-3,.44-2.11-1.38-3.51-1.56s-8.21,1.59-8.75,1.04v-2.51s3.5,0,3.5,0c.44-2.84-.66-1.91-3-2-1.18-3.27,2.86-1.41,3.01-2.25.43-2.43-2.46-.71-3.01-1.24-.29-.28.22-6.83,0-8,.9-.23,9.35-.52,9.36-.05,0,.2-.27.39-.63.6.68,1.58.68,3.17,0,4.78.09.42,1.79.68,2.27-.32-.8.1-1.3-.06-1.5-.5-.47-1.45-.91-2.93-.84-4.64,1.99,0,3.93-.12,5.84-.36Z"/><path class="cls-17" d="M62.5,427c-.12-.47-1-1.14-.99-1.25.01-.37,2.86-1.69,2.87-2.49,0-.23-.76-.85-.86-1.52-.29-2.05.95-3.58-2.01-3.74.14.49-.51,1.07-.51,1.25v10.75h-2.5v-7.5c-1.31,1.88-2.89-.25-2.27-1.49.13-.26,3.56-4.11,3.8-4.27.47-.3,1.1.3,1.99-.44,1.1-.91,1.86-3.64,2.04-3.75,1.68-1.03,2.41,1.35,2.79,1.44,1.11.29,6.36-.31,6.65-.01-.1.6.15,1.51,0,2-1.96.64-2.42.82-1.36.53l.36.47c-.15.97.21,5.79,0,6-.39.39-4.46-.71-5,.49l5.5.51-2.5,3.49,3.5.51c-.65,3.72-4.25.89-6.68,1.03-1.59.09-4.88,2.19-5.81-.29-.39-1.03.96-.69,1-.74,1.07-.6,1.07-.93,0-1Z"/><path class="cls-99" d="M83,413.5c.1,2.32.39,4.4.87,6.25.95.3,1.24.82.63,1.75.11.18-.12.89,0,1,.23.2,4.71-1.16,6-.5v8c-4.38-.67-8.62-.67-13,0v-8c1.16-.3,3.84.66,4.5-.5-1.86.79-2.5-1.49-2.81-1.55-1.06-.19-2.41,1.38-3.67,1.04l-.52-1.99,2.99-1.26c-.21-.7-1.89-1.2-1.95-1.3-.11-.19.45-.8.46-1.15s-1.56-.21-1-1.54c.49-1.16,6.67-1.08,7.5-.25Z"/><path class="cls-17" d="M61,29.5h7.25c.23,0,1.53-.52,1.23-1.23-.79-1.88-5.59-4.55-.75-5.79l5.23,7.19c-.59,2.13-2.84,1.18-2.96,1.32-.48.59.95,8.05-1.85,8.9-2.1.64-4.81.33-4.16-2.4,4.63.97,3.35-2.65,3.5-6-4.58-.29-2.88-.17-3.98,2.78-.81,2.17-4.46,7.29-6.78,5.23-1.96-1.74,1.96-2.51,3.26-4.25.73-.98.92-1.98,1.48-3.01-.63-1.1-1.8-.51-2.64-.75-.53-.15-.31-.96-.35-.99-.18-.13-1.93,2.22-3.48-.76.88-1.06,2.15-1.93,2.97-3.01,1.66-2.18,2.11-5.74,5-2.99-.76,2.01-2.8,3.69-2.99,5.75Z"/><path class="cls-99" d="M118,26c.62-.8,2.1-3.51,2.31-3.54,1.9-.28,2.62.9,1.7,2.54,2.99.16,1.13-3.62,5-1.99l-.5,1.99c2.34.09,3.44-.83,3,2-1.34.08-3-.45-4,.75,2.19.8,4.09-.99,3.5,2.25-.24.24-3.24-.59-3.5,1,1.68-.13,4.31-.24,3.24,2.01-5.16-.18-3.22,2.11.76,1.5-.08.48.12,1.87,0,2-.36.38-8.83-.27-10.5,0-1.15.05-1.28-1.44-1.32-2.52.37-1.82.14-3.32-.68-4.48-.22-.24-.95-1.28-1-1.5.45-.82,1.15-1.58,2-2Z"/><path class="cls-99" d="M123.5,417.5h-8.5v-3h11.25c.22,0,1.22,1.08,1.17,1.66-.12,1.39-3.34,5.27-3.33,5.6,0,1.07,8.12,5.85,3.42,7.05-2.06.53-3.29-4.32-5.26-4.32-.81,0-4.25,3.83-6.25,4.31-1.81.44-3.53-.9-1.34-2.39,3.67-2.49,7.17-4.44,8.84-8.91Z"/><path class="cls-17" d="M137,28c2.86.89.77-3.87,1.75-4,.37-.05,1.68-.06,1.75,0,.16.16-.43,5.88,1,4v-5.5c3.86-.72,2.02,1.5,2.5,2.01.59.62,4.56-1.5,3.51,1.99h-3.5s0,1.5,0,1.5h4.5c.74,3.26-2.09,1.69-4.5,2v4.5c1.1-.08,1.36-3.32,1.53-3.47.35-.31,2.26-.05,2.44.75s-1.61,3.95-2.25,4.68c-1.66,1.88-7.87,5.69-8.72,1.54l5-1.76c-1.66-.28-1.76-.63-2-2.25,2.29-2.73.81-4.87-2.33-3l-.67-1c-.61-.26-.44-1.07,0-1.5-.38-.06-.35-.24,0-.5Z"/><path class="cls-17" d="M97,38.5c-.73,1.17-3.13,2.15-3.47.18-.08-.46,4.22-6.54,2.97-8.68-.47-.1-1.86.15-2.01,0-.24-.22.18-5.49,0-6.5h8c-.17,1.01.23,6.27,0,6.5-.17.17-2.82-.13-3.51,0-.53,2.83,1.7.42,3.44,1.57-.06,1.99.79,7.53-1.39,8.21-1.65.51-3.21.75-3.55-1.27-.05-.35-.23-.32-.5,0Z"/><path class="cls-43" d="M147.5,87.5c-1.15-4.24-.19-9.11-.5-13.5h11.5c-.31,4.39.65,9.26-.5,13.5-1.37-1.8-1.38-3.73,0-5.5-.81-1.65-1.14-3.32-.98-5h-.53c.38,2.01.05,3.52-.98,4.5,1,.47.72,3.68.54,4.83-.07.43-.3.81-.54,1.17-.5.03-1-.01-1.5,0l-1-.54c.09-6.03-.31-6.59-.47-.09l-1.03.63c-.33,0-.67.01-1,0l-1-.44c.38-9.04-.97-9.78-.98-.23l-1.02.67Z"/><path class="cls-30" d="M34,423.5c.96.44,1.31,1.43,1.06,2.96l2.94.04c.44-1.22,2.49-.06,1.8.27-1.09.52-.75-.77.7-.27l5.84-.42c.48,2.18,3.36.84,4.16-.58-2.01-.62.19-3.19,1-1-.1,2.34.44,5.36-2.47,6.28-1.57.49-10.88.49-12.75.19-4.34-.68-3.3-6.14-3.28-9.47,1.56-1.46,2.5,1.12,1,2Z"/><path class="cls-143" d="M117,29.5l.78.8c-.32,2.39-.08,4.63.72,6.7,2.28,1.12,11.06.09,11.5.5.03.63-.2,2.37-.83,2.52-2.14.5-8.94-.03-11.16-.77-.76-.25-1.56-1.31-2.18-1.2-.83.14-1.52,2.23-2.82,1.95-1.76-3.46.95-2.84,1.4-4.34.16-.54.23-3.54.1-3.66-.51-.48-2.73,1.36-2.01-2.5h4.5Z"/><path class="cls-17" d="M136.5,413.5h3c-.23,1.14-.99,4.05-.43,4.93.31.48,7.63,2.11,7.81,3.3.06.37-.66,2.12-1.17,2.23-1.21.27-5.04-2.59-6.71-2.46-.63.71.6,6.55.44,7.21-.25,1.03-2.07.81-2.94.79v-16Z"/><path class="cls-92" d="M34.5,30c.02-2.49-.02-5.01,0-7.5h15.5c.43,0,0,7.65,0,8.5-.55.72-.86,1.73-.94,3.02-1.28,1.7-4.72,4.21-3.56.48l-.51-.46c1.85-3.23,3.02-6.58,3.51-10.04-.68.65-.95.34-.5-.5-.79.47-2.01.81-2.5,0-.46,1.35-1.03,1.35-1.5,0-2.86.45-5.68.64-8.45.58.62.82.13,1.62-.55,2.42l.45.29c-.17,2.57,1.31,4.03,3.95,4.17,4.91.06,5.94,1.41,3.09,4.04l-.43.64c-1.68-.48-3.37-.69-5.07-.64-.75.67-1.4.48-1.88-.37l-.62-4.63Z"/><path class="cls-143" d="M137,32c-2.76,1.57-.87,4.19-1.6,6.65-.49,1.64-3.34,1.89-3.89.6-.77-1.81,1.36-.91,1.53-1.52.08-.28.08-3.14,0-3.42-.19-.65-1.73.11-2.05-1.54-.43-2.24,1.6-.86,2.02-1.26.13-.12.13-3.39,0-3.51-.49-.46-2.68,1.23-2.01-2,3.01.52,1.84-1.11,2-3.5h2.51c.2.19-.17,2.54-.04,3.23.11.56,1.25.09,1.48.31s.01,1.43.06,1.96c.01.17,0,.33,0,.5-.14.44-.31.43-.5,0-.88-.59-.65,1.29-.5,2,.42-1.04.61-1.13,1,0,.98.14.72,1.08,0,1.5Z"/><path class="cls-119" d="M83,413.5c1.13,1.13.01,4.97.76,5.01l2.74-.51c-2.18-1.18-1.41-2.38-1.66-2.9-.05-.11-2.03-.7-.35-1.85.76-.52,7.05-.63,7.44.58s.23,6.32-.67,7.19c-1.29,1.26-4.06.75-3.77-1.51l-2.99,2c-.5-.78-1.41-.96-1.51-1.35-.42-1.66.32-4.76.01-6.65Z"/><path class="cls-7" d="M463,371c-.21.56-.21,1.06,0,1.5.15.22.32.21.5,0-1.69-.99.71-1.47,2-1.5.63.02,2.52-.41,2.5.49l-3.49,1h3.99c.56,1.6-1.27.76-1.5,1.01-.38.41,2.21,7.26-1,6.75l2.5,1.75-3.99-1.01.25-.99c-2.54-1.13-4.85,3.69-6.75,1.01l3-.51c.17-.97-1.16-.23-1.46-.52-.27-.26.11-3.63-.04-4.47.93-1.43.77-1.43-.5,0-.39.03-1.02.17-1.01-.26.45-.72.79-3.29,1.12-3.63.51-.52,3.02-.54,3.89-.61Z"/><path class="cls-13" d="M120.5,379c-.05,1.05.63,3.45-1,3,.38-1.97-.61-9.34.22-10.53.44-.63,1.78-.62,2.46-.41,1.62.51-.54,2.3,1.08,1.94,1.38-.3,1.89-2.03,2.99-2.03.8,0,1.84,1.4,2.58,1.96.14.11,3.68,1.63.97,1.49-1.14-.06-2.16-.13-3.3.07-.55,1.92,2.6.59,3.01.99.04,2.87.68,3.34-2.5,3.01-.21.12.46.76.5.99.71.9.42,1.19-.5.5-.29-.29-.54-1.12-.75-1-.8,1.38-3.45,4.06-4.25,2,1.22-.1,2.24-.84,2.99-1.76.35-1.13-1.53-.84-2-.74-1.01.16-.78-1.7,0-2-.77-1.1.06-1.6,2.5-1.5.22-.16-.61-.33-2.5-.5-.17.93-.44.7-1,0-.56.61-.75.31-.5-.5-.56-2.23-.79-1.81-.7,1.25.58,1.45.48,2.54-.3,3.25.45.09.43.26,0,.5Z"/><path class="cls-72" d="M110.5,23v15.75c0,1.46-6.58,2.6-5.5-1.25.43-.11,3,.15,3,0v-14.5h2.5Z"/><path class="cls-17" d="M108,414v9.25c0,2.79-7.36,9.45-8.5,3.75,2.68-.02,6-3.07,6-5.75v-7.25h2.5Z"/><path class="cls-13" d="M519.5,379.5c-.05,1.03.59,2.91-1,2.5v-11c1.94,1.3,4.69-1.26,3.49,2,.71-.08,1.56.13,2.21.01.81-.14-.53-2.56,1.29-2.01-.53,3.01,1.11,1.83,3.5,2.01,1.95,1.48-4.33.82-4.5,1v1.5c3.77-.33,4.07-.16,3.47,3.72-.34,2.18-1.37,2.53-3.46,2.28-.38-1.69,1.25-.67,2.02-1.22.9-.64.35-3.17.48-4.28-3.63-.84-2.53,2.22-4.23,4.52-.31.42-2.37,2.31-2.26.73.01-.18,1.77-1.69,2.24-2.75.75-1.68,1.76-4.85-.73-4.79s1.18,3.24-.53,5.29c-1.72.67-2.03.21-1.29-1.46-.31-1.12-.38-2.13-.21-3.04.36-2.33.19-2.33-.5,0,.72,1.69,1.08,3.41,0,5Z"/><path class="cls-7" d="M448,371c.18.07,1.55,2.91,1.51,3.5l1-3,.49,2h1.5s0-2.5,0-2.5c1.85-.55.63,2.13.99,2.5.16.16,2.38-.12,3,0,.57,1.91-2.61.59-3,1-.07.07-.07,1.92,0,1.99.2.2,2.74-.47,3,1h-3s0,3.01,0,3.01h3.5c.04.32-.66,1-.75,1h-7.25c-.56-1.97,3.07-.56,3.5-1,.24-4.26.06-2.41-2.17-2.99-.56-.15-.27-.95-.33-1.01q2.2-1.31,0,0c-.08-.08-.68.14-.91-.11-.22-.23.67-2.38-.59-2.39-.12,2.23.14,4.52,0,6.76-.03.5.1,2.06-1,1.24v-.5c.17-3.55.33-7.05.5-10.5Z"/><path class="cls-88" d="M310.5,371.5c2.16-.05,4.34.04,6.5,0-.15.89.2,5.31,0,5.51-.24.24-2.32-.39-2.51.25-.48,1.66,3.14-.29,2.5,1.74-.42.32-4.82-.78-2.5,1.5l3,.5c-1.79.85-4.75.6-6.76.5-.76-.04-1.82.4-.74-.5l3.5-.5c.12-.34-.07-1.04,0-1.5-1.06.14-2.55-.22-3.5,0-.44-.14-.43-.31,0-.5-.25-1.06-.25-2.06,0-3-.43-.11-.42-.28,0-.5-.25-.79-.58-1.63-1-2.5-.35-.52.15-.86,1.5-1Z"/><path class="cls-128" d="M50,31v7c-.95.76-2.01,1.4-3.16,1.92l-9.41-.07-.93-.85c-.97-.99.17-2.98,1.5-2.5,1.03.11,1.86.04,2.47-.19,2.6.91,3.28.97,2.03.19.83-.96,1.83-1.63,3-2-.14.94,0,1.45,1.02.69.11-.09,1.91-1.92,1.98-2.05.56-1.09.02-3.42,1.51-2.14Z"/><path class="cls-154" d="M50,38v3s-15.5,0-15.5,0c-.03-.66.04-1.34,0-2,.08-1.13.41-1.63,1-1.5,1.17-.29.5,2.27.28,1.33-.09-.39.32-.34.72.17,3.1-.68,7.34.16,10.63-.09,1.69-.8,2.02-2.75,1.87-4.4l1,3.5Z"/><path class="cls-150" d="M161,374.5c-.14-1.09.1-2.38,0-3.5h4.5v10.25c0,.42-1.06.91-1.71.71-.38-.12-1.58-2.47-3.51-2.49-.31,0-.27.79-.64,1.02-.57.36-1.49.74-2.14,1.01-.71.34-.85-.41-.5-1,.13-.98,1.19-1.31,2-1l-.32-.73c-1.95-.21-2.05-1.7-.68-1.77.34-1.14.84-1.81,1.5-2,.72,1.75,1.31.7,2,.5-.21-.76.39-1.03,1-.5.87.54,1.54.54,2,0-.96-.15-.9-.55,0-1-.46-.05-.43-.22,0-.5-1.01-.12-.97-.61,0-1-.79-.35-1.73-.46-2.5,0,1.34.13,1.22.53,0,1,.44.14.43.31,0,.5.61.66-.53,1.26-1,.5Z"/><path class="cls-82" d="M509,372.5c-.82-.08-1.74.07-2-1h8.5c.5,1.38-3.12,2.46-3,2.74l4.49,1.5-2.74,2.74c-1.81-1.43,1.26-.89.75-2.49h-3c-.26.25.25,4.22.02,5.16-.56,2.31-6.12-1.33-1.02-.17v-5s-5,0-5,0c.98-1.82,3.82-.72,5.5-1l-2.5-1.99c3.03-.37,3.03-.54,0-.5Z"/><path class="cls-7" d="M298.5,373.5s.68.2,1-.35c.27-.47.35-2.01.51-2.14,1.18-1.02,1.1,1.38.49,1.99.79.15,4.31-.19,4.5,0,.3.3.28,7.51-1,8.26-.73.43-3,.78-2.51-.75,3.95.59,2.14-3.85,2.5-6.5l-2.08,4.66c-.01.82-4.31,4.19-3.41,2.09.28-.65,2.1-1.9,2.71-2.79.58-.84,2.58-5.79.79-4.47-.54.4-1.36,5.89-4.01,4.99-.1-.08.78-1.21,1-1.49-1.3-1.41-1.47-2.41-.5-3-.44-.12-.43-.29,0-.5Z"/><path class="cls-88" d="M194.5,373c.53.01,2.9.11,3,0,.32-.33-.77-2.51.99-2.01-.48,3.07.84,1.54,3,2.26.2,1.56-2.66.38-3,.75-.12.13.08,1.51,0,2l3.5-.5c.37,1.16-.4,1.66-2.3,1.51l.3.49c-.15,1,2.68,3.32,2,4-.44.45-1.46-.92-2.21-.96-.96-.05-5.56,1.15-5.78.96-.67-.57,1.24-1.56,1.61-2.12.47-.72.88-1.74.89-2.62-.06-.8-3.06.66-2.5-1.26,1.39.94,4.34.72,3.24-1.5-.71-.08-2.39.21-2.72-.04-.19-.15.06-.8-.03-.95Z"/><path class="cls-88" d="M136,373.5c.69-1.39-.23-3.02,2-2.5l-.5,1.99h4.5c-1.36,3.48,1.53,9.77-4,8.5-.54-1.85,2.13-.63,2.5-.99l.25-6.5c-1.1,2.22-1.55,4.17-3.25,6.1-.32.36-2.06,1.98-2.5.89-.31-1,.3-1.92,1.85-2.76.96-1.08,1-1.49.15-1.24-.7.66-.96.38-.5-.5-1.92-.6-2.59-1.27-2-2-.26-1.28.46-1.33,1.5-1Z"/><path class="cls-101" d="M182.59,82.61c-.08.04-.15.65-.47.87-.34.24-4.83,3.92-4.61,1.77.05-.5,5.98-3.56,6.98-7.02.56-1.94-5.95.64-5.48-1.73,1.59.61,5.8-.65,6.72-.47,2.08.39-1.35,4.09-1.14,5.15.16.84,3.89,3.63,3.91,4.07.01.26-.76,1-1.5.51s-2.49-4.06-4.4-3.16Z"/><path class="cls-124" d="M36.5,412.5c3.83.26,7.67.26,11.5,0,4.08.55,3.39,3.95,3.5,7-.16,1.12-.49,1.46-1,1-1.51-.16-1.31-.89,0-1.5-1.39-.4-1.36-1.58,0-2l-1.04-.5c.92-.21.79-.75.54-1.5-.72.61-.99.32-.5-.5-4.67-.34-9.74-.57-14.5,0,.68.67.38.93-.5.5.13,1.26-.04,1.92-.5,2,.84.22,1.17.94.98,2.16.9.04,1.07.82.52,2.34,1.38.15,1.33,1.13,0,1.5.51,1.33-.78,1.8-1.5.5-.09-.9.08-1.68-1-2,.02-3.43-1.05-8.39,3.5-9Z"/><rect class="cls-3" x="96.5" y="414" width="3" height="9.5"/><path class="cls-150" d="M177.5,373l-.24.99-3.04-.02c.18,3.4.62,6.89-3.71,7.53l2.5-2.99c-4.58.97-3.98-4.9-.24-3.51l.24-.99c-1.52-.14-3.28.19-4.76,0-.73-.09-1.55-.38-.74-1,1.45-.27,3.95.36,5.19.03.61-.16.19-1.95,1.3-2.03-.16,2.47,1.56,2.06,3.5,2Z"/><path class="cls-39" d="M109.5,375c.13,2.42.03,5.1-1.75,6.99l.74-6.99-1.48-.25c1.9-1.1,2.87-2.63,4.24-4.25.45,1.76,2.24.81,3.74,1l-1,2.49h4c.04.33-.66,1.01-.75,1.01h-7.75Z"/><path class="cls-75" d="M106,24.5v11c-.64-.03-1.47.17-2.03-.22-.62-.42-.74-8.92-.4-9.96s1.5-.85,2.43-.82Z"/><path class="cls-151" d="M48.5,219c-.42.41-3.99-3.09-4,1,2.49-.22,4.94.11,4.51,3.23-.47,3.42-7.16,3.8-5.89-3.35.96-5.4,6.5-1.95,5.38-.87Z"/><path class="cls-27" d="M351.5,374.5c.18,1.95-2.33,1.82-3,2.99.31-.04,6.74-.32,4.99,1-.83.14-4.82-.19-5,0-.21.22.65,6.07-3,2.51,2.56.31,2.05-.21,2-2.51-.19-.2-6.99.52-5-.99h4.65s2.34-2,2.34-2c-1.21-.42-5.3,1.02-5-1.01h7Z"/><path class="cls-71" d="M43.62,178.88c-1.54-1.53.09-2.85.23-3.71s-.77-1.83-.12-3.17c.82-1.69,4.66-1.37,4.79.78.06,1.03-.86,1.62-.87,1.98-.01.63,1.86,1.51,1.1,3.22s-3.95,2.08-5.14.9Z"/><path class="cls-13" d="M44.85,125.09c5.21-1.6,5.02,7.47,2.3,8.32-5.21,1.62-5.23-7.42-2.3-8.32Z"/><path class="cls-56" d="M147.5,87.5l.29-8.51h2.72s0,8.51,0,8.51c-.99-.04-2.01.03-3,0Z"/><path class="cls-114" d="M193.5,75c2.54-.21,1.01,3.82,1.56,4.45.19.22,5.22,1.6,5.45,2.3,1.08,3.21-5.27-1.57-5.51-1.25v6s-1.51,0-1.51,0v-11.5Z"/><path class="cls-88" d="M184.5,375c.31.66,1.15.99,2.5,1,5.17,2.47-1.13,6.72-4,5-.68-.83-.39-1.11.5-.5.08-1.12,1.15-.9,1.5,0-.4-1.41-.07-1.75,1-1,.05-.02.4.58.96.28,1.51-.81,1.29-2.69-.31-3.17-2.28-.69-3.34.41-5.11,1.19-.73.32-.59,1.22-1.53-.04l4.99-4.5c-.89-.86-3.92.77-3.49-1.24h5.75c.37.71-2.2,2.52-2.75,3Z"/><path class="cls-71" d="M51.33,262.58c5.76-1.97,4.78,7.67,2.84,8.33-5.76,1.97-4.78-7.67-2.84-8.33Z"/><path class="cls-71" d="M51.33,354.58c5.76-1.97,4.78,7.67,2.84,8.33-5.76,1.97-4.78-7.67-2.84-8.33Z"/><path class="cls-71" d="M51.33,217.08c5.76-1.97,4.78,7.67,2.84,8.33-5.76,1.97-4.78-7.67-2.84-8.33Z"/><path class="cls-71" d="M51.33,171.08c5.76-1.97,4.78,7.67,2.84,8.33-5.76,1.97-4.78-7.67-2.84-8.33Z"/><path class="cls-71" d="M51.33,308.58c5.76-1.97,4.78,7.67,2.84,8.33-5.76,1.97-4.78-7.67-2.84-8.33Z"/><path class="cls-71" d="M51.33,125.08c5.76-1.97,4.78,7.67,2.84,8.33-5.76,1.97-4.78-7.67-2.84-8.33Z"/><path class="cls-123" d="M335.5,371c1.45-1.93.85,4.29,1,4.5l3.45-2.42c-.04-1.2,1-.02,1.04.18.22,1.15-3.75,2.71-4.25,3.74-1.98,4.02,4.1,5.39,3.76,1.01,3.96,3.71-5.01,4.44-5.01,2.75v-9.75Z"/><path class="cls-151" d="M44.5,316c.17.15,5.86-.42,3.99,1h-5.5c-.71-2.84,4.01-4.11,4.39-5.82.36-1.62-1.63-2.63-2.78-.8-.42.67.45,1.48-1.62,1.12-.37-4.46,6.88-4.06,5.41.66-.55,1.78-3.83,1.75-3.91,3.84Z"/><path class="cls-88" d="M488,371c-.11,2.91-.29,4.83,1.51,7.24,1.09,1.46,3.28,1.92,2.99,3.75-2.97-.76-3.54-3.12-5.49-5,.27,1.38-3.43,5-4.26,4.99-.47,0-.83-.62-.26-1.25,1.04-1.13,2.85-1.64,3.63-3.38s.62-3.78.9-5.61c.13-.87-.26-.84.99-.75Z"/><path class="cls-88" d="M48,262.5c.28.28-.27,4.21,0,5.17.11.4,1.74.26.98,1.3-.08.11-1.6-.11-.97,2.03-2.48.69-1.08-1.56-1.5-2.01s-3.74.87-3.51-.75c.17-1.2,3.9-6.87,5.01-5.75Z"/><path class="cls-13" d="M479,374c.24,1.3-.24.88-.99,1.23-1.14.53-5.78,1.59-5.48,3.46.4,2.48,5.37.77,6.23.83.31.02,1.04.8.25,1.24-1.8,1-8.41.58-7.44-2.9.52-1.86,3.82-2.03,1.43-6.36,2.01-.17,1.19,2.11,1.74,3.01.71,1.18,2.99-.87,4.26-.51Z"/><path class="cls-7" d="M323,371.5l.51,3.51c.19.13,6.06-2.08,3.99,0-.53.53-6.85,1.37-6.47,3.7.33,2.02,5.48,1.35,6.97.81v1.5c-1.99-.11-6.73.66-7.77-1.5s2.23-3.45,2.31-3.83c.21-1.02-.7-3.09-1.03-4.15h1.5Z"/><path class="cls-158" d="M134,382c-.27.09-1.06.17-1.01-.28-.11-.84.21-3.42,0-3.72-.06-.08-1.52.95-1.99-.25,2.47-.75,2.14-1.27,1.99-3.75l-1.99,2,.5-4,1.49,1.5,1-2.5,2,2.5c-.55,1.11-.96.68-1.5,1l-.12.86c2.06.07,2.43.61,1.12,1.64-.17.43-.33.43-.5,0l-.66,1.17c1.28.86.41,2.69-.34,3.83Z"/><path class="cls-131" d="M298.5,376.5c-.97.48-.95.7-1.03,1.7-.04.42.36,5.53-.96,3.8v-4c-4.98.83-.19-.89-.07-1.07.34-.56-.07-2.14.06-2.93l-2,1.74.51-3.74,1.49,1.5v-2.49s2.01,2.5,2.01,2.5c-.06.07.04.32,0,.5-.6.52-.6,1.36,0,2.5Z"/><path class="cls-82" d="M212.5,376.5c.19,2.36.37,6.23-3,3.75.23-.61,1.78-.03,2-.24.13-.13-.09-1.95,0-2.51h-3.01c-.41.4.83,4.96-.74,4.51-.68-.2.04-4.22-.25-4.51-.41-.41-3.56.92-3-1h8Z"/><path class="cls-53" d="M158,82c-.02,1.83.02,3.67,0,5.5-.83.03-1.67-.05-2.5,0-1.28-1.96-.12-4.25,0-6,1.44-2.32,2.28-2.23,2.5.5Z"/><path class="cls-88" d="M344,373.5c-.31.32.77,2.49-1,2v-3s1.49.5,1.49.5l-.24-2,2.49,2.01.26-2,1.75,2,3.24-2-1,1.99c.87.69,2.58-2.51,2,2.5-1.6.34-.89-1.09-1-2-1.17.21-7.72-.29-8,0Z"/><path class="cls-107" d="M151.5,87.5l.29-6.51h2.21s0,6.51,0,6.51c-.83.02-1.67.02-2.5,0Z"/><path class="cls-46" d="M90,23c-.11.01-.55.49-1.21.52-2.46.11-5.01-1.09-4.29,1.98h4c-1.86,1.93-2.11-.74-3.5,2.5-.57.43-.07.6,1.5.5.38.25,1,.41,1,1h-3.5s0-6,0-6h-8.5c4.59-1.14,9.77-.19,14.5-.5Z"/><path class="cls-123" d="M499.5,375.5c.46.16.62.66.5,1.5.47.92.29.71,1,1.5,1.35,1.5,3,1.8,3.5,3.5-2.23-.29-3.8-1.97-5.25-3.5-.04,1.15-4.44,4.8-5.25,2.75-.09-.23,3.18-1.24,3.51-1.98l1.98-3.77Z"/><path class="cls-113" d="M160,371.5c.25,1.51-.07,2.28-.5,3.5-.26.72-.81,1.6-1.5,2-.5.77-.88,1.42-1.13,1.95.08,1.23-.04,2.25-.37,3.05-.16.02-.33-.01-.5,0-.19-1.69-.8-9.42,0-10.5.43-.59,3.23-.23,4,0Z"/><path class="cls-88" d="M310.5,371.5c-.35.35-1.37.6-1.5,1,.53.46.87,1.29,1,2.5-.06.14.05.35,0,.5.04.98.04,1.98,0,3v.5c-.34.08-2.88,2.02-3.5,1.5-.43-1.45,1.13-.86,1.43-1.8.15-.49.22-1.97.1-2.43-.17-.69-2.01.4-1.53-1.27,1.74.84,1.97-1.84,1.44-2.47-.27-.31-1.92.58-1.44-1.03,1.33-.03,2.67.03,4,0Z"/><path class="cls-78" d="M40.5,125v8.5h-1.5c-.17-.95.22-5.79,0-6-.27-.26-2.47.61-2.01-.74,1.64-.32,1.9-2.05,3.5-1.76Z"/><path class="cls-101" d="M173.5,75.5c-.18,3.92,1.12,7.1-2.53,9.71-.94.67-3.28,2.13-3.22.28,2.9-1,4.25-2.13,4.71-5.29.07-.48-.29-6.45,1.04-4.7Z"/><path class="cls-155" d="M62,413.01c.32.41-4.17,5.59-4.99,4.99-.09-.06-.86-1.86-.8-2,.23-.52,3.4-3.44,4.01-3.47.21-.01,1.72.41,1.77.48Z"/><path class="cls-88" d="M334.5,371c.22.27-.87,2.5-.96,3.29-.26,2.25.24,4.8-.04,6.97-.09.73-.38,1.55-1,.74v-6c-3.97,3.14-.21-2.36.75-4.01.16-.28.47-1.92,1.24-.98Z"/><path class="cls-29" d="M206,374.5c-.9.23-2.04,2.27-2.99.75,1.07-.98,2.4-1.57,3.52-2.48.98-.79.68-2.34,2.63-1.79.31.09,3.54,4,4.84,4.27.02,1.73-1.54-.35-3-.26-.44-.14-.43-.31,0-.5-.91-.19-1.25-.52-1-1-1.08-.03-1.96.04-3,.5l-.5.5c-.1.45-.27.43-.5,0Z"/><path class="cls-140" d="M137,377c.65-.87.83-1.63,1.29-2.49.35-.67-.16-1.28,1.21-1.01-.28,2.99-2.25,5.67-4.5,7.5-.31.26-.63.88-1,1,.21-1.88-.77-3.87,1-5,.4.49,1.07.49,2,0Z"/><path class="cls-149" d="M65.5,170.5c.43.46-4.66,7.44-5.39,8.36-.47.6-.57,1.36-1.61,1.14-.51-.54,4.65-7.43,5.39-8.36.47-.6.57-1.36,1.61-1.14Z"/><path class="cls-39" d="M146,371.5c.24.26-1.51,5.82-.99,6.99l1.5-.74c-1.05,4.9-2.59,3.92-2.55-.51,0-.62.64-7.27,2.04-5.75Z"/><path class="cls-149" d="M65.5,124.5c.43.46-4.66,7.44-5.39,8.36-.47.6-.57,1.36-1.61,1.14-.51-.54,4.65-7.43,5.39-8.36.47-.6.57-1.36,1.61-1.14Z"/><path class="cls-149" d="M65.5,216.5c.43.46-4.66,7.44-5.39,8.36-.47.6-.57,1.36-1.61,1.14-.51-.54,4.65-7.43,5.39-8.36.47-.6.57-1.36,1.61-1.14Z"/><path class="cls-149" d="M65.5,354c.43.46-4.66,7.44-5.39,8.36-.47.6-.57,1.36-1.61,1.14-.51-.54,4.65-7.43,5.39-8.36.47-.6.57-1.36,1.61-1.14Z"/><path class="cls-149" d="M65.5,308c.43.46-4.66,7.44-5.39,8.36-.47.6-.57,1.36-1.61,1.14-.51-.54,4.65-7.43,5.39-8.36.47-.6.57-1.36,1.61-1.14Z"/><path class="cls-149" d="M65.5,262c.43.46-4.66,7.44-5.39,8.36-.47.6-.57,1.36-1.61,1.14-.51-.54,4.65-7.43,5.39-8.36.47-.6.57-1.36,1.61-1.14Z"/><path class="cls-51" d="M137.5,32.5c-.17-4.74,7.04-1.3,2,1.5-.5.75-.93,1.82-2,1.28-1.75-.89-.57-1.77,0-2.78Z"/><path class="cls-51" d="M117.5,26c-.15.58-.91,1.3-1.5,1.5l-3.27-3c1.09-3.33,3.64-.15,4.77,1.5Z"/><path class="cls-7" d="M66.38,312.62c1.86,1.93-.01,5.4-2.81,4.31-1.93-2.42.69-6.52,2.81-4.31Z"/><path class="cls-7" d="M60.44,308.57c.8,1.78,1.22,4.5-1.27,4.8-3.15.39-3.01-6.26,1.27-4.8Z"/><path class="cls-1" d="M97,38.5c.96-1.54.53-6.34,3.51-4.74-.27.72-.36,4.09-.52,4.23-.2.19-1.98-.29-2.49.51h-.5Z"/><path class="cls-7" d="M66.38,266.62c1.86,1.93-.01,5.4-2.81,4.31-1.93-2.42.69-6.52,2.81-4.31Z"/><path class="cls-83" d="M51.5,424.5c-1.41-.15-.87.09-1,1-1.19,2.65-4.48,1.41-1.5-1.5-1.42-.02-1.36-1.17,0-1.5.32-1.1.82-1.77,1.5-2,.06-.23.79-.71,1-1,.06,1.64.07,3.36,0,5Z"/><path class="cls-7" d="M60.44,125.07c.8,1.78,1.22,4.5-1.27,4.8-3.15.39-3.01-6.26,1.27-4.8Z"/><path class="cls-7" d="M66.38,129.12c1.86,1.93-.01,5.4-2.81,4.31-1.93-2.42.69-6.52,2.81-4.31Z"/><path class="cls-7" d="M60.44,171.07c.8,1.78,1.22,4.5-1.27,4.8-3.15.39-3.01-6.26,1.27-4.8Z"/><path class="cls-7" d="M60.44,262.57c.8,1.78,1.22,4.5-1.27,4.8-3.15.39-3.01-6.26,1.27-4.8Z"/><path class="cls-7" d="M66.38,175.12c1.86,1.93-.01,5.4-2.81,4.31-1.93-2.42.69-6.52,2.81-4.31Z"/><path class="cls-7" d="M60.44,217.07c.8,1.78,1.22,4.5-1.27,4.8-3.15.39-3.01-6.26,1.27-4.8Z"/><path class="cls-7" d="M66.38,358.62c1.86,1.93-.01,5.4-2.81,4.31-1.93-2.42.69-6.52,2.81-4.31Z"/><path class="cls-7" d="M60.44,354.57c.8,1.78,1.22,4.5-1.27,4.8-3.15.39-3.01-6.26,1.27-4.8Z"/><path class="cls-7" d="M66.38,221.12c1.86,1.93-.01,5.4-2.81,4.31-1.93-2.42.69-6.52,2.81-4.31Z"/><path class="cls-7" d="M112,376.5c-1.23,4.79,2.71,6.31,5.25,2.5,2.03,3.1-4.75,3-5.78,2.28-.6-.42-.7-4.56-.47-5.28.69-.32,1.31-.28,1,.5Z"/><path class="cls-176" d="M156.5,382v-7s2,0,2,0c.54,1.06-2.4,1.45-.5,2,.51.15,1.39-.1,2,0l-2.5,1,2,.5c.29.94-.32.8-.5,1-.81.11-1.47.44-2,1,.02.26.41.69.5,1-.32.13-.64.47-1,.5Z"/><path class="cls-111" d="M117,29.5c.31.34,1.38.24,1.52.84.41,1.72-.64,4.34.48,6.16-.16.03-.36.35-.5.5-2.62-1.29-1.15-5.03-1.5-7.5Z"/><path class="cls-42" d="M34.5,30c.86,2.31.01,3.35,2.5,5,1.01.78-.51,2.76-1.5,2.5-.34.5-.64,1.02-1,1.5-.17-2.88-.03-6.08,0-9Z"/><path class="cls-140" d="M202,375.5c1.64,1.69-.32,1.36-2,2-.33.13-1.02-.27-1.01.26.02,1.01,1.24,1.15,1.01,2.24h-3.5c.63-.72.91-2.89,1.48-3.27,1.22-.82,4.25.81,4.02-1.23Z"/><path class="cls-89" d="M147.62,379.88c-.92-.89-.34-3.08.63-3.87,1.6,1.14-1.39,2.26.76,3.23,1.22.55,4.54-.45,4.48.51-.07,1.12-4.96,1.01-5.87.13Z"/><path class="cls-109" d="M137,30h4.5s0,4,0,4h-1.5s-.5,0-.5,0c.24-.37,1.62-2.88,1.5-2.99-.08-.08-2.1-.47-2.21-.45-.47.12-.98,1.4-1.29,1.94-.09-.19-.48-.39-.5-.5-.09-.41.02-1.02,0-1.5-.45-.09-.43-.26,0-.5Z"/><path class="cls-105" d="M73.5,416c-.04.14-.91.98-1,1-.88.22-5.65.14-6.76,0-.73-.09-1.55-.38-.74-1h8.5Z"/><path class="cls-45" d="M79.5,359.5c-.05,1.91.08,3.84,0,5.75-.03.67.42,2.08-.74,1.75-.47-.14-.24-6.44-.26-7.5.33,0,.67,0,1,0Z"/><path class="cls-45" d="M243,359.5c-.05,1.91.08,3.84,0,5.75-.03.67.42,2.08-.74,1.75-.6-.17-.09-6.36-.26-7.5h1Z"/><path class="cls-45" d="M406,359.5c-.05,1.91.08,3.84,0,5.75-.03.67.42,2.08-.74,1.75-.6-.17-.09-6.36-.26-7.5.33,0,.67,0,1,0Z"/><path class="cls-45" d="M78.5,267c0,.33,0,.67,0,1-1.91-.05-3.84.08-5.75,0-.67-.03-2.08.42-1.75-.74.17-.6,6.36-.09,7.5-.26Z"/><path class="cls-45" d="M78.5,175v1c-1.91-.05-3.84.08-5.75,0-.67-.03-2.08.42-1.75-.74.17-.6,6.36-.09,7.5-.26Z"/><path class="cls-45" d="M78.5,358.5c0,.33,0,.67,0,1-1.06-.01-7.37.22-7.5-.26-.33-1.16,1.07-.72,1.75-.74,1.91-.08,3.85.05,5.75,0Z"/><path class="cls-45" d="M78.5,312.5c0,.33,0,.67,0,1-1.91-.05-3.84.08-5.75,0-.67-.03-2.08.42-1.75-.74.17-.6,6.36-.09,7.5-.26Z"/><path class="cls-45" d="M78.5,221v1c-1.91-.05-3.84.08-5.75,0-.67-.03-2.08.42-1.75-.74.17-.6,6.36-.09,7.5-.26Z"/><path class="cls-178" d="M111,376c.34-1.04,3.95-.28,5-.5.31,1.94,0,4.31-2.5,3.5-.4-.47.1-.8,1.5-1,.12-.34-.08-1.04,0-1.5-.98-.09-2.04.11-3,0-.15-.02-.63-.54-1-.5Z"/><path class="cls-120" d="M499.5,375.5c-.85-2.04-2.82-3.99,1-4.5-1.75,2.09.47,3.43-.5,6-.37-.72-.33-1.09-.5-1.5Z"/><path class="cls-24" d="M298.5,374c-.06.32-.18,1.45.25,1.5l2.25-1.99c.04,1.61-1.24,2.52-2,3.5-.08-.21-.29-.45-.5-.5-.33-.08-.89.3-1.03-.3-.25-1.08-.21-2.67,1.03-2.2Z"/><path class="cls-178" d="M503.5,371c.29.97-1.1,1.41-.97,2.19.12.69,1.79,1.17,1.47,2.31-3.04-.91-4.17-3.57-.5-4.49Z"/><path class="cls-16" d="M167.5,75.5c-.14,1.68.21,3.63,0,5.26-.09.73-.38,1.55-1,.74.14-1.68-.21-3.63,0-5.26.09-.73.38-1.55,1-.74Z"/><path class="cls-25" d="M447.5,381.5c-.02.08-.02.49,0,.5-1.31-1.09.32-4.86-1-5.5-.6-.72-.23-2.86.5-3.5.04-.65-.27-1.65.5-2,.46,3.3.35,7.04,0,10.5Z"/><path class="cls-82" d="M122,374.5c1.11.19,1.44.85,1,2,.15.48-.1,1.41,0,2-.8.17-1.58,1.34-2.5.5,0-.17,0-.33,0-.5.65-.97.78-2.48.4-4.55l.6.05c.11.19.44.35.5.5Z"/><path class="cls-82" d="M186,379.5c-.37.15-.74.89-1,1-.87-.79-1.37-.79-1.5,0,0,.03-.51.19-.5.5-3.15-1.89,1.06-4.83,3-1.5Z"/><path class="cls-28" d="M497,371c-1.26,2.72-.52,2.12.5,4.49l-2.98-2.25,2.48-2.25Z"/><path class="cls-162" d="M48,412.5c-3.4.84-8.1.84-11.5,0,2.3-.31,9.21-.31,11.5,0Z"/><path class="cls-156" d="M520,374.5c-.11,1.47,2.13,2.66,0,4.49h1.5c-.6.72-1.21.55-2,.51.08-1.66-.08-3.34,0-5,.14-.44.31-.43.5,0Z"/><path class="cls-29" d="M153,373c-.98,1.82-3.82.73-5.5.99-.81-.62,0-.91.74-1,1.48-.19,3.24.13,4.76,0Z"/><path class="cls-98" d="M447.5,381.5v-10.5c.15.04.36-.06.5,0-.21,3.5.52,7.19-.5,10.5Z"/><path class="cls-137" d="M160,371.5h-4s0,10.5,0,10.5c-.83-.52-.5-1.9-.51-2.74-.04-3.99-1.53-10.51,4.51-7.76Z"/><path class="cls-98" d="M211,374.5v.5c-1.19.08-5.37,1.71-5-.5.15-.04.33.02.5,0,1.28-.31,3.36-.62,4.5,0Z"/><path class="cls-78" d="M485,373c-.06,3.47-4.25,6.58-1.21,1.01.36-.65-.16-1.29,1.21-1.01Z"/><path class="cls-65" d="M193.49,377.5c.19,1.66-.48,2.97-1.74,3.99-1.27-.94-.35-.81-.04-1.53.34-.79.94-2.12,1.79-2.46Z"/><path class="cls-140" d="M465.5,371c-1.98.22-1.87,1.39-2,1.5-.16.44-.32.44-.5,0-.54.08-3.5.14-3.51-.25l3.51-1.25c.8-.06,1.69-.02,2.5,0Z"/><path class="cls-123" d="M492,373c.25.3-1.21,3.93-2.5,3.49-.3-.31,1.75-4.38,2.5-3.49Z"/><path class="cls-121" d="M164.5,374c.01.33-.01.67,0,1-.22,1.67-1.12.98-2,0-.34.09-.68.41-1,.5-.1-.32-.46-.72-.5-1,.38.04.84-.48,1-.5.73-.42,1.75-.36,2.5,0Z"/><path class="cls-40" d="M447,373c-.08,1.2-.03,2.36-.5,3.5-.27-.13-1.09.26-.99-.24.27-1.43.33-3.78,1.49-3.26Z"/><path class="cls-123" d="M127.5,379.5l2.5,2.5c-1.33-.48-2.02-1-3-2,.32.08.55-.22.5-.5Z"/><path class="cls-78" d="M501,378.5c-.52-.44,2.1-2.9,2.5-2.5.3.93-1.96,2.96-2.5,2.5Z"/><path class="cls-178" d="M495,379c-.35-.37,1.35-2.85,1.99-3,.06,1.18-.47,3.1-1.99,3Z"/><path class="cls-24" d="M62.5,427c4.32-1.22,4.07.75,0,1,.03-.04.05-.82,0-1Z"/><path class="cls-116" d="M509,372.5c1.31.12,2.68-.09,4,0l-4,.5v-.5Z"/><path class="cls-40" d="M194.5,373c-.26,0-.37.59-1.25.04-.42-.26-1.64-1.6-1.25-2.04,1.12.44,1.87.93,2.5,2Z"/><path class="cls-136" d="M193.5,376c-.51.48-2.26-1.29-2.5-1.99,1-.54,3.12,1.4,2.5,1.99Z"/><path class="cls-46" d="M459,375.5c.59-4.36,4.04-.77.5,0-.15.03-.33-.01-.5,0Z"/><path class="cls-82" d="M187,376h-3.5c-.02-.61.68-.73,1-1,.7.57,1.57.56,2.5,1Z"/><path class="cls-9" d="M118,26c-.6.77-1.04,1.6-2,2-.03-.12-.03-.38,0-.5.15-.64.91-1.22,1.5-1.5h.5Z"/><path class="cls-158" d="M313.5,380.5c-.36.99-2.53.34-3.5.5.79-.94,2.36-.4,3.5-.5Z"/><path class="cls-158" d="M317.5,381c-1.15-.05-2.12.36-3-.5.98.15,2.73-.45,3,.5Z"/><path class="cls-94" d="M34,95.5l-.5.5c-.28-.86-.4-.85-.5-2,.61.23.77,1.29,1,1.5Z"/><path class="cls-94" d="M116.5,96l-.5-.5c.26-.25.4-1.25,1-1.5-.1,1.15-.22,1.14-.5,2Z"/><path class="cls-139" d="M115,378c-.22.6-1.31.39-1.5,1-.6-.19-.59-.31-.5-1h2Z"/><path class="cls-21" d="M74.5,75.5c.43-.22.59-.03.5.5-.18,4.17-2.63,8.02-6.15,10.1-1.59.94-2.48,1.1-2.84-1.09,3.36-.66,5.45-3.42,6.5-6.5-4.02-.81-4.37,1.08-6.75,3.49l-1.21-1.31c-.23-.99,1.44-1.38,1.97-2.06,1.1-1.43,3.34-6.82,3.49-1.62.12.13,3.37-.39,3.5-.51.07-.07-.95-1.43.25-1.99.23-.08.43.68.75,1Z"/><path class="cls-11" d="M101.25,76c1.71.51-.55,5.25-1.25,6.25-1.09,1.57-5.79,6.03-7,2.99l4.7-3.29c.8-1.2,1.96-2.38,1.8-3.95h-7.5c-.1,0-.1-2,0-2,2,0,7.88-.41,9.25,0Z"/><path class="cls-32" d="M88.5,78.5c1.18,2.7-3.84,8.04-6.28,8-.65-.01-1.38-.58-1.22-1.24,2.27-1.32,4.37-2.17,5.5-4.76h-8c-.1,0-.1-2,0-2h10Z"/><path class="cls-59" d="M47.5,81c0-2.33,0-4.67,0-7h11.5c.38.93-.37,1.53-.5,2q-.97.74-1-.5l-.96.74c-.98-.33-7.23-.33-7.51-.08-1.27,1.12,3.17,3.24,4.55,2.28,1.67.25,2.25,1.06,1.43,2.56.67.37-.06,2.33-.77,2.7-.5.27-3.65-.37-3.23-1.2-.45-.1-.84,0-1.2.36l-2.3-1.86Z"/><path class="cls-22" d="M58,78c.51.64.88-.67,1,.74.22,2.55.26,6.34-.5,8.76-.75.17-1.12-.29-1.11-1.39-2.38.4-4.79.51-7.23.33l-.66-.93c-.55-2.16,1-2.77,4.65-1.83.67-.95,1.29-1.84,1.85-2.67.01-1.02.98-3.02,2-3Z"/><path class="cls-31" d="M58.5,87.5h-11c-.02-.5.02-1,0-1.5.14-.44.31-.43.5,0,.61-.76,1.11-.93,1.5-.5,2.88-.41,6.28.75,9-1v3Z"/><rect class="cls-102" x="79.5" y="75.5" width="8" height="1.5"/><path class="cls-4" d="M51,82.5c-.95,1.15-1.95,2.31-3,3.5h-.5c-.05-1.66,0-3.34,0-5,1.72-.99,2.3.84,3.5,1.5Z"/><path class="cls-14" d="M58.5,76c-.17.62-.27,1.46-.5,2-.35.8-1.52,2.16-2,3-.7.66-.96.38-.5-.5-.94-1.25.56-4.57,2-5,.35.13.76.09,1,.5Z"/><path class="cls-84" d="M74.5,75.5c.33-3.36,2.66.82,2.5.99-.59-.18-1.14.53-1.43.44-.05-.02-.31-.65-.57-.94-.16-.18-.33-.33-.5-.5Z"/><path class="cls-177" d="M382,274v.5c.05,28.06-.11,56.06-.5,84h-115c-.44-17.44-.44-36.38,0-54l.95-1,10.35.27c8.65-.15,8.84-.67,9.01-9.5l-.28-20.61.97-1.66h.5c1.71-.26,3.41-.5,5.13-.67s3.42-.33,5.13-.34c27.41-.2,54.9-.34,82.31.44,1.06.03,2.34,1.53,1.43,2.57Z"/><rect class="cls-122" x="406" y="222" width="162.5" height="45"/><rect class="cls-122" x="406" y="176" width="162.5" height="45"/><rect class="cls-122" x="79.5" y="176" width="162.5" height="45"/><rect class="cls-122" x="406" y="130" width="162.5" height="45"/><path class="cls-122" d="M79.5,130c54.15.45,108.35-.34,162.5,0v45H79.5v-45Z"/><rect class="cls-122" x="243" y="130" width="162" height="45"/><rect class="cls-122" x="243" y="176" width="162" height="45"/><rect class="cls-122" x="406" y="268" width="162.5" height="44.5"/><path class="cls-122" d="M243,257.5v-35.5h162v45h-117c-.26,0,.55-4.56-.5-5l-1.08-.33c-.59-2.33-3.42-2.97-5.52-3.1-11.84-.69-23.76-.4-35.67-.08-.83-.14-1.57-.48-2.24-1Z"/><path class="cls-122" d="M79.5,222h162.5s0,35.5,0,35.5c-22.67,1.03-45.34,1.4-68.01,1.1-5.22.17-5.56,3.33-5.46,7.73l-1.03.67-.09.5h-87.56l-.35-.5c0-14.99,0-30.01,0-45Z"/><path class="cls-122" d="M406,358.5v-45h162.5v45h-22.5c-.34-9.16-.47-18.45-.39-27.87-.06-.18-1.97-2.53-2.73-2.43l-109.6-.23c-1.77.02-3.11.93-4,2.08-.31,9.18-.39,18.41-.24,27.67l-.53.78c-7.49,0-15.01.02-22.5,0Z"/><path class="cls-159" d="M242,257.5c.33,0,.67,0,1,0,11.76.04,25.8-.97,37.24,0,3.11.27,6.75.81,7.26,4.49.39,2.83-.04,6.96,0,10-.48,1.66-6.72,1.53-7.5,0-1.3-.5-1.35-2.04,0-2.5,1.32-1.03-3.9-4.2-4.23-4.22-.48-.04-4.65,2.97-4.77,3.72.45.13.44.29,0,.5.76-.09,1.17.11,1.02.82,1.8-.47,3.89.27,1.98,1.68-.57,1.69-5.02,1.38-6,0-1.14.49-1.47.15-1-1-.44-.14-.43-.31,0-.5l.2-.75c-1.27.21-2-.16-2.2-1.11-.21,1.61-3.45,1.7-4,.36-1.95-.76-1.95-.59,0,.5,3.75.37,3.91,1.55,1.26,4.6,1.56-.4,2.8-.26,3.74.4.33.15.32.31,0,.5-.29,9.56-.46,19.39-.5,29.5-.17,0-.33,0-.5,0-7.2,1.54-14.79,1.49-22,0-.28.96-.72.96-1,0-7.49,1.26-15.01,1.26-22.5,0l-1-1.1.29-11.81c.43-3.87-.25-7.14-2.05-9.81-17.38-.67-34.87-.76-52.47-.27l-1.27-.5-.53-1.13c3.8-2.55,5.14-6.25,4.02-11.1l1.01-.77c-.95-.15-.9-.55,0-1,.27-6.17-.3-8.7,6.81-9.44,22.56-.06,45.13-.13,67.69-.06Z"/><path class="cls-122" d="M288,272c.14-.6-.2-4,0-4h117v44.5h-22c0-11.41.15-22.85,0-34.26-.01-.85.32-2.22-.51-2.74-.23-.39-.39-.89-.5-1.5-.4-.72-.86-1.26-1.63-1.62-30.7-.69-61.61-.38-92.37-.38Z"/><path class="cls-122" d="M383,313.5h22s0,45,0,45c-7.33-.02-14.68.01-22,0,0-14.99,0-30.01,0-45Z"/><path class="cls-91" d="M163,281c.95.25.96.7,0,1l-29.5.26c-1.5.03,27.24.4,30-.26.09-.45.26-.43.5,0,.94.22,1.11.55.5,1,2.42-.2,4.33,3.11,4.15,5.49l-.22,7.49c.05,2.65.17,6.17,3,7.24,14.49.18,28.98.38,43.47.61l3.1.67c.44,17.44.44,36.38,0,54-38.32.09-76.68.09-115,0-.31-21.84-.39-43.92-.25-66.24.14,22.22.06,44.29-.25,66.24-.17,0-.33,0-.5,0-1.48-14.94-1.54-30.06,0-45-.96-.28-.96-.72,0-1l-1-1.36c-.58-6.85-.71-15.54-.34-22.41.41-7.64,1.37-8.52,9.09-8.94,17.26-.95,34.74-.26,51.94.54l1.31.67Z"/><path class="cls-58" d="M546,358.5h-.5c-.3-8.96-.38-18.04-.25-27.25,0-3.2.17,27.81-.25,27.25-38.32,0-76.68.04-115,0-.3-9.34-.38-18.81-.25-28.41.13,9.55.05,19.02-.25,28.41-.33,0-.67,0-1,0,.73-8.59-1-18.81.04-27.21.39-3.13,1.59-4.04,4.68-4.32l109.81.24c1.66.4,2.67,1.33,2.94,3.06l.03,28.22Z"/><path class="cls-122" d="M167.5,268c-.09,2.2.43,6.36-.1,8.15-.41,1.38-3.98,3.41-4.4,4.85-17.48-.03-38.77-1.45-55.77-.02-2.63.22-4.88.78-5.25,3.75-.96,7.73.05,19.54.02,27.77l-.04.5h-22.13l-.34-.5c-.02-14.82,0-29.68,0-44.5l.09-.5h87.56l.35.5Z"/><path class="cls-122" d="M242,313.5c0,14.99,0,30.01,0,45-7.49.01-15.01-.02-22.5,0-.83-14.96-.79-30.03,0-45,0-.28.01-.5.04-.5,7.31-.16,14.81-.16,22.13,0,.12,0,.23.22.34.5Z"/><path class="cls-122" d="M102,313.5c-.04,14.99.03,30.01,0,45-7.49-.02-15.01.01-22.5,0-.01-14.99.02-30.01,0-45,0-.28.01-.5.04-.5,7.31-.16,14.81-.16,22.13,0,.12,0,.23.22.34.5Z"/><path class="cls-122" d="M265,313.5v45h-22v-45l.04-.5h21.63l.34.5Z"/><path class="cls-122" d="M265,304.5v8c-7.33.74-14.67.74-22,0-.86-1.77-.82-6.13,0-8,7.33-.02,14.68.05,22,0Z"/><path class="cls-45" d="M167.5,267c-.01.33.01.67,0,1h-88c0-.33,0-.67,0-1h88Z"/><path class="cls-91" d="M219.5,304.5c1.25,2.69,1.24,5.3,0,8,.96.28.96.72,0,1,.06,14.99-.04,30.01,0,45-.33,0-.67,0-1,0-.44-17.44-.44-36.38,0-54,.28-.96.72-.96,1,0Z"/><path class="cls-177" d="M382.5,275.5c-.22,26.74.29,53.51,0,80.26,0,.85.32,2.22-.51,2.74-.22-27.84-.22-55.84,0-84v-.5c.26.47.71.73.5,1.5Z"/><polygon class="cls-168" points="382 358.5 381.5 358.5 382 274.5 382 358.5"/><path class="cls-144" d="M103,358.5c-.17,0-.33,0-.5,0l.25-73.51.25,73.51Z"/><path class="cls-177" d="M266,358.5c-.83-.52-.5-1.9-.51-2.74-.21-17.07,0-34.19,0-51.26.09-.45.26-.43.5,0,.44,17.44.44,36.38,0,54Z"/><path class="cls-67" d="M218.5,358.5c-.17,0-.33,0-.5,0v-54c.09-.45.26-.43.5,0v54Z"/><path class="cls-5" d="M266.5,358.5h-.5v-54c.09-.45.26-.43.5,0v54Z"/><path class="cls-45" d="M102,312.5c0,.33,0,.67,0,1h-22.5c0-.33,0-.67,0-1h22.5Z"/><path class="cls-45" d="M243,304.5v8h22v1h-22v-1h-1v1h-22.5c0-.33,0-.67,0-1l.04-.67c7.16-.39,14.45-.51,21.87-.33l.59,1c-1.64-.82-1.57-7.03,0-8,.33,0,.67,0,1,0Z"/><path class="cls-36" d="M430,358.5c-.17,0-.33,0-.5,0l.25-29.01.25,29.01Z"/><polygon class="cls-54" points="545.5 358.5 545 358.5 545.25 330.49 545.5 358.5"/><path class="cls-122" d="M40.87,456.12l103.16.1c2.79.59,5.87,3.8,6.35,6.65.57,3.41.59,18.39-.1,21.66s-4.26,6.27-7.53,6.47l-102.28-.22c-2.79-.59-5.87-3.8-6.35-6.65-.55-3.3-.55-19.05.22-22.04.69-2.64,3.83-5.52,6.53-5.97Z"/><path class="cls-130" d="M84.52,37.98c-.42-.41.92-2.27-3.52-1.48v-1.5c4.34.82,4.43-2.8,0-2v-1.5c1.3.2,5.11-.5,5.78.47.37.53.38,4.49.15,5.21-.29.91-2.09,1.11-2.41.8Z"/><path class="cls-100" d="M79,29.5c-.86.75-2.25-.65-1.49-1.49.48-.54,2.03,1.02,1.49,1.49Z"/><path class="cls-169" d="M79,26.5c-.86.75-2.25-.65-1.49-1.49.48-.54,2.03,1.02,1.49,1.49Z"/><path class="cls-116" d="M86.5,28.5l-2,.5c-.28-.92.45-.88.5-1,.52.09,1.06.21,1.5.5Z"/><rect class="cls-103" x="81" y="25" width=".99" height="1.49"/><path class="cls-111" d="M70.5,418.51c-.7,1.15-3.34.19-4.49.49.65-1.15,3.34-.2,4.49-.49Z"/><path class="cls-9" d="M70.5,420.51c-.7,1.15-3.34.19-4.49.49.65-1.15,3.34-.2,4.49-.49Z"/><path class="cls-135" d="M69,425c.43,1.61-1.62,1.25-2.49.24l2.49-.24Z"/><path class="cls-106" d="M88,424c.04.32-.66,1-.75,1h-7.25v-1h8Z"/><path class="cls-106" d="M88,427.5h-8c1.24-1.61,6.83-1.58,8,0Z"/><path class="cls-85" d="M81,415l-.5,4.5c.45-1.57-1.23-1.81-1.39-2.08-.07-.12.51-1.7-.62-2.41h2.5Z"/><path class="cls-174" d="M121.76,33c1.5-.39,2.19,1.18.99,1.49-1.5.39-2.19-1.18-.99-1.49Z"/><path class="cls-174" d="M123.5,31h-2.5c-.5-1.63,2.02-1.32,2.5,0Z"/><path class="cls-174" d="M123.5,28h-2.5c-.5-1.63,2.02-1.32,2.5,0Z"/><path class="cls-68" d="M137,30c0,.17,0,.33,0,.5-.3-.06-.81.1-1,0-.32-.7-.33-1.92.5-2h.5c.03.5-.01,1,0,1.5Z"/><rect class="cls-1" x="97" y="25.5" width="3.01" height="2.51"/><path class="cls-125" d="M155.5,81.5c.13-1.81-.09-3.69,0-5.5h2.51c-.02,1.99.02,4.01,0,6-.74-1.76-1.05-2.38-1,0l-1.5-.51Z"/><path class="cls-115" d="M49,422.5c.01.08.01,1.42,0,1.5-.93,2.46-1.97,3.19-3.11,2.17-1.82-.05-3.61.06-5.39.33-.44.3-.46.98-.51,1-.1.05-1.9-.93-1.99-1-2.4.7-2.34-2.41,0-2.5-.57-2.46,3.31-2.75,2.5,0,.23-.41.85-.45,1.87-.14l3.63-.36c-.75-1.28.58-3.91,2-3.5,1.59-.61,2.21,1.67,1,2.5Z"/><path class="cls-6" d="M49,424c-.18.99-.56,1.21-1,1.99l2.5-.49c-.09.61.2,1.46-.22,2.02-.81,1.09-7.54.19-9.28.48-2.07-1.57,5.41-.49,4.99-1.49h-5.5c2.07-1.4,6.31.67,8.5-2.51Z"/><path class="cls-37" d="M35.5,423c.8-.45,1.41-.1,2,.5.92-.72,1.22-.42.5.5-.08.73-1.71,1.07,0,2.5-.64.51.67.89-.74,1-4.27.35-2.95-.95-3.26-4,.41.03,1.32-.54,1.5-.5Z"/><path class="cls-152" d="M45.5,23.5c.58.48,1.19.6,2.5,0,.26.06.35.32.5.5-.05,2.35-.85,6.1-3,7-2.4.2-4.57-.13-6.5-1-3.08.42-4.69-6.74-.95-6.11,2.8.29,4.78.16,5.95-.39.5.01,1-.02,1.5,0Z"/><path class="cls-44" d="M45.5,34.5c-.85,1.51-1.09,2.43-3,2-1.43.24-2.93.24-4.5,0-.72.7-1.37,1.45-1.5,2.5-.27.06-.87.69-1,.5v-2c.49-.73,1.14-2.09,1.5-2.5,1.57-1.8,3.51.04,5.5,0l1.35-1.87c.01-1.2.09-2.33,1.65-2.13,1.2-2.25,2.34-4.51,3-7,1.46,1.79-1.86,8.47-3,10.5Z"/><path class="cls-8" d="M35,26.5c.23-.49.58-.78,1.1-.79-.07,2.77.89,4.2,2.9,4.29,1.84-.18,3.62-.17,5.49-.29,1.04-.07.28.76,1.01,1.29-.71,1.33-1.53,3.97-3,4l1-2.5c-.61-.49-3.1,0-3.26-.06-.23-.07-.63-2.24-.74.06-.93.2-.17-.96-.75-1.01s.17,1.23-.74,1c.07-1.27-2.7-2.76-2.9-3.1-.32-.53-.11-2.11-.11-2.9Z"/><path class="cls-132" d="M44,23.5c.26,1.57-.74.95-1.7.93-1.34-.02-4.75-.78-5.57.56-.26.43.15,4.25.28,4.51.05.09,1.58-.74,2,.49-.64.06-.96.72-1.97-.26-1.46-1.41-.33-3.55-2.03-3.24,0-1,0-2,0-3,2.99.05,6.01-.06,9,0Z"/><path class="cls-132" d="M48,23.5c-.34,1.16-3.09,1.38-2.5,0,.76.04,1.87-.15,2.5,0Z"/><path class="cls-176" d="M136.5,28.5l-.5,2c-.89-.45-.42-1.57-.5-2.5.6-.09.84-.09,1,.5Z"/><path class="cls-24" d="M89.5,415l-.5,4c.58-2.06-1.42-2.32-2-3.99h2.5Z"/><path class="cls-163" d="M466.5,375.5c.81.62,0,.91-.74,1-1.63.21-3.58-.15-5.26,0-.81-.62,0-.91.74-1,1.63-.21,3.58.15,5.26,0Z"/><path class="cls-176" d="M466.5,377c-1.1,1.88-4.19.68-6,.99-.81-.62,0-.91.74-1,1.63-.21,3.58.15,5.26,0Z"/><path class="cls-142" d="M466.5,378.51c.12.87-1.13.47-1.74.49-1.41.06-2.84-.04-4.25,0-.12-.87,1.13-.47,1.74-.49,1.41-.06,2.84.04,4.25,0Z"/><rect class="cls-24" x="464" y="373.5" width="2" height="1.5"/><path class="cls-156" d="M463.5,372.5l-.76,2.5.26-2.5c.18-.03.44.06.5,0Z"/><path class="cls-167" d="M120.5,378.5c.06-2.16-.05-4.34,0-6.5h1.5c.09.74-.37,1.32-.5,2-.02.11-.52.26-.43,1.09.16,1.4,2.15,3.14-.57,3.41Z"/><path class="cls-50" d="M128.5,376c1.04,1.04-.95,3.04-1.99,1.99s.95-3.04,1.99-1.99Z"/><path class="cls-80" d="M125.49,378c-1.72,1.22-2.47-2.78-.25-1.99.8.28.57,1.77.25,1.99Z"/><path class="cls-1" d="M123,374.5l2.5.5c-1.44.94-2.79-.17-2.5,1.5-.06-.18-.73-1.34-1-2,.31.05.74-.08,1,0Z"/><path class="cls-142" d="M127.5,373.5l-2.5-.24c1.17-1.5,1.55-1.46,2.5.24Z"/><path class="cls-46" d="M123,374.5h3c.08.57-.39.43-.5.5-1.08.35-1.74-.27-2.5-.5Z"/><path class="cls-97" d="M519.5,374.5c.08-1.76-.69-2.91,1.5-2.5.25.96-.94,1.77-1,2.5h-.5Z"/><path class="cls-142" d="M450,376.5c.83-2.44,3.02-3.22,2.5,0h-2.5Z"/><path class="cls-142" d="M310,375.5c.61.62.11,1.38,1.22,1.54.8.12,2.5-.67,2.28.7l-3.5.76c-2.69-.11-.15-2.59,0-3Z"/><path class="cls-122" d="M309,372.5c2.26-.33,1.7.78,1,2.5-1.25.58-1.29-1.58-1-2.5Z"/><path class="cls-35" d="M313.5,374c-.22.21-2.63.48-1.99-1.24.72-1.93,2.82.42,1.99,1.24Z"/><path class="cls-161" d="M316,372c.21.22.48,2.63-1.24,1.99-1.93-.72.42-2.82,1.24-1.99Z"/><rect class="cls-122" x="311.5" y="374.5" width="2" height="1.5"/><path class="cls-45" d="M316,374.5v1.49s-1.99,0-1.99,0v-.74c.53-.79,1.07-.87,1.99-.76Z"/><path class="cls-19" d="M42.5,36.5c.87.33,2.35.34,2,1.5-.99-.28-2.74-1.15-3.68-1.02-.26.04-.24,1.28-1.56.89l-1.25-1.37c1.62-1.57,2.45-.77,4.5,0Z"/><path class="cls-97" d="M164.5,375c.14,3.91,1.09,8.88-3,3.5l2.5-.5h-2.99s2.49-1.01,2.49-1.01l-1-2c.54-.14,1.39.09,2,0Z"/><path class="cls-116" d="M159,379.5c-.61.66-1.08.95-2,1-.15-1.76.31-2.18,2-1Z"/><path class="cls-139" d="M164.5,372.5c.02.33-.03.67,0,1-.55.46-1.92.32-2.5,0,.05-.28-.07-.95,0-1,.75-.47,1.73-.37,2.5,0Z"/><path class="cls-122" d="M164.5,372.5c-.58.11-2.27-.17-2.5,0,.33-.79,2.17-.79,2.5,0Z"/><path class="cls-122" d="M164.5,373.5c.01.16,0,.33,0,.5-.82.07-1.69-.1-2.5,0v-.5h2.5Z"/><path class="cls-63" d="M136.5,376.5c.17.75-.49,1.23-1,.5.18-1.59-.31-.9-1.5-.5.01-.89-.29-1.53.5-2,0,2.72,2.4-1.08,2.99-1,.06.87-.44,2.4-.99,3Z"/><path class="cls-112" d="M137,377c-.73.97-1,1.74-2.5,1.5l.5-1.5c.12-.08.39.08.5,0,.28-.19.84-.33,1-.5l.5.5Z"/><path class="cls-60" d="M45.5,417c1.06.03,1.39.36,1,1,.98,0,1.57.06,1,1-.36,1.75-2.82,5.04-4.02,1.85-1.86-.23-5.17-.48-5.05,2.1l-.93.55c-.27.02-.78.55-1.18.51-.36-.04-.56-.95-.82-1.01.07-.46-.11-1.1,0-1.5.25-.77.18-1.45-.23-2.04.15-1.72,7.52-2.64,8.73-1.46.12-1.36.21-1.88,1.5-1Z"/><path class="cls-127" d="M49.5,414.5c.37.65.3.72-.25.96-.75.32-13.34.28-13.85-.19-.2-.18-.31-.46-.39-.77.66-.54.73-.82,1.77-.97,1.98-.29,10.04-.3,11.79.2.49.14.65.54.95.78Z"/><path class="cls-164" d="M49.5,414.5c.16.13.41.35.5.5.21.43.21.77,0,1-2.02.14-3.99.46-5.91.96-.11-.3-.22-.54-.33-.54-3.05-.02-6.23-.13-9.26-.42-.26-.11-.26-.44,0-1,.08-.15.34-.37.5-.5,3.61.88,7.98.55,11.76.51.85,0,2.22.32,2.74-.51Z"/><path class="cls-147" d="M44,417c.7-.24.7.1,0,1-2.81.69-7.21-1.34-8.5,3.5v-1.5c-1.9.97-1.56-1.53-1.5-3,2.42.01,5.51-.13,8.27-.36l1.73.36Z"/><path class="cls-175" d="M34.5,416c3.13.21,6.28.35,9.46.42l.04.58c-1.23-.92-8.16,1.46-10,0,.05-1.12-.04-1.01.5-2,.06.3-.1.8,0,1Z"/><path class="cls-129" d="M50.5,419c-.45,2.43-1.78,1.31-3,0-.26-.35-.67-.7-1-1-.22-.98,3.27-1.46,4-1,.06.63,0,1.35,0,2Z"/><path class="cls-157" d="M50.5,419v1.5c-.43,1.62,1,1.89-1.5,2-.17-1.2-.5-1.55-1-2.5-1.29.36-1.41-.05-.5-1,.72-.08,2.05.99,3,0Z"/><path class="cls-10" d="M50.5,417l-4,1c-.33-.3-.86-.43-1-1,1.11-.6,2.61-.93,4.5-1,.1-.19-.06-.7,0-1,.58,1.04.39.94.5,2Z"/><path class="cls-46" d="M173,377.5c-.28.28-2.47-.07-2.49-.75-.06-2.61,3.76-.53,2.49.75Z"/><path class="cls-116" d="M113.5,372.51c-.59,1.52-2.02,1.65-3.5,1.49-.07-1.98,2.11-1.5,3.5-1.49Z"/><path class="cls-111" d="M45.3,221.04c2.62-.87,2.88,2.92,1.39,3.41-2.62.87-2.88-2.92-1.39-3.41Z"/><path class="cls-111" d="M45.3,175.55c2.16-.69,2.95,1.87,1.73,2.73-2.17,1.52-3.65-2.12-1.73-2.73Z"/><path class="cls-109" d="M44.5,174c-1.18-1.67,2.65-2.94,3-1.24.29,1.45-2.44,2.03-3,1.24Z"/><path class="cls-141" d="M46.95,126.05c.56.37,1.68,7.35-1.63,6.47-1.33-.35-1.55-8.59,1.63-6.47Z"/><path class="cls-133" d="M185,380.5c-.3.13-1.07-.09-1.5,0-.04-.23-1.05-1.4-.25-1.5,1.2-.15,1.71.32,1.75,1.5Z"/><path class="cls-96" d="M52.34,263.55c2.82-.72,2.89,6.48.41,6.48-2.08,0-2.63-5.91-.41-6.48Z"/><path class="cls-96" d="M52.34,355.55c2.82-.72,2.89,6.48.41,6.48-2.08,0-2.63-5.91-.41-6.48Z"/><path class="cls-96" d="M52.34,218.05c2.82-.72,2.89,6.48.41,6.48-2.08,0-2.63-5.91-.41-6.48Z"/><path class="cls-96" d="M52.34,172.05c2.82-.72,2.89,6.48.41,6.48-2.08,0-2.63-5.91-.41-6.48Z"/><path class="cls-96" d="M52.34,309.55c2.82-.72,2.89,6.48.41,6.48-2.08,0-2.63-5.91-.41-6.48Z"/><path class="cls-96" d="M52.34,126.05c2.82-.72,2.89,6.48.41,6.48-2.08,0-2.63-5.91-.41-6.48Z"/><polygon class="cls-140" points="46.5 268 44 267.99 46.01 264.5 46.5 268"/><path class="cls-116" d="M159,372c-.48,1.34-1.72,1.35-2.5.24l2.5-.24Z"/><rect class="cls-116" x="156.5" y="373.51" width="2.5" height=".49"/><path class="cls-1" d="M210,373.5c.84,1.09-2.16.88-3,.5.46-.58.91-1.24,1.01-2,1.17-.27,1.39.9,1.99,1.5Z"/><path class="cls-163" d="M211,374.5c-1.44.13-3.11-.19-4.5,0,.14-.18.36-.32.5-.5.94-.07,2.44.38,3-.5.29.29.88.41,1,1Z"/><path class="cls-47" d="M64.76,313c1.76-.26,1.52,2.87,0,3.49-1.24-.63-.9-3.35,0-3.49Z"/><path class="cls-47" d="M59.25,309.01c1.33.68.94,3.79-.49,3.49-1.45-1.12-.76-2.58.49-3.49Z"/><path class="cls-47" d="M64.76,267c1.76-.26,1.52,2.87,0,3.49-1.24-.63-.9-3.35,0-3.49Z"/><path class="cls-47" d="M59.25,125.51c1.33.68.94,3.79-.49,3.49-1.45-1.12-.76-2.58.49-3.49Z"/><path class="cls-47" d="M64.76,129.5c1.76-.26,1.52,2.87,0,3.49-1.24-.63-.9-3.35,0-3.49Z"/><path class="cls-47" d="M59.25,171.51c1.33.68.94,3.79-.49,3.49-1.45-1.12-.76-2.58.49-3.49Z"/><path class="cls-47" d="M59.25,263.01c1.33.68.94,3.79-.49,3.49-1.45-1.12-.76-2.58.49-3.49Z"/><path class="cls-47" d="M64.76,175.5c1.76-.26,1.52,2.87,0,3.49-1.24-.63-.9-3.35,0-3.49Z"/><path class="cls-47" d="M59.25,217.51c1.33.68.94,3.79-.49,3.49-1.45-1.12-.76-2.58.49-3.49Z"/><path class="cls-47" d="M64.76,359c1.76-.26,1.52,2.87,0,3.49-1.24-.63-.9-3.35,0-3.49Z"/><path class="cls-47" d="M59.25,355.01c1.33.68.94,3.79-.49,3.49-1.45-1.12-.76-2.58.49-3.49Z"/><path class="cls-47" d="M64.76,221.5c1.76-.26,1.52,2.87,0,3.49-1.24-.63-.9-3.35,0-3.49Z"/><path class="cls-34" d="M57.5,75.5c-.31,1.81-1.17,3.4-2,5,.34.53.11.75-.5.5-.64-2.56-2.34-1.14-4.24-1.5-.94-.18-1.15-.84-1.76-1.18-.39-.21-.96.22-.99.18-.25-.42.16-2.71,0-3.5,3.24.5,6.32-.67,9.5.5Z"/><path class="cls-165" d="M56,81c-.3.53-.7,2.68-1.08,2.91-1.63,1.02-4.77-1.96-5.42,1.59-.46.07-1.13,1.33-1.5.5.41-1.42,1.37-3.36,3-3.5.3.17,2.56.99,2.7.96,1.09-.44.93-1.81,1.3-2.46.1-.18.4-.32.5-.5l.5.5Z"/><path class="cls-108" d="M274,272l.74.23c.91-3.01,4.69-3.3,4.46.82-.08,1.35-1.04-.18.8-1.04h7.5c.1,8.35.76,19.19.02,27.27-.26,2.85-1.2,4.72-4.3,5.2-4.47.69-11.86,0-16.72.03-.43-9.64-.43-20.25,0-30,1.16-.6,1.49-1.07.97-1.43l.53-1.07h6Z"/><rect class="cls-104" x="288" y="272.5" width="91" height=".5"/><path class="cls-110" d="M219.5,304.5c-.33,0-.67,0-1,0-.17,0-.33,0-.5,0-15.5-.04-31.02.22-46.51-.24-6.36-1.65-3.1-12.8-4-17.5-.23-1.19-2.15-2.57-2.99-3.76-.39-.58.04-.84,1.31-.78l24.68.11-26.5-.33c-.17,0-.33,0-.5,0h-.5c.05-.31-.08-.74,0-1,15.97.03,35.24-1.33,50.77-.02,3.17.27,5.2.82,5.69,4.31.75,5.32.01,13.51.05,19.2Z"/><path class="cls-122" d="M242,304.5v8h-22.5c-.01-2.66.02-5.34,0-8,7.49.02,15.01.02,22.5,0Z"/><path class="cls-142" d="M227,264.5c1.1.54.94,2.92.5,4,.13.53.3.48.5,0-.28-1.34-.44-2.69,0-4,1.66.03,3.34-.02,5,0v9.75c0,3.51-4.95-.79-5.73-.78-.28,0-.26.95-.89,1.2-1.17.48-1.62-.12-2.16-.09-.21.01-.38,1.51-1.73.92v-11c1.49-.02,3.01.03,4.5,0Z"/><path class="cls-142" d="M201.5,264c-.6,3.77,1.97,3.4,2.01,0,1.85.34,2.26.23,1.5,2,.73.14,3.82-.18,4,0,.22.22.07,5.38-.05,6.21-.39,2.82-2.56,5.02-4.2,1.8-.62,1.56-2.73,1.49-2.74.25,0-.31,1.93-1.54,1.99-2.25-1.21.44-1.53.22-2.49-.5v4s-1.5,0-1.5,0v-3.5c-1.76,1.27-3.03-.11-1.46-1.23,1.07-.77,1.93.41,1.45-2.77l-.99,1.76c-2.11-.26-.3-3.29-.5-4.76l1.49.5v-1.5s1.5,0,1.5,0Z"/><path class="cls-142" d="M196,268.5c.81,1.52,1.31,4.35-1,4.25l2.5,1.26c-.67,3.53-2.99-.49-4.26-.39-.54.04-1.85,2.26-3.42,1.83-.56-.15-1.12-1.15-.83-1.45.11-.11,2.44-.17,2.5-1.5-2.6.21-4.1-.09-3.5,3h-1.5v-11c1.9.03,3.5-.62,4.25,1.5,2.67-3.16,2.63-1.99,5.08-.06.5.4,1.62.5,1.67.57.66.85-.91,1.39-1.5,1.49-1.74.38-1.74.54,0,.5Z"/><path class="cls-141" d="M261,269h3s0-1.5,0-1.5c-1.95.74-2.46-.79-2.61-.84-.26-.09-2.83.09-2.89-1.41-.06-1.83,3.04.53,3.36.63,3.21.99,1.81-2.29,3.37-1.87,1.05,2.38,1.03,2.19,3.76,2v1.5s-3.01,0-3.01,0v1.5s3.51,0,3.51,0c.4,2.22-.76,1.37-2.5,1.5-.77,1.08-2.19.87-1.23.37.37-.19.96-.19,1.23.13.31.33.75.63,1,1,.41.61,1.16,2.07,1,2.74-.33,1.37-1.48-.1-2.5-.24-.17.42-.33.42-.5,0-1.41.04-3.32.95-5,.5-.22-1.86,2.21-2.43,2.5-4.49-2.78.61-2.13-.62-2.5-1-.44-.14-.43-.31,0-.5Z"/><path class="cls-141" d="M254.5,265c.33,2.15-2,2.67-3,3.99,8.84-.88,4.14,8.74-2,5.75-1.97-.95-.37-3.12-.5-3.25-.13-.11-3.83.83-2.5-.99.42-.57,4.64-2.42,5-4h-3.5s0-1.5,0-1.5h6.5Z"/><path class="cls-142" d="M241.5,264.5c.42.43-1.03,2.27,3.5,1.5v1.5s-3.5,0-3.5,0c-.48.48,1.61,4.29-1.03,6.72-.4.37-2.66,1.51-2.97,1.28-.08-.06-.59-1.9-.51-2,.12-.12,1.98.09,2-1-2.5.29-3.89-3.11-1.5-4.26.92-.44,2.44.21,2.5-.74h-5.5s0-1.5,0-1.5c.28-.29,4.35.28,5.23.03.17-.05.51-2.8,1.77-1.53Z"/><path class="cls-106" d="M177,268.5c.29,1.24-.51,6.73-1.76,7-2.19.48-.11-3.74.03-4.47.16-.84.32-1.67.22-2.53l-.99.5c-1.18-.67,2.33-4.74,2.59-4.89,1.63-.93,2.01.82,2.25.88.94.22,2.16-.11,3.16.01l-.5,1.99h3s0,1.5,0,1.5h-8Z"/><path class="cls-96" d="M183.5,269c.14.14-.18,1.95.07,2.7.24.7,1.34.66,1.46,1.13.85,3.57-6.43,2.96-6.96,2.11-.48-.76.2-4.67-.07-5.93.9.15,5.31-.2,5.51,0Z"/><path class="cls-141" d="M271,269c-.2-.12-1.76.31-.76-1.01.2-.27,5.1-3.92,5.43-3.91s5.41,3.63,5.61,3.9c.58.79-.5,1.43-1.28,1.51-3.01-.29-6.01-.46-9-.5Z"/><path class="cls-140" d="M280,269.5c.12.4.05,1.94,0,2.5-.25,2.91-.39,2.59-3.5,2.5-.9-2.67,2.93-.46,2-2.74-1.16-2.85-4.72,1.15-2.5,3.74-2.96.61-1.91-1.29-2-3.5s-1.73-.2-2.52-.72c-.68-.45-.34-1.3-.48-1.78,2.86-.42,6.16-.63,9,0Z"/><path class="cls-46" d="M213.5,271.5c-.05,2.01-.18,4.24-2.5,3.5v-8.75c0-.28.74-1.11.5-1.75l2,.51c-.36,1.04-1.45,4.76-.89,5.41.2.23.83.03.89.09,1.36.36,1.27.53,0,1Z"/><path class="cls-133" d="M213.5,270.5c1.54,1.39.84-1.23,2.24-1,1.26.21-.12,2.62.26,3h4.21c1.45,2.04-2.31,2.11-3.73,1.8-1.88-.41-2.11-1.28-2.98-2.79,0-.27.05-.95,0-1Z"/><path class="cls-87" d="M266.5,304.5c-.17,0-.33,0-.5,0-.44-9.48-.47-19.82,0-29.5v-.5c.16,0,.34-.02.5,0v30Z"/><path class="cls-108" d="M266,304.5c-.17,0-.33,0-.5,0,0-8.91-.1-17.84,0-26.76,0-.85-.32-2.22.51-2.74v29.5Z"/><path class="cls-41" d="M220,266c-.07.41.11,1.34,0,1.49-.22.27-4.91,1.11-5.49-.24-.96-2.23,4.14-.92,5.5-1.24Z"/><path class="cls-140" d="M259.49,275.5l-1.36-1.24c.68-.5,1.15-4.18,2.11-3.75,1.98.88-.81,3.77-.75,4.99Z"/><path class="cls-57" d="M280,269.5c-2.85.29-6.1-.21-9,0-.05-.17.07-.46,0-.5,2.34.13,5.65-.42,7.76-.27.51.04,1.07.23,1.24.77Z"/><path class="cls-73" d="M267,270.5v.5c-2.45.03,1.44,2.83-3,2.25.14-.5.91-2.54,1.1-2.66.41-.28,1.34-.04,1.91-.08Z"/><path class="cls-130" d="M261,269v.5c-.12-.13-2.29.57-2.99-1.25,1.05-1.49,2.44-.53,2.99.75Z"/><path class="cls-74" d="M228,264.5c0,1.33,0,2.67,0,4-.14.44-.31.43-.5,0,.18-1.22.1-2.88-.5-4,.33,0,.67,0,1,0Z"/><path class="cls-20" d="M196,268v.5l-2,.5c-.34-1.63.94-.81,2-1Z"/><path class="cls-117" d="M163,282c.17,0,.33,0,.5,0-.52.83-1.9.5-2.74.51-18.16.23-36.35-.19-54.51,0l-1.74-.49c19.49,0,39.01-.01,58.5,0Z"/><path class="cls-148" d="M164,282c17.66,0,35.34,0,53,0,.12.87-1.13.47-1.74.49-15.77.65-32.15-.18-48.01,0-.85,0-2.22-.32-2.74.51-.23-.32-.53-.54-.5-1Z"/><path class="cls-90" d="M83.5,470c-.01.07-.63.1-.5.49h2.5s0,1.5,0,1.5h-3c-.55,1.85,2.14.63,2.5,1v1.5c-.36.37-3.05-.85-2.5,1h2.5s0,1.5,0,1.5c-.36.37-3.05-.85-2.5,1h3s0,1.5,0,1.5c-1.7.14-3.56-.2-5.23.02-1.04.14-2.51,2.09-2.77.24-.25-1.76.18-3.94,0-5.76-1.51-1.98-.81,4.79-1,4.99-3.77-1.16-2.01.45-2.55.93-.15.13-1.88.14-1.95.07-.21-.2.19-3.71-.02-4.65-.07-.29-1.47-.63-1.26-2.11.1-.72,3.12-4.9,2.28-5.74-.31-.31-2.05.84-1.5-1.5,1.36.14,2.99-.21,4.29-.04.92.12.65.92,1.06,1.03,3.66.91,2.7-1.65,3.16-1.99.08-.06,1.83.52,1.91.58.09.07-.58,1.07.39,1.37,1.08.33,2.21.01,3.19-.44l.5,3.49h-2c-.05-1.08-.88-1.58-2.5-1.5-.28.53-.28.7,0,.5.86-.75,3.11-.41,2,1Z"/><path class="cls-81" d="M53,465.5c.7-.76,9.38,6.77,11,7.01l-11,7.99v-15Z"/><path class="cls-138" d="M123.5,474.5c-.77.29-2.11,1.15-2.73,1-2.14-1.95.33-2.21,1.68-3.29s3.05-2.27,4.04-3.7c-2.41-.33-5.24,1.26-4.5-2,6.4.07,12.47-1.6,4.5,4.99,9.21-.85,7.94,9.28-1.28,8.03-2.57-.35-3.64-2.58-1.72-4.52l.19-.34c4.96-.78,4.89-.84-.19-.16Z"/><path class="cls-138" d="M104.5,470c-1.58-.05-.93-.28-1-2,1.05-.26,7.25-.23,7.51-.5.46-.48-1.22-2.68,2-2.01-.7,3.26,2.06,1.69,4.5,2.01.74,3.26-2.09,1.68-4.5,2-.29,2.69,1.12,4.55-.11,7.14-.75,1.58-3.89,4.32-5.4,2.64-1.74-1.95,2.45-1.03,3.01-3.27-4.3.99-6.38-4.06-2-5.5-1.05-.5-2.38-.67-4-.5Z"/><path class="cls-12" d="M93,468c.21-.77-.69-1.91.73-2,2.56-.17,5.21.13,7.77,0-.28,2.67.46,8.14-3.5,7.01,0,.56.61.75,1,1,.96,2.77-2,3.43-2.5.5-.25,1.37-.99,1.27-1.5,0,.15-.54.22-.07.5-1.5-.05-.54,1.28-1.46,1.41-1.29.37.47-.84.97-1.41.79-1.22,1.5-1.9.52-2.5.5-.61.38-.84.15-.5-.5-.44-.14-.43-.31,0-.5.76-.12,1.73-.55,1.99-1.28.29-.81-.81-.87-.99-1.22-1.32-.3-1.3-.66,0-1v-.5c-.09.45-.26.43-.5,0Z"/><path class="cls-153" d="M95,474.5c1.05.19,1.04,1.8,0,2-.18,1.08-.51,1.75-1,2-.07.1-1.72,1.5-1.84,1.51-.76.07-1.62-.61-2.37-.55-.3.02-.23,1.59-1.54,1.03s-.57-4.18-.76-5.5c.84.14,4.83-.18,5.01,0,.26.27-.56,2.12.49,2,.12-.55-.15-2.34,0-2.5.07-.07,1.55,0,2,0Z"/><path class="cls-12" d="M96.5,474.5l.95,1.11c-.2,1.29.15,1.76,1.05,1.39,1.61-.99,2.11-.82,1.5.5.63,2.74-2.03,3.04-4.18,2.4-.62-.18-.65-.76-.82-.9-.77-.64-.45-1.63,0-2.5,0-.58-.12-1.57,0-2,.48,0,1.08-.08,1.5,0Z"/><path class="cls-130" d="M123.5,474.5c.15-.06.44-.58.97-.76,1.57-.54,5.91-.93,6.08,1,.06.73-.05,1.93-.8,2.25-1.37.6-1.38-1.31-2.63-1.88-1.12-.51-2.46-.31-3.62-.11v-.5Z"/><path class="cls-18" d="M92.5,468c.17,0,.33,0,.5,0s.33.01.5,0c.44.14.43.31,0,.5.06.3-.1.81,0,1l-6.5.5c-.41-.87.45-1.65.5-2,1.56-.42,3.43-.38,5,0Z"/><path class="cls-48" d="M92.5,472.5c.22,0,.59.2.5.5-.62-.03-.32,1.16-.58,1.41-.41.4-3.95-.1-4.93.09-.02-.5.02-1,0-1.5,1.32-.77,2.99-.93,5-.5Z"/><path class="cls-9" d="M99.5,474.5c2.14,1.33,1.62,2.67-1,2.5-.18.22-.1,1.24-.76,1.5-1.59.37-1.29-3.02-1.24-4,.81.15,1.99,2.43,2.5-.5.2.13.34.4.5.5Z"/><path class="cls-62" d="M99.5,474.5c.17.1.95-.22,1.38.1.16.12,1.62,3.32,1.64,3.61.01.25-1.21.72-1.28.71-.33-.04-.84-1.08-1.24-1.42-.52-.45-.74-.64-1.5-.5.88-1.11,1.93.56,1-2.5Z"/><path class="cls-170" d="M87.5,467.5c.11-.39-.08-1.04,0-1.5,1.79.39,5.69-1.19,5,1.5-1.38.46-3.56.39-5,0Z"/><path class="cls-52" d="M87.5,472c.05-.46-.28-1.43.29-1.51h4.71s0,1.51,0,1.51c-1.3.44-3.98.81-5,0Z"/><path class="cls-63" d="M104.5,470l6.5-.5c.47,1.49-1.56,1.07-2.5,1-1.14-.09-2.39-.45-4-.5Z"/><path class="cls-66" d="M92.5,472v.5c-1.34.03-3.51.43-5,.5-.01-.32-.03-.69,0-1,1.57-.16,3.5.24,5,0Z"/><path class="cls-85" d="M92.5,467.5v.5c-1.66.06-3.34-.04-5,0,.03-.17-.04-.36,0-.5h5Z"/><path class="cls-77" d="M95.5,472.5c.07-.57.77-2.2,1.49-1.5l.51,1.49-2,.51c.03-.16-.02-.34,0-.5Z"/><path class="cls-134" d="M81.5,468.5c1.53-.37,3.04-.25,2.5,1.5h-.5c.05-.31-.02-.67,0-1h-2c-.32-.15-.32-.32,0-.5Z"/><path class="cls-64" d="M95,479c-.27-.21-.7-.31-1-.5.25-.34.12-1.67,1-2-.01.83,0,1.67,0,2.5Z"/><path class="cls-79" d="M48,420c-1.2.82-.81,2.69-2,3.5l-5.5.5c-.48-.14-.37-2.08-2.5,0,.04-.38-.12-.53-.5-.5-.72-4,3.83-4.1,6.73-3.54.65.13-.07,1.39.52,1.53.72-.5,2.01-2.42,2.75-2.5.19.27.33.68.5,1Z"/><path class="cls-126" d="M40.5,424l.47-1.17c.54,1.84,3.71-.25,5.03.67-.85.58-4.56.77-5.5.5Z"/><path class="cls-38" d="M50,416c-.33.65-3.02.52-4.5,1-1.06.34-1.41.98-1.5,1-.05-.28.07-.94,0-1-1.61-1.39-8.81.4-9.5-1h15.5Z"/><rect class="cls-93" x="173" y="285" width="13" height="13"/><path class="cls-26" d="M188,292c2.18.58,1.55,3,4.49,1.49.68-2.39-2.24-2.25-2.49-2.5-1.23-1.23,3.13-.74,1.75-3-1.24-2.02-4.13,3.47-3.76.75.49-3.62,5.81-2.76,5.52-.03-.07.65-.85,1.21-.85,1.54-.02.78,2.7,2.14.38,4.03-2.07,1.69-5.63.83-5.04-2.29Z"/><path class="cls-15" d="M199.5,286.5c.27.26-.26,4.22,0,5.18.15.57,1.26-.08,1.01,1.07-.1.46-.71.11-.87.36-.54.8.58,2.27-1.13,1.89.49-3.13-1.02-1.69-3.26-2-.62-.09-.94.25-.75-.76.1-.53,3.06-5.04,3.49-5.4.56-.49.82-.38,1.52-.34Z"/><path class="cls-113" d="M230.5,270.5c-.12-.45-.67-1.85-.5-2h1.5s-.5,5.5-.5,5.5c-.67-.71-.99-1.14,0-1.5,0-.33.05-.71,0-1-1.09-.22-1.25-.56-.5-1Z"/><path class="cls-146" d="M224,272.5c-.07-1.32.04-2.68,0-4,3.09-.02.72.68.5,2,1.3.21,1.22.55,0,1,0,.33,0,.67,0,1-.14.44-.31.43-.5,0Z"/><path class="cls-173" d="M224.5,272.5h2c.6.29-1.99,1.18-2.49,1.5-.03-.5.02-1,0-1.5h.5Z"/><path class="cls-69" d="M230.5,270.5c.09.33.45.7.5,1h-2.5c-.33-1.5.74-.94,2-1Z"/><path class="cls-118" d="M224.5,270.5c.95-.06,2.22-.1,2.5,1h-2.5c0-.32-.05-.7,0-1Z"/><path class="cls-86" d="M231,272.5c0,.5,0,1,0,1.5l-2.01-1.25,2.01-.25Z"/><path class="cls-172" d="M228,268.5s.6.15.27.5c-2.29,1.4-.79-.32-.77-.5h.5Z"/><path class="cls-76" d="M207,272.5c-.31,1.12.78,1.79-1.5,1.5-.05-1.1.6-2.02,1-3,.54-.28.7.22.5,1.5Z"/><path class="cls-151" d="M207,272.5l-.5-1.5c.26-.65.55-1.27.51-2h.49c.35,1.45-.17,2.35-.49,3.5Z"/><path class="cls-49" d="M192.5,268c.49,1.78-1.69.67-2,.99-.26.26.56,2.12-.49,2l-.29-2.51,2.79-.48Z"/><path class="cls-149" d="M194.5,267l-2-.24c.77-1.09,1.54-.97,2,.24Z"/><rect class="cls-23" x="194" y="270" width="1.49" height=".99"/><path class="cls-70" d="M250,270.99c.18-.92,3.17-.57,3.67-.41,1.33.42,1.14,2.81-.4,1.91-1.03-.6-1.82-1.51-3.26-1.5Z"/><path class="cls-166" d="M239.5,269.5c.15.15.32,1.9-.74,1.49-1.81-.69-.13-2.36.74-1.49Z"/><rect class="cls-95" x="177.5" y="266.51" width="2.5" height=".49"/><path class="cls-61" d="M182,270.5l-2,1c.25.33.5,1.39.56,1.44.54.46,3.71-1.21,2.94.29-.6,1.18-2.88.69-4,.76v-3.5s2.5,0,2.5,0Z"/><path class="cls-160" d="M277,267.49l-3-.24c1.2-1.63,2.08-1.56,3,.24Z"/><path class="cls-167" d="M76.5,467.5c.04,1.77-.64,2.87,1.51,2.5l-1.26,1.99c-.41-1.51-1.36-.99-2.75-1,.38-1.51.26-3.95,2.5-3.5Z"/><path class="cls-122" d="M74,477l.24-4.5c1.13,1.01,1.28,3.83-.24,4.5Z"/><rect class="cls-50" x="79" y="477" width="1.99" height=".99"/><rect class="cls-106" x="79" y="474.5" width="1.99" height=".99"/><path class="cls-174" d="M81.5,469c.13,1.59.15,1.68-1.5,1.49.3-.67.73-1.81,1.5-1.99v.5Z"/><path class="cls-106" d="M81,472v.99s-2,0-2,0c.27-.99,1.06-1.12,2-.99Z"/><path class="cls-45" d="M126.41,476.59c.06.04.39,1.09.59,1.41-3.6.49-2.76-2.78-.59-1.41Z"/><path class="cls-68" d="M109.34,472.08c.89-.25,1.14.04,1.66.68-1.08,3.64-4.47.1-1.66-.68Z"/><path class="cls-2" d="M99.5,467.5c.45.74-.27,5.28-1.5,4-.21-.22.59-1.27.46-1.45s-1.25-.19-1.35-.76c-.26-1.44,1.04-2.24,2.39-1.79Z"/><path class="cls-106" d="M93.5,468c.71-.05,2.29-1.51,2,.5h-2s0-.5,0-.5Z"/><path class="cls-66" d="M91,476.5c.79.79-.7,2.29-1.49,1.49s.7-2.29,1.49-1.49Z"/><rect class="cls-55" x="174" y="285.5" width="11.5" height="11.5"/><polygon class="cls-171" points="198.5 292 196 292 198.25 288.5 198.5 292"/><rect class="cls-93" x="175" y="286.5" width="9.5" height="9.5"/></svg>