<?xml version="1.0" encoding="UTF-8"?><svg id="_レイヤー_1" xmlns="http://www.w3.org/2000/svg" viewBox="0 0 600 410"><defs><style>.cls-1{fill:#f1f1f1;}.cls-2{fill:#070707;}.cls-3{fill:#323232;}.cls-4{fill:#e0e0e0;}.cls-5{fill:#111;}.cls-6{fill:#2b2b2b;}.cls-7{fill:#dfdfdf;}.cls-8{fill:#050505;}.cls-9{fill:#3669e3;}.cls-10{fill:#151515;}.cls-11{fill:#b2403a;}.cls-12{fill:#bdbdbd;}.cls-13{fill:#6c727f;}.cls-14{fill:#2f2f2f;}.cls-15{fill:#eaeaea;}.cls-16{fill:#292929;}.cls-17{fill:#393939;}.cls-18{fill:#939393;}.cls-19{fill:#3c3c3c;}.cls-20{fill:#3568e3;}.cls-21{fill:#545454;}.cls-22{fill:#6e7481;}.cls-23{fill:#e3e3e3;}.cls-24{fill:#5cb14a;}.cls-25{fill:#d2d2d2;}.cls-26{fill:#dae2e9;}.cls-27{fill:#e6e6e6;}.cls-28{fill:#d0d0d0;}.cls-29{fill:#d9e3e9;}.cls-30{fill:#e2e2e2;}.cls-31{fill:#1c1c1c;}.cls-32{fill:#efefef;}.cls-33{fill:#030303;}.cls-34{fill:#e4e4e4;}.cls-35{fill:#f6f6f6;}.cls-36{fill:#ebebeb;}.cls-37{fill:#d9d9d9;}.cls-38{fill:#a1a1a1;}.cls-39{fill:#f4f4f4;}.cls-40{fill:#dbdbdb;}.cls-41{fill:#cecece;}.cls-42{fill:#2c2c2c;}.cls-43{fill:#171717;}.cls-44{fill:#2e5faf;}.cls-45{fill:#6f7ea9;}.cls-46{fill:#0d0d0d;}.cls-47{fill:#d4d4d4;}.cls-48{fill:#1d1d1d;}.cls-49{fill:#c4cad0;}.cls-50{fill:#e5e5e5;}.cls-51{fill:#757575;}.cls-52{fill:#d8d8d8;}.cls-53{fill:#c3c3c3;}.cls-54{fill:#dedede;}.cls-55{fill:#a0a0a0;}.cls-56{fill:#373737;}.cls-57{fill:#272727;}.cls-58{fill:#303030;}.cls-59{fill:#bebebe;}.cls-60{fill:#ddd;}.cls-61{fill:#060606;}.cls-62{fill:#ccd3d9;}.cls-63{fill:#020202;}.cls-64{fill:#e7e7e7;}.cls-65{fill:#d7d7d7;}.cls-66{fill:#d3dbe3;}.cls-67{fill:#a85823;}.cls-68{fill:#121212;}.cls-69{fill:#262626;}.cls-70{fill:#79a08f;}.cls-71{fill:#96b0f0;}.cls-72{fill:#343434;}.cls-73{fill:#f9f9f9;}.cls-74{fill:#f0f0f0;}.cls-75{fill:#242424;}.cls-76{fill:#040404;}.cls-77{fill:#717783;}.cls-78{fill:#3266e2;}.cls-79{fill:#cdcdcd;}.cls-80{fill:#9f9f9f;}.cls-81{fill:#fafafa;}.cls-82{fill:#bbb;}.cls-83{fill:#080808;}.cls-84{fill:#a8281e;}.cls-85{fill:#e9e9e9;}.cls-86{fill:#101010;}.cls-87{fill:#f8f8f8;}.cls-88{fill:#7e7e7e;}.cls-89{fill:#2e2e2e;}.cls-90{fill:#54b639;}.cls-91{fill:#f7f7f7;}.cls-92{fill:#3769e3;}.cls-93{fill:#282828;}.cls-94{fill:#84ac9b;}.cls-95{fill:#fefefe;}.cls-96{fill:#2a61bb;}.cls-97{fill:#0c0c0c;}.cls-98{fill:#717683;}.cls-99{fill:#acacac;}.cls-100{fill:#7a89b5;}.cls-101{fill:#f2f2f2;}.cls-102{fill:#f5f5f5;}.cls-103{fill:#383838;}.cls-104{fill:#2a2a2a;}.cls-105{fill:#e1e1e1;}.cls-106{fill:#949494;}.cls-107{fill:#131313;}.cls-108{fill:#f3f3f3;}.cls-109{fill:#0a0a0a;}.cls-110{fill:#fbfbfb;}.cls-111{fill:#fcfcfc;}.cls-112{fill:#252525;}.cls-113{fill:#eef1fd;}.cls-114{fill:#2d2d2d;}.cls-115{fill:#aeaeae;}.cls-116{fill:#828792;}.cls-117{fill:#a4a4a4;}.cls-118{fill:#3467e2;}.cls-119{fill:#313131;}.cls-120{fill:#353535;}.cls-121{fill:#ededed;}.cls-122{fill:#333;}.cls-123{fill:#2361c4;}.cls-124{fill:#dee6ee;}.cls-125{fill:#dadada;}.cls-126{fill:#090909;}.cls-127{fill:#ab3d37;}.cls-128{fill:#555;}.cls-129{fill:#eee;}.cls-130{fill:#888;}.cls-131{fill:#dcdcdc;}.cls-132{fill:#0f0f0f;}.cls-133{fill:#161616;}.cls-134{fill:#181818;}.cls-135{fill:#0e0e0e;}.cls-136{fill:#1b1b1b;}.cls-137{fill:#222;}.cls-138{fill:#434343;}.cls-139{fill:#e8e8e8;}.cls-140{fill:#ececec;}.cls-141{fill:#fdfdfd;}</style></defs><rect class="cls-141" width="600" height="410"/><path class="cls-7" d="M229.5,367.5c-1.37-2.86-1.37-6.14,0-9,1.21-.93,2.66-1.55,4.23-1.52h328.04c6.93.37,8.64,8.89,2.15,11.69-110.7.55-221.64.56-332.34,0l-2.08-1.16Z"/><path class="cls-7" d="M251,247.5c-.39-.11-.96-.27-1-.58-.18-1.36-.25-9.57,0-10.69l1-.73c104.29-.1,208.68-.2,312.92.33,6.49,2.8,4.78,11.31-2.15,11.69-103.59-.11-207.19.08-310.77-.02Z"/><path class="cls-7" d="M254.5,307c-1.37-2.86-1.37-6.14,0-9,1.21-.93,2.66-1.55,4.23-1.52h303.04c6.93.37,8.64,8.89,2.15,11.69-102.37.55-204.97.56-307.34,0l-2.08-1.16Z"/><path class="cls-7" d="M271.5,399.5c-.39-.11-.95-.26-1-.58-.22-1.41-.24-9.34,0-10.69l1-.73c97.45-.35,195.02-.01,292.42.33,6.49,2.8,4.78,11.31-2.15,11.69-96.75-.3-193.52.33-290.27-.02Z"/><path class="cls-7" d="M304.5,147.5c-.39-.11-.95-.26-1-.58-.22-1.41-.24-9.34,0-10.69l1-.73,257.27-.02c6.93.37,8.64,8.89,2.15,11.69-86.4.6-172.97.35-259.42.33Z"/><path class="cls-7" d="M308,92.5c-.39-.11-.95-.26-1-.58-.22-1.41-.24-9.34,0-10.69l1-.73,253.77-.02c6.93.37,8.64,8.89,2.15,11.69-85.24.59-170.63.35-255.92.33Z"/><path class="cls-67" d="M498.5,266c.39.11.95.27,1,.58.2,1.41.25,9.43,0,10.69l-1,.73c-81.99.11-164.01-.08-246,0v-12c81.99.08,164.01-.11,246,0Z"/><path class="cls-7" d="M327.5,337c-1.37-2.86-1.37-6.14,0-9,1.21-.93,2.66-1.55,4.23-1.52h230.04c6.93.37,8.64,8.89,2.15,11.69-78.03.55-156.31.56-234.34,0l-2.08-1.16Z"/><path class="cls-113" d="M215.5,33.5c-.21.77-.54,1.27-1,1.5.12,1.91-2.85,2.69-4.5,2.82l-6.62.51c-21.56-.23-43.11-.33-64.66-.31-1.81-.02-5.78-.89-5.72-3.02-.43-.15-.76-.65-1-1.5-.41-4.72-.67-19.31.22-23.53.83-3.94,4.28-5.72,8.01-5.99,21.78-1.62,45.55,1.27,67.54,0,3.38,0,7.01,3.05,7.61,6.39.8,4.37.53,18.34.12,23.13Z"/><path class="cls-123" d="M33.86,168.11l531.86-.08c1.87.27,3.24,1.82,3.29,3.71l-.04,49.98c-.33,2.13-2.09,3.39-4.2,3.3l-530.49-.05c-2.42-.49-3.1-1.92-3.3-4.2-1.4-15.58,1.1-33.23.01-49.03.04-1.73,1.2-3.18,2.87-3.63Z"/><path class="cls-70" d="M304.5,135.5v12c-52.26,0-104.76,1.02-157,0-3.15-.38-4.12-1.35-4.5-4.5-.02-1-.02-2,0-3,.38-3.15,1.35-4.12,4.5-4.5,52.24-1.02,104.74,0,157,0Z"/><path class="cls-45" d="M308,80.5v12c-43.11-.01-86.41.84-129.5,0-3.15-.38-4.12-1.35-4.5-4.5-.02-1-.02-2,0-3,.38-3.15,1.35-4.12,4.5-4.5,43.09-.84,86.39.01,129.5,0Z"/><path class="cls-7" d="M498.5,278v-12c21.9.03,43.98-.41,65.79.46,5.86,2.92,4.44,10.8-2.04,11.54-21.25.02-42.51-.03-63.75,0Z"/><path class="cls-67" d="M251,235.5v12c-13.16-.01-26.34,0-39.5,0v-12c13.16,0,26.34.01,39.5,0Z"/><path class="cls-13" d="M137.5,41c20.45-1.51,41.19-1.5,61.73-1.1,3.45.07,6.87.56,10.27,1.1.94.01,5.8-.22,6,0,.07.07.1,2,0,2H32l.29-2.01c35.07.03,70.15-.01,105.21,0Z"/><path class="cls-78" d="M214.5,35c.45-.6.62-.44.5.5-.98,3.03-2.68,4.17-5.5,5.5-23.98-.31-48.02.01-72,0-2.47-1.64-4.05-2.55-5-5.5-.09-.57-.07-.73.5-.5,1.31,1.16,3.97,1.86,5.73,2.02,22.59-1.37,47.19,1.75,69.54,0,1.87-.15,4.84-.68,6.23-2.02Z"/><path class="cls-67" d="M271.5,387.5v12c-6.33-.02-12.67.02-19,0v-12c6.33-.02,12.67.02,19,0Z"/><path class="cls-112" d="M162.5,332c-1.12-1.13-4.79-.22-6.5-.5-.06,2.6.32,5.98-.87,8.38-.4.8-1.27.98-1.63.62-.46-.45.88-2.5.97-3.27.26-2.07-.9-6.81,1.28-7.22,2.64-.5,6.8,1.47,7.24-1.76-.86-.31-2.83-.46-3.64-.25-.7.18-.53,1.87-1.85,1.51.83-3.17-3.62-.01-3.5-2.5,1-.12,2.21.21,3.16-.01.48-.11.12-1.38,1.58-1,.21.05.37,1.52,3.54,1.05,1-.15.63-1.08.96-1.06.88.04,2.94,1.87,4.74,1.02l-2,1c.61,1.26,2.36,1.79,2,3.49-2.99.28-4.7-1.34-3.76,2.52.11.45.15,1.12.76.98-.16-.62,1.18-3.93,2-2.99s-3.47,6.12-.24,7.49l.25-2c1.4-1.57,2.7,4.88-1.51,2.75-.88-.44-.92-1.7-1-1.76-.32-.22-1.66,1.86-2.75,2.03-.97.15-.43-1.01-1.47-1.08-1.31-.09-2.49.54-3.77.56v-7.25c0-1.19,4.93-.65,6-.75.27,1.45.62,3.56-.48,1.65-.35-.61-.09-1.24.48-1.65Z"/><path class="cls-93" d="M71.5,365.5c-.48-1.94-5.26-.41-5.5-1.26-.33-1.16,1.07-.72,1.75-.74,1.25-.05,2.51.04,3.75,0-.41-1.88-4.89-.43-5.01-1.28v-2.72s5.01-.49,5.01-.49h-6.5s0-1.5,0-1.5c.27-.29,5.14.27,6.18,0,.51-.13.11-.91.58-1.01,1.15-.25.5.86,1.07,1.01,1.03.28,5.9-.3,6.18,0v1.5s-6.5,0-6.5,0l5,.49v3.01c-.9.16-4.83-.34-5.01.25-.33,1.16,1.07.71,1.75.74s3.15-.12,3.26,0c.17.18-.18,1.84,0,2.01s1.76-.18,2.01,0c1.17.88-1.57,1.15-1.78,1.46-.43.64-.17,1.77-.22,2.54-.86-.3-4.68-.85-5-.5-.17.19.25,1.58-.05,1.95-.12.15-3.29.72-3.45.55-1.49-1.56,2.17-1.3,2.5-2.49-1.24-.05-2.51.05-3.75,0-.77-.03-1.98.47-1.74-.74,1.44-1.6,3.8-.2,5.49-1.01-.57-.83-1.37-.72-2.22-.78-1.25-.09-5.16.82-4.78-.97h7Z"/><path class="cls-93" d="M39.5,365.5c-.48-1.94-5.26-.41-5.5-1.26-.33-1.16,1.07-.72,1.75-.74,1.25-.05,2.51.04,3.75,0-.41-1.88-4.89-.43-5.01-1.28v-2.72s5.01-.49,5.01-.49h-6.5s0-1.5,0-1.5c.27-.29,5.14.27,6.18,0,.51-.13.11-.91.58-1.01,1.15-.25.5.86,1.07,1.01,1.03.28,5.9-.3,6.18,0v1.5s-6.5,0-6.5,0l5,.49v3.01c-.9.16-4.83-.34-5.01.25-.33,1.16,1.07.71,1.75.74s3.15-.12,3.26,0c.17.18-.18,1.84,0,2.01s1.76-.18,2.01,0c1.17.88-1.57,1.15-1.78,1.46-.43.64-.17,1.77-.22,2.54-.86-.3-4.68-.85-5-.5-.17.19.25,1.58-.05,1.95-.12.15-3.29.72-3.45.55-1.49-1.56,2.17-1.3,2.5-2.49-1.24-.05-2.51.05-3.75,0-.77-.03-1.98.47-1.74-.74,1.44-1.6,3.8-.2,5.49-1.01-.57-.83-1.37-.72-2.22-.78-1.25-.09-5.16.82-4.78-.97h7Z"/><path class="cls-112" d="M129,360.5s-.52-.28-.43-.66c.05-.19,1.99-3.29,2.18-3.35,1.92-.63.86,1.36,1.52,1.54.38.1,3.43.09,3.88-.02.63-.15.56-1.7,1.6-1.51l.25,1.5h5c.51,1.94-2.39.58-3,1.01l.5,1.5c-.38.59-1.67.29-2.35-.04-1.16-.56,1.8.23,2.35.54.83.04,1.67-.03,2.5,0-.05,2.42-3.49,1.27-5.26,1.5-.73.09-1.55.39-.74,1l4.77-.02c.44,3.06,1.18,4.31-2.27,4.27.16.37,5.96,2.22,3.24,2.75-1.8.35-5.56-2.76-5.74-2.5-.01,1.39.48,3.57-1.5,3.5v-4c-.25-.33-5.86,5.22-7,2.01,1.03-.17,2.06-.55,3-1.01.05-.42-.45-.76-1.5-1-.29-.9.2-2.9,0-4,.42-.42,5,.9,5.5-.99-1.03-.2-6.2.26-6.5,0-.12-.11.1-1.11,0-1.5,3.73-1.1,3.73-1.27,0-.5Z"/><path class="cls-33" d="M50.5,70.5c2.58.24,4.27-1.14,4.25,2,3.91-4.3,3.64-1.71,7.53.49.2,2.53-2.12.66-3.78,1.76,0,.62,2.77.02,3.01.25.14.14.14,3.86,0,4.01-.28.28-2.53-.6-2.5.49l3.5,1.52c-.34,3.69-4.72-1.22-4.99-1.01-.05.04-.02.81-.52,1.21-1.74,1.42-4.58,1.23-3.49-.21.11-.14,2.69-.66,3-1.76-.49-.46-4.31.11-4.47.28-.67.7,1.42,3.87-2.03,2.97-.25-.18.5-.64.5-.74v-11.25Z"/><path class="cls-75" d="M54.5,390.5c.58-.18,1.28-2.76,1.51-3.5l1.99,2.5v-3s1.5,0,1.5,0c-.86,4.95,1.92,2.2,3,3.01.57,1.92-2.6.59-3,1,.05.75-.2,1.92.22,2.53.79,1.16,4.27-.35,3.78,1.21-.18.58-2.31.11-3,.26-.21,2.06,4.29,3.86,2.25,5.49l-3.24-3.99-.26,5.5c-2.01-.04-1.05-3.89-1.25-5-1.19.96-1.47,1.95-2.95,2.8-.47.27-1.35,1.16-1.55-.06-.11-.71,3.68-3.22,3.99-4.5l-3-.25c.42-1.97.26-1.97-.5,0-.33,1.06-3.32,8.02-5,6.5-.82-.74,5.09-4.71,1.5-6.29-.46-.2-1.8,1.51-2,.03-.11-.78,2.2-4.4,2.03-5.97-.05-.49-1.71-.19-2.02-1.02-.02-1.22,5.43-.63,6.49-.75v1.5c-.84.13-1.92-.2-2.68-.02-.62.15-.22.8-.32,1.02.43.67,1.26,1,2.5,1Z"/><path class="cls-75" d="M193.5,327s-.2.87.33,1.01c1.36.36,5.16-.64,5.95.48.69,2.24-2.3,6.48-2.27,7.78.04,1.77,3.35,2.53,2.99,3.48-.92,2.4-3.1-1.9-4.18-1.71-.84.15-1.84,2.67-5.05,2.47l-.26-2.51-5.5.5c-.23-1.48,1.34-.9,1.54-2.23.17-1.17.17-5.89-.03-7.03-.27-1.56-1.84-.67-1.51-2.24,1.34.29,7.41-.39,8,0Z"/><path class="cls-33" d="M42.5,137.5c-2.47.74-1.24-2.18-1.5-4l-1.99.5c-.66-2.24,1.5-1.06,1.94-2.31.26-.75,0-1.86.06-2.69l-1,2.5c-2.05.11-.71-5.29-.49-5.5.11-.1,1.31.7,1.49.51-.1-1.58-.17-1.67,1.5-1.51-.58,3.92,2.42,3.71,2.51,0,1.52-.46,1.22,1.87,1.8,2.03.79.22,3.94-.29,4.19-.03.36.36-.23,8.42-.75,9.5-.71,1.44-3.78,1.64-3.75-.5.91-.81,1.74-1.64,2.5-2.5.19-1.69.02-2.36-.5-2,.23,2.4-.43,3.9-2,4.5-.76.33-1.5,1.08-2.26,1.48l-.74-.98c-.93-1.24.62-2.6,2-2.5.06-.91.56-1.74,1.5-2.5.26-1.12.1-1.12-.5,0,.01.8-.75,1.78-1.5,2-1.05,1.07-1.88,2.4-2.5,4Z"/><path class="cls-33" d="M65.5,70.5c.3-.1.66-.83,1.5-.5-.59,3.91,2.43,3.7,2.51,0,1.52-.46,1.22,1.87,1.8,2.03,1,.28,3-.26,4.19-.03.34.35-.63,9.15-.96,9.67-.57.9-3.12,1.39-3.54-.17,1.04-.92,1.65-2.01,1.81-3.25l.69-.25c.18-1.17.01-1.84-.5-2,.07,2.57-.15,4.71-3,5.5-.64.18-1.66,1.85-2.5-.25-.04-.09,1.02-.72,1.5-1.25-.14-.49-.51-.79-1-1-.28-.32-.4-1.02-1-1v4.5s-1.5,0-1.5,0c-.12-.68.17-3.35,0-3.5-.26-.23-2.35.67-2.5-1.49,2.88-.08,2.7-.88,2.5-3.5-1.07-.09-.46,2.46-1.74,1.99-.85-.31-.35-2.78-.26-3.5.06-.97.73-1.64,2-2Z"/><path class="cls-33" d="M95.5,70.5c.8,1.38.71,3.09,0,4.5.44.65.69.9,1,0-.87-.69-.75-3.69,0-4.5,1.83.02,3.67-.02,5.5,0,.19.54-.5,1.09-.5,1.25v10c0,.13-.57.64-.81.71-1.9.58-4.08-2.43-4.44-2.43-.14,0-1.41,1.49-2.26,1.78-1.09.37-1.18-.25-1.49-.31.45-2.46.28-2.46-.5,0-.06.1-.36,2.09-1.5,1-.43-.41.32-10.43,0-12,1.66-.02,3.34.03,5,0Z"/><path class="cls-75" d="M55,369.5c-1.25.2-3.09-.3-4.18,0-.53.14,0,1.5-1.32,1.01v-7c.47-.09,1.86.14,2,0,.09-.09.09-2.42,0-2.5-.24-.22-3.36.61-3-1.5.9-.77,3.93,1.91,3-3.01h1.5c.12.62-.16,2.85,0,3.01.13.13,1.92-.08,2.5,0,.98.86.14,1.36-2.5,1.5l.95.42c-.45.9.06.92,1.55.08-.58-.54.36-1.35,1-1.5.4-.91.3-2.99,1.26-3.5,1.79-.2-.22,2.22.72,2.76l5.02.24c.4,1.4-.92.8-1.4,1.83-.7,1.49-.58,3.95-1.92,5.43.41,1.75,2.07,2.45,3.31,3.49-1.7,2.4-3.3-1.56-4.23-1.63s-3.08,3.02-4.76,2.38c-.2-.6.47-1.19.5-1.5q1.28-1.77,0,0Z"/><path class="cls-112" d="M35.5,386.5c2.55-.35,1.12.97,1.47,2.73.11.57,2.22-.35,1.53,1.77-.11.32-.28.3-.5,0-.12,1.01-.61.97-1,0-.35.79-.46,1.72,0,2.5.39-1.13,1.96-.46,2,.5,1.74.41,3.41.41,5,0-1.41-.79-3.08-1.04-5.03-.75-1.52.09-2.14-.93-.97-1.75,1.27-.15,2.6-.31,4-.5.12-.34-.07-1.04,0-1.5h-3.01s0-1.5,0-1.5c.72-.15,2.61.25,2.97-.05.32-.27-.7-1.95,1.28-1.45.55.14.03,1.22.28,1.45.33.3,2.28-.09,2.97.05v1.5s-3.01,0-3.01,0c-.65,3.15,1.61,1.74,4,2,.39,1.87-1.66.64-2,1-.07.07-.07,1.92,0,2,.31.33,2.43-.81,2.01,1-3.85-1.16-.84,4.16-2.48,5.27-.13.09-2.88.81-3.01.72-.06-.05-.27-1.05-.52-1.5.13-.41.37-.79.8-.89,1.15-.25,1.33-1.58.67-2.47-1.98-.27-3.64-.81-4.97-1.64-.32-.05-.67.02-1,0,.7,7.2-1.95,9.47-1.51.5-.14-.18-2.45,1.7-2.99.24s2.92-.91,3.02-1.53c.25-1.5-.19-4.97-1.53-2.86-.34.53,0,1.93-1.49,1.65.4-1.27.5-4.57,1-5.5.75-.2,1.42-.53,2-1Z"/><path class="cls-69" d="M40.5,327.5c.34-.38.01-1.94,1.75-1.5l-.25,1.5h5.5c.52,1.99-2.86.54-3.5,1.01-.16,1.96,2,2.09,2.03,2.27.18.88-.18,2.24-.03,3.22-9.1-.3-5.17,2.25,1,1.5-1.07,3.57.22,5.19-4.5,4.49-.4-1.78,1.61-.52,2.28-1.46.38-.54.18-1.4.22-2.03-4.43-.41-4.9.07-4.5,4.5-1.86.41-.7-2.44-1-3.49-.35-.4-5.77,3.81-6.49,3-1.24-1.4,1.82-1.8,2.53-2.22s1.43-.85,1.97-1.53l-3.49.25c.06-.64.38-3.83.52-3.97.44-.43,4.18.71,4.97-.78.24-1.21-.97-.71-1.74-.74-1.04-.05-2.99.22-3.76,0-.82-1.46,1.59-2.84,2-1,.43-1.44.77-1.22,1.5,0,.28-.8.63-1.47,1.5-1.5-.69-.73-.19-1.23,1.5-1.5Z"/><path class="cls-69" d="M40.5,266.5c.34-.38.01-1.94,1.75-1.5l-.25,1.5h5.5c.52,1.99-2.86.54-3.5,1.01-.16,1.96,2,2.09,2.03,2.27.18.88-.18,2.24-.03,3.22-9.1-.3-5.17,2.25,1,1.5-1.07,3.57.22,5.19-4.5,4.49-.4-1.78,1.61-.52,2.28-1.46.38-.54.18-1.4.22-2.03-4.43-.41-4.9.07-4.5,4.5-1.86.41-.7-2.44-1-3.49-.35-.4-5.77,3.81-6.49,3-1.24-1.4,1.82-1.8,2.53-2.22s1.43-.85,1.97-1.53l-3.49.25c.06-.64.38-3.83.52-3.97.44-.43,4.18.71,4.97-.78.24-1.21-.97-.71-1.74-.74-1.04-.05-2.99.22-3.76,0-.82-1.46,1.59-2.84,2-1,.43-1.44.77-1.22,1.5,0,.28-.8.63-1.47,1.5-1.5-.69-.73-.19-1.23,1.5-1.5Z"/><path class="cls-69" d="M40.5,297c.34-.38.01-1.94,1.75-1.5l-.25,1.5h5.5c.52,1.99-2.86.54-3.5,1.01-.16,1.96,2,2.09,2.03,2.27.18.88-.18,2.24-.03,3.22-9.1-.3-5.17,2.25,1,1.5-1.07,3.57.22,5.19-4.5,4.49-.4-1.78,1.61-.52,2.28-1.46.38-.54.18-1.4.22-2.03-4.43-.41-4.9.07-4.5,4.5-1.86.41-.7-2.44-1-3.49-.35-.4-5.77,3.81-6.49,3-1.24-1.4,1.82-1.8,2.53-2.22s1.43-.85,1.97-1.53l-3.49.25c.06-.64.38-3.83.52-3.97.44-.43,4.18.71,4.97-.78.24-1.21-.97-.71-1.74-.74-1.04-.05-2.99.22-3.76,0-.82-1.46,1.59-2.84,2-1,.43-1.44.77-1.22,1.5,0,.28-.8.63-1.47,1.5-1.5-.69-.73-.19-1.23,1.5-1.5Z"/><path class="cls-112" d="M143,272c-.31-.79-1.46-2.88-2-3v10.5h-1.5v-14.5h1.5c-.81,2.65,1.51,2.34,1.51,4.5,1.37-.63,1.43-2.68,1.5-4,3.03.08-.69,3.76,2.5,3v-3.51s1.5,0,1.5,0c-.35,3.25.26,3.86,3.5,3.51.56,1.97-3.07.55-3.5,1-1.44,4.44,3.35,3.24,3.51,3.76.44,1.52-3.13.37-3.51.74-.17.17.12,3.27,0,4.01.47.47,4.55-1.02,4,1h-10c-.52-2.06,4-.5,4.5-1,.4-5.99-.24-3.12-3-4-.45-.44-.38-1.22.2-1.49,2.56.84,3.8.02,2.8-2.51-.87,1.02-1.87,1.69-3,2-.14.44-.31.43-.5,0Z"/><path class="cls-112" d="M156,268.5c.58-.67.77.57.66.66-.22.18-.49-6.07,1.34-4.16.29,1.81.4,3.74.33,5.8.37.09.66.19.67.31.16,2.26.35,5.56-1,7.38,1.21-2.04,2.2-4.16,2.97-6.36-2.43.08-3.25-.8-2.47-2.64h3.5s0-4.5,0-4.5h1.5c.14.8-.19,4.31,0,4.51s3.71-.15,4.51,0v1.5c-.91.95-6.44-2.58-2.72,3.97,1.02,1.79,5.54,5.58.87,3.87l-3.15-5.33c-.67,3.01-2.56,6.33-6,6v-5c-.67-.77-3.11,3.3-3.5,1.24-.22-1.15,3.35-2.97,3.51-4.49.13-1.24-.81-.5-1.78-1.22-2-1.49-2.14-4.84.77-1.53Z"/><path class="cls-75" d="M147,390c.59-.66.77.59.66.66-.23.17-.47-6.07,1.34-4.16.31,1.7.41,3.53.3,5.49,1.06,1.94,1.22,6.33-.3,8.01,1.46-2,2.47-4.16,3.02-6.49-2.24.39-3.25-.23-2.52-2.51h4c.18-.17-.49-6.44.99-4.5.15.79-.19,4.31,0,4.5.35.35,4.25-.71,5,.76-.1,1.76-3.67.05-4.5,1,.04,3.19,4.48,7.05,4.5,7.49.07,1.9-3.26-.67-3.41-1.58l-2.08-3.66c0,1.37-1.72,4.82-2.72,5.53-.66.47-3.02.73-3.29.47-.2-.19.15-4.16,0-5-.66-.77-3.11,3.31-3.5,1.24-.28-1.51,3.83-2.43,3.53-4.97-.05-.38-1.15-.27-1.75-.78-1.55-1.3-2.24-4.97.72-1.49Z"/><path class="cls-69" d="M95,298.5c1.64.1,2.87-3.03,4.25-3.02.32,0,5.1,3.48,5.25,3.77.49.96-.79.72-1.17.81-1.09.28-2.19.51-3.33.43-.55,1.97,3.06.55,3.5,1,.16.16.16,4.35,0,4.51-.29.29-2.52-.43-3,.24.69.63,1.27,1.42,2.02,1.98,1.54,1.14,2.38.03,1.47,2.27-2.04-.64-3.36-2.24-4.99-3.5-.4,2.27-2.68,2.79-4.51,3.5-.92-2.35-.06-1.06,1.68-2.07.69-.4,1.25-1.13,1.81-1.69.47-1.16-1.94-.77-2.5-.74-1.16-.29-1.16-1.62,0-4-1.42-1.46-1.59-2.62-.5-3.5Z"/><path class="cls-69" d="M95,329c1.64.1,2.87-3.03,4.25-3.02.32,0,5.1,3.48,5.25,3.77.49.96-.79.72-1.17.81-1.09.28-2.19.51-3.33.43-.55,1.97,3.06.55,3.5,1,.16.16.16,4.35,0,4.51-.29.29-2.52-.43-3,.24.69.63,1.27,1.42,2.02,1.98,1.54,1.14,2.38.03,1.47,2.27-2.04-.64-3.36-2.24-4.99-3.5-.4,2.27-2.68,2.79-4.51,3.5-.92-2.35-.06-1.06,1.68-2.07.69-.4,1.25-1.13,1.81-1.69.47-1.16-1.94-.77-2.5-.74-1.16-.29-1.16-1.62,0-4-1.42-1.46-1.59-2.62-.5-3.5Z"/><path class="cls-69" d="M95,268c1.64.1,2.87-3.03,4.25-3.02.32,0,5.1,3.48,5.25,3.77.49.96-.79.72-1.17.81-1.09.28-2.19.51-3.33.43-.55,1.97,3.06.55,3.5,1,.16.16.16,4.35,0,4.51-.29.29-2.52-.43-3,.24.69.63,1.27,1.42,2.02,1.98,1.54,1.14,2.38.03,1.47,2.27-2.04-.64-3.36-2.24-4.99-3.5-.4,2.27-2.68,2.79-4.51,3.5-.92-2.35-.06-1.06,1.68-2.07.69-.4,1.25-1.13,1.81-1.69.47-1.16-1.94-.77-2.5-.74-1.16-.29-1.16-1.62,0-4-1.42-1.46-1.59-2.62-.5-3.5Z"/><path class="cls-69" d="M53.5,238c2.02-.39,3.37-3.7,5.22-3.53.35.03,4.63,3.51,4.77,3.78.49.96-.79.72-1.17.81-1.09.28-2.19.51-3.33.43-.55,1.97,3.06.55,3.5,1,.16.16.16,4.35,0,4.51-.24.23-5.32-.86-.68,2.43,1.05.75,2.78.31.93,2.05-1.45-.94-3.48-1.48-3.76-3.49-1.77,1.22-2.95,3.45-5.49,3l4-3.75c-.74-.44-2.12-.29-3-.25-.46-.92-.67-3.34,0-4.5l.37-.84c-.92.2-1.31-.17-1.37-1.16-.43-.14-.42-.3,0-.5Z"/><path class="cls-69" d="M208,331c.01-.82.16-1.93,0-2.65-.04-.17-1.85-.96-.99-1.84.23-.23,5.5.17,6.5,0l-.5,4c6.49-.9.23,5.96.53,7.21.2.84,2.92,1.4,2.96,2.05.04.7-1.29.78-2.02.54-.85-.28-1.94-1.69-2.21-1.69-.51,0-2.12,2.19-3.5,1.91-2.28-.47,1.55-2.06,1.75-2.25,1.26-1.16-.74-3.41-1.26-4.76-.41,1.25-1.38,6.39-2.3,6.98-.42.27-1.24-.49-1.45-.47.42-3.04,1.26-6.04,2.5-9Z"/><path class="cls-69" d="M131,386.5c1.81-.39.56,1.4,1.12,2.39.14.24,1.94,1.21,2.13,2.11.57-.59.63-3.96,1.5-3.99,1.12-.04.32,2.2.49,2.49,1.14,2.03,2.37-1.86,1.77-3,2-.46.26,2.44,1.47,3.28.76.53,2.56.1,3.53.22.44,2.08-2.9.2-3.78,1.46-.38.54-.38,2.04,0,2.57.84,1.19,3.74-.54,3.28,1.46-2.92-1.34-4.89,2.48-3.03,3.78,1.18.83,4.41-.82,4.03,1.22h-10c-.41-1.77,2.08-.78,3.25-1,1.93-.36,1.13-2.42,1.25-4-.44-.44-4.06.98-3.5-1,3.22.36,3.86-.26,3.5-3.5-2.99-.57-2.27.68-3.75,2.49l-2.24-3.49c-.31,3.24.4,7.1,0,10.26-.09.73-.39,1.55-1,.74-.3-3.05-.38-6.12-.24-9.21l-.76-.32c.31-1.57.65-3.23,1-4.98Z"/><path class="cls-2" d="M57,126c.09,0,.56-.48,1.21-.52,1.92-.11,3.88.12,5.79.02-.18,1.01.24,6.28,0,6.5-.22.2-2.79-.47-3,1,1.39.01,3.57-.48,3.5,1.5-.53.46-4.04-.98-3.49,1h3.5s0,1.5,0,1.5c-1.23-.21-8.2.3-8.5,0-.11-.11-.24-1.24.5-1.5.97.29,2.05.5,3,0,.08-.19-.04-.69,0-1-.8.06-1.73-.11-2.5,0-1.33-.16-1.27-.62,0-1v-1.5l-.3-1.86c-1.14-1.03-.93-2.78.3-3.64-.44-.14-.43-.31,0-.5Z"/><path class="cls-112" d="M129.04,278.97c-.06-.05-.27-1.15-.54-1.47,4.43.52,7.48-5.21,3.98-8.23s-3.18,3.94-4.61,6.35c-3.77,6.4-8.96-3.06-2.84-7.34,5.77-4.04,13.16,1.44,9.67,7.67-.69,1.23-4.77,3.82-5.66,3.01Z"/><path class="cls-112" d="M129.04,309.47c-.06-.05-.27-1.15-.54-1.47,4.43.52,7.48-5.21,3.98-8.23s-3.18,3.94-4.61,6.35c-3.77,6.4-8.96-3.06-2.84-7.34,5.77-4.04,13.16,1.44,9.67,7.67-.69,1.23-4.77,3.82-5.66,3.01Z"/><path class="cls-112" d="M129.04,339.97c-.06-.05-.27-1.15-.54-1.47,4.43.52,7.48-5.21,3.98-8.23s-3.18,3.94-4.61,6.35c-3.77,6.4-8.96-3.06-2.84-7.34,5.77-4.04,13.16,1.44,9.67,7.67-.69,1.23-4.77,3.82-5.66,3.01Z"/><path class="cls-69" d="M111.5,300c.36-.81.9-1.57,1.25-2.52.24-.64.18-1.91.25-1.98,1.23-1.21,1.92,1.11,1,2.5h6c-.48,3.76,1.52,13.3-4.5,12v-1.5c4.56,1.62,2.18-6.3,3.5-8.99-1.39-.24-.84.29-1.13,1.09-.8,2.28-1.02,4.42-2.45,6.57-.32.48-2.47,2.82-2.67,2.82-2.24.09,1.58-3.71,1.85-4.14,1.22-1.96,1.67-4.2,2.4-6.34-2-.59-1.78,2.05-2.56,3.68-.4.84-2.26,4.35-3.43,3.31-.41-.36.74-1.57,1-2-.07-1-.41-1.83-1-2.5-1.51,1.13-1.43-1.98.5-2Z"/><path class="cls-69" d="M111.5,269.5c.36-.81.9-1.57,1.25-2.52.24-.64.18-1.91.25-1.98,1.23-1.21,1.92,1.11,1,2.5h6c-.48,3.76,1.52,13.3-4.5,12v-1.5c4.56,1.62,2.18-6.3,3.5-8.99-1.39-.24-.84.29-1.13,1.09-.8,2.28-1.02,4.42-2.45,6.57-.32.48-2.47,2.82-2.67,2.82-2.24.09,1.58-3.71,1.85-4.14,1.22-1.96,1.67-4.2,2.4-6.34-2-.59-1.78,2.05-2.56,3.68-.4.84-2.26,4.35-3.43,3.31-.41-.36.74-1.57,1-2-.07-1-.41-1.83-1-2.5-1.51,1.13-1.43-1.98.5-2Z"/><path class="cls-69" d="M111.5,330.5c.36-.81.9-1.57,1.25-2.52.24-.64.18-1.91.25-1.98,1.23-1.21,1.92,1.11,1,2.5h6c-.48,3.76,1.52,13.3-4.5,12v-1.5c4.56,1.62,2.18-6.3,3.5-8.99-1.39-.24-.84.29-1.13,1.09-.8,2.28-1.02,4.42-2.45,6.57-.32.48-2.47,2.82-2.67,2.82-2.24.09,1.58-3.71,1.85-4.14,1.22-1.96,1.67-4.2,2.4-6.34-2-.59-1.78,2.05-2.56,3.68-.4.84-2.26,4.35-3.43,3.31-.41-.36.74-1.57,1-2-.07-1-.41-1.83-1-2.5-1.51,1.13-1.43-1.98.5-2Z"/><path class="cls-112" d="M120,399c5.93-.12,7.25-8.35,1-9-.42,2.07-.9,5.02-1.9,6.85-4.11,7.47-9.61-4.68-1.8-7.8,8.36-3.34,12.81,6.94,6.05,10.55-1.27.67-3.37,1.61-3.35-.59Z"/><path class="cls-112" d="M88,247c5.93-.12,7.25-8.35,1-9-.42,2.07-.9,5.02-1.9,6.85-4.11,7.47-9.61-4.68-1.8-7.8,8.36-3.34,12.81,6.94,6.05,10.55-1.27.67-3.37,1.61-3.35-.59Z"/><path class="cls-76" d="M60,97.5c-1.11.54-3.15,1.53-2.45-.69.29-.93,4.97-3.26,5.45-4.8l-3.99.49v-2c5.9-.11,10.01-.62,3.5,4.49,6.7-1.66,7.74,6.4.75,6.54-2.55.05-4.78-.75-3.25-3.54l.27-.43c4.43-1.07,4.34-1.1-.27-.07Z"/><path class="cls-69" d="M102.5,391c1.07-1.78,3.67-8.01,2.5-2h6.5c-.93,2.28.01,10.56-1.99,11.76-.9.54-2.67.44-3.01-.75,4.29.53,2.76-6.54,3.5-9.5-1.46-.25-.81.34-1.06,1.16-.52,1.74-2.92,8.96-4.69,9.33-.49.1-1.23-.55-1.23-.75,0-.27,2.53-3.02,3.17-4.32.85-1.7,1.49-3.56,1.81-5.43-.93-1.01-3.41,5.86-4.23,6.51-.92.73-1.78.21-1.76-.27,0-.08.75-.89.99-1.25-.07-1.39-.54-1.95-1.78-2.6-.1-1.09.16-1.71,1.28-1.9Z"/><path class="cls-69" d="M70.5,239c1.07-1.78,3.67-8.01,2.5-2h6.5c-.93,2.28.01,10.56-1.99,11.76-.9.54-2.67.44-3.01-.75,4.29.53,2.76-6.54,3.5-9.5-1.46-.25-.81.34-1.06,1.16-.52,1.74-2.92,8.96-4.69,9.33-.49.1-1.23-.55-1.23-.75,0-.27,2.53-3.02,3.17-4.32.85-1.7,1.49-3.56,1.81-5.43-.93-1.01-3.41,5.86-4.23,6.51-.92.73-1.78.21-1.76-.27,0-.08.75-.89.99-1.25-.07-1.39-.54-1.95-1.78-2.6-.1-1.09.16-1.71,1.28-1.9Z"/><path class="cls-16" d="M143,300c.2-.2,3.3.2,3.5,0,.28-.28-.42-4.39.25-4.51.96-.17,1.2-.3,1.25.74.2,3.8-1.22,4.1,3.5,3.77v8.75c0,1.75-3.44,1.8-4,.25,1.62.11,2.81-.09,2.5-2-.94.15-5.79-.22-6,0-.44.44.98,4.06-1,3.5.28-1.45-.37-10.13,0-10.5Z"/><path class="cls-61" d="M74,93c-1.76-1.09-.84-1.51,2.75-1.24-.16-3.68,1.58-1.99,1.9-.06l2.85.3c2.35.69-1.83,1.43-3,1-.65,3.15,1.61,1.74,4,2v1.5c-3.76.05-5.33-1.11-6.01,3.25l3-.25c-.84-1.11-1.77-2.02.24-2.49.3.07,2.09,2.85,2.17,3.35.44,2.7-1.45.71-2.66.6-1.86-.16-4.2,1.04-6.26.55-.39-2.26.65-1.1,1.37-1.6.5-.35.84-2.6,1.63-3.15l-2.5-.25c-.77-.95-.77-1.45,0-1.5h3s0-2,0-2c-.17-.17-1.93.14-2.5,0Z"/><path class="cls-8" d="M104.5,74c-.33,0-.67.01-1,0-.4-3.3,3.76-1.57,5.72-1.96.6-.12,0-1.38.52-1.55,2.4-.76,1.49,1.44,2.03,1.55.75.15,3.52-.25,3.73-.03v1.5s-4.01,0-4.01,0c-.17,3.22,1.5,5.38-1.53,7.72-1.81,1.4-3.38,2.08-3.47-.72,1.11,0,2.26-.37,3-1.26-3.14.14-5.23-2.62-2-4.75-.67-.49-1.67-.66-3-.5Z"/><path class="cls-58" d="M127,235.5c2.34.69-1.83,1.44-3,1-.42,1.8,1.57.56,2.53,1.21,1.03.7.2,6.71.47,8.29-.66.02-1.34-.02-2,0-.09.44-.26.43-.5,0-.93.07-2.37.5-2.5.5-.09.45-.26.43-.5,0-.83.64-1.72.19-2.35-.56-.74-.89.31-2.84.85-2.94-1.57-1.11-1.18-1.73,0-3-1.55-.73-.35-1.83.5-2.5.83-.36,1.5-.69,2-1-1.77-.03-2.7-.46-2.78-1.3,2.47-.15,4.9-.05,7.28.3Z"/><path class="cls-16" d="M36,239.5c.25,2.05-.41,9.1-2.75,9.5-1.81.32.92-3.23,1.13-4.37.28-1.53.06-3.1.11-4.64-4.15,1.09.17-2.25,1.24-3.52,1-1.19.17-2.52,2.77-1.97l-.51.99h5s-1,2.5-1,2.5h5s0,1.51,0,1.51h-11Z"/><path class="cls-16" d="M77,331c.42,1.65-1.13,9.86-2.75,9.99s.87-4.66,1.03-5.46c.26-1.35.3-2.67.22-4.03-3.88,1.06-.4-1.76.71-3.04.9-1.04,1.04-2.9,2.53-2.47.23.07.2.91.6,1,2.07.46,6.11-1.21,3.67,2.5h5s0,1.5,0,1.5h-11Z"/><path class="cls-16" d="M77,270c.42,1.65-1.13,9.86-2.75,9.99s.87-4.66,1.03-5.46c.26-1.35.3-2.67.22-4.03-3.88,1.06-.4-1.76.71-3.04.9-1.04,1.04-2.9,2.53-2.47.23.07.2.91.6,1,2.07.46,6.11-1.21,3.67,2.5h5s0,1.5,0,1.5h-11Z"/><path class="cls-16" d="M77,300.5c.42,1.65-1.13,9.86-2.75,9.99s.87-4.66,1.03-5.46c.26-1.35.3-2.67.22-4.03-3.88,1.06-.4-1.76.71-3.04.9-1.04,1.04-2.9,2.53-2.47.23.07.2.91.6,1,2.07.46,6.11-1.21,3.67,2.5h5s0,1.5,0,1.5h-11Z"/><path class="cls-104" d="M117.5,361.5s.19-.87-.33-1.01c-.85-.23-3.95.24-4.18,0v-1.5c2.86.03,3.34.69,3.01-2.5,1.85-.55.63,2.13,1,2.5.17.17,2.4-.17,3.16,0,.4.09.13.9,1.06,1.03.85.12,1.89-.13,2.79-.04.14-.72-.32-3.4.25-3.51,2.5-.44.58,2.61,1.32,3.43.2.22,1.6.12,1.92.83.36,1.38-2,.53-2,.74v8.75c0,.41-3.36,1.38-3.49,1.25-.05-.06-.13-1.09-.51-1.49.4-.1,2.5.12,2.5,0v-8.5c-1.14-.15-2.63.24-3.68,0-.22-.05-.84-2.83-1.82.49l-1-.5Z"/><path class="cls-42" d="M72,327c.38,2.01-2.66.19-3.5,1.75.48.67,2.71-.05,3,.24.26.26.08,6.28,0,7.28-.12,1.53.25,1.29-1.5,1.23-.14.42-.31.42-.5,0-1.37-.22-1.62.27-2.5.5-.14.44-.31.43-.5,0-2.31,1.06-3.69-2.02-1.5-3-1.46.11-1.43-2.44-.48-3.06-.63-.84-1.1-1.72.1-1.98.08-1,.02-1.94-.12-2.96,2.38-.5,4.88-.5,7.5,0Z"/><path class="cls-42" d="M72,296.5c.38,2.01-2.66.19-3.5,1.75.48.67,2.71-.05,3,.24.26.26.08,6.28,0,7.28-.12,1.53.25,1.29-1.5,1.23-.14.42-.31.42-.5,0-1.37-.22-1.62.27-2.5.5-.14.44-.31.43-.5,0-2.31,1.06-3.69-2.02-1.5-3-1.46.11-1.43-2.44-.48-3.06-.63-.84-1.1-1.72.1-1.98.08-1,.02-1.94-.12-2.96,2.38-.5,4.88-.5,7.5,0Z"/><path class="cls-42" d="M72,266c.38,2.01-2.66.19-3.5,1.75.48.67,2.71-.05,3,.24.26.26.08,6.28,0,7.28-.12,1.53.25,1.29-1.5,1.23-.14.42-.31.42-.5,0-1.37-.22-1.62.27-2.5.5-.14.44-.31.43-.5,0-2.31,1.06-3.69-2.02-1.5-3-1.46.11-1.43-2.44-.48-3.06-.63-.84-1.1-1.72.1-1.98.08-1,.02-1.94-.12-2.96,2.38-.5,4.88-.5,7.5,0Z"/><path class="cls-16" d="M92,358.5c-.6,1.94-.76,4.68-.49,8.2l-.51.8c-.94-1.17-.45-3.41-.5-5-.16-.65-.33-.64-.5,0-.18,1.81-2.44,8.11-4.26,8.5-.49.1-1.23-.55-1.23-.75,0-.87,5.38-3.56,1.24-5.75l-1.25,1.5c-.67.53-.77-.48-.72-1.21,1.14-2.77,1.38-5.03.72-6.79-.57.04-.9-.3-1-1,.18-.22.03-.49.69-.48,1.76.89,7.17-.22,7.81,1.98Z"/><path class="cls-93" d="M72,387v5.01s-5,0-5,0c-.81,3.35,2.57,1.62,5,2,.03,1.8.11,5.22-.95,6.7-.45.64-4.37.64-4.56-.7,3.59.59,4.25-1.24,4-4.51l-5.5.5c.46-.85.82-5.28,1.02-5.47.28-.27,3.64.14,4.48-.03.81-3.35-2.57-1.62-5-2v-1.5s6.51,0,6.51,0Z"/><path class="cls-57" d="M206.86,388.1c2.62-.77,5.32,1.12,4.44,3.92-.2.64-1.21,1.48-1.21,1.74,0,.27,2.13,1.86,1.82,3.89-.56,3.66-9.12,3.53-7.19-2.17.23-.68,1.13-1.33,1.2-1.81.08-.56-2.68-4.5.94-5.56Z"/><path class="cls-93" d="M169,243c-6.37,3.19-7.66-6.85-2.23-7.04s5.06,10.28,1.73,11.78c-1.19.53-4.91.42-4.98-.99s2.5.08,3.04.02c1.97-.21,2.62-1.97,2.45-3.77Z"/><path class="cls-93" d="M185,365c-6.37,3.19-7.66-6.85-2.23-7.04s5.06,10.28,1.73,11.78c-1.19.53-4.91.42-4.98-.99s2.5.08,3.04.02c1.97-.21,2.62-1.97,2.45-3.77Z"/><path class="cls-14" d="M202.5,357v12.75c0,1.48-4.58,2.8-4.5.26.43-.12,3,.14,3,0v-7c-1.16-.16-4.14.45-4.78-.47-.37-.53-.38-4.01-.15-4.71.51-1.55,5.01-.55,6.43-.82Z"/><path class="cls-109" d="M40,75c-.37.99-.63,7.48-2.25,7.49-.08,0-1.1-1-1.12-1.23-.02-.33,2.52-5.62,1.87-6.26-.3-.29-1.71.65-1.51-.76.04-.26,2.88-4.01,3.1-4.14,1.62-.94,2.01.82,2.25.88,1.07.25,2.51-.14,3.66.01l-1,2.49h4c.59,2.33-1.26,1.22-1.5,1.51-2.47,0-4.97,0-7.5,0Z"/><path class="cls-14" d="M186.5,235v12.75c0,1.48-4.58,2.8-4.5.26.43-.12,3,.14,3,0v-7c-1.16-.16-4.14.45-4.78-.47-.37-.53-.38-4.01-.15-4.71.51-1.55,5.01-.55,6.43-.82Z"/><path class="cls-57" d="M209.99,303.5c-6.76,4.76-7.93-8.53-.85-6.39,3.56,1.07,4.08,13.22-2.88,11.89-1.66-.32-2.77-2.18.09-1.57,2.69.57,3.62-1.27,3.63-3.92Z"/><path class="cls-57" d="M209.99,273c-6.76,4.76-7.93-8.53-.85-6.39,3.56,1.07,4.08,13.22-2.88,11.89-1.66-.32-2.77-2.18.09-1.57,2.69.57,3.62-1.27,3.63-3.92Z"/><path class="cls-6" d="M300,326.5v14c0,.24-4.79.9-4-1,.39-.09,2.5.12,2.5,0v-7c-.79-.13-4.32.19-4.5,0-.21-.21.16-5.06,0-6.01h6Z"/><path class="cls-3" d="M94.5,329c-.11,1.72.22,2.89,1,3.5v4c-1.43.07-2.58.93-4,0,1.17,1.75-1.5,6.27-1.5,3.75v-13.75l4.52.23c.78.5.21,1.56-.02,2.27Z"/><path class="cls-3" d="M94.5,268c-.11,1.72.22,2.89,1,3.5v4c-1.43.07-2.58.93-4,0,1.17,1.75-1.5,6.27-1.5,3.75v-13.75l4.52.23c.78.5.21,1.56-.02,2.27Z"/><path class="cls-3" d="M94.5,298.5c-.11,1.72.22,2.89,1,3.5v4c-1.43.07-2.58.93-4,0,1.17,1.75-1.5,6.27-1.5,3.75v-13.75l4.52.23c.78.5.21,1.56-.02,2.27Z"/><path class="cls-57" d="M109,240.5c.22,1.25-.14,8.24-1.33,8.52-.98.23-2.57-.2-3.67-.03-.41-1.9,1.75-.33,2.75-1.49.92-1.07.73-4.1.75-5.51-1.07.19-2.79-.27-3.7-.03-.26.07-1.32,4.06-2.07,5.01-1.02,1.28-4.04,3.59-4.73,1.03,2.57-.46,4.71-2.66,4.99-5.27.2-1.84-3.39.5-2.99-1.73-.13-.46.04-.63.5-.5h9.5Z"/><path class="cls-76" d="M70.97,125.53c.15.14.44,3.32.54,3.97.3.31,3.05-1.3,4.16-1.04.3.07.88,1.46.83,1.53-.41.55-8.41,1.14-7.5,4.5,2.45.78,5.05.71,7.49,0v2c-2.44.02-7.86,1.13-9.14-1.63-1.35-2.92,2.61-4.27,2.67-4.69.11-.79-1.27-4.47-1.03-4.67.51.08,1.75-.17,1.97.03Z"/><path class="cls-104" d="M160.5,296h1.5s0,5.5,0,5.5c1.09,0,5.04-4.44,5.49-2.24.3,1.46-4.73,2.88-5.25,3.74-.7,1.16,0,4.06-.25,5.51,2.47-.15,5.49,1.04,5.01-2.5,2.39-.23,1.29,3.55.18,3.93s-6.68.31-6.68-1.18v-12.75Z"/><path class="cls-57" d="M254.63,338.87c-2.17-2.03-2.48-13.02,3.51-11.27,3.36.98,3.38,10.82,0,11.81-.93.27-2.8.13-3.51-.54Z"/><path class="cls-69" d="M190.63,308.37c-2.17-2.03-2.48-13.02,3.51-11.27,3.36.98,3.38,10.82,0,11.81-.93.27-2.8.13-3.51-.54Z"/><path class="cls-69" d="M170.37,358.63c2.37,2.21,2.4,13-3.51,11.27-3.36-.98-3.38-10.82,0-11.81.93-.27,2.8-.13,3.51.54Z"/><path class="cls-57" d="M109.5,368.5c1.46,1.49-2.41,1.98-3.23,2.02-2.68.13-7.7-.18-7.06-4.05.3-1.81,2.19-2.55,2.31-3.74s-.98-2.51-1.43-3.57c-.21-.5-.97-1.45.17-1.65,1.59-.28,1.76,3.88,2.98,4.45,1.39-.67,2.82-1.64,4.22-2.24.4-.17,1.32-1.26,1.53.05s-9.8,4.76-8.28,7.74,8.46.68,8.78,1.01Z"/><path class="cls-26" d="M46.5,19.5c.03-1.99-.02-4.01,0-6h11.5c-.15,4.15.2,8.36,0,12.5-1.58.87-2.14-.86-.5-1.5-1.02-.21-1.34-1.33-.94-3.36-1.27-.14-1.27-.66-.56-1.64l-.57-.34c1.13-1.56,1.48-2.95,1.07-4.16l-.94.75c-5.52-1.73-11.07,1.96-1.41,1.48.71.39.83,1.14.34,2.27.43.14.42.31,0,.5.34.54.11.75-.5.5-1.54,1.73-4.38,1.14-5.88-.6l-1.62-.4Z"/><path class="cls-14" d="M53.5,238c-.05.15.05.35,0,.5.16,1.06.16,2.06,0,3,1,.4,1.13,3.27,0,3.5-.58.03-1.67,1.15-2.5,0,.73-1.97.57-1.97-.5,0-.03,1.49.02,3,0,4.5-.28.3-1.5-.44-1.5-.75v-13.75c3.11.11,5.87-1.05,4.5,3Z"/><path class="cls-42" d="M173,235h6c-.16.95.21,5.79,0,6-.18.18-3.71-.14-4.5,0v7.75c0,.33-1.07.96-1.5.75v-14.5Z"/><path class="cls-42" d="M189,357h6c-.16.95.21,5.79,0,6-.18.18-3.71-.14-4.5,0v7.75c0,.33-1.07.96-1.5.75v-14.5Z"/><path class="cls-16" d="M88.5,386.5c-.14,4-.21,8.76,3.25,11.5.72.57,3.71,1.78,3.74,2.25.1,1.63-3.18-.03-3.66-.33-2.12-1.33-2.7-3.31-4.33-4.91.68,2.08-5.26,7.09-6.5,6-.75-.66,2.96-2.67,3.52-3.23,1.35-1.36,2.27-3.11,2.48-5.02s-1.01-6.09,1.5-6.25Z"/><path class="cls-126" d="M68.5,150.5c-.66.17-1.8.76-2,1.5h4.5s0,1.5,0,1.5c-.84.14-4.83-.19-5.01,0-.33.34,1.03,5.89-3.99,2.75l2.5-.74c.88-3.43-3.05-1.57-5.51-2v-1.5c2.59-.26,4.13.86,6-1-.82-.74-2.25-1.08-4.28-1.01-.07-.04.33-1.41.38-1.47.27-.29,7.68-.22,7.92.1.54.73.7,2.09-.52,1.88Z"/><path class="cls-16" d="M44.96,241.04c.31.53-.12,3.46-.45,4.08-.65,1.19-3.78,1.36-3.5-.62h2.5s0-2.51,0-2.51h-4.51c-.34,5.56-.43,6.99,5.64,5.87,2.62-.48.3-2.04,2.1-2.36,1.21.52.35,2.87-.22,3.26s-7.98.41-8.55.01c-.89-.62-.49-6.41-.24-7.81l7.22.07Z"/><path class="cls-104" d="M227,265.5v14c0,.16-2.95.49-3.21.5-.48.02-.2-1-.78-1.26,4.69.18,2.58-3.97,3-7.25l-5.01-.29v-5.71s6.01,0,6.01,0Z"/><path class="cls-16" d="M227,296v14c0,.16-2.95.49-3.21.5-.48.02-.2-1-.78-1.26,4.69.18,2.58-3.97,3-7.25l-5.01-.29v-5.71s6.01,0,6.01,0Z"/><path class="cls-69" d="M143.5,326.5c.41,1.63.41,3.3,0,5,.72-.04.72.46,0,1.5-.05,1.46.62,3.97-1,3.5-.16.43-.33.42-.5,0-.54-.1-1.38,0-2,0-.16,1.33-.62,1.27-1,0-.1-.11-.91.12-1,0-.38-.51.28-8.53,0-10.01,1.53.27,4.19-.37,5.5,0Z"/><path class="cls-104" d="M227,387v14c0,.16-2.95.49-3.21.5-.48.02-.2-1-.78-1.26,4.69.18,2.58-3.97,3-7.25l-5.01-.29v-5.71s6.01,0,6.01,0Z"/><path class="cls-104" d="M67.5,234.5c.37-.11,1.04.08,1.5,0,.11.84-.19,1.88,0,2.65.16.69,1.94.59,1.51,1.85-.9.84-1.4.84-1.5,0-.85,1.74-.19,2.99,1,2.5,1.76-.63,1.84.71.5,1.5-2.5-.65-1.35,2.85-1.47,4.28-.08.87.1,1.64-.78,2.22-1.21.24-.71-.97-.74-1.74-.05-1.25.04-2.51,0-3.75-.67-.19-2.72.8-2.99.5-1.57-1.72,2.83-1.51,3.02-2.33.89-3.82-1.69-4.78-2.03-.67-1.57,1.23-.14-5.27,0-5.66.24-.66.88-.24,1-.34.39.27.72-.06,1-1Z"/><path class="cls-104" d="M99.5,386.5c.37-.11,1.04.08,1.5,0,.11.84-.19,1.88,0,2.65.16.69,1.94.59,1.51,1.85-.9.84-1.4.84-1.5,0-.85,1.74-.19,2.99,1,2.5,1.76-.63,1.84.71.5,1.5-2.5-.65-1.35,2.85-1.47,4.28-.08.87.1,1.64-.78,2.22-1.21.24-.71-.97-.74-1.74-.05-1.25.04-2.51,0-3.75-.67-.19-2.72.8-2.99.5-1.57-1.72,2.83-1.51,3.02-2.33.89-3.82-1.69-4.78-2.03-.67-1.57,1.23-.14-5.27,0-5.66.24-.66.88-.24,1-.34.39.27.72-.06,1-1Z"/><path class="cls-69" d="M55,297c.32.32-.31,6.08-.03,7.23.17.69,2.04-.38,1.53,1.27-2.46-.53-1.27,1.76-1.5,3.5h-1.5c.58-4.88-1.66-3.1-4.76-3.5-.51-.06-1.08.13-.73-.74.16-.41,4.42-6.98,4.75-7.25.55-.45,1.94-.8,2.24-.51Z"/><path class="cls-69" d="M55,266.5c.32.32-.31,6.08-.03,7.23.17.69,2.04-.38,1.53,1.27-2.46-.53-1.27,1.76-1.5,3.5h-1.5c.58-4.88-1.66-3.1-4.76-3.5-.51-.06-1.08.13-.73-.74.16-.41,4.42-6.98,4.75-7.25.55-.45,1.94-.8,2.24-.51Z"/><path class="cls-69" d="M55,327.5c.32.32-.31,6.08-.03,7.23.17.69,2.04-.38,1.53,1.27-2.46-.53-1.27,1.76-1.5,3.5h-1.5c.58-4.88-1.66-3.1-4.76-3.5-.51-.06-1.08.13-.73-.74.16-.41,4.42-6.98,4.75-7.25.55-.45,1.94-.8,2.24-.51Z"/><path class="cls-76" d="M51.5,145h1.5s0,4,0,4c1.37.39,2.85-2.36,3.03-2.47.46-.28,1.39.37,1.47.73.33,1.54-3.88,3.13-4.26,3.73-.59.97-.11,2.86-.24,4.01,4.36.94,2.76-1.73,3.51-2.5.08-.08,1.56.39,1.54,1.24-.08,3.95-3.74,2.58-6.54,2.76v-11.5Z"/><path class="cls-16" d="M214,265.5h6c-.16.95.21,5.79,0,6-.19.19-4.16-.14-5,0v8.5h-1v-14.5Z"/><path class="cls-16" d="M214,387h6c-.16.95.21,5.79,0,6-.19.19-4.16-.14-5,0v8.5h-1v-14.5Z"/><path class="cls-16" d="M214,296h6c-.16.95.21,5.79,0,6-.19.19-4.16-.14-5,0v8.5h-1v-14.5Z"/><path class="cls-2" d="M41,75.5c.58-.82,5.77-.68,6.24-.26.17.15-.03,4.05-.74,4.26-.09.33.11.27.5,0-.36-.56-.13-.82.5-.5,2.41.25,1.39,2.43-.12,3.13-1.18.55-5.1.63-6.09-.08-.75-.53-.06-5.32-.29-6.56Z"/><path class="cls-97" d="M83.5,95c-.77-2.52.02-1.07,2.17-2.58.98-.69,2.68-2.93,3.58-2.93.51,0,3.41,2.62,4.29,3.24,1.1.78,2.44.41,1.88,1.95-.2.56-.9.76-.92.82-3.6,0-7.27-.16-11-.5Z"/><path class="cls-93" d="M111.5,273.5c-3.4-.29-1.57,4.49-2,6.5-.62.81-.91,0-1-.74-.11-.9.18-4.56,0-4.76l-2.74.51c-1.59-2.27,2.53-1.42,2.77-2.31.99-3.7-1.87-4.9-2.04-.69-2.07-1.03-.11-4.16.01-6l1.99,2c.24-1.04-.79-3.4,1-2.99-.86,3.65,1.19,2.26,2,4.5-1.4.71-2.23,1.18-.5,2.5,1.42-.23,1.58.73.5,1.5Z"/><path class="cls-112" d="M79.25,279.5c-1.16-.36-1.15-8.17-.02-8.37l6.76.38c.26.38-.45,3.41-.77,3.97-1.22,2.13-4.54.82-3.23-.47.3-.29,3.29.65,2.51-2.5h-5c.32,1.77-.98,5.59,1.25,6,1.27.23,5,.25,5.8-.71,1-1.22-.5-2.26,1.96-1.28-.51.47-.84,3-1,3-1.78,0-7.06.37-8.25,0Z"/><path class="cls-112" d="M79.25,310c-1.16-.36-1.15-8.17-.02-8.37l6.76.38c.26.38-.45,3.41-.77,3.97-1.22,2.13-4.54.82-3.23-.47.3-.29,3.29.65,2.51-2.5h-5c.32,1.77-.98,5.59,1.25,6,1.27.23,5,.25,5.8-.71,1-1.22-.5-2.26,1.96-1.28-.51.47-.84,3-1,3-1.78,0-7.06.37-8.25,0Z"/><path class="cls-93" d="M111.5,304c-3.4-.29-1.57,4.49-2,6.5-.62.81-.91,0-1-.74-.11-.9.18-4.56,0-4.76l-2.74.51c-1.59-2.27,2.53-1.42,2.77-2.31.99-3.7-1.87-4.9-2.04-.69-2.07-1.03-.11-4.16.01-6l1.99,2c.24-1.04-.79-3.4,1-2.99-.86,3.65,1.19,2.26,2,4.5-1.4.71-2.23,1.18-.5,2.5,1.42-.23,1.58.73.5,1.5Z"/><path class="cls-112" d="M79.25,340.5c-1.16-.36-1.15-8.17-.02-8.37l6.76.38c.26.38-.45,3.41-.77,3.97-1.22,2.13-4.54.82-3.23-.47.3-.29,3.29.65,2.51-2.5h-5c.32,1.77-.98,5.59,1.25,6,1.27.23,5,.25,5.8-.71,1-1.22-.5-2.26,1.96-1.28-.51.47-.84,3-1,3-1.78,0-7.06.37-8.25,0Z"/><path class="cls-93" d="M111.5,334.5c-3.4-.29-1.57,4.49-2,6.5-.62.81-.91,0-1-.74-.11-.9.18-4.56,0-4.76l-2.74.51c-1.59-2.27,2.53-1.42,2.77-2.31.99-3.7-1.87-4.9-2.04-.69-2.07-1.03-.11-4.16.01-6l1.99,2c.24-1.04-.79-3.4,1-2.99-.86,3.65,1.19,2.26,2,4.5-1.4.71-2.23,1.18-.5,2.5,1.42-.23,1.58.73.5,1.5Z"/><path class="cls-3" d="M200.5,388v10.5c0,.18,3.28-.7,1.7,1.51h-6.21s0-1.51,0-1.51c.42-.1,2.5.12,2.5,0v-8.5c0-.1-1.86.12-2,0-.06-1.78,2.54-1.98,4-2Z"/><path class="cls-97" d="M59,150c-.82-3.93,1.33-2.9,2.01-3.5.12-.11-.71-1.31-.51-1.49.94-.85,2.89,2.07,3.5,1.49.09-.41-.57-1.43-.5-1.5.05-.05,1.19-.47,1.26-.47.65,0,1.41,4.29,3.49-.04,2.16.48.58,1.85.75,2,.4.36,3.23,0,2.01,3.5-1.05.72-1.9.23-2.57-1.48-2.31-.16-4.63-.18-6.96-.05-.19,1.3-.89,2.3-2.47,1.53Z"/><path class="cls-104" d="M287,326.5h5.5c-.16.95.21,5.79,0,6-.18.18-3.71-.14-4.5,0v8.5h-1v-14.5Z"/><path class="cls-83" d="M169.5,74.5c-.73.85-1.42-1.45-1.83-1.53-1.88-.39-3,1.27-2.66,3.03,6.48-3.6,6.25,8.24,0,5.25-2.19-1.05-1.9-7.32-.25-8.75,2.12-1.85,5.91.66,4.75,2Z"/><path class="cls-2" d="M150.37,72.63c1.76,1.65,1.51,7.52-.88,8.61-1.89.86-4.27.12-3.99-2.24,1.38-.45.94.93,1.47,1.26,1.86,1.16,3.2-1.01,3.03-2.76-8.79,2.93-4.35-9.29.38-4.87Z"/><path class="cls-69" d="M205,340c-.38.02-2.21,1.09-3,.5-1.18-.87,1.56-1.15,1.77-1.46,1.04-1.54.31-5.06-2.28-3.54-.66-2.45,1.54-.93,2.28-1.96.47-.66.14-2.19.22-3.04h-2.51s0-1.5,0-1.5c.56-.11,2.35.15,2.51,0,.4-.39-.92-3.57.99-3-.78,4.46,1.49,2.49,2.01,3,.05.05.05,1.44,0,1.5-.58.57-2.25-1.4-2.01,1.76.11,1.44,1.22.53,2,.74.67.81-.27,2.07-1.03,2.73.1,1.6-.22,3.02-.97,4.27Z"/><path class="cls-16" d="M113,155.25c-.3,1.83-2.05,1.21-3.5,1.25.2-1.42,1.89-.35,2-.49.19-.26.23-6.27,0-6.5-.29-.29-3.36.42-4.01-.25l.49-4.01c.87-.44,5.02-.49,5.02.52,0,2.72.4,7.05,0,9.5Z"/><path class="cls-132" d="M84.5,97.5l-.49-1.95c.33-.4,9.37-.34,10.19.12.21.12.17,4.22-.2,4.83-.25.56-2.78.57-3.5.5-.43-3.02,2.9.29,2-4h-3.01c-.37,2.43,1.35,5.82-2,5,.55-7.92-.79-3.74-3-4.5Z"/><path class="cls-27" d="M147,390l.5-4c3.06-.87,1.93,2.54,2,5,.08,2.62.95,1.21,3.5,1.5.21,2.53-.92,4.85-2.59,6.66-.45.48-.44,1.07-1.41.84v-13.5h-1s0,4.5,0,4.5c-.6.02-.73-.68-1-1Z"/><path class="cls-98" d="M68.5,16.5c.43.35,4.04-.7,4.48.8.57,1.96-5.09,9.02-7.22,8.7-2.27-.34,1.45-2.06,1.71-2.28,1.77-1.5,3.94-3.81,4.03-6.22-1.15.09-2.57-.24-3.66.09-.27.08-4.59,5.39-4.33,2.66.02-.18,1.94-1.95,2.4-2.59.61-.85,1.45-3.06,1.59-3.16,1.62-1.23.88,1.91.99,2Z"/><path class="cls-104" d="M196.5,266.5c-.86,4.08-3.93,7.24-3,12-.49-.08-1.86.12-2,0-.18-.18.55-4.31.73-5.01.52-2.04,1.5-3.6,2.26-5.48-1.24-.04-2.51.05-3.75,0-.77-.03-1.98.47-1.74-.74,1.95-1.57,5.16-.42,7.5-.76Z"/><path class="cls-57" d="M153,236v10.5c0,.13,2.09-.1,2.5,0v1.5s-6.21,0-6.21,0l-.3-1.51c.42-.1,2.5.12,2.5,0v-8.5c0-.1-1.87.12-2,0-.14-1.59,2.13-1.93,3.5-2Z"/><path class="cls-57" d="M185,388v10.5c0,.13,2.09-.1,2.5,0l-.3,1.51h-6.21s0-1.51,0-1.51c.42-.1,2.5.12,2.5,0v-8.5c0-.1-1.87.12-2,0-.14-1.59,2.13-1.93,3.5-2Z"/><path class="cls-75" d="M282,327.5v10.5c0,.13,2.09-.1,2.5,0l-.3,1.51h-6.21s0-1.51,0-1.51c.42-.1,2.5.12,2.5,0v-8.5c0-.1-1.87.12-2,0-.14-1.59,2.13-1.93,3.5-2Z"/><path class="cls-57" d="M273,327.5v10.5c0,.13,2.09-.1,2.5,0l-.3,1.51h-6.21s0-1.51,0-1.51c.42-.1,2.5.12,2.5,0v-8.5c0-.1-1.87.12-2,0-.14-1.59,2.13-1.93,3.5-2Z"/><path class="cls-2" d="M162,72c.41,1.97-2.4.43-3.53,1.22-.53.37-.59,1.45-.47,2.03.06.29,4.32-1.22,4.55,2.5.28,4.44-5.26,5.41-6.55,1.26,1.07-.86,3.39,3.25,4.75.49,1.68-3.41-1.98-3.6-4.25-2.5.11-.73.33-4.81.5-4.99.2-.21,4.15.14,4.99,0Z"/><path class="cls-83" d="M136.5,127c1.87,1.43-3.84.84-4,1-.07.07-.06,1.92,0,1.99.25.25,4.49-.63,4.37,3.18-.19,5.94-8.13,2.54-6.37.84,1.17-1.14,2.51,3.42,4.46.7,2.36-3.3-2-3.78-4.46-2.7.74-5.22.43-5.45,6-4.99Z"/><path class="cls-89" d="M156,301.5c-1.2.14-1.51,3.05-2.5,1.74-1.04-1.38.96-2.18,1.7-3.28s1.74-3.26,2.53-3.97c.6-.54,1.18-.31,1.26.27.09.68-1.28,2.33-1.47,3.52-.27,1.68.34,9.87-.03,10.22h-1.5v-8.5Z"/><path class="cls-108" d="M156,268.5l.5-4c3.06-.87,1.93,2.54,2,5s.43,1.16,2.77,1.5c.75.11.8-.29.74.75-.12,2.42-1.89,5.53-4.01,6.75v-13.5h-1s0,4.5,0,4.5c-.6.02-.72-.69-1-1Z"/><path class="cls-46" d="M57,126v.5c-1.07,1.28-1.15,2.68-.25,4.23l-.25.27c-.8.85-.63,1.68.5,2.5v1c-1.1.16-5.22,2.9-5.01.25.04-.53,2.1.88,1.54-3.04-.14-.98-.99-.74-1.05-.97-.36-1.47.89-1.11,1-1.59.81-3.38-1.36-.84-1.49-3.16,1.65-.1,3.36.13,5,0Z"/><path class="cls-31" d="M146,90v11.5h-3c-.39-2.06,1.39.37,1.92-1.33.17-.55.28-5.47.08-5.67-.21-.21-3.79.22-4.01,0-.18-.18.14-3.45,0-4.21l5.01-.29Z"/><path class="cls-57" d="M61.5,333.5c.91.02,1.91.52,3,1.5l.22.61c-2.31,1.48-.18,2.57,1.78,2.39.14-.05.34.04.5,0,.64,1.71-2.47,2.96-3.41,2.41-.24-.14-.92-2.21-1.91-2.37-.83-.14-2.63,2.5-3.43,2.45-.32-.02-1.01-1.1-.74-1.48.13-.18,3.07-1.33,3-3-.59-.44-3.51.93-3-1,2.74.82,2.63-1.21,3-1.5.04-1.36.58-1.31,1,0Z"/><path class="cls-57" d="M61.5,272.5c.91.02,1.91.52,3,1.5l.22.61c-2.31,1.48-.18,2.57,1.78,2.39.14-.05.34.04.5,0,.64,1.71-2.47,2.96-3.41,2.41-.24-.14-.92-2.21-1.91-2.37-.83-.14-2.63,2.5-3.43,2.45-.32-.02-1.01-1.1-.74-1.48.13-.18,3.07-1.33,3-3-.59-.44-3.51.93-3-1,2.74.82,2.63-1.21,3-1.5.04-1.36.58-1.31,1,0Z"/><path class="cls-57" d="M61.5,303c.91.02,1.91.52,3,1.5l.22.61c-2.31,1.48-.18,2.57,1.78,2.39.14-.05.34.04.5,0,.64,1.71-2.47,2.96-3.41,2.41-.24-.14-.92-2.21-1.91-2.37-.83-.14-2.63,2.5-3.43,2.45-.32-.02-1.01-1.1-.74-1.48.13-.18,3.07-1.33,3-3-.59-.44-3.51.93-3-1,2.74.82,2.63-1.21,3-1.5.04-1.36.58-1.31,1,0Z"/><path class="cls-3" d="M296.5,333.5c-.14.85.19,4.81,0,5.01-.21.21-3.73-.19-4.67,0-.14.03-.95,1.85-1.83.99-.21-.2-.18-5.34.47-5.78.97-.68,4.64.03,6.03-.22Z"/><path class="cls-93" d="M220.5,328c.17,2.63-.61,7.4,1.26,9.49,1.52,1.7,1.91-1.65,2.74-2.25,1.43-1.03,1.18,3.83-1.36,4.17-4.97.66-4.09-8.27-4.14-11.41h1.5Z"/><path class="cls-93" d="M118.5,362c-.17.58-.55,3.15-.5,3.71.18,1.92,3.14,3.05,0,3.79-.75-5.34-2.8,1.86-4.75,1.5-.79-.15-.68-.6-.26-1.25.65-1,2.82-2.26,2.93-3.59.08-.9-3.09-3.53-2.43-4.16,1.26-1.19,2.2,2.56,3.49,2l.5-2.5c.15.11,1.33-1.3,1,.5Z"/><path class="cls-57" d="M117,243c3.18.28,3.64.98,1.38,2.1,1.14,1.17,2.09,1.76,3.12,1.4.16.01.34,0,.5,0,1.08,1.09-1.17,2.34-1.87,2.44-1.83.26-2.65-2.6-3.81-2.4-.81.14-2.03,2.65-3.06,2.46-1.91-.36,1.01-2.11,1.24-2.39.29-.34,1.33-1.81,1-2.1-1.03-.18-2.87.7-2.5-1,1.13.16,1.55.05,2.5-.5.18-.99.51-1.33,1-1,1.32-.33,1.42.03.5,1Z"/><path class="cls-58" d="M115.5,237c.45-1.33-1.03-3.02,1.5-2.5v3c.38.11.46-.5.5-.5,0-1.03.67-.86,2,.5.52.3.52,1.13,0,2.5.68,1.22-.32,1.89-3,2-.13.22-.78.87-1,1v-3s-3,1.5-3,1.5l2.49-2.75-2-.25c.03-.33-.04-.68,0-1,.61-1.33,1.36-1.12,2.5-.5Z"/><path class="cls-2" d="M49,157h-1.5s0-6,0-6c-.21-.28-1.22,1.24-1.49,1-1.63-1.46,3.01-5.3,2.5-7.5l2,.51c-.02.73-1.5,3.01-1.5,3.24v8.75Z"/><path class="cls-67" d="M327.5,337c-.04,1.67.13,2.03-2.01,1.21.33-1.55-.41-11.31,0-11.71.07-.07,1.92-.06,2,0,.07.06,0,1.12,0,1.5.08,2.97.07,6.03,0,9Z"/><path class="cls-67" d="M254.5,307c-.04,1.67.13,2.03-2.01,1.21.33-1.55-.41-11.31,0-11.71.07-.07,1.92-.06,2,0,.07.06,0,1.12,0,1.5.08,2.97.07,6.03,0,9Z"/><path class="cls-61" d="M128,127c.31.3-.3,4.79-.03,5.73.16.56.86.15,1.16.28,1.61.68-.69,1.17-.88,1.47-.54.84.33,2.26-.99,2.02-1-.42-.6-2.29-.78-2.47-.45-.46-4.45.8-3.97-.76.12-.4,3.65-5.64,3.97-5.92.56-.49.82-.38,1.52-.34Z"/><path class="cls-67" d="M229.5,367.5c-.04,1.67.13,2.03-2.01,1.21.33-1.55-.41-11.31,0-11.71.07-.07,1.92-.06,2,0,.07.06,0,1.12,0,1.5.08,2.97.07,6.03,0,9Z"/><path class="cls-134" d="M102,145h4.5c-.1,4,1.23,5.05-3.5,4.5v7.5h-1v-12Z"/><path class="cls-22" d="M100.25,16c1.35.34-.49,3.7-.98,4.52-1.17,1.94-3.4,4.29-5.62,4.89-.74.2-1.35.39-1.15-.65,3.16-1.59,6.53-3.85,6.5-7.76h-8v-1c2.56.42,6.97-.58,9.25,0Z"/><path class="cls-137" d="M95,356.5v13.75c0,.63-4.1,2.01-3.5-.25.13-.12,2,.1,2,0v-12.75c0-.33,1.07-.96,1.5-.75Z"/><path class="cls-135" d="M135,90c.79.13,4.32-.19,4.5,0,.2.2-.37,3.62.5,4.5-.55.15-4-.2-4,0v7.5h-1v-12Z"/><path class="cls-126" d="M81,78c-.76,1.33-1.55,5.17-2.99,4-.93-.75-.53-11.51.74-11.49.08,0,1.26.55,1.27.82.03.98-1.27,5.86-1.02,6.16.15.18,1.28-1.2,2,.5Z"/><path class="cls-114" d="M60.5,298c.19-.57-.14-1.78,0-2.5,1.83-.38.35,1.32,1.5,2.5.82-.74,1.65-.58,2.5.5.31.14.05,3.56-.1,3.71-.99.16-1.96.42-2.9.79-.05-.04-.95-.04-1,0l-.5-1.75-2.5,1.25,2-2.75-2-.25c-.28-.91.46-.9.5-1,.42-1.38,1.47-1.09,2.5-.5Z"/><path class="cls-114" d="M60.5,328.5c.19-.57-.14-1.78,0-2.5,1.83-.38.35,1.32,1.5,2.5.82-.74,1.65-.58,2.5.5.31.14.05,3.56-.1,3.71-.99.16-1.96.42-2.9.79-.05-.04-.95-.04-1,0l-.5-1.75-2.5,1.25,2-2.75-2-.25c-.28-.91.46-.9.5-1,.42-1.38,1.47-1.09,2.5-.5Z"/><path class="cls-114" d="M204.5,371.5c-.22-1.6,1.17-2.18,1.75-3.49,1.21-2.71,1.05-6.18-.15-8.86-.53-1.18-2.57-1.9-.85-3.14,3.59,3.42,4.49,9.43,1.67,13.66-.28.43-1.87,2.43-2.42,1.83Z"/><path class="cls-114" d="M60.5,267.5c.19-.57-.14-1.78,0-2.5,1.83-.38.35,1.32,1.5,2.5.82-.74,1.65-.58,2.5.5.31.14.05,3.56-.1,3.71-.99.16-1.96.42-2.9.79-.05-.04-.95-.04-1,0l-.5-1.75-2.5,1.25,2-2.75-2-.25c-.28-.91.46-.9.5-1,.42-1.38,1.47-1.09,2.5-.5Z"/><path class="cls-114" d="M188.5,249.5c-.22-1.6,1.17-2.18,1.75-3.49,1.21-2.71,1.05-6.18-.15-8.86-.53-1.18-2.57-1.9-.85-3.14,3.59,3.42,4.49,9.43,1.67,13.66-.28.43-1.87,2.43-2.42,1.83Z"/><path class="cls-6" d="M223.5,272.5c-.14.85.19,4.81,0,5.01-.23.23-3.76-.22-4.68-.01-.3.07-.5,1.97-1.32,1.01-.25-.3.18-5.01,0-6h6.01Z"/><path class="cls-6" d="M223.5,394c-.14.85.19,4.81,0,5.01-.23.23-3.76-.22-4.68-.01-.3.07-.5,1.97-1.32,1.01-.25-.3.18-5.01,0-6h6.01Z"/><path class="cls-6" d="M223.5,303c-.14.85.19,4.81,0,5.01-.23.23-3.76-.22-4.68-.01-.3.07-.5,1.97-1.32,1.01-.25-.3.18-5.01,0-6h6.01Z"/><path class="cls-42" d="M188,265.01c-2.55,2.9-3.76,6.09-2.76,10.01.39,1.54,2.75,3.98,2.75,4.24,0,.2-.74.85-1.23.75-1.62-.33-3.34-6.56-3.27-8.22.08-1.98,1.47-5.3,2.79-6.78.71-.79.82.17,1.72.01Z"/><path class="cls-42" d="M229,265.01c.9.16,1.02-.8,1.72-.01,1.32,1.48,2.71,4.8,2.79,6.78.07,1.67-1.65,7.89-3.27,8.22-.49.1-1.23-.55-1.23-.75,0-.25,2.36-2.7,2.75-4.24,1-3.91-.22-7.11-2.76-10.01Z"/><path class="cls-42" d="M188,295.51c-2.55,2.9-3.76,6.09-2.76,10.01.39,1.54,2.75,3.98,2.75,4.24,0,.2-.74.85-1.23.75-1.62-.33-3.34-6.56-3.27-8.22.08-1.98,1.47-5.3,2.79-6.78.71-.79.82.17,1.72.01Z"/><path class="cls-42" d="M229,295.51c.9.16,1.02-.8,1.72-.01,1.32,1.48,2.71,4.8,2.79,6.78.07,1.67-1.65,7.89-3.27,8.22-.49.1-1.23-.55-1.23-.75,0-.25,2.36-2.7,2.75-4.24,1-3.91-.22-7.11-2.76-10.01Z"/><path class="cls-66" d="M46.5,19.5c1.47-2.09,3.47.92,3.86.99,1.28.25,2.48-.58,3.64,0,.74,2.87-1.33,3.15-3.85,2.2-1.16.2-2.21,1.13-3.15,2.8-.14.44-.31.43-.5,0-.06-1.99-.03-4.01,0-6Z"/><path class="cls-42" d="M229,386.51c.9.16,1.02-.8,1.72-.01,1.32,1.48,2.71,4.8,2.79,6.78.07,1.67-1.65,7.89-3.27,8.22-.49.1-1.23-.55-1.23-.75,0-.25,2.36-2.7,2.75-4.24,1-3.91-.22-7.11-2.76-10.01Z"/><path class="cls-42" d="M252,326.01c-2.55,2.9-3.76,6.09-2.76,10.01.39,1.54,2.75,3.98,2.75,4.24,0,.2-.74.85-1.23.75-1.62-.33-3.34-6.56-3.27-8.22.08-1.98,1.47-5.3,2.79-6.78.71-.79.82.17,1.72.01Z"/><path class="cls-42" d="M146.25,234.01c1.58-.1-.99,3.07-1.12,3.37-1.3,3.12-1.58,5.24-.23,8.46.46,1.11,2.09,2.72,2.09,2.9.02,2.64-3.16-1.65-3.61-2.88-1.01-2.8-.86-6.55.52-9.22.27-.53,2.07-2.62,2.35-2.64Z"/><path class="cls-42" d="M162.25,356.01c1.58-.1-.99,3.07-1.12,3.37-1.3,3.12-1.58,5.24-.23,8.46.46,1.11,2.09,2.72,2.09,2.9.02,2.64-3.16-1.65-3.61-2.88-1.01-2.8-.86-6.55.52-9.22.27-.53,2.07-2.62,2.35-2.64Z"/><path class="cls-42" d="M178.25,386.01c1.58-.1-.99,3.07-1.12,3.37-1.3,3.12-1.58,5.24-.23,8.46.46,1.11,2.09,2.72,2.09,2.9.02,2.64-3.16-1.65-3.61-2.88-1.01-2.8-.86-6.55.52-9.22.27-.53,2.07-2.62,2.35-2.64Z"/><path class="cls-42" d="M302.75,325.51c.29.02,2.08,2.11,2.35,2.64,1.38,2.67,1.53,6.42.52,9.22-.45,1.24-3.63,5.52-3.61,2.88,0-.18,1.63-1.79,2.09-2.9,1.35-3.23,1.06-5.34-.23-8.46-.13-.3-2.7-3.48-1.12-3.37Z"/><path class="cls-49" d="M57.5,24.5c.02.55-.15,1.26.5,1.5-.02.33.03.67,0,1h-11.51c-.02-.5.02-1,0-1.5h.5c.54-.75,1.04-.92,1.5-.5,1.05-1.05,2.62-1.28,4.72-.69,1.78-.65,3.21-.59,4.28.19Z"/><path class="cls-77" d="M87.5,18.5c.01,2.24-2.26,5.07-4.02,6.23-1.21.8-3.6,2.01-3.48-.23,3.06-.2,5.01-2.28,6-5h-8.5v-1h10Z"/><path class="cls-104" d="M182.5,242c-.14.85.19,4.81,0,5.01-.16.16-2.92-.15-3.74.01-.97.18-1.27,1.12-2.26.98v-6s6,0,6,0Z"/><path class="cls-104" d="M198.5,364c-.14.85.19,4.81,0,5.01-.16.16-2.92-.15-3.74.01-.97.18-1.27,1.12-2.26.98v-6s6,0,6,0Z"/><path class="cls-3" d="M144,333c-.35-.05-.39-.83-.22-1.04.26-.34,8.17-.47,8.43-.14.23.29.07.9-.21,1.18-.6.21-2.79-.21-3,0-.39.38.65,6.5-.46,7.28-.72.5-3.21.5-3.53-.78.55-.11,2.35.15,2.5,0,.23-.23-.17-5.5,0-6.51h-3.5Z"/><path class="cls-89" d="M162.5,235c.54.61-4.35,13.57-4.49,15.66l-1.51.33c1.88-4.42,2.57-10.55,4.46-14.78.22-.5.97-1.85,1.53-1.21Z"/><path class="cls-89" d="M178.5,357c.54.61-4.35,13.57-4.49,15.66l-1.51.33c1.88-4.42,2.57-10.55,4.46-14.78.22-.5.97-1.85,1.53-1.21Z"/><path class="cls-89" d="M194.5,387c.54.61-4.35,13.57-4.49,15.66l-1.51.33c1.88-4.42,2.57-10.55,4.46-14.78.22-.5.97-1.85,1.53-1.21Z"/><path class="cls-112" d="M83.5,357c1.33-.39.89.9,1,1l.61,1.12-1.29,5.46c.56,3.05-.73,11.09-1.61,4.08.19-2.08.12-3.8-.21-5.17-.5.3-.83.64-1.5.5,0-.4-.06-.82.02-1.23.06-.32,2.77-5.52,2.98-5.77Z"/><path class="cls-58" d="M267.5,326.5c.52.57-3.95,13.74-4.47,14.78-.2.4-.9,1.89-1.53,1.22-.52-.57,3.9-13.66,4.47-14.78.2-.4.91-1.9,1.53-1.22Z"/><path class="cls-58" d="M203.5,296c.52.57-3.95,13.74-4.47,14.78-.2.4-.9,1.89-1.53,1.22-.52-.57,3.9-13.66,4.47-14.78.2-.4.91-1.9,1.53-1.22Z"/><path class="cls-58" d="M203.5,265.5c.52.57-3.95,13.74-4.47,14.78-.2.4-.9,1.89-1.53,1.22-.52-.57,3.9-13.66,4.47-14.78.2-.4.91-1.9,1.53-1.22Z"/><path class="cls-36" d="M84.5,358c.51.48,1.47-.02,1.55,1.25.14,2.21-1.47,3.81-1.91,5.59-.12.5.38,1.04.36,1.16s-.46.57-.51,1.21c-.2,2.45,1.16,4.99-1.98,4.29v-8s.23-.96.5-.25c.2,2.23-.28,4.84,0,7.01.09.73.38,1.55,1,.74.34-4.28-.88-9.03,1-13Z"/><path class="cls-83" d="M118.5,127c.33.29-2.24,3.87-2.59,4.65-.57,1.29-.7,2.65-1.18,3.85-.32.8.05,1.22-1.22,1-.46-3.13,1.75-5.62,2.49-8.49-.17-.15-5.86.42-3.99-1h6.49Z"/><path class="cls-43" d="M109,127v9.5h-1.5v-7c-4.58,2.62-1.04-2.7,1.5-2.5Z"/><path class="cls-31" d="M147.5,101.99c3.4-3.49,3.78-8.86,0-12.25,2.62-.98,4.13,4.45,4.02,6.49-.1,1.8-1.59,6.15-4.02,5.76Z"/><path class="cls-2" d="M81,78c.3-.52,1.11-2.25,1.74-2,1.37.55-.1,2.23.47,3.02.66.92,3.77.55,4.79-.02v2c-1.79-.16-4.21.39-5.88-.33-1.28-.55-.78-1.86-1.11-2.67Z"/><path class="cls-133" d="M103.5,125.01c-3.08,3.56-3.84,8.9,0,12.25-2.49,1.09-3.93-4.13-3.9-6.01.02-1.27,2.02-7.71,3.9-6.24Z"/><path class="cls-31" d="M143,95.5c.39,6.03-.21,3.22-3.68,3.99-.3.07-.5,1.97-1.32,1.01-.23-.27.16-4.12,0-5h5.01Z"/><path class="cls-114" d="M33.5,269.5c-.22-.26-1.16-.4-.98-1.2.06-.29,1.08-1.12,1.43-1.63.31-.44.52-1.59.6-1.64,1.74-1.15,1.31,1.38,1.73,1.5.99.27,3.04-.25,4.23-.03-.4.45-1.26.98-1.5,1.5-.42.54-.92,1.04-1.5,1.5-.49.04-1-.03-1.5,0-1.08-.68-1.4-.55-2.5,0Z"/><path class="cls-114" d="M33.5,300c-.22-.26-1.16-.4-.98-1.2.06-.29,1.08-1.12,1.43-1.63.31-.44.52-1.59.6-1.64,1.74-1.15,1.31,1.38,1.73,1.5.99.27,3.04-.25,4.23-.03-.4.45-1.26.98-1.5,1.5-.42.54-.92,1.04-1.5,1.5-.49.04-1-.03-1.5,0-1.08-.68-1.4-.55-2.5,0Z"/><path class="cls-114" d="M33.5,330.5c-.22-.26-1.16-.4-.98-1.2.06-.29,1.08-1.12,1.43-1.63.31-.44.52-1.59.6-1.64,1.74-1.15,1.31,1.38,1.73,1.5.99.27,3.04-.25,4.23-.03-.4.45-1.26.98-1.5,1.5-.42.54-.92,1.04-1.5,1.5-.49.04-1-.03-1.5,0-1.08-.68-1.4-.55-2.5,0Z"/><rect class="cls-75" x="76.5" y="386.5" width="1" height="15"/><path class="cls-1" d="M94.5,95.5c-.42,1.23.7,3.96-.5,5,.32-.73-.23-3.43,0-4.5-2.99.26-6.02-.22-8.99-.27-1.17-.02-.27,1.03-.51,1.77-.5-.17-.81-1.89-1-2.5,2.97-.24,6-.21,9-.28.91-.02,1.43-.16,2,.78Z"/><path class="cls-86" d="M114.5,156.99c-.14-.11,1.62-2.25,1.87-2.88.9-2.24.89-4,.03-6.26-.2-.51-3.04-4.14-1.15-3.35,2.26.95,3.02,5.55,2.77,7.76-.13,1.13-1.94,5.96-3.51,4.73Z"/><path class="cls-86" d="M136.5,70c-2.91,3.79-3.87,8.66,0,12.25.07.38-.47.31-.75.26-3.58-.72-4.11-11.75.76-12.5Z"/><path class="cls-74" d="M38,395c1.96.29,3.9.83,6,.5-.29,2.78,1.37,5.24-2.5,4.5-.18-.32-.3-.69-.5-1,.43-1.06-.32-2.39-1.5-2-.65-.81-1.65-1.03-1.5-2Z"/><path class="cls-57" d="M147,327.5c.42-.38.62-2.43,1.49-1.5.1.1-.11,1.38.47,1.78,1.65,1.15,3.76-1.67,3.04,3.22-1.78.49-.67-1.68-.99-2-.19-.2-5.12-.11-5.5,0-.88,4.06-2.72,1.14-1.41-1.61.91.53,2,.69,2.91.11Z"/><path class="cls-114" d="M231.5,337c-.1.1-1.09-.06-1.5,0,.27-2.63-.98-4.61-1.92-6.85-.21-.5-.96-1.45.17-1.65,1.69-.3,3.93,7.83,3.24,8.5Z"/><path class="cls-76" d="M142,72v9.5h-1v-7c-4.98,2.35-1.86-1.67,1-2.5Z"/><path class="cls-72" d="M131,401c-1.15-2.85-.19-6.46-.51-9.5-1.19.11-.23,3.41-2,2.24.32-1.01.2-3.17.48-3.94.23-.64,1.26-.13,1.46-.34.4-.4-.48-2.49.56-2.97v14.5Z"/><path class="cls-14" d="M109,240.5c-.6-.52-3.73-5.26-3.5-5.49,2-1.06,1.68.7,3.01,2.23,1.09,1.25,4.09,3.03,2.22,4.26-.43.09-1.37-.68-1.74-1Z"/><path class="cls-28" d="M59,150c2.5.67.98-1.89,1.79-2.01.94-.14,8.4-.3,8.71,0,.38.36-.99,2.62,1.5,2-.34.98-1.73.29-2.5.5.79-.92.24-1.35-.75-1.5-1.89-.29-4.28.2-6.25,0-.36,1.97,3.36.62,4.5,1,.03.59-.71.71-1,1-.93-1.3-5.65,0-6-1Z"/><path class="cls-6" d="M99,241c-.75.62-2.84,1.33-2.5-.24.06-.29,2.02-1.93,2.49-2.52.6-.75,1.5-2.64,2-3s1.93-.57,1.5.5c-.1.26-2.81,4.55-2.99,4.76-.14.15-.35.37-.5.5Z"/><path class="cls-15" d="M205.5,340c-.17.01-.33-.01-.5,0,.2-1.37-.35-3.46.08-4.67.11-.31,1.28-1.2,1.92-2.33.38-.66.51-1.41,1-2-.06,3.42-.71,6.1-2.5,9Z"/><path class="cls-35" d="M50.5,245c.02-1.03-.21-8.44.25-8.5.55-.08,1.18.05,1.75,0,.17.12-1.55,3.06-1.42,3.68.22,1.11,3.44,2.72-.08,4.82h-.5Z"/><path class="cls-32" d="M130,367.5c2.68.73,1.01-2.51,1.5-3,.17-.17,3.27.13,4,0-.14,2.4-2.2,3.12-4,4-.35-.35-1.37-.6-1.5-1Z"/><path class="cls-107" d="M109.5,150.5c.39,6.04-.22,3.21-3.68,4-.35.08-.38,1.85-1.32,1-.07-.06.49-1.11.52-1.73.03-.68-.13-3.15-.02-3.27.18-.18,3.71.13,4.51,0Z"/><path class="cls-136" d="M87.45,72.04c.27.2.77,1.61-.27,1.89-1.56.42-3.99-.16-5.69.06v-2c1.33.88,5.3-.45,5.96.04Z"/><path class="cls-10" d="M122.5,126.5c-.9,2.32-1.45,7.8-2.49,9.66-.38.68-.91.26-1.51.33,1.33-2.74,1.53-6.28,2.77-9,.34-.76-.06-1.23,1.23-.99Z"/><path class="cls-68" d="M155.5,71.5c-.63,2.83-1.2,6.34-2.27,9-.32.8.05,1.22-1.22,1,.6-2.86,1.3-6.2,2.37-8.9.3-.76-.29-1.35,1.12-1.1Z"/><path class="cls-97" d="M74,93c-.1-.02-1.41-.56-1.66-.66-.84-.34-2.65-2.12-1.08-2.34.64-.09,4.15,2.63,5.24,1.51.46-.48-1.22-2.68,2-2.01-.52,3.31,1.07,1.18,3,2.5-.7-.2-3.3.21-3.5,0-.32-.34.77-2.51-.99-2.01-.1.48.14,1.86,0,2.01-.38.4-3.46-.94-3,1Z"/><path class="cls-139" d="M60,97.5c1.18-.57,2-1.58,3.72-1.48,2.85.16,2.97,3.5,1.04,3.49-.28,0-2.13-3.64-4.75-1.51v-.5Z"/><path class="cls-89" d="M178.43,332.07c1.35,2.15-1.92,4.4-3.2,1.93-1.15-2.22,2.46-3.1,3.2-1.93Z"/><path class="cls-40" d="M95,268c-2.01,2.39,2.91,1.52,3.5,2,.35,1.96-1.78.25-3,1.5-.87.89-.02,1.99-.99,2-1.11-3.06-.85-2.87,0-5.5h.5Z"/><path class="cls-47" d="M54,394.5c.14-.45-.27-1.57.08-1.92.2-.2,1.04-.08,1.37-.37.67-.59.79-1.72,1.8-1.73,1.27-.02,1.67,1.67,1.04,2.56-.88,1.25-4.01-.66-3.79,1.46h-.5Z"/><path class="cls-40" d="M95,329c-2.01,2.39,2.91,1.52,3.5,2,.35,1.96-1.78.25-3,1.5-.87.89-.02,1.99-.99,2-1.11-3.06-.85-2.87,0-5.5h.5Z"/><path class="cls-40" d="M95,298.5c-2.01,2.39,2.91,1.52,3.5,2,.35,1.96-1.78.25-3,1.5-.87.89-.02,1.99-.99,2-1.11-3.06-.85-2.87,0-5.5h.5Z"/><path class="cls-129" d="M47.5,75c-.19.22.14,3.19,0,4-.03.15-.42.33-.5.5-.15.28-.32.27-.5,0l.5-4c-1.93-.15-4.12.22-6,0-.15-.02-.63-.54-1-.5.32-.83,6.42-.79,7.5,0Z"/><path class="cls-34" d="M92,81.5c.15-.91-.31-6.43.25-6.5.7-.09,1.42.08,1.75.76.19.4-1.34-.17-1,1.49l2,.26-2.5.5c-.52,1.83,2.03.53,2,1.25-.06,1.63-2.36.59-2,2.25-.13-.03-.49-.02-.5,0Z"/><path class="cls-112" d="M92,358.5c.23.79.15,7.12,0,8.26-.09.73-.39,1.55-1,.74.06-2.41-.08-4.85,0-7.27.03-.96-.51-2.01,1-1.73Z"/><path class="cls-3" d="M139.49,310c-.48.35-1.51-.38-1.43-1.16.03-.28,2.41-4.81,2.69-4.83,1.69-.11-1,5.8-1.26,5.99Z"/><path class="cls-3" d="M127,235.5c-1.59-.47-5.13.34-7,0,.06,1.17,1.98-.16,2.5.99-.61.6-1.61.76-3,.5.28.16.28.32,0,.5-.67.2-1.61-.49-2-.5-.17-3.06,4.33-2.03,6.76-2.01.84,0,2.22-.32,2.74.51Z"/><path class="cls-103" d="M83,389.5c3.1-.17.23,5.78-1.25,5.49-.96-.18-.55-.68-.27-1.25.67-1.37,1.84-2.45,1.52-4.24Z"/><path class="cls-122" d="M92.4,394.39c-.53.34-1.73.36-1.39-.62.8-.54,1.71-4.66,2.73-4.26,1.59.63-1.01,4.67-1.34,4.88Z"/><path class="cls-5" d="M73,97c.42.39-1.23,4.31-1.75,4.99-2.53-.7.45-6.2,1.75-4.99Z"/><path class="cls-94" d="M147.5,147.5c-1.5-.03-3.01.02-4.5,0-.02-1.49.03-3.01,0-4.5,1.03,2.08,2.41,3.47,4.5,4.5Z"/><path class="cls-100" d="M178.5,80.5c-2.08,1.03-3.47,2.41-4.5,4.5.03-1.49-.02-3.01,0-4.5,1.49-.02,3.01.03,4.5,0Z"/><path class="cls-100" d="M178.5,92.5c-1.5-.03-3.01.02-4.5,0-.02-1.49.03-3.01,0-4.5,1.03,2.09,2.42,3.47,4.5,4.5Z"/><path class="cls-94" d="M147.5,135.5c-2.09,1.03-3.47,2.42-4.5,4.5.03-1.49-.02-3.01,0-4.5,1.49-.02,3.01.03,4.5,0Z"/><path class="cls-4" d="M73.5,78c-.13.71.27,1.86-.22,2.52-.19.25-1.7.73-2.28.98-.22.1-.71-.08-1,0,1.73-1.76,2.2-3.32,3-5.5.57-.06.74.6.5,2Z"/><path class="cls-138" d="M72,266c-1.92.38-5.92-.51-7.5,0,.28.71.28,1.38,0,2-1,.03-1.76.26-2.5-.5.87-2.97,4.63-2.04,7.26-2.01.85,0,2.22-.32,2.74.51Z"/><path class="cls-138" d="M72,327c-1.92.38-5.92-.51-7.5,0,.28.71.28,1.38,0,2-1,.03-1.76.26-2.5-.5.87-2.97,4.63-2.04,7.26-2.01.85,0,2.22-.32,2.74.51Z"/><path class="cls-138" d="M72,296.5c-1.92.38-5.92-.51-7.5,0,.28.71.28,1.38,0,2-1,.03-1.76.26-2.5-.5.87-2.97,4.63-2.04,7.26-2.01.85,0,2.22-.32,2.74.51Z"/><path class="cls-85" d="M111,302c1.61.46,1.99-3.88,3.5-2.5.48.44-2.09,4.32-2.5,5-.1-.19-.46-.37-.5-.5-.15-.46-.42-1.18-.5-1.5-.44-.16-.44-.33,0-.5Z"/><path class="cls-85" d="M111,332.5c1.61.46,1.99-3.88,3.5-2.5.48.44-2.09,4.32-2.5,5-.1-.19-.46-.37-.5-.5-.15-.46-.42-1.18-.5-1.5-.44-.16-.44-.33,0-.5Z"/><path class="cls-85" d="M111,271.5c1.61.46,1.99-3.88,3.5-2.5.48.44-2.09,4.32-2.5,5-.1-.19-.46-.37-.5-.5-.15-.46-.42-1.18-.5-1.5-.44-.16-.44-.33,0-.5Z"/><path class="cls-81" d="M90,362.5c.06-.66-.03-1.34,0-2h-3c.51-2.58,1.03-2.08,3.5-2,.03,1.33-.04,2.67,0,4h-.5Z"/><path class="cls-27" d="M102.5,391c-.39.66-1.12,1.12-1,2,2.42,1.47,1.56-2.35,3.99-2.49.13,2.06-1.47,3.48-2.5,5-.1-.19-.47-.38-.5-.5-.14-.56.27-.97-.5-1.5-1.62.77-1.64-1.4-1-2.5.34-.12,1.05.08,1.5,0Z"/><rect class="cls-13" x="79" y="15.5" width="7" height="1"/><path class="cls-27" d="M70.5,239c-.39.66-1.12,1.12-1,2,2.42,1.47,1.56-2.35,3.99-2.49.13,2.06-1.47,3.48-2.5,5-.1-.19-.47-.38-.5-.5-.14-.56.27-.97-.5-1.5-1.62.77-1.64-1.4-1-2.5.34-.12,1.05.08,1.5,0Z"/><path class="cls-139" d="M45,133.5c.87-.65,1.1-.37.5.5-.5.73-1.4,1.92-2,2.5-.28.27-.71.92-1,1v-4.5c1.39,1.31,1.42.64,2.5.5Z"/><path class="cls-103" d="M140,336.5c1.15.73-1.04,3.94-1.25,4.01-2.96.97.72-3.51.25-4.01h1Z"/><path class="cls-122" d="M123,367c-1.15,1.07-2.18-1.63-2.4-2.35-.1-.32-1.05-1.74.16-1.64.57.05,2.63,3.63,2.25,3.99Z"/><path class="cls-97" d="M73.5,95c.13.28-.09,1.08,0,1.5-.47-1.1-3.24-1.19-3.5-2.26-.57-2.27,3.16.03,3.5.76Z"/><path class="cls-117" d="M144,331.5c1.25.22,8.19-.29,8.5,0,.11.11.24,1.25-.5,1.5.28-1.51-.77-.96-1.73-1-1.5-.06-3.05-.05-4.55,0-.96.03-2.01-.51-1.73,1h-.5c.02-.5,0-1,0-1.5.14-.44.31-.43.5,0Z"/><path class="cls-27" d="M143.5,326.5c.27.08,1.6,1.9,3.5,1-1.64,1.48-3.67-1.14-3,3,1.56.46.69-1.25,1.5-1.5.26,1.82.03,1.86-1.5,2.5h-.5c0-1.66,0-3.34,0-5Z"/><path class="cls-19" d="M159,389.99c-1.6,1.51-3.49-2.47-3-2.99.72-.76,3.23,2.77,3,2.99Z"/><path class="cls-17" d="M143.9,296.12c.44.27,1.48,2.94,1.1,3.38-1,1.14-4.08-5.25-1.1-3.38Z"/><path class="cls-120" d="M152,296c-.19.69-1.45,3.76-2.24,3.49-1.63-.55,1.09-4.53,2.24-3.49Z"/><path class="cls-122" d="M70,337.5c.15.07,2.42,2.11,2.5,2.26.91,1.75-4.92-.32-3-2.26.18.03.39-.05.5,0Z"/><path class="cls-122" d="M70,276.5c.15.07,2.42,2.11,2.5,2.26.91,1.75-4.92-.32-3-2.26.18.03.39-.05.5,0Z"/><path class="cls-17" d="M141.5,298.5c-.31.34-3.97-1.94-2.99-3,.55-.59,3.98,1.92,2.99,3Z"/><path class="cls-120" d="M141,302.5c-.63.59-4.27-1.8-3.5-2.49,1.04-.56,4.28,1.77,3.5,2.49Z"/><path class="cls-56" d="M125,246l2.5,2.26c.76,1.75-4.67-.23-3-2.26.17-.01.33,0,.5,0Z"/><path class="cls-17" d="M139,268c-.12,1.07.37,4.68-1.49,4.5-.1-1.14.13-2.25.43-3.34.23-.85-.36-1.39,1.06-1.16Z"/><path class="cls-122" d="M70,307c.15.07,2.42,2.11,2.5,2.26.91,1.75-4.92-.32-3-2.26.18.03.39-.05.5,0Z"/><path class="cls-120" d="M165,265.5c.93-1.01,3.66,3.61,1.75,3.49-.33-.02-2.24-2.95-1.75-3.49Z"/><path class="cls-30" d="M140.5,361c-.89-.04-1.93.13-2.75.03-1.88-.24-1.09-2.95.77-1.78.44.28.33,1.82,1.98,1.25v.5Z"/><path class="cls-28" d="M96.5,70.5c.13,1.44-.19,3.11,0,4.5.05.86-.74.76-1,0,.01-1.5,0-3,0-4.5.33,0,.67,0,1,0Z"/><path class="cls-21" d="M60.5,267.5c-.3.89-1.69.42-2.5.5.36-1.01-.07-3,.75-2.99.5,0,1.07,2.16,1.75,2.49Z"/><path class="cls-72" d="M39.5,397c-.19-3,4.5,2.21,1.5,2-.43-.69-.99-1.37-1.5-2Z"/><path class="cls-21" d="M60.5,328.5c-.3.89-1.69.42-2.5.5.36-1.01-.07-3,.75-2.99.5,0,1.07,2.16,1.75,2.49Z"/><path class="cls-21" d="M60.5,298c-.3.89-1.69.42-2.5.5.36-1.01-.07-3,.75-2.99.5,0,1.07,2.16,1.75,2.49Z"/><path class="cls-1" d="M129,360.5c2.09-.46,2.77-3.23,3.5.25l-3.5.25c-.03-.13,0-.33,0-.5Z"/><path class="cls-119" d="M142.5,336.5c.17.15,2.38,3.9.26,3.51-.24,0-1.71-2.82-.76-3.51.18.03.43-.06.5,0Z"/><path class="cls-82" d="M104.5,74l5.5-.5c.49,1.46-1.61,1.11-2.5,1-.93-.12-1.57-.46-3-.5Z"/><path class="cls-128" d="M113,237.5c.03-.25.41-.6.43-1.23.01-.45-.55-1.16-.43-1.26,1.3-1.05,1.76,1.44,2.5,2-.3.89-1.69.42-2.5.5Z"/><path class="cls-102" d="M36,300c-1.26.07-2.31-.51-2,1-.51-.15-.39-.87-.5-1,1.15-1.88,2.48-2.93,2.5,0Z"/><path class="cls-102" d="M36,330.5c-1.26.07-2.31-.51-2,1-.51-.15-.39-.87-.5-1,1.15-1.88,2.48-2.93,2.5,0Z"/><path class="cls-102" d="M36,269.5c-1.26.07-2.31-.51-2,1-.51-.15-.39-.87-.5-1,1.15-1.88,2.48-2.93,2.5,0Z"/><path class="cls-85" d="M35.5,386.5v3s-1,0-1,0c-.07-1.27.5-2.32-1-2,.22-.41,1.55-.94,2-1Z"/><path class="cls-116" d="M73.5,14.5c.76-.53.25-1.77,1.71.04,1.78,2.2.06,1.13-.71,1.46-.72.74-1.8-.86-1-1.5Z"/><path class="cls-116" d="M73.5,14.5l1,1.5c-.43.18-.28,1.54-1.24.49-2.04-2.23,0-1.82.24-1.99Z"/><path class="cls-82" d="M54.5,245c-.33.02-.67-.02-1,0,.81-1.09.37-2.34,0-3.5-.62-1.27-.28-1.72,1-1v4.5Z"/><path class="cls-47" d="M68,79l3-1.5c.28.25-1.68,2.14-2,2.5-.32-.35-.69-.65-1-1Z"/><path class="cls-59" d="M56.5,360c-.32.72-.66.98-1,1.5-.9.71-2.14.76-2.5-.5l.35-.4c1.28-.29,2.49.47,2.15-1.1.28.04.68.4,1,.5Z"/><path class="cls-88" d="M65.5,70.5v2.5s-.49,0-.49,0c.26-1.97-.68-2.16-1.51-.5.05-.41-.18-1.19.06-1.43.07-.07,1.49-.42,1.94-.57Z"/><path class="cls-30" d="M146.5,270c.16.06.39-.06.48.26.03.69.2,1.71-.2,2.28-.84,1.2-3.83-.51-3.28,1.47-.92-.3-.3-1.49-.5-2h.5c1.57-.31,2.23-.77,2-1.39l1-.61Z"/><path class="cls-139" d="M67.5,234.5v3c-1.5.33-.94-.74-1-2,.3-.24.77-.93,1-1Z"/><path class="cls-139" d="M99.5,386.5v3c-1.5.33-.94-.74-1-2,.3-.24.77-.93,1-1Z"/><path class="cls-40" d="M42,391c-.37,1.02-2.97.31-4,.5-.44-.14-.43-.31,0-.5.17-.01.33,0,.5,0,1.16-.03,2.34.02,3.5,0Z"/><path class="cls-121" d="M54.5,390.5c-.7.22-2.14-.15-3,0-.25-.81.44-.87.5-1l2.5,1Z"/><path class="cls-28" d="M59.5,135.5c-.38.83-2.5.79-3,0,.66-.23,2.17.16,3,0Z"/><path class="cls-71" d="M215,35.5l-.5-.5c.26-.25.4-1.25,1-1.5-.1,1.15-.22,1.14-.5,2Z"/><path class="cls-71" d="M133,35l-.5.5c-.28-.86-.4-.85-.5-2,.61.23.77,1.29,1,1.5Z"/><path class="cls-29" d="M146.5,27c-1.15-4.24-.19-9.11-.5-13.5h11.5c-.31,4.39.65,9.26-.5,13.5-1.37-1.63-1.38-3.4,0-5,.08-.89-.27-1.6-.99-2.16.14-5.26-.85-3.9-.47.08l-1.04,1.08c1.3,1.11.56,4.59,0,6-.5.03-1-.01-1.5,0l-1-.54c.09-6.03-.31-6.59-.47-.09l-1.03.63c-.33,0-.67.01-1,0l-.69-.28c.97-2.22.68-5.68.19-8.22-.09,1.44-1.55,1.26-2,0-.52,2.59-.61,5.77.19,8.24l-.69.26Z"/><path class="cls-118" d="M185.25,15.5c2.16.6-2,5.15-1.75,5.49,1.4-.43,5.75,5.14,3.25,5-.46-.03-2.71-3.53-4.51-3.48-.76.02-5.19,4.89-5.73,2.24-.12-.58,3.86-3.16,4.75-4.24.65-.78,2.88-3.22,1.01-3.5-2.16-.33-5.15,1.49-4.76-1.5,2.11.37,5.92-.51,7.75,0Z"/><path class="cls-92" d="M192,14.5c3.63-.87,1.19,2.49,2.08,3.92.22.35,5.96,2.44,5.94,2.88-.13,3.87-3.9-.94-6.02-.8-.44,2.46,1.43,6.38-2,5.5v-11.5Z"/><path class="cls-20" d="M173,15c1.03,3.27-.93,12.4-5.69,10.97-2.93-.88,1.69-2.37,2.18-2.72,2.74-2,.96-7.72,1.51-8.24.13-.12,1.51.08,2,0Z"/><path class="cls-44" d="M157,22c-.03,1.66.02,3.34,0,5-.83.03-1.67-.05-2.5,0-1.19-1.96-.13-4.02,0-6,1.44-2.17,2.35-2.62,2.5,1Z"/><path class="cls-84" d="M150.5,27l.29-6.51h2.21s0,6.51,0,6.51c-.83.02-1.67.02-2.5,0Z"/><path class="cls-9" d="M167,15c.22.21.22,5.8,0,6-.07.07-1.92.07-2,0-.22-.21-.22-5.8,0-6,.07-.07,1.92-.07,2,0Z"/><path class="cls-24" d="M147,18.5l.9.55c-.2,7.83.57,8.89.23.26l.87-.8c1.13,2.43.21,5.79.5,8.5-.99-.04-2.01.03-3,0,.29-2.71-.63-6.07.5-8.5Z"/><path class="cls-95" d="M567,193l-1.08.26c-.99-.95-2.46-1.68-3.82-1.79-116.36.49-232.89.16-349.6-.97-19.16,1.25-38.34,1.23-57.5,0,.39.11.95.26,1,.58.21,1.42.24,9.38,0,10.69l-1,.73c19.16-1.23,38.34-1.25,57.5,0,116.65-1.13,233.12-1.46,349.43-.97,1.36,0,2.82-.77,3.87-1.67l1.2.14v21.24c-.18,1.19-1.05,1.79-2.23,1.79H35.72c-2.27.06-2.56-.74-2.75-2.74-1.46-15.15,1.17-32.64,0-48.05,0-1.41.86-2.26,2.25-2.25h529.55c1.17,0,2.05.6,2.21,1.79v21.24Z"/><path class="cls-7" d="M567,193c1.3,1.85,1.29,5.15,0,7-.91,1.31-3.55,2.66-5.23,2.52-116.42-.11-232.85.07-349.27-.02-.39-.11-.97-.28-1-.58-.24-2.74-.24-7.95,0-10.69l1-.73c116.42-.09,232.85.09,349.27-.02,1.68-.14,4.32,1.21,5.23,2.52Z"/><path class="cls-95" d="M162.5,332c.66.67,1.13,5.45.12,6-2.69,1.46-2.61-.9-1.78-1.01,1.79-.23,2.17.24,1.66-2.7-.14-.8-2.56.53-2.01-1.28l2-1Z"/><path class="cls-28" d="M161.5,335c.4,2.17-3.97,1.75-3.99.75s3.24-.8,3.99-.75Z"/><path class="cls-32" d="M165.5,328l.5,1.99c-2.42.71-3.08-1.5-.5-1.99Z"/><path class="cls-23" d="M158,338.5c-.17-.18-.32-1.87.74-1.49,1.54.55-.26,2.02-.74,1.49Z"/><path class="cls-23" d="M159.5,334h-1.5s0-.99,0-.99c.69-.15,1.33.27,1.5.99Z"/><path class="cls-35" d="M76.5,365.5l-4-.24c.93-1.11,3.39-1.24,4,.24Z"/><path class="cls-32" d="M76.5,367.5l-4-.24c.93-1.11,3.39-1.24,4,.24Z"/><path class="cls-35" d="M76,360.5c.42,1.86-2.44.71-3.49.99-.42-1.86,2.44-.71,3.49-.99Z"/><path class="cls-74" d="M71.5,361.5c-1.06-.28-3.91.86-3.5-.99l3.5.99Z"/><path class="cls-35" d="M44.5,365.5l-4-.24c.93-1.11,3.39-1.24,4,.24Z"/><path class="cls-32" d="M44.5,367.5l-4-.24c.93-1.11,3.39-1.24,4,.24Z"/><path class="cls-35" d="M44,360.5c.42,1.86-2.44.71-3.49.99-.42-1.86,2.44-.71,3.49-.99Z"/><path class="cls-74" d="M39.5,361.5c-1.06-.28-3.91.86-3.5-.99l3.5.99Z"/><path class="cls-102" d="M140.5,364.5c.06.06.09,1.51.02,1.73-.11.36-.89.19-1.33.46-.14.08-.79,1.7-1.95-.19-1.73-2.82,3.06-2.2,3.25-2Z"/><path class="cls-125" d="M135.5,359v1.99s-2.5,0-2.5,0c.62-1.81.26-2.33,2.5-1.99Z"/><path class="cls-50" d="M57.5,74.51c-.05.98-1.89.37-2.68.49-.15.02-.64,2.1-1.32.25-.54-1.48,3.57-.74,3.99-.74Z"/><path class="cls-139" d="M52,78.5v-3s.49,0,.49,0c.05,1.2,1.06,2.51-.49,3Z"/><path class="cls-52" d="M53,72c.27.28-.72,2.6-.99,1.99v-1.99s.99,0,.99,0Z"/><path class="cls-39" d="M59,73l-2-.24c.77-1.09,1.54-.97,2,.24Z"/><rect class="cls-85" x="58.5" y="76.5" width="1.49" height=".99"/><path class="cls-54" d="M53,391.5c.24.24.02,2.97-.74,2.98-3.06.07-.58-4.32.74-2.98Z"/><path class="cls-7" d="M192.5,339v-11l2.99,8.26c-.02.86-1.96,2.85-2.99,2.74Z"/><path class="cls-35" d="M198.5,329.5c-1.95,6.84-2.03,6.45-4,0h4Z"/><path class="cls-7" d="M191,334.5c.5,2.41-.9,2.48-3,2.49-.35-2.48.8-2.72,3-2.49Z"/><path class="cls-108" d="M191,331.5v2c-4.38.83-4.38-2.82,0-2Z"/><path class="cls-64" d="M191,328v2c-4.42.82-4.02-2.41,0-2Z"/><path class="cls-125" d="M49,133.5c-.14.65.29,1.72-.48,2.28-.61.45-1.67.07-2.02.22,0-.49,1.59-3.47,2-4.5.58-.06.75.61.5,2Z"/><path class="cls-47" d="M44.5,130.51c.08.1-.03.68,0,.99h-2s0-1.49,0-1.49c.11-.12,1.93.43,2,.51Z"/><path class="cls-59" d="M47,131.5c-.53,1.34-.79,1.46-1.5,2.5.1-.3-.29-.53-.5-.5.28-.78,1.15-1.4,1.5-2,.14-.44.31-.43.5,0Z"/><path class="cls-80" d="M49,133.5l-.5-2c.26-.65.55-1.27.51-2h.49c.38,1.59-.22,2.74-.49,4Z"/><path class="cls-38" d="M47,131.5h-.5c.23-.41.28-2.03.75-2.01.86.57-.07,1.55-.25,2.01Z"/><path class="cls-37" d="M68.95,75.55c.19.31,0,1,.05,1.44-1.65.35-.44-1.61-1.99-.49-.87-2.05,1.56-1.57,1.94-.95Z"/><path class="cls-51" d="M73.5,78l-.5-2c.24-.66.56-1.26.51-2h.49c.43,1.55-.28,2.83-.49,4Z"/><path class="cls-87" d="M99.5,78l-3-.49c1.45-.04,3.99.55,2.84-1.39-.11-.18-1.32.16-.84-1.11h1.5c.01.99,0,2,0,3-.14.44-.31.43-.5,0Z"/><path class="cls-15" d="M100,78c0,.68.48,3.38-.75,3l-1.76-2,2-1h.5Z"/><rect class="cls-130" x="98" y="73" width="1.99" height=".99"/><rect class="cls-130" x="92" y="73" width="1.99" height=".99"/><rect class="cls-99" x="98" y="71.5" width="1.99" height=".99"/><rect class="cls-99" x="92" y="71.5" width="1.99" height=".99"/><path class="cls-50" d="M96.5,75c.01.11,1.29,1.77-.74,1-1.24-.47-.26-.92-.26-1h1Z"/><path class="cls-121" d="M55,369.5c.29-2.72-1.22-5.47,1.99-6.5,1.27,2.85,2.15,5.85-1.99,6.5Z"/><rect class="cls-39" x="50.5" y="365" width="3.51" height="3.01"/><path class="cls-1" d="M60.5,360.5c.3.3-.41,4.71-1.5,5l-1.01-4.99h2.5Z"/><path class="cls-81" d="M55.5,361.5c-.63.98-.39,2.35-2.5,2,.08-.54-.13-2.37,0-2.5.1-.1,2.39-.19,2.5.5Z"/><path class="cls-50" d="M38,391v1.5s6,0,6,0c-.08.46.12,1.15,0,1.5-1.59.41-3.26.41-5,0-.53-.15-1.93-.42-2-.5-.47-.75-.37-1.73,0-2.5.33-.01.67.02,1,0Z"/><path class="cls-34" d="M44,394c-.43,1.23-3.89.33-5,0h5Z"/><path class="cls-40" d="M37,393.5c-.79-.33-.79-2.17,0-2.5.1.55-.15,2.32,0,2.5Z"/><rect class="cls-15" x="40.5" y="331.5" width="4.01" height="1.5"/><path class="cls-39" d="M35.5,335.5c-.4-2.17,3.97-1.75,3.99-.75s-3.24.8-3.99.75Z"/><path class="cls-108" d="M43,330.5c-.11.11-3.46.45-2.99-.74,1.02-2.61,4.16-.39,2.99.74Z"/><path class="cls-91" d="M39,329c-.55,1.17,1.14,1.27-1.5,1.5l-.5-2,2,.5Z"/><rect class="cls-15" x="40.5" y="270.5" width="4.01" height="1.5"/><path class="cls-39" d="M35.5,274.5c-.4-2.17,3.97-1.75,3.99-.75s-3.24.8-3.99.75Z"/><path class="cls-108" d="M43,269.5c-.11.11-3.46.45-2.99-.74,1.02-2.61,4.16-.39,2.99.74Z"/><path class="cls-91" d="M39,268c-.55,1.17,1.14,1.27-1.5,1.5l-.5-2,2,.5Z"/><rect class="cls-15" x="40.5" y="301" width="4.01" height="1.5"/><path class="cls-39" d="M35.5,305c-.4-2.17,3.97-1.75,3.99-.75s-3.24.8-3.99.75Z"/><path class="cls-108" d="M43,300c-.11.11-3.46.45-2.99-.74,1.02-2.61,4.16-.39,2.99.74Z"/><path class="cls-91" d="M39,298.5c-.55,1.17,1.14,1.27-1.5,1.5l-.5-2,2,.5Z"/><path class="cls-141" d="M146.5,270v2.5c-1.02-.01-2.21.29-3-.5.33-1.38,1.52-2.54,3-2Z"/><path class="cls-79" d="M100,305v-2.5c3.47-.42,3.4,2.95,0,2.5Z"/><path class="cls-101" d="M101.5,298.99l-4-.24c1.72-2.22,2.54-2.17,4,.24Z"/><rect class="cls-65" x="96.5" y="302.5" width="1.99" height="2.5"/><path class="cls-79" d="M100,335.5v-2.5c3.47-.42,3.4,2.95,0,2.5Z"/><rect class="cls-65" x="96.5" y="333" width="1.99" height="2.5"/><path class="cls-101" d="M101.5,329.49l-4-.24c1.72-2.22,2.54-2.17,4,.24Z"/><path class="cls-79" d="M100,274.5v-2.5c3.47-.42,3.4,2.95,0,2.5Z"/><path class="cls-101" d="M101.5,268.49l-4-.24c1.72-2.22,2.54-2.17,4,.24Z"/><rect class="cls-65" x="96.5" y="272" width="1.99" height="2.5"/><path class="cls-32" d="M53.5,238.5l4.5,1c.42,1.78-2.37.8-3.5,1-.25.04-.73.77-1,1-.15-.49-1-.99-1.01-1.76-.02-.92.99-1.16,1.01-1.24Z"/><path class="cls-7" d="M61.5,244h-2.5c-.42-3.47,2.95-3.4,2.5,0Z"/><path class="cls-41" d="M55.5,244c-.09-.74-.08-2.24.75-2.49,2.28-.69,2.55,3.32-.75,2.49Z"/><path class="cls-108" d="M60.5,237.99l-4-.24c1.72-2.22,2.54-2.17,4,.24Z"/><path class="cls-102" d="M212,328c.47.47-1.49,5.43.48,4.75.36-.12,1.46-1.27,2.02-.74.33.31-1.66,4.01-2.25,4.49-.9,0-3.37-7.14-2.75-8.49h2.5Z"/><path class="cls-12" d="M57,132c-1.12,1.14-1.91-.26-.5-1-.07-.15.14-.53-.11-.88-.2-.28-1.12-.3-1.34-.92-.54-1.55.67-2.26,1.95-2.7v5.5Z"/><path class="cls-28" d="M56.5,131c.18.38-.23.81.5,1,.67.17,1.74-.12,2.5,0v1c-.89-.44-2.16.48-2.5.5-2.32.12-3.01-2.18-.5-2.5Z"/><path class="cls-95" d="M62.5,129.5c.15.15.32,1.9-.74,1.49-1.81-.69-.13-2.36.74-1.49Z"/><path class="cls-106" d="M62.5,127.51c.08.09-.03.68,0,.99h-1.49s0-1.5,0-1.5c.38.34,1.44.44,1.49.51Z"/><rect class="cls-95" x="58.5" y="127" width=".99" height="1.49"/><rect class="cls-95" x="58.5" y="129.5" width=".99" height="1.49"/><path class="cls-87" d="M128.5,268.5c-.68,1.42-1.32,8.26-3.73,7.48-3.02-.98.25-8.37,3.73-7.48Z"/><path class="cls-87" d="M128.5,299c-.68,1.42-1.32,8.26-3.73,7.48-3.02-.98.25-8.37,3.73-7.48Z"/><path class="cls-87" d="M128.5,329.5c-.68,1.42-1.32,8.26-3.73,7.48-3.02-.98.25-8.37,3.73-7.48Z"/><path class="cls-73" d="M111.5,300c-.2.45-.81.87-.91,1.37s.4.59.41.63c.03.16-.04.35,0,.5l-1.5.5c.06-2.35-.81-3.44,2-3Z"/><path class="cls-73" d="M111.5,269.5c-.2.45-.81.87-.91,1.37s.4.59.41.63c.03.16-.04.35,0,.5l-1.5.5c.06-2.35-.81-3.44,2-3Z"/><path class="cls-73" d="M111.5,330.5c-.2.45-.81.87-.91,1.37s.4.59.41.63c.03.16-.04.35,0,.5l-1.5.5c.06-2.35-.81-3.44,2-3Z"/><path class="cls-87" d="M119.5,390c-.11,1.43-1.47,8.2-3.74,7.49-2.42-.75.16-8.54,3.74-7.49Z"/><path class="cls-87" d="M87.5,238c-.11,1.43-1.47,8.2-3.74,7.49-2.42-.75.16-8.54,3.74-7.49Z"/><path class="cls-50" d="M63,99.99c-.93.13-1.73,0-2-.99.93-.13,1.73,0,2,.99Z"/><path class="cls-25" d="M150,303c-.99-.16-6.41.72-6-1.24.23-1.11,7.08-1.67,6,1.24Z"/><rect class="cls-91" x="144" y="304" width="6.01" height="1.5"/><path class="cls-30" d="M109.5,77.5c-.51.51-3.02-.06-2-1.49.82-1.16,2.91.58,2,1.49Z"/><path class="cls-129" d="M120,243c.05,1.51-.57,3.35,1.5,3.5-1.26,2.39-5.04-1.48-4.5-2l2.5-1c-1.13.05-1.67.21-2.5-.5-.18-1.5,2.73-1.43,3,0Z"/><path class="cls-74" d="M116.5,242c.35-.61.5-1.3.51-2l2.24,1.02.26-1.02c.14-.44.31-.43.5,0-.04.99-.03,2.01,0,3h-3c-.18-.16-.3-.75-.5-1Z"/><rect class="cls-4" x="121.5" y="241" width="4.01" height="1.5"/><rect class="cls-139" x="121.5" y="243.5" width="4.01" height="1.5"/><path class="cls-95" d="M125.5,239c.4,1.92-2.9.67-3.99.99-.4-1.92,2.9-.67,3.99-.99Z"/><path class="cls-108" d="M120.5,237.5c-.48.79-.46,1.61-.5,2.5h-.5l-2-1.5h2c-.03-.33.05-.69,0-1-.03-.18.05-.45,0-.5.38-.41,1.11-.13,1,.5Z"/><path class="cls-91" d="M119.5,237c-.38-.32-1.46.8-.49-1.5.82-.22.31.7.58.87.68.42,2.07,0,2.91.12.55,1.23-.94,1.15-2,1-.31-.04-.68-.37-1-.5Z"/><path class="cls-111" d="M41,236.5c-.03,2.32-3.01,1.34-4.5,1.49.79-1.94,2.75-1.53,4.5-1.49Z"/><path class="cls-35" d="M82,328.01c-.48,2.43-2.51,1.29-4.5,1.49-.61-1.82,4.27-1.66,4.5-1.49Z"/><path class="cls-35" d="M82,267.01c-.48,2.43-2.51,1.29-4.5,1.49-.61-1.82,4.27-1.66,4.5-1.49Z"/><path class="cls-35" d="M82,297.51c-.48,2.43-2.51,1.29-4.5,1.49-.61-1.82,4.27-1.66,4.5-1.49Z"/><path class="cls-101" d="M64.5,327l3,1c.55,1.85-2.13.63-2.5.99-.21.21-.03,5.04,0,6-.14.44-.31.43-.5,0-2.68.82-2.62-1.21-3-1.5l.74-2,2.25.74-2.5-1.99,2.23-.24c.45.06.36-.8.28-1.01-.05-.13-2.13-1.31,0-2Z"/><path class="cls-121" d="M65,335c.07,1.86-.6,2.31,1.5,3-.49.17-.96,1.03-1.66.92-.81-.13-2.65-2.01-3.34-2.67l3-1.25h.5Z"/><path class="cls-50" d="M70.5,335v1.5s-4.5,0-4.5,0c0-2.28,2.93-1.35,4.5-1.5Z"/><path class="cls-60" d="M70.5,332.5v1.5s-4.5,0-4.5,0c0-2.28,2.93-1.35,4.5-1.5Z"/><path class="cls-1" d="M70.5,330.5c.4,1.92-2.9.67-3.99.99-.4-1.92,2.9-.67,3.99-.99Z"/><path class="cls-101" d="M64.5,296.5l3,1c.55,1.85-2.13.63-2.5.99-.21.21-.03,5.04,0,6-.14.44-.31.43-.5,0-2.68.82-2.62-1.21-3-1.5l.74-2,2.25.74-2.5-1.99,2.23-.24c.45.06.36-.8.28-1.01-.05-.13-2.13-1.31,0-2Z"/><path class="cls-121" d="M65,304.5c.07,1.86-.6,2.31,1.5,3-.49.17-.96,1.03-1.66.92-.81-.13-2.65-2.01-3.34-2.67l3-1.25h.5Z"/><path class="cls-60" d="M70.5,302v1.5s-4.5,0-4.5,0c0-2.28,2.93-1.35,4.5-1.5Z"/><path class="cls-50" d="M70.5,304.5v1.5s-4.5,0-4.5,0c0-2.28,2.93-1.35,4.5-1.5Z"/><path class="cls-1" d="M70.5,300c.4,1.92-2.9.67-3.99.99-.4-1.92,2.9-.67,3.99-.99Z"/><path class="cls-101" d="M64.5,266l3,1c.55,1.85-2.13.63-2.5.99-.21.21-.03,5.04,0,6-.14.44-.31.43-.5,0-2.68.82-2.62-1.21-3-1.5l.74-2,2.25.74-2.5-1.99,2.23-.24c.45.06.36-.8.28-1.01-.05-.13-2.13-1.31,0-2Z"/><path class="cls-121" d="M65,274c.07,1.86-.6,2.31,1.5,3-.49.17-.96,1.03-1.66.92-.81-.13-2.65-2.01-3.34-2.67l3-1.25h.5Z"/><path class="cls-50" d="M70.5,274v1.5s-4.5,0-4.5,0c0-2.28,2.93-1.35,4.5-1.5Z"/><path class="cls-60" d="M70.5,271.5v1.5s-4.5,0-4.5,0c0-2.28,2.93-1.35,4.5-1.5Z"/><path class="cls-1" d="M70.5,269.5c.4,1.92-2.9.67-3.99.99-.4-1.92,2.9-.67,3.99-.99Z"/><path class="cls-101" d="M88.5,362l-.74,2.5c-1.86-1.6-1.99-2.95.74-2.5Z"/><path class="cls-73" d="M207.35,394.55c2.15-.53,3.96,3.73,1.3,4.38-2.86.7-3.66-3.79-1.3-4.38Z"/><path class="cls-35" d="M207.82,389.08c1.64-.3,2.44,1.4,1.97,2.94-1.21,3.9-5.4-2.31-1.97-2.94Z"/><path class="cls-81" d="M165.57,241.93c-.86-.54-1.32-6.02,2.43-4.18,2.54,1.25.51,6.02-2.43,4.18Z"/><path class="cls-81" d="M181.57,363.93c-.86-.54-1.32-6.02,2.43-4.18,2.54,1.25.51,6.02-2.43,4.18Z"/><path class="cls-37" d="M201,360.5c.08,1.97-2.12,1.5-3.5,1.5v-1.5s3.5,0,3.5,0Z"/><path class="cls-87" d="M201,359.5h-3.5s0-1.5,0-1.5c1.38,0,3.57-.48,3.5,1.5Z"/><path class="cls-87" d="M43.5,72.51c-.48,1.41-2.27.96-3.5.99.48-1.41,2.27-.96,3.5-.99Z"/><path class="cls-87" d="M185,237.5h-3.5s0-1.5,0-1.5c1.38,0,3.57-.48,3.5,1.5Z"/><path class="cls-37" d="M185,238.5c.08,1.97-2.12,1.5-3.5,1.5v-1.5s3.5,0,3.5,0Z"/><path class="cls-110" d="M207.75,298.18c1.85.01,3.27,3.57,1.25,4.57-3.95,1.96-3.97-4.6-1.25-4.57Z"/><path class="cls-110" d="M207.75,267.68c1.85.01,3.27,3.57,1.25,4.57-3.95,1.96-3.97-4.6-1.25-4.57Z"/><rect class="cls-95" x="295.5" y="327.5" width="3.01" height="1.5"/><rect class="cls-54" x="295.5" y="330" width="3.01" height="1.5"/><path class="cls-35" d="M91.5,328h1.5c.3,1.22-1.04,2.67-.88,3.67.17,1.05,3.61,4.19-.62,4.33v-8Z"/><path class="cls-35" d="M91.5,267h1.5c.3,1.22-1.04,2.67-.88,3.67.17,1.05,3.61,4.19-.62,4.33v-8Z"/><path class="cls-35" d="M91.5,297.5h1.5c.3,1.22-1.04,2.67-.88,3.67.17,1.05,3.61,4.19-.62,4.33v-8Z"/><path class="cls-111" d="M256.33,329.06c3.9-1.26,3.31,8.99.87,9.42-3.08-.43-2.82-8.79-.87-9.42Z"/><path class="cls-111" d="M192.33,298.56c3.9-1.26,3.31,8.99.87,9.42-3.08-.43-2.82-8.79-.87-9.42Z"/><path class="cls-111" d="M167.33,359.55c3.95-1.26,3.43,8.96.85,9.41s-3.12-8.68-.85-9.41Z"/><path class="cls-124" d="M56.5,15c.9.85-.72,4.57-2,4.5-.76-2.56-1.48-1.07-3.17-1.19-1.34-.09-3.33-.15-3.34-1.81l-.99.99v-2.49c.91-.2.31.84.5,1s1.32-1.31,2.26-1.49c1.73-.33,5.13-.14,6.74.49Z"/><path class="cls-62" d="M56,19.5c.14,2.59.57-1.04,1.5,0,.17.19-.03,4.09,0,5-2.84,1.08-6.13.14-9,.5-.68-2.04.97-2.68,4.93-1.94.46-1.17.98-2.03,1.57-2.56-.47-.67.29-1.61,1-1Z"/><path class="cls-127" d="M55,20.5c-.3.53-.71,2.68-1.08,2.92-1.53.96-4.71-2.09-5.42,1.58-.45.06-1.13,1.34-1.5.5,1.38-5.69,4.53-2.27,5.7-2.53.96-.22.99-1.87,1.3-2.47.09-.17.4-.32.5-.5.7-.66.96-.38.5.5Z"/><path class="cls-11" d="M56.5,15c.21.08.68-.1.98.01.3.38-1.15,3.78-1.48,4.49-.14.31-.81.66-1,1l-.5-.5c.07-.13-.07-.37,0-.5.76-1.46,1.84-2.76,2-4.5Z"/><rect class="cls-131" x="174.5" y="238.5" width="3.01" height="1.5"/><rect class="cls-95" x="174.5" y="236" width="3.01" height="1.5"/><rect class="cls-95" x="190.5" y="358" width="3.01" height="1.5"/><rect class="cls-131" x="190.5" y="360.5" width="3.01" height="1.5"/><path class="cls-40" d="M226,269c.08,1.97-2.12,1.5-3.5,1.5v-1.5s3.5,0,3.5,0Z"/><path class="cls-39" d="M222.5,268v-1.5c4.5-.44,4.5,1.93,0,1.5Z"/><path class="cls-40" d="M226,299.5c.08,1.97-2.12,1.5-3.5,1.5v-1.5s3.5,0,3.5,0Z"/><path class="cls-39" d="M222.5,298.5v-1.5c4.5-.44,4.5,1.93,0,1.5Z"/><path class="cls-30" d="M142.5,335.5c-.16.16-2.38-.09-3,0v-2c1.29-.69,4.13.89,3,1.99Z"/><path class="cls-30" d="M142.5,332.5c-.16.16-2.38-.09-3,0v-2c1.29-.69,4.13.89,3,1.99Z"/><path class="cls-105" d="M142.5,329.5c-.16.16-2.38-.09-3,0v-2c1.29-.69,4.13.89,3,1.99Z"/><path class="cls-40" d="M226,390.5c.08,1.97-2.12,1.5-3.5,1.5v-1.5s3.5,0,3.5,0Z"/><path class="cls-39" d="M222.5,389.5v-1.5c4.5-.44,4.5,1.93,0,1.5Z"/><path class="cls-41" d="M69,239c-.39,2.9.21,1.96,1,2.5l-.25.5c-1.82.87-1.61-2.69-.75-3Z"/><path class="cls-41" d="M101,391c-.39,2.9.21,1.96,1,2.5l-.25.5c-1.82.87-1.61-2.69-.75-3Z"/><path class="cls-23" d="M53.5,304.5h-3.5s3.01-5,3.01-5c.82-.13.46.67.49,1.24.06,1.25-.04,2.52,0,3.76Z"/><path class="cls-23" d="M53.5,274h-3.5s3.01-5,3.01-5c.82-.13.46.67.49,1.24.06,1.25-.04,2.52,0,3.76Z"/><path class="cls-23" d="M53.5,335h-3.5s3.01-5,3.01-5c.82-.13.46.67.49,1.24.06,1.25-.04,2.52,0,3.76Z"/><path class="cls-65" d="M218.5,269v1.5s-3.5-.76-3.5-.76c-.13-1.52,2.71-.45,3.5-.74Z"/><path class="cls-1" d="M218.5,266.5v1.5c-4.5.44-4.5-1.93,0-1.5Z"/><path class="cls-65" d="M218.5,390.5v1.5s-3.5-.76-3.5-.76c-.13-1.52,2.71-.45,3.5-.74Z"/><path class="cls-1" d="M218.5,388v1.5c-4.5.44-4.5-1.93,0-1.5Z"/><path class="cls-65" d="M218.5,299.5v1.5s-3.5-.76-3.5-.76c-.13-1.52,2.71-.45,3.5-.74Z"/><path class="cls-1" d="M218.5,297v1.5c-4.5.44-4.5-1.93,0-1.5Z"/><path class="cls-1" d="M47,79.5c-1.19,2.44-1.89,1.34-4.5,1.5.11-3.3-1.14-4.57,3-4,.12,2.24-2.73-.33-2,2.5h3s.5,0,.5,0Z"/><path class="cls-85" d="M91,93.5l-3.5-.24c1.37-1.86,2.9-2.58,3.5.24Z"/><path class="cls-108" d="M291.5,327.5v1.5s-3.5,0-3.5,0c-.08-1.97,2.12-1.5,3.5-1.5Z"/><path class="cls-25" d="M291.5,330c.08,1.96-2.57,1.98-3.49.74l3.49-.74Z"/><path class="cls-102" d="M167.93,76.57c1.01.64.71,4.45-1.58,3.88-2.68-.67-1.19-5.62,1.58-3.88Z"/><path class="cls-102" d="M147.85,73.05c2.57-.64,3.1,4.24-.09,3.98-2.01-.16-1.54-3.58.09-3.98Z"/><path class="cls-65" d="M112,146c.42,1.86-2.44.71-3.49.99-.42-1.86,2.44-.71,3.49-.99Z"/><rect class="cls-95" x="108.5" y="148.01" width="2.99" height=".49"/><rect class="cls-85" x="142" y="91" width="2.99" height=".99"/><rect class="cls-35" x="142" y="93.01" width="2.99" height=".49"/><rect class="cls-101" x="291.5" y="335" width="3.51" height="2.51"/><path class="cls-41" d="M127,129.5v3.5s-3,0-3,0c.37-.25,2.27-4.39,3-3.49Z"/><rect class="cls-1" x="103" y="146" width="2.49" height=".99"/><rect class="cls-95" x="103" y="148.01" width="2.5" height=".49"/><rect class="cls-50" x="136" y="91" width="2.99" height=".99"/><rect class="cls-95" x="136" y="93.01" width="2.99" height=".49"/><path class="cls-140" d="M222,274v2.51c-2.3.14-3.91.3-3.5-2.5h3.5Z"/><path class="cls-140" d="M222,395.5v2.51c-2.3.14-3.91.3-3.5-2.5h3.5Z"/><path class="cls-140" d="M222,304.5v2.51c-2.3.14-3.91.3-3.5-2.5h3.5Z"/><path class="cls-27" d="M181.5,243.5v2.5c-2.36.05-4.46.58-4-2.5h4Z"/><path class="cls-27" d="M197.5,365.5v2.5c-2.36.05-4.46.58-4-2.5h4Z"/><path class="cls-91" d="M142,96.5v2c-4.38.83-4.38-2.82,0-2Z"/><path class="cls-50" d="M109,151.5c.56,3-1.14,1.83-3.5,2-.56-3,1.14-1.83,3.5-2Z"/><path class="cls-90" d="M149,18.5c.29.28.29,7.73,0,8-.06.06-1.37.05-1.75,0-.4-.06-.54-7.73-.25-8,.07-.07,1.93-.07,2,0Z"/><path class="cls-96" d="M154.5,21c.12-1.81-.09-3.68,0-5.5h2.51c-.03,2.16.04,4.34,0,6.5l-.51-2h-.49c.15,1.14-.53,1.15-1.51,1Z"/><path class="cls-67" d="M212.5,190.5v12c-19.16-.02-38.34.01-57.5,0v-12c19.16-.01,38.34.02,57.5,0Z"/><path class="cls-76" d="M54.5,180.5c.9,1.19-1.81,1.45-2.51,1.25,1.24-.03,2.24-.45,3.01-1.25,1.19,0,4.56-.74,5,.26.65,1.49-2.61.06-2.49,1.24h3c.53,2.35-1.14,1.18-1.5,1.51-.25.23.86,4.99.54,6.72-.12.66-1.54-.07-1.54.52l2.51.25c.6,3.04-3.15.82-5,.48l.5-.98h-2.75s.22.96.22.96c-1.62.47-3.51,2.02-4.97.28l2.49-.75c.21-.82-.87-.23-1.01-.82-.29-1.21.33-3.15.02-4.33-.15-.56-1.33-.55-1.47-1.13-.05-.21.83-4.05.98-4.19.14-.13,3.27-.44,3.76-.45.59,0,1.07.42,1.21.42Z"/><path class="cls-63" d="M72.5,209h-2s0,3,0,3h-1.5v-12c1.12.14,2.67-.28,3.69.08.67.23.63,1.3,1.16,1.43,3.3.82,1.78-1.64,2.15-2.01.05-.05,1.44-.05,1.5,0,.54.55-1.57,2.81,3.5,2.01v1.5s-4.51,0-4.51,0v1.5c.69.13,3.33-.17,3.51,0,.25.25,0,6.17-.62,6.88-.79.9-3.68,1.14-3.88-.63,3.52.13,3-1.77,3-4.75-3.44-.52-2.06.67-3.22,3.03-.3.6-2.18,2.96-2.53,2.96-.09,0-1.25-1.15-1.24-1.24.02-.33,1.07-.55,1.34-.91.24-.31.08-.75.15-.84.19-.25.03-.25-.5,0Z"/><path class="cls-76" d="M38.5,192.5c-.66-.04-1.34.04-2,0v-6.5s-1.49.5-1.49.5c-.43-2.86,2.25-3.7,1.5-6.5,2.96-.54,1.21,2.24,1.5,2.5.15.14,1.81-.42,1.51,1,1.09.1.16-2.07.52-2.48.17-.19,1.2.12,1.48-.01.4.27.73-.06,1-1,.37-.12,1.04.08,1.5,0,.71.72-1.86,4.01,3,3v1.5c-2.34.09-3.45-.84-3.01,2,4.42-.64,4.19,2.19,0,1.5v2.51s3.51,0,3.51,0c-.08.46.12,1.15,0,1.5-2.75.54-6.11.45-8.81.06l-.19.44Z"/><path class="cls-33" d="M65.25,200c.27.08.9.81.75,1.24-.16.74-3.83,2.53-3,3.25.95.03,4.87-.48,4.49,1.24-.04.19-2.56,2.71-2.75,2.76-1.86.41-.67-1.7.26-2.49h-3c-.3,2.8,1.41,6.59-2.76,6.04-.96-.13-.79-.69-1.24-1.54,3.84.72,2.22-1.59,2.5-4.51h-5.01s0-1.5,0-1.5l5-.25c-1.13-1-2.53-1.01-1.49-2.75h-2.51s0-1.5,0-1.5c2.33.42,6.75-.57,8.75,0Z"/><path class="cls-8" d="M66.99,180.5c.15.12.23,3.15,1,3.78.62.5,4.17-2.5,4.51.72-8.26,1.1-10.91,6.73,0,4.51v1.99c-3.38.33-10.54,1.37-8.89-4.14.4-1.34,2.33-1.71,2.43-2.2.17-.86-1.08-4.13-.53-4.66.05-.05,1.43-.04,1.49,0Z"/><path class="cls-8" d="M82,180.5c-.18,3,.29,6.52,2.55,8.71.64.61,2.48,1.33,2.73,1.79.11.2-.23,1.45-.28,1.5-1.05.97-5.49-3.63-5.75-5-.2,1.39-3.72,5.16-4.92,4.94-.29-.05-1.31-1.1-1.31-1.19,0-.43,2.2-1.27,2.75-1.74,2.41-2.06,2.91-6.01,2.74-9.01h1.5Z"/><path class="cls-83" d="M140.5,184.5c-.73.84-1.42-1.44-1.82-1.53-1.91-.4-2.75,1.37-2.67,3.03,7.4-3.8,5.74,8.77-.17,5.04-2.18-1.37-2.31-10.57,3.31-8.94.86.25,1.86,1.82,1.35,2.4Z"/><path class="cls-2" d="M128.87,182.63c1.76,1.65,1.51,7.52-.88,8.61-1.89.86-4.27.12-3.99-2.24,1.38-.45.94.93,1.47,1.26,1.86,1.16,3.2-1.01,3.03-2.76-8.79,2.93-4.35-9.29.38-4.87Z"/><path class="cls-6" d="M117,200.75c.38-1.23,3.86-.63,5-.75-.1,4,1.23,5.05-3.5,4.5v7.5h-1.5c.55-2.84-.74-8.86,0-11.25Z"/><path class="cls-2" d="M148,182c.41,1.97-2.4.43-3.53,1.22-.53.37-.59,1.45-.47,2.03.06.29,4.32-1.22,4.55,2.5.28,4.44-5.26,5.41-6.55,1.26,1.07-.86,3.39,3.25,4.75.49,1.68-3.41-1.98-3.6-4.25-2.5.11-.73.33-4.81.5-4.99.2-.21,4.15.14,4.99,0Z"/><path class="cls-2" d="M94,185.5c1.05-1.57,1.69-.59,1.5,1,.34.56.27,1.04,1,2,.46-.13.62.04.5.5,1.3,1.19,2.02,1.33,3.5,2.26.59,2.57-5.69-.19-5.51-2.26-1.47,1.85-5.45,5.66-6.49,2.01,3.62-.45,4.93-2.03,5.5-5.51Z"/><path class="cls-134" d="M128,200v11.5h-3c-.3-1.84.98-.51,1.99-.5-.16-1,.24-6.27,0-6.5-.18-.18-3.26.13-4,0-.53-4.9.51-4.77,5-4.5Z"/><path class="cls-60" d="M38.5,192.5c-1.05-2.62-.28-5.73-.5-8.5,1.26.27,1.72,3.63,2.07,3.92.93.78,3.14-1.47,2.43,2.58h-3.51s0,1.5,0,1.5h8.5c-.26.74-.66.46-1.22.52-2.1.22-5.6.11-7.78-.02Z"/><path class="cls-48" d="M125,205.5c.39,6.03-.21,3.22-3.68,3.99-.3.07-.5,1.97-1.32,1.01-.23-.27.16-4.12,0-5h5.01Z"/><path class="cls-86" d="M130,211.99c-.14-.11,1.62-2.25,1.87-2.88.9-2.24.89-4,.03-6.26-.2-.51-3.04-4.14-1.15-3.35,2.26.95,3.02,5.55,2.77,7.76-.13,1.13-1.94,5.96-3.51,4.73Z"/><path class="cls-86" d="M122.5,180c-2.91,3.79-3.87,8.66,0,12.25.07.38-.47.31-.75.26-3.58-.72-4.11-11.75.76-12.5Z"/><path class="cls-10" d="M134,181.5c-.43,2.68-1.01,6.26-2.01,8.74-.31.77-.39,1.46-1.49,1.26.92-2.89,1.36-6.05,2.37-8.9.28-.81-.26-1.34,1.13-1.1Z"/><path class="cls-133" d="M94,185.5c.36-2.19-1.49-2.13-1.48-2.75,0-.16,1.85-2.43,1.98-2.53.15-.12,1.45.23,1.5.29.41.45-.86,1.46-.92,1.84-.07.43,1.55,2.6.42,4.16-.37-.62-.69-1.19-1.5-1Z"/><path class="cls-5" d="M98.01,180c.38-.27,1.43.4,1.49.76.12.65-1.07,1.26-.97,1.92.05.3,2.73,2.39.71,2.81-.75.16-2.61-2.35-2.68-2.84-.02-.15,1.32-2.57,1.45-2.65Z"/><path class="cls-46" d="M92.5,180.5c.39,1.02-1.49,1.89-1.49,2.25,0,.41,3.35,2.18,0,2.75.19-1.1-1.93-2.32-1.93-2.74,0-.55,2.23-3.55,3.41-2.25Z"/><path class="cls-50" d="M73,209h-.5c2.4-1.29-1.66-6,1.25-6.01,1.78,0,.89,3.48.52,4.54-.34.98-1.01,1.07-1.27,1.47Z"/><path class="cls-86" d="M78.5,182.5c.4.39-.7,4.25-1.02,4.49-.1.08-1.91-.42-1.97-.5-.12-.15,1.39-3.48,1.49-3.65.31-.53,1.37-.47,1.5-.34Z"/><path class="cls-46" d="M86.5,182.5c.81.8-1.81,5.16-2.99,4-.39-.39,1.75-5.23,2.99-4Z"/><path class="cls-31" d="M92.5,186c0,1.47-1.28,2.55-2.25,3.49-1.45.04.03-4.85,2.25-3.49Z"/><path class="cls-43" d="M96.5,188.5c1.92-5.01,5.51-1.42.5.5-.16-.15-.37-.33-.5-.5Z"/><path class="cls-64" d="M42.5,180v3c-1.5.33-.94-.74-1-2,.32-.16.74-.92,1-1Z"/><path class="cls-108" d="M55,180.5c.5,3.1-.91,1.47-3.01,1.25l2.51-1.25c.17,0,.33,0,.5,0Z"/><path class="cls-18" d="M57.5,188.5c1.6,1.22-3.26,1.06-3.77,1.02-.85-.07-1.65.06-2.22-.78l5.99-.24Z"/><path class="cls-53" d="M58,185.51c.12.87-1.13.47-1.74.49-1.58.06-3.18-.04-4.75,0-.12-.87,1.13-.47,1.74-.49,1.58-.06,3.18.04,4.75,0Z"/><path class="cls-115" d="M57.5,187.01c.12.87-1.13.47-1.74.49-1.41.06-2.84-.04-4.25,0-.12-.87,1.13-.47,1.74-.49,1.41-.06,2.84.04,4.25,0Z"/><path class="cls-130" d="M54.49,183.5c.89,1.43-2.38,1.43-1.49,0h1.49Z"/><path class="cls-108" d="M57.5,183.5c-.17.72-.81,1.15-1.5.99v-.99s1.5,0,1.5,0Z"/><path class="cls-131" d="M71,203.5c-.04,1.56,2.37,4.46-.25,4-.44-.08-.29-3.31-.25-4,.14-.44.31-.43.5,0Z"/><path class="cls-39" d="M70.5,203.5c.03-.66-.03-1.34,0-2,2.02-.31.51,1.34.5,2h-.5Z"/><path class="cls-102" d="M42.5,184.5c.12.12-.07,1.51,0,2h-2c-.28-1.13,1.16-2.83,2-2Z"/><path class="cls-55" d="M63,201.5c-.49,1.39-2.6,1.38-3.5.24l3.5-.24Z"/><path class="cls-102" d="M137.35,186.58c3.17-.92,2.6,3.95.39,3.95-1.57,0-2.59-3.31-.39-3.95Z"/><path class="cls-102" d="M126.35,183.05c2.57-.64,3.1,4.24-.09,3.98-2.01-.16-1.54-3.58.09-3.98Z"/><rect class="cls-7" x="118.5" y="201" width="2.49" height=".99"/><rect class="cls-95" x="118.5" y="203.01" width="2.5" height=".49"/><rect class="cls-36" x="124" y="201" width="2.99" height=".99"/><rect class="cls-73" x="124" y="203.01" width="2.99" height=".49"/><path class="cls-35" d="M124,206.5v2c-4.38.83-4.38-2.82,0-2Z"/></svg>