<?xml version="1.0" encoding="UTF-8"?><svg id="_レイヤー_1" xmlns="http://www.w3.org/2000/svg" viewBox="0 0 1024 1024"><path d="M0,1023.5V0h1024v1024H0v-.5ZM562.66,472.99c30.98-6.88,56.84-22.36,76.69-44.37,28.38-31.3,39.17-73.81,27.22-114.44-5.34-18.15-14.42-34.01-25.92-48.81-18.04-23.21-27.64-44.04-25.05-74.55-30.01,24.22-40.48,60.11-27.09,96.78,3.58,9.81,6.8,20.95-2.27,27.31-9.96,6.99-22.37-4.66-27.87-14.51-11.27-20.2-10.14-45.98-5.33-68.14,2.77-12.78,4.61-25.04,4.25-38.18-.2-33.25-15.39-63.4-41.22-84.08-13.55-10.85-28.44-19.18-46.35-22.23,22.84,33.81,8.38,84.6-14.6,114.23-18.7,25.56-42.27,42.92-60.16,69.02-23.53,33.98-31.26,77.16-17.18,116.67,14.21,39.89,47.75,71.11,88.57,83.14-26.56-32.78-33.12-75.54-17.94-113.38,1.75,14.09,4.9,26.39,13.65,36.44,5.47,6.31,12.44,11.14,20.86,11.37,4.86-.1,9.16-2.24,11.36-5.59,2.34-3.56,2.37-9,.04-13.19-20.27-36.34-12-80.14,19.74-107.76-.61,21.21,4.98,40.22,15.85,57.5,16.5,26.21,37.09,34.34,47.19,58.79,11.11,26.91,4.85,55.84-14.44,77.99ZM284.44,832.55l230.35,97.56,229-100.26.06-336.04-75.06-30.65-150.61,66.13-158.93-65.29-74.86,32.78.06,335.78Z" fill="#fefefe"/><path d="M284.44,832.55l-.06-335.78,74.86-32.78,158.93,65.29,150.61-66.13,75.06,30.65-.06,336.04-229,100.26-230.35-97.56ZM405.39,655.75l.14-46.71,127.72.14-61.09,112.78-26.25,49.25,52.52-.05,102.64-194.08-167.01-.1-97.41-39.85-.11,264.26,181.46,74.79,40.53-17.75-.06-51.02-171.29-.36,78.32-150.97-60.11-.32ZM662.68,764l21.15-.14-.02-35.86-21.3-.34-.36-108.79-112.76,108.72-.25,36.38,77.74.11.22,40.84,35.26-.21.31-40.7Z" fill="#226cd0"/><path d="M562.66,472.99c19.29-22.15,25.55-51.08,14.44-77.99-10.1-24.45-30.69-32.58-47.19-58.79-10.87-17.28-16.47-36.29-15.85-57.5-31.74,27.62-40.02,71.42-19.74,107.76,2.34,4.19,2.3,9.62-.04,13.19-2.2,3.35-6.5,5.49-11.36,5.59-8.42-.23-15.39-5.06-20.86-11.37-8.75-10.05-11.9-22.35-13.65-36.44-15.18,37.84-8.62,80.6,17.94,113.38-40.82-12.03-74.37-43.25-88.57-83.14-14.07-39.51-6.34-82.69,17.18-116.67,17.89-26.11,41.46-43.47,60.16-69.02,22.98-29.63,37.44-80.42,14.6-114.23,17.91,3.05,32.8,11.39,46.35,22.23,25.83,20.68,41.02,50.83,41.22,84.08.36,13.14-1.47,25.4-4.25,38.18-4.81,22.16-5.94,47.95,5.33,68.14,5.5,9.85,17.91,21.5,27.87,14.51,9.07-6.36,5.85-17.5,2.27-27.31-13.39-36.67-2.92-72.56,27.09-96.78-2.59,30.51,7.01,51.33,25.05,74.55,11.5,14.8,20.58,30.66,25.92,48.81,11.95,40.63,1.16,83.14-27.22,114.44-19.85,22.01-45.71,37.5-76.69,44.37Z" fill="#226cd0"/><polygon points="405.39 655.75 465.5 656.07 387.18 807.04 558.47 807.39 558.53 858.42 518 876.16 336.53 801.37 336.64 537.11 434.05 576.96 601.06 577.07 498.43 771.14 445.91 771.2 472.16 721.95 533.25 609.17 405.53 609.04 405.39 655.75" fill="#fdfdfe"/><path d="M662.68,764l-.31,40.7-35.26.21-.22-40.84-77.74-.11.25-36.38,112.76-108.72.36,108.79,21.3.34.02,35.86-21.15.14ZM627.06,727.79l-.36-46.29-39.64,46.27,40,.02Z" fill="#fdfdfe"/><polygon points="627.06 727.79 587.06 727.77 626.7 681.51 627.06 727.79" fill="#226cd0"/></svg>