<?xml version="1.0" encoding="UTF-8"?><svg id="_レイヤー_1" xmlns="http://www.w3.org/2000/svg" viewBox="0 0 925 566.25"><defs><style>.cls-1,.cls-2{fill:none;}.cls-3{fill:#fff;}.cls-2{stroke:#000;stroke-miterlimit:10;}.cls-4{fill:#f2f2f2;}</style></defs><rect class="cls-4" x=".5" y="1.12" width="924" height="61.76"/><path d="M924,1.62v60.76H1V1.62h923M925,.62H0v62.76h925V.62h0Z"/><rect class="cls-3" x=".5" y="63.87" width="924" height="61.76"/><path d="M924,64.37v60.76H1v-60.76h923M925,63.37H0v62.76h925v-62.76h0Z"/><rect class="cls-3" x=".5" y="126.63" width="924" height="61.76"/><path d="M924,127.13v60.76H1v-60.76h923M925,126.13H0v62.76h925v-62.76h0Z"/><rect class="cls-3" x=".5" y="189.39" width="924" height="61.76"/><path d="M924,189.89v60.76H1v-60.76h923M925,188.89H0v62.76h925v-62.76h0Z"/><rect class="cls-3" x=".5" y="251.94" width="924" height="61.76"/><path d="M924,252.44v60.76H1v-60.76h923M925,251.44H0v62.76h925v-62.76h0Z"/><rect class="cls-3" x=".5" y="314.49" width="924" height="61.76"/><path d="M924,314.99v60.76H1v-60.76h923M925,313.99H0v62.76h925v-62.76h0Z"/><rect class="cls-3" x=".5" y="377.66" width="924" height="61.76"/><path d="M924,378.16v60.76H1v-60.76h923M925,377.16H0v62.76h925v-62.76h0Z"/><rect class="cls-3" x=".5" y="440.83" width="924" height="61.76"/><path d="M924,441.33v60.76H1v-60.76h923M925,440.33H0v62.76h925v-62.76h0Z"/><rect class="cls-3" x=".5" y="503.99" width="924" height="61.76"/><path d="M924,504.49v60.76H1v-60.76h923M925,503.49H0v62.76h925v-62.76h0Z"/><line class="cls-2" x1="305.56" y1=".62" x2="302.78" y2="566.25"/><line class="cls-2" x1="612.77" y1="0" x2="609.99" y2="565.64"/><path d="M103.93,29.74h-14.11c-.97,1.91-2.18,3.61-3.51,4.81-.27-.25-.82-.65-1.18-.86,1.95-1.64,3.61-4.49,4.56-7.52l1.78.48c-.04.15-.21.23-.46.23-.19.55-.4,1.09-.61,1.62h13.52v1.24ZM88.73,37.13c1.34.73,2.79,1.64,4.18,2.58,1.01-1.07,1.89-2.25,2.58-3.49l1.64.63c-.06.17-.29.21-.5.19-.71,1.24-1.6,2.39-2.6,3.46,1.6,1.15,3,2.33,3.93,3.34l-1.13,1.07c-.88-1.01-2.25-2.23-3.8-3.4-1.87,1.76-4.07,3.23-6.36,4.33-.21-.29-.67-.8-.99-1.05,2.25-.99,4.41-2.37,6.24-4.09-1.36-.97-2.81-1.89-4.18-2.65l1.01-.92ZM87.11,34.57h13.84c.02,5.61.34,9.76,2.02,9.76.44,0,.55-1.22.59-3.07.29.31.71.65,1.01.82-.15,2.69-.44,3.63-1.68,3.63-2.77,0-3.23-3.97-3.36-9.91h-12.41v-1.24ZM101.87,32.74h-12.32v-1.22h12.32v1.22Z"/><path d="M112.58,26.92c-.08.15-.23.21-.48.19-.55,1.47-1.2,2.94-1.93,4.35l.57.15c-.04.13-.15.23-.42.25v13.92h-1.36v-12.16c-.8,1.32-1.68,2.5-2.56,3.51-.15-.34-.5-.99-.73-1.32,2.02-2.18,4.03-5.82,5.25-9.45l1.68.57ZM125.5,32.36h-5.5c1.28,3.49,3.53,6.97,5.88,8.71-.34.25-.82.76-1.07,1.11-2.29-1.93-4.45-5.52-5.79-9.22v7.35h3.4v1.3h-3.4v4.16h-1.36v-4.16h-3.46v-1.3h3.46v-7.26c-1.39,3.72-3.59,7.24-5.9,9.2-.23-.34-.69-.82-1.01-1.07,2.33-1.78,4.62-5.31,5.96-8.82h-5.19v-1.34h6.13v-4.6l1.78.13c-.02.15-.13.25-.42.27v4.2h6.49v1.34Z"/><path d="M146.62,26.29c-2.29,1.91-4.16,5.42-4.16,9.66s1.93,7.81,4.16,9.66v.1h-1.26c-2.12-1.91-4.01-5.44-4.01-9.76s1.89-7.85,4.01-9.76h1.26v.1Z"/><path d="M154.6,33.94l.9.4c-.04.1-.13.17-.19.21-1.13,3.07-3.74,5.4-6.42,6.55-.19-.31-.52-.84-.82-1.11,2.18-.8,4.39-2.58,5.52-4.81h-5.02v-1.18h5.77l.25-.06ZM152.36,42.33c-.52,1.36-1.41,2.67-3,3.4l-1.05-.82c1.45-.61,2.39-1.81,2.88-3.04l1.18.46ZM153.53,30.56v-1.41h-5.08v-1.24h5.08v-1.7l1.83.1c-.02.15-.15.25-.42.29v1.3h5.75v-1.7l1.81.1c-.02.17-.13.25-.4.29v1.3h5.21v1.24h-5.21v1.41h-1.41v-1.41h-5.75v1.41h-1.41ZM163.47,31.71c-.06.1-.21.17-.34.17-.61.52-1.43,1.11-2.31,1.66.29.63.63,1.22,1.05,1.78,1.34-.86,2.98-2.06,3.97-2.96l1.32.94c-.08.1-.25.15-.44.13-1.07.82-2.79,1.95-4.16,2.75,1.34,1.53,3.13,2.73,5.1,3.38-.34.27-.73.8-.94,1.18-2.98-1.15-5.5-3.59-6.93-6.59-.42.23-.84.44-1.26.63v3.3c0,1.32-.57,1.41-3.38,1.41-.06-.36-.25-.82-.44-1.13.52,0,.99.02,1.34.02,1.09,0,1.09-.02,1.09-.31v-4.3l.99.06c.88-.44,1.81-1.01,2.56-1.57h-9.13v-1.15h10.58l.23-.08,1.09.71ZM163.76,41.37h-11.74v-1.24h11.74v1.24ZM155.19,45.59c-.04-.84-.34-2.16-.69-3.19l1.3-.19c.38,1.01.71,2.33.76,3.15l-1.36.23ZM160.13,45.55c-.23-.84-.88-2.18-1.53-3.19l1.15-.38c.69.97,1.39,2.27,1.62,3.13l-1.24.44ZM166.32,45.71c-.67-.94-2.16-2.35-3.44-3.3l1.03-.69c1.28.92,2.79,2.27,3.53,3.23l-1.11.76Z"/><path d="M187.93,29.74h-14.11c-.97,1.91-2.18,3.61-3.51,4.81-.27-.25-.82-.65-1.18-.86,1.95-1.64,3.61-4.49,4.56-7.52l1.78.48c-.04.15-.21.23-.46.23-.19.55-.4,1.09-.61,1.62h13.52v1.24ZM172.73,37.13c1.34.73,2.79,1.64,4.18,2.58,1.01-1.07,1.89-2.25,2.58-3.49l1.64.63c-.06.17-.29.21-.5.19-.71,1.24-1.6,2.39-2.6,3.46,1.6,1.15,3,2.33,3.93,3.34l-1.13,1.07c-.88-1.01-2.25-2.23-3.8-3.4-1.87,1.76-4.07,3.23-6.36,4.33-.21-.29-.67-.8-.99-1.05,2.25-.99,4.41-2.37,6.24-4.09-1.36-.97-2.81-1.89-4.18-2.65l1.01-.92ZM171.11,34.57h13.84c.02,5.61.34,9.76,2.02,9.76.44,0,.55-1.22.59-3.07.29.31.71.65,1.01.82-.15,2.69-.44,3.63-1.68,3.63-2.77,0-3.23-3.97-3.36-9.91h-12.41v-1.24ZM185.87,32.74h-12.32v-1.22h12.32v1.22Z"/><path d="M190.1,45.61c2.29-1.91,4.16-5.42,4.16-9.66s-1.93-7.81-4.16-9.66v-.1h1.26c2.14,1.91,4.01,5.44,4.01,9.76s-1.87,7.85-4.01,9.76h-1.26v-.1Z"/><path d="M441.95,27.93l-5.5,16h-1.85l-5.06-15.98h1.89l2.46,8.02c.67,2.16,1.26,4.18,1.68,6.05h.06c.42-1.87,1.07-3.95,1.78-6.05l2.67-8.04h1.87Z"/><path d="M453.14,38.11c0,4.26-2.81,6.07-5.35,6.07-2.94,0-5.21-2.2-5.21-5.9,0-3.91,2.44-6.07,5.35-6.07,3.13,0,5.21,2.39,5.21,5.9ZM447.87,33.58c-2.48,0-3.51,2.44-3.51,4.64,0,2.54,1.41,4.6,3.46,4.6s3.53-2.06,3.53-4.64c0-2.04-.99-4.6-3.49-4.6Z"/><path d="M457.53,43.93h-1.74v-16.8h1.74v16.8Z"/><path d="M471.79,32.84c0,3.28-1.62,4.85-3.49,4.85s-3.4-1.53-3.4-4.64,1.64-4.79,3.51-4.79c2.12,0,3.38,1.72,3.38,4.58ZM466.33,33.05c0,1.91.69,3.55,2.02,3.55,1.43,0,2.02-1.66,2.02-3.65,0-1.89-.52-3.59-2.02-3.59s-2.02,1.89-2.02,3.7ZM469.22,44.22h-1.2l8.99-16h1.2l-8.99,16ZM481.38,39.27c0,3.25-1.62,4.83-3.48,4.83s-3.4-1.53-3.4-4.64,1.64-4.81,3.51-4.81c2.12,0,3.38,1.74,3.38,4.62ZM475.92,39.37c0,1.99.69,3.61,2.02,3.61,1.45,0,2.02-1.64,2.02-3.65,0-1.87-.5-3.59-1.99-3.59-1.41,0-2.04,1.83-2.04,3.63Z"/><path d="M745.9,36.46l.31-.04.84.17c0,.13-.04.29-.06.44-.4,5.23-.78,7.29-1.53,8.02-.53.57-1.15.67-2.58.67-.76,0-1.76-.04-2.77-.1-.04-.44-.23-1.03-.53-1.45,1.57.15,3.13.17,3.65.17s.78-.04,1.01-.23c.55-.48.9-2.2,1.24-6.32h-5.67c-.08.4-.15.76-.23,1.09l-1.41-.23c.44-1.7.92-4.45,1.22-6.53h6.15v-3.67h-7.41v-1.32h8.82v6.93h-1.41v-.61h-4.93c-.17,1.01-.36,2.06-.53,3.02h5.82ZM753.04,26.4l1.83.13c-.02.15-.13.25-.42.27v18.92h-1.41v-19.32Z"/><path d="M767.19,26.46l2,.15c-.02.19-.21.34-.5.4v6.45c0,2.29,1.45,8.34,8.99,10.98-.32.31-.74.92-.94,1.32-6.38-2.41-8.36-7.43-8.76-9.49h-.02c-.38,2.08-2.25,6.93-8.48,9.49-.19-.31-.65-.88-.96-1.2,7.33-2.77,8.69-8.78,8.69-11.11v-6.99ZM758.96,36.56c1.74-1.3,2.5-3.65,2.83-6.03l1.39.31c-.38,2.5-1.11,5.1-3,6.55l-1.22-.84ZM776.98,31.29c-.06.13-.25.19-.46.19-.84,1.68-2.22,4.12-3.32,5.63,0-.02-1.16-.61-1.16-.61,1.07-1.55,2.44-4.14,3.19-6l1.74.8Z"/><path d="M783.66,41.16c-.65,1.72-1.76,3.55-3.09,4.6l-1.28-.67c1.28-.92,2.42-2.62,3.04-4.3l1.32.38ZM796.15,32.55v6.93h-14.17v-6.93h6.19v-6.36l1.85.1c-.02.15-.15.25-.44.29v1.99h8.17v1.34h-8.17v2.62h6.57ZM794.72,38.16v-4.28h-11.38v4.28h11.38ZM786.3,45.48c0-1.05-.19-2.81-.46-4.18l1.34-.1c.32,1.36.53,3.09.55,4.09l-1.43.19ZM791.63,45.46c-.23-1.05-.86-2.81-1.51-4.12l1.3-.29c.65,1.3,1.34,3,1.57,4.07l-1.37.34ZM797.64,45.69c-.61-1.26-2.04-3.15-3.32-4.54l1.26-.57c1.28,1.34,2.75,3.19,3.38,4.45l-1.32.65Z"/><rect class="cls-1" x="30.56" y="13.37" width="23.61" height="0"/><path d="M103.61,94.77c-.02.08-.08.19-.17.25-.29,6.07-.88,9.83-1.7,11.32-.84,1.51-2.14,1.53-2.75,1.53-.8,0-2.29-.19-3.74-.5.02-.42-.02-1.05-.06-1.47,1.57.34,3.19.5,3.67.5.76,0,1.18-.19,1.6-.99.65-1.26,1.15-4.77,1.36-9.49h-6.7c-1.07,5.02-3.15,9.13-6.93,12.01-.27-.27-.82-.69-1.2-.94,3.61-2.71,5.52-6.28,6.55-11.09h-5.79v-1.41h6.07c.25-1.47.4-2.83.5-4.6l2.08.19c-.02.21-.23.34-.52.38-.13,1.53-.25,2.71-.48,4.05h6.82l.31-.13,1.07.38ZM100.07,89.71c.94.84,2.08,2.27,2.65,3.23l-.84.59c-.52-.88-1.72-2.41-2.6-3.25l.8-.57ZM103.34,88.79c.92.88,2.1,2.27,2.67,3.21l-.86.59c-.52-.88-1.72-2.37-2.58-3.21l.78-.59Z"/><path d="M110.13,91.92c1.47,1.72,2.96,4.26,3.61,5.96l-1.45.73c-.59-1.66-2.08-4.28-3.49-6l1.32-.69ZM124.82,92.17c-.06.19-.21.27-.55.27-2.12,7.83-6.15,12.43-12.05,15.12-.23-.31-.71-.84-1.07-1.11,5.77-2.54,9.66-6.91,11.65-14.93l2.02.65Z"/><path d="M132.05,101.39v-10.2l1.99.13c-.02.19-.17.34-.5.38v9.7h-1.49ZM143.75,90.36c-.02.21-.17.31-.5.36v6.68c0,4.41-1.51,8.44-7.54,10.77-.21-.31-.73-.86-1.09-1.13,5.82-2.16,7.12-5.75,7.12-9.64v-7.16l2.02.13Z"/><path d="M151.48,91.48c2.18.69,4.7,1.78,6.26,2.86l-.8,1.32c-1.51-1.07-3.99-2.18-6.13-2.92l.67-1.26ZM151.39,106.03c7.45-2.31,12.41-6.49,14.93-12.3.44.36.92.63,1.36.86-2.62,5.75-7.75,10.23-14.87,12.6-.02.19-.15.4-.29.48l-1.13-1.64Z"/><path d="M414.04,106.91v-14.09h-.04l-2.58,1.49-.42-1.3,3.25-1.83h1.49v15.73h-1.7Z"/><path d="M421.39,105.84c0-.8.52-1.36,1.26-1.36s1.24.57,1.24,1.36c0,.76-.48,1.32-1.26,1.32s-1.24-.63-1.24-1.32Z"/><path d="M433.67,106.91h-1.66v-4.41h-6.87v-1.11l6.72-10.2h1.81v9.97h2.14v1.34h-2.14v4.41ZM426.91,101.16h5.1v-5.58c0-.86.04-1.7.08-2.52h-.08c-.48.97-.86,1.64-1.26,2.35l-3.84,5.71v.04Z"/><path d="M449.17,98.49c.13,2.46-1.15,3.38-2.6,3.38-.88,0-1.72-.27-3.38-1.03-1.13-.55-2.08-1.05-2.96-1.05s-1.41.67-1.43,2.02h-1.24c-.08-2.18,1.11-3.38,2.71-3.38.92,0,1.72.31,3.32,1.05,1.22.57,2.16,1.01,3.04,1.01s1.32-.76,1.32-1.99h1.22Z"/><path d="M451.77,91.18h9.22v1.11l-6.57,14.61h-1.78l6.57-14.24v-.04h-7.43v-1.45Z"/><path d="M463.26,105.84c0-.8.52-1.36,1.26-1.36s1.24.57,1.24,1.36c0,.76-.48,1.32-1.26,1.32s-1.24-.63-1.24-1.32Z"/><path d="M469.24,98.57c.71-1.05,1.99-1.93,3.67-1.93,2.67,0,4.45,1.99,4.45,5.02s-1.76,5.5-4.83,5.5-5.12-2.54-5.12-6.61,1.97-8.63,7.08-9.47c.59-.08,1.11-.15,1.47-.15l.02,1.45c-4.37,0-6.45,3.17-6.8,6.19h.06ZM475.61,101.79c0-2.41-1.3-3.82-3.19-3.82s-3.25,1.81-3.25,2.98c.02,2.88,1.24,4.85,3.42,4.85,1.83,0,3.02-1.64,3.02-4.01Z"/><path d="M718.62,99.83h5.73v1.34h-5.73v-1.34Z"/><path d="M734.01,106.91h-1.66v-4.41h-6.87v-1.11l6.72-10.2h1.81v9.97h2.14v1.34h-2.14v4.41ZM727.25,101.16h5.1v-5.58c0-.86.04-1.7.08-2.52h-.08c-.48.97-.86,1.64-1.26,2.35l-3.84,5.71v.04Z"/><path d="M737.48,99.1c0-5.5,2.14-8.17,5.08-8.17s4.81,2.81,4.81,7.96c0,5.46-1.91,8.27-5.04,8.27-2.86,0-4.85-2.81-4.85-8.06ZM745.6,98.97c0-3.93-.94-6.63-3.15-6.63-1.87,0-3.19,2.5-3.19,6.63s1.15,6.76,3.13,6.76c2.33,0,3.21-3.02,3.21-6.76Z"/><path d="M755.18,92.8c0,1.51-1.24,2.75-2.73,2.75s-2.75-1.24-2.75-2.75,1.24-2.73,2.75-2.73,2.73,1.28,2.73,2.73ZM750.6,92.8c0,1.03.82,1.85,1.85,1.85s1.83-.82,1.83-1.85-.82-1.83-1.83-1.83c-1.07,0-1.85.86-1.85,1.83ZM767.02,106.41c-.74.38-2.18.76-4.03.76-4.81,0-7.52-3.25-7.52-8.13s3.21-8.38,7.98-8.38c1.89,0,3.07.42,3.57.69l-.48,1.43c-.76-.36-1.8-.67-3.11-.67-3.82,0-6.26,2.79-6.26,6.89s2.31,6.7,6.13,6.7c1.26,0,2.48-.27,3.32-.67l.4,1.39Z"/><path d="M774.21,103.42c1.55-.46,3.23-.97,4.87-1.47l.21,1.32c-3.09,1.01-6.38,2.08-8.46,2.71,0,.17-.12.29-.27.34l-.67-1.66c.8-.21,1.76-.48,2.83-.8l-.27-13.56c1.07.08,1.49.1,1.91.13-.02.15-.15.25-.42.29l.27,12.7ZM787.94,90.55c-.04.19-.19.27-.48.29-.57,4.68-1.45,8.4-3.09,11.32,1.87,1.81,4.14,4.09,5.31,5.54l-1.24,1.05c-1.05-1.39-3.09-3.55-4.87-5.33-1.68,2.35-4.01,4.09-7.29,5.35-.21-.31-.69-.86-1.03-1.15,7.39-2.58,9.74-7.96,10.75-17.36l1.93.29ZM778.26,91.62c1.43,1.53,2.81,3.63,3.4,5.1l-1.36.71c-.52-1.47-1.91-3.65-3.3-5.21l1.26-.61Z"/><path d="M810.18,92.17h-8.9l-.23.06v3.65l.1-.13c2.67,1.3,6.11,3.25,7.85,4.6l-.99,1.26c-1.51-1.22-4.45-3-6.97-4.35v11.4h-1.49v-16.5h-8.29v-1.41h18.92v1.41Z"/><path d="M114.96,152.53c1.11-1.2,1.62-3.23,1.83-5.23l1.15.25c-.25,2.1-.69,4.3-1.91,5.58l-1.07-.61ZM120.96,142.98c-.02.15-.13.25-.4.29v6.68c0,1.62-.06,3.28-.34,4.87,1.07.9,3.8,3.42,4.49,4.12l-.94,1.13c-.76-.88-2.6-2.73-3.86-3.91-.61,2.29-1.76,4.41-3.95,6.21-.21-.34-.67-.82-.99-1.03,3.82-3.15,4.22-7.37,4.22-11.4v-7.08l1.76.1ZM124.91,147.54c-.06.13-.23.19-.46.17-.57,1.28-1.55,3.17-2.33,4.35l-1.01-.57c.76-1.24,1.72-3.28,2.25-4.72l1.55.78ZM134.86,144.51v1.39h-4.18v14.61c0,1.85-.88,1.95-4.85,1.91-.06-.4-.29-1.01-.5-1.41.76.02,1.49.04,2.08.04,1.68,0,1.85,0,1.85-.57v-14.59h-5.77v-1.39h11.38Z"/><path d="M136.86,148.8c1.39.52,3.11,1.47,3.97,2.18l-.8,1.18c-.84-.73-2.54-1.72-3.93-2.31l.76-1.05ZM136.77,161.14c1.07-1.66,2.65-4.47,3.82-6.89l1.05.9c-1.05,2.23-2.46,4.87-3.46,6.51.06.1.08.21.08.29s-.02.17-.06.25l-1.43-1.07ZM141.06,146.55c-.8-.78-2.46-1.83-3.84-2.48l.8-1.01c1.36.59,3.04,1.57,3.88,2.35l-.84,1.13ZM149.54,147.39h5.23v14.84h-1.39v-1.13h-8.88v1.3h-1.34v-15.01h5v-4.54l1.78.1c-.02.15-.13.25-.4.29v4.14ZM148.15,148.75h-3.65v4.72h3.65v-4.72ZM144.5,154.84v4.91h3.65v-4.91h-3.65ZM153.38,148.75h-3.84v4.72h3.84v-4.72ZM149.54,159.76h3.84v-4.91h-3.84v4.91Z"/><path d="M413.85,160.6v-14.09h-.04l-2.58,1.49-.42-1.3,3.25-1.83h1.49v15.73h-1.7Z"/><path d="M421.2,159.53c0-.8.52-1.36,1.26-1.36s1.24.57,1.24,1.36c0,.76-.48,1.32-1.26,1.32s-1.24-.63-1.24-1.32Z"/><path d="M430,160.6v-14.09h-.04l-2.58,1.49-.42-1.3,3.25-1.83h1.49v15.73h-1.7Z"/><path d="M453.87,152.18c.13,2.46-1.15,3.38-2.6,3.38-.88,0-1.72-.27-3.38-1.03-1.13-.55-2.08-1.05-2.96-1.05s-1.41.67-1.43,2.02h-1.24c-.08-2.18,1.11-3.38,2.71-3.38.92,0,1.72.31,3.32,1.05,1.22.57,2.16,1.01,3.04,1.01s1.32-.76,1.32-1.99h1.22Z"/><path d="M462.69,152.26c.71-1.05,1.99-1.93,3.67-1.93,2.67,0,4.45,1.99,4.45,5.02s-1.76,5.5-4.83,5.5-5.12-2.54-5.12-6.61,1.97-8.63,7.08-9.47c.59-.08,1.11-.15,1.47-.15l.02,1.45c-4.37,0-6.45,3.17-6.8,6.19h.06ZM469.05,155.47c0-2.41-1.3-3.82-3.19-3.82s-3.25,1.81-3.25,2.98c.02,2.88,1.24,4.85,3.42,4.85,1.83,0,3.02-1.64,3.02-4.01Z"/><path d="M472.86,159.53c0-.8.52-1.36,1.26-1.36s1.24.57,1.24,1.36c0,.76-.48,1.32-1.26,1.32s-1.24-.63-1.24-1.32Z"/><path d="M477.04,152.79c0-5.5,2.14-8.17,5.08-8.17s4.81,2.81,4.81,7.96c0,5.46-1.91,8.27-5.04,8.27-2.86,0-4.85-2.81-4.85-8.06ZM485.16,152.66c0-3.93-.95-6.63-3.15-6.63-1.87,0-3.19,2.5-3.19,6.63s1.16,6.76,3.13,6.76c2.33,0,3.21-3.02,3.21-6.76Z"/><path d="M756.02,160.6h-1.66v-4.41h-6.87v-1.11l6.72-10.2h1.81v9.97h2.14v1.34h-2.14v4.41ZM749.26,154.84h5.1v-5.58c0-.86.04-1.7.08-2.52h-.08c-.48.97-.86,1.64-1.26,2.35l-3.84,5.71v.04Z"/><path d="M759.48,152.79c0-5.5,2.14-8.17,5.08-8.17s4.81,2.81,4.81,7.96c0,5.46-1.91,8.27-5.04,8.27-2.86,0-4.85-2.81-4.85-8.06ZM767.61,152.66c0-3.93-.95-6.63-3.15-6.63-1.87,0-3.19,2.5-3.19,6.63s1.16,6.76,3.13,6.76c2.33,0,3.21-3.02,3.21-6.76Z"/><path d="M777.19,146.49c0,1.51-1.24,2.75-2.73,2.75s-2.75-1.24-2.75-2.75,1.24-2.73,2.75-2.73,2.73,1.28,2.73,2.73ZM772.61,146.49c0,1.03.82,1.85,1.85,1.85s1.83-.82,1.83-1.85-.82-1.83-1.83-1.83c-1.07,0-1.85.86-1.85,1.83ZM789.03,160.09c-.73.38-2.18.76-4.03.76-4.81,0-7.52-3.25-7.52-8.13s3.21-8.38,7.98-8.38c1.89,0,3.07.42,3.57.69l-.48,1.43c-.76-.36-1.81-.67-3.11-.67-3.82,0-6.26,2.79-6.26,6.89s2.31,6.7,6.13,6.7c1.26,0,2.48-.27,3.32-.67l.4,1.39Z"/><path d="M85.6,226.06h18.88v1.47h-18.88v-1.47ZM87.41,213.46h15.26v1.47h-15.26v-1.47Z"/><path d="M113.17,226.84h-4.01v1.85h-1.24v-7.01c-.31.69-.67,1.32-1.05,1.89-.19-.31-.55-.9-.78-1.18.73-1.13,1.34-2.71,1.83-4.51.42-1.57.76-3.3,1.01-5.06h-2.6v-1.32h7.64v1.32h-3.7c-.25,1.72-.59,3.44-1.03,5.06h3.93v8.97ZM111.91,225.58v-6.45h-2.75v6.45h2.75ZM116.64,222.89c0,2.41-.36,5.06-3.21,6.99-.21-.27-.63-.69-.94-.9,2.62-1.74,2.92-4.07,2.92-6.11v-2.54l1.64.13c-.02.13-.15.23-.4.25v2.18ZM113.68,213.21h5.12v-2.81l1.78.1c-.02.15-.15.25-.42.29v2.41h5.63v1.24h-6.53c-.06.13-.21.19-.44.19-.5.97-1.24,2.27-1.95,3.34,1.87-.06,4.01-.15,6.15-.25-.65-.67-1.36-1.36-2.06-1.95l1.03-.65c1.45,1.2,3.13,2.9,3.86,4.09l-1.05.71c-.21-.34-.5-.73-.84-1.13-3.46.23-7.14.44-9.39.55-.04.15-.17.25-.29.29l-.55-1.53,1.74-.06c.67-1.01,1.41-2.44,1.93-3.59h-3.74v-1.24ZM118.78,228.83v-8.42l1.6.13c-.02.13-.1.23-.38.27v8.02h-1.22ZM123.5,227.64c0,.76,0,.82.4.82.73,0,.82,0,.9-.08.25-.19.27-1.07.29-2.35.25.21.63.4.94.48-.06,2.16-.13,3.04-1.53,3.04h-.9c-1.36,0-1.36-.84-1.36-2.12v-7.12l1.64.1c-.02.15-.13.25-.38.27v6.95Z"/><path d="M130.56,229.9v-12.11c-.9,1.36-1.85,2.6-2.83,3.63-.17-.36-.55-1.01-.8-1.34,2.18-2.18,4.41-5.86,5.75-9.53l1.72.59c-.08.19-.27.23-.48.19-.61,1.51-1.32,3-2.12,4.43l.61.17c-.04.15-.15.25-.42.27v13.71h-1.43ZM138.16,226.77c0,1.18.25,1.45,1.47,1.45h4.39c1.2,0,1.39-.8,1.53-3.93.36.27.92.55,1.34.63-.23,3.44-.65,4.64-2.81,4.64h-4.54c-2.16,0-2.79-.59-2.79-2.83v-15.87l1.83.13c-.02.15-.13.25-.42.29v7.79c2.48-1.39,5.04-3.09,6.61-4.58l1.15,1.34c-.08.06-.23.1-.4.06-1.76,1.49-4.66,3.17-7.37,4.6v6.28Z"/><path d="M151.48,218.5v2.86c0,2.52-.36,6.07-2.25,8.42-.23-.27-.82-.76-1.11-.92,1.74-2.18,1.95-5.25,1.95-7.5v-4.16h17.3v1.3h-15.89ZM166.64,211.34c-.02.13-.15.23-.44.27v3.86h-16.12v-4.26l1.83.13c-.02.13-.13.23-.42.27v2.58h5.79v-3.82l1.87.1c-.02.15-.15.25-.42.29v3.42h6v-2.98l1.91.13ZM160.36,218.96c-.02.15-.17.27-.46.31l-.02.38c.29,4.01,1.09,7.58,7.83,8.92-.31.34-.67.94-.84,1.32-4.87-1.07-6.72-3.42-7.56-6.21-.78,3.04-2.6,5.1-7.24,6.24-.13-.36-.48-.9-.78-1.18,6.21-1.41,6.97-4.45,7.22-9.93l1.85.15ZM156.01,220.52c-.52,1.68-1.43,3.32-2.83,4.24l-1.09-.71c1.26-.78,2.2-2.25,2.67-3.82l1.26.29ZM166.55,220.77c-.06.13-.21.21-.46.19-.67,1.05-1.76,2.54-2.65,3.53-.02,0-1.13-.52-1.15-.52.88-1.03,2.02-2.67,2.62-3.82l1.64.63Z"/><path d="M179.7,217.37h8.99v1.13h-10.16l.21.1c-.08.13-.23.17-.46.15-.8.73-2.04,1.76-3.09,2.52.69.4,1.34.82,1.85,1.2,1.64-1.13,3.3-2.44,4.43-3.49l1.47.86c-.08.1-.25.15-.46.15-1.45,1.18-3.55,2.67-5.48,3.84,2.35-.02,4.93-.06,7.47-.1-.86-.55-1.76-1.05-2.6-1.47.73-.59.84-.69.92-.8,1.93.9,4.28,2.33,5.48,3.44l-.99.9c-.34-.34-.8-.71-1.32-1.09-2.08.08-4.2.15-6.26.19v5h-1.41v-4.96c-2.96.08-5.67.13-7.68.17-.04.17-.17.25-.31.27l-.5-1.49c1.36,0,3.13-.02,5.1-.04.34-.19.67-.4,1.03-.63-1.09-.82-2.73-1.76-4.12-2.44l.9-.8c.44.21.92.44,1.41.69.84-.61,1.76-1.45,2.5-2.18h-7.2v-1.13h8.88v-1.47h-6.24v-1.11h6.24v-1.45h-7.66v-1.13h7.66v-1.85l1.83.13c-.02.15-.15.25-.42.29v1.43h7.92v1.13h-7.92v1.45h6.42v1.11h-6.42v1.47ZM176.24,226.17c-.08.13-.25.19-.48.15-1.41,1.18-3.51,2.41-5.33,3.21-.23-.25-.71-.71-1.01-.9,1.83-.73,3.95-1.91,5.27-3.13l1.55.67ZM187.24,229.46c-1.13-.99-3.42-2.33-5.29-3.19l1.05-.78c1.83.8,4.16,2.12,5.35,3.11l-1.11.86Z"/><path d="M425.99,228.12v-14.09h-.04l-2.58,1.49-.42-1.3,3.25-1.83h1.49v15.73h-1.7Z"/><path d="M433.34,227.05c0-.8.52-1.36,1.26-1.36s1.24.57,1.24,1.36c0,.76-.48,1.32-1.26,1.32s-1.24-.63-1.24-1.32Z"/><path d="M443.27,219.61c1.85.31,3.42,1.81,3.42,4.07,0,2.5-1.81,4.68-5.33,4.68-1.57,0-3-.5-3.72-1.01l.52-1.34c.57.38,1.83.94,3.21.94,2.65,0,3.51-1.85,3.51-3.3,0-2.31-1.95-3.36-4.01-3.36h-1.03v-1.3h1.03c1.51,0,3.46-.94,3.46-2.92,0-1.36-.82-2.54-2.71-2.54-1.15,0-2.25.57-2.88,1.03l-.52-1.28c.76-.59,2.23-1.18,3.74-1.18,2.88,0,4.16,1.83,4.16,3.72,0,1.62-1.03,3.07-2.86,3.72v.06Z"/><path d="M461.12,219.7c.13,2.46-1.15,3.38-2.6,3.38-.88,0-1.72-.27-3.38-1.03-1.13-.55-2.08-1.05-2.96-1.05s-1.41.67-1.43,2.02h-1.24c-.08-2.18,1.11-3.38,2.71-3.38.92,0,1.72.31,3.32,1.05,1.22.57,2.16,1.01,3.04,1.01s1.32-.76,1.32-1.99h1.22Z"/><path d="M472.17,212.39v1.45h-5.65l-.65,4.45c.34-.04.67-.08,1.22-.08,2.79,0,5.29,1.66,5.29,4.83s-2.31,5.33-5.42,5.33c-1.57,0-2.9-.46-3.61-.92l.5-1.36c.59.4,1.74.88,3.11.88,1.97,0,3.67-1.45,3.65-3.72,0-2.16-1.39-3.67-4.33-3.67-.84,0-1.49.06-2.02.15l.99-7.33h6.91Z"/><path d="M474.81,220.31c0-5.5,2.14-8.17,5.08-8.17s4.81,2.81,4.81,7.96c0,5.46-1.91,8.27-5.04,8.27-2.86,0-4.85-2.81-4.85-8.06ZM482.94,220.18c0-3.93-.94-6.63-3.15-6.63-1.87,0-3.19,2.5-3.19,6.63s1.15,6.76,3.13,6.76c2.33,0,3.21-3.02,3.21-6.76Z"/><path d="M740.67,221.04h5.73v1.34h-5.73v-1.34Z"/><path d="M753.71,219.61c1.85.31,3.42,1.81,3.42,4.07,0,2.5-1.81,4.68-5.33,4.68-1.57,0-3-.5-3.71-1.01l.52-1.34c.57.38,1.83.94,3.21.94,2.65,0,3.51-1.85,3.51-3.3,0-2.31-1.95-3.36-4.01-3.36h-1.03v-1.3h1.03c1.51,0,3.46-.94,3.46-2.92,0-1.36-.82-2.54-2.71-2.54-1.15,0-2.25.57-2.88,1.03l-.52-1.28c.76-.59,2.22-1.18,3.74-1.18,2.88,0,4.16,1.83,4.16,3.72,0,1.62-1.03,3.07-2.86,3.72v.06Z"/><path d="M759.53,220.31c0-5.5,2.14-8.17,5.08-8.17s4.81,2.81,4.81,7.96c0,5.46-1.91,8.27-5.04,8.27-2.86,0-4.85-2.81-4.85-8.06ZM767.66,220.18c0-3.93-.95-6.63-3.15-6.63-1.87,0-3.19,2.5-3.19,6.63s1.16,6.76,3.13,6.76c2.33,0,3.21-3.02,3.21-6.76Z"/><path d="M777.23,214.01c0,1.51-1.24,2.75-2.73,2.75s-2.75-1.24-2.75-2.75,1.24-2.73,2.75-2.73,2.73,1.28,2.73,2.73ZM772.66,214.01c0,1.03.82,1.85,1.85,1.85s1.83-.82,1.83-1.85-.82-1.83-1.83-1.83c-1.07,0-1.85.86-1.85,1.83ZM789.08,227.61c-.73.38-2.18.76-4.03.76-4.81,0-7.52-3.25-7.52-8.13s3.21-8.38,7.98-8.38c1.89,0,3.06.42,3.57.69l-.48,1.43c-.76-.36-1.81-.67-3.11-.67-3.82,0-6.26,2.79-6.26,6.89s2.31,6.7,6.13,6.7c1.26,0,2.48-.27,3.32-.67l.4,1.39Z"/><path d="M62.62,279.58c1.89.42,4.24,1.22,5.65,1.89l-.63,1.32c-1.39-.67-3.8-1.51-5.65-1.93l.63-1.28ZM63.88,289.85c6.74-2.27,11.51-5.96,14.28-12.22.31.27.94.73,1.28.94-2.81,6.19-7.79,10.14-14.13,12.39.06.19-.06.44-.23.52l-1.2-1.64ZM64.93,274.38c1.89.5,4.2,1.34,5.63,2.06l-.69,1.28c-1.49-.76-3.67-1.6-5.56-2.12l.63-1.22ZM74.75,273.68c.86.73,2.06,2.04,2.71,3.04l-.82.61c-.59-.9-1.81-2.31-2.67-3.07l.78-.59ZM77.67,272.4c.86.73,2.06,2.06,2.73,3.02l-.82.61c-.63-.92-1.81-2.27-2.67-3.02l.76-.61Z"/><path d="M84.48,276.5h14.36v1.43h-6.47v10.18h7.98v1.43h-17.34v-1.43h7.85v-10.18h-6.38v-1.43Z"/><path d="M121.33,282.5h-7.33c-.46,4.03-1.83,7.05-5.9,9.36-.31-.34-.82-.73-1.18-1.01,3.78-2.06,5.14-4.66,5.58-8.36h-8.57v-1.39h8.67c.1-1.39.1-2.81.13-4.49-2.14.48-4.91.94-7.22,1.2-.1-.4-.25-.82-.44-1.22,7.37-.88,11.72-2.33,13.02-2.9l1.11,1.24c-.08.04-.17.06-.27.06-.08,0-.15,0-.23-.02-1.18.44-3.04.99-4.7,1.39l.69.06c-.02.19-.17.31-.44.36-.02,1.57-.04,3-.13,4.33h7.2v1.39Z"/><path d="M129.58,276.77c-.02.19-.21.31-.48.36-.13,5.65-.59,10.79-3.82,14.55-.34-.25-.84-.57-1.26-.8,3.13-3.4,3.51-8.65,3.57-14.3l1.99.19ZM135.02,288.86c3.51-1.7,5.77-4.77,6.99-8.44.31.27.94.63,1.3.82-1.49,4.24-4.09,7.37-8.57,9.49-.06.17-.21.34-.36.42l-1.09-1.39.23-.31v-15.41l1.95.1c-.02.19-.17.36-.46.4v14.32Z"/><path d="M147.48,276.5h14.36v1.43h-6.47v10.18h7.98v1.43h-17.34v-1.43h7.85v-10.18h-6.38v-1.43Z"/><path d="M166.78,281.51h17.53v1.49h-16.73c-.13.21-.4.36-.67.4l-.13-1.89Z"/><path d="M205.12,281.72h-7.1l.36.1c-.04.13-.19.23-.42.25-.57,3.91-1.99,7.39-6.49,9.6-.25-.27-.78-.78-1.13-1.05,4.37-2.1,5.58-5.04,6.07-8.9h-8.17v-1.41h16.88v1.41ZM203.04,275.8h-12.89v-1.41h12.89v1.41Z"/><path d="M213.58,276.77c-.02.19-.21.31-.48.36-.13,5.65-.59,10.79-3.82,14.55-.34-.25-.84-.57-1.26-.8,3.13-3.4,3.51-8.65,3.57-14.3l1.99.19ZM219.02,288.86c3.51-1.7,5.77-4.77,6.99-8.44.31.27.94.63,1.3.82-1.49,4.24-4.09,7.37-8.57,9.49-.06.17-.21.34-.36.42l-1.09-1.39.23-.31v-15.41l1.95.1c-.02.19-.17.36-.46.4v14.32Z"/><path d="M416.3,290.61v-14.09h-.04l-2.58,1.49-.42-1.3,3.25-1.83h1.49v15.73h-1.7Z"/><path d="M423.65,289.54c0-.8.52-1.37,1.26-1.37s1.24.57,1.24,1.37c0,.76-.48,1.32-1.26,1.32s-1.24-.63-1.24-1.32Z"/><path d="M435.93,283.17c-.86,1.09-2.08,1.74-3.61,1.74-2.69,0-4.35-2.1-4.35-4.77,0-2.88,1.89-5.52,4.98-5.52s4.81,2.56,4.81,6.57c0,5.23-2.65,8.86-6.68,9.49-.73.13-1.41.17-1.87.15v-1.45c.44.04.94-.02,1.62-.1,2.65-.38,4.64-2.52,5.17-6.11h-.06ZM429.74,280.05c0,2.12,1.2,3.55,3,3.55,1.7,0,3.25-1.3,3.25-2.56,0-3.02-1.11-5.06-3.19-5.06-1.83,0-3.07,1.72-3.07,4.07Z"/><path d="M451.45,282.19c.13,2.46-1.15,3.38-2.6,3.38-.88,0-1.72-.27-3.38-1.03-1.13-.55-2.08-1.05-2.96-1.05s-1.41.67-1.43,2.02h-1.24c-.08-2.18,1.11-3.38,2.71-3.38.92,0,1.72.31,3.32,1.05,1.22.57,2.16,1.01,3.04,1.01s1.32-.76,1.32-1.99h1.22Z"/><path d="M459.32,282.1c1.85.31,3.42,1.81,3.42,4.07,0,2.5-1.81,4.68-5.33,4.68-1.57,0-3-.5-3.72-1.01l.52-1.34c.57.38,1.83.95,3.21.95,2.65,0,3.51-1.85,3.51-3.3,0-2.31-1.95-3.36-4.01-3.36h-1.03v-1.3h1.03c1.51,0,3.46-.94,3.46-2.92,0-1.36-.82-2.54-2.71-2.54-1.15,0-2.25.57-2.88,1.03l-.52-1.28c.76-.59,2.23-1.18,3.74-1.18,2.88,0,4.16,1.83,4.16,3.72,0,1.62-1.03,3.07-2.86,3.72v.06Z"/><path d="M466.95,282.27c.71-1.05,1.99-1.93,3.67-1.93,2.67,0,4.45,1.99,4.45,5.02s-1.76,5.5-4.83,5.5-5.12-2.54-5.12-6.61,1.97-8.63,7.08-9.47c.59-.08,1.11-.15,1.47-.15l.02,1.45c-4.37,0-6.45,3.17-6.8,6.19h.06ZM473.31,285.48c0-2.41-1.3-3.82-3.19-3.82s-3.25,1.81-3.25,2.98c.02,2.88,1.24,4.85,3.42,4.85,1.83,0,3.02-1.64,3.02-4.01Z"/><path d="M477.11,289.54c0-.8.52-1.37,1.26-1.37s1.24.57,1.24,1.37c0,.76-.48,1.32-1.26,1.32s-1.24-.63-1.24-1.32Z"/><path d="M481.29,282.8c0-5.5,2.14-8.17,5.08-8.17s4.81,2.81,4.81,7.96c0,5.46-1.91,8.27-5.04,8.27-2.86,0-4.85-2.81-4.85-8.06ZM489.42,282.67c0-3.93-.95-6.63-3.15-6.63-1.87,0-3.19,2.5-3.19,6.63s1.15,6.76,3.13,6.76c2.33,0,3.21-3.02,3.21-6.76Z"/><path d="M737.36,283.53h5.73v1.34h-5.73v-1.34Z"/><path d="M752.76,290.61h-1.66v-4.41h-6.87v-1.11l6.72-10.2h1.81v9.97h2.14v1.34h-2.14v4.41ZM746,284.85h5.1v-5.58c0-.86.04-1.7.08-2.52h-.08c-.48.97-.86,1.64-1.26,2.35l-3.84,5.71v.04Z"/><path d="M765.15,274.88v1.45h-5.65l-.65,4.45c.34-.04.67-.08,1.22-.08,2.79,0,5.29,1.66,5.29,4.83s-2.31,5.33-5.42,5.33c-1.57,0-2.9-.46-3.61-.92l.5-1.36c.59.4,1.74.88,3.11.88,1.97,0,3.68-1.45,3.65-3.72,0-2.16-1.39-3.67-4.33-3.67-.84,0-1.49.06-2.02.15l.99-7.33h6.91Z"/><path d="M773.92,276.5c0,1.51-1.24,2.75-2.73,2.75s-2.75-1.24-2.75-2.75,1.24-2.73,2.75-2.73,2.73,1.28,2.73,2.73ZM769.35,276.5c0,1.03.82,1.85,1.85,1.85s1.83-.82,1.83-1.85-.82-1.83-1.83-1.83c-1.07,0-1.85.86-1.85,1.83ZM785.77,290.1c-.73.38-2.18.76-4.03.76-4.81,0-7.52-3.25-7.52-8.13s3.21-8.38,7.98-8.38c1.89,0,3.06.42,3.57.69l-.48,1.43c-.76-.36-1.81-.67-3.11-.67-3.82,0-6.26,2.79-6.26,6.89s2.31,6.7,6.13,6.7c1.26,0,2.48-.27,3.32-.67l.4,1.39Z"/><path d="M107.68,342.86l1.01.46c-.04.08-.13.19-.23.25-1.09,5.29-3.67,9.2-6.8,11.32-.25-.36-.8-.9-1.13-1.13,2.83-1.76,5.19-5.02,6.26-9.41h-5.69v-1.43h6.34l.25-.06ZM111.25,341.23c.46,1.74,1.09,3.42,1.85,4.98,1.76-1.49,3.91-3.7,5.21-5.4l1.49,1.11c-.1.13-.29.15-.46.13-1.45,1.6-3.8,3.84-5.63,5.31,1.68,2.94,3.93,5.31,6.8,6.53-.36.29-.84.86-1.09,1.28-3.82-1.83-6.45-5.56-8.17-10.12v9.72c0,1.91-.88,2.08-4.83,2.08-.08-.42-.36-1.13-.59-1.53.8.02,1.53.02,2.12.02,1.76,0,1.83,0,1.83-.57v-17.41l1.89.1c-.02.17-.13.27-.42.29v3.46Z"/><path d="M132.17,344.29h8.99v1.13h-10.16l.21.1c-.08.13-.23.17-.46.15-.8.74-2.04,1.76-3.09,2.52.69.4,1.34.82,1.85,1.2,1.64-1.13,3.3-2.44,4.43-3.48l1.47.86c-.08.1-.25.15-.46.15-1.45,1.18-3.55,2.67-5.48,3.84,2.35-.02,4.93-.06,7.47-.11-.86-.54-1.76-1.05-2.6-1.47.73-.59.84-.69.92-.8,1.93.9,4.28,2.33,5.48,3.44l-.99.9c-.34-.34-.8-.71-1.32-1.09-2.08.08-4.2.15-6.26.19v5h-1.41v-4.96c-2.96.08-5.67.12-7.68.17-.04.17-.17.25-.31.27l-.5-1.49c1.36,0,3.13-.02,5.1-.04.34-.19.67-.4,1.03-.63-1.09-.82-2.73-1.76-4.12-2.44l.9-.8c.44.21.92.44,1.41.69.84-.61,1.76-1.45,2.5-2.18h-7.2v-1.13h8.88v-1.47h-6.24v-1.11h6.24v-1.45h-7.66v-1.13h7.66v-1.85l1.83.13c-.02.15-.15.25-.42.29v1.43h7.92v1.13h-7.92v1.45h6.42v1.11h-6.42v1.47ZM128.71,353.09c-.08.13-.25.19-.48.15-1.41,1.18-3.51,2.42-5.33,3.21-.23-.25-.71-.71-1.01-.9,1.83-.73,3.95-1.91,5.27-3.13l1.55.67ZM139.71,356.38c-1.13-.99-3.42-2.33-5.29-3.19l1.05-.78c1.83.8,4.16,2.12,5.35,3.11l-1.11.86Z"/><path d="M423.94,355.04h-1.66v-4.41h-6.87v-1.11l6.72-10.21h1.81v9.97h2.14v1.34h-2.14v4.41ZM417.18,349.29h5.1v-5.58c0-.86.04-1.7.08-2.52h-.08c-.48.97-.86,1.64-1.26,2.35l-3.84,5.71v.04Z"/><path d="M427.81,353.97c0-.8.52-1.37,1.26-1.37s1.24.57,1.24,1.37c0,.76-.48,1.32-1.26,1.32s-1.24-.63-1.24-1.32Z"/><path d="M431.99,347.23c0-5.5,2.14-8.17,5.08-8.17s4.81,2.81,4.81,7.96c0,5.46-1.91,8.27-5.04,8.27-2.86,0-4.85-2.81-4.85-8.06ZM440.11,347.1c0-3.93-.94-6.63-3.15-6.63-1.87,0-3.19,2.5-3.19,6.63s1.15,6.76,3.13,6.76c2.33,0,3.21-3.02,3.21-6.76Z"/><path d="M460.48,346.62c.13,2.46-1.15,3.38-2.6,3.38-.88,0-1.72-.27-3.38-1.03-1.13-.54-2.08-1.05-2.96-1.05s-1.41.67-1.43,2.02h-1.24c-.08-2.18,1.11-3.38,2.71-3.38.92,0,1.72.31,3.32,1.05,1.22.57,2.16,1.01,3.04,1.01s1.32-.76,1.32-2h1.22Z"/><path d="M463.09,339.31h9.22v1.11l-6.57,14.61h-1.78l6.57-14.24v-.04h-7.43v-1.45Z"/><path d="M483.1,339.31v1.45h-5.65l-.65,4.45c.34-.04.67-.08,1.22-.08,2.79,0,5.29,1.66,5.29,4.83s-2.31,5.33-5.42,5.33c-1.57,0-2.9-.46-3.61-.92l.5-1.37c.59.4,1.74.88,3.11.88,1.97,0,3.67-1.45,3.65-3.72,0-2.16-1.39-3.67-4.33-3.67-.84,0-1.49.06-2.02.15l.99-7.33h6.91Z"/><path d="M90.36,411.68c1.6-1.68,4.91-5.38,6.11-6.66.55-.54,1.09-.8,1.64-.8s1.13.29,1.7.8c2.71,2.48,7.08,7.33,10.25,11.44l-1.26,1.15c-2.98-4.14-7.37-9.11-9.72-11.29-.36-.34-.63-.53-.9-.53s-.52.21-.86.53c-.99,1.07-4.05,4.6-5.46,6.11.02.04.02.11.02.15,0,.17-.08.34-.21.44l-1.3-1.34ZM104.28,402.96c.97.84,2.04,2.14,2.65,3.06l-.8.63c-.61-.92-1.72-2.29-2.62-3.07l.78-.63ZM106.76,401.12c.97.86,2.06,2.12,2.67,3.06l-.8.63c-.61-.92-1.74-2.27-2.62-3.04l.76-.65Z"/><path d="M113.94,403.01c2.18.69,4.7,1.79,6.26,2.86l-.8,1.32c-1.51-1.07-3.99-2.18-6.13-2.92l.67-1.26ZM113.86,417.56c7.45-2.31,12.41-6.49,14.93-12.3.44.36.92.63,1.36.86-2.62,5.75-7.75,10.23-14.87,12.6-.02.19-.15.4-.29.48l-1.13-1.64Z"/><path d="M150.84,406.11c-.06.11-.19.19-.34.23-.94,2.29-2.6,5.14-4.39,6.87-.31-.23-.86-.55-1.26-.76,1.6-1.43,2.9-3.53,3.59-5.21l-8.06,2.1v5.38c0,2.08,1.26,2.75,2.94,2.75h3.42c.86,0,2.31-.11,3.13-.21,0,.44.02,1.03.04,1.47-.84.08-2.31.15-3.11.15h-3.51c-2.65,0-4.41-1.22-4.41-4.12v-5.04l-5.29,1.37-.36-1.41,5.65-1.41v-6.45l2.02.11c-.02.25-.23.36-.52.4v5.56l8.9-2.31.23-.17,1.32.69ZM146.36,401.14c.88.82,2.02,2.14,2.62,3.09l-.78.61c-.63-.92-1.7-2.23-2.62-3.07l.78-.63ZM149.39,400.17c.99.86,2.06,2.12,2.67,3.07l-.8.61c-.61-.92-1.7-2.22-2.62-3.04l.76-.63Z"/><path d="M155.94,403.01c2.18.69,4.7,1.79,6.26,2.86l-.8,1.32c-1.51-1.07-3.99-2.18-6.13-2.92l.67-1.26ZM155.86,417.56c7.45-2.31,12.41-6.49,14.93-12.3.44.36.92.63,1.36.86-2.62,5.75-7.75,10.23-14.87,12.6-.02.19-.15.4-.29.48l-1.13-1.64Z"/><path d="M424.82,418.44v-14.09h-.04l-2.58,1.49-.42-1.3,3.25-1.83h1.49v15.73h-1.7Z"/><path d="M432.17,417.37c0-.8.52-1.36,1.26-1.36s1.24.57,1.24,1.36c0,.76-.48,1.32-1.26,1.32s-1.24-.63-1.24-1.32Z"/><path d="M445.84,418.44h-9.3v-1.07l1.53-1.62c3.74-3.78,5.63-6.07,5.63-8.63,0-1.68-.73-3.23-3-3.23-1.26,0-2.39.69-3.15,1.3l-.59-1.22c.97-.86,2.39-1.53,4.07-1.53,3.17,0,4.43,2.31,4.43,4.47,0,2.96-2.08,5.48-5.33,8.75l-1.24,1.3v.04h6.95v1.43Z"/><path d="M459.96,410.02c.13,2.46-1.15,3.38-2.6,3.38-.88,0-1.72-.27-3.38-1.03-1.13-.55-2.08-1.05-2.96-1.05s-1.41.67-1.43,2.02h-1.24c-.08-2.18,1.11-3.38,2.71-3.38.92,0,1.72.32,3.32,1.05,1.22.57,2.16,1.01,3.04,1.01s1.32-.76,1.32-1.99h1.22Z"/><path d="M462.56,402.71h9.22v1.11l-6.57,14.61h-1.78l6.57-14.24v-.04h-7.43v-1.45Z"/><path d="M474.05,417.37c0-.8.52-1.36,1.26-1.36s1.24.57,1.24,1.36c0,.76-.48,1.32-1.26,1.32s-1.24-.63-1.24-1.32Z"/><path d="M481.33,410.1c-1.7-.82-2.46-2.21-2.46-3.55,0-2.44,1.91-4.09,4.45-4.09,2.86,0,4.22,1.93,4.22,3.82,0,1.34-.71,2.81-2.58,3.72v.08c1.93.82,3.13,2.23,3.13,4.12,0,2.67-2.18,4.49-4.96,4.49-3,0-4.85-1.91-4.85-4.18,0-2.04,1.22-3.51,3.04-4.32v-.08ZM486.31,414.39c0-1.97-1.32-2.98-3.4-3.65-1.85.61-2.83,1.95-2.83,3.51,0,1.78,1.2,3.15,3.09,3.15,2.02,0,3.15-1.37,3.15-3ZM480.54,406.39c-.02,1.68,1.18,2.6,2.92,3.13,1.37-.53,2.39-1.6,2.39-3.09,0-1.32-.73-2.69-2.58-2.69s-2.73,1.28-2.73,2.65Z"/><path d="M739.19,411.36h5.73v1.34h-5.73v-1.34Z"/><path d="M751.1,418.44v-14.09h-.04l-2.58,1.49-.42-1.3,3.25-1.83h1.49v15.73h-1.7Z"/><path d="M762.67,418.44v-14.09h-.04l-2.58,1.49-.42-1.3,3.25-1.83h1.49v15.73h-1.7Z"/><path d="M775.75,404.33c0,1.51-1.24,2.75-2.73,2.75s-2.75-1.24-2.75-2.75,1.24-2.73,2.75-2.73,2.73,1.28,2.73,2.73ZM771.18,404.33c0,1.03.82,1.85,1.85,1.85s1.83-.82,1.83-1.85-.82-1.83-1.83-1.83c-1.07,0-1.85.86-1.85,1.83ZM787.59,417.93c-.74.38-2.18.76-4.03.76-4.81,0-7.52-3.25-7.52-8.13s3.21-8.38,7.98-8.38c1.89,0,3.07.42,3.57.69l-.48,1.43c-.76-.36-1.8-.67-3.11-.67-3.82,0-6.26,2.79-6.26,6.89s2.31,6.7,6.13,6.7c1.26,0,2.48-.27,3.32-.67l.4,1.39Z"/><path d="M85,463.11v3.23h2.5v13.54h-1.2v-1.05h-5.9v1.32h-1.15v-13.82h2.29v-3.23h-3v-1.22h9.64v1.22h-3.17ZM81.73,467.59h-1.32v6.66h5.9v-2.56c-.15.53-.4.67-.82.67-1.32,0-1.55,0-1.55-1.2v-3.57h-1.32v1.3c0,1.32-.27,3.19-1.41,4.54-.17-.19-.55-.46-.73-.57,1.07-1.24,1.26-2.79,1.26-4.01v-1.26ZM80.4,477.67h5.9v-2.27h-5.9v2.27ZM82.61,463.11v3.23h1.32v-3.23h-1.32ZM85.34,471.45c.21,0,.27-.13.29-1.28.17.15.44.25.67.34v-2.92h-1.49v3.55c0,.27.02.32.19.32h.34ZM98.04,465.84h-4.37v3.42h3.95v1.32h-3.95v3.49h4.22v1.32h-4.22v5.06h-1.36v-14.61h-1.66c-.57,1.72-1.24,3.32-1.97,4.49-.27-.21-.8-.57-1.13-.73,1.28-2,2.35-5.4,2.98-8.69l1.74.44c-.04.15-.19.23-.46.23-.21.97-.46,1.95-.73,2.92h6.97v1.34Z"/><path d="M116.81,472.06l.84.4c-.02.1-.13.17-.17.21-.65,1.74-1.66,3.21-2.92,4.41,1.32,1.03,2.94,1.8,4.75,2.25-.29.27-.69.78-.88,1.13-1.83-.52-3.49-1.41-4.85-2.54-1.47,1.13-3.15,1.97-4.89,2.52-.13-.25-.4-.65-.63-.92v.38h-1.18v-1.05h-5.5v1.32h-1.13v-13.82h2.16v-3.23h-2.9v-1.22h9.26v1.22h-3v3.23h2.29v4.18c2.04-.82,2.75-2.25,2.98-4.12l1.6.19c-.02.13-.15.21-.38.25-.31,1.93-1.05,3.63-3.42,4.66-.15-.31-.5-.76-.78-.97v4.77c1.66-1.18,3.3-3.17,4.16-5.33l1.51.48c-.04.13-.19.19-.42.19-.23.5-.48.99-.78,1.47h4.05l.23-.06ZM103.48,467.59v1.3c0,1.3-.25,3.19-1.39,4.51-.15-.17-.5-.42-.71-.52v1.36h5.5v-1.93c-.1.02-.23.04-.38.04h-.78c-.8,0-1.03-.21-1.03-1.2v-3.57h-1.22ZM102.6,467.59h-1.22v5.25c1.03-1.24,1.22-2.77,1.22-3.99v-1.26ZM101.38,477.67h5.5v-2.27h-5.5v2.27ZM103.48,463.11v3.23h1.22v-3.23h-1.22ZM106.34,471.45c.25,0,.31-.08.34-.8.06.04.13.11.21.15v-3.21h-1.3v3.55c0,.27.04.32.23.32h.52ZM108.06,479.37c1.64-.48,3.25-1.24,4.62-2.27-.76-.78-1.39-1.64-1.91-2.6-.61.65-1.24,1.24-1.89,1.7-.19-.21-.55-.57-.82-.8v3.97ZM108.25,465.11l1.85-.06c.73-1.22,1.6-2.94,2.06-4.16l1.62.57c-.04.15-.21.21-.44.21-.44.97-1.13,2.25-1.81,3.32,1.49-.06,3.15-.13,4.81-.21-.55-.54-1.13-1.07-1.68-1.51l.97-.65c1.3,1.03,2.81,2.48,3.51,3.51l-1.03.74c-.19-.29-.46-.65-.78-1.01-3.09.21-6.26.42-8.29.52,0,.15-.15.25-.27.27l-.5-1.53ZM111.59,473.51c.5,1.03,1.2,1.95,2.06,2.77.92-.86,1.7-1.89,2.25-3.04h-4.09l-.21.27ZM114.31,466.31l1.64.11c-.02.15-.13.25-.4.27v2.27c0,.4.06.44.5.44h1.45c.38,0,.46-.15.5-1.49.25.21.78.38,1.11.46-.13,1.74-.48,2.18-1.43,2.18h-1.81c-1.28,0-1.57-.34-1.57-1.58v-2.67Z"/><path d="M123.1,464.54h14.36v1.43h-6.47v10.18h7.98v1.43h-17.34v-1.43h7.85v-10.18h-6.38v-1.43Z"/><path d="M159.95,470.55h-7.33c-.46,4.03-1.83,7.05-5.9,9.36-.31-.34-.82-.73-1.18-1.01,3.78-2.06,5.14-4.66,5.58-8.36h-8.57v-1.39h8.67c.1-1.39.1-2.81.13-4.49-2.14.48-4.91.94-7.22,1.2-.1-.4-.25-.82-.44-1.22,7.37-.88,11.72-2.33,13.02-2.9l1.11,1.24c-.08.04-.17.06-.27.06-.08,0-.15,0-.23-.02-1.18.44-3.04.99-4.7,1.39l.69.06c-.02.19-.17.31-.44.36-.02,1.58-.04,3-.13,4.33h7.2v1.39Z"/><path d="M168.2,464.82c-.02.19-.21.31-.48.36-.13,5.65-.59,10.79-3.82,14.55-.34-.25-.84-.57-1.26-.8,3.13-3.4,3.51-8.65,3.57-14.3l1.99.19ZM173.64,476.91c3.51-1.7,5.77-4.77,6.99-8.44.31.27.94.63,1.3.82-1.49,4.24-4.09,7.37-8.57,9.49-.06.17-.21.34-.36.42l-1.09-1.39.23-.31v-15.41l1.95.11c-.02.19-.17.36-.46.4v14.32Z"/><path d="M424.11,478.65h-9.3v-1.07l1.53-1.62c3.74-3.78,5.63-6.07,5.63-8.63,0-1.68-.73-3.23-3-3.23-1.26,0-2.39.69-3.15,1.3l-.59-1.22c.97-.86,2.39-1.53,4.07-1.53,3.17,0,4.43,2.31,4.43,4.47,0,2.96-2.08,5.48-5.33,8.76l-1.24,1.3v.04h6.95v1.43Z"/><path d="M426.59,477.58c0-.8.52-1.37,1.26-1.37s1.24.57,1.24,1.37c0,.76-.48,1.32-1.26,1.32s-1.24-.63-1.24-1.32Z"/><path d="M430.77,470.84c0-5.5,2.14-8.17,5.08-8.17s4.81,2.81,4.81,7.96c0,5.46-1.91,8.27-5.04,8.27-2.86,0-4.85-2.81-4.85-8.06ZM438.89,470.72c0-3.93-.94-6.63-3.15-6.63-1.87,0-3.19,2.5-3.19,6.63s1.15,6.76,3.13,6.76c2.33,0,3.21-3.02,3.21-6.76Z"/><path d="M454.37,470.23c.13,2.46-1.15,3.38-2.6,3.38-.88,0-1.72-.27-3.38-1.03-1.13-.54-2.08-1.05-2.96-1.05s-1.41.67-1.43,2.02h-1.24c-.08-2.18,1.11-3.38,2.71-3.38.92,0,1.72.31,3.32,1.05,1.22.57,2.16,1.01,3.04,1.01s1.32-.76,1.32-2h1.22Z"/><path d="M461.11,478.65v-14.09h-.04l-2.58,1.49-.42-1.3,3.25-1.83h1.49v15.73h-1.7Z"/><path d="M472.68,478.65v-14.09h-.04l-2.58,1.49-.42-1.3,3.25-1.83h1.49v15.73h-1.7Z"/><path d="M748.6,471.58h5.73v1.34h-5.73v-1.34Z"/><path d="M763.99,478.65h-1.66v-4.41h-6.87v-1.11l6.72-10.21h1.81v9.97h2.14v1.34h-2.14v4.41ZM757.23,472.9h5.1v-5.58c0-.86.04-1.7.08-2.52h-.08c-.48.97-.86,1.64-1.26,2.35l-3.84,5.71v.04Z"/><path d="M773.59,464.54c0,1.51-1.24,2.75-2.73,2.75s-2.75-1.24-2.75-2.75,1.24-2.73,2.75-2.73,2.73,1.28,2.73,2.73ZM769.01,464.54c0,1.03.82,1.85,1.85,1.85s1.83-.82,1.83-1.85-.82-1.83-1.83-1.83c-1.07,0-1.85.86-1.85,1.83ZM785.43,478.15c-.73.38-2.18.76-4.03.76-4.81,0-7.52-3.25-7.52-8.12s3.21-8.38,7.98-8.38c1.89,0,3.07.42,3.57.69l-.48,1.43c-.76-.36-1.81-.67-3.11-.67-3.82,0-6.26,2.79-6.26,6.89s2.31,6.7,6.13,6.7c1.26,0,2.48-.27,3.32-.67l.4,1.39Z"/><path d="M74.15,522.88h14.36v1.43h-6.47v10.18h7.98v1.43h-17.34v-1.43h7.85v-10.18h-6.38v-1.43Z"/><path d="M109.28,523.4c-.02.1-.13.19-.25.23-.78,2.6-1.83,5-3.09,6.95.9.53,1.93,1.18,2.71,1.74l-.88,1.39c-.76-.59-1.83-1.28-2.71-1.83-1.93,2.69-4.41,4.85-7.58,6.38-.23-.36-.78-.86-1.15-1.09,3.07-1.43,5.52-3.55,7.43-6.05-1.55-.86-3.09-1.6-4.64-2.18l.8-1.18c1.53.54,3.11,1.26,4.72,2.12,1.09-1.72,1.95-3.55,2.54-5.56h-7.12c-1.28,2.14-3,4.26-4.85,5.77-.27-.25-.84-.71-1.2-.95,2.75-2.1,5.35-5.88,6.61-9.47l1.99.46c-.08.23-.29.29-.57.27-.29.69-.78,1.72-1.18,2.5h6.97l.29-.08,1.13.57Z"/><path d="M130.72,520.99c-.1.21-.34.27-.59.25-3.19,7.87-8.38,13.46-14.21,16.73-.25-.31-.76-.82-1.18-1.11,5.71-3.15,10.92-8.57,13.92-16.65l2.06.78Z"/><path d="M135.45,527.89h17.53v1.49h-16.73c-.13.21-.4.36-.67.4l-.13-1.89Z"/><path d="M161.26,523.15c-.02.19-.21.31-.48.36-.13,5.65-.59,10.79-3.82,14.55-.34-.25-.84-.57-1.26-.8,3.13-3.4,3.51-8.65,3.57-14.3l1.99.19ZM166.7,535.24c3.51-1.7,5.77-4.77,6.99-8.44.31.27.94.63,1.3.82-1.49,4.24-4.09,7.37-8.57,9.49-.06.17-.21.34-.36.42l-1.09-1.39.23-.31v-15.41l1.95.11c-.02.19-.17.36-.46.4v14.32Z"/><path d="M418.32,528.48c1.85.32,3.42,1.81,3.42,4.07,0,2.5-1.81,4.68-5.33,4.68-1.57,0-3-.5-3.72-1.01l.52-1.34c.57.38,1.83.95,3.21.95,2.65,0,3.51-1.85,3.51-3.3,0-2.31-1.95-3.36-4.01-3.36h-1.03v-1.3h1.03c1.51,0,3.46-.94,3.46-2.92,0-1.36-.82-2.54-2.71-2.54-1.15,0-2.25.57-2.88,1.03l-.52-1.28c.76-.59,2.23-1.18,3.74-1.18,2.88,0,4.16,1.83,4.16,3.72,0,1.62-1.03,3.07-2.86,3.72v.06Z"/><path d="M424.54,535.91c0-.8.52-1.37,1.26-1.37s1.24.57,1.24,1.37c0,.76-.48,1.32-1.26,1.32s-1.24-.63-1.24-1.32Z"/><path d="M434.47,528.48c1.85.32,3.42,1.81,3.42,4.07,0,2.5-1.81,4.68-5.33,4.68-1.57,0-3-.5-3.72-1.01l.52-1.34c.57.38,1.83.95,3.21.95,2.65,0,3.51-1.85,3.51-3.3,0-2.31-1.95-3.36-4.01-3.36h-1.03v-1.3h1.03c1.51,0,3.46-.94,3.46-2.92,0-1.36-.82-2.54-2.71-2.54-1.15,0-2.25.57-2.88,1.03l-.52-1.28c.76-.59,2.23-1.18,3.74-1.18,2.88,0,4.16,1.83,4.16,3.72,0,1.62-1.03,3.07-2.86,3.72v.06Z"/><path d="M452.32,528.57c.13,2.46-1.15,3.38-2.6,3.38-.88,0-1.72-.27-3.38-1.03-1.13-.54-2.08-1.05-2.96-1.05s-1.41.67-1.43,2.02h-1.24c-.08-2.18,1.11-3.38,2.71-3.38.92,0,1.72.31,3.32,1.05,1.22.57,2.16,1.01,3.04,1.01s1.32-.76,1.32-2h1.22Z"/><path d="M459.06,536.99v-14.09h-.04l-2.58,1.49-.42-1.3,3.25-1.83h1.49v15.73h-1.7Z"/><path d="M474.11,529.55c-.86,1.09-2.08,1.74-3.61,1.74-2.69,0-4.35-2.1-4.35-4.77,0-2.88,1.89-5.52,4.98-5.52s4.81,2.56,4.81,6.57c0,5.23-2.65,8.86-6.68,9.49-.73.13-1.41.17-1.87.15v-1.45c.44.04.94-.02,1.62-.1,2.65-.38,4.64-2.52,5.17-6.11h-.06ZM467.92,526.42c0,2.12,1.2,3.55,3,3.55,1.7,0,3.25-1.3,3.25-2.56,0-3.02-1.11-5.06-3.19-5.06-1.83,0-3.07,1.72-3.07,4.07Z"/><path d="M751.31,536.99v-14.09h-.04l-2.58,1.49-.42-1.3,3.25-1.83h1.49v15.73h-1.7Z"/><path d="M764.02,528.48c1.85.32,3.42,1.81,3.42,4.07,0,2.5-1.81,4.68-5.33,4.68-1.57,0-3-.5-3.72-1.01l.52-1.34c.57.38,1.83.95,3.21.95,2.65,0,3.51-1.85,3.51-3.3,0-2.31-1.95-3.36-4.01-3.36h-1.03v-1.3h1.03c1.51,0,3.46-.94,3.46-2.92,0-1.36-.82-2.54-2.71-2.54-1.15,0-2.25.57-2.88,1.03l-.52-1.28c.76-.59,2.23-1.18,3.74-1.18,2.88,0,4.16,1.83,4.16,3.72,0,1.62-1.03,3.07-2.86,3.72v.06Z"/><path d="M775.97,522.88c0,1.51-1.24,2.75-2.73,2.75s-2.75-1.24-2.75-2.75,1.24-2.73,2.75-2.73,2.73,1.28,2.73,2.73ZM771.39,522.88c0,1.03.82,1.85,1.85,1.85s1.83-.82,1.83-1.85-.82-1.83-1.83-1.83c-1.07,0-1.85.86-1.85,1.83ZM787.81,536.48c-.74.38-2.18.76-4.03.76-4.81,0-7.52-3.25-7.52-8.12s3.21-8.38,7.98-8.38c1.89,0,3.07.42,3.57.69l-.48,1.43c-.76-.36-1.8-.67-3.11-.67-3.82,0-6.26,2.79-6.26,6.89s2.31,6.7,6.13,6.7c1.26,0,2.48-.27,3.32-.67l.4,1.39Z"/></svg>