<?xml version="1.0" encoding="UTF-8"?><svg id="_レイヤー_1" xmlns="http://www.w3.org/2000/svg" viewBox="0 0 956.35 485.3"><defs><style>.cls-1{fill:#fff;}.cls-2{fill:#f2f2f2;}</style></defs><rect class="cls-1" x=".5" y="54.42" width="955.11" height="106.84"/><path d="M955.11,54.92v105.84H1V54.92h954.11M956.11,53.92H0v107.84h956.11V53.92h0Z"/><rect class="cls-1" x=".5" y="216.19" width="954.6" height="106.84"/><path d="M954.6,216.69v105.84H1v-105.84h953.6M955.6,215.69H0v107.84h955.6v-107.84h0Z"/><rect class="cls-1" x=".5" y="377.96" width="955.35" height="106.84"/><path d="M955.35,378.46v105.84H1v-105.84h954.35M956.35,377.46H0v107.84h956.35v-107.84h0Z"/><rect class="cls-2" x=".25" y=".25" width="955.85" height="53.42"/><path d="M955.85.5v52.92H.5V.5h955.35M956.35,0H0v53.92h956.35V0h0Z"/><rect class="cls-2" x=".38" y="162.14" width="955.6" height="53.17"/><path d="M955.6,162.52v52.42H.75v-52.42h954.85M956.35,161.77H0v53.92h956.35v-53.92h0Z"/><rect class="cls-2" x=".38" y="323.91" width="955.6" height="53.17"/><path d="M955.6,324.28v52.42H.75v-52.42h954.85M956.35,323.53H0v53.92h956.35v-53.92h0Z"/><path d="M28.49,25.11c-.69,1.24-1.43,2.39-2.2,3.36-.15-.34-.48-1.05-.69-1.36,1.81-2.18,3.55-5.84,4.62-9.47l1.66.52c-.06.15-.21.23-.48.23-.46,1.41-1.01,2.81-1.62,4.16l.48.15c-.04.15-.15.23-.4.27v14.07h-1.36v-11.93ZM39.57,18.62v1.28h-4.43c-.17.99-.36,2.06-.65,3.15h3.3c.17-.04.21-.04.25-.04.19.06.38.13.86.31-.02.1-.1.19-.17.25-.86,6.66-3.19,11.17-6.47,13.52-.19-.34-.65-.88-.94-1.11,1.81-1.24,3.32-3.13,4.41-5.73-.61-.67-1.72-1.6-2.67-2.25l.61-1.07c.88.59,1.95,1.39,2.54,2.02.46-1.39.84-2.92,1.07-4.62h-3.13c-.65,2.12-1.55,4.2-2.86,5.73-.19-.29-.61-.76-.88-.99,1.93-2.31,2.88-6.05,3.34-9.18h-2.08v-1.28h7.89ZM40.79,32.17h-1.3v-12.26l1.7.1c-.02.15-.13.25-.4.29v11.86ZM43.43,17.83l1.74.1c-.02.15-.13.25-.4.27v16.96c0,1.74-.8,1.87-4.14,1.87-.06-.38-.27-1.01-.46-1.41.65.02,1.26.04,1.74.04,1.39,0,1.51,0,1.51-.48v-17.36Z"/><path d="M57,35.23v-14.09h-.04l-2.58,1.49-.42-1.3,3.25-1.83h1.49v15.73h-1.7Z"/><path d="M75.04,22.15c0,.78-.63,1.41-1.43,1.41s-1.43-.63-1.43-1.41.63-1.43,1.43-1.43c.84,0,1.43.67,1.43,1.43ZM75.04,32.35c0,.8-.63,1.43-1.43,1.43s-1.43-.63-1.43-1.43.63-1.41,1.43-1.41c.84,0,1.43.67,1.43,1.41Z"/><path d="M113.81,22.02c-.04.15-.19.25-.44.27-.57,3.04-1.72,5.29-6.47,6.45-.15-.36-.5-.9-.78-1.18,4.33-.94,5.44-2.83,5.84-5.73l1.85.19ZM116.28,30.65v4.39h8.71v1.32h-18.75v-1.32h8.59v-4.39h-6.32v-1.3h14.34v1.3h-6.57ZM108.14,21.35v2.88h-1.41v-4.18h8.1v-2.56l1.87.13c-.02.15-.15.25-.42.29v2.14h8.19v4.18h-1.45v-2.88h-14.89ZM117.27,21.67l1.81.1c-.02.15-.13.25-.42.29v3.84c0,.5.15.61,1.07.61h3.17c.67,0,.8-.19.86-1.43.29.21.86.4,1.26.48-.17,1.74-.59,2.18-1.95,2.18h-3.46c-1.87,0-2.33-.38-2.33-1.83v-4.26Z"/><path d="M145.68,21.04h-14.11c-.97,1.91-2.18,3.61-3.51,4.81-.27-.25-.82-.65-1.18-.86,1.95-1.64,3.61-4.49,4.56-7.52l1.78.48c-.04.15-.21.23-.46.23-.19.55-.4,1.09-.61,1.62h13.52v1.24ZM130.48,28.43c1.34.73,2.79,1.64,4.18,2.58,1.01-1.07,1.89-2.25,2.58-3.49l1.64.63c-.06.17-.29.21-.5.19-.71,1.24-1.6,2.39-2.6,3.46,1.6,1.15,3,2.33,3.93,3.34l-1.13,1.07c-.88-1.01-2.25-2.23-3.8-3.4-1.87,1.76-4.07,3.23-6.36,4.33-.21-.29-.67-.8-.99-1.05,2.25-.99,4.41-2.37,6.24-4.09-1.36-.97-2.81-1.89-4.18-2.65l1.01-.92ZM128.87,25.87h13.84c.02,5.61.34,9.76,2.02,9.76.44,0,.55-1.22.59-3.07.29.31.71.65,1.01.82-.15,2.69-.44,3.63-1.68,3.63-2.77,0-3.23-3.97-3.36-9.91h-12.41v-1.24ZM143.63,24.04h-12.32v-1.22h12.32v1.22Z"/><path d="M157.82,35.23v-14.09h-.04l-2.58,1.49-.42-1.3,3.25-1.83h1.49v15.73h-1.7Z"/><path d="M164.78,27.42c0-5.5,2.14-8.17,5.08-8.17s4.81,2.81,4.81,7.96c0,5.46-1.91,8.27-5.04,8.27-2.86,0-4.85-2.81-4.85-8.06ZM172.9,27.29c0-3.93-.94-6.63-3.15-6.63-1.87,0-3.19,2.5-3.19,6.63s1.15,6.76,3.13,6.76c2.33,0,3.21-3.02,3.21-6.76Z"/><path d="M176.35,27.42c0-5.5,2.14-8.17,5.08-8.17s4.81,2.81,4.81,7.96c0,5.46-1.91,8.27-5.04,8.27-2.86,0-4.85-2.81-4.85-8.06ZM184.47,27.29c0-3.93-.94-6.63-3.15-6.63-1.87,0-3.19,2.5-3.19,6.63s1.15,6.76,3.13,6.76c2.33,0,3.21-3.02,3.21-6.76Z"/><path d="M197.22,35.23h-8.36v-16h1.74v14.51h6.61v1.49Z"/><path d="M208.48,19.06c-.06.23-.27.36-.69.34-.73,3.42-1.11,7.18-1.11,9.45,0,1.57.06,3.17.27,4.16.4-1.03,1.3-3.23,1.6-3.97l.88.92c-.86,2.12-1.49,3.32-1.78,4.26-.1.36-.17.69-.17.99,0,.23.04.44.1.65l-1.49.27c-.67-1.99-.92-4.43-.92-7.22s.44-6.59,1.11-10.23l2.2.38ZM221.85,34.41c-.76.04-1.53.06-2.31.06-1.49,0-2.9-.08-3.91-.23-2.58-.38-3.78-1.81-3.78-3.49,0-1.45.8-2.67,1.97-4.05l1.36.59c-1.05,1.09-1.78,2.1-1.78,3.3,0,2.44,3.57,2.44,5.75,2.44.88,0,1.83-.04,2.71-.1l-.02,1.49ZM212.13,21.58c2.71-.06,6.36-.31,9.15-.8l.13,1.47c-2.6.44-6.82.71-9.24.78l-.04-1.45Z"/><path d="M226.75,24.65c1.13,1.2,2.35,2.58,3.44,3.95.63-1.68,1.09-3.57,1.41-5.65l1.74.34c-.04.17-.19.25-.46.27-.4,2.33-.97,4.43-1.74,6.28,1.03,1.36,1.87,2.67,2.41,3.72l-1.13.97c-.44-.92-1.13-2.04-1.95-3.23-1.2,2.31-2.81,4.14-4.96,5.48-.19-.31-.61-.8-.88-1.07,2.18-1.28,3.8-3.19,4.96-5.63-1.2-1.6-2.56-3.23-3.84-4.62l1.01-.8ZM234.91,21.14v1.32h-10.18v-1.32h4.43v-3.61l1.76.1c-.02.15-.13.25-.4.29v3.21h4.39ZM244.17,22.72v1.34h-2.58v10.96c0,1.93-1.07,1.97-4.37,1.97-.06-.4-.27-1.05-.48-1.47.69.02,1.32.02,1.85.02,1.53,0,1.6,0,1.6-.5v-10.98h-5.94v-1.34h5.94v-5.23l1.83.1c-.04.17-.15.27-.42.29v4.83h2.58ZM235.75,26.41c1.03,1.47,2.06,3.44,2.39,4.72l-1.24.63c-.34-1.3-1.32-3.34-2.33-4.83l1.18-.52Z"/><path d="M252.57,18.41c-.04.25-.23.4-.65.46-.17,2.44-.38,8-.38,11.11s1.55,4.64,4.2,4.64,5.17-1.28,7.56-3.99c.21.34.69,1.01.94,1.24-2.46,2.79-5.44,4.26-8.52,4.26-3.82,0-5.77-2.2-5.77-6.17,0-2.65.19-9.15.34-11.74l2.29.19Z"/><path d="M267.67,20.35c1.57-.06,14.51-.99,17.24-1.01l.02,1.57c-.27-.02-.52-.02-.78-.02-1.22,0-2.25.21-3.59,1.07-3.15,1.89-6.19,5.27-6.19,7.98,0,2.94,2.06,4.68,7.26,5.35l-.69,1.47c-5.96-.86-8.19-3.09-8.19-6.82,0-2.96,2.92-6.55,6.76-8.97-2.23.15-8.5.63-11.21.88-.06.17-.29.31-.46.34l-.17-1.85Z"/><path d="M305.35,23.1c-.02.08-.08.19-.17.25-.29,6.07-.88,9.83-1.7,11.32-.84,1.51-2.14,1.53-2.75,1.53-.8,0-2.29-.19-3.74-.5.02-.42-.02-1.05-.06-1.47,1.57.34,3.19.5,3.67.5.76,0,1.18-.19,1.6-.99.65-1.26,1.15-4.77,1.36-9.49h-6.7c-1.07,5.02-3.15,9.13-6.93,12.01-.27-.27-.82-.69-1.2-.94,3.61-2.71,5.52-6.28,6.55-11.09h-5.79v-1.41h6.07c.25-1.47.4-2.83.5-4.6l2.08.19c-.02.21-.23.34-.52.38-.13,1.53-.25,2.71-.48,4.05h6.82l.31-.13,1.07.38ZM301.8,18.04c.94.84,2.08,2.27,2.65,3.23l-.84.59c-.52-.88-1.72-2.41-2.6-3.25l.8-.57ZM305.07,17.11c.92.88,2.1,2.27,2.67,3.21l-.86.59c-.52-.88-1.72-2.37-2.58-3.21l.78-.59Z"/><path d="M311.86,20.24c1.47,1.72,2.96,4.26,3.61,5.96l-1.45.73c-.59-1.66-2.08-4.28-3.49-6l1.32-.69ZM326.56,20.49c-.06.19-.21.27-.55.27-2.12,7.83-6.15,12.43-12.05,15.12-.23-.31-.71-.84-1.07-1.11,5.77-2.54,9.66-6.91,11.65-14.93l2.02.65Z"/><path d="M333.78,29.71v-10.2l1.99.13c-.02.19-.17.34-.5.38v9.7h-1.49ZM345.48,18.69c-.02.21-.17.31-.5.36v6.68c0,4.41-1.51,8.44-7.54,10.77-.21-.31-.73-.86-1.09-1.13,5.82-2.16,7.12-5.75,7.12-9.64v-7.16l2.02.13Z"/><path d="M353.21,19.8c2.18.69,4.7,1.78,6.26,2.86l-.8,1.32c-1.51-1.07-3.99-2.18-6.13-2.92l.67-1.26ZM353.12,34.35c7.45-2.31,12.41-6.49,14.93-12.3.44.36.92.63,1.36.86-2.62,5.75-7.75,10.23-14.87,12.6-.02.19-.15.4-.29.48l-1.13-1.64Z"/><path d="M379.83,18.52c-.04.25-.29.36-.69.38-.23,1.18-.61,3.21-.86,4.47.94-.1,1.81-.19,2.33-.19,3.19-.04,4.28,2.08,4.28,5.23,0,1.57-.29,3.44-.71,4.7-.65,2.14-1.99,3.17-3.74,3.17-.86,0-1.99-.36-3.8-1.83.23-.38.4-.84.57-1.28,1.68,1.3,2.56,1.6,3.21,1.6,1.2,0,1.91-.76,2.33-2.1.44-1.3.67-3.23.67-4.3-.02-2.39-.8-3.82-2.9-3.8-.63,0-1.49.08-2.56.21-1.05,4.28-2.29,7.96-4.3,11.34l-1.39-.67c2.04-3.25,3.19-6.51,4.18-10.5-1.07.13-2.6.31-3.74.5l-.13-1.47c1.03-.13,2.75-.31,4.16-.48.31-1.53.65-3.42.9-5.27l2.18.29ZM384.71,17.87c1.01.78,2.2,2.04,2.81,2.94l-.82.59c-.59-.9-1.85-2.23-2.77-2.92l.78-.61ZM389.41,30.09c-.69-3.02-2.35-5.56-4.28-7.16l1.22-.82c2.08,1.74,3.88,4.37,4.58,7.41l-1.51.57ZM387.88,17.05c1.03.76,2.23,2.02,2.83,2.92l-.82.61c-.59-.9-1.85-2.25-2.77-2.94l.76-.59Z"/><path d="M402.66,35.23v-14.09h-.04l-2.58,1.49-.42-1.3,3.25-1.83h1.49v15.73h-1.7Z"/><path d="M418.92,35.23h-8.36v-16h1.74v14.51h6.61v1.49Z"/><path d="M436.37,21.33c-.08.19-.25.34-.52.34-.76,6.53-2.94,12.22-6.42,12.22-1.76,0-3.36-1.76-3.36-5.08,0-5.04,3.93-9.26,9.45-9.26,6.07,0,8.69,3.84,8.69,7.94,0,5-2.9,7.41-7.98,8.59-.19-.34-.55-.9-.88-1.28,4.83-.92,7.31-3.28,7.31-7.24,0-3.46-2.23-6.61-7.14-6.61-.21,0-.44.02-.63.04l1.49.36ZM434.35,21.06c-4.24.52-6.87,4.03-6.87,7.71,0,2.25.97,3.65,1.97,3.65,2.54,0,4.37-5.61,4.89-11.36Z"/><path d="M462.8,24.96s-.1.02-.17.02c-.15,0-.31-.04-.44-.13-6.24,1.83-11.88,4.58-11.86,7.39,0,2.02,2.23,2.71,5.63,2.71s5.96-.25,7.43-.48l.13,1.53c-1.93.25-5.06.38-7.52.38-4.16,0-7.18-.97-7.2-4.05-.02-2.25,2.23-4.22,5.52-5.92-.71-1.28-.97-3.72-.97-8.46l2.31.19c-.02.27-.23.44-.65.5-.02,3.67.1,5.96.69,7.1,1.97-.92,4.24-1.76,6.55-2.52l.55,1.74Z"/><path d="M485.42,25.03c-1.89.65-4.18,1.05-6.34,1.3.65,1.13,1.93,2.71,3.46,3.3l-.84,1.2c-.29-.15-.84-.4-1.22-.63-.46-.17-1.49-.31-2.48-.31-.29,0-.59.02-.86.04l-.29-1.15c.71-.04,1.74,0,2.35.08-.57-.61-1.24-1.51-1.66-2.37-1.41.15-2.96.21-5.63.21-1.03,0-2.18,0-3.13-.02l-.02-1.32c.94.02,2.16.04,3.21.04,1.72,0,3.42,0,5.12-.15-.23-.65-.57-1.85-.82-2.79-.84.08-1.78.13-2.65.13-1.13,0-2.58,0-3.57-.04v-1.3c1.26.06,2.65.06,3.55.06.76,0,1.62-.04,2.41-.1-.19-.97-.4-2.12-.57-3.3l2.16.02c0,.25-.19.4-.57.46.13.9.27,1.87.44,2.69,1.97-.19,4.09-.61,5.63-1.22l.36,1.3c-1.53.57-3.61.97-5.71,1.2.27,1.11.55,2.1.8,2.75,2.23-.23,4.64-.71,6.55-1.39l.29,1.32ZM481.73,36.13c-1.15.08-2.54.13-4.62.13-3.4-.02-6.05-1.11-6-3.49.02-1.24,1.11-2.56,2.48-3.32l.94.97c-1.22.65-1.93,1.53-1.93,2.33,0,1.49,1.85,2.14,4.51,2.16,1.57,0,3.23-.08,4.66-.19l-.04,1.41Z"/><path d="M499.37,21.33c-.08.19-.25.34-.52.34-.76,6.53-2.94,12.22-6.42,12.22-1.76,0-3.36-1.76-3.36-5.08,0-5.04,3.93-9.26,9.45-9.26,6.07,0,8.69,3.84,8.69,7.94,0,5-2.9,7.41-7.98,8.59-.19-.34-.55-.9-.88-1.28,4.83-.92,7.31-3.28,7.31-7.24,0-3.46-2.23-6.61-7.14-6.61-.21,0-.44.02-.63.04l1.49.36ZM497.35,21.06c-4.24.52-6.87,4.03-6.87,7.71,0,2.25.97,3.65,1.97,3.65,2.54,0,4.37-5.61,4.89-11.36Z"/><path d="M515.89,25.24l.9.4c-.04.1-.13.17-.19.21-1.13,3.07-3.74,5.4-6.42,6.55-.19-.31-.52-.84-.82-1.11,2.18-.8,4.39-2.58,5.52-4.81h-5.02v-1.18h5.77l.25-.06ZM513.65,33.64c-.52,1.36-1.41,2.67-3,3.4l-1.05-.82c1.45-.61,2.39-1.81,2.88-3.04l1.18.46ZM514.82,21.86v-1.41h-5.08v-1.24h5.08v-1.7l1.83.1c-.02.15-.15.25-.42.29v1.3h5.75v-1.7l1.81.1c-.02.17-.13.25-.4.29v1.3h5.21v1.24h-5.21v1.41h-1.41v-1.41h-5.75v1.41h-1.41ZM524.75,23.01c-.06.1-.21.17-.34.17-.61.52-1.43,1.11-2.31,1.66.29.63.63,1.22,1.05,1.78,1.34-.86,2.98-2.06,3.97-2.96l1.32.94c-.08.1-.25.15-.44.13-1.07.82-2.79,1.95-4.16,2.75,1.34,1.53,3.13,2.73,5.1,3.38-.34.27-.73.8-.94,1.18-2.98-1.15-5.5-3.59-6.93-6.59-.42.23-.84.44-1.26.63v3.3c0,1.32-.57,1.41-3.38,1.41-.06-.36-.25-.82-.44-1.13.52,0,.99.02,1.34.02,1.09,0,1.09-.02,1.09-.31v-4.3l.99.06c.88-.44,1.81-1.01,2.56-1.57h-9.13v-1.15h10.58l.23-.08,1.09.71ZM525.05,32.67h-11.74v-1.24h11.74v1.24ZM516.48,36.89c-.04-.84-.34-2.16-.69-3.19l1.3-.19c.38,1.01.71,2.33.76,3.15l-1.36.23ZM521.42,36.85c-.23-.84-.88-2.18-1.53-3.19l1.15-.38c.69.97,1.39,2.27,1.62,3.13l-1.24.44ZM527.61,37.02c-.67-.94-2.16-2.35-3.44-3.3l1.03-.69c1.28.92,2.79,2.27,3.53,3.23l-1.11.76Z"/><path d="M549.22,21.04h-14.11c-.97,1.91-2.18,3.61-3.51,4.81-.27-.25-.82-.65-1.18-.86,1.95-1.64,3.61-4.49,4.56-7.52l1.78.48c-.04.15-.21.23-.46.23-.19.55-.4,1.09-.61,1.62h13.52v1.24ZM534.02,28.43c1.34.73,2.79,1.64,4.18,2.58,1.01-1.07,1.89-2.25,2.58-3.49l1.64.63c-.06.17-.29.21-.5.19-.71,1.24-1.6,2.39-2.6,3.46,1.6,1.15,3,2.33,3.93,3.34l-1.13,1.07c-.88-1.01-2.25-2.23-3.8-3.4-1.87,1.76-4.07,3.23-6.36,4.33-.21-.29-.67-.8-.99-1.05,2.25-.99,4.41-2.37,6.24-4.09-1.36-.97-2.81-1.89-4.18-2.65l1.01-.92ZM532.4,25.87h13.84c.02,5.61.34,9.76,2.02,9.76.44,0,.55-1.22.59-3.07.29.31.71.65,1.01.82-.15,2.69-.44,3.63-1.68,3.63-2.77,0-3.23-3.97-3.36-9.91h-12.41v-1.24ZM547.16,24.04h-12.32v-1.22h12.32v1.22Z"/><path d="M552.14,23.45c1.28.5,2.83,1.36,3.61,2.04l-.82,1.15c-.76-.67-2.31-1.6-3.57-2.14l.78-1.05ZM551.83,35.92c.9-1.64,2.18-4.43,3.11-6.8l1.11.8c-.84,2.2-1.95,4.81-2.79,6.38.08.13.13.23.13.34,0,.06-.02.15-.06.21l-1.49-.92ZM553.19,17.7c1.22.59,2.71,1.51,3.44,2.25l-.86,1.13c-.71-.73-2.18-1.74-3.4-2.35l.82-1.03ZM565.28,31.7c.36.67.8,1.28,1.34,1.81.92-.44,2.1-1.11,2.81-1.6l1.01.92c-.06.06-.15.1-.25.1-.04,0-.08,0-.15-.02-.67.4-1.76.88-2.67,1.28,1.01.8,2.27,1.41,3.7,1.74-.31.25-.65.73-.84,1.07-2.88-.84-5.06-2.73-6.19-5.31h-2.18v3.38l4.12-.48.04,1.05c-2.35.34-4.77.67-6.32.88-.02.15-.13.25-.27.27l-.55-1.41c.5-.04,1.07-.1,1.68-.17v-3.53h-1.93c-.27,1.83-.88,3.78-2.14,5.29-.23-.25-.78-.61-1.09-.73,1.87-2.16,2.14-5.12,2.14-7.26v-2.86h13.27v1.11h-11.99v1.76c0,.5-.02,1.03-.06,1.6h12.16v1.09h-5.63ZM569.71,19.27v5.75h-11.72v-5.75h3.46v-1.76l1.57.1c-.02.13-.13.23-.4.27v1.39h2.27v-1.76l1.57.1c-.02.13-.13.23-.38.27v1.39h3.61ZM559.28,20.28v1.39h2.18v-1.39h-2.18ZM559.28,22.63v1.39h2.18v-1.39h-2.18ZM569.32,29.39h-9.55v-.99h9.55v.99ZM564.91,20.28h-2.27v1.39h2.27v-1.39ZM564.91,22.63h-2.27v1.39h2.27v-1.39ZM568.39,21.67v-1.39h-2.29v1.39h2.29ZM568.39,24.02v-1.39h-2.29v1.39h2.29Z"/><path d="M591.74,20.97h-16.27v4.87c0,3.28-.25,8.04-2.1,11.25-.23-.25-.82-.65-1.15-.8,1.74-3.04,1.89-7.37,1.89-10.46v-6.17h7.92v-2.16l1.87.13c-.02.15-.12.25-.42.29v1.74h8.27v1.3ZM588.93,29.6l.94.46c-.04.1-.13.17-.21.21-.97,1.74-2.46,3.09-4.28,4.09,1.93.73,4.16,1.22,6.55,1.45-.31.31-.65.86-.84,1.24-2.65-.36-5.1-.99-7.2-1.95-2.27.99-4.91,1.57-7.62,1.91-.1-.36-.38-.88-.61-1.2,2.37-.25,4.75-.71,6.82-1.47-1.45-.86-2.62-1.91-3.51-3.17l.88-.34h-3.34v-1.18h12.16l.25-.06ZM587.82,28.13h-8.04v-3.49h-3.42v-1.18h3.42v-1.93l1.76.13c-.02.15-.15.25-.42.27v1.53h5.31v-1.93l1.81.13c-.02.15-.15.25-.42.27v1.53h3.8v1.18h-3.8v3.49ZM580.28,30.84c.86,1.18,2.12,2.12,3.65,2.9,1.53-.76,2.83-1.7,3.76-2.9h-7.41ZM586.43,24.65h-5.31v2.35h5.31v-2.35Z"/><path d="M28.49,349.38c-.69,1.24-1.43,2.39-2.2,3.36-.15-.34-.48-1.05-.69-1.36,1.81-2.18,3.55-5.84,4.62-9.47l1.66.53c-.06.15-.21.23-.48.23-.46,1.41-1.01,2.81-1.62,4.16l.48.15c-.04.15-.15.23-.4.27v14.07h-1.36v-11.93ZM39.57,342.9v1.28h-4.43c-.17.99-.36,2.06-.65,3.15h3.3c.17-.04.21-.04.25-.04.19.06.38.13.86.32-.02.1-.1.19-.17.25-.86,6.66-3.19,11.17-6.47,13.52-.19-.34-.65-.88-.94-1.11,1.81-1.24,3.32-3.13,4.41-5.73-.61-.67-1.72-1.6-2.67-2.25l.61-1.07c.88.59,1.95,1.39,2.54,2.02.46-1.39.84-2.92,1.07-4.62h-3.13c-.65,2.12-1.55,4.2-2.86,5.73-.19-.29-.61-.76-.88-.99,1.93-2.31,2.88-6.05,3.34-9.18h-2.08v-1.28h7.89ZM40.79,356.44h-1.3v-12.26l1.7.11c-.02.15-.13.25-.4.29v11.86ZM43.43,342.1l1.74.1c-.02.15-.13.25-.4.27v16.96c0,1.74-.8,1.87-4.14,1.87-.06-.38-.27-1.01-.46-1.41.65.02,1.26.04,1.74.04,1.39,0,1.51,0,1.51-.48v-17.36Z"/><path d="M58.14,351c1.85.31,3.42,1.81,3.42,4.07,0,2.5-1.81,4.68-5.33,4.68-1.57,0-3-.5-3.72-1.01l.52-1.34c.57.38,1.83.95,3.21.95,2.65,0,3.51-1.85,3.51-3.3,0-2.31-1.95-3.36-4.01-3.36h-1.03v-1.3h1.03c1.51,0,3.46-.94,3.46-2.92,0-1.37-.82-2.54-2.71-2.54-1.15,0-2.25.57-2.88,1.03l-.52-1.28c.76-.59,2.23-1.18,3.74-1.18,2.88,0,4.16,1.83,4.16,3.72,0,1.62-1.03,3.07-2.86,3.72v.06Z"/><path d="M75.04,346.42c0,.78-.63,1.41-1.43,1.41s-1.43-.63-1.43-1.41.63-1.43,1.43-1.43c.84,0,1.43.67,1.43,1.43ZM75.04,356.63c0,.8-.63,1.43-1.43,1.43s-1.43-.63-1.43-1.43.63-1.41,1.43-1.41c.84,0,1.43.67,1.43,1.41Z"/><path d="M113.81,346.3c-.04.15-.19.25-.44.27-.57,3.04-1.72,5.29-6.47,6.45-.15-.36-.5-.9-.78-1.18,4.33-.95,5.44-2.83,5.84-5.73l1.85.19ZM116.28,354.93v4.39h8.71v1.32h-18.75v-1.32h8.59v-4.39h-6.32v-1.3h14.34v1.3h-6.57ZM108.14,345.63v2.88h-1.41v-4.18h8.1v-2.56l1.87.13c-.02.15-.15.25-.42.29v2.14h8.19v4.18h-1.45v-2.88h-14.89ZM117.27,345.94l1.81.11c-.02.15-.13.25-.42.29v3.84c0,.5.15.61,1.07.61h3.17c.67,0,.8-.19.86-1.43.29.21.86.4,1.26.48-.17,1.74-.59,2.18-1.95,2.18h-3.46c-1.87,0-2.33-.38-2.33-1.83v-4.26Z"/><path d="M145.68,345.31h-14.11c-.97,1.91-2.18,3.61-3.51,4.81-.27-.25-.82-.65-1.18-.86,1.95-1.64,3.61-4.49,4.56-7.52l1.78.48c-.04.15-.21.23-.46.23-.19.55-.4,1.09-.61,1.62h13.52v1.24ZM130.48,352.7c1.34.74,2.79,1.64,4.18,2.58,1.01-1.07,1.89-2.25,2.58-3.49l1.64.63c-.06.17-.29.21-.5.19-.71,1.24-1.6,2.39-2.6,3.46,1.6,1.15,3,2.33,3.93,3.34l-1.13,1.07c-.88-1.01-2.25-2.23-3.8-3.4-1.87,1.76-4.07,3.23-6.36,4.33-.21-.29-.67-.8-.99-1.05,2.25-.99,4.41-2.37,6.24-4.09-1.36-.97-2.81-1.89-4.18-2.65l1.01-.92ZM128.87,350.14h13.84c.02,5.61.34,9.76,2.02,9.76.44,0,.55-1.22.59-3.07.29.31.71.65,1.01.82-.15,2.69-.44,3.63-1.68,3.63-2.77,0-3.23-3.97-3.36-9.91h-12.41v-1.24ZM143.63,348.31h-12.32v-1.22h12.32v1.22Z"/><path d="M157.82,359.5v-14.09h-.04l-2.58,1.49-.42-1.3,3.25-1.83h1.49v15.73h-1.7Z"/><path d="M164.78,351.69c0-5.5,2.14-8.17,5.08-8.17s4.81,2.81,4.81,7.96c0,5.46-1.91,8.27-5.04,8.27-2.86,0-4.85-2.81-4.85-8.06ZM172.9,351.57c0-3.93-.94-6.63-3.15-6.63-1.87,0-3.19,2.5-3.19,6.63s1.15,6.76,3.13,6.76c2.33,0,3.21-3.02,3.21-6.76Z"/><path d="M176.35,351.69c0-5.5,2.14-8.17,5.08-8.17s4.81,2.81,4.81,7.96c0,5.46-1.91,8.27-5.04,8.27-2.86,0-4.85-2.81-4.85-8.06ZM184.47,351.57c0-3.93-.94-6.63-3.15-6.63-1.87,0-3.19,2.5-3.19,6.63s1.15,6.76,3.13,6.76c2.33,0,3.21-3.02,3.21-6.76Z"/><path d="M197.22,359.5h-8.36v-16h1.74v14.51h6.61v1.49Z"/><path d="M208.48,343.34c-.06.23-.27.36-.69.34-.73,3.42-1.11,7.18-1.11,9.45,0,1.58.06,3.17.27,4.16.4-1.03,1.3-3.23,1.6-3.97l.88.92c-.86,2.12-1.49,3.32-1.78,4.26-.1.36-.17.69-.17.99,0,.23.04.44.1.65l-1.49.27c-.67-2-.92-4.43-.92-7.22s.44-6.59,1.11-10.23l2.2.38ZM221.85,358.69c-.76.04-1.53.06-2.31.06-1.49,0-2.9-.08-3.91-.23-2.58-.38-3.78-1.81-3.78-3.49,0-1.45.8-2.67,1.97-4.05l1.36.59c-1.05,1.09-1.78,2.1-1.78,3.3,0,2.44,3.57,2.44,5.75,2.44.88,0,1.83-.04,2.71-.11l-.02,1.49ZM212.13,345.86c2.71-.06,6.36-.31,9.15-.8l.13,1.47c-2.6.44-6.82.71-9.24.78l-.04-1.45Z"/><path d="M226.75,348.92c1.13,1.2,2.35,2.58,3.44,3.95.63-1.68,1.09-3.57,1.41-5.65l1.74.34c-.04.17-.19.25-.46.27-.4,2.33-.97,4.43-1.74,6.28,1.03,1.36,1.87,2.67,2.41,3.72l-1.13.97c-.44-.92-1.13-2.04-1.95-3.23-1.2,2.31-2.81,4.14-4.96,5.48-.19-.32-.61-.8-.88-1.07,2.18-1.28,3.8-3.19,4.96-5.63-1.2-1.6-2.56-3.23-3.84-4.62l1.01-.8ZM234.91,345.42v1.32h-10.18v-1.32h4.43v-3.61l1.76.1c-.02.15-.13.25-.4.29v3.21h4.39ZM244.17,346.99v1.34h-2.58v10.96c0,1.93-1.07,1.97-4.37,1.97-.06-.4-.27-1.05-.48-1.47.69.02,1.32.02,1.85.02,1.53,0,1.6,0,1.6-.5v-10.98h-5.94v-1.34h5.94v-5.23l1.83.1c-.04.17-.15.27-.42.29v4.83h2.58ZM235.75,350.69c1.03,1.47,2.06,3.44,2.39,4.72l-1.24.63c-.34-1.3-1.32-3.34-2.33-4.83l1.18-.53Z"/><path d="M252.57,342.69c-.04.25-.23.4-.65.46-.17,2.44-.38,8-.38,11.11s1.55,4.64,4.2,4.64,5.17-1.28,7.56-3.99c.21.34.69,1.01.94,1.24-2.46,2.79-5.44,4.26-8.52,4.26-3.82,0-5.77-2.21-5.77-6.17,0-2.65.19-9.15.34-11.74l2.29.19Z"/><path d="M267.67,344.62c1.57-.06,14.51-.99,17.24-1.01l.02,1.57c-.27-.02-.52-.02-.78-.02-1.22,0-2.25.21-3.59,1.07-3.15,1.89-6.19,5.27-6.19,7.98,0,2.94,2.06,4.68,7.26,5.35l-.69,1.47c-5.96-.86-8.19-3.09-8.19-6.82,0-2.96,2.92-6.55,6.76-8.96-2.23.15-8.5.63-11.21.88-.06.17-.29.31-.46.34l-.17-1.85Z"/><path d="M305.35,347.37c-.02.08-.08.19-.17.25-.29,6.07-.88,9.83-1.7,11.32-.84,1.51-2.14,1.53-2.75,1.53-.8,0-2.29-.19-3.74-.5.02-.42-.02-1.05-.06-1.47,1.57.34,3.19.5,3.67.5.76,0,1.18-.19,1.6-.99.65-1.26,1.15-4.77,1.36-9.49h-6.7c-1.07,5.02-3.15,9.13-6.93,12.01-.27-.27-.82-.69-1.2-.95,3.61-2.71,5.52-6.28,6.55-11.09h-5.79v-1.41h6.07c.25-1.47.4-2.83.5-4.6l2.08.19c-.02.21-.23.34-.52.38-.13,1.53-.25,2.71-.48,4.05h6.82l.31-.13,1.07.38ZM301.8,342.31c.94.84,2.08,2.27,2.65,3.23l-.84.59c-.52-.88-1.72-2.42-2.6-3.25l.8-.57ZM305.07,341.39c.92.88,2.1,2.27,2.67,3.21l-.86.59c-.52-.88-1.72-2.37-2.58-3.21l.78-.59Z"/><path d="M311.86,344.51c1.47,1.72,2.96,4.26,3.61,5.96l-1.45.74c-.59-1.66-2.08-4.28-3.49-6l1.32-.69ZM326.56,344.76c-.06.19-.21.27-.55.27-2.12,7.83-6.15,12.43-12.05,15.12-.23-.32-.71-.84-1.07-1.11,5.77-2.54,9.66-6.91,11.65-14.93l2.02.65Z"/><path d="M333.78,353.98v-10.2l1.99.13c-.02.19-.17.34-.5.38v9.7h-1.49ZM345.48,342.96c-.02.21-.17.32-.5.36v6.68c0,4.41-1.51,8.44-7.54,10.77-.21-.31-.73-.86-1.09-1.13,5.82-2.16,7.12-5.75,7.12-9.64v-7.16l2.02.13Z"/><path d="M353.21,344.07c2.18.69,4.7,1.78,6.26,2.86l-.8,1.32c-1.51-1.07-3.99-2.18-6.13-2.92l.67-1.26ZM353.12,358.62c7.45-2.31,12.41-6.49,14.93-12.3.44.36.92.63,1.36.86-2.62,5.75-7.75,10.22-14.87,12.6-.02.19-.15.4-.29.48l-1.13-1.64Z"/><path d="M379.83,342.79c-.04.25-.29.36-.69.38-.23,1.18-.61,3.21-.86,4.47.94-.11,1.81-.19,2.33-.19,3.19-.04,4.28,2.08,4.28,5.23,0,1.57-.29,3.44-.71,4.7-.65,2.14-1.99,3.17-3.74,3.17-.86,0-1.99-.36-3.8-1.83.23-.38.4-.84.57-1.28,1.68,1.3,2.56,1.6,3.21,1.6,1.2,0,1.91-.76,2.33-2.1.44-1.3.67-3.23.67-4.3-.02-2.39-.8-3.82-2.9-3.8-.63,0-1.49.08-2.56.21-1.05,4.28-2.29,7.96-4.3,11.34l-1.39-.67c2.04-3.25,3.19-6.51,4.18-10.5-1.07.13-2.6.32-3.74.5l-.13-1.47c1.03-.13,2.75-.31,4.16-.48.31-1.53.65-3.42.9-5.27l2.18.29ZM384.71,342.14c1.01.78,2.2,2.04,2.81,2.94l-.82.59c-.59-.9-1.85-2.23-2.77-2.92l.78-.61ZM389.41,354.36c-.69-3.02-2.35-5.56-4.28-7.16l1.22-.82c2.08,1.74,3.88,4.37,4.58,7.41l-1.51.57ZM387.88,341.32c1.03.76,2.23,2.02,2.83,2.92l-.82.61c-.59-.9-1.85-2.25-2.77-2.94l.76-.59Z"/><path d="M402.66,359.5v-14.09h-.04l-2.58,1.49-.42-1.3,3.25-1.83h1.49v15.73h-1.7Z"/><path d="M409.61,351.69c0-5.5,2.14-8.17,5.08-8.17s4.81,2.81,4.81,7.96c0,5.46-1.91,8.27-5.04,8.27-2.86,0-4.85-2.81-4.85-8.06ZM417.74,351.57c0-3.93-.94-6.63-3.15-6.63-1.87,0-3.19,2.5-3.19,6.63s1.15,6.76,3.13,6.76c2.33,0,3.21-3.02,3.21-6.76Z"/><path d="M430.49,359.5h-8.36v-16h1.74v14.51h6.61v1.49Z"/><path d="M447.94,345.6c-.08.19-.25.34-.52.34-.76,6.53-2.94,12.22-6.42,12.22-1.76,0-3.36-1.76-3.36-5.08,0-5.04,3.93-9.26,9.45-9.26,6.07,0,8.69,3.84,8.69,7.94,0,5-2.9,7.41-7.98,8.59-.19-.34-.55-.9-.88-1.28,4.83-.92,7.31-3.28,7.31-7.24,0-3.46-2.23-6.61-7.14-6.61-.21,0-.44.02-.63.04l1.49.36ZM445.92,345.33c-4.24.52-6.87,4.03-6.87,7.71,0,2.25.97,3.65,1.97,3.65,2.54,0,4.37-5.61,4.89-11.36Z"/><path d="M474.37,349.24s-.1.02-.17.02c-.15,0-.31-.04-.44-.13-6.24,1.83-11.88,4.58-11.86,7.39,0,2.02,2.23,2.71,5.63,2.71s5.96-.25,7.43-.48l.13,1.53c-1.93.25-5.06.38-7.52.38-4.16,0-7.18-.97-7.2-4.05-.02-2.25,2.23-4.22,5.52-5.92-.71-1.28-.97-3.72-.97-8.46l2.31.19c-.02.27-.23.44-.65.5-.02,3.67.1,5.96.69,7.1,1.97-.92,4.24-1.76,6.55-2.52l.55,1.74Z"/><path d="M496.99,349.3c-1.89.65-4.18,1.05-6.34,1.3.65,1.13,1.93,2.71,3.46,3.3l-.84,1.2c-.29-.15-.84-.4-1.22-.63-.46-.17-1.49-.31-2.48-.31-.29,0-.59.02-.86.04l-.29-1.16c.71-.04,1.74,0,2.35.08-.57-.61-1.24-1.51-1.66-2.37-1.41.15-2.96.21-5.63.21-1.03,0-2.18,0-3.13-.02l-.02-1.32c.94.02,2.16.04,3.21.04,1.72,0,3.42,0,5.12-.15-.23-.65-.57-1.85-.82-2.79-.84.08-1.78.13-2.65.13-1.13,0-2.58,0-3.57-.04v-1.3c1.26.06,2.65.06,3.55.06.76,0,1.62-.04,2.41-.1-.19-.97-.4-2.12-.57-3.3l2.16.02c0,.25-.19.4-.57.46.13.9.27,1.87.44,2.69,1.97-.19,4.09-.61,5.63-1.22l.36,1.3c-1.53.57-3.61.97-5.71,1.2.27,1.11.55,2.1.8,2.75,2.23-.23,4.64-.71,6.55-1.39l.29,1.32ZM493.3,360.41c-1.15.08-2.54.13-4.62.13-3.4-.02-6.05-1.11-6-3.49.02-1.24,1.11-2.56,2.48-3.32l.94.97c-1.22.65-1.93,1.53-1.93,2.33,0,1.49,1.85,2.14,4.51,2.16,1.57,0,3.23-.08,4.66-.19l-.04,1.41Z"/><path d="M510.94,345.6c-.08.19-.25.34-.52.34-.76,6.53-2.94,12.22-6.42,12.22-1.76,0-3.36-1.76-3.36-5.08,0-5.04,3.93-9.26,9.45-9.26,6.07,0,8.69,3.84,8.69,7.94,0,5-2.9,7.41-7.98,8.59-.19-.34-.55-.9-.88-1.28,4.83-.92,7.31-3.28,7.31-7.24,0-3.46-2.23-6.61-7.14-6.61-.21,0-.44.02-.63.04l1.49.36ZM508.92,345.33c-4.24.52-6.87,4.03-6.87,7.71,0,2.25.97,3.65,1.97,3.65,2.54,0,4.37-5.61,4.89-11.36Z"/><path d="M527.46,349.51l.9.4c-.04.1-.13.17-.19.21-1.13,3.07-3.74,5.4-6.42,6.55-.19-.32-.52-.84-.82-1.11,2.18-.8,4.39-2.58,5.52-4.81h-5.02v-1.18h5.77l.25-.06ZM525.22,357.91c-.52,1.37-1.41,2.67-3,3.4l-1.05-.82c1.45-.61,2.39-1.81,2.88-3.04l1.18.46ZM526.39,346.13v-1.41h-5.08v-1.24h5.08v-1.7l1.83.11c-.02.15-.15.25-.42.29v1.3h5.75v-1.7l1.81.11c-.02.17-.13.25-.4.29v1.3h5.21v1.24h-5.21v1.41h-1.41v-1.41h-5.75v1.41h-1.41ZM536.32,347.28c-.06.11-.21.17-.34.17-.61.53-1.43,1.11-2.31,1.66.29.63.63,1.22,1.05,1.78,1.34-.86,2.98-2.06,3.97-2.96l1.32.94c-.08.11-.25.15-.44.13-1.07.82-2.79,1.95-4.16,2.75,1.34,1.53,3.13,2.73,5.1,3.38-.34.27-.73.8-.94,1.18-2.98-1.15-5.5-3.59-6.93-6.59-.42.23-.84.44-1.26.63v3.3c0,1.32-.57,1.41-3.38,1.41-.06-.36-.25-.82-.44-1.13.52,0,.99.02,1.34.02,1.09,0,1.09-.02,1.09-.32v-4.3l.99.06c.88-.44,1.81-1.01,2.56-1.57h-9.13v-1.16h10.58l.23-.08,1.09.71ZM536.62,356.94h-11.74v-1.24h11.74v1.24ZM528.05,361.16c-.04-.84-.34-2.16-.69-3.19l1.3-.19c.38,1.01.71,2.33.76,3.15l-1.36.23ZM532.99,361.12c-.23-.84-.88-2.18-1.53-3.19l1.15-.38c.69.97,1.39,2.27,1.62,3.13l-1.24.44ZM539.18,361.29c-.67-.95-2.16-2.35-3.44-3.3l1.03-.69c1.28.92,2.79,2.27,3.53,3.23l-1.11.76Z"/><path d="M560.79,345.31h-14.11c-.97,1.91-2.18,3.61-3.51,4.81-.27-.25-.82-.65-1.18-.86,1.95-1.64,3.61-4.49,4.56-7.52l1.78.48c-.04.15-.21.23-.46.23-.19.55-.4,1.09-.61,1.62h13.52v1.24ZM545.59,352.7c1.34.74,2.79,1.64,4.18,2.58,1.01-1.07,1.89-2.25,2.58-3.49l1.64.63c-.06.17-.29.21-.5.19-.71,1.24-1.6,2.39-2.6,3.46,1.6,1.15,3,2.33,3.93,3.34l-1.13,1.07c-.88-1.01-2.25-2.23-3.8-3.4-1.87,1.76-4.07,3.23-6.36,4.33-.21-.29-.67-.8-.99-1.05,2.25-.99,4.41-2.37,6.24-4.09-1.36-.97-2.81-1.89-4.18-2.65l1.01-.92ZM543.97,350.14h13.84c.02,5.61.34,9.76,2.02,9.76.44,0,.55-1.22.59-3.07.29.31.71.65,1.01.82-.15,2.69-.44,3.63-1.68,3.63-2.77,0-3.23-3.97-3.36-9.91h-12.41v-1.24ZM558.73,348.31h-12.32v-1.22h12.32v1.22Z"/><path d="M563.71,347.73c1.28.5,2.83,1.36,3.61,2.04l-.82,1.16c-.76-.67-2.31-1.6-3.57-2.14l.78-1.05ZM563.4,360.2c.9-1.64,2.18-4.43,3.11-6.8l1.11.8c-.84,2.2-1.95,4.81-2.79,6.38.08.13.13.23.13.34,0,.06-.02.15-.06.21l-1.49-.92ZM564.76,341.97c1.22.59,2.71,1.51,3.44,2.25l-.86,1.13c-.71-.73-2.18-1.74-3.4-2.35l.82-1.03ZM576.86,355.98c.36.67.8,1.28,1.34,1.81.92-.44,2.1-1.11,2.81-1.6l1.01.92c-.06.06-.15.11-.25.11-.04,0-.08,0-.15-.02-.67.4-1.76.88-2.67,1.28,1.01.8,2.27,1.41,3.7,1.74-.31.25-.65.74-.84,1.07-2.88-.84-5.06-2.73-6.19-5.31h-2.18v3.38l4.12-.48.04,1.05c-2.35.34-4.77.67-6.32.88-.02.15-.13.25-.27.27l-.55-1.41c.5-.04,1.07-.1,1.68-.17v-3.53h-1.93c-.27,1.83-.88,3.78-2.14,5.29-.23-.25-.78-.61-1.09-.73,1.87-2.16,2.14-5.12,2.14-7.26v-2.86h13.27v1.11h-11.99v1.76c0,.5-.02,1.03-.06,1.6h12.16v1.09h-5.63ZM581.29,343.55v5.75h-11.72v-5.75h3.46v-1.76l1.57.11c-.02.13-.13.23-.4.27v1.39h2.27v-1.76l1.57.11c-.02.13-.13.23-.38.27v1.39h3.61ZM570.85,344.56v1.39h2.18v-1.39h-2.18ZM570.85,346.91v1.39h2.18v-1.39h-2.18ZM580.89,353.67h-9.55v-.99h9.55v.99ZM576.48,344.56h-2.27v1.39h2.27v-1.39ZM576.48,346.91h-2.27v1.39h2.27v-1.39ZM579.96,345.94v-1.39h-2.29v1.39h2.29ZM579.96,348.29v-1.39h-2.29v1.39h2.29Z"/><path d="M603.31,345.25h-16.27v4.87c0,3.28-.25,8.04-2.1,11.25-.23-.25-.82-.65-1.15-.8,1.74-3.04,1.89-7.37,1.89-10.46v-6.17h7.92v-2.16l1.87.13c-.02.15-.13.25-.42.29v1.74h8.27v1.3ZM600.5,353.88l.95.46c-.04.11-.13.17-.21.21-.96,1.74-2.46,3.09-4.28,4.09,1.93.73,4.16,1.22,6.55,1.45-.31.32-.65.86-.84,1.24-2.64-.36-5.1-.99-7.2-1.95-2.27.99-4.91,1.58-7.62,1.91-.11-.36-.38-.88-.61-1.2,2.37-.25,4.75-.71,6.82-1.47-1.45-.86-2.62-1.91-3.51-3.17l.88-.34h-3.34v-1.18h12.16l.25-.06ZM599.39,352.41h-8.04v-3.49h-3.42v-1.18h3.42v-1.93l1.76.13c-.02.15-.15.25-.42.27v1.53h5.31v-1.93l1.8.13c-.02.15-.15.25-.42.27v1.53h3.8v1.18h-3.8v3.49ZM591.85,355.12c.86,1.18,2.12,2.12,3.65,2.9,1.53-.76,2.83-1.7,3.76-2.9h-7.41ZM598,348.92h-5.31v2.35h5.31v-2.35Z"/><path d="M28.49,187.41c-.69,1.24-1.43,2.39-2.2,3.36-.15-.34-.48-1.05-.69-1.36,1.81-2.18,3.55-5.84,4.62-9.47l1.66.52c-.06.15-.21.23-.48.23-.46,1.41-1.01,2.81-1.62,4.16l.48.15c-.04.15-.15.23-.4.27v14.07h-1.36v-11.93ZM39.57,180.92v1.28h-4.43c-.17.99-.36,2.06-.65,3.15h3.3c.17-.04.21-.04.25-.04.19.06.38.13.86.31-.02.1-.1.19-.17.25-.86,6.66-3.19,11.17-6.47,13.52-.19-.34-.65-.88-.94-1.11,1.81-1.24,3.32-3.13,4.41-5.73-.61-.67-1.72-1.6-2.67-2.25l.61-1.07c.88.59,1.95,1.39,2.54,2.02.46-1.39.84-2.92,1.07-4.62h-3.13c-.65,2.12-1.55,4.2-2.86,5.73-.19-.29-.61-.76-.88-.99,1.93-2.31,2.88-6.05,3.34-9.18h-2.08v-1.28h7.89ZM40.79,194.47h-1.3v-12.26l1.7.1c-.02.15-.13.25-.4.29v11.86ZM43.43,180.12l1.74.1c-.02.15-.13.25-.4.27v16.96c0,1.74-.8,1.87-4.14,1.87-.06-.38-.27-1.01-.46-1.41.65.02,1.26.04,1.74.04,1.39,0,1.51,0,1.51-.48v-17.36Z"/><path d="M61.87,197.53h-9.3v-1.07l1.53-1.62c3.74-3.78,5.63-6.07,5.63-8.63,0-1.68-.73-3.23-3-3.23-1.26,0-2.39.69-3.15,1.3l-.59-1.22c.97-.86,2.39-1.53,4.07-1.53,3.17,0,4.43,2.31,4.43,4.47,0,2.96-2.08,5.48-5.33,8.76l-1.24,1.3v.04h6.95v1.43Z"/><path d="M75.04,184.45c0,.78-.63,1.41-1.43,1.41s-1.43-.63-1.43-1.41.63-1.43,1.43-1.43c.84,0,1.43.67,1.43,1.43ZM75.04,194.65c0,.8-.63,1.43-1.43,1.43s-1.43-.63-1.43-1.43.63-1.41,1.43-1.41c.84,0,1.43.67,1.43,1.41Z"/><path d="M113.81,184.32c-.04.15-.19.25-.44.27-.57,3.04-1.72,5.29-6.47,6.45-.15-.36-.5-.9-.78-1.18,4.33-.94,5.44-2.83,5.84-5.73l1.85.19ZM116.28,192.95v4.39h8.71v1.32h-18.75v-1.32h8.59v-4.39h-6.32v-1.3h14.34v1.3h-6.57ZM108.14,183.65v2.88h-1.41v-4.18h8.1v-2.56l1.87.13c-.02.15-.15.25-.42.29v2.14h8.19v4.18h-1.45v-2.88h-14.89ZM117.27,183.97l1.81.1c-.02.15-.13.25-.42.29v3.84c0,.5.15.61,1.07.61h3.17c.67,0,.8-.19.86-1.43.29.21.86.4,1.26.48-.17,1.74-.59,2.18-1.95,2.18h-3.46c-1.87,0-2.33-.38-2.33-1.83v-4.26Z"/><path d="M145.68,183.34h-14.11c-.97,1.91-2.18,3.61-3.51,4.81-.27-.25-.82-.65-1.18-.86,1.95-1.64,3.61-4.49,4.56-7.52l1.78.48c-.04.15-.21.23-.46.23-.19.55-.4,1.09-.61,1.62h13.52v1.24ZM130.48,190.73c1.34.73,2.79,1.64,4.18,2.58,1.01-1.07,1.89-2.25,2.58-3.49l1.64.63c-.06.17-.29.21-.5.19-.71,1.24-1.6,2.39-2.6,3.46,1.6,1.15,3,2.33,3.93,3.34l-1.13,1.07c-.88-1.01-2.25-2.23-3.8-3.4-1.87,1.76-4.07,3.23-6.36,4.33-.21-.29-.67-.8-.99-1.05,2.25-.99,4.41-2.37,6.24-4.09-1.36-.97-2.81-1.89-4.18-2.65l1.01-.92ZM128.87,188.17h13.84c.02,5.61.34,9.76,2.02,9.76.44,0,.55-1.22.59-3.07.29.31.71.65,1.01.82-.15,2.69-.44,3.63-1.68,3.63-2.77,0-3.23-3.97-3.36-9.91h-12.41v-1.24ZM143.63,186.34h-12.32v-1.22h12.32v1.22Z"/><path d="M157.82,197.53v-14.09h-.04l-2.58,1.49-.42-1.3,3.25-1.83h1.49v15.73h-1.7Z"/><path d="M164.78,189.72c0-5.5,2.14-8.17,5.08-8.17s4.81,2.81,4.81,7.96c0,5.46-1.91,8.27-5.04,8.27-2.86,0-4.85-2.81-4.85-8.06ZM172.9,189.59c0-3.93-.94-6.63-3.15-6.63-1.87,0-3.19,2.5-3.19,6.63s1.15,6.76,3.13,6.76c2.33,0,3.21-3.02,3.21-6.76Z"/><path d="M176.35,189.72c0-5.5,2.14-8.17,5.08-8.17s4.81,2.81,4.81,7.96c0,5.46-1.91,8.27-5.04,8.27-2.86,0-4.85-2.81-4.85-8.06ZM184.47,189.59c0-3.93-.94-6.63-3.15-6.63-1.87,0-3.19,2.5-3.19,6.63s1.15,6.76,3.13,6.76c2.33,0,3.21-3.02,3.21-6.76Z"/><path d="M197.22,197.53h-8.36v-16h1.74v14.51h6.61v1.49Z"/><path d="M208.48,181.36c-.06.23-.27.36-.69.34-.73,3.42-1.11,7.18-1.11,9.45,0,1.57.06,3.17.27,4.16.4-1.03,1.3-3.23,1.6-3.97l.88.92c-.86,2.12-1.49,3.32-1.78,4.26-.1.36-.17.69-.17.99,0,.23.04.44.1.65l-1.49.27c-.67-1.99-.92-4.43-.92-7.22s.44-6.59,1.11-10.23l2.2.38ZM221.85,196.71c-.76.04-1.53.06-2.31.06-1.49,0-2.9-.08-3.91-.23-2.58-.38-3.78-1.81-3.78-3.49,0-1.45.8-2.67,1.97-4.05l1.36.59c-1.05,1.09-1.78,2.1-1.78,3.3,0,2.44,3.57,2.44,5.75,2.44.88,0,1.83-.04,2.71-.1l-.02,1.49ZM212.13,183.88c2.71-.06,6.36-.31,9.15-.8l.13,1.47c-2.6.44-6.82.71-9.24.78l-.04-1.45Z"/><path d="M226.75,186.95c1.13,1.2,2.35,2.58,3.44,3.95.63-1.68,1.09-3.57,1.41-5.65l1.74.34c-.04.17-.19.25-.46.27-.4,2.33-.97,4.43-1.74,6.28,1.03,1.36,1.87,2.67,2.41,3.72l-1.13.97c-.44-.92-1.13-2.04-1.95-3.23-1.2,2.31-2.81,4.14-4.96,5.48-.19-.31-.61-.8-.88-1.07,2.18-1.28,3.8-3.19,4.96-5.63-1.2-1.6-2.56-3.23-3.84-4.62l1.01-.8ZM234.91,183.44v1.32h-10.18v-1.32h4.43v-3.61l1.76.1c-.02.15-.13.25-.4.29v3.21h4.39ZM244.17,185.02v1.34h-2.58v10.96c0,1.93-1.07,1.97-4.37,1.97-.06-.4-.27-1.05-.48-1.47.69.02,1.32.02,1.85.02,1.53,0,1.6,0,1.6-.5v-10.98h-5.94v-1.34h5.94v-5.23l1.83.1c-.04.17-.15.27-.42.29v4.83h2.58ZM235.75,188.71c1.03,1.47,2.06,3.44,2.39,4.72l-1.24.63c-.34-1.3-1.32-3.34-2.33-4.83l1.18-.52Z"/><path d="M252.57,180.71c-.04.25-.23.4-.65.46-.17,2.44-.38,8-.38,11.11s1.55,4.64,4.2,4.64,5.17-1.28,7.56-3.99c.21.34.69,1.01.94,1.24-2.46,2.79-5.44,4.26-8.52,4.26-3.82,0-5.77-2.2-5.77-6.17,0-2.65.19-9.15.34-11.74l2.29.19Z"/><path d="M267.67,182.64c1.57-.06,14.51-.99,17.24-1.01l.02,1.57c-.27-.02-.52-.02-.78-.02-1.22,0-2.25.21-3.59,1.07-3.15,1.89-6.19,5.27-6.19,7.98,0,2.94,2.06,4.68,7.26,5.35l-.69,1.47c-5.96-.86-8.19-3.09-8.19-6.82,0-2.96,2.92-6.55,6.76-8.97-2.23.15-8.5.63-11.21.88-.06.17-.29.31-.46.34l-.17-1.85Z"/><path d="M305.35,185.39c-.02.08-.08.19-.17.25-.29,6.07-.88,9.83-1.7,11.32-.84,1.51-2.14,1.53-2.75,1.53-.8,0-2.29-.19-3.74-.5.02-.42-.02-1.05-.06-1.47,1.57.34,3.19.5,3.67.5.76,0,1.18-.19,1.6-.99.65-1.26,1.15-4.77,1.36-9.49h-6.7c-1.07,5.02-3.15,9.13-6.93,12.01-.27-.27-.82-.69-1.2-.94,3.61-2.71,5.52-6.28,6.55-11.09h-5.79v-1.41h6.07c.25-1.47.4-2.83.5-4.6l2.08.19c-.02.21-.23.34-.52.38-.13,1.53-.25,2.71-.48,4.05h6.82l.31-.13,1.07.38ZM301.8,180.33c.94.84,2.08,2.27,2.65,3.23l-.84.59c-.52-.88-1.72-2.41-2.6-3.25l.8-.57ZM305.07,179.41c.92.88,2.1,2.27,2.67,3.21l-.86.59c-.52-.88-1.72-2.37-2.58-3.21l.78-.59Z"/><path d="M311.86,182.54c1.47,1.72,2.96,4.26,3.61,5.96l-1.45.73c-.59-1.66-2.08-4.28-3.49-6l1.32-.69ZM326.56,182.79c-.06.19-.21.27-.55.27-2.12,7.83-6.15,12.43-12.05,15.12-.23-.31-.71-.84-1.07-1.11,5.77-2.54,9.66-6.91,11.65-14.93l2.02.65Z"/><path d="M333.78,192.01v-10.2l1.99.13c-.02.19-.17.34-.5.38v9.7h-1.49ZM345.48,180.99c-.02.21-.17.31-.5.36v6.68c0,4.41-1.51,8.44-7.54,10.77-.21-.31-.73-.86-1.09-1.13,5.82-2.16,7.12-5.75,7.12-9.64v-7.16l2.02.13Z"/><path d="M353.21,182.1c2.18.69,4.7,1.78,6.26,2.86l-.8,1.32c-1.51-1.07-3.99-2.18-6.13-2.92l.67-1.26ZM353.12,196.65c7.45-2.31,12.41-6.49,14.93-12.3.44.36.92.63,1.36.86-2.62,5.75-7.75,10.23-14.87,12.6-.02.19-.15.4-.29.48l-1.13-1.64Z"/><path d="M379.83,180.82c-.04.25-.29.36-.69.38-.23,1.18-.61,3.21-.86,4.47.94-.1,1.81-.19,2.33-.19,3.19-.04,4.28,2.08,4.28,5.23,0,1.57-.29,3.44-.71,4.7-.65,2.14-1.99,3.17-3.74,3.17-.86,0-1.99-.36-3.8-1.83.23-.38.4-.84.57-1.28,1.68,1.3,2.56,1.6,3.21,1.6,1.2,0,1.91-.76,2.33-2.1.44-1.3.67-3.23.67-4.3-.02-2.39-.8-3.82-2.9-3.8-.63,0-1.49.08-2.56.21-1.05,4.28-2.29,7.96-4.3,11.34l-1.39-.67c2.04-3.25,3.19-6.51,4.18-10.5-1.07.13-2.6.31-3.74.5l-.13-1.47c1.03-.13,2.75-.31,4.16-.48.31-1.53.65-3.42.9-5.27l2.18.29ZM384.71,180.17c1.01.78,2.2,2.04,2.81,2.94l-.82.59c-.59-.9-1.85-2.23-2.77-2.92l.78-.61ZM389.41,192.39c-.69-3.02-2.35-5.56-4.28-7.16l1.22-.82c2.08,1.74,3.88,4.37,4.58,7.41l-1.51.57ZM387.88,179.35c1.03.76,2.23,2.02,2.83,2.92l-.82.61c-.59-.9-1.85-2.25-2.77-2.94l.76-.59Z"/><path d="M403.8,189.03c1.85.31,3.42,1.81,3.42,4.07,0,2.5-1.81,4.68-5.33,4.68-1.57,0-3-.5-3.72-1.01l.52-1.34c.57.38,1.83.94,3.21.94,2.65,0,3.51-1.85,3.51-3.3,0-2.31-1.95-3.36-4.01-3.36h-1.03v-1.3h1.03c1.51,0,3.46-.94,3.46-2.92,0-1.36-.82-2.54-2.71-2.54-1.15,0-2.25.57-2.88,1.03l-.52-1.28c.76-.59,2.23-1.18,3.74-1.18,2.88,0,4.16,1.83,4.16,3.72,0,1.62-1.03,3.07-2.86,3.72v.06Z"/><path d="M418.92,197.53h-8.36v-16h1.74v14.51h6.61v1.49Z"/><path d="M436.37,183.63c-.08.19-.25.34-.52.34-.76,6.53-2.94,12.22-6.42,12.22-1.76,0-3.36-1.76-3.36-5.08,0-5.04,3.93-9.26,9.45-9.26,6.07,0,8.69,3.84,8.69,7.94,0,5-2.9,7.41-7.98,8.59-.19-.34-.55-.9-.88-1.28,4.83-.92,7.31-3.28,7.31-7.24,0-3.46-2.23-6.61-7.14-6.61-.21,0-.44.02-.63.04l1.49.36ZM434.35,183.36c-4.24.52-6.87,4.03-6.87,7.71,0,2.25.97,3.65,1.97,3.65,2.54,0,4.37-5.61,4.89-11.36Z"/><path d="M462.8,187.26s-.1.02-.17.02c-.15,0-.31-.04-.44-.13-6.24,1.83-11.88,4.58-11.86,7.39,0,2.02,2.23,2.71,5.63,2.71s5.96-.25,7.43-.48l.13,1.53c-1.93.25-5.06.38-7.52.38-4.16,0-7.18-.97-7.2-4.05-.02-2.25,2.23-4.22,5.52-5.92-.71-1.28-.97-3.72-.97-8.46l2.31.19c-.02.27-.23.44-.65.5-.02,3.67.1,5.96.69,7.1,1.97-.92,4.24-1.76,6.55-2.52l.55,1.74Z"/><path d="M485.42,187.33c-1.89.65-4.18,1.05-6.34,1.3.65,1.13,1.93,2.71,3.46,3.3l-.84,1.2c-.29-.15-.84-.4-1.22-.63-.46-.17-1.49-.31-2.48-.31-.29,0-.59.02-.86.04l-.29-1.15c.71-.04,1.74,0,2.35.08-.57-.61-1.24-1.51-1.66-2.37-1.41.15-2.96.21-5.63.21-1.03,0-2.18,0-3.13-.02l-.02-1.32c.94.02,2.16.04,3.21.04,1.72,0,3.42,0,5.12-.15-.23-.65-.57-1.85-.82-2.79-.84.08-1.78.13-2.65.13-1.13,0-2.58,0-3.57-.04v-1.3c1.26.06,2.65.06,3.55.06.76,0,1.62-.04,2.41-.1-.19-.97-.4-2.12-.57-3.3l2.16.02c0,.25-.19.4-.57.46.13.9.27,1.87.44,2.69,1.97-.19,4.09-.61,5.63-1.22l.36,1.3c-1.53.57-3.61.97-5.71,1.2.27,1.11.55,2.1.8,2.75,2.23-.23,4.64-.71,6.55-1.39l.29,1.32ZM481.73,198.43c-1.15.08-2.54.13-4.62.13-3.4-.02-6.05-1.11-6-3.49.02-1.24,1.11-2.56,2.48-3.32l.94.97c-1.22.65-1.93,1.53-1.93,2.33,0,1.49,1.85,2.14,4.51,2.16,1.57,0,3.23-.08,4.66-.19l-.04,1.41Z"/><path d="M499.37,183.63c-.08.19-.25.34-.52.34-.76,6.53-2.94,12.22-6.42,12.22-1.76,0-3.36-1.76-3.36-5.08,0-5.04,3.93-9.26,9.45-9.26,6.07,0,8.69,3.84,8.69,7.94,0,5-2.9,7.41-7.98,8.59-.19-.34-.55-.9-.88-1.28,4.83-.92,7.31-3.28,7.31-7.24,0-3.46-2.23-6.61-7.14-6.61-.21,0-.44.02-.63.04l1.49.36ZM497.35,183.36c-4.24.52-6.87,4.03-6.87,7.71,0,2.25.97,3.65,1.97,3.65,2.54,0,4.37-5.61,4.89-11.36Z"/><path d="M515.89,187.54l.9.4c-.04.1-.13.17-.19.21-1.13,3.07-3.74,5.4-6.42,6.55-.19-.31-.52-.84-.82-1.11,2.18-.8,4.39-2.58,5.52-4.81h-5.02v-1.18h5.77l.25-.06ZM513.65,195.93c-.52,1.36-1.41,2.67-3,3.4l-1.05-.82c1.45-.61,2.39-1.81,2.88-3.04l1.18.46ZM514.82,184.16v-1.41h-5.08v-1.24h5.08v-1.7l1.83.1c-.02.15-.15.25-.42.29v1.3h5.75v-1.7l1.81.1c-.02.17-.13.25-.4.29v1.3h5.21v1.24h-5.21v1.41h-1.41v-1.41h-5.75v1.41h-1.41ZM524.75,185.31c-.06.1-.21.17-.34.17-.61.52-1.43,1.11-2.31,1.66.29.63.63,1.22,1.05,1.78,1.34-.86,2.98-2.06,3.97-2.96l1.32.94c-.08.1-.25.15-.44.13-1.07.82-2.79,1.95-4.16,2.75,1.34,1.53,3.13,2.73,5.1,3.38-.34.27-.73.8-.94,1.18-2.98-1.15-5.5-3.59-6.93-6.59-.42.23-.84.44-1.26.63v3.3c0,1.32-.57,1.41-3.38,1.41-.06-.36-.25-.82-.44-1.13.52,0,.99.02,1.34.02,1.09,0,1.09-.02,1.09-.31v-4.3l.99.06c.88-.44,1.81-1.01,2.56-1.57h-9.13v-1.15h10.58l.23-.08,1.09.71ZM525.05,194.97h-11.74v-1.24h11.74v1.24ZM516.48,199.19c-.04-.84-.34-2.16-.69-3.19l1.3-.19c.38,1.01.71,2.33.76,3.15l-1.36.23ZM521.42,199.15c-.23-.84-.88-2.18-1.53-3.19l1.15-.38c.69.97,1.39,2.27,1.62,3.13l-1.24.44ZM527.61,199.32c-.67-.94-2.16-2.35-3.44-3.3l1.03-.69c1.28.92,2.79,2.27,3.53,3.23l-1.11.76Z"/><path d="M549.22,183.34h-14.11c-.97,1.91-2.18,3.61-3.51,4.81-.27-.25-.82-.65-1.18-.86,1.95-1.64,3.61-4.49,4.56-7.52l1.78.48c-.04.15-.21.23-.46.23-.19.55-.4,1.09-.61,1.62h13.52v1.24ZM534.02,190.73c1.34.73,2.79,1.64,4.18,2.58,1.01-1.07,1.89-2.25,2.58-3.49l1.64.63c-.06.17-.29.21-.5.19-.71,1.24-1.6,2.39-2.6,3.46,1.6,1.15,3,2.33,3.93,3.34l-1.13,1.07c-.88-1.01-2.25-2.23-3.8-3.4-1.87,1.76-4.07,3.23-6.36,4.33-.21-.29-.67-.8-.99-1.05,2.25-.99,4.41-2.37,6.24-4.09-1.36-.97-2.81-1.89-4.18-2.65l1.01-.92ZM532.4,188.17h13.84c.02,5.61.34,9.76,2.02,9.76.44,0,.55-1.22.59-3.07.29.31.71.65,1.01.82-.15,2.69-.44,3.63-1.68,3.63-2.77,0-3.23-3.97-3.36-9.91h-12.41v-1.24ZM547.16,186.34h-12.32v-1.22h12.32v1.22Z"/><path d="M552.14,185.75c1.28.5,2.83,1.36,3.61,2.04l-.82,1.15c-.76-.67-2.31-1.6-3.57-2.14l.78-1.05ZM551.83,198.22c.9-1.64,2.18-4.43,3.11-6.8l1.11.8c-.84,2.2-1.95,4.81-2.79,6.38.08.13.13.23.13.34,0,.06-.02.15-.06.21l-1.49-.92ZM553.19,180c1.22.59,2.71,1.51,3.44,2.25l-.86,1.13c-.71-.73-2.18-1.74-3.4-2.35l.82-1.03ZM565.28,194c.36.67.8,1.28,1.34,1.81.92-.44,2.1-1.11,2.81-1.6l1.01.92c-.06.06-.15.1-.25.1-.04,0-.08,0-.15-.02-.67.4-1.76.88-2.67,1.28,1.01.8,2.27,1.41,3.7,1.74-.31.25-.65.73-.84,1.07-2.88-.84-5.06-2.73-6.19-5.31h-2.18v3.38l4.12-.48.04,1.05c-2.35.34-4.77.67-6.32.88-.02.15-.13.25-.27.27l-.55-1.41c.5-.04,1.07-.1,1.68-.17v-3.53h-1.93c-.27,1.83-.88,3.78-2.14,5.29-.23-.25-.78-.61-1.09-.73,1.87-2.16,2.14-5.12,2.14-7.26v-2.86h13.27v1.11h-11.99v1.76c0,.5-.02,1.03-.06,1.6h12.16v1.09h-5.63ZM569.71,181.57v5.75h-11.72v-5.75h3.46v-1.76l1.57.1c-.02.13-.13.23-.4.27v1.39h2.27v-1.76l1.57.1c-.02.13-.13.23-.38.27v1.39h3.61ZM559.28,182.58v1.39h2.18v-1.39h-2.18ZM559.28,184.93v1.39h2.18v-1.39h-2.18ZM569.32,191.69h-9.55v-.99h9.55v.99ZM564.91,182.58h-2.27v1.39h2.27v-1.39ZM564.91,184.93h-2.27v1.39h2.27v-1.39ZM568.39,183.97v-1.39h-2.29v1.39h2.29ZM568.39,186.32v-1.39h-2.29v1.39h2.29Z"/><path d="M591.74,183.27h-16.27v4.87c0,3.28-.25,8.04-2.1,11.25-.23-.25-.82-.65-1.15-.8,1.74-3.04,1.89-7.37,1.89-10.46v-6.17h7.92v-2.16l1.87.13c-.02.15-.13.25-.42.29v1.74h8.27v1.3ZM588.93,191.9l.94.46c-.04.1-.13.17-.21.21-.97,1.74-2.46,3.09-4.28,4.09,1.93.73,4.16,1.22,6.55,1.45-.31.31-.65.86-.84,1.24-2.65-.36-5.1-.99-7.2-1.95-2.27.99-4.91,1.57-7.62,1.91-.1-.36-.38-.88-.61-1.2,2.37-.25,4.75-.71,6.82-1.47-1.45-.86-2.62-1.91-3.51-3.17l.88-.34h-3.34v-1.18h12.16l.25-.06ZM587.82,190.43h-8.04v-3.49h-3.42v-1.18h3.42v-1.93l1.76.13c-.02.15-.15.25-.42.27v1.53h5.31v-1.93l1.81.13c-.02.15-.15.25-.42.27v1.53h3.8v1.18h-3.8v3.49ZM580.28,193.14c.86,1.18,2.12,2.12,3.65,2.9,1.53-.76,2.83-1.7,3.76-2.9h-7.41ZM586.43,186.95h-5.31v2.35h5.31v-2.35Z"/><path d="M87.53,99.06v-14.09h-.04l-2.58,1.49-.42-1.3,3.25-1.83h1.49v15.73h-1.7Z"/><path d="M19.44,109.42h8.9v1.05h-8.9v-1.05Z"/><path d="M28.34,109.42h8.9v1.05h-8.9v-1.05Z"/><path d="M37.24,109.42h8.9v1.05h-8.9v-1.05Z"/><path d="M46.14,109.42h8.9v1.05h-8.9v-1.05Z"/><path d="M55.04,109.42h8.9v1.05h-8.9v-1.05Z"/><path d="M63.94,109.42h8.9v1.05h-8.9v-1.05Z"/><path d="M72.84,109.42h8.9v1.05h-8.9v-1.05Z"/><path d="M81.73,109.42h8.9v1.05h-8.9v-1.05Z"/><path d="M90.63,109.42h8.9v1.05h-8.9v-1.05Z"/><path d="M99.53,109.42h8.9v1.05h-8.9v-1.05Z"/><path d="M108.43,109.42h8.9v1.05h-8.9v-1.05Z"/><path d="M117.33,109.42h8.9v1.05h-8.9v-1.05Z"/><path d="M126.23,109.42h8.9v1.05h-8.9v-1.05Z"/><path d="M135.12,109.42h8.9v1.05h-8.9v-1.05Z"/><path d="M144.02,109.42h8.9v1.05h-8.9v-1.05Z"/><path d="M152.92,109.42h8.9v1.05h-8.9v-1.05Z"/><path d="M54.7,143.6c-1.49-1.95-3.11-5-3.11-9.64s1.6-7.73,3.11-9.72h1.43c-1.74,2.33-3,5.42-3,9.74s1.3,7.24,3,9.62h-1.43Z"/><path d="M62.03,140.73v-14.09h-.04l-2.58,1.49-.42-1.3,3.25-1.83h1.49v15.73h-1.7Z"/><path d="M68.98,132.92c0-5.5,2.14-8.17,5.08-8.17s4.81,2.81,4.81,7.96c0,5.46-1.91,8.27-5.04,8.27-2.86,0-4.85-2.81-4.85-8.06ZM77.11,132.79c0-3.93-.94-6.63-3.15-6.63-1.87,0-3.19,2.5-3.19,6.63s1.15,6.76,3.13,6.76c2.33,0,3.21-3.02,3.21-6.76Z"/><path d="M80.55,132.92c0-5.5,2.14-8.17,5.08-8.17s4.81,2.81,4.81,7.96c0,5.46-1.91,8.27-5.04,8.27-2.86,0-4.85-2.81-4.85-8.06ZM88.68,132.79c0-3.93-.94-6.63-3.15-6.63-1.87,0-3.19,2.5-3.19,6.63s1.15,6.76,3.13,6.76c2.33,0,3.21-3.02,3.21-6.76Z"/><path d="M102.58,128.09h1.34v5.67h5.46v1.26h-5.46v5.71h-1.34v-5.71h-5.46v-1.26h5.46v-5.67Z"/><path d="M120.68,140.73v-14.09h-.04l-2.58,1.49-.42-1.3,3.25-1.83h1.49v15.73h-1.7Z"/><path d="M128.66,124.25c1.49,1.95,3.09,5,3.09,9.68s-1.57,7.66-3.09,9.68h-1.43c1.7-2.33,3-5.42,3-9.7s-1.28-7.29-3-9.66h1.43Z"/><path d="M211.68,116.43l-.92.94-5.82-5.82-5.79,5.82-.92-.94,5.79-5.79-5.79-5.79.92-.94,5.79,5.82,5.82-5.82.92.92-5.79,5.82,5.79,5.79Z"/><path d="M241.9,118.51v-14.09h-.04l-2.58,1.49-.42-1.3,3.25-1.83h1.49v15.73h-1.7Z"/><path d="M248.86,110.7c0-5.5,2.14-8.17,5.08-8.17s4.81,2.81,4.81,7.96c0,5.46-1.91,8.27-5.04,8.27-2.86,0-4.85-2.81-4.85-8.06ZM256.98,110.57c0-3.93-.94-6.63-3.15-6.63-1.87,0-3.19,2.5-3.19,6.63s1.15,6.76,3.13,6.76c2.33,0,3.21-3.02,3.21-6.76Z"/><path d="M260.43,110.7c0-5.5,2.14-8.17,5.08-8.17s4.81,2.81,4.81,7.96c0,5.46-1.91,8.27-5.04,8.27-2.86,0-4.85-2.81-4.85-8.06ZM268.55,110.57c0-3.93-.94-6.63-3.15-6.63-1.87,0-3.19,2.5-3.19,6.63s1.15,6.76,3.13,6.76c2.33,0,3.21-3.02,3.21-6.76Z"/><path d="M294.99,107.5h15.33v1.32h-15.33v-1.32ZM294.99,113.55v-1.32h15.33v1.32h-15.33Z"/><path d="M335,110.7c0-5.5,2.14-8.17,5.08-8.17s4.81,2.81,4.81,7.96c0,5.46-1.91,8.27-5.04,8.27-2.86,0-4.85-2.81-4.85-8.06ZM343.12,110.57c0-3.93-.94-6.63-3.15-6.63-1.87,0-3.19,2.5-3.19,6.63s1.15,6.76,3.13,6.76c2.33,0,3.21-3.02,3.21-6.76Z"/><path d="M346.97,117.43c0-.8.52-1.36,1.26-1.36s1.24.57,1.24,1.36c0,.76-.48,1.32-1.26,1.32s-1.24-.63-1.24-1.32Z"/><path d="M359.25,111.07c-.86,1.09-2.08,1.74-3.61,1.74-2.69,0-4.35-2.1-4.35-4.77,0-2.88,1.89-5.52,4.98-5.52s4.81,2.56,4.81,6.57c0,5.23-2.65,8.86-6.68,9.49-.73.13-1.41.17-1.87.15v-1.45c.44.04.94-.02,1.62-.1,2.65-.38,4.64-2.52,5.17-6.11h-.06ZM353.06,107.94c0,2.12,1.2,3.55,3,3.55,1.7,0,3.25-1.3,3.25-2.56,0-3.02-1.11-5.06-3.19-5.06-1.83,0-3.07,1.72-3.07,4.07Z"/><path d="M370.84,111.07c-.86,1.09-2.08,1.74-3.61,1.74-2.69,0-4.35-2.1-4.35-4.77,0-2.88,1.89-5.52,4.98-5.52s4.81,2.56,4.81,6.57c0,5.23-2.65,8.86-6.68,9.49-.73.13-1.41.17-1.87.15v-1.45c.44.04.94-.02,1.62-.1,2.65-.38,4.64-2.52,5.17-6.11h-.06ZM364.65,107.94c0,2.12,1.2,3.55,3,3.55,1.7,0,3.25-1.3,3.25-2.56,0-3.02-1.11-5.06-3.19-5.06-1.83,0-3.07,1.72-3.07,4.07Z"/><path d="M395.73,117.43c0-.8.52-1.36,1.26-1.36s1.24.57,1.24,1.36c0,.76-.48,1.32-1.26,1.32s-1.24-.63-1.24-1.32Z"/><path d="M400.31,117.43c0-.8.52-1.36,1.26-1.36s1.24.57,1.24,1.36c0,.76-.48,1.32-1.26,1.32s-1.24-.63-1.24-1.32Z"/><path d="M404.88,117.43c0-.8.52-1.36,1.26-1.36s1.24.57,1.24,1.36c0,.76-.48,1.32-1.26,1.32s-1.24-.63-1.24-1.32Z"/><path d="M409.46,117.43c0-.8.52-1.36,1.26-1.36s1.24.57,1.24,1.36c0,.76-.48,1.32-1.26,1.32s-1.24-.63-1.24-1.32Z"/><path d="M414.04,117.43c0-.8.52-1.36,1.26-1.36s1.24.57,1.24,1.36c0,.76-.48,1.32-1.26,1.32s-1.24-.63-1.24-1.32Z"/><path d="M432.79,107.06l-4.35,11.44h-1.64l-4.22-11.46h1.87l2.29,6.66c.36,1.03.67,1.99.92,2.94h.06c.25-.94.59-1.91.94-2.94l2.27-6.63h1.85Z"/><path d="M444.48,112.69c0,4.26-2.81,6.07-5.35,6.07-2.94,0-5.21-2.2-5.21-5.9,0-3.91,2.44-6.07,5.35-6.07,3.13,0,5.21,2.39,5.21,5.9ZM439.21,108.15c-2.48,0-3.51,2.44-3.51,4.64,0,2.54,1.41,4.6,3.46,4.6s3.53-2.06,3.53-4.64c0-2.04-.99-4.6-3.49-4.6Z"/><path d="M448.88,118.51h-1.74v-16.8h1.74v16.8Z"/><path d="M458.24,107.42c0,3.28-1.62,4.85-3.49,4.85s-3.4-1.53-3.4-4.64,1.64-4.79,3.51-4.79c2.12,0,3.38,1.72,3.38,4.58ZM452.78,107.63c0,1.91.69,3.55,2.02,3.55,1.43,0,2.02-1.66,2.02-3.65,0-1.89-.52-3.59-2.02-3.59s-2.02,1.89-2.02,3.7ZM455.68,118.8h-1.2l8.99-16h1.2l-8.99,16ZM467.83,113.84c0,3.25-1.62,4.83-3.49,4.83s-3.4-1.53-3.4-4.64,1.64-4.81,3.51-4.81c2.12,0,3.38,1.74,3.38,4.62ZM462.38,113.95c0,1.99.69,3.61,2.02,3.61,1.45,0,2.02-1.64,2.02-3.65,0-1.87-.5-3.59-1.99-3.59-1.41,0-2.04,1.83-2.04,3.63Z"/><path d="M489.21,114.01v-6.97h11v-3.67h.02l8.19,7.16-8.19,7.16h-.02v-3.67h-11ZM489.97,113.26h11v2.77h.04l6.28-5.5-6.28-5.5h-.04v2.77h-11v5.46Z"/><path d="M563.38,103.77h-8.9l-.23.06v3.65l.1-.13c2.67,1.3,6.11,3.25,7.85,4.6l-.99,1.26c-1.51-1.22-4.45-3-6.97-4.35v11.4h-1.49v-16.5h-8.29v-1.41h18.92v1.41Z"/><path d="M571.68,101.65l.94.57c-.04.06-.1.15-.19.19-.61,1.62-1.49,3.76-2.31,5.48,1.78,1.72,2.41,3.17,2.41,4.56,0,3.07-2.04,2.98-3.82,2.92-.02-.38-.17-.92-.36-1.26.57.04,1.11.04,1.51.04.29-.04.55-.1.78-.23.38-.21.55-.82.55-1.47s-.04-2.14-2.44-4.39c.73-1.6,1.49-3.59,2.02-5.06h-3.4v17.32h-1.32v-18.6h5.4l.23-.06ZM578.84,111.14c.31,1.13.73,2.23,1.24,3.19,1.01-.8,2.16-1.87,2.88-2.69l1.3,1.01c-.06.08-.23.13-.42.1-.8.78-2.1,1.83-3.17,2.6,1.03,1.66,2.39,2.94,4.07,3.7-.31.27-.73.8-.94,1.18-3.17-1.6-5.17-4.91-6.21-9.09h-2.41v6.72l4.03-.86.1,1.26c-2.6.61-5.38,1.26-7.1,1.64-.02.15-.13.27-.27.31l-.61-1.6c.69-.13,1.53-.29,2.46-.48v-16.4h9.53v9.41h-4.47ZM581.9,102.99h-6.74v2.77h6.74v-2.77ZM575.16,106.98v2.9h6.74v-2.9h-6.74Z"/><path d="M603.22,110.38h-3.84c1.49,1.74,3.9,3.19,6.3,3.91-.34.29-.76.82-.97,1.2-1.68-.59-3.36-1.55-4.79-2.77-.06.06-.15.08-.27.1v7.47h-1.41v-7.87l1.43.08c-.73-.65-1.38-1.36-1.91-2.12h-3.63c-.52.71-1.18,1.41-1.91,2.06l1.57.1c-.02.15-.15.25-.42.27v.97c0,2.16-.46,4.87-4.58,6.74-.19-.34-.63-.82-.95-1.07,3.8-1.62,4.16-3.95,4.16-5.71v-1.11c-1.47,1.26-3.23,2.29-4.91,2.92-.21-.34-.61-.84-.95-1.13,2.35-.76,4.81-2.29,6.34-4.03h-3.84v-8.8h14.57v8.8ZM590.03,102.78v2.6h5.12v-2.6h-5.12ZM590.03,106.54v2.62h5.12v-2.62h-5.12ZM601.79,105.38v-2.6h-5.25v2.6h5.25ZM601.79,109.16v-2.62h-5.25v2.62h5.25Z"/><path d="M611.93,102.34c-.06.23-.27.36-.69.34-.74,3.42-1.11,7.18-1.11,9.45,0,1.57.06,3.17.27,4.16.4-1.03,1.3-3.23,1.6-3.97l.88.92c-.86,2.12-1.49,3.32-1.79,4.26-.1.36-.17.69-.17.99,0,.23.04.44.11.65l-1.49.27c-.67-1.99-.92-4.43-.92-7.22s.44-6.59,1.11-10.23l2.2.38ZM625.31,117.69c-.76.04-1.53.06-2.31.06-1.49,0-2.9-.08-3.91-.23-2.58-.38-3.78-1.81-3.78-3.49,0-1.45.8-2.67,1.97-4.05l1.36.59c-1.05,1.09-1.78,2.1-1.78,3.3,0,2.44,3.57,2.44,5.75,2.44.88,0,1.83-.04,2.71-.1l-.02,1.49ZM615.59,104.86c2.71-.06,6.36-.31,9.15-.8l.12,1.47c-2.6.44-6.82.71-9.24.78l-.04-1.45Z"/><path d="M632.41,109.18v6.91c1.64,2.5,4.7,2.5,8.65,2.5,2.31,0,5-.04,6.63-.15-.17.31-.4.97-.44,1.39-1.45.04-3.76.08-5.84.08-4.62,0-7.52,0-9.59-2.6-.97.94-1.95,1.87-2.77,2.58.02.17-.02.25-.17.34l-.82-1.49c.9-.67,2-1.6,2.98-2.5v-5.71h-2.77v-1.34h4.14ZM629.6,101.31c1.32.99,2.81,2.46,3.46,3.51l-1.16.88c-.61-1.07-2.08-2.58-3.4-3.61l1.09-.78ZM642.02,108.74c.34-.63.8-1.57,1.05-2.29h-9.62v-1.09h6.15v-1.66h-4.72v-1.09h4.72v-1.85l1.83.13c-.02.15-.15.25-.42.29v1.43h4.93v1.09h-4.93v1.66h6.4v1.09h-3.74l1.05.36c-.04.15-.19.19-.42.19-.27.55-.69,1.32-1.07,1.93h3.91v1.09h-6.13v1.47h5.25v1.07h-5.25v1.66h6.26v1.09h-6.26v2.18h-1.41v-2.18h-5.94v-1.09h5.94v-1.66h-4.85v-1.07h4.85v-1.47h-5.63v-1.09h3.28c-.17-.63-.57-1.51-1.01-2.16.67-.21.94-.27,1.22-.31.5.69.97,1.64,1.11,2.29l-.71.19h4.62l-.46-.19Z"/><path d="M656.03,101.69c-.04.25-.23.4-.65.46-.17,2.44-.38,8-.38,11.11s1.55,4.64,4.2,4.64,5.17-1.28,7.56-3.99c.21.34.69,1.01.94,1.24-2.46,2.79-5.44,4.26-8.52,4.26-3.82,0-5.77-2.2-5.77-6.17,0-2.65.19-9.15.34-11.74l2.29.19Z"/><path d="M671.13,103.62c1.58-.06,14.51-.99,17.24-1.01l.02,1.57c-.27-.02-.53-.02-.78-.02-1.22,0-2.25.21-3.59,1.07-3.15,1.89-6.19,5.27-6.19,7.98,0,2.94,2.06,4.68,7.26,5.35l-.69,1.47c-5.96-.86-8.19-3.09-8.19-6.82,0-2.96,2.92-6.55,6.76-8.97-2.23.15-8.5.63-11.21.88-.06.17-.29.31-.46.34l-.17-1.85Z"/><path d="M694.74,103.62c-.04.19-.27.31-.57.34-.25,1.57-.4,3.46-.4,5.23,0,.78.04,1.53.08,2.2.25,3.57,1.7,5.73,3.32,5.71.84,0,1.93-2.14,2.69-4.49.29.29.86.69,1.22.9-.97,2.83-2.18,5.14-3.93,5.19-2.67.04-4.51-3.19-4.81-7.22-.06-.8-.08-1.68-.08-2.62,0-1.85.11-3.86.31-5.65l2.16.42ZM708.66,113.38c-.59-3.67-2.46-6.32-5.29-7.89l.92-1.13c3.06,1.64,5.31,4.66,5.92,8.55l-1.55.48Z"/><path d="M720.29,101.39c-.06.17-.27.34-.65.36-.15.92-.34,2.02-.53,2.83,2.06-.13,4.35-.48,6.17-1.03l.23,1.43c-1.95.48-4.26.82-6.68,1.01-1.01,4.03-2.39,7.31-4.45,10.33l-1.41-.57c1.91-2.75,3.36-5.9,4.26-9.72h-4.18v-1.36h2.5c.65,0,1.32-.02,1.93-.02.25-1.11.44-2.31.59-3.55l2.2.29ZM725.88,110.34c.02,1.7.15,2.86.27,4.3,1.34.52,3.09,1.43,4.47,2.44l-.76,1.34c-1.15-.88-2.58-1.7-3.72-2.2,0,2.1-.84,3.74-3.93,3.74-2.33,0-4.12-1.05-4.09-3.02,0-2.1,2.21-3.11,4.14-3.11.76,0,1.53.15,2.37.38-.08-1.34-.19-2.71-.19-3.7l1.43-.17ZM724.72,115.59c-.86-.34-1.74-.48-2.5-.48-1.26,0-2.75.5-2.77,1.81,0,1.2,1.18,1.76,2.81,1.76,1.51,0,2.48-.73,2.48-2.12,0-.34,0-.65-.02-.97ZM730.48,108.18c-2.37.02-5.25.4-7.43,1.03l-.23-1.32c2.39-.69,5.29-1.13,7.58-1.13l.08,1.43Z"/><path d="M736.74,103.62c-.04.19-.27.31-.57.34-.25,1.57-.4,3.46-.4,5.23,0,.78.04,1.53.08,2.2.25,3.57,1.7,5.73,3.32,5.71.84,0,1.93-2.14,2.69-4.49.29.29.86.69,1.22.9-.97,2.83-2.18,5.14-3.93,5.19-2.67.04-4.51-3.19-4.81-7.22-.06-.8-.08-1.68-.08-2.62,0-1.85.11-3.86.31-5.65l2.16.42ZM750.66,113.38c-.59-3.67-2.46-6.32-5.29-7.89l.92-1.13c3.06,1.64,5.31,4.66,5.92,8.55l-1.55.48Z"/><path d="M767.12,105.38c-1.79.63-4.16,1.03-6.45,1.2-.88,4.81-2.16,9.6-3.84,13.12l-1.51-.57c1.72-3.38,2.98-7.73,3.8-12.49-.42.02-3.23.04-3.86.02l-.02-1.43c.34.02.78.02,1.26.02.19,0,2.29,0,2.83-.02.21-1.34.42-2.81.55-4.09l2.16.21c-.02.23-.31.4-.61.42-.13.92-.34,2.06-.52,3.34,2.06-.19,4.14-.55,5.88-1.18l.34,1.45ZM772.71,119.37c-.63.02-1.28.04-1.93.04-1.97,0-3.84-.15-4.98-.46-1.49-.42-2.35-1.51-2.33-2.9.02-.92.42-1.97,1.3-3.04l1.26.55c-.74.86-1.09,1.68-1.09,2.33,0,1.66,1.6,2.08,5.42,2.08.78,0,1.58-.02,2.35-.08v1.49ZM764.52,109.25c2.16-.69,5.14-1.13,7.62-1.07v1.43c-2.37-.06-5.12.27-7.26.94l-.36-1.3Z"/><path d="M789.74,101.71c-.04.19-.27.27-.55.31-.23,1.45-.53,2.83-.86,4.07,3.67.69,5.71,3.36,5.71,6.59,0,3.74-2.83,6.13-8.15,6.89-.21-.44-.44-.9-.67-1.28,4.64-.61,7.29-2.5,7.29-5.56,0-2.54-1.62-4.68-4.6-5.25-.99,3.23-2.33,5.73-3.8,7.47.27.38.63.71.97,1.03l-1.07,1.03c-.32-.31-.61-.65-.9-1.03-1.36,1.3-2.86,1.95-4.26,1.95-1.85,0-2.98-1.57-2.98-3.86,0-2.86,1.57-5.06,3.7-6.45-.4-1.6-.74-3.34-1.03-5.23l2.02-.04c-.02.19-.15.4-.44.46.21,1.45.44,2.86.74,4.16,2.31-1.15,4.54-1.15,5.48-1.15.17,0,.36,0,.5.02.34-1.39.63-2.94.84-4.6l2.08.46ZM782.31,114.87c-.95-1.53-1.72-3.49-2.35-5.82-1.32.92-2.71,2.58-2.71,4.91,0,1.49.57,2.56,1.7,2.56,1.3,0,2.41-.76,3.36-1.66ZM783.25,113.72c1.26-1.53,2.35-3.67,3.19-6.51-.23-.02-.5-.02-.74-.02-1.62.02-3.19.38-4.56,1.13.54,2.1,1.22,3.97,2.1,5.4Z"/><path d="M804.76,111.03l.31-.04.84.17c0,.13-.04.29-.06.44-.4,5.23-.78,7.29-1.53,8.02-.53.57-1.15.67-2.58.67-.76,0-1.76-.04-2.77-.1-.04-.44-.23-1.03-.53-1.45,1.57.15,3.13.17,3.65.17s.78-.04,1.01-.23c.55-.48.9-2.2,1.24-6.32h-5.67c-.08.4-.15.76-.23,1.09l-1.41-.23c.44-1.7.92-4.45,1.22-6.53h6.15v-3.67h-7.41v-1.32h8.82v6.93h-1.41v-.61h-4.93c-.17,1.01-.36,2.06-.53,3.02h5.82ZM811.89,100.97l1.83.13c-.02.15-.13.25-.42.27v18.92h-1.41v-19.32Z"/><path d="M826.05,101.04l2,.15c-.02.19-.21.34-.5.4v6.45c0,2.29,1.45,8.34,8.99,10.98-.32.31-.74.92-.94,1.32-6.38-2.41-8.36-7.43-8.76-9.49h-.02c-.38,2.08-2.25,6.93-8.48,9.49-.19-.31-.65-.88-.96-1.2,7.33-2.77,8.69-8.78,8.69-11.11v-6.99ZM817.82,111.14c1.74-1.3,2.5-3.65,2.83-6.03l1.39.31c-.38,2.5-1.11,5.1-3,6.55l-1.22-.84ZM835.83,105.87c-.06.13-.25.19-.46.19-.84,1.68-2.22,4.12-3.32,5.63,0-.02-1.16-.61-1.16-.61,1.07-1.55,2.44-4.14,3.19-6l1.74.8Z"/><path d="M845.03,101.69c-.04.25-.23.4-.65.46-.17,2.44-.38,8-.38,11.11s1.55,4.64,4.2,4.64,5.17-1.28,7.56-3.99c.21.34.69,1.01.94,1.24-2.46,2.79-5.44,4.26-8.52,4.26-3.82,0-5.77-2.2-5.77-6.17,0-2.65.19-9.15.34-11.74l2.29.19Z"/><path d="M867.29,101.39c-.06.17-.27.34-.65.36-.15.92-.34,2.02-.53,2.83,2.06-.13,4.35-.48,6.17-1.03l.23,1.43c-1.95.48-4.26.82-6.68,1.01-1.01,4.03-2.39,7.31-4.45,10.33l-1.41-.57c1.91-2.75,3.36-5.9,4.26-9.72h-4.18v-1.36h2.5c.65,0,1.32-.02,1.93-.02.25-1.11.44-2.31.59-3.55l2.2.29ZM872.88,110.34c.02,1.7.15,2.86.27,4.3,1.34.52,3.09,1.43,4.47,2.44l-.76,1.34c-1.15-.88-2.58-1.7-3.72-2.2,0,2.1-.84,3.74-3.93,3.74-2.33,0-4.12-1.05-4.09-3.02,0-2.1,2.21-3.11,4.14-3.11.76,0,1.53.15,2.37.38-.08-1.34-.19-2.71-.19-3.7l1.43-.17ZM871.72,115.59c-.86-.34-1.74-.48-2.5-.48-1.26,0-2.75.5-2.77,1.81,0,1.2,1.18,1.76,2.81,1.76,1.51,0,2.48-.73,2.48-2.12,0-.34,0-.65-.02-.97ZM877.48,108.18c-2.37.02-5.25.4-7.43,1.03l-.23-1.32c2.39-.69,5.29-1.13,7.58-1.13l.08,1.43Z"/><path d="M883.74,103.62c-.04.19-.27.31-.57.34-.25,1.57-.4,3.46-.4,5.23,0,.78.04,1.53.08,2.2.25,3.57,1.7,5.73,3.32,5.71.84,0,1.93-2.14,2.69-4.49.29.29.86.69,1.22.9-.97,2.83-2.18,5.14-3.93,5.19-2.67.04-4.51-3.19-4.81-7.22-.06-.8-.08-1.68-.08-2.62,0-1.85.11-3.86.31-5.65l2.16.42ZM897.66,113.38c-.59-3.67-2.46-6.32-5.29-7.89l.92-1.13c3.06,1.64,5.31,4.66,5.92,8.55l-1.55.48Z"/><path d="M19.44,267.08h8.9v1.05h-8.9v-1.05Z"/><path d="M28.34,267.08h8.9v1.05h-8.9v-1.05Z"/><path d="M37.24,267.08h8.9v1.05h-8.9v-1.05Z"/><path d="M46.14,267.08h8.9v1.05h-8.9v-1.05Z"/><path d="M55.04,267.08h8.9v1.05h-8.9v-1.05Z"/><path d="M63.94,267.08h8.9v1.05h-8.9v-1.05Z"/><path d="M72.84,267.08h8.9v1.05h-8.9v-1.05Z"/><path d="M81.73,267.08h8.9v1.05h-8.9v-1.05Z"/><path d="M90.63,267.08h8.9v1.05h-8.9v-1.05Z"/><path d="M99.53,267.08h8.9v1.05h-8.9v-1.05Z"/><path d="M108.43,267.08h8.9v1.05h-8.9v-1.05Z"/><path d="M117.33,267.08h8.9v1.05h-8.9v-1.05Z"/><path d="M126.23,267.08h8.9v1.05h-8.9v-1.05Z"/><path d="M135.12,267.08h8.9v1.05h-8.9v-1.05Z"/><path d="M144.02,267.08h8.9v1.05h-8.9v-1.05Z"/><path d="M56.24,302.24c-1.49-1.95-3.11-5-3.11-9.64s1.6-7.73,3.11-9.72h1.43c-1.74,2.33-3,5.42-3,9.74s1.3,7.24,3,9.62h-1.43Z"/><path d="M63.56,299.37v-14.09h-.04l-2.58,1.49-.42-1.3,3.25-1.83h1.49v15.73h-1.7Z"/><path d="M70.52,291.56c0-5.5,2.14-8.17,5.08-8.17s4.81,2.81,4.81,7.96c0,5.46-1.91,8.27-5.04,8.27-2.86,0-4.85-2.81-4.85-8.06ZM78.64,291.43c0-3.93-.94-6.63-3.15-6.63-1.87,0-3.19,2.5-3.19,6.63s1.15,6.76,3.13,6.76c2.33,0,3.21-3.02,3.21-6.76Z"/><path d="M82.09,291.56c0-5.5,2.14-8.17,5.08-8.17s4.81,2.81,4.81,7.96c0,5.46-1.91,8.27-5.04,8.27-2.86,0-4.85-2.81-4.85-8.06ZM90.21,291.43c0-3.93-.94-6.63-3.15-6.63-1.87,0-3.19,2.5-3.19,6.63s1.15,6.76,3.13,6.76c2.33,0,3.21-3.02,3.21-6.76Z"/><path d="M104.11,286.73h1.34v5.67h5.46v1.26h-5.46v5.71h-1.34v-5.71h-5.46v-1.26h5.46v-5.67Z"/><path d="M123.35,290.86c1.85.31,3.42,1.81,3.42,4.07,0,2.5-1.81,4.68-5.33,4.68-1.57,0-3-.5-3.72-1.01l.52-1.34c.57.38,1.83.95,3.21.95,2.65,0,3.51-1.85,3.51-3.3,0-2.31-1.95-3.36-4.01-3.36h-1.03v-1.3h1.03c1.51,0,3.46-.94,3.46-2.92,0-1.36-.82-2.54-2.71-2.54-1.15,0-2.25.57-2.88,1.03l-.52-1.28c.76-.59,2.23-1.18,3.74-1.18,2.88,0,4.16,1.83,4.16,3.72,0,1.62-1.03,3.07-2.86,3.72v.06Z"/><path d="M130.2,282.89c1.49,1.95,3.09,5,3.09,9.68s-1.57,7.66-3.09,9.68h-1.43c1.7-2.33,3-5.42,3-9.7s-1.28-7.29-3-9.66h1.43Z"/><path d="M201.78,270.18l-.92.94-5.82-5.82-5.79,5.82-.92-.94,5.79-5.79-5.79-5.79.92-.94,5.79,5.82,5.82-5.82.92.92-5.79,5.82,5.79,5.79Z"/><path d="M232,272.26v-14.09h-.04l-2.58,1.49-.42-1.3,3.25-1.83h1.49v15.73h-1.7Z"/><path d="M238.95,264.45c0-5.5,2.14-8.17,5.08-8.17s4.81,2.81,4.81,7.96c0,5.46-1.91,8.27-5.04,8.27-2.86,0-4.85-2.81-4.85-8.06ZM247.08,264.32c0-3.93-.94-6.63-3.15-6.63-1.87,0-3.19,2.5-3.19,6.63s1.15,6.76,3.13,6.76c2.33,0,3.21-3.02,3.21-6.76Z"/><path d="M250.52,264.45c0-5.5,2.14-8.17,5.08-8.17s4.81,2.81,4.81,7.96c0,5.46-1.91,8.27-5.04,8.27-2.86,0-4.85-2.81-4.85-8.06ZM258.65,264.32c0-3.93-.94-6.63-3.15-6.63-1.87,0-3.19,2.5-3.19,6.63s1.15,6.76,3.13,6.76c2.33,0,3.21-3.02,3.21-6.76Z"/><path d="M285.09,261.26h15.33v1.32h-15.33v-1.32ZM285.09,267.31v-1.32h15.33v1.32h-15.33Z"/><path d="M344.37,272.26h-9.3v-1.07l1.53-1.62c3.74-3.78,5.63-6.07,5.63-8.63,0-1.68-.73-3.23-3-3.23-1.26,0-2.39.69-3.15,1.3l-.59-1.22c.97-.86,2.39-1.53,4.07-1.53,3.17,0,4.43,2.31,4.43,4.47,0,2.96-2.08,5.48-5.33,8.76l-1.24,1.3v.04h6.95v1.43Z"/><path d="M346.85,271.19c0-.8.52-1.36,1.26-1.36s1.24.57,1.24,1.36c0,.76-.48,1.32-1.26,1.32s-1.24-.63-1.24-1.32Z"/><path d="M359.13,264.83c-.86,1.09-2.08,1.74-3.61,1.74-2.69,0-4.35-2.1-4.35-4.77,0-2.88,1.89-5.52,4.98-5.52s4.81,2.56,4.81,6.57c0,5.23-2.65,8.86-6.68,9.49-.73.13-1.41.17-1.87.15v-1.45c.44.04.94-.02,1.62-.1,2.65-.38,4.64-2.52,5.17-6.11h-.06ZM352.94,261.7c0,2.12,1.2,3.55,3,3.55,1.7,0,3.25-1.3,3.25-2.56,0-3.02-1.11-5.06-3.19-5.06-1.83,0-3.07,1.72-3.07,4.07Z"/><path d="M367.24,272.26v-14.09h-.04l-2.58,1.49-.42-1.3,3.25-1.83h1.49v15.73h-1.7Z"/><path d="M395.59,271.19c0-.8.52-1.36,1.26-1.36s1.24.57,1.24,1.36c0,.76-.48,1.32-1.26,1.32s-1.24-.63-1.24-1.32Z"/><path d="M400.17,271.19c0-.8.52-1.36,1.26-1.36s1.24.57,1.24,1.36c0,.76-.48,1.32-1.26,1.32s-1.24-.63-1.24-1.32Z"/><path d="M404.74,271.19c0-.8.52-1.36,1.26-1.36s1.24.57,1.24,1.36c0,.76-.48,1.32-1.26,1.32s-1.24-.63-1.24-1.32Z"/><path d="M409.32,271.19c0-.8.52-1.36,1.26-1.36s1.24.57,1.24,1.36c0,.76-.48,1.32-1.26,1.32s-1.24-.63-1.24-1.32Z"/><path d="M413.9,271.19c0-.8.52-1.36,1.26-1.36s1.24.57,1.24,1.36c0,.76-.48,1.32-1.26,1.32s-1.24-.63-1.24-1.32Z"/><path d="M432.65,260.82l-4.35,11.44h-1.64l-4.22-11.46h1.87l2.29,6.66c.36,1.03.67,1.99.92,2.94h.06c.25-.94.59-1.91.94-2.94l2.27-6.63h1.85Z"/><path d="M444.35,266.44c0,4.26-2.81,6.07-5.35,6.07-2.94,0-5.21-2.2-5.21-5.9,0-3.91,2.44-6.07,5.35-6.07,3.13,0,5.21,2.39,5.21,5.9ZM439.08,261.91c-2.48,0-3.51,2.44-3.51,4.64,0,2.54,1.41,4.6,3.46,4.6s3.53-2.06,3.53-4.64c0-2.04-.99-4.6-3.49-4.6Z"/><path d="M448.74,272.26h-1.74v-16.8h1.74v16.8Z"/><path d="M458.1,261.17c0,3.28-1.62,4.85-3.49,4.85s-3.4-1.53-3.4-4.64,1.64-4.79,3.51-4.79c2.12,0,3.38,1.72,3.38,4.58ZM452.64,261.38c0,1.91.69,3.55,2.02,3.55,1.43,0,2.02-1.66,2.02-3.65,0-1.89-.52-3.59-2.02-3.59s-2.02,1.89-2.02,3.7ZM455.54,272.55h-1.2l8.99-16h1.2l-8.99,16ZM467.7,267.6c0,3.25-1.62,4.83-3.49,4.83s-3.4-1.53-3.4-4.64,1.64-4.81,3.51-4.81c2.12,0,3.38,1.74,3.38,4.62ZM462.24,267.7c0,1.99.69,3.61,2.02,3.61,1.45,0,2.02-1.64,2.02-3.65,0-1.87-.5-3.59-1.99-3.59-1.41,0-2.04,1.83-2.04,3.63Z"/><path d="M489.07,267.77v-6.97h11v-3.67h.02l8.19,7.16-8.19,7.16h-.02v-3.67h-11ZM489.83,267.01h11v2.77h.04l6.28-5.5-6.28-5.5h-.04v2.77h-11v5.46Z"/><path d="M557.93,261.89c0,1.64-.04,3.28-.27,4.87.59.73,2.1,2.92,2.46,3.46l-.97.99c-.36-.67-1.11-1.91-1.76-2.9-.44,2.08-1.28,4.03-2.75,5.77-.21-.29-.65-.73-.94-.92,2.69-3.23,2.98-7.31,2.98-11.27v-7.35l1.68.1c-.02.13-.15.23-.42.27v6.97ZM553.71,264.01c.8-1.13,1.15-3.21,1.2-5.12l.99.15c-.04,2.02-.36,4.26-1.28,5.56l-.9-.59ZM560.87,258.32c-.04.13-.19.19-.42.19-.38,1.24-1.09,3.13-1.66,4.28l-.82-.38c.52-1.22,1.18-3.23,1.51-4.62l1.39.52ZM562.88,269.34c-.5,1.72-1.28,3.59-2.67,4.72l-1.05-.71c1.3-1.01,2.16-2.77,2.6-4.39l1.11.38ZM573.21,260.36h-2.96c.5,3.07,1.53,5.92,3.23,7.22-.29.25-.73.71-.92,1.05-1.34-1.15-2.25-3.13-2.83-5.44-.5,1.95-1.57,3.82-3.8,5.4-.19-.27-.59-.71-.88-.9,2.96-2.1,3.7-4.75,3.84-7.33h-2.37v-.17c-.99,4.07-2.83,6.89-5.23,8.44-.17-.31-.5-.73-.8-.99,1.2-.71,2.27-1.85,3.15-3.34-.52-.52-1.39-1.18-2.12-1.62l.63-.76c.67.38,1.47.94,1.99,1.41.27-.57.52-1.15.73-1.78-.55-.44-1.41-.97-2.12-1.32l.52-.86c.65.29,1.39.69,1.93,1.09.21-.78.4-1.6.52-2.46h-2.41c-.67,2.04-1.6,3.88-2.69,5.19-.21-.23-.65-.59-.92-.78,1.51-1.72,2.67-4.77,3.3-7.92l1.55.36c-.04.17-.19.25-.44.25-.13.59-.27,1.18-.44,1.74h2.52l.23-.04.73.23c-.02.13-.08.19-.13.25-.08.63-.19,1.26-.29,1.85h2.18v-4.58l1.62.1c-.02.15-.13.25-.4.27v4.2h3.07v1.22ZM564.54,273.75c.02-1.09-.19-2.79-.48-4.12l1.15-.17c.36,1.3.57,3,.57,4.09l-1.24.19ZM568.3,273.79c-.17-1.13-.76-2.83-1.39-4.14l1.11-.34c.67,1.28,1.28,3,1.49,4.12l-1.22.36ZM572.31,274.09c-.42-1.24-1.49-3.23-2.5-4.7l1.11-.44c1.05,1.45,2.14,3.4,2.58,4.64l-1.2.5ZM571.66,255.04c.63.99,1.26,2.27,1.51,3.11l-1.03.44c-.23-.88-.84-2.18-1.43-3.17l.94-.38Z"/><path d="M579.31,261.85c0,1.64-.04,3.28-.27,4.87.71.78,2.6,3,3.04,3.57l-.97,1.03c-.44-.71-1.53-2.12-2.37-3.13-.48,2.12-1.41,4.14-3.09,5.9-.21-.29-.65-.76-.97-.94,3-3.19,3.34-7.31,3.34-11.3v-7.31c.99.08,1.34.08,1.68.1-.02.15-.12.25-.4.27v6.93ZM574.71,264.03c.86-1.11,1.24-3.19,1.28-5.14l1.03.15c-.04,2.02-.4,4.22-1.36,5.5l-.94-.5ZM582.65,258.78c-.06.1-.21.17-.42.17-.42,1.18-1.15,2.94-1.74,4.07-.02-.02-.88-.46-.88-.46.55-1.15,1.26-3.09,1.62-4.41l1.43.63ZM590.12,272.07c0,.48.08.57.65.57h1.81c.5,0,.61-.29.67-2.39.27.21.82.42,1.18.52-.13,2.46-.48,3.07-1.7,3.07h-2.12c-1.49,0-1.83-.38-1.83-1.78v-4.85h-2.2c-.02.13-.17.21-.4.23-.29,3.3-1.05,5.48-4.72,6.66-.13-.31-.48-.8-.78-1.03,3.23-.99,3.97-2.77,4.18-5.86h-3.17v-1.24h2.58v-2.77h-2.58v-1.26h2.58v-2.62l1.7.13c-.02.13-.13.23-.4.27v2.23h4.75v-2.62l1.72.13c-.02.13-.13.23-.4.27v2.23h2.6v1.26h-2.6v2.77h2.65v1.24h-3.76c-.04.13-.15.21-.4.23v4.64ZM587.24,260.59v-2.56h-4.75v-1.22h4.75v-2.27l1.76.1c-.02.15-.13.25-.42.29v1.87h4.87v1.22h-4.87v2.56h-1.34ZM585.56,263.19v2.77h4.75v-2.77h-4.75Z"/><path d="M600.73,259.47c-.17-.55-.55-1.34-.92-2.04h-1.07c-.59.86-1.24,1.66-1.89,2.27-.25-.23-.76-.55-1.07-.76,1.2-1.03,2.37-2.77,3.07-4.51l1.62.55c-.06.1-.21.19-.44.17-.17.36-.34.69-.52,1.05h5.79v1.24h-4.07c.34.59.63,1.22.78,1.68l-1.26.36ZM601.59,269.34v1.3h4.43v1.13h-4.43v2.29h-1.24v-2.29h-4.49v-1.13h4.49v-1.3h-3.49v-5.94h3.49v-1.24h-4.14v-1.11h4.14v-1.49l1.62.1c-.02.15-.12.25-.38.27v1.11h4.32v1.11h-4.32v1.24h3.53v5.94h-3.53ZM598.06,264.39v1.49h2.29v-1.49h-2.29ZM598.06,268.35h2.29v-1.53h-2.29v1.53ZM603.88,264.39h-2.29v1.49h2.29v-1.49ZM603.88,268.35v-1.53h-2.29v1.53h2.29ZM610.24,259.62c-.25-.61-.82-1.47-1.41-2.18h-1.85c-.63.82-1.32,1.55-2.04,2.1-.27-.21-.78-.52-1.13-.69,1.34-.99,2.65-2.65,3.34-4.41l1.64.5c-.04.13-.19.19-.44.19-.15.36-.34.71-.54,1.07h7.45v1.24h-4.87c.48.59.9,1.26,1.13,1.74l-1.28.44ZM607.95,271.4c0,.82.21,1.01,1.26,1.01h3.76c.9,0,1.07-.5,1.16-2.9.32.23.86.44,1.22.52-.17,2.77-.57,3.59-2.29,3.59h-3.95c-1.89,0-2.46-.42-2.46-2.23v-10.98h7.68v6.4c0,1.51-.65,1.64-3.76,1.64-.08-.4-.29-.94-.5-1.32.63,0,1.18.02,1.62.02,1.16,0,1.28,0,1.28-.36v-5.12h-5.02v9.72Z"/><path d="M617.76,255.55h17.66v18.54h-1.45v-1.03h-14.82v1.03h-1.39v-18.54ZM619.15,271.74h14.82v-14.84h-14.82v14.84ZM632.83,265.08v1.22h-3.04v4.37h-1.28v-4.37h-3.88c-.34,1.81-1.16,3.4-3.09,4.64-.19-.29-.61-.71-.9-.92,1.6-1.01,2.35-2.29,2.69-3.72h-2.92v-1.22h3.13c.04-.52.06-1.09.06-1.64v-1.49h-2.92v-1.2h2.92v-2.83l1.64.1c-.02.15-.12.23-.4.27v2.46h3.67v-2.83l1.68.1c-.02.15-.12.25-.4.27v2.46h3v1.2h-3v3.13h3.04ZM624.83,263.46c0,.55-.02,1.09-.06,1.62h3.74v-3.13h-3.67v1.51Z"/><path d="M656.1,258.19v13.94c0,.99-.23,1.45-.95,1.7-.71.23-2.02.25-3.93.25-.06-.42-.29-1.05-.5-1.45.78.02,1.53.04,2.14.04,1.74,0,1.83,0,1.83-.55v-12.56h-6.57c-.04.86-.15,1.76-.36,2.69,2.18,1.91,4.81,4.45,6.13,6.07l-1.15.9c-1.16-1.45-3.36-3.74-5.4-5.61-.78,2.12-2.33,4.22-5.35,5.98-.21-.31-.67-.82-1.01-1.07,4.79-2.58,5.58-6.13,5.71-8.97h-6.24v14.51h-1.41v-15.89h7.66v-3.67l1.85.13c-.02.15-.13.25-.42.29v3.25h7.96Z"/><path d="M663.58,256.09c-.06.23-.27.36-.69.34-.73,3.42-1.11,7.18-1.11,9.45,0,1.57.06,3.17.27,4.16.4-1.03,1.3-3.23,1.6-3.97l.88.92c-.86,2.12-1.49,3.32-1.78,4.26-.11.36-.17.69-.17.99,0,.23.04.44.1.65l-1.49.27c-.67-1.99-.92-4.43-.92-7.22s.44-6.59,1.11-10.23l2.21.38ZM676.95,271.44c-.76.04-1.53.06-2.31.06-1.49,0-2.9-.08-3.91-.23-2.58-.38-3.78-1.81-3.78-3.49,0-1.45.8-2.67,1.97-4.05l1.37.59c-1.05,1.09-1.79,2.1-1.79,3.3,0,2.44,3.57,2.44,5.75,2.44.88,0,1.83-.04,2.71-.1l-.02,1.49ZM667.23,258.61c2.71-.06,6.36-.31,9.15-.8l.13,1.47c-2.6.44-6.82.71-9.24.78l-.04-1.45Z"/><path d="M687.94,255.15c-.06.17-.27.34-.65.36-.15.92-.34,2.02-.52,2.83,2.06-.13,4.35-.48,6.17-1.03l.23,1.43c-1.95.48-4.26.82-6.68,1.01-1.01,4.03-2.39,7.31-4.45,10.33l-1.41-.57c1.91-2.75,3.36-5.9,4.26-9.72h-4.18v-1.36h2.5c.65,0,1.32-.02,1.93-.02.25-1.11.44-2.31.59-3.55l2.21.29ZM693.52,264.09c.02,1.7.15,2.86.27,4.3,1.34.52,3.09,1.43,4.47,2.44l-.76,1.34c-1.16-.88-2.58-1.7-3.72-2.2,0,2.1-.84,3.74-3.93,3.74-2.33,0-4.12-1.05-4.09-3.02,0-2.1,2.2-3.11,4.14-3.11.76,0,1.53.15,2.37.38-.08-1.34-.19-2.71-.19-3.7l1.43-.17ZM692.37,269.34c-.86-.34-1.74-.48-2.5-.48-1.26,0-2.75.5-2.77,1.81,0,1.2,1.18,1.76,2.81,1.76,1.51,0,2.48-.73,2.48-2.12,0-.34,0-.65-.02-.97ZM698.12,261.93c-2.37.02-5.25.4-7.43,1.03l-.23-1.32c2.39-.69,5.29-1.13,7.58-1.13l.08,1.43Z"/><path d="M707.95,263.76c1.39-.71,3.55-1.22,5.21-1.22,3.34,0,5.44,1.95,5.44,5.04,0,3.8-3.34,5.9-7.56,5.9-2.73,0-4.6-1.09-4.6-2.94,0-1.55,1.53-2.81,3.44-2.81,2.37,0,3.97,1.89,4.28,3.8,1.68-.63,2.9-1.97,2.9-3.93,0-2.27-1.68-3.72-4.33-3.72-3.15,0-6.24,1.41-7.62,2.75-.63.59-1.45,1.47-2.02,2.12l-1.07-1.07c1.89-1.97,7.89-7.71,10.75-10.37-1.22.17-5.42.34-7.81.42-.06.15-.27.27-.44.31l-.17-1.78c2.83-.02,8.25-.23,9.79-.46l.31-.15,1.11,1.36c-.11.08-.29.17-.5.19-1.49,1.22-5.48,4.96-7.12,6.53v.02ZM710.85,272.16c.63,0,1.37-.08,1.91-.21-.23-1.62-1.43-2.98-2.98-2.98-1.09,0-2.06.59-2.06,1.55,0,1.28,1.74,1.64,3.13,1.64Z"/><path d="M734.77,259.14c-1.78.63-4.16,1.03-6.45,1.2-.88,4.81-2.16,9.6-3.84,13.12l-1.51-.57c1.72-3.38,2.98-7.73,3.8-12.49-.42.02-3.23.04-3.86.02l-.02-1.43c.34.02.78.02,1.26.02.19,0,2.29,0,2.83-.02.21-1.34.42-2.81.55-4.09l2.16.21c-.02.23-.32.4-.61.42-.13.92-.34,2.06-.53,3.34,2.06-.19,4.14-.55,5.88-1.18l.34,1.45ZM740.35,273.12c-.63.02-1.28.04-1.93.04-1.97,0-3.84-.15-4.98-.46-1.49-.42-2.35-1.51-2.33-2.9.02-.92.42-1.97,1.3-3.04l1.26.55c-.73.86-1.09,1.68-1.09,2.33,0,1.66,1.6,2.08,5.42,2.08.78,0,1.57-.02,2.35-.08v1.49ZM732.16,263c2.16-.69,5.14-1.13,7.62-1.07v1.43c-2.37-.06-5.12.27-7.26.94l-.36-1.3Z"/><path d="M757.39,255.46c-.04.19-.27.27-.55.31-.23,1.45-.52,2.83-.86,4.07,3.67.69,5.71,3.36,5.71,6.59,0,3.74-2.83,6.13-8.15,6.89-.21-.44-.44-.9-.67-1.28,4.64-.61,7.29-2.5,7.29-5.56,0-2.54-1.62-4.68-4.6-5.25-.99,3.23-2.33,5.73-3.8,7.47.27.38.63.71.97,1.03l-1.07,1.03c-.31-.31-.61-.65-.9-1.03-1.37,1.3-2.86,1.95-4.26,1.95-1.85,0-2.98-1.57-2.98-3.86,0-2.86,1.58-5.06,3.7-6.45-.4-1.6-.73-3.34-1.03-5.23l2.02-.04c-.02.19-.15.4-.44.46.21,1.45.44,2.86.73,4.16,2.31-1.15,4.54-1.15,5.48-1.15.17,0,.36,0,.5.02.34-1.39.63-2.94.84-4.6l2.08.46ZM749.95,268.63c-.94-1.53-1.72-3.49-2.35-5.82-1.32.92-2.71,2.58-2.71,4.91,0,1.49.57,2.56,1.7,2.56,1.3,0,2.42-.76,3.36-1.66ZM750.9,267.47c1.26-1.53,2.35-3.67,3.19-6.51-.23-.02-.5-.02-.73-.02-1.62.02-3.19.38-4.56,1.13.55,2.1,1.22,3.97,2.1,5.4Z"/><path d="M772.4,264.79l.32-.04.84.17c0,.13-.04.29-.06.44-.4,5.23-.78,7.29-1.53,8.02-.52.57-1.16.67-2.58.67-.76,0-1.76-.04-2.77-.1-.04-.44-.23-1.03-.52-1.45,1.58.15,3.13.17,3.65.17s.78-.04,1.01-.23c.55-.48.9-2.2,1.24-6.32h-5.67c-.08.4-.15.76-.23,1.09l-1.41-.23c.44-1.7.92-4.45,1.22-6.53h6.15v-3.67h-7.41v-1.32h8.82v6.93h-1.41v-.61h-4.93c-.17,1.01-.36,2.06-.52,3.02h5.82ZM779.54,254.73l1.83.13c-.02.15-.13.25-.42.27v18.92h-1.41v-19.32Z"/><path d="M793.7,254.79l1.99.15c-.02.19-.21.34-.5.4v6.45c0,2.29,1.45,8.34,8.99,10.98-.31.31-.73.92-.95,1.32-6.38-2.41-8.36-7.43-8.75-9.49h-.02c-.38,2.08-2.25,6.93-8.48,9.49-.19-.31-.65-.88-.97-1.2,7.33-2.77,8.69-8.78,8.69-11.11v-6.99ZM785.47,264.89c1.74-1.3,2.5-3.65,2.83-6.03l1.39.31c-.38,2.5-1.11,5.1-3,6.55l-1.22-.84ZM803.48,259.62c-.06.13-.25.19-.46.19-.84,1.68-2.23,4.12-3.32,5.63,0-.02-1.15-.61-1.15-.61,1.07-1.55,2.44-4.14,3.19-6l1.74.8Z"/><path d="M816.19,258c-.02-.46-.08-2.75-.13-3.28l2.16.08c-.02.17-.17.38-.55.44,0,.25,0,.5.04,2.71,2.58-.08,5.29-.15,6.87-.17v1.45c-1.79-.04-4.33,0-6.82.08.04,1.64.08,3.15.15,4.3.21.69.25,1.32.25,2.2,0,.67-.06,1.45-.21,2.04-.55,2.46-2.35,4.62-6.05,6.09-.27-.36-.73-.88-1.07-1.2,3.21-1.15,4.93-2.9,5.46-4.89h-.02c-.44.63-1.22,1.11-2.16,1.11-1.87,0-3.53-1.53-3.53-3.67-.02-2.23,1.78-3.93,3.78-3.93.76,0,1.53.27,1.95.65,0-.36-.04-1.76-.08-2.67-2.18.04-8.82.27-9.68.31l-.04-1.39,4.79-.13,4.89-.17ZM816.58,265.37c0-.82,0-2.73-2.14-2.73-1.45.02-2.48,1.13-2.5,2.67,0,1.47,1.11,2.44,2.33,2.44,1.49,0,2.31-1.15,2.31-2.37Z"/><path d="M833.95,263.76c1.39-.71,3.55-1.22,5.21-1.22,3.34,0,5.44,1.95,5.44,5.04,0,3.8-3.34,5.9-7.56,5.9-2.73,0-4.6-1.09-4.6-2.94,0-1.55,1.53-2.81,3.44-2.81,2.37,0,3.97,1.89,4.28,3.8,1.68-.63,2.9-1.97,2.9-3.93,0-2.27-1.68-3.72-4.33-3.72-3.15,0-6.24,1.41-7.62,2.75-.63.59-1.45,1.47-2.02,2.12l-1.07-1.07c1.89-1.97,7.89-7.71,10.75-10.37-1.22.17-5.42.34-7.81.42-.06.15-.27.27-.44.31l-.17-1.78c2.83-.02,8.25-.23,9.79-.46l.31-.15,1.11,1.36c-.11.08-.29.17-.5.19-1.49,1.22-5.48,4.96-7.12,6.53v.02ZM836.85,272.16c.63,0,1.37-.08,1.91-.21-.23-1.62-1.43-2.98-2.98-2.98-1.09,0-2.06.59-2.06,1.55,0,1.28,1.74,1.64,3.13,1.64Z"/><path d="M19.44,428.18h8.9v1.05h-8.9v-1.05Z"/><path d="M28.34,428.18h8.9v1.05h-8.9v-1.05Z"/><path d="M37.24,428.18h8.9v1.05h-8.9v-1.05Z"/><path d="M46.14,428.18h8.9v1.05h-8.9v-1.05Z"/><path d="M55.04,428.18h8.9v1.05h-8.9v-1.05Z"/><path d="M63.94,428.18h8.9v1.05h-8.9v-1.05Z"/><path d="M72.84,428.18h8.9v1.05h-8.9v-1.05Z"/><path d="M81.73,428.18h8.9v1.05h-8.9v-1.05Z"/><path d="M90.63,428.18h8.9v1.05h-8.9v-1.05Z"/><path d="M99.53,428.18h8.9v1.05h-8.9v-1.05Z"/><path d="M108.43,428.18h8.9v1.05h-8.9v-1.05Z"/><path d="M117.33,428.18h8.9v1.05h-8.9v-1.05Z"/><path d="M126.23,428.18h8.9v1.05h-8.9v-1.05Z"/><path d="M135.12,428.18h8.9v1.05h-8.9v-1.05Z"/><path d="M144.02,428.18h8.9v1.05h-8.9v-1.05Z"/><path d="M152.92,428.18h8.9v1.05h-8.9v-1.05Z"/><path d="M54.7,462.36c-1.49-1.95-3.11-5-3.11-9.64s1.6-7.73,3.11-9.72h1.43c-1.74,2.33-3,5.42-3,9.74s1.3,7.24,3,9.62h-1.43Z"/><path d="M62.03,459.48v-14.09h-.04l-2.58,1.49-.42-1.3,3.25-1.83h1.49v15.73h-1.7Z"/><path d="M68.98,451.67c0-5.5,2.14-8.17,5.08-8.17s4.81,2.81,4.81,7.96c0,5.46-1.91,8.27-5.04,8.27-2.86,0-4.85-2.81-4.85-8.06ZM77.11,451.55c0-3.93-.94-6.63-3.15-6.63-1.87,0-3.19,2.5-3.19,6.63s1.15,6.76,3.13,6.76c2.33,0,3.21-3.02,3.21-6.76Z"/><path d="M80.55,451.67c0-5.5,2.14-8.17,5.08-8.17s4.81,2.81,4.81,7.96c0,5.46-1.91,8.27-5.04,8.27-2.86,0-4.85-2.81-4.85-8.06ZM88.68,451.55c0-3.93-.94-6.63-3.15-6.63-1.87,0-3.19,2.5-3.19,6.63s1.15,6.76,3.13,6.76c2.33,0,3.21-3.02,3.21-6.76Z"/><path d="M102.58,446.84h1.34v5.67h5.46v1.26h-5.46v5.71h-1.34v-5.71h-5.46v-1.26h5.46v-5.67Z"/><path d="M120.68,459.48v-14.09h-.04l-2.58,1.49-.42-1.3,3.25-1.83h1.49v15.73h-1.7Z"/><path d="M127.63,451.67c0-5.5,2.14-8.17,5.08-8.17s4.81,2.81,4.81,7.96c0,5.46-1.91,8.27-5.04,8.27-2.86,0-4.85-2.81-4.85-8.06ZM135.76,451.55c0-3.93-.94-6.63-3.15-6.63-1.87,0-3.19,2.5-3.19,6.63s1.15,6.76,3.13,6.76c2.33,0,3.21-3.02,3.21-6.76Z"/><path d="M140.23,443c1.49,1.95,3.09,5,3.09,9.68s-1.57,7.66-3.09,9.68h-1.43c1.7-2.33,3-5.42,3-9.7s-1.28-7.29-3-9.66h1.43Z"/><path d="M211.68,435.18l-.92.94-5.82-5.82-5.79,5.82-.92-.94,5.79-5.79-5.79-5.79.92-.95,5.79,5.82,5.82-5.82.92.92-5.79,5.82,5.79,5.79Z"/><path d="M241.9,437.26v-14.09h-.04l-2.58,1.49-.42-1.3,3.25-1.83h1.49v15.73h-1.7Z"/><path d="M248.86,429.45c0-5.5,2.14-8.17,5.08-8.17s4.81,2.81,4.81,7.96c0,5.46-1.91,8.27-5.04,8.27-2.86,0-4.85-2.81-4.85-8.06ZM256.98,429.32c0-3.93-.94-6.63-3.15-6.63-1.87,0-3.19,2.5-3.19,6.63s1.15,6.76,3.13,6.76c2.33,0,3.21-3.02,3.21-6.76Z"/><path d="M260.43,429.45c0-5.5,2.14-8.17,5.08-8.17s4.81,2.81,4.81,7.96c0,5.46-1.91,8.27-5.04,8.27-2.86,0-4.85-2.81-4.85-8.06ZM268.55,429.32c0-3.93-.94-6.63-3.15-6.63-1.87,0-3.19,2.5-3.19,6.63s1.15,6.76,3.13,6.76c2.33,0,3.21-3.02,3.21-6.76Z"/><path d="M294.99,426.26h15.33v1.32h-15.33v-1.32ZM294.99,432.31v-1.32h15.33v1.32h-15.33Z"/><path d="M343.1,429.83c-.86,1.09-2.08,1.74-3.61,1.74-2.69,0-4.35-2.1-4.35-4.77,0-2.88,1.89-5.52,4.98-5.52s4.81,2.56,4.81,6.57c0,5.23-2.65,8.86-6.68,9.49-.73.13-1.41.17-1.87.15v-1.45c.44.04.94-.02,1.62-.1,2.65-.38,4.64-2.52,5.17-6.11h-.06ZM336.91,426.7c0,2.12,1.2,3.55,3,3.55,1.7,0,3.25-1.3,3.25-2.56,0-3.02-1.11-5.06-3.19-5.06-1.83,0-3.07,1.72-3.07,4.07Z"/><path d="M346.99,436.19c0-.8.52-1.37,1.26-1.37s1.24.57,1.24,1.37c0,.76-.48,1.32-1.26,1.32s-1.24-.63-1.24-1.32Z"/><path d="M351.17,429.45c0-5.5,2.14-8.17,5.08-8.17s4.81,2.81,4.81,7.96c0,5.46-1.91,8.27-5.04,8.27-2.86,0-4.85-2.81-4.85-8.06ZM359.29,429.32c0-3.93-.94-6.63-3.15-6.63-1.87,0-3.19,2.5-3.19,6.63s1.15,6.76,3.13,6.76c2.33,0,3.21-3.02,3.21-6.76Z"/><path d="M370.84,429.83c-.86,1.09-2.08,1.74-3.61,1.74-2.69,0-4.35-2.1-4.35-4.77,0-2.88,1.89-5.52,4.98-5.52s4.81,2.56,4.81,6.57c0,5.23-2.65,8.86-6.68,9.49-.73.13-1.41.17-1.87.15v-1.45c.44.04.94-.02,1.62-.1,2.65-.38,4.64-2.52,5.17-6.11h-.06ZM364.65,426.7c0,2.12,1.2,3.55,3,3.55,1.7,0,3.25-1.3,3.25-2.56,0-3.02-1.11-5.06-3.19-5.06-1.83,0-3.07,1.72-3.07,4.07Z"/><path d="M395.73,436.19c0-.8.52-1.37,1.26-1.37s1.24.57,1.24,1.37c0,.76-.48,1.32-1.26,1.32s-1.24-.63-1.24-1.32Z"/><path d="M400.31,436.19c0-.8.52-1.37,1.26-1.37s1.24.57,1.24,1.37c0,.76-.48,1.32-1.26,1.32s-1.24-.63-1.24-1.32Z"/><path d="M404.88,436.19c0-.8.52-1.37,1.26-1.37s1.24.57,1.24,1.37c0,.76-.48,1.32-1.26,1.32s-1.24-.63-1.24-1.32Z"/><path d="M409.46,436.19c0-.8.52-1.37,1.26-1.37s1.24.57,1.24,1.37c0,.76-.48,1.32-1.26,1.32s-1.24-.63-1.24-1.32Z"/><path d="M414.04,436.19c0-.8.52-1.37,1.26-1.37s1.24.57,1.24,1.37c0,.76-.48,1.32-1.26,1.32s-1.24-.63-1.24-1.32Z"/><path d="M432.79,425.82l-4.35,11.44h-1.64l-4.22-11.46h1.87l2.29,6.66c.36,1.03.67,1.99.92,2.94h.06c.25-.95.59-1.91.94-2.94l2.27-6.63h1.85Z"/><path d="M444.48,431.45c0,4.26-2.81,6.07-5.35,6.07-2.94,0-5.21-2.2-5.21-5.9,0-3.91,2.44-6.07,5.35-6.07,3.13,0,5.21,2.39,5.21,5.9ZM439.21,426.91c-2.48,0-3.51,2.44-3.51,4.64,0,2.54,1.41,4.6,3.46,4.6s3.53-2.06,3.53-4.64c0-2.04-.99-4.6-3.49-4.6Z"/><path d="M448.88,437.26h-1.74v-16.8h1.74v16.8Z"/><path d="M458.24,426.18c0,3.28-1.62,4.85-3.49,4.85s-3.4-1.53-3.4-4.64,1.64-4.79,3.51-4.79c2.12,0,3.38,1.72,3.38,4.58ZM452.78,426.39c0,1.91.69,3.55,2.02,3.55,1.43,0,2.02-1.66,2.02-3.65,0-1.89-.52-3.59-2.02-3.59s-2.02,1.89-2.02,3.7ZM455.68,437.56h-1.2l8.99-16h1.2l-8.99,16ZM467.83,432.6c0,3.25-1.62,4.83-3.49,4.83s-3.4-1.53-3.4-4.64,1.64-4.81,3.51-4.81c2.12,0,3.38,1.74,3.38,4.62ZM462.38,432.71c0,1.99.69,3.61,2.02,3.61,1.45,0,2.02-1.64,2.02-3.65,0-1.87-.5-3.59-1.99-3.59-1.41,0-2.04,1.83-2.04,3.63Z"/><path d="M489.21,432.77v-6.97h11v-3.67h.02l8.19,7.16-8.19,7.16h-.02v-3.67h-11ZM489.97,432.01h11v2.77h.04l6.28-5.5-6.28-5.5h-.04v2.77h-11v5.46Z"/><path d="M558.82,436.61h9.53v1.43h-19.09v-1.43h8.08v-16.73l1.91.13c-.02.15-.15.25-.44.29v6.21h8.06v1.43h-8.06v8.67Z"/><path d="M576.57,420.4l.94.57c-.04.06-.1.15-.19.19-.61,1.62-1.49,3.76-2.31,5.48,1.78,1.72,2.41,3.17,2.41,4.56,0,3.07-2.04,2.98-3.82,2.92-.02-.38-.17-.92-.36-1.26.57.04,1.11.04,1.51.04.29-.04.55-.1.78-.23.38-.21.55-.82.55-1.47s-.04-2.14-2.44-4.39c.73-1.6,1.49-3.59,2.02-5.06h-3.4v17.32h-1.32v-18.6h5.4l.23-.06ZM583.73,429.89c.32,1.13.74,2.23,1.24,3.19,1.01-.8,2.16-1.87,2.88-2.69l1.3,1.01c-.06.08-.23.13-.42.1-.8.78-2.1,1.83-3.17,2.6,1.03,1.66,2.39,2.94,4.07,3.7-.31.27-.73.8-.94,1.18-3.17-1.6-5.17-4.91-6.21-9.09h-2.41v6.72l4.03-.86.11,1.26c-2.6.61-5.38,1.26-7.1,1.64-.02.15-.13.27-.27.32l-.61-1.6c.69-.13,1.53-.29,2.46-.48v-16.4h9.53v9.41h-4.47ZM586.79,421.75h-6.74v2.77h6.74v-2.77ZM580.05,425.73v2.9h6.74v-2.9h-6.74Z"/><path d="M608.11,429.14h-3.84c1.49,1.74,3.9,3.19,6.3,3.91-.34.29-.76.82-.97,1.2-1.68-.59-3.36-1.55-4.79-2.77-.06.06-.15.08-.27.11v7.47h-1.41v-7.87l1.43.08c-.73-.65-1.38-1.36-1.91-2.12h-3.63c-.52.71-1.18,1.41-1.91,2.06l1.57.1c-.02.15-.15.25-.42.27v.97c0,2.16-.46,4.87-4.58,6.74-.19-.34-.63-.82-.95-1.07,3.8-1.62,4.16-3.95,4.16-5.71v-1.11c-1.47,1.26-3.23,2.29-4.91,2.92-.21-.34-.61-.84-.95-1.13,2.35-.76,4.81-2.29,6.34-4.03h-3.84v-8.8h14.57v8.8ZM594.92,421.54v2.6h5.12v-2.6h-5.12ZM594.92,425.29v2.62h5.12v-2.62h-5.12ZM606.68,424.14v-2.6h-5.25v2.6h5.25ZM606.68,427.92v-2.62h-5.25v2.62h5.25Z"/><path d="M630.56,428.53s-.08.04-.13.04c-.12,0-.23-.06-.31-.13-1.6.53-3.93,1.39-5.67,2.14.04.48.06,1.03.06,1.64,0,.67-.02,1.43-.06,2.25l-1.53.08c.06-.76.1-1.72.1-2.54,0-.31,0-.61-.02-.84-2.37,1.16-4.3,2.56-4.3,3.82s1.45,1.81,4.35,1.81c2.04,0,3.93-.04,5.27-.21l.02,1.41c-1.24.13-3.13.17-5.29.17-4.03,0-5.82-.97-5.82-3.11,0-1.85,2.44-3.63,5.58-5.21-.13-1.32-.71-1.97-1.55-1.97-1.53,0-3.13.86-5.02,2.96-.59.65-1.41,1.47-2.31,2.29l-1.03-1.03c2.1-1.85,4.07-3.61,5.29-7.75l-1.18.02h-3.51v-1.36c1.28.02,2.77.02,3.63.02l1.43-.02c.23-.97.42-1.87.57-3l2.06.25c-.04.21-.21.34-.52.38-.15.84-.34,1.58-.52,2.33,1.43-.02,4.49-.36,7.22-1.22l.25,1.41c-2.62.82-5.79,1.11-7.87,1.18-.5,1.58-1.03,2.83-1.51,3.55h.02c.92-.82,2.31-1.37,3.38-1.37,1.43,0,2.33,1.03,2.6,2.73,1.76-.8,3.99-1.66,5.67-2.31l.65,1.6Z"/><path d="M638.5,431.99v4.28c1.34.65,3.11.86,5.44.86.94,0,7.62,0,8.82-.04-.23.34-.48.99-.57,1.39h-8.23c-4.74,0-7.29-.76-8.8-3.88-.25,1.83-.65,3.42-1.28,4.56-.25-.19-.71-.44-1.03-.59,1.07-1.97,1.34-5.61,1.43-9.41l1.66.23c-.04.17-.17.23-.4.25-.04.8-.06,1.6-.13,2.39.42,1.49,1.01,2.58,1.81,3.36v-7.68h-4.12v-1.28h4.07v-2.98h-3.49v-1.28h3.49v-2.65l1.74.1c-.02.15-.15.25-.42.29v2.25h3.38v1.28h-3.38v2.98h3.8v.97c1.93-1.09,2.96-3.04,3.34-5.77h-3.13v-1.24h8.31l.29-.02.76.08c0,.13-.02.29-.04.46-.19,3.95-.4,5.44-.88,5.96-.42.46-.78.52-2.18.52-.4,0-.86,0-1.34-.02-.04-.38-.17-.9-.38-1.24.92.08,1.78.08,2.1.08s.52-.02.65-.19c.29-.34.48-1.47.65-4.41h-3.42c-.42,3.23-1.72,5.58-4.07,6.84-.19-.21-.54-.53-.86-.76h-3.59v3.02h3.38v1.26h-3.38ZM651.37,436.17h-1.34v-1.03h-5.46v1.05h-1.32v-7.58h8.12v7.56ZM644.57,433.92h5.46v-4.09h-5.46v4.09Z"/><path d="M662.84,431.34c.71-.36,1.41-.48,2.08-.48,1.07,0,1.85.82,1.85,2.14,0,.55-.06,1.2-.06,1.7,0,2.14,1.26,2.14,3.07,2.14.92,0,1.97-.06,2.73-.19,0,.94.06,1.49.06,1.49-.82.08-1.81.13-2.73.13-.86,0-1.64-.04-2.18-.13-1.51-.23-2.37-1.34-2.39-2.58,0-.48.04-1.43.04-2.06,0-.88-.34-1.39-1.07-1.39-1.01,0-2.56.59-3.76,1.74-1.22,1.2-3.51,3.51-4.22,4.35,0,0-.23-.29-1.13-1.11,2-2.04,8.59-8.44,10.73-10.52-1.53.15-6.3.42-8.69.55-.06.13-.17.21-.34.23l-.12-1.68c2.94-.08,8.46-.36,10.58-.55l.31-.19,1.22,1.11c-.13.11-.27.15-.5.17-1.32,1.24-3.91,3.61-5.46,5.1v.02ZM668.11,422.94c-2.25-.65-6.19-1.28-8.99-1.41l.31-1.41c2.9.13,6.68.69,9.07,1.39l-.4,1.43Z"/><path d="M682.2,428.76c1.39-.71,3.55-1.22,5.21-1.22,3.34,0,5.44,1.95,5.44,5.04,0,3.8-3.34,5.9-7.56,5.9-2.73,0-4.6-1.09-4.6-2.94,0-1.55,1.53-2.81,3.44-2.81,2.37,0,3.97,1.89,4.28,3.8,1.68-.63,2.9-1.97,2.9-3.93,0-2.27-1.68-3.72-4.33-3.72-3.15,0-6.24,1.41-7.62,2.75-.63.59-1.45,1.47-2.02,2.12l-1.07-1.07c1.89-1.97,7.89-7.71,10.75-10.37-1.22.17-5.42.34-7.81.42-.06.15-.27.27-.44.32l-.17-1.79c2.83-.02,8.25-.23,9.78-.46l.32-.15,1.11,1.36c-.1.08-.29.17-.5.19-1.49,1.22-5.48,4.96-7.12,6.53v.02ZM685.1,437.16c.63,0,1.36-.08,1.91-.21-.23-1.62-1.43-2.98-2.98-2.98-1.09,0-2.06.59-2.06,1.55,0,1.28,1.74,1.64,3.13,1.64Z"/><path d="M709.02,424.14c-1.79.63-4.16,1.03-6.45,1.2-.88,4.81-2.16,9.6-3.84,13.12l-1.51-.57c1.72-3.38,2.98-7.73,3.8-12.49-.42.02-3.23.04-3.86.02l-.02-1.43c.34.02.78.02,1.26.02.19,0,2.29,0,2.83-.02.21-1.34.42-2.81.55-4.09l2.16.21c-.02.23-.31.4-.61.42-.13.92-.34,2.06-.52,3.34,2.06-.19,4.14-.55,5.88-1.18l.34,1.45ZM714.6,438.12c-.63.02-1.28.04-1.93.04-1.97,0-3.84-.15-4.98-.46-1.49-.42-2.35-1.51-2.33-2.9.02-.92.42-1.97,1.3-3.04l1.26.55c-.74.86-1.09,1.68-1.09,2.33,0,1.66,1.6,2.08,5.42,2.08.78,0,1.58-.02,2.35-.08v1.49ZM706.41,428c2.16-.69,5.14-1.13,7.62-1.07v1.43c-2.37-.06-5.12.27-7.26.95l-.36-1.3Z"/><path d="M731.63,420.46c-.04.19-.27.27-.55.32-.23,1.45-.53,2.83-.86,4.07,3.67.69,5.71,3.36,5.71,6.59,0,3.74-2.83,6.13-8.15,6.89-.21-.44-.44-.9-.67-1.28,4.64-.61,7.29-2.5,7.29-5.56,0-2.54-1.62-4.68-4.6-5.25-.99,3.23-2.33,5.73-3.8,7.47.27.38.63.71.97,1.03l-1.07,1.03c-.32-.32-.61-.65-.9-1.03-1.36,1.3-2.86,1.95-4.26,1.95-1.85,0-2.98-1.58-2.98-3.86,0-2.86,1.57-5.06,3.7-6.45-.4-1.6-.74-3.34-1.03-5.23l2.02-.04c-.02.19-.15.4-.44.46.21,1.45.44,2.86.74,4.16,2.31-1.16,4.54-1.16,5.48-1.16.17,0,.36,0,.5.02.34-1.39.63-2.94.84-4.6l2.08.46ZM724.2,433.63c-.95-1.53-1.72-3.49-2.35-5.82-1.32.92-2.71,2.58-2.71,4.91,0,1.49.57,2.56,1.7,2.56,1.3,0,2.41-.76,3.36-1.66ZM725.14,432.47c1.26-1.53,2.35-3.67,3.19-6.51-.23-.02-.5-.02-.74-.02-1.62.02-3.19.38-4.56,1.13.54,2.1,1.22,3.97,2.1,5.4Z"/><path d="M746.65,429.79l.31-.04.84.17c0,.13-.04.29-.06.44-.4,5.23-.78,7.29-1.53,8.02-.53.57-1.15.67-2.58.67-.76,0-1.76-.04-2.77-.11-.04-.44-.23-1.03-.53-1.45,1.57.15,3.13.17,3.65.17s.78-.04,1.01-.23c.55-.48.9-2.2,1.24-6.32h-5.67c-.08.4-.15.76-.23,1.09l-1.41-.23c.44-1.7.92-4.45,1.22-6.53h6.15v-3.67h-7.41v-1.32h8.82v6.93h-1.41v-.61h-4.93c-.17,1.01-.36,2.06-.53,3.02h5.82ZM753.79,419.73l1.83.13c-.02.15-.13.25-.42.27v18.92h-1.41v-19.32Z"/><path d="M767.94,419.79l2,.15c-.02.19-.21.34-.5.4v6.45c0,2.29,1.45,8.33,8.99,10.98-.32.32-.74.92-.94,1.32-6.38-2.42-8.36-7.43-8.76-9.49h-.02c-.38,2.08-2.25,6.93-8.48,9.49-.19-.32-.65-.88-.96-1.2,7.33-2.77,8.69-8.78,8.69-11.11v-6.99ZM759.71,429.89c1.74-1.3,2.5-3.65,2.83-6.03l1.39.32c-.38,2.5-1.11,5.1-3,6.55l-1.22-.84ZM777.73,424.62c-.06.13-.25.19-.46.19-.84,1.68-2.22,4.12-3.32,5.63,0-.02-1.16-.61-1.16-.61,1.07-1.55,2.44-4.14,3.19-6l1.74.8Z"/><path d="M786.93,420.44c-.04.25-.23.4-.65.46-.17,2.44-.38,8-.38,11.11s1.55,4.64,4.2,4.64,5.17-1.28,7.56-3.99c.21.34.69,1.01.94,1.24-2.46,2.79-5.44,4.26-8.52,4.26-3.82,0-5.77-2.21-5.77-6.17,0-2.65.19-9.15.34-11.74l2.29.19Z"/><path d="M809.19,420.15c-.06.17-.27.34-.65.36-.15.92-.34,2.02-.53,2.83,2.06-.13,4.35-.48,6.17-1.03l.23,1.43c-1.95.48-4.26.82-6.68,1.01-1.01,4.03-2.39,7.31-4.45,10.33l-1.41-.57c1.91-2.75,3.36-5.9,4.26-9.72h-4.18v-1.36h2.5c.65,0,1.32-.02,1.93-.02.25-1.11.44-2.31.59-3.55l2.2.29ZM814.77,429.09c.02,1.7.15,2.86.27,4.3,1.34.53,3.09,1.43,4.47,2.44l-.76,1.34c-1.15-.88-2.58-1.7-3.72-2.2,0,2.1-.84,3.74-3.93,3.74-2.33,0-4.12-1.05-4.09-3.02,0-2.1,2.21-3.11,4.14-3.11.76,0,1.53.15,2.37.38-.08-1.34-.19-2.71-.19-3.7l1.43-.17ZM813.62,434.34c-.86-.34-1.74-.48-2.5-.48-1.26,0-2.75.5-2.77,1.81,0,1.2,1.18,1.76,2.81,1.76,1.51,0,2.48-.73,2.48-2.12,0-.34,0-.65-.02-.97ZM819.37,426.93c-2.37.02-5.25.4-7.43,1.03l-.23-1.32c2.39-.69,5.29-1.13,7.58-1.13l.08,1.43Z"/><path d="M825.63,422.38c-.04.19-.27.31-.57.34-.25,1.57-.4,3.46-.4,5.23,0,.78.04,1.53.08,2.21.25,3.57,1.7,5.73,3.32,5.71.84,0,1.93-2.14,2.69-4.49.29.29.86.69,1.22.9-.97,2.83-2.18,5.14-3.93,5.19-2.67.04-4.51-3.19-4.81-7.22-.06-.8-.08-1.68-.08-2.62,0-1.85.11-3.86.31-5.65l2.16.42ZM839.55,432.14c-.59-3.67-2.46-6.32-5.29-7.89l.92-1.13c3.06,1.64,5.31,4.66,5.92,8.55l-1.55.48Z"/><path d="M95.82,246.96c1.85.31,3.42,1.81,3.42,4.07,0,2.5-1.81,4.68-5.33,4.68-1.57,0-3-.5-3.72-1.01l.52-1.34c.57.38,1.83.94,3.21.94,2.65,0,3.51-1.85,3.51-3.3,0-2.31-1.95-3.36-4.01-3.36h-1.03v-1.3h1.03c1.51,0,3.46-.94,3.46-2.92,0-1.36-.82-2.54-2.71-2.54-1.15,0-2.25.57-2.88,1.03l-.52-1.28c.76-.59,2.23-1.18,3.74-1.18,2.88,0,4.16,1.83,4.16,3.72,0,1.62-1.03,3.07-2.86,3.72v.06Z"/><path d="M89.94,418.62v-14.09h-.04l-2.58,1.49-.42-1.3,3.25-1.83h1.49v15.73h-1.7Z"/><path d="M96.9,410.81c0-5.5,2.14-8.17,5.08-8.17s4.81,2.81,4.81,7.96c0,5.46-1.91,8.27-5.04,8.27-2.86,0-4.85-2.81-4.85-8.06ZM105.02,410.68c0-3.93-.94-6.63-3.15-6.63-1.87,0-3.19,2.5-3.19,6.63s1.15,6.76,3.13,6.76c2.33,0,3.21-3.02,3.21-6.76Z"/></svg>