<?xml version="1.0" encoding="UTF-8"?><svg id="_レイヤー_2" xmlns="http://www.w3.org/2000/svg" viewBox="0 0 1560 560"><g id="_レイヤー_1-2"><rect width="1560" height="560" rx="18" ry="18" fill="#c8dbc3"/><path d="M80.64,144.35c-2.38,4.25-4.9,8.21-7.56,11.52-.5-1.15-1.66-3.6-2.38-4.68,6.19-7.49,12.17-20.02,15.84-32.48l5.69,1.8c-.22.5-.72.79-1.66.79-1.58,4.82-3.46,9.65-5.54,14.26l1.66.5c-.14.5-.5.79-1.37.94v48.24h-4.68v-40.9ZM118.66,122.1v4.39h-15.19c-.58,3.38-1.22,7.06-2.23,10.8h11.31c.58-.14.72-.14.86-.14.65.22,1.3.43,2.95,1.08-.07.36-.36.65-.58.86-2.95,22.83-10.94,38.31-22.18,46.37-.65-1.15-2.23-3.02-3.24-3.82,6.19-4.25,11.38-10.73,15.12-19.66-2.09-2.3-5.9-5.47-9.15-7.7l2.09-3.67c3.02,2.02,6.7,4.75,8.71,6.91,1.58-4.75,2.88-10.01,3.67-15.84h-10.73c-2.23,7.27-5.33,14.4-9.79,19.66-.65-1.01-2.09-2.59-3.02-3.38,6.62-7.92,9.87-20.74,11.45-31.47h-7.13v-4.39h27.07ZM122.83,168.54h-4.46v-42.05l5.83.36c-.07.5-.43.86-1.37,1.01v40.68ZM131.9,119.36l5.98.36c-.07.5-.43.86-1.37.94v58.18c0,5.98-2.74,6.41-14.19,6.41-.22-1.3-.94-3.46-1.58-4.82,2.23.07,4.32.14,5.98.14,4.75,0,5.18,0,5.18-1.66v-59.55Z"/><path d="M178.41,179.06v-48.32h-.14l-8.86,5.11-1.44-4.46,11.16-6.26h5.11v53.93h-5.83Z"/><path d="M203.68,145.93c0-2.66,1.73-4.61,4.25-4.61s4.25,1.94,4.25,4.61-1.66,4.61-4.25,4.61c-2.74,0-4.25-2.23-4.25-4.61ZM203.68,175.38c0-2.66,1.73-4.61,4.25-4.61s4.25,1.94,4.25,4.61c0,2.52-1.66,4.54-4.25,4.54-2.74,0-4.25-2.16-4.25-4.54Z"/><path d="M276.62,179.06h-5.98l-17.5-28.87c-3.67-6.12-7.2-12.24-9.86-18.29l-.29.07c.5,6.98.58,13.39.58,22.9v24.19h-5.62v-54.87h6.26l17.71,28.87c3.89,6.55,7.06,12.24,9.58,17.93l.14-.07c-.58-7.63-.72-14.19-.72-22.83v-23.91h5.69v54.87Z"/><path d="M283.6,191.01v-2.59l4.9-4.68c6.41-6.19,10.22-10.44,10.22-14.91,0-3.31-1.94-5.9-6.26-5.9-2.81,0-5.18,1.44-6.62,2.52l-1.51-3.24c2.02-1.73,5.47-3.31,9.36-3.31,7.34,0,10.23,4.82,10.23,9,0,6.12-4.61,11.02-10.73,16.42l-2.66,2.59v.14h13.97v3.96h-20.88Z"/><path d="M385.77,149.82v4.54h-24.05v23.98h-4.46v-23.98h-24.05v-4.54h24.05v-24.05h4.46v24.05h24.05Z"/><path d="M445.75,118.57c-7.85,6.55-14.26,18.58-14.26,33.12s6.62,26.79,14.26,33.12v.36h-4.32c-7.27-6.55-13.75-18.65-13.75-33.48s6.48-26.93,13.75-33.48h4.32v.36Z"/><path d="M466.98,179.06v-48.32h-.14l-8.86,5.11-1.44-4.46,11.16-6.26h5.11v53.93h-5.83Z"/><path d="M492.61,182.3h-4.82l22.83-58.97h4.97l-22.97,58.97Z"/><path d="M550.79,179.06h-31.9v-3.67l5.26-5.54c12.82-12.96,19.3-20.81,19.3-29.59,0-5.76-2.52-11.09-10.3-11.09-4.32,0-8.21,2.38-10.8,4.46l-2.02-4.18c3.31-2.95,8.21-5.26,13.97-5.26,10.87,0,15.19,7.92,15.19,15.34,0,10.15-7.13,18.79-18.29,30.03l-4.25,4.46v.14h23.83v4.9Z"/><path d="M557.56,184.82c7.85-6.55,14.26-18.58,14.26-33.12s-6.62-26.79-14.26-33.12v-.36h4.32c7.34,6.55,13.75,18.65,13.75,33.48s-6.41,26.93-13.75,33.48h-4.32v-.36Z"/><path d="M677.01,151.12c0,19.3-10.8,28.8-23.76,28.8-13.61,0-23.26-10.73-23.26-27.87s10.15-28.73,23.91-28.73,23.11,11.23,23.11,27.79ZM636.25,151.91c0,11.67,6.05,23.04,17.21,23.04s17.28-11.02,17.28-23.55c0-11.02-5.4-23.11-17.14-23.11s-17.35,11.95-17.35,23.62Z"/><path d="M680.82,191.01v-2.59l4.9-4.68c6.41-6.19,10.22-10.44,10.22-14.91,0-3.31-1.94-5.9-6.26-5.9-2.81,0-5.18,1.44-6.62,2.52l-1.51-3.24c2.02-1.73,5.47-3.31,9.36-3.31,7.34,0,10.23,4.82,10.23,9,0,6.12-4.61,11.02-10.73,16.42l-2.66,2.59v.14h13.97v3.96h-20.88Z"/><path d="M785.65,141.32h52.56v4.54h-52.56v-4.54ZM785.65,162.06v-4.54h52.56v4.54h-52.56Z"/><path d="M909.49,179.06h-5.98l-17.5-28.87c-3.67-6.12-7.2-12.24-9.86-18.29l-.29.07c.5,6.98.58,13.39.58,22.9v24.19h-5.62v-54.87h6.26l17.71,28.87c3.89,6.55,7.06,12.24,9.58,17.93l.14-.07c-.58-7.63-.72-14.19-.72-22.83v-23.91h5.69v54.87Z"/><path d="M916.47,191.01v-2.59l4.9-4.68c6.41-6.19,10.22-10.44,10.22-14.91,0-3.31-1.94-5.9-6.26-5.9-2.81,0-5.18,1.44-6.62,2.52l-1.51-3.24c2.02-1.73,5.47-3.31,9.36-3.31,7.34,0,10.22,4.82,10.22,9,0,6.12-4.61,11.02-10.73,16.42l-2.66,2.59v.14h13.97v3.96h-20.88Z"/><path d="M989.56,151.12c0,19.3-10.8,28.8-23.76,28.8-13.61,0-23.26-10.73-23.26-27.87s10.15-28.73,23.91-28.73,23.11,11.23,23.11,27.79ZM948.8,151.91c0,11.67,6.05,23.04,17.21,23.04s17.28-11.02,17.28-23.55c0-11.02-5.4-23.11-17.14-23.11s-17.35,11.95-17.35,23.62Z"/><path d="M1019,149.82h52.56v4.54h-52.56v-4.54Z"/><path d="M1102.59,125.12h31.61v3.82l-22.54,50.12h-6.12l22.54-48.82v-.14h-25.49v-4.97Z"/><path d="M1168.4,179.06h-5.69v-15.12h-23.55v-3.82l23.04-35h6.19v34.2h7.34v4.61h-7.34v15.12ZM1145.22,159.33h17.5v-19.15c0-2.95.14-5.83.29-8.64h-.29c-1.66,3.31-2.95,5.62-4.32,8.06l-13.18,19.59v.14Z"/><path d="M1213.76,179.06h-7.34l-13.54-19.37-3.6,4.1v15.27h-5.98v-57.6h5.98v36.65h.14c.94-1.37,2.3-3.1,3.38-4.39l11.74-13.9h7.2l-14.76,16.2,16.78,23.04Z"/><path d="M1235.94,161.63c0,14.04-6.7,18.29-15.48,18.29-2.45,0-5.33-.5-6.84-1.15l.86-4.9c1.37.5,3.31.94,5.54.94,6.34,0,9.94-2.81,9.94-13.68v-36.87h5.98v37.37Z"/><path d="M81.64,350.95c-2.38,4.25-4.9,8.21-7.56,11.52-.5-1.15-1.66-3.6-2.38-4.68,6.19-7.49,12.17-20.02,15.84-32.47l5.69,1.8c-.22.5-.72.79-1.66.79-1.58,4.82-3.46,9.65-5.54,14.26l1.66.5c-.14.5-.5.79-1.37.94v48.24h-4.68v-40.9ZM119.66,328.7v4.39h-15.19c-.58,3.38-1.22,7.06-2.23,10.8h11.31c.58-.14.72-.14.86-.14.65.22,1.3.43,2.95,1.08-.07.36-.36.65-.58.86-2.95,22.83-10.94,38.31-22.18,46.37-.65-1.15-2.23-3.02-3.24-3.82,6.19-4.25,11.38-10.73,15.12-19.66-2.09-2.3-5.9-5.47-9.15-7.7l2.09-3.67c3.02,2.02,6.7,4.75,8.71,6.91,1.58-4.75,2.88-10.01,3.67-15.84h-10.73c-2.23,7.27-5.33,14.4-9.79,19.66-.65-1.01-2.09-2.59-3.02-3.38,6.62-7.92,9.87-20.74,11.45-31.47h-7.13v-4.39h27.07ZM123.84,375.14h-4.46v-42.05l5.83.36c-.07.5-.43.86-1.37,1.01v40.68ZM132.91,325.96l5.98.36c-.07.5-.43.86-1.37.94v58.18c0,5.98-2.74,6.41-14.19,6.41-.22-1.3-.94-3.46-1.58-4.82,2.23.07,4.32.14,5.98.14,4.75,0,5.18,0,5.18-1.66v-59.55Z"/><path d="M196.13,385.66h-31.9v-3.67l5.26-5.54c12.82-12.96,19.3-20.81,19.3-29.59,0-5.76-2.52-11.09-10.3-11.09-4.32,0-8.21,2.38-10.8,4.46l-2.02-4.18c3.31-2.95,8.21-5.26,13.97-5.26,10.87,0,15.19,7.92,15.19,15.34,0,10.15-7.13,18.79-18.29,30.03l-4.25,4.46v.14h23.83v4.9Z"/><path d="M204.69,352.53c0-2.66,1.73-4.61,4.25-4.61s4.25,1.94,4.25,4.61-1.66,4.61-4.25,4.61c-2.74,0-4.25-2.23-4.25-4.61ZM204.69,381.98c0-2.66,1.73-4.61,4.25-4.61s4.25,1.94,4.25,4.61c0,2.52-1.66,4.54-4.25,4.54-2.74,0-4.25-2.16-4.25-4.54Z"/><path d="M266.33,325.17c-7.85,6.55-14.26,18.58-14.26,33.12s6.62,26.79,14.26,33.12v.36h-4.32c-7.27-6.55-13.75-18.65-13.75-33.48s6.48-26.93,13.75-33.48h4.32v.36Z"/><path d="M287.56,385.66v-48.32h-.14l-8.86,5.11-1.44-4.46,11.16-6.26h5.11v53.93h-5.83Z"/><path d="M313.19,388.9h-4.82l22.83-58.97h4.97l-22.97,58.97Z"/><path d="M371.37,385.66h-31.9v-3.67l5.26-5.54c12.82-12.96,19.3-20.81,19.3-29.59,0-5.76-2.52-11.09-10.3-11.09-4.32,0-8.21,2.38-10.8,4.46l-2.02-4.18c3.31-2.95,8.21-5.26,13.97-5.26,10.87,0,15.19,7.92,15.19,15.34,0,10.15-7.13,18.79-18.29,30.03l-4.25,4.46v.14h23.83v4.9Z"/><path d="M378.13,391.42c7.85-6.55,14.26-18.58,14.26-33.12s-6.62-26.79-14.26-33.12v-.36h4.32c7.34,6.55,13.75,18.65,13.75,33.48s-6.41,26.93-13.75,33.48h-4.32v-.36Z"/><path d="M492.4,385.66h-5.98l-17.5-28.87c-3.67-6.12-7.2-12.24-9.86-18.29l-.29.07c.5,6.98.58,13.39.58,22.9v24.19h-5.62v-54.87h6.26l17.71,28.87c3.89,6.55,7.06,12.24,9.58,17.93l.14-.07c-.58-7.63-.72-14.18-.72-22.83v-23.91h5.69v54.87Z"/><path d="M499.38,397.61v-2.59l4.9-4.68c6.41-6.19,10.23-10.44,10.23-14.91,0-3.31-1.94-5.9-6.26-5.9-2.81,0-5.18,1.44-6.62,2.52l-1.51-3.24c2.02-1.73,5.47-3.31,9.36-3.31,7.34,0,10.23,4.82,10.23,9,0,6.12-4.61,11.02-10.73,16.42l-2.66,2.59v.14h13.97v3.96h-20.88Z"/><path d="M601.55,356.42v4.54h-24.05v23.98h-4.46v-23.98h-24.05v-4.54h24.05v-24.05h4.46v24.05h24.05Z"/><path d="M661.53,325.17c-7.85,6.55-14.26,18.58-14.26,33.12s6.62,26.79,14.26,33.12v.36h-4.32c-7.27-6.55-13.75-18.65-13.75-33.48s6.48-26.93,13.75-33.48h4.32v.36Z"/><path d="M682.76,385.66v-48.32h-.14l-8.86,5.11-1.44-4.46,11.16-6.26h5.11v53.93h-5.83Z"/><path d="M708.39,388.9h-4.82l22.83-58.97h4.97l-22.97,58.97Z"/><path d="M766.57,385.66h-31.9v-3.67l5.26-5.54c12.82-12.96,19.3-20.81,19.3-29.59,0-5.76-2.52-11.09-10.3-11.09-4.32,0-8.21,2.38-10.8,4.46l-2.02-4.18c3.31-2.95,8.21-5.26,13.97-5.26,10.87,0,15.19,7.92,15.19,15.34,0,10.15-7.13,18.79-18.29,30.03l-4.25,4.46v.14h23.83v4.9Z"/><path d="M773.34,391.42c7.85-6.55,14.26-18.58,14.26-33.12s-6.62-26.79-14.26-33.12v-.36h4.32c7.34,6.55,13.75,18.65,13.75,33.48s-6.41,26.93-13.75,33.48h-4.32v-.36Z"/><path d="M892.79,357.72c0,19.3-10.8,28.8-23.76,28.8-13.61,0-23.26-10.73-23.26-27.87s10.15-28.73,23.91-28.73,23.11,11.23,23.11,27.79ZM852.03,358.51c0,11.67,6.05,23.04,17.21,23.04s17.28-11.02,17.28-23.55c0-11.02-5.4-23.11-17.14-23.11s-17.35,11.95-17.35,23.62Z"/><path d="M896.6,397.61v-2.59l4.9-4.68c6.41-6.19,10.22-10.44,10.22-14.91,0-3.31-1.94-5.9-6.26-5.9-2.81,0-5.18,1.44-6.62,2.52l-1.51-3.24c2.02-1.73,5.47-3.31,9.36-3.31,7.34,0,10.22,4.82,10.22,9,0,6.12-4.61,11.02-10.73,16.42l-2.66,2.59v.14h13.97v3.96h-20.88Z"/><path d="M1001.43,347.92h52.56v4.54h-52.56v-4.54ZM1001.43,368.66v-4.54h52.56v4.54h-52.56Z"/><path d="M1125.28,385.66h-5.98l-17.5-28.87c-3.67-6.12-7.2-12.24-9.86-18.29l-.29.07c.5,6.98.58,13.39.58,22.9v24.19h-5.62v-54.87h6.26l17.71,28.87c3.89,6.55,7.06,12.24,9.58,17.93l.14-.07c-.58-7.63-.72-14.18-.72-22.83v-23.91h5.69v54.87Z"/><path d="M1181.36,357.72c0,19.3-10.8,28.8-23.76,28.8-13.61,0-23.26-10.73-23.26-27.87s10.15-28.73,23.91-28.73,23.11,11.23,23.11,27.79ZM1140.61,358.51c0,11.67,6.05,23.04,17.21,23.04s17.28-11.02,17.28-23.55c0-11.02-5.4-23.11-17.14-23.11s-17.35,11.95-17.35,23.62Z"/><path d="M1210.81,356.42h52.56v4.54h-52.56v-4.54Z"/><path d="M1320.54,360.17c-2.95,3.74-7.13,5.98-12.38,5.98-9.22,0-14.91-7.2-14.91-16.34,0-9.87,6.48-18.94,17.07-18.94s16.49,8.79,16.49,22.54c0,17.93-9.07,30.39-22.9,32.55-2.52.43-4.82.58-6.41.5v-4.97c1.51.14,3.24-.07,5.54-.36,9.07-1.3,15.91-8.64,17.71-20.95h-.22ZM1299.29,349.44c0,7.27,4.1,12.17,10.3,12.17,5.83,0,11.16-4.46,11.16-8.79,0-10.37-3.82-17.35-10.95-17.35-6.26,0-10.51,5.91-10.51,13.97Z"/><path d="M1332.48,358.87c0-18.87,7.34-28.01,17.43-28.01s16.49,9.65,16.49,27.29c0,18.72-6.55,28.37-17.28,28.37-9.79,0-16.63-9.65-16.63-27.65ZM1360.35,358.44c0-13.47-3.24-22.75-10.8-22.75-6.41,0-10.94,8.57-10.94,22.75s3.96,23.19,10.73,23.19c7.99,0,11.02-10.37,11.02-23.19Z"/><path d="M1405.64,385.66h-7.34l-13.54-19.37-3.6,4.1v15.26h-5.98v-57.6h5.98v36.65h.14c.94-1.37,2.3-3.1,3.38-4.39l11.74-13.9h7.2l-14.76,16.2,16.78,23.04Z"/><path d="M1427.81,368.23c0,14.04-6.7,18.29-15.48,18.29-2.45,0-5.33-.5-6.84-1.15l.86-4.9c1.37.5,3.31.94,5.54.94,6.34,0,9.94-2.81,9.94-13.68v-36.87h5.98v37.37Z"/></g></svg>