<?xml version="1.0" encoding="UTF-8"?><svg id="_レイヤー_1" xmlns="http://www.w3.org/2000/svg" viewBox="0 0 1560 560"><rect width="1560" height="560" rx="18" ry="18" fill="#c8dbc3"/><path d="M301.57,240.68c-1.66-8.35-2.52-12.24-11.02-12.24-10.94,0-16.13,9.58-16.13,24.12,0,22.9,11.38,25.27,15.41,25.27,7.63,0,11.52-5.98,13.47-11.95l2.88.79c-3.1,9.5-9.29,14.4-17.07,14.4-6.26,0-11.3-2.3-14.83-6.34-4.25-5.11-6.19-12.17-6.19-21.89,0-18.15,8.93-27.22,22.32-27.22,3.02,0,6.26.14,12.1,2.45.5,4.1,1.08,8.28,1.87,12.03l-2.81.58Z"/><path d="M320.57,261.93c1.94,0,3.82-.29,5.11-.72,1.22-.36,2.45-.94,3.31-1.94.86-1.08,1.15-2.3,1.15-3.67,0-1.3-.43-2.88-1.51-3.89-1.15-1.01-2.81-1.44-4.9-1.44-1.58,0-2.95.29-4.1,1.15-.94.65-1.51,1.58-2.16,3.1-.65,1.44-1.44,2.02-2.38,2.02-1.08,0-1.8-.79-1.8-2.02,0-1.37,1.01-3.24,3.46-4.61,1.87-1.08,4.1-1.8,7.27-1.8,3.82,0,6.84.79,8.57,2.23,1.58,1.3,2.38,3.1,2.38,5.33,0,1.73-.94,3.46-2.38,4.68-1.58,1.3-3.82,1.94-6.48,2.3v.22c2.81.29,5.4.94,7.27,2.3,2.09,1.51,2.95,3.75,2.95,6.05s-.86,4.82-3.17,6.7c-1.8,1.44-4.46,2.59-9.5,2.59-2.74,0-5.47-.43-7.78-1.8-2.16-1.3-3.31-3.17-3.31-4.75,0-1.44.72-2.23,1.87-2.23.72,0,1.44.43,1.8,1.08.43.58.72,1.37,1.22,2.23.94,1.66,2.81,3.24,6.19,3.24,2.52,0,4.39-.5,5.76-1.8,1.3-1.22,1.94-3.02,1.94-5.26,0-1.58-.5-3.02-1.44-4.25-1.01-1.3-2.66-2.16-4.61-2.66-1.3-.29-2.88-.36-4.75-.36v-2.02Z"/><path d="M390.49,229.02c-5.33,0-5.76.43-5.76,5.62v37.44c0,5.18.43,5.62,5.76,5.62v2.3h-16.78v-2.3c4.68,0,5.04-.43,5.04-5.54v-18.43h-24.7v18.43c0,5.11.36,5.54,5.04,5.54v2.3h-16.78v-2.3c5.26,0,5.69-.43,5.69-5.62v-37.44c0-5.18-.43-5.62-5.69-5.62v-2.3h16.78v2.3c-4.68,0-5.04.36-5.04,5.47v16.27h24.7v-16.2c0-5.18-.36-5.54-5.04-5.54v-2.3h16.78v2.3Z"/><path d="M408.05,280.5c-5.26,0-11.88-2.38-11.88-8.71,0-4.32,4.1-6.77,7.63-7.99v-.14c-3.53-1.44-6.55-3.96-6.55-8.14,0-5.62,6.48-7.42,10.94-7.42s11.02,1.66,11.02,7.42c0,4.03-3.82,5.98-7.13,7.06v.07c4.61,1.66,8.35,4.82,8.35,8.93,0,6.7-6.77,8.93-12.31,8.93h-.07ZM408.19,278.2c3.96,0,7.49-2.09,7.49-5.9,0-4.18-5.83-6.26-9-7.27-3.02,1.15-6.19,3.1-6.19,6.77,0,4.03,3.6,6.41,7.63,6.41h.07ZM408.05,250.26c-3.1,0-6.55,1.44-6.55,4.9,0,3.82,4.75,5.4,7.63,6.34,3.24-1.15,5.83-3.24,5.83-5.9,0-3.17-2.81-5.33-6.84-5.33h-.07Z"/><path d="M481.06,254.94v25.92h-2.88v-25.92h-25.92v-2.88h25.92v-25.92h2.88v25.92h25.92v2.88h-25.92Z"/><path d="M543.26,253.86l3.74-25.92h19.8c2.66,0,2.95-.14,3.46-1.22h2.23l-1.51,5.83h-21.24l-2.66,16.71.14.07c3.02-2.23,6.41-3.31,10.73-3.31,10.23,0,16.27,6.48,16.27,16.49s-5.47,18.58-17.57,18.58c-9.29,0-15.7-5.9-15.7-10.44,0-2.3,1.22-3.24,2.59-3.24,1.22,0,2.09.5,3.02,2.45.94,3.02,3.53,8.42,10.3,8.42,5.11,0,11.23-3.82,11.23-15.34,0-7.13-2.3-14.04-11.38-14.04-5.04,0-8.86,2.52-11.16,5.62l-2.3-.65Z"/><path d="M583.22,253.36c0-19.44,9.22-27.72,22.39-27.72,14.26,0,22.39,9.58,22.39,27.72s-8.06,27.72-22.39,27.72c-17.14,0-22.39-13.18-22.39-27.72ZM594.31,233.63c-2.95,3.74-4.82,9.72-4.82,19.73,0,8.35,1.58,15.19,4.75,19.59,2.59,3.24,6.84,5.33,11.3,5.33s8.64-2.09,11.31-5.33c3.17-4.39,4.75-11.23,4.75-19.59,0-10.01-1.8-15.99-4.75-19.73-2.88-3.6-6.91-5.18-11.23-5.18s-8.57,1.8-11.31,5.18Z"/><path d="M634.7,279.21c1.01-4.61,3.46-8.21,6.34-10.8,2.66-2.52,6.7-4.54,9.07-6.77,1.8-1.73,2.66-3.46,2.66-5.69,0-1.58-.5-2.95-1.8-4.1-1.15-.94-2.74-1.37-4.75-1.37-1.51,0-2.81.36-3.82,1.08-.86.65-1.51,1.51-2.23,3.1-.58,1.51-1.3,2.23-2.59,2.23-1.22,0-1.94-.72-1.94-2.09,0-1.58,1.15-3.53,3.53-4.82,2.02-1.08,4.46-1.73,7.42-1.73,3.46,0,5.83.65,7.78,2.02,2.09,1.37,3.17,3.1,3.17,5.69,0,2.3-.86,4.1-2.38,5.83-3.31,3.74-7.85,5.18-11.52,7.92-2.23,1.73-3.89,3.74-4.9,6.48h12.82c3.1,0,3.53-.22,4.46-3.74l1.94.29-1.51,7.27h-20.81l-.94-.79Z"/><path d="M684.89,254.08v-2.88h59.55c-4.75-3.6-10.15-8.79-13.97-13.97l2.3-1.87c4.9,6.7,12.24,13.11,18.79,17.28-6.55,4.18-13.9,10.58-18.79,17.28l-2.3-1.87c3.82-5.18,9.22-10.37,13.97-13.97h-59.55Z"/><path d="M798.65,251.63c7.99.5,15.19,5.11,15.19,13.9,0,7.63-5.54,15.55-18.29,15.55-11.16,0-16.85-6.48-16.85-10.73,0-1.94.79-3.1,2.45-3.1,1.08,0,1.87.5,2.81,2.23.72,1.37,1.66,3.17,3.31,4.68,1.73,2.23,4.18,4.18,8.42,4.18,3.89,0,12.02-1.8,12.02-12.53,0-2.74-.72-5.26-2.45-7.49-3.02-3.82-8.71-5.18-14.76-5.18v-2.66c7.27,0,15.27-3.17,15.27-11.23,0-5.47-3.75-9.43-10.15-9.43s-9.07,4.75-9.87,7.06c-.86,2.45-1.58,3.67-3.6,3.67-1.44,0-2.3-1.15-2.3-3.17,0-3.38,5.04-10.37,15.91-10.37s15.84,5.54,15.84,12.46c0,4.25-2.38,10.58-12.96,11.95v.22Z"/><path d="M855.03,240.68c-1.66-8.35-2.52-12.24-11.02-12.24-10.95,0-16.13,9.58-16.13,24.12,0,22.9,11.38,25.27,15.41,25.27,7.63,0,11.52-5.98,13.47-11.95l2.88.79c-3.1,9.5-9.29,14.4-17.07,14.4-6.26,0-11.3-2.3-14.83-6.34-4.25-5.11-6.19-12.17-6.19-21.89,0-18.15,8.93-27.22,22.32-27.22,3.02,0,6.26.14,12.1,2.45.5,4.1,1.08,8.28,1.87,12.03l-2.81.58Z"/><path d="M866.04,253.36c0-19.44,9.22-27.72,22.39-27.72,14.26,0,22.39,9.58,22.39,27.72s-8.07,27.72-22.39,27.72c-17.14,0-22.39-13.18-22.39-27.72ZM877.13,233.63c-2.95,3.74-4.82,9.72-4.82,19.73,0,8.35,1.58,15.19,4.75,19.59,2.59,3.24,6.84,5.33,11.3,5.33s8.64-2.09,11.31-5.33c3.17-4.39,4.75-11.23,4.75-19.59,0-10.01-1.8-15.99-4.75-19.73-2.88-3.6-6.91-5.18-11.23-5.18s-8.57,1.8-11.3,5.18Z"/><path d="M917.52,279.21c1.01-4.61,3.46-8.21,6.34-10.8,2.67-2.52,6.7-4.54,9.07-6.77,1.8-1.73,2.66-3.46,2.66-5.69,0-1.58-.5-2.95-1.8-4.1-1.15-.94-2.74-1.37-4.75-1.37-1.51,0-2.81.36-3.82,1.08-.86.65-1.51,1.51-2.23,3.1-.58,1.51-1.3,2.23-2.59,2.23-1.22,0-1.94-.72-1.94-2.09,0-1.58,1.15-3.53,3.53-4.82,2.02-1.08,4.46-1.73,7.42-1.73,3.46,0,5.83.65,7.78,2.02,2.09,1.37,3.17,3.1,3.17,5.69,0,2.3-.86,4.1-2.38,5.83-3.31,3.74-7.85,5.18-11.52,7.92-2.23,1.73-3.89,3.74-4.9,6.48h12.82c3.1,0,3.53-.22,4.46-3.74l1.94.29-1.51,7.27h-20.81l-.94-.79Z"/><path d="M1002.26,254.94v25.92h-2.88v-25.92h-25.92v-2.88h25.92v-25.92h2.88v25.92h25.92v2.88h-25.92Z"/><path d="M1083.26,265.67h-21.89v-2.3l23.4-36.22h4.32v35.43h6.55l-.5,3.1h-6.05v6.26c0,5.18.36,5.76,5.76,5.76v2.3h-18.36v-2.3c6.48,0,6.77-.65,6.77-5.76v-6.26ZM1083.12,234.71c-1.15,1.66-2.23,4.1-4.18,6.91l-13.32,20.95h17.64v-20.52c0-2.09.07-4.75.14-7.34h-.29Z"/><path d="M1151.74,229.02c-5.33,0-5.76.43-5.76,5.62v37.44c0,5.18.43,5.62,5.76,5.62v2.3h-16.78v-2.3c4.68,0,5.04-.43,5.04-5.54v-18.43h-24.7v18.43c0,5.11.36,5.54,5.04,5.54v2.3h-16.78v-2.3c5.26,0,5.69-.43,5.69-5.62v-37.44c0-5.18-.43-5.62-5.69-5.62v-2.3h16.78v2.3c-4.68,0-5.04.36-5.04,5.47v16.27h24.7v-16.2c0-5.18-.36-5.54-5.04-5.54v-2.3h16.78v2.3Z"/><path d="M1157.49,279.21c1.01-4.61,3.46-8.21,6.34-10.8,2.67-2.52,6.7-4.54,9.07-6.77,1.8-1.73,2.66-3.46,2.66-5.69,0-1.58-.5-2.95-1.8-4.1-1.15-.94-2.74-1.37-4.75-1.37-1.51,0-2.81.36-3.82,1.08-.86.65-1.51,1.51-2.23,3.1-.58,1.51-1.3,2.23-2.59,2.23-1.22,0-1.94-.72-1.94-2.09,0-1.58,1.15-3.53,3.53-4.82,2.02-1.08,4.46-1.73,7.42-1.73,3.46,0,5.83.65,7.78,2.02,2.09,1.37,3.17,3.1,3.17,5.69,0,2.3-.86,4.1-2.38,5.83-3.31,3.74-7.85,5.18-11.52,7.92-2.23,1.73-3.89,3.74-4.9,6.48h12.82c3.1,0,3.53-.22,4.46-3.74l1.94.29-1.51,7.27h-20.81l-.94-.79Z"/><path d="M1188.16,253.36c0-19.44,9.22-27.72,22.39-27.72,14.26,0,22.39,9.58,22.39,27.72s-8.06,27.72-22.39,27.72c-17.14,0-22.39-13.18-22.39-27.72ZM1199.25,233.63c-2.95,3.74-4.83,9.72-4.83,19.73,0,8.35,1.58,15.19,4.75,19.59,2.59,3.24,6.84,5.33,11.3,5.33s8.64-2.09,11.3-5.33c3.17-4.39,4.75-11.23,4.75-19.59,0-10.01-1.8-15.99-4.75-19.73-2.88-3.6-6.91-5.18-11.23-5.18s-8.57,1.8-11.3,5.18Z"/></svg>