<?xml version="1.0" encoding="UTF-8"?><svg id="_レイヤー_1" xmlns="http://www.w3.org/2000/svg" xmlns:xlink="http://www.w3.org/1999/xlink" viewBox="0 0 1544.41 860"><defs><clipPath id="clippath"><rect x="108.4" y="52.58" width="1391.05" height="723.79" fill="none"/></clipPath><clipPath id="clippath-1"><rect x="108.4" y="52.58" width="1391.05" height="723.79" fill="none"/></clipPath><clipPath id="clippath-2"><rect x="108.4" y="52.58" width="1391.05" height="723.79" fill="none"/></clipPath><clipPath id="clippath-3"><rect x="108.4" y="52.58" width="1391.05" height="723.79" fill="none"/></clipPath><clipPath id="clippath-4"><rect x="108.4" y="52.58" width="1391.05" height="723.79" fill="none"/></clipPath><clipPath id="clippath-5"><rect x="108.4" y="52.58" width="1391.05" height="723.79" fill="none"/></clipPath><clipPath id="clippath-6"><rect x="108.4" y="52.58" width="1391.05" height="723.79" fill="none"/></clipPath></defs><rect width="1544.41" height="860" rx="18" ry="18" fill="#c8dbc3"/><g id="figure_1"><g id="patch_1"><path d="M15.83,835.95h1511.98V16.61H15.83v819.34Z" fill="#fff"/></g><g id="axes_1"><g id="patch_2"><path d="M108.4,776.36h1391.05V52.58H108.4v723.79Z" fill="#fff"/></g><g id="matplotlib.axis_1"><g id="xtick_1"><g id="line2d_1"><path id="m60d35fb349" d="M108.4,776.36v-7.97" fill="#1a1a1a" stroke="#1a1a1a" stroke-linejoin="round" stroke-width=".8"/></g><g id="text_1"><path id="DejaVuSans-2212" d="M68.48,795.38h19.72v2.27h-19.72v-2.27Z" fill="#1a1a1a"/><path id="DejaVuSans-31" d="M95.44,802.81h5.07v-15.19l-5.52.96v-2.45l5.49-.96h3.11v17.65h5.07v2.27h-13.22v-2.27Z" fill="#1a1a1a"/><path id="DejaVuSans-30" d="M121.59,786.94c-1.6,0-2.8.68-3.61,2.05-.8,1.36-1.21,3.41-1.21,6.15s.4,4.78,1.21,6.14c.81,1.37,2.01,2.05,3.61,2.05s2.82-.68,3.62-2.05c.81-1.37,1.21-3.41,1.21-6.14s-.4-4.79-1.21-6.15c-.8-1.37-2.01-2.05-3.62-2.05ZM121.59,784.81c2.58,0,4.54.88,5.9,2.65,1.36,1.76,2.04,4.33,2.04,7.69s-.68,5.91-2.04,7.68c-1.36,1.76-3.33,2.65-5.9,2.65s-4.54-.88-5.9-2.65c-1.36-1.77-2.04-4.33-2.04-7.68s.68-5.92,2.04-7.69c1.36-1.77,3.32-2.65,5.9-2.65Z" fill="#1a1a1a"/><path id="DejaVuSans-30-2" d="M141.63,786.94c-1.6,0-2.8.68-3.61,2.05-.8,1.36-1.21,3.41-1.21,6.15s.4,4.78,1.21,6.14c.81,1.37,2.01,2.05,3.61,2.05s2.82-.68,3.62-2.05c.81-1.37,1.21-3.41,1.21-6.14s-.4-4.79-1.21-6.15c-.8-1.37-2.01-2.05-3.62-2.05ZM141.63,784.81c2.58,0,4.54.88,5.9,2.65,1.36,1.76,2.04,4.33,2.04,7.69s-.68,5.91-2.04,7.68c-1.36,1.76-3.33,2.65-5.9,2.65s-4.54-.88-5.9-2.65c-1.36-1.77-2.04-4.33-2.04-7.68s.68-5.92,2.04-7.69c1.36-1.77,3.32-2.65,5.9-2.65Z" fill="#1a1a1a"/></g></g><g id="xtick_2"><g id="line2d_2"><path id="m60d35fb349-2" d="M361.32,776.36v-7.97" fill="#1a1a1a" stroke="#1a1a1a" stroke-linejoin="round" stroke-width=".8"/></g><g id="text_2"><path id="DejaVuSans-30-3" d="M361.31,786.94c-1.6,0-2.8.68-3.61,2.05-.8,1.36-1.21,3.41-1.21,6.15s.4,4.78,1.21,6.14c.81,1.37,2.01,2.05,3.61,2.05s2.82-.68,3.62-2.05c.81-1.37,1.21-3.41,1.21-6.14s-.4-4.79-1.21-6.15c-.8-1.37-2.01-2.05-3.62-2.05ZM361.31,784.81c2.58,0,4.54.88,5.9,2.65,1.36,1.76,2.04,4.33,2.04,7.69s-.68,5.91-2.04,7.68c-1.36,1.76-3.33,2.65-5.9,2.65s-4.54-.88-5.9-2.65c-1.36-1.77-2.04-4.33-2.04-7.68s.68-5.92,2.04-7.69c1.36-1.77,3.32-2.65,5.9-2.65Z" fill="#1a1a1a"/></g></g><g id="xtick_3"><g id="line2d_3"><path id="m60d35fb349-3" d="M614.24,776.36v-7.97" fill="#1a1a1a" stroke="#1a1a1a" stroke-linejoin="round" stroke-width=".8"/></g><g id="text_3"><path id="DejaVuSans-31-2" d="M588.08,802.81h5.07v-15.19l-5.52.96v-2.45l5.49-.96h3.11v17.65h5.07v2.27h-13.22v-2.27Z" fill="#1a1a1a"/><path id="DejaVuSans-30-4" d="M614.23,786.94c-1.6,0-2.8.68-3.61,2.05-.8,1.36-1.21,3.41-1.21,6.15s.4,4.78,1.21,6.14c.81,1.37,2.01,2.05,3.61,2.05s2.82-.68,3.62-2.05c.81-1.37,1.21-3.41,1.21-6.14s-.4-4.79-1.21-6.15c-.8-1.37-2.01-2.05-3.62-2.05ZM614.23,784.81c2.58,0,4.54.88,5.9,2.65,1.36,1.76,2.04,4.33,2.04,7.69s-.68,5.91-2.04,7.68c-1.36,1.76-3.33,2.65-5.9,2.65s-4.54-.88-5.9-2.65c-1.36-1.77-2.04-4.33-2.04-7.68s.68-5.92,2.04-7.69c1.36-1.77,3.32-2.65,5.9-2.65Z" fill="#1a1a1a"/><path id="DejaVuSans-30-5" d="M634.27,786.94c-1.6,0-2.8.68-3.61,2.05-.8,1.36-1.21,3.41-1.21,6.15s.4,4.78,1.21,6.14c.81,1.37,2.01,2.05,3.61,2.05s2.82-.68,3.62-2.05c.81-1.37,1.21-3.41,1.21-6.14s-.4-4.79-1.21-6.15c-.8-1.37-2.01-2.05-3.62-2.05ZM634.27,784.81c2.58,0,4.54.88,5.9,2.65,1.36,1.76,2.04,4.33,2.04,7.69s-.68,5.91-2.04,7.68c-1.36,1.76-3.33,2.65-5.9,2.65s-4.54-.88-5.9-2.65c-1.36-1.77-2.04-4.33-2.04-7.68s.68-5.92,2.04-7.69c1.36-1.77,3.32-2.65,5.9-2.65Z" fill="#1a1a1a"/></g></g><g id="xtick_4"><g id="line2d_4"><path id="m60d35fb349-4" d="M867.16,776.36v-7.97" fill="#1a1a1a" stroke="#1a1a1a" stroke-linejoin="round" stroke-width=".8"/></g><g id="text_4"><path id="DejaVuSans-32" d="M843.14,802.81h10.84v2.27h-14.58v-2.27c1.18-1.06,2.78-2.48,4.82-4.26,2.04-1.78,3.32-2.93,3.84-3.45.99-.97,1.69-1.79,2.08-2.46.4-.67.6-1.33.6-1.98,0-1.06-.43-1.92-1.28-2.59-.86-.67-1.97-1-3.35-1-.97,0-2,.15-3.09.44-1.08.29-2.23.74-3.46,1.34v-2.72c1.25-.44,2.42-.76,3.5-.99,1.09-.22,2.09-.33,2.99-.33,2.38,0,4.28.52,5.69,1.55,1.41,1.03,2.12,2.41,2.12,4.13,0,.82-.18,1.6-.53,2.33-.35.73-.99,1.59-1.93,2.59-.26.26-1.07,1-2.45,2.24-1.37,1.23-3.31,2.95-5.81,5.17Z" fill="#1a1a1a"/><path id="DejaVuSans-30-6" d="M867.15,786.94c-1.6,0-2.8.68-3.61,2.05-.8,1.36-1.21,3.41-1.21,6.15s.4,4.78,1.21,6.14c.81,1.37,2.01,2.05,3.61,2.05s2.82-.68,3.62-2.05c.81-1.37,1.21-3.41,1.21-6.14s-.4-4.79-1.21-6.15c-.8-1.37-2.01-2.05-3.62-2.05ZM867.15,784.81c2.58,0,4.54.88,5.9,2.65,1.36,1.76,2.04,4.33,2.04,7.69s-.68,5.91-2.04,7.68c-1.36,1.76-3.33,2.65-5.9,2.65s-4.54-.88-5.9-2.65c-1.36-1.77-2.04-4.33-2.04-7.68s.68-5.92,2.04-7.69c1.36-1.77,3.32-2.65,5.9-2.65Z" fill="#1a1a1a"/><path id="DejaVuSans-30-7" d="M887.19,786.94c-1.6,0-2.8.68-3.61,2.05-.8,1.36-1.21,3.41-1.21,6.15s.4,4.78,1.21,6.14c.81,1.37,2.01,2.05,3.61,2.05s2.82-.68,3.62-2.05c.81-1.37,1.21-3.41,1.21-6.14s-.4-4.79-1.21-6.15c-.8-1.37-2.01-2.05-3.62-2.05ZM887.19,784.81c2.58,0,4.54.88,5.9,2.65,1.36,1.76,2.04,4.33,2.04,7.69s-.68,5.91-2.04,7.68c-1.36,1.76-3.33,2.65-5.9,2.65s-4.54-.88-5.9-2.65c-1.36-1.77-2.04-4.33-2.04-7.68s.68-5.92,2.04-7.69c1.36-1.77,3.32-2.65,5.9-2.65Z" fill="#1a1a1a"/></g></g><g id="xtick_5"><g id="line2d_5"><path id="m60d35fb349-5" d="M1120.08,776.36v-7.97" fill="#1a1a1a" stroke="#1a1a1a" stroke-linejoin="round" stroke-width=".8"/></g><g id="text_5"><path id="DejaVuSans-33" d="M1102.8,794.34c1.49.28,2.65.85,3.48,1.72.84.87,1.26,1.95,1.26,3.23,0,1.96-.78,3.48-2.34,4.56-1.56,1.08-3.77,1.61-6.64,1.61-.96,0-1.95-.08-2.97-.25-1.02-.17-2.07-.41-3.16-.74v-2.6c.86.44,1.8.76,2.83.99,1.03.22,2.1.33,3.22.33,1.95,0,3.43-.33,4.45-1s1.53-1.63,1.53-2.91c0-1.17-.47-2.09-1.42-2.75-.95-.66-2.27-.99-3.96-.99h-2.68v-2.21h2.8c1.53,0,2.69-.26,3.5-.79s1.22-1.29,1.22-2.29-.42-1.81-1.26-2.35c-.83-.55-2.03-.82-3.59-.82-.85,0-1.77.08-2.74.24-.97.16-2.05.41-3.21.74v-2.4c1.18-.28,2.29-.5,3.32-.64s2-.21,2.91-.21c2.36,0,4.22.47,5.6,1.4,1.37.93,2.06,2.18,2.06,3.76,0,1.1-.36,2.04-1.09,2.8-.73.76-1.76,1.29-3.11,1.58Z" fill="#1a1a1a"/><path id="DejaVuSans-30-8" d="M1120.07,786.94c-1.6,0-2.8.68-3.61,2.05-.8,1.36-1.21,3.41-1.21,6.15s.4,4.78,1.21,6.14c.81,1.37,2.01,2.05,3.61,2.05s2.82-.68,3.62-2.05c.81-1.37,1.21-3.41,1.21-6.14s-.4-4.79-1.21-6.15c-.8-1.37-2.01-2.05-3.62-2.05ZM1120.07,784.81c2.58,0,4.54.88,5.9,2.65,1.36,1.76,2.04,4.33,2.04,7.69s-.68,5.91-2.04,7.68c-1.36,1.76-3.33,2.65-5.9,2.65s-4.54-.88-5.9-2.65c-1.36-1.77-2.04-4.33-2.04-7.68s.68-5.92,2.04-7.69c1.36-1.77,3.32-2.65,5.9-2.65Z" fill="#1a1a1a"/><path id="DejaVuSans-30-9" d="M1140.11,786.94c-1.6,0-2.8.68-3.61,2.05-.8,1.36-1.21,3.41-1.21,6.15s.4,4.78,1.21,6.14c.81,1.37,2.01,2.05,3.61,2.05s2.82-.68,3.62-2.05c.81-1.37,1.21-3.41,1.21-6.14s-.4-4.79-1.21-6.15c-.8-1.37-2.01-2.05-3.62-2.05ZM1140.11,784.81c2.58,0,4.54.88,5.9,2.65,1.36,1.76,2.04,4.33,2.04,7.69s-.68,5.91-2.04,7.68c-1.36,1.76-3.33,2.65-5.9,2.65s-4.54-.88-5.9-2.65c-1.36-1.77-2.04-4.33-2.04-7.68s.68-5.92,2.04-7.69c1.36-1.77,3.32-2.65,5.9-2.65Z" fill="#1a1a1a"/></g></g><g id="xtick_6"><g id="line2d_6"><path id="m60d35fb349-6" d="M1373,776.36v-7.97" fill="#1a1a1a" stroke="#1a1a1a" stroke-linejoin="round" stroke-width=".8"/></g><g id="text_6"><path id="DejaVuSans-34" d="M1354.84,787.51l-7.85,10.63h7.85v-10.63ZM1354.02,785.17h3.91v12.98h3.28v2.24h-3.28v4.69h-3.09v-4.69h-10.37v-2.6l9.55-12.62Z" fill="#1a1a1a"/><path id="DejaVuSans-30-10" d="M1372.99,786.94c-1.6,0-2.8.68-3.61,2.05-.8,1.36-1.21,3.41-1.21,6.15s.4,4.78,1.21,6.14c.81,1.37,2.01,2.05,3.61,2.05s2.82-.68,3.62-2.05c.81-1.37,1.21-3.41,1.21-6.14s-.4-4.79-1.21-6.15c-.8-1.37-2.01-2.05-3.62-2.05ZM1372.99,784.81c2.58,0,4.54.88,5.9,2.65,1.36,1.76,2.04,4.33,2.04,7.69s-.68,5.91-2.04,7.68c-1.36,1.76-3.33,2.65-5.9,2.65s-4.54-.88-5.9-2.65c-1.36-1.77-2.04-4.33-2.04-7.68s.68-5.92,2.04-7.69c1.36-1.77,3.32-2.65,5.9-2.65Z" fill="#1a1a1a"/><path id="DejaVuSans-30-11" d="M1393.03,786.94c-1.6,0-2.8.68-3.61,2.05-.8,1.36-1.21,3.41-1.21,6.15s.4,4.78,1.21,6.14c.81,1.37,2.01,2.05,3.61,2.05s2.82-.68,3.62-2.05c.81-1.37,1.21-3.41,1.21-6.14s-.4-4.79-1.21-6.15c-.8-1.37-2.01-2.05-3.62-2.05ZM1393.03,784.81c2.58,0,4.54.88,5.9,2.65,1.36,1.76,2.04,4.33,2.04,7.69s-.68,5.91-2.04,7.68c-1.36,1.76-3.33,2.65-5.9,2.65s-4.54-.88-5.9-2.65c-1.36-1.77-2.04-4.33-2.04-7.68s.68-5.92,2.04-7.69c1.36-1.77,3.32-2.65,5.9-2.65Z" fill="#1a1a1a"/></g></g></g><g id="matplotlib.axis_2"><g id="ytick_1"><g id="line2d_7"><path id="m6edb477f21" d="M108.4,776.36h9.19" fill="#1a1a1a" stroke="#1a1a1a" stroke-linejoin="round" stroke-width=".8"/></g><g id="text_7"><path id="DejaVuSans-31-3" d="M47.68,784.26h5.07v-15.19l-5.52.96v-2.45l5.49-.96h3.11v17.65h5.07v2.27h-13.22v-2.27Z" fill="#1a1a1a"/><path id="DejaVuSans-30-12" d="M73.83,768.39c-1.6,0-2.8.68-3.61,2.05-.8,1.36-1.21,3.41-1.21,6.15s.4,4.78,1.21,6.14c.81,1.37,2.01,2.05,3.61,2.05s2.82-.68,3.62-2.05c.81-1.37,1.21-3.41,1.21-6.14s-.4-4.79-1.21-6.15c-.8-1.37-2.01-2.05-3.62-2.05ZM73.83,766.26c2.58,0,4.54.88,5.9,2.65,1.36,1.76,2.04,4.33,2.04,7.69s-.68,5.91-2.04,7.68c-1.36,1.76-3.33,2.65-5.9,2.65s-4.54-.88-5.9-2.65c-1.36-1.77-2.04-4.33-2.04-7.68s.68-5.92,2.04-7.69c1.36-1.77,3.32-2.65,5.9-2.65Z" fill="#1a1a1a"/><path id="DejaVuSans-33-2" d="M93.11,768.56c1.04.19,1.85.6,2.44,1.21.59.61.88,1.36.88,2.26,0,1.37-.55,2.44-1.64,3.19-1.09.75-2.64,1.13-4.65,1.13-.67,0-1.37-.06-2.08-.17-.71-.12-1.45-.29-2.21-.52v-1.82c.6.3,1.26.53,1.98.69.72.16,1.47.23,2.25.23,1.36,0,2.4-.23,3.11-.7s1.07-1.14,1.07-2.03c0-.82-.33-1.46-1-1.93-.66-.46-1.59-.7-2.77-.7h-1.87v-1.55h1.96c1.07,0,1.89-.19,2.45-.56s.85-.9.85-1.6-.29-1.26-.88-1.65c-.58-.38-1.42-.58-2.51-.58-.6,0-1.24.06-1.92.17-.68.11-1.43.28-2.25.52v-1.68c.83-.2,1.6-.35,2.32-.45s1.4-.15,2.04-.15c1.65,0,2.96.33,3.92.98.96.65,1.44,1.53,1.44,2.63,0,.77-.25,1.42-.76,1.96s-1.23.9-2.17,1.11Z" fill="#1a1a1a"/></g></g><g id="ytick_2"><g id="line2d_8"><path id="m6edb477f21-2" d="M108.4,631.6h9.19" fill="#1a1a1a" stroke="#1a1a1a" stroke-linejoin="round" stroke-width=".8"/></g><g id="text_8"><path id="DejaVuSans-31-4" d="M47.68,639.53h5.07v-15.19l-5.52.96v-2.45l5.49-.96h3.11v17.65h5.07v2.27h-13.22v-2.27Z" fill="#1a1a1a"/><path id="DejaVuSans-30-13" d="M73.83,623.66c-1.6,0-2.8.68-3.61,2.05-.8,1.36-1.21,3.41-1.21,6.15s.4,4.78,1.21,6.14c.81,1.37,2.01,2.05,3.61,2.05s2.82-.68,3.62-2.05c.81-1.37,1.21-3.41,1.21-6.14s-.4-4.79-1.21-6.15c-.8-1.37-2.01-2.05-3.62-2.05ZM73.83,621.52c2.58,0,4.54.88,5.9,2.65,1.36,1.76,2.04,4.33,2.04,7.69s-.68,5.91-2.04,7.68c-1.36,1.76-3.33,2.65-5.9,2.65s-4.54-.88-5.9-2.65c-1.36-1.77-2.04-4.33-2.04-7.68s.68-5.92,2.04-7.69c1.36-1.77,3.32-2.65,5.9-2.65Z" fill="#1a1a1a"/><path id="DejaVuSans-34-2" d="M92.49,619.04l-5.49,7.44h5.49v-7.44ZM91.92,617.4h2.74v9.08h2.29v1.57h-2.29v3.29h-2.16v-3.29h-7.26v-1.82l6.68-8.83Z" fill="#1a1a1a"/></g></g><g id="ytick_3"><g id="line2d_9"><path id="m6edb477f21-3" d="M108.4,486.85h9.19" fill="#1a1a1a" stroke="#1a1a1a" stroke-linejoin="round" stroke-width=".8"/></g><g id="text_9"><path id="DejaVuSans-31-5" d="M47.68,494.77h5.07v-15.19l-5.52.96v-2.45l5.49-.96h3.11v17.65h5.07v2.27h-13.22v-2.27Z" fill="#1a1a1a"/><path id="DejaVuSans-30-14" d="M73.83,478.9c-1.6,0-2.8.68-3.61,2.05-.8,1.36-1.21,3.41-1.21,6.15s.4,4.78,1.21,6.14c.81,1.37,2.01,2.05,3.61,2.05s2.82-.68,3.62-2.05c.81-1.37,1.21-3.41,1.21-6.14s-.4-4.79-1.21-6.15c-.8-1.37-2.01-2.05-3.62-2.05ZM73.83,476.77c2.58,0,4.54.88,5.9,2.65,1.36,1.76,2.04,4.33,2.04,7.69s-.68,5.91-2.04,7.68c-1.36,1.76-3.33,2.65-5.9,2.65s-4.54-.88-5.9-2.65c-1.36-1.77-2.04-4.33-2.04-7.68s.68-5.92,2.04-7.69c1.36-1.77,3.32-2.65,5.9-2.65Z" fill="#1a1a1a"/><path id="DejaVuSans-35" d="M86.54,472.64h8.54v1.59h-6.55v3.41c.31-.09.63-.16.94-.21.32-.05.63-.07.95-.07,1.79,0,3.21.43,4.26,1.28,1.05.85,1.57,2.01,1.57,3.46s-.54,2.67-1.62,3.5c-1.08.83-2.6,1.25-4.55,1.25-.68,0-1.36-.05-2.06-.15-.7-.1-1.42-.25-2.17-.45v-1.9c.65.3,1.31.53,2,.68s1.42.22,2.18.22c1.24,0,2.23-.28,2.95-.85.73-.57,1.09-1.33,1.09-2.31s-.36-1.74-1.09-2.3c-.72-.57-1.71-.85-2.95-.85-.58,0-1.16.06-1.74.17-.58.11-1.17.29-1.77.52v-7Z" fill="#1a1a1a"/></g></g><g id="ytick_4"><g id="line2d_10"><path id="m6edb477f21-4" d="M108.4,342.09h9.19" fill="#1a1a1a" stroke="#1a1a1a" stroke-linejoin="round" stroke-width=".8"/></g><g id="text_10"><path id="DejaVuSans-31-6" d="M47.68,349.99h5.07v-15.19l-5.52.96v-2.45l5.49-.96h3.11v17.65h5.07v2.27h-13.22v-2.27Z" fill="#1a1a1a"/><path id="DejaVuSans-30-15" d="M73.83,334.12c-1.6,0-2.8.68-3.61,2.05-.8,1.36-1.21,3.41-1.21,6.15s.4,4.78,1.21,6.14c.81,1.37,2.01,2.05,3.61,2.05s2.82-.68,3.62-2.05c.81-1.37,1.21-3.41,1.21-6.14s-.4-4.79-1.21-6.15c-.8-1.37-2.01-2.05-3.62-2.05ZM73.83,331.99c2.58,0,4.54.88,5.9,2.65,1.36,1.76,2.04,4.33,2.04,7.69s-.68,5.91-2.04,7.68c-1.36,1.76-3.33,2.65-5.9,2.65s-4.54-.88-5.9-2.65c-1.36-1.77-2.04-4.33-2.04-7.68s.68-5.92,2.04-7.69c1.36-1.77,3.32-2.65,5.9-2.65Z" fill="#1a1a1a"/><path id="DejaVuSans-36" d="M91.44,334.08c-.98,0-1.75.29-2.32.87-.57.58-.85,1.37-.85,2.38s.28,1.79.85,2.38c.57.58,1.35.87,2.32.87s1.75-.29,2.32-.87c.57-.58.85-1.38.85-2.38s-.28-1.8-.85-2.38c-.57-.58-1.34-.87-2.32-.87ZM95.75,328.17v1.72c-.55-.22-1.1-.39-1.65-.51-.56-.12-1.11-.18-1.65-.18-1.44,0-2.53.42-3.29,1.26-.76.84-1.19,2.11-1.3,3.81.42-.54.95-.96,1.59-1.25.64-.29,1.34-.43,2.11-.43,1.61,0,2.89.43,3.83,1.28.94.85,1.41,2,1.41,3.47s-.49,2.58-1.46,3.45c-.98.86-2.28,1.3-3.9,1.3-1.86,0-3.28-.62-4.27-1.85-.98-1.24-1.47-3.03-1.47-5.37,0-2.2.6-3.96,1.81-5.27,1.21-1.31,2.82-1.97,4.85-1.97.55,0,1.1.05,1.65.14s1.14.23,1.74.42Z" fill="#1a1a1a"/></g></g><g id="ytick_5"><g id="line2d_11"><path id="m6edb477f21-5" d="M108.4,197.33h9.19" fill="#1a1a1a" stroke="#1a1a1a" stroke-linejoin="round" stroke-width=".8"/></g><g id="text_11"><path id="DejaVuSans-31-7" d="M47.68,205.26h5.07v-15.19l-5.52.96v-2.45l5.49-.96h3.11v17.65h5.07v2.27h-13.22v-2.27Z" fill="#1a1a1a"/><path id="DejaVuSans-30-16" d="M73.83,189.39c-1.6,0-2.8.68-3.61,2.05-.8,1.36-1.21,3.41-1.21,6.15s.4,4.78,1.21,6.14c.81,1.37,2.01,2.05,3.61,2.05s2.82-.68,3.62-2.05c.81-1.37,1.21-3.41,1.21-6.14s-.4-4.79-1.21-6.15c-.8-1.37-2.01-2.05-3.62-2.05ZM73.83,187.25c2.58,0,4.54.88,5.9,2.65,1.36,1.76,2.04,4.33,2.04,7.69s-.68,5.91-2.04,7.68c-1.36,1.76-3.33,2.65-5.9,2.65s-4.54-.88-5.9-2.65c-1.36-1.77-2.04-4.33-2.04-7.68s.68-5.92,2.04-7.69c1.36-1.77,3.32-2.65,5.9-2.65Z" fill="#1a1a1a"/><path id="DejaVuSans-37" d="M85.97,183.13h10.34v.8l-5.84,13.13h-2.27l5.49-12.35h-7.72v-1.59Z" fill="#1a1a1a"/></g></g><g id="ytick_6"><g id="line2d_12"><path id="m6edb477f21-6" d="M108.4,52.58h9.19" fill="#1a1a1a" stroke="#1a1a1a" stroke-linejoin="round" stroke-width=".8"/></g><g id="text_12"><path id="DejaVuSans-31-8" d="M47.68,60.48h5.07v-15.19l-5.52.96v-2.45l5.49-.96h3.11v17.65h5.07v2.27h-13.22v-2.27Z" fill="#1a1a1a"/><path id="DejaVuSans-30-17" d="M73.83,44.61c-1.6,0-2.8.68-3.61,2.05-.8,1.36-1.21,3.41-1.21,6.15s.4,4.78,1.21,6.14c.81,1.37,2.01,2.05,3.61,2.05s2.82-.68,3.62-2.05c.81-1.37,1.21-3.41,1.21-6.14s-.4-4.79-1.21-6.15c-.8-1.37-2.01-2.05-3.62-2.05ZM73.83,42.47c2.58,0,4.54.88,5.9,2.65,1.36,1.76,2.04,4.33,2.04,7.69s-.68,5.91-2.04,7.68c-1.36,1.76-3.33,2.65-5.9,2.65s-4.54-.88-5.9-2.65c-1.36-1.77-2.04-4.33-2.04-7.68s.68-5.92,2.04-7.69c1.36-1.77,3.32-2.65,5.9-2.65Z" fill="#1a1a1a"/><path id="DejaVuSans-38" d="M91.17,45.67c-1.03,0-1.85.24-2.44.72-.59.48-.89,1.14-.89,1.98s.3,1.5.89,1.98c.59.48,1.41.72,2.44.72s1.85-.24,2.44-.72c.6-.48.9-1.14.9-1.98s-.3-1.5-.89-1.98c-.59-.48-1.41-.72-2.45-.72ZM88.99,44.87c-.93-.2-1.66-.58-2.18-1.13-.52-.56-.78-1.23-.78-2.03,0-1.11.46-1.99,1.37-2.64.92-.65,2.17-.97,3.76-.97s2.86.32,3.77.97,1.37,1.53,1.37,2.64c0,.8-.26,1.47-.78,2.03-.52.55-1.24.93-2.17,1.13,1.05.21,1.86.63,2.45,1.24.59.62.88,1.37.88,2.26,0,1.35-.48,2.39-1.43,3.11-.95.72-2.31,1.08-4.09,1.08s-3.13-.36-4.09-1.08c-.95-.72-1.43-1.76-1.43-3.11,0-.89.29-1.64.88-2.26.59-.62,1.41-1.03,2.46-1.24ZM88.2,41.89c0,.72.26,1.28.78,1.69.52.4,1.25.61,2.19.61s1.67-.2,2.19-.61c.53-.4.79-.97.79-1.69s-.26-1.29-.79-1.69c-.53-.4-1.26-.61-2.19-.61s-1.67.2-2.19.61c-.52.4-.78.97-.78,1.69Z" fill="#1a1a1a"/></g></g><g id="ytick_7"><g id="line2d_13"><path id="m1e9a9139d8" d="M108.4,732.79h5.25" fill="#1a1a1a" stroke="#1a1a1a" stroke-linejoin="round" stroke-width=".6"/></g></g><g id="ytick_8"><g id="line2d_14"><path id="m1e9a9139d8-2" d="M108.4,707.29h5.25" fill="#1a1a1a" stroke="#1a1a1a" stroke-linejoin="round" stroke-width=".6"/></g></g><g id="ytick_9"><g id="line2d_15"><path id="m1e9a9139d8-3" d="M108.4,689.21h5.25" fill="#1a1a1a" stroke="#1a1a1a" stroke-linejoin="round" stroke-width=".6"/></g></g><g id="ytick_10"><g id="line2d_16"><path id="m1e9a9139d8-4" d="M108.4,675.18h5.25" fill="#1a1a1a" stroke="#1a1a1a" stroke-linejoin="round" stroke-width=".6"/></g></g><g id="ytick_11"><g id="line2d_17"><path id="m1e9a9139d8-5" d="M108.4,663.72h5.25" fill="#1a1a1a" stroke="#1a1a1a" stroke-linejoin="round" stroke-width=".6"/></g></g><g id="ytick_12"><g id="line2d_18"><path id="m1e9a9139d8-6" d="M108.4,654.03h5.25" fill="#1a1a1a" stroke="#1a1a1a" stroke-linejoin="round" stroke-width=".6"/></g></g><g id="ytick_13"><g id="line2d_19"><path id="m1e9a9139d8-7" d="M108.4,645.63h5.25" fill="#1a1a1a" stroke="#1a1a1a" stroke-linejoin="round" stroke-width=".6"/></g></g><g id="ytick_14"><g id="line2d_20"><path id="m1e9a9139d8-8" d="M108.4,638.23h5.25" fill="#1a1a1a" stroke="#1a1a1a" stroke-linejoin="round" stroke-width=".6"/></g></g><g id="ytick_15"><g id="line2d_21"><path id="m1e9a9139d8-9" d="M108.4,588.03h5.25" fill="#1a1a1a" stroke="#1a1a1a" stroke-linejoin="round" stroke-width=".6"/></g></g><g id="ytick_16"><g id="line2d_22"><path id="m1e9a9139d8-10" d="M108.4,562.54h5.25" fill="#1a1a1a" stroke="#1a1a1a" stroke-linejoin="round" stroke-width=".6"/></g></g><g id="ytick_17"><g id="line2d_23"><path id="m1e9a9139d8-11" d="M108.4,544.45h5.25" fill="#1a1a1a" stroke="#1a1a1a" stroke-linejoin="round" stroke-width=".6"/></g></g><g id="ytick_18"><g id="line2d_24"><path id="m1e9a9139d8-12" d="M108.4,530.42h5.25" fill="#1a1a1a" stroke="#1a1a1a" stroke-linejoin="round" stroke-width=".6"/></g></g><g id="ytick_19"><g id="line2d_25"><path id="m1e9a9139d8-13" d="M108.4,518.96h5.25" fill="#1a1a1a" stroke="#1a1a1a" stroke-linejoin="round" stroke-width=".6"/></g></g><g id="ytick_20"><g id="line2d_26"><path id="m1e9a9139d8-14" d="M108.4,509.27h5.25" fill="#1a1a1a" stroke="#1a1a1a" stroke-linejoin="round" stroke-width=".6"/></g></g><g id="ytick_21"><g id="line2d_27"><path id="m1e9a9139d8-15" d="M108.4,500.88h5.25" fill="#1a1a1a" stroke="#1a1a1a" stroke-linejoin="round" stroke-width=".6"/></g></g><g id="ytick_22"><g id="line2d_28"><path id="m1e9a9139d8-16" d="M108.4,493.47h5.25" fill="#1a1a1a" stroke="#1a1a1a" stroke-linejoin="round" stroke-width=".6"/></g></g><g id="ytick_23"><g id="line2d_29"><path id="m1e9a9139d8-17" d="M108.4,443.27h5.25" fill="#1a1a1a" stroke="#1a1a1a" stroke-linejoin="round" stroke-width=".6"/></g></g><g id="ytick_24"><g id="line2d_30"><path id="m1e9a9139d8-18" d="M108.4,417.78h5.25" fill="#1a1a1a" stroke="#1a1a1a" stroke-linejoin="round" stroke-width=".6"/></g></g><g id="ytick_25"><g id="line2d_31"><path id="m1e9a9139d8-19" d="M108.4,399.69h5.25" fill="#1a1a1a" stroke="#1a1a1a" stroke-linejoin="round" stroke-width=".6"/></g></g><g id="ytick_26"><g id="line2d_32"><path id="m1e9a9139d8-20" d="M108.4,385.67h5.25" fill="#1a1a1a" stroke="#1a1a1a" stroke-linejoin="round" stroke-width=".6"/></g></g><g id="ytick_27"><g id="line2d_33"><path id="m1e9a9139d8-21" d="M108.4,374.2h5.25" fill="#1a1a1a" stroke="#1a1a1a" stroke-linejoin="round" stroke-width=".6"/></g></g><g id="ytick_28"><g id="line2d_34"><path id="m1e9a9139d8-22" d="M108.4,364.51h5.25" fill="#1a1a1a" stroke="#1a1a1a" stroke-linejoin="round" stroke-width=".6"/></g></g><g id="ytick_29"><g id="line2d_35"><path id="m1e9a9139d8-23" d="M108.4,356.12h5.25" fill="#1a1a1a" stroke="#1a1a1a" stroke-linejoin="round" stroke-width=".6"/></g></g><g id="ytick_30"><g id="line2d_36"><path id="m1e9a9139d8-24" d="M108.4,348.71h5.25" fill="#1a1a1a" stroke="#1a1a1a" stroke-linejoin="round" stroke-width=".6"/></g></g><g id="ytick_31"><g id="line2d_37"><path id="m1e9a9139d8-25" d="M108.4,298.51h5.25" fill="#1a1a1a" stroke="#1a1a1a" stroke-linejoin="round" stroke-width=".6"/></g></g><g id="ytick_32"><g id="line2d_38"><path id="m1e9a9139d8-26" d="M108.4,273.02h5.25" fill="#1a1a1a" stroke="#1a1a1a" stroke-linejoin="round" stroke-width=".6"/></g></g><g id="ytick_33"><g id="line2d_39"><path id="m1e9a9139d8-27" d="M108.4,254.94h5.25" fill="#1a1a1a" stroke="#1a1a1a" stroke-linejoin="round" stroke-width=".6"/></g></g><g id="ytick_34"><g id="line2d_40"><path id="m1e9a9139d8-28" d="M108.4,240.91h5.25" fill="#1a1a1a" stroke="#1a1a1a" stroke-linejoin="round" stroke-width=".6"/></g></g><g id="ytick_35"><g id="line2d_41"><path id="m1e9a9139d8-29" d="M108.4,229.45h5.25" fill="#1a1a1a" stroke="#1a1a1a" stroke-linejoin="round" stroke-width=".6"/></g></g><g id="ytick_36"><g id="line2d_42"><path id="m1e9a9139d8-30" d="M108.4,219.76h5.25" fill="#1a1a1a" stroke="#1a1a1a" stroke-linejoin="round" stroke-width=".6"/></g></g><g id="ytick_37"><g id="line2d_43"><path id="m1e9a9139d8-31" d="M108.4,211.36h5.25" fill="#1a1a1a" stroke="#1a1a1a" stroke-linejoin="round" stroke-width=".6"/></g></g><g id="ytick_38"><g id="line2d_44"><path id="m1e9a9139d8-32" d="M108.4,203.96h5.25" fill="#1a1a1a" stroke="#1a1a1a" stroke-linejoin="round" stroke-width=".6"/></g></g><g id="ytick_39"><g id="line2d_45"><path id="m1e9a9139d8-33" d="M108.4,153.76h5.25" fill="#1a1a1a" stroke="#1a1a1a" stroke-linejoin="round" stroke-width=".6"/></g></g><g id="ytick_40"><g id="line2d_46"><path id="m1e9a9139d8-34" d="M108.4,128.27h5.25" fill="#1a1a1a" stroke="#1a1a1a" stroke-linejoin="round" stroke-width=".6"/></g></g><g id="ytick_41"><g id="line2d_47"><path id="m1e9a9139d8-35" d="M108.4,110.18h5.25" fill="#1a1a1a" stroke="#1a1a1a" stroke-linejoin="round" stroke-width=".6"/></g></g><g id="ytick_42"><g id="line2d_48"><path id="m1e9a9139d8-36" d="M108.4,96.15h5.25" fill="#1a1a1a" stroke="#1a1a1a" stroke-linejoin="round" stroke-width=".6"/></g></g><g id="ytick_43"><g id="line2d_49"><path id="m1e9a9139d8-37" d="M108.4,84.69h5.25" fill="#1a1a1a" stroke="#1a1a1a" stroke-linejoin="round" stroke-width=".6"/></g></g><g id="ytick_44"><g id="line2d_50"><path id="m1e9a9139d8-38" d="M108.4,75h5.25" fill="#1a1a1a" stroke="#1a1a1a" stroke-linejoin="round" stroke-width=".6"/></g></g><g id="ytick_45"><g id="line2d_51"><path id="m1e9a9139d8-39" d="M108.4,66.6h5.25" fill="#1a1a1a" stroke="#1a1a1a" stroke-linejoin="round" stroke-width=".6"/></g></g><g id="ytick_46"><g id="line2d_52"><path id="m1e9a9139d8-40" d="M108.4,59.2h5.25" fill="#1a1a1a" stroke="#1a1a1a" stroke-linejoin="round" stroke-width=".6"/></g></g></g><g id="line2d_53"><g clip-path="url(#clippath)"><path id="ma0fbbfafa9" d="M614.24,492.86c2.09,0,4.09-.72,5.57-2,1.48-1.28,2.31-3.02,2.31-4.83s-.83-3.55-2.31-4.83c-1.48-1.28-3.48-2-5.57-2s-4.09.72-5.57,2c-1.48,1.28-2.31,3.02-2.31,4.83s.83,3.55,2.31,4.83c1.48,1.28,3.48,2,5.57,2Z" fill="#e69f00"/></g></g><g id="line2d_54"><g clip-path="url(#clippath-1)"><path id="m5482e6ec13" d="M1299.36,154.36h15.75v-13.66h-15.75v13.66Z" fill="#56b4e9"/></g></g><g id="line2d_55"><g clip-path="url(#clippath-2)"><path d="M614.24,776.36V52.58" fill="none" stroke="#e69f00" stroke-dasharray="3.7 1.6" stroke-linejoin="round"/></g></g><g id="line2d_56"><g clip-path="url(#clippath-3)"><path d="M108.4,486.04h1391.05" fill="none" stroke="#e69f00" stroke-dasharray="3.7 1.6" stroke-linejoin="round"/></g></g><g id="line2d_57"><g clip-path="url(#clippath-4)"><path d="M1307.24,776.36V52.58" fill="none" stroke="#e69f00" stroke-dasharray="3.7 1.6" stroke-linejoin="round"/></g></g><g id="line2d_58"><g clip-path="url(#clippath-5)"><path d="M108.4,147.54h1391.05" fill="none" stroke="#e69f00" stroke-dasharray="3.7 1.6" stroke-linejoin="round"/></g></g><g id="line2d_59"><g clip-path="url(#clippath-6)"><path d="M361.32,776.36V52.58" fill="none" stroke="#e69f00" stroke-dasharray="3.7 1.6" stroke-linejoin="round"/></g></g><g id="patch_3"><path d="M108.4,776.36V52.58" fill="none" stroke="#1a1a1a" stroke-linecap="square"/></g><g id="patch_4"><path d="M108.4,776.36h1391.05" fill="none" stroke="#1a1a1a" stroke-linecap="square"/></g></g></g><text transform="translate(1220.59 190.1)" font-family="KozGoPr6N-Regular-83pv-RKSJ-H, &apos;Kozuka Gothic Pr6N&apos;" font-size="24"><tspan x="0" y="0">臨界点</tspan></text><text transform="translate(642.21 472.64)" font-family="KozMinPr6N-Regular-83pv-RKSJ-H, &apos;Kozuka Mincho Pr6N&apos;" font-size="24"><tspan x="0" y="0">沸点</tspan></text><text transform="translate(695.79 828.59)" font-family="KozGoPr6N-Regular-83pv-RKSJ-H, &apos;Kozuka Gothic Pr6N&apos;" font-size="24"><tspan x="0" y="0">温度【℃</tspan><tspan x="96" y="0" letter-spacing="-.5em">】</tspan></text><text transform="translate(54.07 374.2)" font-family="KozGoPr6N-Regular-83pv-RKSJ-H, &apos;Kozuka Gothic Pr6N&apos;" font-size="24" glyph-orientation-vertical="0deg" text-orientation="upright" writing-mode="tb"><tspan x="0" y="0">圧力</tspan></text><text transform="translate(19.25 451.52)" font-family="KozGoPr6N-Regular-83pv-RKSJ-H, &apos;Kozuka Gothic Pr6N&apos;" font-size="24"><tspan x="0" y="0">【Pa</tspan><tspan x="50.09" y="0" letter-spacing="-.5em">】</tspan></text><ellipse cx="271.77" cy="405.34" rx="100.52" ry="55.55" fill="#b3e8cf"/><ellipse cx="771.8" cy="623.26" rx="100.52" ry="55.55" fill="#b3e8cf"/><text transform="translate(240.51 430)" font-family="KozGoPr6N-Regular-83pv-RKSJ-H, &apos;Kozuka Gothic Pr6N&apos;" font-size="72"><tspan x="0" y="0">A</tspan></text><ellipse cx="620.82" cy="304.54" rx="100.52" ry="55.55" fill="#b3e8cf"/><text transform="translate(597.21 329.67)" font-family="KozGoPr6N-Regular-83pv-RKSJ-H, &apos;Kozuka Gothic Pr6N&apos;" font-size="72"><tspan x="0" y="0">B</tspan></text><text transform="translate(748.18 649.34)" font-family="KozGoPr6N-Regular-83pv-RKSJ-H, &apos;Kozuka Gothic Pr6N&apos;" font-size="72"><tspan x="0" y="0">C</tspan></text></svg>