<?xml version="1.0" encoding="UTF-8"?><svg id="_レイヤー_1" xmlns="http://www.w3.org/2000/svg" viewBox="0 0 1560 560"><rect width="1560" height="560" rx="18" ry="18" fill="#c8dbc3"/><path d="M344.91,261.14l-2.23,10.94h-31.32l-.94-1.15c3.46-14.69,12.17-21.53,18.87-26.21,5.54-3.96,8.86-7.2,8.86-12.82,0-4.75-2.02-10.01-10.66-10.01-4.25,0-8.42,1.44-10.44,8.14-.58,2.16-1.51,2.81-3.1,2.81-1.3,0-2.23-1.08-2.23-3.17,0-4.03,5.04-10.58,16.06-10.58,13.03,0,16.49,7.49,16.49,13.03,0,6.26-4.39,10.73-8.78,13.68-9.43,6.41-17.07,11.52-20.38,21.82h20.38c4.68,0,5.4-.79,7.06-6.84l2.38.36Z"/><path d="M400.57,221.1c-5.33,0-5.76.43-5.76,5.62v37.44c0,5.18.43,5.62,5.76,5.62v2.3h-16.78v-2.3c4.68,0,5.04-.43,5.04-5.54v-18.43h-24.7v18.43c0,5.11.36,5.54,5.04,5.54v2.3h-16.78v-2.3c5.26,0,5.69-.43,5.69-5.62v-37.44c0-5.18-.43-5.62-5.69-5.62v-2.3h16.78v2.3c-4.68,0-5.04.36-5.04,5.47v16.27h24.7v-16.2c0-5.18-.36-5.54-5.04-5.54v-2.3h16.78v2.3Z"/><path d="M406.32,271.29c1.01-4.61,3.46-8.21,6.34-10.8,2.66-2.52,6.7-4.54,9.07-6.77,1.8-1.73,2.66-3.46,2.66-5.69,0-1.58-.5-2.95-1.8-4.1-1.15-.94-2.74-1.37-4.75-1.37-1.51,0-2.81.36-3.82,1.08-.86.65-1.51,1.51-2.23,3.1-.58,1.51-1.3,2.23-2.59,2.23-1.22,0-1.94-.72-1.94-2.09,0-1.58,1.15-3.53,3.53-4.82,2.02-1.08,4.46-1.73,7.42-1.73,3.46,0,5.83.65,7.78,2.02,2.09,1.37,3.17,3.1,3.17,5.69,0,2.3-.86,4.1-2.38,5.83-3.31,3.74-7.85,5.18-11.52,7.92-2.23,1.73-3.89,3.74-4.9,6.48h12.82c3.1,0,3.53-.22,4.46-3.74l1.94.29-1.51,7.27h-20.81l-.94-.79Z"/><path d="M491.07,247.02v25.92h-2.88v-25.92h-25.92v-2.88h25.92v-25.92h2.88v25.92h25.92v2.88h-25.92Z"/><path d="M549.03,245.44c0-19.44,9.22-27.72,22.39-27.72,14.26,0,22.39,9.58,22.39,27.72s-8.06,27.72-22.39,27.72c-17.14,0-22.39-13.18-22.39-27.72ZM560.12,225.71c-2.95,3.74-4.82,9.72-4.82,19.73,0,8.35,1.58,15.19,4.75,19.59,2.59,3.24,6.84,5.33,11.3,5.33s8.64-2.09,11.31-5.33c3.17-4.39,4.75-11.23,4.75-19.59,0-10.01-1.8-15.99-4.75-19.73-2.88-3.6-6.91-5.18-11.23-5.18s-8.57,1.8-11.31,5.18Z"/><path d="M600.51,271.29c1.01-4.61,3.46-8.21,6.34-10.8,2.66-2.52,6.7-4.54,9.07-6.77,1.8-1.73,2.66-3.46,2.66-5.69,0-1.58-.5-2.95-1.8-4.1-1.15-.94-2.74-1.37-4.75-1.37-1.51,0-2.81.36-3.82,1.08-.86.65-1.51,1.51-2.23,3.1-.58,1.51-1.3,2.23-2.59,2.23-1.22,0-1.94-.72-1.94-2.09,0-1.58,1.15-3.53,3.53-4.82,2.02-1.08,4.46-1.73,7.42-1.73,3.46,0,5.83.65,7.78,2.02,2.09,1.37,3.17,3.1,3.17,5.69,0,2.3-.86,4.1-2.38,5.83-3.31,3.74-7.85,5.18-11.52,7.92-2.23,1.73-3.89,3.74-4.9,6.48h12.82c3.1,0,3.53-.22,4.46-3.74l1.94.29-1.51,7.27h-20.81l-.94-.79Z"/><path d="M650.69,246.16v-2.88h59.55c-4.75-3.6-10.15-8.78-13.97-13.97l2.3-1.87c4.9,6.7,12.24,13.11,18.79,17.28-6.55,4.18-13.9,10.58-18.79,17.28l-2.3-1.87c3.82-5.18,9.22-10.37,13.97-13.97h-59.55Z"/><path d="M779.07,261.14l-2.23,10.94h-31.32l-.94-1.15c3.46-14.69,12.17-21.53,18.87-26.21,5.54-3.96,8.86-7.2,8.86-12.82,0-4.75-2.02-10.01-10.66-10.01-4.25,0-8.42,1.44-10.44,8.14-.58,2.16-1.51,2.81-3.1,2.81-1.3,0-2.23-1.08-2.23-3.17,0-4.03,5.04-10.58,16.06-10.58,13.03,0,16.49,7.49,16.49,13.03,0,6.26-4.39,10.73-8.78,13.68-9.43,6.41-17.07,11.52-20.38,21.82h20.38c4.68,0,5.4-.79,7.06-6.84l2.38.36Z"/><path d="M834.73,221.1c-5.33,0-5.76.43-5.76,5.62v37.44c0,5.18.43,5.62,5.76,5.62v2.3h-16.78v-2.3c4.68,0,5.04-.43,5.04-5.54v-18.43h-24.7v18.43c0,5.11.36,5.54,5.04,5.54v2.3h-16.78v-2.3c5.26,0,5.69-.43,5.69-5.62v-37.44c0-5.18-.43-5.62-5.69-5.62v-2.3h16.78v2.3c-4.68,0-5.04.36-5.04,5.47v16.27h24.7v-16.2c0-5.18-.36-5.54-5.04-5.54v-2.3h16.78v2.3Z"/><path d="M840.48,271.29c1.01-4.61,3.46-8.21,6.34-10.8,2.66-2.52,6.7-4.54,9.07-6.77,1.8-1.73,2.66-3.46,2.66-5.69,0-1.58-.5-2.95-1.8-4.1-1.15-.94-2.74-1.37-4.75-1.37-1.51,0-2.81.36-3.82,1.08-.86.65-1.51,1.51-2.23,3.1-.58,1.51-1.3,2.23-2.59,2.23-1.22,0-1.94-.72-1.94-2.09,0-1.58,1.15-3.53,3.53-4.82,2.02-1.08,4.46-1.73,7.42-1.73,3.46,0,5.83.65,7.78,2.02,2.09,1.37,3.17,3.1,3.17,5.69,0,2.3-.86,4.1-2.38,5.83-3.31,3.74-7.85,5.18-11.52,7.92-2.23,1.73-3.89,3.74-4.9,6.48h12.82c3.1,0,3.53-.22,4.46-3.74l1.94.29-1.51,7.27h-20.81l-.94-.79Z"/><path d="M871.15,245.44c0-19.44,9.22-27.72,22.39-27.72,14.26,0,22.39,9.58,22.39,27.72s-8.07,27.72-22.39,27.72c-17.14,0-22.39-13.18-22.39-27.72ZM882.24,225.71c-2.95,3.74-4.82,9.72-4.82,19.73,0,8.35,1.58,15.19,4.75,19.59,2.59,3.24,6.84,5.33,11.3,5.33s8.64-2.09,11.31-5.33c3.17-4.39,4.75-11.23,4.75-19.59,0-10.01-1.8-15.99-4.75-19.73-2.88-3.6-6.91-5.18-11.23-5.18s-8.57,1.8-11.3,5.18Z"/><path d="M976.78,247.02v25.92h-2.88v-25.92h-25.92v-2.88h25.92v-25.92h2.88v25.92h25.92v2.88h-25.92Z"/><path d="M1038.98,245.94l3.74-25.92h19.8c2.66,0,2.95-.14,3.46-1.22h2.23l-1.51,5.83h-21.24l-2.66,16.71.14.07c3.02-2.23,6.41-3.31,10.73-3.31,10.22,0,16.27,6.48,16.27,16.49s-5.47,18.58-17.57,18.58c-9.29,0-15.7-5.9-15.7-10.44,0-2.3,1.22-3.24,2.59-3.24,1.22,0,2.09.5,3.02,2.45.94,3.02,3.53,8.42,10.3,8.42,5.11,0,11.23-3.82,11.23-15.34,0-7.13-2.3-14.04-11.38-14.04-5.04,0-8.86,2.52-11.16,5.62l-2.3-.65Z"/><path d="M1080.74,231.11l2.3-11.09h31.75l.72,1.3c-11.74,14.91-18.07,34.06-18.51,51.63h-6.48c.58-22.32,12.67-40.83,18.72-48.32h-18.43c-5.04,0-5.76.58-7.34,6.48h-2.74Z"/><path d="M1159.01,261.14l-2.23,10.94h-31.32l-.94-1.15c3.46-14.69,12.17-21.53,18.87-26.21,5.54-3.96,8.86-7.2,8.86-12.82,0-4.75-2.02-10.01-10.66-10.01-4.25,0-8.42,1.44-10.44,8.14-.58,2.16-1.51,2.81-3.1,2.81-1.3,0-2.23-1.08-2.23-3.17,0-4.03,5.04-10.58,16.06-10.58,13.03,0,16.49,7.49,16.49,13.03,0,6.26-4.39,10.73-8.79,13.68-9.43,6.41-17.07,11.52-20.38,21.82h20.38c4.68,0,5.4-.79,7.06-6.84l2.38.36Z"/><path d="M1196.66,252.35h.14l11.09-11.16c1.01-.94,1.58-1.73,1.58-2.23,0-.65-.79-.94-2.74-.94v-2.02h11.67v2.02c-2.23,0-3.53.58-5.33,2.38l-8.14,8.06,11.81,18.51c1.73,2.88,3.46,3.17,5.83,3.17v1.94h-9.15l-12.53-20.09-4.25,4.39v8.42c0,4.68.22,5.26,4.46,5.26v2.02h-14.76v-2.02c4.46,0,4.68-.65,4.68-5.33v-37.95c0-4.61-.43-5.18-4.68-5.18v-1.73c3.74-.58,6.55-1.51,9.5-3.38l.79.5v35.36Z"/><path d="M1245.84,261.64c0,5.11,0,18.36-13.1,18.36-6.26,0-10.44-2.81-10.44-5.62,0-1.37.94-2.23,2.3-2.23,1.44,0,2.45.58,3.67,2.59,1.08,1.51,2.38,2.45,4.61,2.45,5.9,0,6.98-5.83,6.98-14.04v-36.22c0-5.4-.43-5.83-6.41-5.83v-2.3h18.07v2.3c-5.26,0-5.69.5-5.69,5.76v34.78Z"/></svg>