<?xml version="1.0" encoding="UTF-8"?><svg id="_レイヤー_1" xmlns="http://www.w3.org/2000/svg" viewBox="0 0 1560 560"><rect width="1560" height="560" rx="18" ry="18" fill="#c8dbc3"/><path d="M115.18,294.98c-12.39-5.76-21.24-17.28-21.24-33.7s9.29-28.15,21.24-33.7l1.15,1.51c-11.02,6.12-17.93,17.43-17.93,32.19s6.91,26.07,17.93,32.19l-1.15,1.51Z"/><path d="M188.34,261.28c0,18.43-14.91,33.34-33.34,33.34s-33.34-14.91-33.34-33.34,14.91-33.34,33.34-33.34,33.34,15.05,33.34,33.34ZM123.67,261.28c0,17.28,14.04,31.32,31.32,31.32s31.32-14.04,31.32-31.32-14.04-31.32-31.32-31.32-31.32,14.19-31.32,31.32ZM146.5,246.16c5.04-1.87,8.14-3.46,10.87-5.11l.65.36v32.69c0,4.03.36,4.39,6.84,4.39v2.02h-18.65v-2.02c6.77,0,7.06-.36,7.06-4.39v-24.12c0-2.3-.29-3.24-1.37-3.24-.86,0-2.02.36-4.68,1.37l-.72-1.94Z"/><path d="M194.81,227.58c12.38,5.76,21.24,17.28,21.24,33.7s-9.29,28.15-21.24,33.7l-1.15-1.51c11.02-6.12,17.93-17.43,17.93-32.19s-6.91-26.07-17.93-32.19l1.15-1.51Z"/><path d="M299.79,249.32c-1.66-8.35-2.52-12.24-11.02-12.24-10.94,0-16.13,9.58-16.13,24.12,0,22.9,11.38,25.27,15.41,25.27,7.63,0,11.52-5.98,13.47-11.95l2.88.79c-3.1,9.5-9.29,14.4-17.07,14.4-6.26,0-11.3-2.3-14.83-6.34-4.25-5.11-6.19-12.17-6.19-21.89,0-18.15,8.93-27.22,22.32-27.22,3.02,0,6.26.14,12.1,2.45.5,4.1,1.08,8.28,1.87,12.02l-2.81.58Z"/><path d="M358.11,237.66c-5.33,0-5.76.43-5.76,5.62v37.44c0,5.18.43,5.62,5.76,5.62v2.3h-16.78v-2.3c4.68,0,5.04-.43,5.04-5.54v-18.43h-24.7v18.43c0,5.11.36,5.54,5.04,5.54v2.3h-16.78v-2.3c5.26,0,5.69-.43,5.69-5.62v-37.44c0-5.18-.43-5.62-5.69-5.62v-2.3h16.78v2.3c-4.68,0-5.04.36-5.04,5.47v16.27h24.7v-16.2c0-5.18-.36-5.54-5.04-5.54v-2.3h16.78v2.3Z"/><path d="M371.93,270.57c1.94,0,3.82-.29,5.11-.72,1.22-.36,2.45-.94,3.31-1.94.86-1.08,1.15-2.3,1.15-3.67,0-1.3-.43-2.88-1.51-3.89-1.15-1.01-2.81-1.44-4.9-1.44-1.58,0-2.95.29-4.1,1.15-.94.65-1.51,1.58-2.16,3.1-.65,1.44-1.44,2.02-2.38,2.02-1.08,0-1.8-.79-1.8-2.02,0-1.37,1.01-3.24,3.46-4.61,1.87-1.08,4.1-1.8,7.27-1.8,3.82,0,6.84.79,8.57,2.23,1.58,1.3,2.38,3.1,2.38,5.33,0,1.73-.94,3.46-2.38,4.68-1.58,1.3-3.82,1.94-6.48,2.3v.22c2.81.29,5.4.94,7.27,2.3,2.09,1.51,2.95,3.74,2.95,6.05s-.86,4.82-3.17,6.7c-1.8,1.44-4.46,2.59-9.5,2.59-2.74,0-5.47-.43-7.78-1.8-2.16-1.3-3.31-3.17-3.31-4.75,0-1.44.72-2.23,1.87-2.23.72,0,1.44.43,1.8,1.08.43.58.72,1.37,1.22,2.23.94,1.66,2.81,3.24,6.19,3.24,2.52,0,4.39-.5,5.76-1.8,1.3-1.22,1.94-3.02,1.94-5.26,0-1.58-.5-3.02-1.44-4.25-1.01-1.3-2.66-2.16-4.61-2.66-1.3-.29-2.88-.36-4.75-.36v-2.02Z"/><path d="M394.54,262c0-19.44,9.22-27.72,22.39-27.72,14.26,0,22.39,9.58,22.39,27.72s-8.06,27.72-22.39,27.72c-17.14,0-22.39-13.18-22.39-27.72ZM405.62,242.27c-2.95,3.74-4.82,9.72-4.82,19.73,0,8.35,1.58,15.19,4.75,19.59,2.59,3.24,6.84,5.33,11.3,5.33s8.64-2.09,11.31-5.33c3.17-4.39,4.75-11.23,4.75-19.59,0-10.01-1.8-15.99-4.75-19.73-2.88-3.6-6.91-5.18-11.23-5.18s-8.57,1.8-11.31,5.18Z"/><path d="M493.39,237.66c-5.33,0-5.76.43-5.76,5.62v37.44c0,5.18.43,5.62,5.76,5.62v2.3h-16.78v-2.3c4.68,0,5.04-.43,5.04-5.54v-18.43h-24.7v18.43c0,5.11.36,5.54,5.04,5.54v2.3h-16.78v-2.3c5.26,0,5.69-.43,5.69-5.62v-37.44c0-5.18-.43-5.62-5.69-5.62v-2.3h16.78v2.3c-4.68,0-5.04.36-5.04,5.47v16.27h24.7v-16.2c0-5.18-.36-5.54-5.04-5.54v-2.3h16.78v2.3Z"/><path d="M553.3,263.58v25.92h-2.88v-25.92h-25.92v-2.88h25.92v-25.92h2.88v25.92h25.92v2.88h-25.92Z"/><path d="M640.06,294.98c-12.39-5.76-21.24-17.28-21.24-33.7s9.29-28.15,21.24-33.7l1.15,1.51c-11.02,6.12-17.93,17.43-17.93,32.19s6.91,26.07,17.93,32.19l-1.15,1.51Z"/><path d="M713.21,261.28c0,18.43-14.91,33.34-33.34,33.34s-33.34-14.91-33.34-33.34,14.91-33.34,33.34-33.34,33.34,15.05,33.34,33.34ZM648.55,261.28c0,17.28,14.04,31.32,31.32,31.32s31.32-14.04,31.32-31.32-14.04-31.32-31.32-31.32-31.32,14.19-31.32,31.32ZM691.61,280.5h-24.63l-.72-.86c3.02-12.31,10.3-16.92,14.69-19.73,4.39-2.81,6.84-5.33,6.84-9.58,0-5.83-3.96-7.49-8.06-7.49s-6.55,2.02-7.63,6.12c-.43,1.58-1.44,2.52-2.88,2.52-1.01,0-1.87-.86-1.87-2.23,0-1.87,2.59-8.5,12.6-8.5,9.36,0,13.03,4.97,13.03,9.86,0,4.46-3.02,7.92-6.84,10.3-9.5,5.98-13.9,9.29-16.06,16.06h15.77c3.74,0,4.25-.58,5.62-5.04l1.94.22-1.8,8.35Z"/><path d="M719.69,227.58c12.38,5.76,21.24,17.28,21.24,33.7s-9.29,28.15-21.24,33.7l-1.15-1.51c11.02-6.12,17.93-17.43,17.93-32.19s-6.91-26.07-17.93-32.19l1.15-1.51Z"/><path d="M791.25,262c0-19.44,9.22-27.72,22.39-27.72,14.26,0,22.39,9.58,22.39,27.72s-8.06,27.72-22.39,27.72c-17.14,0-22.39-13.18-22.39-27.72ZM802.34,242.27c-2.95,3.74-4.83,9.72-4.83,19.73,0,8.35,1.58,15.19,4.75,19.59,2.59,3.24,6.84,5.33,11.3,5.33s8.64-2.09,11.3-5.33c3.17-4.39,4.75-11.23,4.75-19.59,0-10.01-1.8-15.99-4.75-19.73-2.88-3.6-6.91-5.18-11.23-5.18s-8.57,1.8-11.3,5.18Z"/><path d="M842.73,287.85c1.01-4.61,3.46-8.21,6.34-10.8,2.67-2.52,6.7-4.54,9.07-6.77,1.8-1.73,2.66-3.46,2.66-5.69,0-1.58-.5-2.95-1.8-4.1-1.15-.94-2.74-1.37-4.75-1.37-1.51,0-2.81.36-3.82,1.08-.86.65-1.51,1.51-2.23,3.1-.58,1.51-1.3,2.23-2.59,2.23-1.22,0-1.94-.72-1.94-2.09,0-1.58,1.15-3.53,3.53-4.82,2.02-1.08,4.46-1.73,7.42-1.73,3.46,0,5.83.65,7.78,2.02,2.09,1.37,3.17,3.1,3.17,5.69,0,2.3-.86,4.1-2.38,5.83-3.31,3.74-7.85,5.18-11.52,7.92-2.23,1.73-3.89,3.74-4.9,6.48h12.82c3.1,0,3.53-.22,4.46-3.74l1.94.29-1.51,7.27h-20.81l-.94-.79Z"/><path d="M892.91,262.72v-2.88h59.55c-4.75-3.6-10.15-8.78-13.97-13.97l2.3-1.87c4.9,6.7,12.24,13.11,18.79,17.28-6.55,4.18-13.9,10.58-18.79,17.28l-2.3-1.87c3.82-5.18,9.22-10.37,13.97-13.97h-59.55Z"/><path d="M1021.29,277.69l-2.23,10.94h-31.32l-.94-1.15c3.46-14.69,12.17-21.53,18.87-26.21,5.54-3.96,8.86-7.2,8.86-12.82,0-4.75-2.02-10.01-10.66-10.01-4.25,0-8.42,1.44-10.44,8.14-.58,2.16-1.51,2.81-3.1,2.81-1.3,0-2.23-1.08-2.23-3.17,0-4.03,5.04-10.58,16.06-10.58,13.03,0,16.49,7.49,16.49,13.03,0,6.26-4.39,10.73-8.79,13.68-9.43,6.41-17.07,11.52-20.38,21.82h20.38c4.68,0,5.4-.79,7.06-6.84l2.38.36Z"/><path d="M1094.45,294.98c-12.38-5.76-21.24-17.28-21.24-33.7s9.29-28.15,21.24-33.7l1.15,1.51c-11.02,6.12-17.93,17.43-17.93,32.19s6.91,26.07,17.93,32.19l-1.15,1.51Z"/><path d="M1167.6,261.28c0,18.43-14.91,33.34-33.34,33.34s-33.34-14.91-33.34-33.34,14.91-33.34,33.34-33.34,33.34,15.05,33.34,33.34ZM1102.94,261.28c0,17.28,14.04,31.32,31.32,31.32s31.32-14.04,31.32-31.32-14.04-31.32-31.32-31.32-31.32,14.19-31.32,31.32ZM1129.65,258.4c1.66,0,11.74-.36,11.74-8.42,0-5.33-4.03-7.06-7.71-7.06-3.38,0-6.34,2.09-7.56,5.26-.72,1.8-1.22,2.81-2.95,2.81-1.15,0-1.8-.94-1.8-2.38,0-2.95,4.1-7.78,12.38-7.78,9.58,0,12.6,4.82,12.6,9.36,0,2.88-1.8,7.92-10.23,8.93v.14c5.4.22,11.95,3.17,11.95,10.44,0,5.04-3.82,11.67-14.47,11.67-8.79,0-13.18-4.9-13.18-8.14,0-1.51.72-2.3,1.94-2.3.94,0,1.58.36,2.3,1.58,2.59,4.25,4.97,6.7,9.07,6.7s9.22-2.02,9.22-9.29c0-9.36-10.51-9.5-13.32-9.5v-2.02Z"/><path d="M1174.07,227.58c12.38,5.76,21.24,17.28,21.24,33.7s-9.29,28.15-21.24,33.7l-1.15-1.51c11.02-6.12,17.93-17.43,17.93-32.19s-6.91-26.07-17.93-32.19l1.15-1.51Z"/><path d="M1243.7,263.58v25.92h-2.88v-25.92h-25.92v-2.88h25.92v-25.92h2.88v25.92h25.92v2.88h-25.92Z"/><path d="M1324.7,274.31h-21.89v-2.3l23.4-36.22h4.32v35.43h6.55l-.5,3.1h-6.05v6.26c0,5.18.36,5.76,5.76,5.76v2.3h-18.36v-2.3c6.48,0,6.77-.65,6.77-5.76v-6.26ZM1324.56,243.35c-1.15,1.66-2.23,4.1-4.18,6.91l-13.32,20.95h17.64v-20.52c0-2.09.07-4.75.14-7.34h-.29Z"/><path d="M1393.17,237.66c-5.33,0-5.76.43-5.76,5.62v37.44c0,5.18.43,5.62,5.76,5.62v2.3h-16.78v-2.3c4.68,0,5.04-.43,5.04-5.54v-18.43h-24.7v18.43c0,5.11.36,5.54,5.04,5.54v2.3h-16.78v-2.3c5.26,0,5.69-.43,5.69-5.62v-37.44c0-5.18-.43-5.62-5.69-5.62v-2.3h16.78v2.3c-4.68,0-5.04.36-5.04,5.47v16.27h24.7v-16.2c0-5.18-.36-5.54-5.04-5.54v-2.3h16.78v2.3Z"/><path d="M1398.93,287.85c1.01-4.61,3.46-8.21,6.34-10.8,2.67-2.52,6.7-4.54,9.07-6.77,1.8-1.73,2.66-3.46,2.66-5.69,0-1.58-.5-2.95-1.8-4.1-1.15-.94-2.74-1.37-4.75-1.37-1.51,0-2.81.36-3.82,1.08-.86.65-1.51,1.51-2.23,3.1-.58,1.51-1.3,2.23-2.59,2.23-1.22,0-1.94-.72-1.94-2.09,0-1.58,1.15-3.53,3.53-4.82,2.02-1.08,4.46-1.73,7.42-1.73,3.46,0,5.83.65,7.78,2.02,2.09,1.37,3.17,3.1,3.17,5.69,0,2.3-.86,4.1-2.38,5.83-3.31,3.74-7.85,5.18-11.52,7.92-2.23,1.73-3.89,3.74-4.9,6.48h12.82c3.1,0,3.53-.22,4.46-3.74l1.94.29-1.51,7.27h-20.81l-.94-.79Z"/><path d="M1429.6,262c0-19.44,9.22-27.72,22.39-27.72,14.26,0,22.39,9.58,22.39,27.72s-8.06,27.72-22.39,27.72c-17.14,0-22.39-13.18-22.39-27.72ZM1440.69,242.27c-2.95,3.74-4.83,9.72-4.83,19.73,0,8.35,1.58,15.19,4.75,19.59,2.59,3.24,6.84,5.33,11.3,5.33s8.64-2.09,11.3-5.33c3.17-4.39,4.75-11.23,4.75-19.59,0-10.01-1.8-15.99-4.75-19.73-2.88-3.6-6.91-5.18-11.23-5.18s-8.57,1.8-11.3,5.18Z"/></svg>