<?xml version="1.0" encoding="UTF-8"?><svg id="_レイヤー_1" xmlns="http://www.w3.org/2000/svg" viewBox="0 0 1560 560"><rect width="1560" height="560" rx="18" ry="18" fill="#c8dbc3"/><path d="M81.85,286.34c-12.39-5.76-21.24-17.28-21.24-33.7s9.29-28.15,21.24-33.7l1.15,1.51c-11.02,6.12-17.93,17.43-17.93,32.19s6.91,26.07,17.93,32.19l-1.15,1.51Z"/><path d="M116.62,263.01h-18.65l-2.66,9.29c-.43,1.51-.72,2.66-.72,3.46,0,1.58,1.08,1.94,3.96,1.94v2.3h-11.74v-2.3c2.66,0,3.53-.65,4.61-4.03l14.91-48.03h3.17l16.49,47.02c1.44,4.32,2.3,5.04,4.97,5.04v2.3h-14.33v-2.3c2.95,0,3.96-.5,3.96-1.94,0-.72-.22-1.66-.65-2.88l-3.31-9.87ZM115.61,260.05l-8.71-25.56h-.22l-7.7,25.56h16.63Z"/><path d="M135.99,218.94c12.38,5.76,21.24,17.28,21.24,33.7s-9.29,28.15-21.24,33.7l-1.15-1.51c11.02-6.12,17.93-17.43,17.93-32.19s-6.91-26.07-17.93-32.19l1.15-1.51Z"/><path d="M240.97,240.68c-1.66-8.35-2.52-12.24-11.02-12.24-10.94,0-16.13,9.58-16.13,24.12,0,22.9,11.38,25.27,15.41,25.27,7.63,0,11.52-5.98,13.47-11.95l2.88.79c-3.1,9.5-9.29,14.4-17.07,14.4-6.26,0-11.3-2.3-14.83-6.34-4.25-5.11-6.19-12.17-6.19-21.89,0-18.15,8.93-27.22,22.32-27.22,3.02,0,6.26.14,12.1,2.45.5,4.1,1.08,8.28,1.87,12.02l-2.81.58Z"/><path d="M251.91,279.21c1.01-4.61,3.46-8.21,6.34-10.8,2.66-2.52,6.7-4.54,9.07-6.77,1.8-1.73,2.66-3.46,2.66-5.69,0-1.58-.5-2.95-1.8-4.1-1.15-.94-2.74-1.37-4.75-1.37-1.51,0-2.81.36-3.82,1.08-.86.65-1.51,1.51-2.23,3.1-.58,1.51-1.3,2.23-2.59,2.23-1.22,0-1.94-.72-1.94-2.09,0-1.58,1.15-3.53,3.53-4.82,2.02-1.08,4.46-1.73,7.42-1.73,3.46,0,5.83.65,7.78,2.02,2.09,1.37,3.17,3.1,3.17,5.69,0,2.3-.86,4.1-2.38,5.83-3.31,3.74-7.85,5.18-11.52,7.92-2.23,1.73-3.89,3.74-4.9,6.48h12.82c3.1,0,3.53-.22,4.46-3.74l1.94.29-1.51,7.27h-20.81l-.94-.79Z"/><path d="M329.89,229.02c-5.33,0-5.76.43-5.76,5.62v37.44c0,5.18.43,5.62,5.76,5.62v2.3h-16.78v-2.3c4.68,0,5.04-.43,5.04-5.54v-18.43h-24.7v18.43c0,5.11.36,5.54,5.04,5.54v2.3h-16.78v-2.3c5.26,0,5.69-.43,5.69-5.62v-37.44c0-5.18-.43-5.62-5.69-5.62v-2.3h16.78v2.3c-4.68,0-5.04.36-5.04,5.47v16.27h24.7v-16.2c0-5.18-.36-5.54-5.04-5.54v-2.3h16.78v2.3Z"/><path d="M335.64,279.21c1.01-4.61,3.46-8.21,6.34-10.8,2.66-2.52,6.7-4.54,9.07-6.77,1.8-1.73,2.66-3.46,2.66-5.69,0-1.58-.5-2.95-1.8-4.1-1.15-.94-2.74-1.37-4.75-1.37-1.51,0-2.81.36-3.82,1.08-.86.65-1.51,1.51-2.23,3.1-.58,1.51-1.3,2.23-2.59,2.23-1.22,0-1.94-.72-1.94-2.09,0-1.58,1.15-3.53,3.53-4.82,2.02-1.08,4.46-1.73,7.42-1.73,3.46,0,5.83.65,7.78,2.02,2.09,1.37,3.17,3.1,3.17,5.69,0,2.3-.86,4.1-2.38,5.83-3.31,3.74-7.85,5.18-11.52,7.92-2.23,1.73-3.89,3.74-4.9,6.48h12.82c3.1,0,3.53-.22,4.46-3.74l1.94.29-1.51,7.27h-20.81l-.94-.79Z"/><path d="M420.39,254.94v25.92h-2.88v-25.92h-25.92v-2.88h25.92v-25.92h2.88v25.92h25.92v2.88h-25.92Z"/><path d="M507.15,286.34c-12.39-5.76-21.24-17.28-21.24-33.7s9.29-28.15,21.24-33.7l1.15,1.51c-11.02,6.12-17.93,17.43-17.93,32.19s6.91,26.07,17.93,32.19l-1.15,1.51Z"/><path d="M519.17,234.78c0-5.33-.43-5.76-5.69-5.76v-2.3h17.5c6.12,0,10.08.5,13.54,3.1,2.66,2.02,4.39,5.11,4.39,8.86,0,3.38-1.08,11.09-12.82,13.03v.14c8.28.29,15.34,4.68,15.34,13.03,0,4.39-1.3,7.99-3.89,10.66-2.74,2.88-6.77,4.46-13.54,4.46h-20.52v-2.3c5.26,0,5.69-.43,5.69-5.76v-37.16ZM527.23,229.6c-1.8,0-2.02.65-2.02,2.45v18.58h5.04c7.56,0,12.53-3.74,12.53-11.23,0-5.76-3.17-9.79-10.73-9.79h-4.82ZM525.22,253.57v19.87c0,3.02.43,3.6,2.66,3.6h5.98c7.99,0,11.31-4.39,11.31-12.31,0-3.53-1.3-6.34-3.53-8.28-2.16-1.94-5.47-2.88-10.01-2.88h-6.41Z"/><path d="M558.26,218.94c12.38,5.76,21.24,17.28,21.24,33.7s-9.29,28.15-21.24,33.7l-1.15-1.51c11.02-6.12,17.93-17.43,17.93-32.19s-6.91-26.07-17.93-32.19l1.15-1.51Z"/><path d="M629.83,253.36c0-19.44,9.22-27.72,22.39-27.72,14.26,0,22.39,9.58,22.39,27.72s-8.06,27.72-22.39,27.72c-17.14,0-22.39-13.18-22.39-27.72ZM640.92,233.63c-2.95,3.74-4.82,9.72-4.82,19.73,0,8.35,1.58,15.19,4.75,19.59,2.59,3.24,6.84,5.33,11.3,5.33s8.64-2.09,11.31-5.33c3.17-4.39,4.75-11.23,4.75-19.59,0-10.01-1.8-15.99-4.75-19.73-2.88-3.6-6.91-5.18-11.23-5.18s-8.57,1.8-11.31,5.18Z"/><path d="M681.31,279.21c1.01-4.61,3.46-8.21,6.34-10.8,2.66-2.52,6.7-4.54,9.07-6.77,1.8-1.73,2.66-3.46,2.66-5.69,0-1.58-.5-2.95-1.8-4.1-1.15-.94-2.74-1.37-4.75-1.37-1.51,0-2.81.36-3.82,1.08-.86.65-1.51,1.51-2.23,3.1-.58,1.51-1.3,2.23-2.59,2.23-1.22,0-1.94-.72-1.94-2.09,0-1.58,1.15-3.53,3.53-4.82,2.02-1.08,4.46-1.73,7.42-1.73,3.46,0,5.83.65,7.78,2.02,2.09,1.37,3.17,3.1,3.17,5.69,0,2.3-.86,4.1-2.38,5.83-3.31,3.74-7.85,5.18-11.52,7.92-2.23,1.73-3.89,3.74-4.9,6.48h12.82c3.1,0,3.53-.22,4.46-3.74l1.94.29-1.51,7.27h-20.81l-.94-.79Z"/><path d="M731.49,254.08v-2.88h59.55c-4.75-3.6-10.15-8.78-13.97-13.97l2.3-1.87c4.9,6.7,12.24,13.11,18.79,17.28-6.55,4.18-13.9,10.58-18.79,17.28l-2.3-1.87c3.82-5.18,9.22-10.37,13.97-13.97h-59.55Z"/><path d="M852.82,286.34c-12.38-5.76-21.24-17.28-21.24-33.7s9.29-28.15,21.24-33.7l1.15,1.51c-11.02,6.12-17.93,17.43-17.93,32.19s6.91,26.07,17.93,32.19l-1.15,1.51Z"/><path d="M893.42,240.68c-1.66-8.35-2.52-12.24-11.02-12.24-10.95,0-16.13,9.58-16.13,24.12,0,22.9,11.38,25.27,15.41,25.27,7.63,0,11.52-5.98,13.46-11.95l2.88.79c-3.1,9.5-9.29,14.4-17.07,14.4-6.26,0-11.3-2.3-14.83-6.34-4.25-5.11-6.19-12.17-6.19-21.89,0-18.15,8.93-27.22,22.32-27.22,3.02,0,6.26.14,12.1,2.45.5,4.1,1.08,8.28,1.87,12.02l-2.81.58Z"/><path d="M904.87,218.94c12.38,5.76,21.24,17.28,21.24,33.7s-9.29,28.15-21.24,33.7l-1.15-1.51c11.02-6.12,17.93-17.43,17.93-32.19s-6.91-26.07-17.93-32.19l1.15-1.51Z"/><path d="M1009.85,240.68c-1.66-8.35-2.52-12.24-11.02-12.24-10.95,0-16.13,9.58-16.13,24.12,0,22.9,11.38,25.27,15.41,25.27,7.63,0,11.52-5.98,13.46-11.95l2.88.79c-3.1,9.5-9.29,14.4-17.07,14.4-6.26,0-11.3-2.3-14.83-6.34-4.25-5.11-6.19-12.17-6.19-21.89,0-18.15,8.93-27.22,22.32-27.22,3.02,0,6.26.14,12.1,2.45.5,4.1,1.08,8.28,1.87,12.02l-2.81.58Z"/><path d="M1020.86,253.36c0-19.44,9.22-27.72,22.39-27.72,14.26,0,22.39,9.58,22.39,27.72s-8.06,27.72-22.39,27.72c-17.14,0-22.39-13.18-22.39-27.72ZM1031.95,233.63c-2.95,3.74-4.83,9.72-4.83,19.73,0,8.35,1.58,15.19,4.75,19.59,2.59,3.24,6.84,5.33,11.3,5.33s8.64-2.09,11.3-5.33c3.17-4.39,4.75-11.23,4.75-19.59,0-10.01-1.8-15.99-4.75-19.73-2.88-3.6-6.91-5.18-11.23-5.18s-8.57,1.8-11.3,5.18Z"/><path d="M1072.34,279.21c1.01-4.61,3.46-8.21,6.34-10.8,2.67-2.52,6.7-4.54,9.07-6.77,1.8-1.73,2.66-3.46,2.66-5.69,0-1.58-.5-2.95-1.8-4.1-1.15-.94-2.74-1.37-4.75-1.37-1.51,0-2.81.36-3.82,1.08-.86.65-1.51,1.51-2.23,3.1-.58,1.51-1.3,2.23-2.59,2.23-1.22,0-1.94-.72-1.94-2.09,0-1.58,1.15-3.53,3.53-4.82,2.02-1.08,4.46-1.73,7.42-1.73,3.46,0,5.83.65,7.78,2.02,2.09,1.37,3.17,3.1,3.17,5.69,0,2.3-.86,4.1-2.38,5.83-3.31,3.74-7.85,5.18-11.52,7.92-2.23,1.73-3.89,3.74-4.9,6.48h12.82c3.1,0,3.53-.22,4.46-3.74l1.94.29-1.51,7.27h-20.81l-.94-.79Z"/><path d="M1157.08,254.94v25.92h-2.88v-25.92h-25.92v-2.88h25.92v-25.92h2.88v25.92h25.92v2.88h-25.92Z"/><path d="M1243.85,286.34c-12.38-5.76-21.24-17.28-21.24-33.7s9.29-28.15,21.24-33.7l1.15,1.51c-11.02,6.12-17.93,17.43-17.93,32.19s6.91,26.07,17.93,32.19l-1.15,1.51Z"/><path d="M1250.18,280v-2.3c5.26,0,5.69-.43,5.69-5.62v-37.44c0-5.18-.43-5.62-5.69-5.62v-2.3h19.37c7.99,0,13.11,1.66,17.28,5.98,4.68,4.97,6.55,11.95,6.55,20.09,0,20.74-10.66,27.22-25.35,27.22h-17.86ZM1264.15,229.6c-1.87,0-2.23.5-2.23,3.02v40.61c0,3.38.36,3.89,2.45,3.89h3.46c11.38,0,19.3-6.48,19.3-23.47,0-8.21-1.3-14.04-4.68-18.58-3.1-4.03-7.56-5.47-13.18-5.47h-5.11Z"/><path d="M1300.51,218.94c12.38,5.76,21.24,17.28,21.24,33.7s-9.29,28.15-21.24,33.7l-1.15-1.51c11.02-6.12,17.93-17.43,17.93-32.19s-6.91-26.07-17.93-32.19l1.15-1.51Z"/><path d="M1419.38,229.02c-5.33,0-5.76.43-5.76,5.62v37.44c0,5.18.43,5.62,5.76,5.62v2.3h-16.78v-2.3c4.68,0,5.04-.43,5.04-5.54v-18.43h-24.7v18.43c0,5.11.36,5.54,5.04,5.54v2.3h-16.78v-2.3c5.26,0,5.69-.43,5.69-5.62v-37.44c0-5.18-.43-5.62-5.69-5.62v-2.3h16.78v2.3c-4.68,0-5.04.36-5.04,5.47v16.27h24.7v-16.2c0-5.18-.36-5.54-5.04-5.54v-2.3h16.78v2.3Z"/><path d="M1425.14,279.21c1.01-4.61,3.46-8.21,6.34-10.8,2.67-2.52,6.7-4.54,9.07-6.77,1.8-1.73,2.66-3.46,2.66-5.69,0-1.58-.5-2.95-1.8-4.1-1.15-.94-2.74-1.37-4.75-1.37-1.51,0-2.81.36-3.82,1.08-.86.65-1.51,1.51-2.23,3.1-.58,1.51-1.3,2.23-2.59,2.23-1.22,0-1.94-.72-1.94-2.09,0-1.58,1.15-3.53,3.53-4.82,2.02-1.08,4.46-1.73,7.42-1.73,3.46,0,5.83.65,7.78,2.02,2.09,1.37,3.17,3.1,3.17,5.69,0,2.3-.86,4.1-2.38,5.83-3.31,3.74-7.85,5.18-11.52,7.92-2.23,1.73-3.89,3.74-4.9,6.48h12.82c3.1,0,3.53-.22,4.46-3.74l1.94.29-1.51,7.27h-20.81l-.94-.79Z"/><path d="M1455.81,253.36c0-19.44,9.22-27.72,22.39-27.72,14.26,0,22.39,9.58,22.39,27.72s-8.06,27.72-22.39,27.72c-17.14,0-22.39-13.18-22.39-27.72ZM1466.9,233.63c-2.95,3.74-4.83,9.72-4.83,19.73,0,8.35,1.58,15.19,4.75,19.59,2.59,3.24,6.84,5.33,11.3,5.33s8.64-2.09,11.3-5.33c3.17-4.39,4.75-11.23,4.75-19.59,0-10.01-1.8-15.99-4.75-19.73-2.88-3.6-6.91-5.18-11.23-5.18s-8.57,1.8-11.3,5.18Z"/></svg>