<?xml version="1.0" encoding="UTF-8"?><svg id="_レイヤー_1" xmlns="http://www.w3.org/2000/svg" viewBox="0 0 1560 560"><rect width="1560" height="560" rx="18" ry="18" fill="#c8dbc3"/><path d="M286.85,269.05l-2.23,10.94h-31.32l-.94-1.15c3.46-14.69,12.17-21.53,18.87-26.21,5.54-3.96,8.86-7.2,8.86-12.82,0-4.75-2.02-10.01-10.66-10.01-4.25,0-8.42,1.44-10.44,8.14-.58,2.16-1.51,2.81-3.1,2.81-1.3,0-2.23-1.08-2.23-3.17,0-4.03,5.04-10.58,16.06-10.58,13.03,0,16.49,7.49,16.49,13.03,0,6.26-4.39,10.73-8.78,13.68-9.43,6.41-17.07,11.52-20.38,21.82h20.38c4.68,0,5.4-.79,7.06-6.84l2.38.36Z"/><path d="M328.61,240.68c-1.66-8.35-2.52-12.24-11.02-12.24-10.94,0-16.13,9.58-16.13,24.12,0,22.9,11.38,25.27,15.41,25.27,7.63,0,11.52-5.98,13.47-11.95l2.88.79c-3.1,9.5-9.29,14.4-17.07,14.4-6.26,0-11.3-2.3-14.83-6.34-4.25-5.11-6.19-12.17-6.19-21.89,0-18.15,8.93-27.22,22.32-27.22,3.02,0,6.26.14,12.1,2.45.5,4.1,1.08,8.28,1.87,12.02l-2.81.58Z"/><path d="M347.61,261.93c1.94,0,3.82-.29,5.11-.72,1.22-.36,2.45-.94,3.31-1.94.86-1.08,1.15-2.3,1.15-3.67,0-1.3-.43-2.88-1.51-3.89-1.15-1.01-2.81-1.44-4.9-1.44-1.58,0-2.95.29-4.1,1.15-.94.65-1.51,1.58-2.16,3.1-.65,1.44-1.44,2.02-2.38,2.02-1.08,0-1.8-.79-1.8-2.02,0-1.37,1.01-3.24,3.46-4.61,1.87-1.08,4.1-1.8,7.27-1.8,3.82,0,6.84.79,8.57,2.23,1.58,1.3,2.38,3.1,2.38,5.33,0,1.73-.94,3.46-2.38,4.68-1.58,1.3-3.82,1.94-6.48,2.3v.22c2.81.29,5.4.94,7.27,2.3,2.09,1.51,2.95,3.74,2.95,6.05s-.86,4.82-3.17,6.7c-1.8,1.44-4.46,2.59-9.5,2.59-2.74,0-5.47-.43-7.78-1.8-2.16-1.3-3.31-3.17-3.31-4.75,0-1.44.72-2.23,1.87-2.23.72,0,1.44.43,1.8,1.08.43.58.72,1.37,1.22,2.23.94,1.66,2.81,3.24,6.19,3.24,2.52,0,4.39-.5,5.76-1.8,1.3-1.22,1.94-3.02,1.94-5.26,0-1.58-.5-3.02-1.44-4.25-1.01-1.3-2.66-2.16-4.61-2.66-1.3-.29-2.88-.36-4.75-.36v-2.02Z"/><path d="M417.53,229.02c-5.33,0-5.76.43-5.76,5.62v37.44c0,5.18.43,5.62,5.76,5.62v2.3h-16.78v-2.3c4.68,0,5.04-.43,5.04-5.54v-18.43h-24.7v18.43c0,5.11.36,5.54,5.04,5.54v2.3h-16.78v-2.3c5.26,0,5.69-.43,5.69-5.62v-37.44c0-5.18-.43-5.62-5.69-5.62v-2.3h16.78v2.3c-4.68,0-5.04.36-5.04,5.47v16.27h24.7v-16.2c0-5.18-.36-5.54-5.04-5.54v-2.3h16.78v2.3Z"/><path d="M435.09,280.5c-5.26,0-11.88-2.38-11.88-8.71,0-4.32,4.1-6.77,7.63-7.99v-.14c-3.53-1.44-6.55-3.96-6.55-8.14,0-5.62,6.48-7.42,10.94-7.42s11.02,1.66,11.02,7.42c0,4.03-3.82,5.98-7.13,7.06v.07c4.61,1.66,8.35,4.82,8.35,8.93,0,6.7-6.77,8.93-12.31,8.93h-.07ZM435.23,278.2c3.96,0,7.49-2.09,7.49-5.9,0-4.18-5.83-6.26-9-7.27-3.02,1.15-6.19,3.1-6.19,6.77,0,4.03,3.6,6.41,7.63,6.41h.07ZM435.09,250.26c-3.1,0-6.55,1.44-6.55,4.9,0,3.82,4.75,5.4,7.63,6.34,3.24-1.15,5.83-3.24,5.83-5.9,0-3.17-2.81-5.33-6.84-5.33h-.07Z"/><path d="M454.02,253.36c0-19.44,9.22-27.72,22.39-27.72,14.26,0,22.39,9.58,22.39,27.72s-8.06,27.72-22.39,27.72c-17.14,0-22.39-13.18-22.39-27.72ZM465.11,233.63c-2.95,3.74-4.82,9.72-4.82,19.73,0,8.35,1.58,15.19,4.75,19.59,2.59,3.24,6.84,5.33,11.3,5.33s8.64-2.09,11.31-5.33c3.17-4.39,4.75-11.23,4.75-19.59,0-10.01-1.8-15.99-4.75-19.73-2.88-3.6-6.91-5.18-11.23-5.18s-8.57,1.8-11.31,5.18Z"/><path d="M559.65,254.94v25.92h-2.88v-25.92h-25.92v-2.88h25.92v-25.92h2.88v25.92h25.92v2.88h-25.92Z"/><path d="M647.63,253.65c-2.81,4.54-7.42,7.34-13.18,7.34-10.44,0-16.2-7.13-16.2-16.42s5.47-17.57,17.57-17.57c9.43,0,18.07,7.13,18.07,25.42,0,14.26-4.61,28.66-19.08,28.66-10.44,0-15.05-5.98-15.05-9.79,0-1.73.86-2.88,2.3-2.88,1.8,0,2.38.94,3.74,3.67,1.37,3.46,3.74,6.19,9,6.19,12.67,0,13.03-19.95,13.03-24.63h-.22ZM635.75,258.04c6.84,0,11.67-5.69,11.67-11.95,0-7.49-4.03-16.35-11.52-16.35s-11.52,6.19-11.52,14.62c0,3.74,1.22,13.68,11.38,13.68Z"/><path d="M661.82,253.36c0-19.44,9.22-27.72,22.39-27.72,14.26,0,22.39,9.58,22.39,27.72s-8.06,27.72-22.39,27.72c-17.14,0-22.39-13.18-22.39-27.72ZM672.9,233.63c-2.95,3.74-4.82,9.72-4.82,19.73,0,8.35,1.58,15.19,4.75,19.59,2.59,3.24,6.84,5.33,11.3,5.33s8.64-2.09,11.31-5.33c3.17-4.39,4.75-11.23,4.75-19.59,0-10.01-1.8-15.99-4.75-19.73-2.88-3.6-6.91-5.18-11.23-5.18s-8.57,1.8-11.31,5.18Z"/><path d="M713.3,279.21c1.01-4.61,3.46-8.21,6.34-10.8,2.66-2.52,6.7-4.54,9.07-6.77,1.8-1.73,2.66-3.46,2.66-5.69,0-1.58-.5-2.95-1.8-4.1-1.15-.94-2.74-1.37-4.75-1.37-1.51,0-2.81.36-3.82,1.08-.86.65-1.51,1.51-2.23,3.1-.58,1.51-1.3,2.23-2.59,2.23-1.22,0-1.94-.72-1.94-2.09,0-1.58,1.15-3.53,3.53-4.82,2.02-1.08,4.46-1.73,7.42-1.73,3.46,0,5.83.65,7.78,2.02,2.09,1.37,3.17,3.1,3.17,5.69,0,2.3-.86,4.1-2.38,5.83-3.31,3.74-7.85,5.18-11.52,7.92-2.23,1.73-3.89,3.74-4.9,6.48h12.82c3.1,0,3.53-.22,4.46-3.74l1.94.29-1.51,7.27h-20.81l-.94-.79Z"/><path d="M763.48,254.08v-2.88h59.55c-4.75-3.6-10.15-8.78-13.97-13.97l2.3-1.87c4.9,6.7,12.24,13.11,18.79,17.28-6.55,4.18-13.9,10.58-18.79,17.28l-2.3-1.87c3.82-5.18,9.22-10.37,13.97-13.97h-59.55Z"/><path d="M863.42,254.37c2.66-4.39,7.27-7.34,13.11-7.34,9.94,0,16.13,6.77,16.13,16.2,0,10.22-6.19,17.86-17.5,17.86-9.79,0-18-7.13-18-25.99,0-12.75,4.1-28.08,18.94-28.08,9.5,0,14.04,5.54,14.04,9.58,0,1.73-.79,2.95-2.23,2.95-1.73,0-2.52-1.08-3.6-3.67-1.3-3.67-4.03-6.05-8.57-6.05-9.5,0-12.6,13.39-12.53,24.55h.22ZM875.3,249.97c-7.2,0-11.74,5.98-11.74,11.74,0,7.78,3.89,16.63,11.52,16.63s11.52-7.2,11.52-14.76c0-3.53-1.51-13.61-11.3-13.61Z"/><path d="M933.62,240.68c-1.66-8.35-2.52-12.24-11.02-12.24-10.95,0-16.13,9.58-16.13,24.12,0,22.9,11.38,25.27,15.41,25.27,7.63,0,11.52-5.98,13.46-11.95l2.88.79c-3.1,9.5-9.29,14.4-17.07,14.4-6.26,0-11.3-2.3-14.83-6.34-4.25-5.11-6.19-12.17-6.19-21.89,0-18.15,8.93-27.22,22.32-27.22,3.02,0,6.26.14,12.1,2.45.5,4.1,1.08,8.28,1.87,12.02l-2.81.58Z"/><path d="M944.63,253.36c0-19.44,9.22-27.72,22.39-27.72,14.26,0,22.39,9.58,22.39,27.72s-8.06,27.72-22.39,27.72c-17.14,0-22.39-13.18-22.39-27.72ZM955.72,233.63c-2.95,3.74-4.83,9.72-4.83,19.73,0,8.35,1.58,15.19,4.75,19.59,2.59,3.24,6.84,5.33,11.3,5.33s8.64-2.09,11.3-5.33c3.17-4.39,4.75-11.23,4.75-19.59,0-10.01-1.8-15.99-4.75-19.73-2.88-3.6-6.91-5.18-11.23-5.18s-8.57,1.8-11.3,5.18Z"/><path d="M996.11,279.21c1.01-4.61,3.46-8.21,6.34-10.8,2.67-2.52,6.7-4.54,9.07-6.77,1.8-1.73,2.66-3.46,2.66-5.69,0-1.58-.5-2.95-1.8-4.1-1.15-.94-2.74-1.37-4.75-1.37-1.51,0-2.81.36-3.82,1.08-.86.65-1.51,1.51-2.23,3.1-.58,1.51-1.3,2.23-2.59,2.23-1.22,0-1.94-.72-1.94-2.09,0-1.58,1.15-3.53,3.53-4.82,2.02-1.08,4.46-1.73,7.42-1.73,3.46,0,5.83.65,7.78,2.02,2.09,1.37,3.17,3.1,3.17,5.69,0,2.3-.86,4.1-2.38,5.83-3.31,3.74-7.85,5.18-11.52,7.92-2.23,1.73-3.89,3.74-4.9,6.48h12.82c3.1,0,3.53-.22,4.46-3.74l1.94.29-1.51,7.27h-20.81l-.94-.79Z"/><path d="M1080.85,254.94v25.92h-2.88v-25.92h-25.92v-2.88h25.92v-25.92h2.88v25.92h25.92v2.88h-25.92Z"/><path d="M1162.86,251.56c6.41,2.52,12.6,8.06,12.6,14.69,0,7.56-5.47,14.83-18.15,14.83-9.58,0-17.64-4.97-17.64-14.55,0-4.32,2.66-9.86,11.88-13.54v-.14c-7.13-3.17-10.3-8.06-10.3-13.54s4.54-12.31,16.13-12.31,16.13,5.9,16.13,12.39c0,5.76-4.25,9.58-10.66,11.95v.22ZM1169.2,267.4c0-2.81-1.66-5.62-4.32-7.85-2.23-1.8-4.68-3.17-9.79-4.97-4.1,1.66-9.79,4.9-9.79,12.02s4.68,11.67,11.95,11.67c6.7,0,11.95-3.74,11.95-10.87ZM1146.73,238.6c0,6.41,5.91,9.15,12.17,11.38,5.04-2.02,9.15-4.68,9.15-10.66,0-3.74-1.87-9.5-10.73-9.5-7.13,0-10.58,4.1-10.58,8.78Z"/><path d="M1230.33,229.02c-5.33,0-5.76.43-5.76,5.62v37.44c0,5.18.43,5.62,5.76,5.62v2.3h-16.78v-2.3c4.68,0,5.04-.43,5.04-5.54v-18.43h-24.7v18.43c0,5.11.36,5.54,5.04,5.54v2.3h-16.78v-2.3c5.26,0,5.69-.43,5.69-5.62v-37.44c0-5.18-.43-5.62-5.69-5.62v-2.3h16.78v2.3c-4.68,0-5.04.36-5.04,5.47v16.27h24.7v-16.2c0-5.18-.36-5.54-5.04-5.54v-2.3h16.78v2.3Z"/><path d="M1236.08,279.21c1.01-4.61,3.46-8.21,6.34-10.8,2.67-2.52,6.7-4.54,9.07-6.77,1.8-1.73,2.66-3.46,2.66-5.69,0-1.58-.5-2.95-1.8-4.1-1.15-.94-2.74-1.37-4.75-1.37-1.51,0-2.81.36-3.82,1.08-.86.65-1.51,1.51-2.23,3.1-.58,1.51-1.3,2.23-2.59,2.23-1.22,0-1.94-.72-1.94-2.09,0-1.58,1.15-3.53,3.53-4.82,2.02-1.08,4.46-1.73,7.42-1.73,3.46,0,5.83.65,7.78,2.02,2.09,1.37,3.17,3.1,3.17,5.69,0,2.3-.86,4.1-2.38,5.83-3.31,3.74-7.85,5.18-11.52,7.92-2.23,1.73-3.89,3.74-4.9,6.48h12.82c3.1,0,3.53-.22,4.46-3.74l1.94.29-1.51,7.27h-20.81l-.94-.79Z"/><path d="M1266.75,253.36c0-19.44,9.22-27.72,22.39-27.72,14.26,0,22.39,9.58,22.39,27.72s-8.06,27.72-22.39,27.72c-17.14,0-22.39-13.18-22.39-27.72ZM1277.84,233.63c-2.95,3.74-4.83,9.72-4.83,19.73,0,8.35,1.58,15.19,4.75,19.59,2.59,3.24,6.84,5.33,11.3,5.33s8.64-2.09,11.3-5.33c3.17-4.39,4.75-11.23,4.75-19.59,0-10.01-1.8-15.99-4.75-19.73-2.88-3.6-6.91-5.18-11.23-5.18s-8.57,1.8-11.3,5.18Z"/></svg>