<?xml version="1.0" encoding="UTF-8"?><svg id="_レイヤー_1" xmlns="http://www.w3.org/2000/svg" viewBox="0 0 470.83 131.14"><defs><style>.cls-1{fill:#e6e6e6;}</style></defs><rect class="cls-1" x=".5" y=".5" width="469.83" height="130.14"/><path d="M469.83,1v129.14H1V1h468.83M470.83,0H0v131.14h470.83V0h0Z"/><path d="M51.8,39.88c-.69,1.24-1.43,2.39-2.2,3.36-.15-.34-.48-1.05-.69-1.36,1.81-2.18,3.55-5.84,4.62-9.47l1.66.52c-.06.15-.21.23-.48.23-.46,1.41-1.01,2.81-1.62,4.16l.48.15c-.04.15-.15.23-.4.27v14.07h-1.36v-11.93ZM62.89,33.39v1.28h-4.43c-.17.99-.36,2.06-.65,3.15h3.3c.17-.04.21-.04.25-.04.19.06.38.13.86.31-.02.1-.1.19-.17.25-.86,6.66-3.19,11.17-6.47,13.52-.19-.34-.65-.88-.94-1.11,1.81-1.24,3.32-3.13,4.41-5.73-.61-.67-1.72-1.6-2.67-2.25l.61-1.07c.88.59,1.95,1.39,2.54,2.02.46-1.39.84-2.92,1.07-4.62h-3.13c-.65,2.12-1.55,4.2-2.86,5.73-.19-.29-.61-.76-.88-.99,1.93-2.31,2.88-6.05,3.34-9.18h-2.08v-1.28h7.89ZM64.11,46.93h-1.3v-12.26l1.7.1c-.02.15-.13.25-.4.29v11.86ZM66.75,32.59l1.74.1c-.02.15-.13.25-.4.27v16.96c0,1.74-.8,1.87-4.14,1.87-.06-.38-.27-1.01-.46-1.41.65.02,1.26.04,1.74.04,1.39,0,1.51,0,1.51-.48v-17.36Z"/><path d="M79.96,50v-14.09h-.04l-2.58,1.49-.42-1.3,3.25-1.83h1.49v15.73h-1.7Z"/><path d="M92.23,40.34c0-.78.5-1.34,1.24-1.34s1.24.57,1.24,1.34-.48,1.34-1.24,1.34c-.8,0-1.24-.65-1.24-1.34ZM92.23,48.93c0-.78.5-1.34,1.24-1.34s1.24.57,1.24,1.34c0,.73-.48,1.32-1.24,1.32-.8,0-1.24-.63-1.24-1.32Z"/><path d="M113.5,50h-1.74l-5.1-8.42c-1.07-1.78-2.1-3.57-2.88-5.33l-.08.02c.15,2.04.17,3.91.17,6.68v7.05h-1.64v-16h1.83l5.17,8.42c1.13,1.91,2.06,3.57,2.79,5.23l.04-.02c-.17-2.23-.21-4.14-.21-6.66v-6.97h1.66v16Z"/><path d="M115.5,51.85v-.65l1.22-1.17c1.6-1.55,2.56-2.61,2.56-3.73,0-.83-.49-1.48-1.57-1.48-.7,0-1.3.36-1.66.63l-.38-.81c.5-.43,1.37-.83,2.34-.83,1.84,0,2.56,1.21,2.56,2.25,0,1.53-1.15,2.75-2.68,4.11l-.67.65v.04h3.49v.99h-5.22Z"/><path d="M131.88,37.36h1.34v5.67h5.46v1.26h-5.46v5.71h-1.34v-5.71h-5.46v-1.26h5.46v-5.67Z"/><path d="M149.16,52.88c-1.49-1.95-3.11-5-3.11-9.64s1.6-7.73,3.11-9.72h1.43c-1.74,2.33-3,5.42-3,9.74s1.3,7.24,3,9.62h-1.43Z"/><path d="M156.49,50v-14.09h-.04l-2.58,1.49-.42-1.3,3.25-1.83h1.49v15.73h-1.7Z"/><path d="M163.96,50.94h-1.41l6.66-17.2h1.45l-6.7,17.2Z"/><path d="M180.93,50h-9.3v-1.07l1.53-1.62c3.74-3.78,5.63-6.07,5.63-8.63,0-1.68-.73-3.23-3-3.23-1.26,0-2.39.69-3.15,1.3l-.59-1.22c.97-.86,2.39-1.53,4.07-1.53,3.17,0,4.43,2.31,4.43,4.47,0,2.96-2.08,5.48-5.33,8.76l-1.24,1.3v.04h6.95v1.43Z"/><path d="M184.04,33.52c1.49,1.95,3.09,5,3.09,9.68s-1.57,7.66-3.09,9.68h-1.43c1.7-2.33,3-5.42,3-9.7s-1.28-7.29-3-9.66h1.43Z"/><path d="M203.25,41.85c0,5.63-3.15,8.4-6.93,8.4-3.97,0-6.78-3.13-6.78-8.13s2.96-8.38,6.97-8.38,6.74,3.28,6.74,8.1ZM191.37,42.08c0,3.4,1.76,6.72,5.02,6.72s5.04-3.21,5.04-6.87c0-3.21-1.57-6.74-5-6.74s-5.06,3.49-5.06,6.89Z"/><path d="M204.33,51.85v-.65l1.22-1.17c1.6-1.55,2.56-2.61,2.56-3.73,0-.83-.49-1.48-1.57-1.48-.7,0-1.3.36-1.66.63l-.38-.81c.5-.43,1.37-.83,2.34-.83,1.84,0,2.56,1.21,2.56,2.25,0,1.53-1.15,2.75-2.68,4.11l-.67.65v.04h3.49v.99h-5.22Z"/><path d="M228.19,41.94h-12.24v-1.26h12.24v1.26ZM228.19,46.54h-12.24v-1.26h12.24v1.26Z"/><path d="M247.11,50h-1.74l-5.1-8.42c-1.07-1.78-2.1-3.57-2.88-5.33l-.08.02c.15,2.04.17,3.91.17,6.68v7.05h-1.64v-16h1.83l5.17,8.42c1.13,1.91,2.06,3.57,2.79,5.23l.04-.02c-.17-2.23-.21-4.14-.21-6.66v-6.97h1.66v16Z"/><path d="M249.11,51.85v-.65l1.22-1.17c1.6-1.55,2.56-2.61,2.56-3.73,0-.83-.49-1.48-1.57-1.48-.7,0-1.3.36-1.66.63l-.38-.81c.5-.43,1.37-.83,2.34-.83,1.84,0,2.56,1.21,2.56,2.25,0,1.53-1.15,2.75-2.68,4.11l-.67.65v.04h3.49v.99h-5.22Z"/><path d="M269.46,41.85c0,5.63-3.15,8.4-6.93,8.4-3.97,0-6.78-3.13-6.78-8.13s2.96-8.38,6.97-8.38,6.74,3.28,6.74,8.1ZM257.58,42.08c0,3.4,1.76,6.72,5.02,6.72s5.04-3.21,5.04-6.87c0-3.21-1.57-6.74-5-6.74s-5.06,3.49-5.06,6.89Z"/><path d="M275.93,42.92h5.73v1.34h-5.73v-1.34Z"/><path d="M288.59,34.27h9.22v1.11l-6.57,14.61h-1.78l6.57-14.24v-.04h-7.43v-1.45Z"/><path d="M307.78,50h-1.66v-4.41h-6.87v-1.11l6.72-10.2h1.81v9.97h2.14v1.34h-2.14v4.41ZM301.02,44.25h5.1v-5.58c0-.86.04-1.7.08-2.52h-.08c-.48.97-.86,1.64-1.26,2.35l-3.84,5.71v.04Z"/><path d="M321.01,50h-2.14l-3.95-5.65-1.05,1.2v4.45h-1.74v-16.8h1.74v10.69h.04c.27-.4.67-.9.99-1.28l3.42-4.05h2.1l-4.3,4.72,4.89,6.72Z"/><path d="M327.48,44.92c0,4.09-1.95,5.33-4.51,5.33-.71,0-1.55-.15-1.99-.34l.25-1.43c.4.15.97.27,1.62.27,1.85,0,2.9-.82,2.9-3.99v-10.75h1.74v10.9Z"/><path d="M52.1,85.06c-.69,1.24-1.43,2.39-2.2,3.36-.15-.34-.48-1.05-.69-1.36,1.81-2.18,3.55-5.84,4.62-9.47l1.66.52c-.06.15-.21.23-.48.23-.46,1.41-1.01,2.81-1.62,4.16l.48.15c-.04.15-.15.23-.4.27v14.07h-1.36v-11.93ZM63.18,78.57v1.28h-4.43c-.17.99-.36,2.06-.65,3.15h3.3c.17-.04.21-.04.25-.04.19.06.38.13.86.31-.02.1-.1.19-.17.25-.86,6.66-3.19,11.17-6.47,13.52-.19-.34-.65-.88-.94-1.11,1.81-1.24,3.32-3.13,4.41-5.73-.61-.67-1.72-1.6-2.67-2.25l.61-1.07c.88.59,1.95,1.39,2.54,2.02.46-1.39.84-2.92,1.07-4.62h-3.13c-.65,2.12-1.55,4.2-2.86,5.73-.19-.29-.61-.76-.88-.99,1.93-2.31,2.88-6.05,3.34-9.18h-2.08v-1.28h7.89ZM64.4,92.11h-1.3v-12.26l1.7.1c-.02.15-.13.25-.4.29v11.86ZM67.05,77.77l1.74.1c-.02.15-.13.25-.4.27v16.96c0,1.74-.8,1.87-4.14,1.87-.06-.38-.27-1.01-.46-1.41.65.02,1.26.04,1.74.04,1.39,0,1.51,0,1.51-.48v-17.36Z"/><path d="M85.13,95.18h-9.3v-1.07l1.53-1.62c3.74-3.78,5.63-6.07,5.63-8.63,0-1.68-.73-3.23-3-3.23-1.26,0-2.39.69-3.15,1.3l-.59-1.22c.97-.86,2.39-1.53,4.07-1.53,3.17,0,4.43,2.31,4.43,4.47,0,2.96-2.08,5.48-5.33,8.76l-1.24,1.3v.04h6.95v1.43Z"/><path d="M92.52,85.52c0-.78.5-1.34,1.24-1.34s1.24.57,1.24,1.34-.48,1.34-1.24,1.34c-.8,0-1.24-.65-1.24-1.34ZM92.52,94.11c0-.78.5-1.34,1.24-1.34s1.24.57,1.24,1.34c0,.73-.48,1.32-1.24,1.32-.8,0-1.24-.63-1.24-1.32Z"/><path d="M105.37,98.05c-1.49-1.95-3.11-5-3.11-9.64s1.6-7.73,3.11-9.72h1.43c-1.74,2.33-3,5.42-3,9.74s1.3,7.24,3,9.62h-1.43Z"/><path d="M112.7,95.18v-14.09h-.04l-2.58,1.49-.42-1.3,3.25-1.83h1.49v15.73h-1.7Z"/><path d="M120.18,96.12h-1.41l6.66-17.2h1.45l-6.7,17.2Z"/><path d="M137.14,95.18h-9.3v-1.07l1.53-1.62c3.74-3.78,5.63-6.07,5.63-8.63,0-1.68-.73-3.23-3-3.23-1.26,0-2.39.69-3.15,1.3l-.59-1.22c.97-.86,2.39-1.53,4.07-1.53,3.17,0,4.43,2.31,4.43,4.47,0,2.96-2.08,5.48-5.33,8.76l-1.24,1.3v.04h6.95v1.43Z"/><path d="M140.25,78.69c1.49,1.95,3.09,5,3.09,9.68s-1.57,7.66-3.09,9.68h-1.43c1.7-2.33,3-5.42,3-9.7s-1.28-7.29-3-9.66h1.43Z"/><path d="M157.95,95.18h-1.74l-5.1-8.42c-1.07-1.78-2.1-3.57-2.88-5.33l-.08.02c.15,2.04.17,3.91.17,6.68v7.05h-1.64v-16h1.83l5.17,8.42c1.13,1.91,2.06,3.57,2.79,5.23l.04-.02c-.17-2.23-.21-4.14-.21-6.66v-6.97h1.66v16Z"/><path d="M159.96,97.02v-.65l1.22-1.17c1.6-1.55,2.56-2.61,2.56-3.73,0-.83-.49-1.48-1.57-1.48-.7,0-1.3.36-1.66.63l-.38-.81c.5-.43,1.37-.83,2.34-.83,1.84,0,2.56,1.21,2.56,2.25,0,1.53-1.15,2.75-2.68,4.11l-.67.65v.04h3.49v.99h-5.22Z"/><path d="M176.33,82.54h1.34v5.67h5.46v1.26h-5.46v5.71h-1.34v-5.71h-5.46v-1.26h5.46v-5.67Z"/><path d="M193.61,98.05c-1.49-1.95-3.11-5-3.11-9.64s1.6-7.73,3.11-9.72h1.43c-1.74,2.33-3,5.42-3,9.74s1.3,7.24,3,9.62h-1.43Z"/><path d="M200.94,95.18v-14.09h-.04l-2.58,1.49-.42-1.3,3.25-1.83h1.49v15.73h-1.7Z"/><path d="M208.42,96.12h-1.41l6.66-17.2h1.45l-6.7,17.2Z"/><path d="M225.39,95.18h-9.3v-1.07l1.53-1.62c3.74-3.78,5.63-6.07,5.63-8.63,0-1.68-.73-3.23-3-3.23-1.26,0-2.39.69-3.15,1.3l-.59-1.22c.97-.86,2.39-1.53,4.07-1.53,3.17,0,4.43,2.31,4.43,4.47,0,2.96-2.08,5.48-5.33,8.76l-1.24,1.3v.04h6.95v1.43Z"/><path d="M228.49,78.69c1.49,1.95,3.09,5,3.09,9.68s-1.57,7.66-3.09,9.68h-1.43c1.7-2.33,3-5.42,3-9.7s-1.28-7.29-3-9.66h1.43Z"/><path d="M247.71,87.03c0,5.63-3.15,8.4-6.93,8.4-3.97,0-6.78-3.13-6.78-8.13s2.96-8.38,6.97-8.38,6.74,3.28,6.74,8.1ZM235.82,87.26c0,3.4,1.76,6.72,5.02,6.72s5.04-3.21,5.04-6.87c0-3.21-1.57-6.74-5-6.74s-5.06,3.49-5.06,6.89Z"/><path d="M248.79,97.02v-.65l1.22-1.17c1.6-1.55,2.56-2.61,2.56-3.73,0-.83-.49-1.48-1.57-1.48-.7,0-1.3.36-1.66.63l-.38-.81c.5-.43,1.37-.83,2.34-.83,1.84,0,2.56,1.21,2.56,2.25,0,1.53-1.15,2.75-2.68,4.11l-.67.65v.04h3.49v.99h-5.22Z"/><path d="M272.64,87.11h-12.24v-1.26h12.24v1.26ZM272.64,91.71h-12.24v-1.26h12.24v1.26Z"/><path d="M291.56,95.18h-1.74l-5.1-8.42c-1.07-1.78-2.1-3.57-2.88-5.33l-.08.02c.15,2.04.17,3.91.17,6.68v7.05h-1.64v-16h1.83l5.17,8.42c1.13,1.91,2.06,3.57,2.79,5.23l.04-.02c-.17-2.23-.21-4.14-.21-6.66v-6.97h1.66v16Z"/><path d="M307.92,87.03c0,5.63-3.15,8.4-6.93,8.4-3.97,0-6.78-3.13-6.78-8.13s2.96-8.38,6.97-8.38,6.74,3.28,6.74,8.1ZM296.04,87.26c0,3.4,1.76,6.72,5.02,6.72s5.04-3.21,5.04-6.87c0-3.21-1.57-6.74-5-6.74s-5.06,3.49-5.06,6.89Z"/><path d="M314.39,88.1h5.73v1.34h-5.73v-1.34Z"/><path d="M334.67,87.74c-.86,1.09-2.08,1.74-3.61,1.74-2.69,0-4.35-2.1-4.35-4.77,0-2.88,1.89-5.52,4.98-5.52s4.81,2.56,4.81,6.57c0,5.23-2.65,8.86-6.68,9.49-.73.13-1.41.17-1.87.15v-1.45c.44.04.94-.02,1.62-.1,2.65-.38,4.64-2.52,5.17-6.11h-.06ZM328.48,84.61c0,2.12,1.2,3.55,3,3.55,1.7,0,3.25-1.3,3.25-2.56,0-3.02-1.11-5.06-3.19-5.06-1.83,0-3.07,1.72-3.07,4.07Z"/><path d="M338.16,87.37c0-5.5,2.14-8.17,5.08-8.17s4.81,2.81,4.81,7.96c0,5.46-1.91,8.27-5.04,8.27-2.86,0-4.85-2.81-4.85-8.06ZM346.29,87.24c0-3.93-.94-6.63-3.15-6.63-1.87,0-3.19,2.5-3.19,6.63s1.15,6.76,3.13,6.76c2.33,0,3.21-3.02,3.21-6.76Z"/><path d="M359.5,95.18h-2.14l-3.95-5.65-1.05,1.2v4.45h-1.74v-16.8h1.74v10.69h.04c.27-.4.67-.9.99-1.28l3.42-4.05h2.1l-4.3,4.72,4.89,6.72Z"/><path d="M365.96,90.09c0,4.09-1.95,5.33-4.51,5.33-.71,0-1.55-.15-1.99-.34l.25-1.43c.4.15.97.27,1.62.27,1.85,0,2.9-.82,2.9-3.99v-10.75h1.74v10.9Z"/></svg>