<?xml version="1.0" encoding="UTF-8"?><svg id="_レイヤー_1" xmlns="http://www.w3.org/2000/svg" viewBox="0 0 1004.17 221.53"><defs><style>.cls-1{fill:#e6e6e6;}.cls-2{fill:#fff;}.cls-3{fill:none;stroke:#000;stroke-miterlimit:10;}</style></defs><rect class="cls-1" x=".5" y=".5" width="1003.17" height="220.03"/><path d="M1003.17,1v219.03H1V1h1002.17M1004.17,0H0v221.03h1004.17V0h0Z"/><rect class="cls-2" x=".5" y="129.67" width="1003.17" height="91.08"/><path d="M1003.17,130.17v90.08H1v-90.08h1002.17M1004.17,129.17H0v92.08h1004.17v-92.08h0Z"/><path d="M20.8,54.8v-11.67l2.28.14c-.02.22-.19.38-.58.43v11.09h-1.7ZM34.17,42.2c-.02.24-.19.36-.58.41v7.63c0,5.04-1.73,9.65-8.62,12.31-.24-.36-.84-.98-1.25-1.3,6.65-2.47,8.14-6.58,8.14-11.02v-8.18l2.3.14Z"/><path d="M61.19,51.85h-8.38c-.53,4.61-2.09,8.06-6.74,10.7-.36-.38-.94-.84-1.34-1.15,4.32-2.35,5.88-5.33,6.38-9.55h-9.79v-1.58h9.91c.12-1.58.12-3.22.14-5.14-2.45.55-5.62,1.08-8.26,1.37-.12-.46-.29-.94-.5-1.39,8.42-1.01,13.39-2.66,14.88-3.31l1.27,1.42c-.1.05-.19.07-.31.07-.1,0-.17,0-.26-.02-1.34.5-3.48,1.13-5.38,1.58l.79.07c-.02.22-.19.36-.5.41-.02,1.8-.05,3.43-.14,4.94h8.23v1.58Z"/><path d="M74.37,41.41l2.4.14c-.02.24-.31.46-.67.48v3.77h6.43l.36-.14,1.49.67c-.05.1-.17.19-.26.26-1.1,8.4-4.58,13.27-12.19,15.94-.24-.41-.74-1.03-1.13-1.44,7.13-2.45,10.42-6.91,11.23-13.66h-13.56v5.95h-1.66v-7.58h7.56v-4.39Z"/><path d="M108.16,61.81c-.36-.82-.79-1.68-1.27-2.54-4.99.53-13.2,1.03-16.87,1.22-.07.24-.24.43-.46.48l-.65-2.16c.72-.02,1.58-.05,2.52-.1,1.58-4.61,3.86-11.78,5.18-16.59l2.33.62c-.1.22-.34.34-.7.34-1.32,4.42-3.38,10.85-5.04,15.55,3.98-.17,9.67-.58,12.84-.86-1.25-2.06-2.83-4.25-4.27-5.86l1.44-.82c2.52,2.76,5.4,7.32,6.62,9.94l-1.68.77Z"/><path d="M174.06,49.59h-8.69c-.46,6.17-2.02,9.91-7.25,12.91-.34-.38-.91-.84-1.37-1.18,4.97-2.76,6.43-6.05,6.89-11.74h-9.62v-1.66h9.7c.07-1.87.1-4.03.1-6.46l2.35.14c-.02.24-.24.38-.58.43-.02,2.18-.02,4.13-.12,5.88h8.59v1.66Z"/><path d="M194.82,54.29c-2.45-1.32-5.81-2.88-8.42-3.91v12h-1.8v-20.86l2.42.14c-.02.26-.22.43-.62.5v7.01l.36-.5c2.81,1.03,6.53,2.69,9.02,4.01l-.96,1.61Z"/><path d="M205.57,54.8v-11.67l2.28.14c-.02.22-.19.38-.58.43v11.09h-1.7ZM218.94,42.2c-.02.24-.19.36-.58.41v7.63c0,5.04-1.73,9.65-8.62,12.31-.24-.36-.84-.98-1.25-1.3,6.65-2.47,8.14-6.58,8.14-11.02v-8.18l2.3.14Z"/><path d="M235.14,41.41l2.4.14c-.02.24-.31.46-.67.48v3.77h6.43l.36-.14,1.49.67c-.05.1-.17.19-.26.26-1.1,8.4-4.58,13.27-12.19,15.94-.24-.41-.74-1.03-1.13-1.44,7.13-2.45,10.42-6.91,11.23-13.66h-13.56v5.95h-1.66v-7.58h7.56v-4.39Z"/><path d="M268.93,61.81c-.36-.82-.79-1.68-1.27-2.54-4.99.53-13.2,1.03-16.87,1.22-.07.24-.24.43-.46.48l-.65-2.16c.72-.02,1.58-.05,2.52-.1,1.58-4.61,3.86-11.78,5.18-16.59l2.33.62c-.1.22-.34.34-.7.34-1.32,4.42-3.38,10.85-5.04,15.55,3.98-.17,9.67-.58,12.84-.86-1.25-2.06-2.83-4.25-4.27-5.86l1.44-.82c2.52,2.76,5.4,7.32,6.62,9.94l-1.68.77Z"/><path d="M333.81,47.19c-.05.1-.1.22-.22.31-.31,6.91-.98,11.26-1.92,12.96-.96,1.66-2.35,1.73-3.14,1.73-.94,0-2.64-.22-4.3-.55.05-.48,0-1.2-.07-1.7,1.8.41,3.65.6,4.2.6.86,0,1.34-.22,1.85-1.13.72-1.46,1.32-5.5,1.56-10.9h-7.68c-1.2,5.74-3.58,10.49-7.92,13.75-.29-.31-.91-.77-1.37-1.06,4.15-3.12,6.34-7.22,7.49-12.7h-6.62v-1.61h6.96c.29-1.7.43-3.24.55-5.23l2.38.19c-.02.26-.24.41-.6.43-.14,1.75-.26,3.07-.53,4.61h7.78l.38-.14,1.22.43Z"/><path d="M342.35,54.8v-11.67l2.28.14c-.02.22-.19.38-.58.43v11.09h-1.7ZM355.72,42.2c-.02.24-.19.36-.58.41v7.63c0,5.04-1.73,9.65-8.62,12.31-.24-.36-.84-.98-1.25-1.3,6.65-2.47,8.14-6.58,8.14-11.02v-8.18l2.3.14Z"/><path d="M371.92,41.41l2.4.14c-.02.24-.31.46-.67.48v3.77h6.43l.36-.14,1.49.67c-.05.1-.17.19-.26.26-1.1,8.4-4.58,13.27-12.19,15.94-.24-.41-.74-1.03-1.13-1.44,7.13-2.45,10.42-6.91,11.23-13.66h-13.56v5.95h-1.66v-7.58h7.56v-4.39Z"/><path d="M405.71,61.81c-.36-.82-.79-1.68-1.27-2.54-4.99.53-13.2,1.03-16.87,1.22-.07.24-.24.43-.46.48l-.65-2.16c.72-.02,1.58-.05,2.52-.1,1.58-4.61,3.86-11.78,5.18-16.59l2.33.62c-.1.22-.34.34-.7.34-1.32,4.42-3.38,10.85-5.04,15.55,3.98-.17,9.67-.58,12.84-.86-1.25-2.06-2.83-4.25-4.27-5.86l1.44-.82c2.52,2.76,5.4,7.32,6.62,9.94l-1.68.77Z"/><path d="M470.58,47.19c-.05.1-.1.22-.22.31-.31,6.91-.98,11.26-1.92,12.96-.96,1.66-2.35,1.73-3.14,1.73-.94,0-2.64-.22-4.3-.55.05-.48,0-1.2-.07-1.7,1.8.41,3.65.6,4.2.6.86,0,1.34-.22,1.85-1.13.72-1.46,1.32-5.5,1.56-10.9h-7.68c-1.2,5.74-3.58,10.49-7.92,13.75-.29-.31-.91-.77-1.37-1.06,4.15-3.12,6.34-7.22,7.49-12.7h-6.62v-1.61h6.96c.29-1.7.43-3.24.55-5.23l2.38.19c-.02.26-.24.41-.6.43-.14,1.75-.26,3.07-.53,4.61h7.78l.38-.14,1.22.43Z"/><path d="M480.95,45.29c-.02.22-.24.36-.55.41-.14,6.46-.67,12.34-4.37,16.63-.38-.29-.96-.65-1.44-.91,3.58-3.89,4.01-9.89,4.08-16.35l2.28.22ZM487.16,59.12c4.01-1.94,6.6-5.45,7.99-9.65.36.31,1.08.72,1.49.94-1.7,4.85-4.68,8.42-9.79,10.85-.07.19-.24.38-.41.48l-1.25-1.58.26-.36v-17.62l2.23.12c-.02.22-.19.41-.53.46v16.37Z"/><path d="M500.41,48.41c2.16.48,4.85,1.39,6.46,2.16l-.72,1.51c-1.58-.77-4.34-1.73-6.46-2.21l.72-1.46ZM501.85,60.15c7.8-2.62,13.13-6.77,16.32-13.97.36.31,1.1.82,1.46,1.06-3.22,7.13-8.81,11.57-16.15,14.19.05.22-.07.5-.29.6l-1.34-1.87ZM503.05,42.46c2.16.58,4.8,1.54,6.43,2.35l-.79,1.46c-1.7-.86-4.2-1.82-6.36-2.42l.72-1.39Z"/><path d="M532.69,41.41l2.4.14c-.02.24-.31.46-.67.48v3.77h6.43l.36-.14,1.49.67c-.05.1-.17.19-.26.26-1.1,8.4-4.58,13.27-12.19,15.94-.24-.41-.74-1.03-1.13-1.44,7.13-2.45,10.42-6.91,11.23-13.66h-13.56v5.95h-1.66v-7.58h7.56v-4.39Z"/><path d="M566.49,61.81c-.36-.82-.79-1.68-1.27-2.54-4.99.53-13.2,1.03-16.87,1.22-.07.24-.24.43-.46.48l-.65-2.16c.72-.02,1.58-.05,2.52-.1,1.58-4.61,3.86-11.78,5.18-16.59l2.33.62c-.1.22-.34.34-.7.34-1.32,4.42-3.38,10.85-5.04,15.55,3.98-.17,9.67-.58,12.84-.86-1.25-2.06-2.83-4.25-4.27-5.86l1.44-.82c2.52,2.76,5.4,7.32,6.62,9.94l-1.68.77Z"/><path d="M628.86,44c-.05.12-.17.22-.31.26-1.3,3.05-2.83,5.69-4.8,8.26,2.62,2.09,6.55,5.66,8.79,8.14l-1.46,1.27c-2.11-2.45-5.98-6.1-8.42-8.06-2.11,2.57-5.76,6.07-9.24,8.06-.26-.36-.84-.96-1.25-1.3,6.65-3.65,11.91-10.46,14.07-15.67h-11.79v-1.63h12.72l.31-.12,1.39.79Z"/><path d="M653.15,54.29c-2.45-1.32-5.81-2.88-8.42-3.91v12h-1.8v-20.86l2.42.14c-.02.26-.22.43-.62.5v7.01l.36-.5c2.81,1.03,6.53,2.69,9.02,4.01l-.96,1.61Z"/><path d="M678.68,44.81v15.84h-1.73v-1.51h-13.22v1.56h-1.68v-15.89h16.63ZM676.96,57.54v-11.11h-13.22v11.11h13.22Z"/><path d="M686.1,43.47c2.5.79,5.38,2.04,7.15,3.26l-.91,1.51c-1.73-1.22-4.56-2.5-7.01-3.34l.77-1.44ZM686,60.1c8.52-2.64,14.19-7.42,17.07-14.06.5.41,1.06.72,1.56.98-3,6.58-8.86,11.69-16.99,14.4-.02.22-.17.46-.34.55l-1.3-1.87Z"/><path d="M728.29,51.85h-8.38c-.53,4.61-2.09,8.06-6.74,10.7-.36-.38-.94-.84-1.34-1.15,4.32-2.35,5.88-5.33,6.38-9.55h-9.79v-1.58h9.91c.12-1.58.12-3.22.14-5.14-2.45.55-5.62,1.08-8.26,1.37-.12-.46-.29-.94-.5-1.39,8.42-1.01,13.39-2.66,14.88-3.31l1.27,1.42c-.1.05-.19.07-.31.07-.1,0-.17,0-.26-.02-1.34.5-3.48,1.13-5.38,1.58l.79.07c-.02.22-.19.36-.5.41-.02,1.8-.05,3.43-.14,4.94h8.23v1.58Z"/><path d="M741.47,41.41l2.4.14c-.02.24-.31.46-.67.48v3.77h6.43l.36-.14,1.49.67c-.05.1-.17.19-.26.26-1.1,8.4-4.58,13.27-12.19,15.94-.24-.41-.74-1.03-1.13-1.44,7.13-2.45,10.42-6.91,11.23-13.66h-13.56v5.95h-1.66v-7.58h7.56v-4.39Z"/><path d="M775.26,61.81c-.36-.82-.79-1.68-1.27-2.54-4.99.53-13.2,1.03-16.87,1.22-.07.24-.24.43-.46.48l-.65-2.16c.72-.02,1.58-.05,2.52-.1,1.58-4.61,3.86-11.78,5.18-16.59l2.33.62c-.1.22-.34.34-.7.34-1.32,4.42-3.38,10.85-5.04,15.55,3.98-.17,9.67-.58,12.84-.86-1.25-2.06-2.83-4.25-4.27-5.86l1.44-.82c2.52,2.76,5.4,7.32,6.62,9.94l-1.68.77Z"/><path d="M828.18,45.27c-.07.19-.26.34-.62.36-.96,5.76-2.95,11.83-5.76,15.39-.43-.34-1.08-.65-1.61-.86,2.69-3.26,4.8-9.36,5.57-15.39l2.42.5ZM840.25,60.87c-1.13-4.2-3.91-11.02-6.38-15.46l1.56-.74c2.52,4.3,5.33,11.06,6.58,15.51l-1.75.7ZM836.77,41.57c1.1.98,2.28,2.47,2.93,3.55l-.91.67c-.67-1.08-1.92-2.64-2.93-3.55l.91-.67ZM839.94,40.33c1.08,1.01,2.28,2.45,2.95,3.53l-.94.7c-.67-1.08-1.92-2.62-2.93-3.53l.91-.7Z"/><path d="M848.67,54.8v-11.67l2.28.14c-.02.22-.19.38-.58.43v11.09h-1.7ZM862.04,42.2c-.02.24-.19.36-.58.41v7.63c0,5.04-1.73,9.65-8.62,12.31-.24-.36-.84-.98-1.25-1.3,6.65-2.47,8.14-6.58,8.14-11.02v-8.18l2.3.14Z"/><path d="M878.24,41.41l2.4.14c-.02.24-.31.46-.67.48v3.77h6.43l.36-.14,1.49.67c-.05.1-.17.19-.26.26-1.1,8.4-4.58,13.27-12.19,15.94-.24-.41-.74-1.03-1.13-1.44,7.13-2.45,10.42-6.91,11.23-13.66h-13.56v5.95h-1.66v-7.58h7.56v-4.39Z"/><path d="M912.04,61.81c-.36-.82-.79-1.68-1.27-2.54-4.99.53-13.2,1.03-16.87,1.22-.07.24-.24.43-.46.48l-.65-2.16c.72-.02,1.58-.05,2.52-.1,1.58-4.61,3.86-11.78,5.18-16.59l2.33.62c-.1.22-.34.34-.7.34-1.32,4.42-3.38,10.85-5.04,15.55,3.98-.17,9.67-.58,12.84-.86-1.25-2.06-2.83-4.25-4.27-5.86l1.44-.82c2.52,2.76,5.4,7.32,6.62,9.94l-1.68.77Z"/><path d="M962.53,41.53c1.49,1.25,3.24,2.88,4.1,3.96l-.98,1.27c-.79-1.06-2.38-2.64-3.82-3.91-.7,1.3-1.56,2.71-2.64,4.08h6.05v1.42h-2.78v2.76h3.58v1.44h-3.58v6.84c1.25-.22,2.54-.41,3.84-.62l.1,1.37c-3.22.6-6.6,1.18-8.71,1.56-.02.17-.17.29-.34.34l-.55-1.8,4.2-.62v-7.06h-3.94v-1.44h3.94v-2.76h-2.57v-.5c-.24.29-.48.55-.74.82-.24-.36-.77-.84-1.13-1.06,2.09-2.06,3.67-4.75,4.56-6.77l1.94.31c-.02.17-.17.29-.48.29l-.05.1ZM958.71,58.59c-.07-1.22-.5-3.1-1.03-4.56l1.15-.29c.58,1.44,1.01,3.31,1.13,4.51l-1.25.34ZM966.08,54.13c-.07.12-.24.22-.5.22-.29,1.15-.82,2.93-1.27,4.06l-1.06-.41c.41-1.18.96-3.14,1.2-4.44l1.63.58ZM978.23,41.93v19.25c0,1.75-.7,1.99-3.82,1.94-.07-.38-.26-1.1-.48-1.51.58,0,1.1.02,1.51.02,1.2,0,1.32,0,1.32-.46v-17.74h-8.45v19.71h-1.44v-21.22h11.35ZM975.66,46.13v1.42h-6.19v-1.42h6.19ZM975.18,57.22h-4.06v1.56h-1.2v-8.62h5.26v7.06ZM973.98,51.51h-2.86v4.39h2.86v-4.39Z"/><path d="M74.87,103.11h-9.55v-18.29h1.99v16.59h7.56v1.7Z"/><path d="M78.37,87.73c-.77,0-1.3-.6-1.3-1.37s.55-1.34,1.32-1.34,1.3.6,1.3,1.34c0,.84-.55,1.37-1.32,1.37ZM79.38,103.11h-1.99v-13.08h1.99v13.08Z"/><path d="M213.73,103.11h-1.99l-5.83-9.62c-1.22-2.04-2.4-4.08-3.29-6.1l-.1.02c.17,2.33.19,4.46.19,7.63v8.06h-1.87v-18.29h2.09l5.9,9.62c1.3,2.18,2.35,4.08,3.19,5.98l.05-.02c-.19-2.54-.24-4.73-.24-7.61v-7.97h1.9v18.29Z"/><path d="M226.31,99.99c0,1.08.02,2.21.19,3.12h-1.82l-.19-1.68h-.07c-.67,1.03-2.02,1.97-3.86,1.97-2.5,0-3.82-1.82-3.82-3.72,0-3.14,2.74-4.85,7.58-4.82,0-1.1,0-3.6-2.98-3.6-1.13,0-2.3.31-3.19.94l-.48-1.37c1.06-.7,2.52-1.1,3.98-1.1,3.7,0,4.66,2.62,4.66,5.21v5.06ZM224.34,96.32c-2.47,0-5.57.36-5.57,3.12,0,1.68,1.06,2.42,2.26,2.42,1.94,0,3.31-1.49,3.31-3.07v-2.47Z"/><path d="M354.08,103.11h-2.35l-5.98-9.17-1.7,1.99v7.18h-1.99v-18.29h1.99v8.93h.1c.46-.7.96-1.37,1.42-1.97l5.57-6.96h2.45l-6.43,7.78,6.94,10.51Z"/><path d="M507.74,102.56c-.84.41-2.47.82-4.56.82-4.7,0-8.5-3.05-8.5-9.24s3.67-9.58,9.02-9.58c2.18,0,3.46.46,4.03.74l-.53,1.68c-.84-.41-2.02-.74-3.46-.74-4.15,0-6.98,2.78-6.98,7.82s2.59,7.63,6.86,7.63c1.39,0,2.76-.31,3.67-.74l.43,1.61Z"/><path d="M519.14,99.99c0,1.08.02,2.21.19,3.12h-1.82l-.19-1.68h-.07c-.67,1.03-2.02,1.97-3.86,1.97-2.5,0-3.82-1.82-3.82-3.72,0-3.14,2.74-4.85,7.58-4.82,0-1.1,0-3.6-2.98-3.6-1.13,0-2.3.31-3.19.94l-.48-1.37c1.06-.7,2.52-1.1,3.98-1.1,3.7,0,4.66,2.62,4.66,5.21v5.06ZM517.18,96.32c-2.47,0-5.57.36-5.57,3.12,0,1.68,1.06,2.42,2.26,2.42,1.94,0,3.31-1.49,3.31-3.07v-2.47Z"/><path d="M687.79,87.08c-.53-.34-1.68-.84-3.22-.84-2.54,0-3.5,1.56-3.5,2.88,0,1.8,1.1,2.71,3.55,3.74,2.95,1.25,4.46,2.76,4.46,5.38,0,2.9-2.11,5.14-6.05,5.14-1.66,0-3.46-.5-4.37-1.15l.55-1.66c.98.65,2.45,1.13,3.94,1.13,2.45,0,3.89-1.32,3.89-3.29,0-1.8-.98-2.9-3.36-3.86-2.76-1.03-4.63-2.64-4.63-5.16,0-2.78,2.26-4.82,5.59-4.82,1.73,0,3.05.43,3.74.86l-.6,1.66Z"/><path d="M698.18,91.71c-.22-.02-.43-.05-.72-.05-2.16,0-3.26,2.14-3.26,4.34v7.1h-1.99v-9.17c0-1.39-.02-2.66-.1-3.91h1.75l.1,2.52h.07c.58-1.63,1.94-2.81,3.55-2.81.22,0,.38.05.6.07v1.9Z"/><path d="M869.77,93.32c1.73.41,3.77,1.85,3.77,4.61,0,1.63-.62,2.78-1.46,3.6-1.22,1.2-3.19,1.73-5.95,1.73-1.51,0-2.64-.12-3.38-.19v-17.98c1.01-.22,2.45-.38,3.94-.38,2.26,0,3.74.43,4.82,1.34.86.74,1.37,1.8,1.37,3.17,0,1.8-1.22,3.36-3.1,4.03v.07ZM866.87,92.65c2.42,0,3.98-1.39,3.98-3.26v-.02c0-2.16-1.58-3.1-4.08-3.1-1.06,0-1.68.07-2.04.17v6.22h2.14ZM864.73,101.55c.46.1,1.1.12,1.94.12,2.52,0,4.78-.98,4.78-3.74s-2.38-3.74-4.8-3.74h-1.92v7.37Z"/><path d="M885.16,99.99c0,1.08.02,2.21.19,3.12h-1.82l-.19-1.68h-.07c-.67,1.03-2.02,1.97-3.86,1.97-2.5,0-3.82-1.82-3.82-3.72,0-3.14,2.74-4.85,7.58-4.82,0-1.1,0-3.6-2.98-3.6-1.13,0-2.3.31-3.19.94l-.48-1.37c1.06-.7,2.52-1.1,3.98-1.1,3.7,0,4.66,2.62,4.66,5.21v5.06ZM883.19,96.32c-2.47,0-5.57.36-5.57,3.12,0,1.68,1.06,2.42,2.26,2.42,1.94,0,3.31-1.49,3.31-3.07v-2.47Z"/><path d="M962.58,102.56c-.84.41-2.47.82-4.56.82-4.7,0-8.5-3.05-8.5-9.24s3.67-9.58,9.02-9.58c2.18,0,3.46.46,4.03.74l-.53,1.68c-.84-.41-2.02-.74-3.46-.74-4.15,0-6.98,2.78-6.98,7.82s2.59,7.63,6.86,7.63c1.39,0,2.76-.31,3.67-.74l.43,1.61Z"/><path d="M975.66,99.63c0,1.34.07,2.47.12,3.48h-1.8l-.1-2.06h-.07c-.6,1.03-1.94,2.35-4.18,2.35-1.97,0-4.3-1.13-4.3-5.64v-7.73h1.99v7.37c0,2.54.74,4.32,2.93,4.32,1.56,0,3.41-1.25,3.41-3.55v-8.14h1.99v9.6Z"/><line class="cls-3" x1="138.89" y1="0" x2="138.89" y2="221.53"/><line class="cls-3" x1="593.06" y1="0" x2="593.06" y2="221.25"/><line class="cls-3" x1="425" y1="0" x2="425" y2="221.24"/><line class="cls-3" x1="290.28" y1="0" x2="290.28" y2="221.25"/><line class="cls-3" x1="927.78" y1="0" x2="927.78" y2="221.25"/><line class="cls-3" x1="798.61" y1="0" x2="798.61" y2="221.25"/><path d="M18.95,193.95c-.05.13-.18.18-.38.18-.61,1.39-1.84,3.26-3.15,4.45-.25-.22-.68-.54-.95-.7,1.3-1.1,2.45-2.86,2.99-4.32l1.49.4ZM30.99,192.13h-5.19v7.85c0,1.4-.61,1.53-3.51,1.53-.05-.36-.25-.86-.43-1.22.45.02.88.02,1.26.02q1.42,0,1.42-.32v-7.85h-2.92v1.13c0,2.59-.38,5.91-4.03,8.37-.2-.27-.61-.68-.92-.88,3.44-2.25,3.75-5.24,3.75-7.51v-1.12h-5.58v-1.17h7.4v-2.74h-5.6v-1.17h5.6v-2.23l1.58.09c-.02.13-.11.22-.34.25v1.89h6.07v1.17h-6.07v2.74h7.51v1.17ZM28.26,193.57c1.17,1.42,2.52,3.37,3.12,4.61-.27.13-.54.25-1.17.58-.56-1.24-1.85-3.24-3.02-4.7l1.08-.49Z"/><path d="M35.89,198.74c0,1.15.38,1.44,2.41,1.44h7.4c1.78,0,2.07-.5,2.29-2.79.31.22.83.4,1.19.47-.29,2.67-.81,3.46-3.48,3.46h-7.29c-2.86,0-3.75-.49-3.75-2.59v-8.21c-.45.4-.92.79-1.42,1.15-.2-.27-.59-.67-.9-.86,2.56-1.76,4.45-4.18,5.46-6.05l1.6.27c-.04.13-.16.22-.4.23-.14.25-.31.5-.49.77h4.77l.2-.07.95.59c-.05.07-.16.13-.29.14-.41.81-1.03,1.78-1.66,2.61h5.26v6.59h-1.22v-.85h-10.64v3.69ZM35.89,190.42v3.51h4.54v-3.51h-4.54ZM41.05,189.31c.52-.61,1.06-1.44,1.46-2.2h-4.75c-.54.72-1.15,1.46-1.84,2.2h5.13ZM46.53,193.93v-3.51h-4.88v3.51h4.88Z"/><path d="M60.75,193.16c0,1.03-.83,1.85-1.85,1.85s-1.85-.83-1.85-1.85.83-1.85,1.85-1.85,1.85.86,1.85,1.85Z"/><path d="M71.83,192.65c-.72-.59-2.16-1.31-3.33-1.73.32-.52.47-.74.61-.95,1.17.38,2.63,1.04,3.35,1.6l-.63,1.08ZM68.99,200.56c.88-1.39,2.14-3.76,3.06-5.8l.94.72c-.85,1.89-1.96,4.11-2.79,5.47.07.09.09.16.09.25,0,.07-.02.14-.05.2l-1.24-.85ZM70.09,185.02c1.15.52,2.56,1.37,3.24,2.02l-.74.99c-.68-.67-2.05-1.58-3.2-2.14l.7-.86ZM85.23,195.32h-4.65c1.13,1.8,2.99,3.58,4.75,4.41-.29.23-.67.67-.86.99-1.75-.99-3.58-2.93-4.74-4.93v5.69h-1.19v-5.6c-1.28,2.11-3.24,3.96-5.17,4.97-.18-.29-.54-.7-.79-.94,1.94-.86,3.91-2.65,5.11-4.59h-4.25v-1.12h5.1v-2.12l1.53.09c-.02.13-.11.22-.34.25v1.78h5.49v1.12ZM78.33,187.29c-.02.13-.13.22-.34.23-.27,2.57-1.01,4.32-4.18,5.24-.11-.27-.41-.68-.63-.88,2.84-.76,3.49-2.21,3.71-4.72l1.44.13ZM75.04,186.68v2.43h-1.1v-3.49h10.77v3.48h-1.12v-2.41h-8.55ZM80.31,187.05l1.48.11c-.02.11-.11.2-.34.23v3.26c0,.38.07.43.58.43h1.64c.4,0,.47-.14.52-1.22.23.16.67.32,1.01.4-.13,1.48-.45,1.85-1.39,1.85h-1.93c-1.26,0-1.57-.31-1.57-1.46v-3.6Z"/><path d="M90.95,193.95c-.05.13-.18.18-.38.18-.61,1.39-1.84,3.26-3.15,4.45-.25-.22-.68-.54-.95-.7,1.3-1.1,2.45-2.86,2.99-4.32l1.49.4ZM102.99,192.13h-5.19v7.85c0,1.4-.61,1.53-3.51,1.53-.05-.36-.25-.86-.43-1.22.45.02.88.02,1.26.02q1.42,0,1.42-.32v-7.85h-2.92v1.13c0,2.59-.38,5.91-4.03,8.37-.2-.27-.61-.68-.92-.88,3.44-2.25,3.75-5.24,3.75-7.51v-1.12h-5.58v-1.17h7.4v-2.74h-5.6v-1.17h5.6v-2.23l1.58.09c-.02.13-.11.22-.34.25v1.89h6.07v1.17h-6.07v2.74h7.51v1.17ZM100.26,193.57c1.17,1.42,2.52,3.37,3.12,4.61-.27.13-.54.25-1.17.58-.56-1.24-1.85-3.24-3.02-4.7l1.08-.49Z"/><path d="M107.89,198.74c0,1.15.38,1.44,2.41,1.44h7.4c1.78,0,2.07-.5,2.29-2.79.31.22.83.4,1.19.47-.29,2.67-.81,3.46-3.48,3.46h-7.29c-2.86,0-3.75-.49-3.75-2.59v-8.21c-.45.4-.92.79-1.42,1.15-.2-.27-.59-.67-.9-.86,2.56-1.76,4.45-4.18,5.46-6.05l1.6.27c-.04.13-.16.22-.4.23-.14.25-.31.5-.49.77h4.77l.2-.07.95.59c-.05.07-.16.13-.29.14-.41.81-1.03,1.78-1.66,2.61h5.26v6.59h-1.22v-.85h-10.64v3.69ZM107.89,190.42v3.51h4.54v-3.51h-4.54ZM113.05,189.31c.52-.61,1.06-1.44,1.46-2.2h-4.75c-.54.72-1.15,1.46-1.84,2.2h5.13ZM118.53,193.93v-3.51h-4.88v3.51h4.88Z"/><path d="M206.42,189.47h4.63v1.06h-7.6v1.44h5.67v6.21h-12.33v-6.21h5.46v-1.44h-7.47v-1.06h4.61v-1.93h-3.29v-1.06h3.29v-1.69l1.55.11c-.02.13-.11.22-.34.25v1.33h4.61v-1.69l1.58.11c-.02.13-.11.22-.36.25v1.33h3.42v1.06h-3.42v1.93ZM201.43,199.28c-.05.07-.18.11-.36.13-1.22.76-3.51,1.66-5.37,2.18-.18-.25-.56-.67-.83-.9,1.85-.47,4.18-1.35,5.35-2.11l1.21.7ZM197.96,192.91v1.71h4.29v-1.71h-4.29ZM197.96,195.5v1.75h4.29v-1.75h-4.29ZM200.59,187.54v1.93h4.61v-1.93h-4.61ZM207.9,192.91h-4.45v1.71h4.45v-1.71ZM207.9,197.25v-1.75h-4.45v1.75h4.45ZM209.99,201.55c-1.24-.61-3.33-1.46-5.4-2.18.47-.43.65-.61.83-.79,2.03.68,4.27,1.53,5.64,2.14l-1.06.83Z"/><path d="M215.89,198.74c0,1.15.38,1.44,2.41,1.44h7.4c1.78,0,2.07-.5,2.29-2.79.31.22.83.4,1.19.47-.29,2.67-.81,3.46-3.48,3.46h-7.29c-2.86,0-3.75-.49-3.75-2.59v-8.21c-.45.4-.92.79-1.42,1.15-.2-.27-.59-.67-.9-.86,2.56-1.76,4.45-4.18,5.46-6.05l1.6.27c-.04.13-.16.22-.4.23-.14.25-.31.5-.49.77h4.77l.2-.07.95.59c-.05.07-.16.13-.29.14-.41.81-1.03,1.78-1.66,2.61h5.26v6.59h-1.22v-.85h-10.64v3.69ZM215.89,190.42v3.51h4.54v-3.51h-4.54ZM221.05,189.31c.52-.61,1.06-1.44,1.46-2.2h-4.75c-.54.72-1.15,1.46-1.84,2.2h5.13ZM226.53,193.93v-3.51h-4.88v3.51h4.88Z"/><path d="M311.04,190.48c-2.86.43-5.92.86-7.8,1.12,0,.14-.11.23-.22.27l-.49-1.3,1.28-.16v-4.27l1.42.09c-.02.13-.11.22-.34.23v3.8l1.82-.23v-5.22l1.48.09c-.02.13-.11.22-.34.25v1.53h3.02v1.03h-3.02v2.18l3.15-.41.04,1.01ZM314.87,194.08c1.53.97,3.38,2.43,4.32,3.46l-1.1.59c-.27-.32-.65-.68-1.06-1.08-1.85.05-3.75.09-5.56.13v4.36h-1.22v-4.34c-2.63.04-5.02.05-6.79.07-.04.14-.14.23-.27.23l-.45-1.37h5.06c.25-.14.52-.31.77-.47-1.04-.7-2.61-1.58-3.87-2.18l.9-.74c.41.2.86.41,1.31.65.99-.72,2.09-1.69,2.79-2.43l1.28.65c-.05.11-.2.14-.38.14-.7.65-1.78,1.49-2.74,2.16.67.36,1.28.74,1.78,1.06,1.44-.94,2.88-2.02,3.87-2.92l1.31.67c-.07.09-.22.13-.4.13-1.26,1.01-3.06,2.25-4.74,3.28,1.96-.02,4.07-.04,6.16-.07-.65-.52-1.35-1.04-2-1.48l1.01-.5ZM308.35,198.52c-.05.11-.22.16-.4.13-1.13.97-2.83,2.05-4.27,2.74-.22-.23-.63-.59-.9-.77,1.44-.63,3.15-1.66,4.21-2.68l1.35.59ZM317.14,190.39c.68,0,.83-.22.9-1.75.27.2.76.38,1.08.45-.14,1.91-.52,2.39-1.87,2.39h-3.33c-1.71,0-2.14-.34-2.14-1.69v-4.99l1.55.09c-.02.13-.11.22-.36.25v2.2c1.67-.43,3.4-.99,4.43-1.53l1.04.94q-.05.05-.34.05c-1.24.56-3.28,1.12-5.13,1.57v1.4c0,.52.14.61,1.04.61h3.13ZM317.9,201.4c-1.03-.79-2.97-2.07-4.48-2.86l1.04-.61c1.51.81,3.46,2.02,4.5,2.77l-1.06.7Z"/><path d="M323.89,198.74c0,1.15.38,1.44,2.41,1.44h7.4c1.78,0,2.07-.5,2.29-2.79.31.22.83.4,1.19.47-.29,2.67-.81,3.46-3.48,3.46h-7.29c-2.86,0-3.75-.49-3.75-2.59v-8.21c-.45.4-.92.79-1.42,1.15-.2-.27-.59-.67-.9-.86,2.56-1.76,4.45-4.18,5.46-6.05l1.6.27c-.04.13-.16.22-.4.23-.14.25-.31.5-.49.77h4.77l.2-.07.95.59c-.05.07-.16.13-.29.14-.41.81-1.03,1.78-1.66,2.61h5.26v6.59h-1.22v-.85h-10.64v3.69ZM323.89,190.42v3.51h4.54v-3.51h-4.54ZM329.05,189.31c.52-.61,1.06-1.44,1.46-2.2h-4.75c-.54.72-1.15,1.46-1.84,2.2h5.13ZM334.53,193.93v-3.51h-4.88v3.51h4.88Z"/><path d="M348.75,193.16c0,1.03-.83,1.85-1.85,1.85s-1.85-.83-1.85-1.85.83-1.85,1.85-1.85,1.85.86,1.85,1.85Z"/><path d="M360.95,193.95c-.05.13-.18.18-.38.18-.61,1.39-1.84,3.26-3.15,4.45-.25-.22-.68-.54-.95-.7,1.3-1.1,2.45-2.86,2.99-4.32l1.49.4ZM372.99,192.13h-5.19v7.85c0,1.4-.61,1.53-3.51,1.53-.05-.36-.25-.86-.43-1.22.45.02.88.02,1.26.02q1.42,0,1.42-.32v-7.85h-2.92v1.13c0,2.59-.38,5.91-4.03,8.37-.2-.27-.61-.68-.92-.88,3.44-2.25,3.75-5.24,3.75-7.51v-1.12h-5.58v-1.17h7.4v-2.74h-5.6v-1.17h5.6v-2.23l1.58.09c-.02.13-.11.22-.34.25v1.89h6.07v1.17h-6.07v2.74h7.51v1.17ZM370.26,193.57c1.17,1.42,2.52,3.37,3.12,4.61-.27.13-.54.25-1.17.58-.56-1.24-1.85-3.24-3.02-4.7l1.08-.49Z"/><path d="M383.04,190.48c-2.86.43-5.92.86-7.8,1.12,0,.14-.11.23-.22.27l-.49-1.3,1.28-.16v-4.27l1.42.09c-.02.13-.11.22-.34.23v3.8l1.82-.23v-5.22l1.48.09c-.02.13-.11.22-.34.25v1.53h3.02v1.03h-3.02v2.18l3.15-.41.04,1.01ZM386.87,194.08c1.53.97,3.38,2.43,4.32,3.46l-1.1.59c-.27-.32-.65-.68-1.06-1.08-1.85.05-3.75.09-5.56.13v4.36h-1.22v-4.34c-2.63.04-5.02.05-6.79.07-.04.14-.14.23-.27.23l-.45-1.37h5.06c.25-.14.52-.31.77-.47-1.04-.7-2.61-1.58-3.87-2.18l.9-.74c.41.2.86.41,1.31.65.99-.72,2.09-1.69,2.79-2.43l1.28.65c-.05.11-.2.14-.38.14-.7.65-1.78,1.49-2.74,2.16.67.36,1.28.74,1.78,1.06,1.44-.94,2.88-2.02,3.87-2.92l1.31.67c-.07.09-.22.13-.4.13-1.26,1.01-3.06,2.25-4.74,3.28,1.96-.02,4.07-.04,6.16-.07-.65-.52-1.35-1.04-2-1.48l1.01-.5ZM380.35,198.52c-.05.11-.22.16-.4.13-1.13.97-2.83,2.05-4.27,2.74-.22-.23-.63-.59-.9-.77,1.44-.63,3.15-1.66,4.21-2.68l1.35.59ZM389.14,190.39c.68,0,.83-.22.9-1.75.27.2.76.38,1.08.45-.14,1.91-.52,2.39-1.87,2.39h-3.33c-1.71,0-2.14-.34-2.14-1.69v-4.99l1.55.09c-.02.13-.11.22-.36.25v2.2c1.67-.43,3.4-.99,4.43-1.53l1.04.94q-.05.05-.34.05c-1.24.56-3.28,1.12-5.13,1.57v1.4c0,.52.14.61,1.04.61h3.13ZM389.9,201.4c-1.03-.79-2.97-2.07-4.48-2.86l1.04-.61c1.51.81,3.46,2.02,4.5,2.77l-1.06.7Z"/><path d="M395.89,198.74c0,1.15.38,1.44,2.41,1.44h7.4c1.78,0,2.07-.5,2.29-2.79.31.22.83.4,1.19.47-.29,2.67-.81,3.46-3.48,3.46h-7.29c-2.86,0-3.75-.49-3.75-2.59v-8.21c-.45.4-.92.79-1.42,1.15-.2-.27-.59-.67-.9-.86,2.56-1.76,4.45-4.18,5.46-6.05l1.6.27c-.04.13-.16.22-.4.23-.14.25-.31.5-.49.77h4.77l.2-.07.95.59c-.05.07-.16.13-.29.14-.41.81-1.03,1.78-1.66,2.61h5.26v6.59h-1.22v-.85h-10.64v3.69ZM395.89,190.42v3.51h4.54v-3.51h-4.54ZM401.05,189.31c.52-.61,1.06-1.44,1.46-2.2h-4.75c-.54.72-1.15,1.46-1.84,2.2h5.13ZM406.53,193.93v-3.51h-4.88v3.51h4.88Z"/><path d="M490.71,191.47c.54.59,2,2.43,2.34,2.9l-.74.94c-.29-.56-1.01-1.62-1.6-2.45v8.64h-1.13v-8.82c-.65,2.09-1.51,4.14-2.4,5.38-.14-.34-.45-.81-.65-1.08,1.15-1.57,2.34-4.52,2.92-7.09h-2.52v-1.13h2.65v-3.96l1.49.11c-.02.11-.11.2-.36.23v3.62h2.21v1.13h-2.21v1.58ZM502.36,186.35c-.05.05-.13.09-.22.09-.04,0-.09,0-.13-.02-.43.32-1.15.85-1.75,1.22.2.43.41.83.67,1.19.61-.43,1.35-1.06,1.78-1.5l.88.9c-.04.05-.11.07-.2.07-.05,0-.09,0-.14-.02-.45.34-1.21.85-1.84,1.21.65.81,1.4,1.46,2.34,2.05-.27.22-.61.59-.76.94-.99-.68-1.8-1.42-2.48-2.3v.65h-5.04v-.63c-.79,1.08-1.71,1.96-2.7,2.58-.16-.25-.47-.65-.72-.83.95-.54,1.89-1.44,2.67-2.52-.5-.43-1.26-.95-1.87-1.35l.59-.7c.59.34,1.31.81,1.82,1.19.36-.63.67-1.33.9-2.05h-2.95v-.99h3.46l.2-.05.7.32c-.02.07-.09.13-.14.18-.36,1.44-.94,2.74-1.67,3.85h4.52c-.83-1.19-1.44-2.65-1.94-4.61l1.01-.22c.18.68.38,1.3.59,1.87.56-.45,1.19-1.04,1.57-1.44l.86.92ZM492.42,199.91h11.06v1.06h-11.06v-1.06ZM501.93,192.31v4.27h-7.83v-4.27h7.83ZM495.84,196.87c.4.85.77,1.94.88,2.63l-1.08.36c-.09-.7-.43-1.84-.81-2.68l1.01-.31ZM500.78,195.61v-2.32h-5.56v2.32h5.56ZM498.88,199.55c.4-.74.88-1.96,1.12-2.79l1.39.49c-.05.11-.18.16-.38.18-.31.7-.83,1.82-1.22,2.49l-.9-.36Z"/><path d="M508.08,198.74c0,1.15.38,1.44,2.41,1.44h7.4c1.78,0,2.07-.5,2.29-2.79.31.22.83.4,1.19.47-.29,2.67-.81,3.46-3.48,3.46h-7.29c-2.86,0-3.75-.49-3.75-2.59v-8.21c-.45.4-.92.79-1.42,1.15-.2-.27-.59-.67-.9-.86,2.56-1.76,4.45-4.18,5.46-6.05l1.6.27c-.04.13-.16.22-.4.23-.14.25-.31.5-.49.77h4.77l.2-.07.95.59c-.05.07-.16.13-.29.14-.41.81-1.03,1.78-1.66,2.61h5.26v6.59h-1.22v-.85h-10.64v3.69ZM508.08,190.42v3.51h4.54v-3.51h-4.54ZM513.25,189.31c.52-.61,1.06-1.44,1.46-2.2h-4.75c-.54.72-1.15,1.46-1.84,2.2h5.13ZM518.72,193.93v-3.51h-4.88v3.51h4.88Z"/><path d="M625.89,195.52c-.05.14-.18.2-.36.18-.29,1.55-.79,3.28-1.42,4.34-.22-.16-.65-.36-.94-.49.59-1.01,1.06-2.72,1.33-4.38l1.39.34ZM630.63,194.69c-.13-.29-.29-.63-.49-.97l-2.21.11v7.71h-1.15v-7.67c-1.13.05-2.14.09-2.95.13-.04.14-.14.22-.27.23l-.32-1.35h1.19c.47-.5.95-1.08,1.44-1.69-.59-.77-1.62-1.73-2.52-2.43l.59-.79c.16.13.34.25.5.4.76-1.04,1.62-2.5,2.12-3.55l1.33.58c-.05.11-.2.16-.38.14-.59,1.03-1.53,2.43-2.32,3.44.52.47,1.01.95,1.33,1.37.9-1.21,1.76-2.45,2.38-3.49l1.31.63c-.05.09-.2.14-.4.14-1.06,1.55-2.7,3.67-4.16,5.24,1.21-.02,2.56-.04,3.91-.07-.4-.58-.83-1.17-1.26-1.67l.92-.49c.94,1.08,1.96,2.54,2.38,3.51l-.97.56ZM629.77,195.1c.63,1.06,1.26,2.47,1.51,3.38l-1.04.41c-.22-.92-.85-2.38-1.42-3.44l.95-.36ZM635.71,199.68h4.36v1.17h-10.05v-1.17h4.45v-11.88h-3.73v-1.17h8.84v1.17h-3.87v11.88Z"/><path d="M644.72,198.74c0,1.15.38,1.44,2.41,1.44h7.4c1.78,0,2.07-.5,2.29-2.79.31.22.83.4,1.19.47-.29,2.67-.81,3.46-3.47,3.46h-7.29c-2.86,0-3.75-.49-3.75-2.59v-8.21c-.45.4-.92.79-1.42,1.15-.2-.27-.59-.67-.9-.86,2.56-1.76,4.45-4.18,5.46-6.05l1.6.27c-.04.13-.16.22-.4.23-.14.25-.31.5-.49.77h4.77l.2-.07.95.59c-.05.07-.16.13-.29.14-.41.81-1.03,1.78-1.66,2.61h5.26v6.59h-1.22v-.85h-10.64v3.69ZM644.72,190.42v3.51h4.54v-3.51h-4.54ZM649.89,189.31c.52-.61,1.06-1.44,1.46-2.2h-4.75c-.54.72-1.15,1.46-1.84,2.2h5.13ZM655.36,193.93v-3.51h-4.88v3.51h4.88Z"/><path d="M669.58,193.16c0,1.03-.83,1.85-1.85,1.85s-1.85-.83-1.85-1.85.83-1.85,1.85-1.85,1.85.86,1.85,1.85Z"/><path d="M680.67,192.65c-.72-.59-2.16-1.31-3.33-1.73.32-.52.47-.74.61-.95,1.17.38,2.63,1.04,3.35,1.6l-.63,1.08ZM677.82,200.56c.88-1.39,2.14-3.76,3.06-5.8l.94.72c-.85,1.89-1.96,4.11-2.79,5.47.07.09.09.16.09.25,0,.07-.02.14-.05.2l-1.24-.85ZM678.92,185.02c1.15.52,2.56,1.37,3.24,2.02l-.74.99c-.68-.67-2.05-1.58-3.21-2.14l.7-.86ZM694.06,195.32h-4.65c1.13,1.8,2.99,3.58,4.75,4.41-.29.23-.67.67-.86.99-1.75-.99-3.58-2.93-4.74-4.93v5.69h-1.19v-5.6c-1.28,2.11-3.24,3.96-5.17,4.97-.18-.29-.54-.7-.79-.94,1.94-.86,3.91-2.65,5.11-4.59h-4.25v-1.12h5.1v-2.12l1.53.09c-.02.13-.11.22-.34.25v1.78h5.49v1.12ZM687.17,187.29c-.02.13-.13.22-.34.23-.27,2.57-1.01,4.32-4.18,5.24-.11-.27-.41-.68-.63-.88,2.84-.76,3.49-2.21,3.71-4.72l1.44.13ZM683.87,186.68v2.43h-1.1v-3.49h10.77v3.48h-1.12v-2.41h-8.55ZM689.15,187.05l1.48.11c-.02.11-.11.2-.34.23v3.26c0,.38.07.43.58.43h1.64c.4,0,.47-.14.52-1.22.23.16.67.32,1.01.4-.13,1.48-.45,1.85-1.39,1.85h-1.93c-1.26,0-1.57-.31-1.57-1.46v-3.6Z"/><path d="M699.78,193.95c-.05.13-.18.18-.38.18-.61,1.39-1.84,3.26-3.15,4.45-.25-.22-.68-.54-.95-.7,1.3-1.1,2.45-2.86,2.99-4.32l1.49.4ZM711.83,192.13h-5.19v7.85c0,1.4-.61,1.53-3.51,1.53-.05-.36-.25-.86-.43-1.22.45.02.88.02,1.26.02q1.42,0,1.42-.32v-7.85h-2.92v1.13c0,2.59-.38,5.91-4.03,8.37-.2-.27-.61-.68-.92-.88,3.44-2.25,3.75-5.24,3.75-7.51v-1.12h-5.58v-1.17h7.4v-2.74h-5.6v-1.17h5.6v-2.23l1.58.09c-.02.13-.11.22-.34.25v1.89h6.07v1.17h-6.07v2.74h7.51v1.17ZM709.09,193.57c1.17,1.42,2.52,3.37,3.12,4.61-.27.13-.54.25-1.17.58-.56-1.24-1.85-3.24-3.02-4.7l1.08-.49Z"/><path d="M716.72,198.74c0,1.15.38,1.44,2.41,1.44h7.4c1.78,0,2.07-.5,2.29-2.79.31.22.83.4,1.19.47-.29,2.67-.81,3.46-3.47,3.46h-7.29c-2.86,0-3.75-.49-3.75-2.59v-8.21c-.45.4-.92.79-1.42,1.15-.2-.27-.59-.67-.9-.86,2.56-1.76,4.45-4.18,5.46-6.05l1.6.27c-.04.13-.16.22-.4.23-.14.25-.31.5-.49.77h4.77l.2-.07.95.59c-.05.07-.16.13-.29.14-.41.81-1.03,1.78-1.66,2.61h5.26v6.59h-1.22v-.85h-10.64v3.69ZM716.72,190.42v3.51h4.54v-3.51h-4.54ZM721.89,189.31c.52-.61,1.06-1.44,1.46-2.2h-4.75c-.54.72-1.15,1.46-1.84,2.2h5.13ZM727.36,193.93v-3.51h-4.88v3.51h4.88Z"/><path d="M851.26,189.47h4.63v1.06h-7.6v1.44h5.67v6.21h-12.33v-6.21h5.46v-1.44h-7.47v-1.06h4.61v-1.93h-3.29v-1.06h3.29v-1.69l1.55.11c-.02.13-.11.22-.34.25v1.33h4.61v-1.69l1.58.11c-.02.13-.11.22-.36.25v1.33h3.42v1.06h-3.42v1.93ZM846.27,199.28c-.05.07-.18.11-.36.13-1.22.76-3.51,1.66-5.37,2.18-.18-.25-.56-.67-.83-.9,1.85-.47,4.18-1.35,5.35-2.11l1.21.7ZM842.79,192.91v1.71h4.29v-1.71h-4.29ZM842.79,195.5v1.75h4.29v-1.75h-4.29ZM845.42,187.54v1.93h4.61v-1.93h-4.61ZM852.73,192.91h-4.45v1.71h4.45v-1.71ZM852.73,197.25v-1.75h-4.45v1.75h4.45ZM854.82,201.55c-1.24-.61-3.33-1.46-5.4-2.18.47-.43.65-.61.83-.79,2.03.68,4.27,1.53,5.64,2.14l-1.06.83Z"/><path d="M862.43,190.62c.83,1.15,1.69,2.72,2,3.73l-.97.47c-.09-.32-.23-.68-.41-1.08-.54.04-1.08.05-1.6.09v7.71h-1.08v-7.65c-1.01.04-1.91.07-2.63.11-.02.13-.13.2-.25.23l-.32-1.35h1.26c.4-.49.81-1.04,1.24-1.66-.56-.83-1.49-1.89-2.32-2.67l.63-.77c.18.16.38.34.58.54.61-1.04,1.31-2.48,1.71-3.51l1.28.54c-.05.11-.18.16-.38.16-.47,1.01-1.26,2.48-1.95,3.49.41.43.79.88,1.08,1.28.77-1.17,1.49-2.39,2.02-3.42l1.26.59c-.05.09-.2.16-.4.16-.92,1.53-2.36,3.67-3.62,5.24l3.04-.05c-.32-.61-.68-1.24-1.06-1.78l.9-.4ZM859.66,195.52c-.05.11-.16.18-.36.18-.25,1.53-.67,3.26-1.21,4.32-.25-.16-.65-.34-.9-.47.52-1.01.9-2.74,1.13-4.38l1.33.34ZM863.28,198.87c-.16-.94-.65-2.36-1.15-3.44l.94-.31c.52,1.08,1.03,2.47,1.21,3.4l-.99.34ZM863.5,199.39c1.03-.58,2.52-1.55,4-2.5l.36.92c-1.26.92-2.57,1.85-3.46,2.45.02.13-.04.25-.14.32l-.76-1.19ZM869.42,192.13v.25c.49,2.65,1.73,5.74,4.77,7.18-.25.23-.59.68-.76.99-2.07-1.13-3.29-3.04-4.02-4.92v4.56c0,1.33-.63,1.33-2.72,1.33-.05-.31-.2-.76-.36-1.08.77.02,1.46.02,1.67.02s.27-.07.27-.27v-8.07h-4.39v-1.06h7.18v-1.75h-5.8v-1.01h5.8v-1.71h-6.18v-1.03h7.35v5.49h1.89v1.06h-4.72ZM866.43,196.33c-.34-.74-1.13-1.8-1.87-2.58l.86-.56c.76.74,1.57,1.78,1.93,2.5l-.92.63ZM873.97,193.84c-.07.09-.22.13-.38.11-.56.7-1.49,1.71-2.21,2.38l-.74-.59c.7-.7,1.67-1.85,2.21-2.68l1.12.79Z"/><path d="M878.72,198.74c0,1.15.38,1.44,2.41,1.44h7.4c1.78,0,2.07-.5,2.29-2.79.31.22.83.4,1.19.47-.29,2.67-.81,3.46-3.47,3.46h-7.29c-2.86,0-3.75-.49-3.75-2.59v-8.21c-.45.4-.92.79-1.42,1.15-.2-.27-.59-.67-.9-.86,2.56-1.76,4.45-4.18,5.46-6.05l1.6.27c-.04.13-.16.22-.4.23-.14.25-.31.5-.49.77h4.77l.2-.07.95.59c-.05.07-.16.13-.29.14-.41.81-1.03,1.78-1.66,2.61h5.26v6.59h-1.22v-.85h-10.64v3.69ZM878.72,190.42v3.51h4.54v-3.51h-4.54ZM883.89,189.31c.52-.61,1.06-1.44,1.46-2.2h-4.75c-.54.72-1.15,1.46-1.84,2.2h5.13ZM889.36,193.93v-3.51h-4.88v3.51h4.88Z"/><path d="M946.69,190.8h7.51v.99h-16.17v-.99h7.44v-1.33h-5.55v-.95h5.55v-1.3h-6.37v-.97h6.37v-1.48l1.58.11c-.02.13-.13.22-.36.25v1.12h6.5v.97h-6.5v1.3h5.53v.95h-5.53v1.33ZM951.41,192.98v7.26c0,1.33-.67,1.33-3.65,1.33-.07-.29-.25-.72-.41-1.01.65.02,1.28.04,1.75.04.99,0,1.1,0,1.1-.36v-1.67h-8.16v3.01h-1.19v-8.59h10.57ZM950.18,193.93h-8.16v1.39h8.16v-1.39ZM942.03,197.66h8.16v-1.44h-8.16v1.44Z"/><path d="M960.82,190.62c.83,1.15,1.69,2.72,2,3.73l-.97.47c-.09-.32-.23-.68-.41-1.08-.54.04-1.08.05-1.6.09v7.71h-1.08v-7.65c-1.01.04-1.91.07-2.63.11-.02.13-.13.2-.25.23l-.32-1.35h1.26c.4-.49.81-1.04,1.24-1.66-.56-.83-1.49-1.89-2.32-2.67l.63-.77c.18.16.38.34.58.54.61-1.04,1.31-2.48,1.71-3.51l1.28.54c-.05.11-.18.16-.38.16-.47,1.01-1.26,2.48-1.95,3.49.41.43.79.88,1.08,1.28.77-1.17,1.49-2.39,2.02-3.42l1.26.59c-.05.09-.2.16-.4.16-.92,1.53-2.36,3.67-3.62,5.24l3.04-.05c-.32-.61-.68-1.24-1.06-1.78l.9-.4ZM958.05,195.52c-.05.11-.16.18-.36.18-.25,1.53-.67,3.26-1.21,4.32-.25-.16-.65-.34-.9-.47.52-1.01.9-2.74,1.13-4.38l1.33.34ZM961.67,198.87c-.16-.94-.65-2.36-1.15-3.44l.94-.31c.52,1.08,1.03,2.47,1.21,3.4l-.99.34ZM961.88,199.39c1.03-.58,2.52-1.55,4-2.5l.36.92c-1.26.92-2.57,1.85-3.46,2.45.02.13-.04.25-.14.32l-.76-1.19ZM967.81,192.13v.25c.49,2.65,1.73,5.74,4.77,7.18-.25.23-.59.68-.76.99-2.07-1.13-3.29-3.04-4.02-4.92v4.56c0,1.33-.63,1.33-2.72,1.33-.05-.31-.2-.76-.36-1.08.77.02,1.46.02,1.67.02s.27-.07.27-.27v-8.07h-4.39v-1.06h7.18v-1.75h-5.8v-1.01h5.8v-1.71h-6.18v-1.03h7.35v5.49h1.89v1.06h-4.72ZM964.82,196.33c-.34-.74-1.13-1.8-1.87-2.58l.86-.56c.76.74,1.57,1.78,1.93,2.5l-.92.63ZM972.36,193.84c-.07.09-.22.13-.38.11-.56.7-1.49,1.71-2.21,2.38l-.74-.59c.7-.7,1.67-1.85,2.21-2.68l1.12.79Z"/><path d="M977.11,198.74c0,1.15.38,1.44,2.41,1.44h7.4c1.78,0,2.07-.5,2.29-2.79.31.22.83.4,1.19.47-.29,2.67-.81,3.46-3.47,3.46h-7.29c-2.86,0-3.75-.49-3.75-2.59v-8.21c-.45.4-.92.79-1.42,1.15-.2-.27-.59-.67-.9-.86,2.56-1.76,4.45-4.18,5.46-6.05l1.6.27c-.04.13-.16.22-.4.23-.14.25-.31.5-.49.77h4.77l.2-.07.95.59c-.05.07-.16.13-.29.14-.41.81-1.03,1.78-1.66,2.61h5.26v6.59h-1.22v-.85h-10.64v3.69ZM977.11,190.42v3.51h4.54v-3.51h-4.54ZM982.28,189.31c.52-.61,1.06-1.44,1.46-2.2h-4.75c-.54.72-1.15,1.46-1.84,2.2h5.13ZM987.75,193.93v-3.51h-4.88v3.51h4.88Z"/></svg>