<?xml version="1.0" encoding="UTF-8"?><svg id="_レイヤー_2" xmlns="http://www.w3.org/2000/svg" viewBox="0 0 1560 560"><g id="_レイヤー_1-2"><rect width="1560" height="560" rx="18" ry="18" fill="#c8dbc3"/><path d="M81.03,220.42c-18.51,0-33.48-14.98-33.48-33.48s14.98-33.48,33.48-33.48,33.48,14.98,33.48,33.48-15.12,33.48-33.48,33.48ZM49.78,186.94c0,17.28,13.97,31.25,31.25,31.25s31.25-13.97,31.25-31.25-13.97-31.25-31.25-31.25-31.25,14.11-31.25,31.25ZM79.45,172.75h-.07l-6.19,3.31-.94-3.74,7.49-3.89h4.46v37.01h-4.75v-32.69Z"/><path d="M185.65,158.71v4.9h-9.15v49.54c0,3.67-.94,5.4-3.6,6.26-2.81.86-7.85.86-14.98.86-.36-1.44-1.37-3.82-2.09-5.26,3.31.14,6.55.22,9.14.22,6.26,0,6.55,0,6.55-2.16v-49.47h-50.84v-4.9h64.95ZM157.93,201.84h-25.56v5.98h-4.75v-32.98h30.31v27ZM153.1,179.45h-20.74v17.79h20.74v-17.79Z"/><path d="M205.73,178.73c0,5.62-.14,11.23-.94,16.71,2.02,2.52,7.2,10.01,8.42,11.88l-3.31,3.38c-1.22-2.3-3.82-6.55-6.05-9.94-1.51,7.13-4.39,13.83-9.43,19.8-.72-1.01-2.23-2.52-3.24-3.17,9.22-11.09,10.23-25.06,10.23-38.67v-25.2l5.76.36c-.07.43-.5.79-1.44.94v23.91ZM191.26,186c2.74-3.89,3.96-11.02,4.1-17.57l3.38.5c-.14,6.91-1.22,14.62-4.39,19.08l-3.1-2.02ZM215.81,166.49c-.14.43-.65.65-1.44.65-1.3,4.25-3.74,10.73-5.69,14.69l-2.81-1.3c1.8-4.18,4.03-11.09,5.18-15.84l4.75,1.8ZM222.73,204.29c-1.73,5.9-4.39,12.31-9.14,16.2l-3.6-2.45c4.46-3.46,7.42-9.5,8.93-15.05l3.82,1.3ZM258.15,173.47h-10.15c1.73,10.51,5.26,20.31,11.09,24.77-1.01.86-2.52,2.45-3.17,3.6-4.61-3.96-7.7-10.73-9.72-18.65-1.73,6.7-5.4,13.11-13.03,18.51-.65-.94-2.02-2.45-3.02-3.1,10.15-7.2,12.67-16.27,13.18-25.13h-8.14v-.58c-3.38,13.97-9.72,23.62-17.93,28.95-.58-1.08-1.73-2.52-2.74-3.38,4.1-2.45,7.78-6.34,10.8-11.45-1.8-1.8-4.75-4.03-7.27-5.54l2.16-2.59c2.3,1.3,5.04,3.24,6.84,4.82.94-1.94,1.8-3.96,2.52-6.12-1.87-1.51-4.82-3.31-7.27-4.54l1.8-2.95c2.23,1.01,4.75,2.38,6.62,3.74.72-2.66,1.37-5.47,1.8-8.42h-8.28c-2.3,6.98-5.47,13.32-9.22,17.79-.72-.79-2.23-2.02-3.17-2.66,5.18-5.9,9.14-16.35,11.3-27.15l5.33,1.22c-.14.58-.65.86-1.51.86-.43,2.02-.94,4.03-1.51,5.98h8.64l.79-.14,2.52.79c-.07.43-.29.65-.43.86-.29,2.16-.65,4.32-1.01,6.34h7.49v-15.7l5.54.36c-.07.5-.43.86-1.37.94v14.4h10.51v4.18ZM228.42,219.41c.07-3.74-.65-9.58-1.66-14.11l3.96-.58c1.22,4.46,1.94,10.3,1.94,14.04l-4.25.65ZM241.3,219.56c-.58-3.89-2.59-9.72-4.75-14.19l3.82-1.15c2.3,4.39,4.39,10.3,5.11,14.11l-4.18,1.22ZM255.06,220.57c-1.44-4.25-5.11-11.09-8.57-16.13l3.82-1.51c3.6,4.97,7.34,11.67,8.86,15.91l-4.1,1.73ZM252.83,155.26c2.16,3.38,4.32,7.78,5.18,10.66l-3.53,1.51c-.79-3.02-2.88-7.49-4.9-10.87l3.24-1.3Z"/><path d="M291.78,193.49l-10.15,2.23v24.7h-4.75v-23.62c-3.96.86-7.56,1.66-10.44,2.23-.07.5-.43.94-.94,1.08l-1.87-5.54c3.6-.58,8.21-1.44,13.25-2.45v-18.58h-7.13c-.72,4.32-1.58,8.28-2.66,11.3-.94-.65-2.52-1.51-3.6-2.02,2.02-5.83,3.1-15.91,3.82-25.35l5.62,1.22c-.14.5-.65.72-1.51.79-.22,3.02-.58,6.26-.94,9.36h6.41v-15.27l6.12.36c-.07.5-.43.86-1.37,1.01v13.9h9.15v4.68h-9.15v17.71l9.72-1.94.43,4.18ZM326.12,167.71l2.59.22c0,.43-.07,1.15-.14,1.66-1.37,33.7-2.59,44.79-5.33,48.17-1.37,1.94-2.88,2.74-7.63,2.74-1.58,0-3.38-.07-5.18-.14-.07-1.44-.58-3.53-1.37-4.82,3.24.22,6.12.29,7.42.29,1.22,0,1.87-.22,2.59-1.22,2.09-2.45,3.53-12.96,4.68-42.27h-5.62c-2.09,17.43-7.06,37.95-14.76,48.17-1.01-.79-2.81-1.87-4.18-2.38,7.92-9.5,12.75-28.8,14.91-45.8h-6.19c-2.74,14.76-8.28,32.26-15.48,41.19-1.08-.86-2.88-1.8-4.32-2.38,7.27-8.21,12.82-24.41,15.55-38.81h-5.76c-1.87,6.12-4.25,11.67-7.06,15.84-.79-.79-2.59-2.02-3.67-2.74,4.97-7.13,8.42-19.59,10.3-32.11l5.98,1.3c-.14.5-.65.79-1.58.79-.72,4.18-1.58,8.35-2.66,12.38h25.78l1.15-.07Z"/><path d="M513.03,220.42c-18.51,0-33.48-14.98-33.48-33.48s14.98-33.48,33.48-33.48,33.48,14.98,33.48,33.48-15.12,33.48-33.48,33.48ZM481.78,186.94c0,17.28,13.97,31.25,31.25,31.25s31.25-13.97,31.25-31.25-13.97-31.25-31.25-31.25-31.25,14.11-31.25,31.25ZM500.43,205.08v-3.02l4.03-3.6c11.88-10.44,15.27-13.97,15.34-18.79,0-3.38-1.87-7.42-8.21-7.42-3.46,0-6.62,1.73-8.71,3.38l-1.51-3.38c3.1-2.59,7.06-4.03,11.23-4.03,9.07,0,12.02,6.34,12.02,10.58,0,7.06-4.97,11.52-14.83,20.02l-2.59,2.09v.14h18.43v4.03h-25.2Z"/><path d="M610.88,191.69l2.88,1.37c-.07.36-.43.58-.58.72-2.23,5.98-5.69,11.02-10.01,15.12,4.54,3.53,10.08,6.19,16.27,7.7-1.01.94-2.38,2.66-3.02,3.89-6.26-1.8-11.95-4.82-16.63-8.71-5.04,3.89-10.8,6.77-16.78,8.64-.43-.86-1.37-2.23-2.16-3.17v1.3h-4.03v-3.6h-18.87v4.54h-3.89v-47.38h7.42v-11.09h-9.94v-4.18h31.75v4.18h-10.3v11.09h7.85v14.33c6.98-2.81,9.43-7.71,10.23-14.11l5.47.65c-.07.43-.5.72-1.3.86-1.08,6.62-3.6,12.46-11.74,15.99-.5-1.08-1.73-2.59-2.66-3.31v16.35c5.69-4.03,11.31-10.87,14.26-18.29l5.18,1.66c-.14.43-.65.65-1.44.65-.79,1.73-1.66,3.38-2.66,5.04h13.9l.79-.22ZM565.16,176.35v4.46c0,4.46-.86,10.94-4.75,15.48-.5-.58-1.73-1.44-2.45-1.8v4.68h18.87v-6.62c-.36.07-.79.14-1.3.14h-2.66c-2.74,0-3.53-.72-3.53-4.1v-12.24h-4.18ZM562.13,176.35h-4.18v18c3.53-4.25,4.18-9.5,4.18-13.68v-4.32ZM557.96,210.92h18.87v-7.78h-18.87v7.78ZM565.16,161.02v11.09h4.18v-11.09h-4.18ZM574.95,189.6c.86,0,1.08-.29,1.15-2.74.22.14.43.36.72.5v-11.02h-4.46v12.17c0,.94.14,1.08.79,1.08h1.8ZM580.86,216.75c5.62-1.66,11.16-4.25,15.84-7.78-2.59-2.66-4.75-5.62-6.55-8.93-2.09,2.23-4.25,4.25-6.48,5.83-.65-.72-1.87-1.94-2.81-2.74v13.61ZM581.5,167.86l6.34-.22c2.52-4.18,5.47-10.08,7.06-14.26l5.54,1.94c-.14.5-.72.72-1.51.72-1.51,3.31-3.89,7.7-6.19,11.38,5.11-.22,10.8-.43,16.49-.72-1.87-1.87-3.89-3.67-5.76-5.18l3.31-2.23c4.46,3.53,9.65,8.5,12.02,12.02l-3.53,2.52c-.65-1.01-1.58-2.23-2.66-3.46-10.58.72-21.46,1.44-28.44,1.8,0,.5-.5.86-.94.94l-1.73-5.26ZM592.95,196.66c1.73,3.53,4.1,6.7,7.06,9.5,3.17-2.95,5.83-6.48,7.7-10.44h-14.04l-.72.94ZM602.31,171.96l5.62.36c-.07.5-.43.86-1.37.94v7.78c0,1.37.22,1.51,1.73,1.51h4.97c1.3,0,1.58-.5,1.73-5.11.86.72,2.66,1.3,3.82,1.58-.43,5.98-1.66,7.49-4.9,7.49h-6.19c-4.39,0-5.4-1.15-5.4-5.4v-9.15Z"/><path d="M659.34,177.43h30.82v3.89h-34.85l.72.36c-.29.43-.79.58-1.58.5-2.74,2.52-6.98,6.05-10.58,8.64,2.38,1.37,4.61,2.81,6.34,4.1,5.62-3.89,11.3-8.35,15.19-11.95l5.04,2.95c-.29.36-.86.5-1.58.5-4.97,4.03-12.17,9.14-18.79,13.18,8.06-.07,16.92-.22,25.63-.36-2.95-1.87-6.05-3.6-8.93-5.04,2.52-2.02,2.88-2.38,3.17-2.74,6.62,3.1,14.69,7.99,18.79,11.81l-3.38,3.1c-1.15-1.15-2.74-2.45-4.54-3.74-7.13.29-14.4.5-21.46.65v17.14h-4.82v-16.99c-10.15.29-19.44.43-26.35.58-.14.58-.58.86-1.08.94l-1.73-5.11c4.68,0,10.73-.07,17.5-.14,1.15-.65,2.3-1.37,3.53-2.16-3.74-2.81-9.36-6.05-14.11-8.35l3.1-2.74c1.51.72,3.17,1.51,4.82,2.38,2.88-2.09,6.05-4.97,8.57-7.49h-24.7v-3.89h30.46v-5.04h-21.39v-3.82h21.39v-4.97h-26.28v-3.89h26.28v-6.34l6.26.43c-.07.5-.5.86-1.44,1.01v4.9h27.15v3.89h-27.15v4.97h22.03v3.82h-22.03v5.04ZM647.45,207.6c-.29.43-.86.65-1.66.5-4.82,4.03-12.02,8.28-18.29,11.02-.79-.86-2.45-2.45-3.46-3.1,6.26-2.52,13.54-6.55,18.07-10.73l5.33,2.3ZM685.19,218.91c-3.89-3.38-11.74-7.99-18.15-10.94l3.6-2.66c6.26,2.74,14.26,7.27,18.36,10.66l-3.82,2.95Z"/><path d="M705.34,178.95c-2.74,4.54-5.76,8.57-8.78,12.02-.5-1.15-1.73-3.38-2.52-4.54,6.91-7.49,13.83-19.95,18-32.4l5.76,1.94c-.29.5-.79.72-1.66.65-1.87,5.04-4.1,10.08-6.62,14.91l1.94.5c-.14.43-.5.79-1.44.86v47.74h-4.68v-41.69ZM734.43,204.36c-.22.43-.79.65-1.58.58-3.74,5.76-9.72,11.88-15.34,15.7-.86-.94-2.59-2.38-3.75-3.17,5.4-3.46,11.31-9.36,14.76-15.27l5.9,2.16ZM750.92,193.92h11.95v4.68h-48.96v-4.68h11.74v-19.37h-9.5v-4.54h9.5v-15.19l6.19.36c-.07.5-.5.86-1.44,1.01v13.83h15.7v-15.19l6.19.36c-.07.5-.43.86-1.37,1.01v13.83h10.8v4.54h-10.8v19.37ZM730.4,174.55v19.37h15.7v-19.37h-15.7ZM757.4,220.64c-2.59-4.46-8.57-11.38-13.68-16.27l4.18-2.23c5.11,4.75,11.16,11.52,13.97,15.91l-4.46,2.59Z"/><path d="M777.27,196.3c-.14.5-.58.72-1.44.72-1.01,6.12-2.81,13.03-5.04,17.28-.94-.58-2.52-1.37-3.6-1.8,2.16-4.1,3.82-10.94,4.82-17.5l5.26,1.3ZM790.16,185.35c-1.3-2.3-2.88-4.61-4.39-6.55l3.6-1.73c3.31,4.18,6.77,9.79,8.06,13.46l-3.82,2.02c-.36-1.01-.86-2.23-1.51-3.53l-7.7.43v30.96h-4.39v-30.82c-3.89.22-7.42.36-10.23.43-.14.58-.58.86-1.08.94l-1.22-5.33h5.18c1.58-2.02,3.24-4.32,4.97-6.77-2.3-3.31-6.48-7.56-10.15-10.58l2.45-3.31,2.88,2.45c2.38-4.18,5.11-9.86,6.7-13.9l5.18,2.23c-.22.43-.72.58-1.51.58-1.87,4.03-4.9,9.79-7.56,13.75,1.8,1.73,3.38,3.46,4.54,4.97,3.02-4.61,5.9-9.43,7.92-13.47l5.11,2.38c-.29.36-.79.58-1.58.58-3.67,6.19-9.36,14.76-14.4,21.03l12.96-.22ZM792.1,210.05c-.65-3.89-2.66-9.72-4.68-14.19l3.75-1.22c2.16,4.39,4.18,10.23,4.9,13.97l-3.96,1.44ZM818.1,153.89c-.07.5-.5.79-1.08,1.01,4.25,7.7,11.95,17.93,18.43,23.69-1.01,1.22-2.23,3.02-3.02,4.54-6.7-6.48-14.11-16.49-18.15-24.05-3.53,7.63-10.3,17.5-17.64,24.27-.65-1.3-1.94-3.1-2.88-4.1,7.34-6.48,14.69-17.28,18.07-25.63l6.26.29ZM799.3,220.42v-28.73h30.82v28.44h-4.68v-2.81h-21.6v3.1h-4.54ZM802.76,178.3h23.47v4.46h-23.47v-4.46ZM825.44,196.16h-21.6v16.78h21.6v-16.78Z"/><path d="M842.14,173.83c4.46,1.87,9.87,5.04,12.53,7.49l-2.88,3.89c-2.52-2.52-7.85-5.76-12.31-7.85l2.66-3.53ZM841.06,216.61c3.31-5.69,7.99-15.41,11.3-23.62l3.89,2.74c-3.1,7.63-7.27,16.63-10.3,22.18.29.43.43.79.43,1.08s-.07.5-.22.72l-5.11-3.1ZM855.17,166.13c-2.52-2.59-7.78-6.19-12.17-8.42l2.81-3.46c4.39,2.09,9.72,5.4,12.31,8.06l-2.95,3.82ZM902.12,194.93h-13.68v20.23c0,4.97-2.02,5.33-12.24,5.18-.22-1.22-.86-2.95-1.44-4.18,3.67.07,6.91.07,7.85.07.94-.07,1.22-.36,1.22-1.15v-20.16h-12.53v-24.84h11.09c.72-2.59,1.44-6.05,1.87-8.64h-17.64v15.63c0,12.67-1.15,30.75-9.79,42.99-.86-.86-2.95-2.09-4.03-2.59,8.35-11.81,9.14-28.37,9.14-40.4v-20.09h44.21v4.46h-18.36l2.81.72c-.22.5-.72.72-1.58.79-.43,1.94-1.22,4.75-2.02,7.13h15.12v24.84ZM879.08,200.76c-.22.5-.79.72-1.51.65-2.66,5.33-6.84,11.23-10.8,14.98-.86-.79-2.45-2.02-3.46-2.66,3.89-3.38,7.92-9.14,10.37-14.69l5.4,1.73ZM875.69,173.98v6.55h21.82v-6.55h-21.82ZM875.69,184.35v6.62h21.82v-6.62h-21.82ZM902.84,215.96c-1.66-4.1-5.83-10.51-9.58-15.19l3.96-1.94c3.82,4.54,8.14,10.73,9.94,14.83l-4.32,2.3Z"/><path d="M1228.13,220.42c-18.51,0-33.48-14.98-33.48-33.48s14.98-33.48,33.48-33.48,33.48,14.98,33.48,33.48-15.12,33.48-33.48,33.48ZM1196.88,186.94c0,17.28,13.97,31.25,31.25,31.25s31.25-13.97,31.25-31.25-13.97-31.25-31.25-31.25-31.25,14.11-31.25,31.25ZM1217.12,199.18c1.58,1.01,5.26,2.52,9,2.52,7.7,0,9.22-4.82,9.22-6.91,0-5.9-6.19-7.34-10.8-7.34h-3.02v-3.74h3.17c4.32,0,9.14-1.73,9.14-5.98,0-2.52-1.66-5.47-7.13-5.47-3.17,0-6.34,1.22-8.14,2.52l-1.3-3.53c2.09-1.51,6.19-3.02,10.3-3.02,8.21,0,11.23,4.61,11.23,8.71,0,3.82-2.52,6.91-7.13,8.42v.14c5.11,1.01,8.71,4.68,8.71,9.29,0,5.26-4.46,10.87-14.33,10.87-4.68,0-8.5-1.51-10.22-2.74l1.3-3.74Z"/><path d="M1281.63,204.8c-2.23,5.9-6.05,12.17-10.58,15.77l-4.39-2.3c4.39-3.17,8.28-9,10.44-14.76l4.54,1.3ZM1324.47,175.27v23.76h-48.6v-23.76h21.24v-21.82l6.34.36c-.07.5-.5.86-1.51,1.01v6.84h28.01v4.61h-28.01v9h22.54ZM1319.57,194.5v-14.69h-39.03v14.69h39.03ZM1290.7,219.63c0-3.6-.65-9.65-1.58-14.33l4.61-.36c1.08,4.68,1.8,10.58,1.87,14.04l-4.9.65ZM1308.99,219.56c-.79-3.6-2.95-9.65-5.18-14.11l4.46-1.01c2.23,4.46,4.61,10.3,5.4,13.97l-4.68,1.15ZM1329.58,220.35c-2.09-4.32-6.99-10.8-11.38-15.55l4.32-1.94c4.39,4.61,9.43,10.95,11.59,15.27l-4.54,2.23Z"/><path d="M1369.18,154.39l6.84.5c-.07.65-.72,1.15-1.73,1.37v22.11c0,7.85,4.97,28.59,30.82,37.66-1.08,1.08-2.52,3.17-3.24,4.54-21.89-8.28-28.66-25.49-30.03-32.55h-.07c-1.3,7.13-7.71,23.76-29.09,32.55-.65-1.08-2.23-3.02-3.31-4.1,25.13-9.5,29.81-30.1,29.81-38.09v-23.98ZM1340.95,189.03c5.98-4.46,8.57-12.53,9.72-20.67l4.75,1.08c-1.3,8.57-3.82,17.5-10.3,22.47l-4.18-2.88ZM1402.74,170.95c-.22.43-.86.65-1.58.65-2.88,5.76-7.63,14.11-11.38,19.3,0-.07-3.96-2.09-3.96-2.09,3.67-5.33,8.35-14.19,10.94-20.59l5.98,2.74Z"/><path d="M1413.24,173.83c4.46,1.87,9.87,5.04,12.53,7.49l-2.88,3.89c-2.52-2.52-7.85-5.76-12.31-7.85l2.66-3.53ZM1412.16,216.61c3.31-5.69,7.99-15.41,11.3-23.62l3.89,2.74c-3.1,7.63-7.27,16.63-10.3,22.18.29.43.43.79.43,1.08s-.07.5-.22.72l-5.11-3.1ZM1426.28,166.13c-2.52-2.59-7.78-6.19-12.17-8.42l2.81-3.46c4.39,2.09,9.72,5.4,12.31,8.06l-2.95,3.82ZM1473.22,194.93h-13.68v20.23c0,4.97-2.02,5.33-12.24,5.18-.22-1.22-.86-2.95-1.44-4.18,3.67.07,6.91.07,7.85.07.94-.07,1.22-.36,1.22-1.15v-20.16h-12.53v-24.84h11.09c.72-2.59,1.44-6.05,1.87-8.64h-17.64v15.63c0,12.67-1.15,30.75-9.79,42.99-.86-.86-2.95-2.09-4.03-2.59,8.35-11.81,9.14-28.37,9.14-40.4v-20.09h44.21v4.46h-18.36l2.81.72c-.22.5-.72.72-1.58.79-.43,1.94-1.22,4.75-2.02,7.13h15.12v24.84ZM1450.18,200.76c-.22.5-.79.72-1.51.65-2.66,5.33-6.84,11.23-10.8,14.98-.86-.79-2.45-2.02-3.46-2.66,3.89-3.38,7.92-9.14,10.37-14.69l5.4,1.73ZM1446.8,173.98v6.55h21.82v-6.55h-21.82ZM1446.8,184.35v6.62h21.82v-6.62h-21.82ZM1473.94,215.96c-1.66-4.1-5.83-10.51-9.58-15.19l3.96-1.94c3.82,4.54,8.14,10.73,9.94,14.83l-4.32,2.3Z"/><path d="M430.76,300.36c-7.85,6.55-14.26,18.58-14.26,33.12s6.62,26.79,14.26,33.12v.36h-4.32c-7.27-6.55-13.75-18.65-13.75-33.48s6.48-26.93,13.75-33.48h4.32v.36Z"/><path d="M463.09,315.55c-.14.5-.65.86-1.51.94-1.94,10.44-5.9,18.15-22.18,22.11-.5-1.22-1.73-3.1-2.66-4.03,14.83-3.24,18.65-9.72,20.02-19.66l6.34.65ZM471.59,345.15v15.05h29.88v4.54h-64.3v-4.54h29.45v-15.05h-21.67v-4.46h49.18v4.46h-22.54ZM443.65,313.25v9.86h-4.82v-14.33h27.79v-8.78l6.41.43c-.07.5-.5.86-1.44,1.01v7.34h28.08v14.33h-4.97v-9.86h-51.05ZM474.97,314.33l6.19.36c-.07.5-.43.86-1.44,1.01v13.18c0,1.73.5,2.09,3.67,2.09h10.87c2.3,0,2.74-.65,2.95-4.9,1.01.72,2.95,1.37,4.32,1.66-.58,5.98-2.02,7.49-6.7,7.49h-11.88c-6.41,0-7.99-1.3-7.99-6.26v-14.62Z"/><path d="M572.39,312.17h-48.39c-3.31,6.55-7.49,12.38-12.02,16.49-.94-.86-2.81-2.23-4.03-2.95,6.7-5.62,12.39-15.41,15.63-25.78l6.12,1.66c-.14.5-.72.79-1.58.79-.65,1.87-1.37,3.74-2.09,5.54h46.37v4.25ZM520.26,337.52c4.61,2.52,9.58,5.62,14.33,8.86,3.46-3.67,6.48-7.71,8.86-11.95l5.62,2.16c-.22.58-1.01.72-1.73.65-2.45,4.25-5.47,8.21-8.93,11.88,5.47,3.96,10.3,7.99,13.46,11.45l-3.89,3.67c-3.02-3.46-7.7-7.63-13.03-11.67-6.41,6.05-13.97,11.09-21.82,14.83-.72-1.01-2.3-2.74-3.38-3.6,7.7-3.38,15.12-8.14,21.39-14.04-4.68-3.31-9.65-6.48-14.33-9.07l3.46-3.17ZM514.71,328.73h47.45c.07,19.23,1.15,33.48,6.91,33.48,1.51,0,1.87-4.18,2.02-10.51,1.01,1.08,2.45,2.23,3.46,2.81-.5,9.22-1.51,12.46-5.76,12.46-9.5,0-11.09-13.61-11.52-33.99h-42.56v-4.25ZM565.33,322.47h-42.27v-4.18h42.27v4.18Z"/><path d="M620.7,333.48c0,4.1-3.31,7.42-7.42,7.42s-7.42-3.31-7.42-7.42,3.31-7.42,7.42-7.42,7.42,3.46,7.42,7.42Z"/><path d="M711.13,338.24l2.88,1.37c-.07.36-.43.58-.58.72-2.23,5.98-5.69,11.02-10.01,15.12,4.54,3.53,10.08,6.19,16.27,7.71-1.01.94-2.38,2.66-3.02,3.89-6.26-1.8-11.95-4.82-16.63-8.71-5.04,3.89-10.8,6.77-16.78,8.64-.43-.86-1.37-2.23-2.16-3.17v1.3h-4.03v-3.6h-18.87v4.54h-3.89v-47.38h7.42v-11.09h-9.94v-4.18h31.75v4.18h-10.3v11.09h7.85v14.33c6.98-2.81,9.43-7.71,10.23-14.11l5.47.65c-.07.43-.5.72-1.3.86-1.08,6.62-3.6,12.46-11.74,15.99-.5-1.08-1.73-2.59-2.66-3.31v16.34c5.69-4.03,11.31-10.87,14.26-18.29l5.18,1.66c-.14.43-.65.65-1.44.65-.79,1.73-1.66,3.38-2.66,5.04h13.9l.79-.22ZM665.41,322.9v4.46c0,4.46-.86,10.94-4.75,15.48-.5-.58-1.73-1.44-2.45-1.8v4.68h18.87v-6.62c-.36.07-.79.14-1.3.14h-2.66c-2.74,0-3.53-.72-3.53-4.1v-12.24h-4.18ZM662.38,322.9h-4.18v18c3.53-4.25,4.18-9.5,4.18-13.68v-4.32ZM658.21,357.46h18.87v-7.78h-18.87v7.78ZM665.41,307.56v11.09h4.18v-11.09h-4.18ZM675.2,336.15c.86,0,1.08-.29,1.15-2.74.22.14.43.36.72.5v-11.02h-4.46v12.17c0,.94.14,1.08.79,1.08h1.8ZM681.11,363.3c5.62-1.66,11.16-4.25,15.84-7.78-2.59-2.66-4.75-5.62-6.55-8.93-2.09,2.23-4.25,4.25-6.48,5.83-.65-.72-1.87-1.94-2.81-2.74v13.61ZM681.75,314.4l6.34-.22c2.52-4.18,5.47-10.08,7.06-14.26l5.54,1.94c-.14.5-.72.72-1.51.72-1.51,3.31-3.89,7.71-6.19,11.38,5.11-.22,10.8-.43,16.49-.72-1.87-1.87-3.89-3.67-5.76-5.18l3.31-2.23c4.46,3.53,9.65,8.5,12.02,12.03l-3.53,2.52c-.65-1.01-1.58-2.23-2.66-3.46-10.58.72-21.46,1.44-28.44,1.8,0,.5-.5.86-.94.94l-1.73-5.26ZM693.2,343.21c1.73,3.53,4.1,6.7,7.06,9.5,3.17-2.95,5.83-6.48,7.7-10.44h-14.04l-.72.94ZM702.56,318.51l5.62.36c-.07.5-.43.86-1.37.94v7.78c0,1.37.22,1.51,1.73,1.51h4.97c1.3,0,1.58-.5,1.73-5.11.86.72,2.66,1.3,3.82,1.58-.43,5.98-1.66,7.49-4.9,7.49h-6.19c-4.39,0-5.4-1.15-5.4-5.4v-9.15Z"/><path d="M759.59,323.98h30.82v3.89h-34.85l.72.36c-.29.43-.79.58-1.58.5-2.74,2.52-6.98,6.05-10.58,8.64,2.38,1.37,4.61,2.81,6.34,4.1,5.62-3.89,11.3-8.35,15.19-11.95l5.04,2.95c-.29.36-.86.5-1.58.5-4.97,4.03-12.17,9.14-18.79,13.18,8.06-.07,16.92-.22,25.63-.36-2.95-1.87-6.05-3.6-8.93-5.04,2.52-2.02,2.88-2.38,3.17-2.74,6.62,3.1,14.69,7.99,18.79,11.81l-3.38,3.1c-1.15-1.15-2.74-2.45-4.54-3.74-7.13.29-14.4.5-21.46.65v17.14h-4.82v-16.99c-10.15.29-19.44.43-26.35.58-.14.58-.58.86-1.08.94l-1.73-5.11c4.68,0,10.73-.07,17.5-.14,1.15-.65,2.3-1.37,3.53-2.16-3.74-2.81-9.36-6.05-14.11-8.35l3.1-2.74c1.51.72,3.17,1.51,4.82,2.38,2.88-2.09,6.05-4.97,8.57-7.49h-24.7v-3.89h30.46v-5.04h-21.39v-3.82h21.39v-4.97h-26.28v-3.89h26.28v-6.34l6.26.43c-.07.5-.5.86-1.44,1.01v4.9h27.15v3.89h-27.15v4.97h22.03v3.82h-22.03v5.04ZM747.71,354.15c-.29.43-.86.65-1.66.5-4.82,4.03-12.02,8.28-18.29,11.02-.79-.86-2.45-2.45-3.46-3.1,6.26-2.52,13.54-6.55,18.07-10.73l5.33,2.3ZM785.44,365.46c-3.89-3.38-11.74-7.99-18.15-10.94l3.6-2.67c6.26,2.74,14.26,7.27,18.36,10.66l-3.82,2.95Z"/><path d="M815.38,315.84c-5.26,3.46-11.16,6.62-17.14,9.07-.58-1.08-1.73-2.88-2.66-3.82,12.53-4.82,24.91-13.11,30.96-20.81l6.98.36c-.14.5-.72.79-1.37.94,7.2,7.56,20.09,14.91,31.11,18.58-1.01,1.15-2.23,2.88-2.88,4.18-5.33-2.02-11.23-4.97-16.63-8.28v3.67h-28.37v-3.89ZM847.79,325.64l3.46,1.66c-.14.29-.43.65-.72.94-1.87,3.46-4.9,8.64-7.78,13.25h9.36v25.56h-4.9v-2.95h-35.5v2.95h-4.82v-25.56h30.31c2.16-3.46,4.61-7.78,6.48-11.23h-38.16v-4.32h41.26l1.01-.29ZM847.21,359.77v-13.97h-35.5v13.97h35.5ZM842.89,315.55c-5.4-3.38-10.3-7.2-13.9-10.94-3.17,3.6-7.78,7.42-13.11,10.94h27Z"/><path d="M933.25,314.33h-39.24c-1.37,3.02-2.88,5.98-4.54,8.86h34.78v37.44c0,6.12-2.88,6.26-15.77,6.26-.22-1.37-.94-3.46-1.66-4.82,2.52.07,4.9.07,6.84.07,5.18,0,5.76,0,5.76-1.58v-8.21h-30.46v14.54h-4.82v-35.64c-3.67,4.9-7.92,9.29-12.89,12.89-.72-1.08-2.23-2.88-3.24-3.89,8.93-6.26,15.77-15.77,20.45-25.92h-18.94v-4.68h20.95c1.3-3.17,2.3-6.41,3.17-9.58l6.26,1.58c-.14.5-.72.79-1.58.79-.72,2.38-1.51,4.75-2.45,7.2h37.37v4.68ZM919.43,335.64v-8.06h-30.46v8.06h30.46ZM888.97,348.1h30.46v-8.21h-30.46v8.21Z"/><path d="M968.03,340.04l-10.15,2.23v24.7h-4.75v-23.62c-3.96.86-7.56,1.66-10.44,2.23-.07.5-.43.94-.94,1.08l-1.87-5.54c3.6-.58,8.21-1.44,13.25-2.45v-18.58h-7.13c-.72,4.32-1.58,8.28-2.67,11.3-.94-.65-2.52-1.51-3.6-2.02,2.02-5.83,3.1-15.91,3.82-25.35l5.62,1.22c-.14.5-.65.72-1.51.79-.22,3.02-.58,6.26-.94,9.36h6.41v-15.27l6.12.36c-.07.5-.43.86-1.37,1.01v13.9h9.14v4.68h-9.14v17.71l9.72-1.94.43,4.18ZM1002.37,314.26l2.59.22c0,.43-.07,1.15-.14,1.66-1.37,33.7-2.59,44.79-5.33,48.17-1.37,1.94-2.88,2.74-7.63,2.74-1.58,0-3.38-.07-5.18-.14-.07-1.44-.58-3.53-1.37-4.82,3.24.22,6.12.29,7.42.29,1.22,0,1.87-.22,2.59-1.22,2.09-2.45,3.53-12.96,4.68-42.27h-5.62c-2.09,17.43-7.06,37.95-14.76,48.17-1.01-.79-2.81-1.87-4.18-2.38,7.92-9.5,12.75-28.8,14.91-45.8h-6.19c-2.74,14.76-8.28,32.26-15.48,41.19-1.08-.86-2.88-1.8-4.32-2.38,7.27-8.21,12.82-24.41,15.55-38.81h-5.76c-1.87,6.12-4.25,11.67-7.06,15.84-.79-.79-2.59-2.02-3.67-2.74,4.97-7.13,8.42-19.59,10.3-32.12l5.98,1.3c-.14.5-.65.79-1.58.79-.72,4.18-1.58,8.35-2.66,12.38h25.78l1.15-.07Z"/><path d="M1039.74,302.16c-.22.58-.94,1.15-2.23,1.22-.5,3.17-1.15,6.91-1.8,9.72,7.06-.43,14.91-1.66,21.17-3.53l.79,4.9c-6.7,1.66-14.62,2.81-22.9,3.46-3.46,13.83-8.21,25.06-15.27,35.43l-4.82-1.94c6.55-9.43,11.52-20.23,14.62-33.34h-14.33v-4.68h8.57c2.23,0,4.54-.07,6.62-.07.86-3.82,1.51-7.92,2.02-12.17l7.56,1.01ZM1058.89,332.84c.07,5.83.5,9.79.94,14.76,4.61,1.8,10.58,4.9,15.34,8.35l-2.59,4.61c-3.96-3.02-8.86-5.83-12.75-7.56,0,7.2-2.88,12.82-13.47,12.82-7.99,0-14.11-3.6-14.04-10.37,0-7.2,7.56-10.66,14.19-10.66,2.59,0,5.26.5,8.14,1.3-.29-4.61-.65-9.29-.65-12.67l4.9-.58ZM1054.93,350.84c-2.95-1.15-5.98-1.66-8.57-1.66-4.32,0-9.43,1.73-9.5,6.19,0,4.1,4.03,6.05,9.65,6.05,5.18,0,8.5-2.52,8.5-7.27,0-1.15,0-2.23-.07-3.31ZM1074.66,325.42c-8.14.07-18,1.37-25.49,3.53l-.79-4.54c8.21-2.38,18.15-3.89,25.99-3.89l.29,4.9Z"/><path d="M1140.11,325.64c-.14.07-.36.07-.58.07-.5,0-1.08-.14-1.51-.43-21.39,6.26-40.76,15.7-40.68,25.35,0,6.91,7.63,9.29,19.3,9.29s20.45-.86,25.49-1.66l.43,5.26c-6.62.86-17.35,1.3-25.78,1.3-14.26,0-24.63-3.31-24.7-13.9-.07-7.71,7.63-14.47,18.94-20.31-2.45-4.39-3.31-12.75-3.31-29.02l7.92.65c-.07.94-.79,1.51-2.23,1.73-.07,12.6.36,20.45,2.38,24.34,6.77-3.17,14.54-6.05,22.47-8.64l1.87,5.98ZM1130.89,303.17c3.74,3.24,7.2,7.34,9.14,10.73l-3.1,2.09c-1.87-3.31-5.18-7.56-8.86-10.73l2.81-2.09ZM1140.54,299.07c3.75,3.31,6.99,7.06,9,10.66l-2.95,2.02c-2.02-3.46-5.26-7.42-8.79-10.51l2.74-2.16Z"/><path d="M1155.8,366.61c7.85-6.55,14.26-18.58,14.26-33.12s-6.62-26.79-14.26-33.12v-.36h4.32c7.34,6.55,13.75,18.65,13.75,33.48s-6.41,26.93-13.75,33.48h-4.32v-.36Z"/><path d="M1311.54,300.36c-7.85,6.55-14.26,18.58-14.26,33.12s6.62,26.79,14.26,33.12v.36h-4.32c-7.27-6.55-13.75-18.65-13.75-33.48s6.48-26.93,13.75-33.48h4.32v.36Z"/><path d="M1337.1,319.08h-6.05c-.94,5.47-3.53,9.5-11.88,11.74-.36-1.01-1.37-2.45-2.23-3.17,6.62-1.51,9.15-4.1,10.08-8.57h-8.86v-3.74h13.68v-5.9h-10.87v-3.67h10.87v-5.33l5.83.36c-.07.5-.5.79-1.37.94v4.03h11.09v3.67h-11.09v5.9h13.54v3.74h-9v4.61c0,1.08.14,1.3,1.37,1.3h3.53c1.08,0,1.3-.36,1.44-3.31.79.65,2.3,1.08,3.31,1.37-.29,4.25-1.44,5.33-4.1,5.33h-4.68c-3.67,0-4.61-.86-4.61-4.61v-4.68ZM1376.05,341.48c0,3.53.07,3.67,1.3,3.67,2.16,0,2.38,0,2.81-.43.79-1.01.79-6.91.79-11.09.94.79,2.3,1.44,3.46,1.8-.22,10.51-.36,13.75-5.33,13.75h-2.74c-1.22,0-2.59-.36-3.53-1.22-.94-.94-1.22-2.02-1.22-6.98v-25.92h-7.56c-.29,4.61-.65,8.86-1.37,12.82,3.1,2.3,5.9,4.54,7.7,6.41l-2.38,3.96c-1.51-1.66-3.74-3.6-6.34-5.62-1.87,7.42-5.18,13.39-11.02,17.86-.72-1.08-2.16-2.52-3.24-3.17.65-.43,1.22-.94,1.8-1.44-10.8,1.37-21.96,2.59-29.02,3.31-.07.58-.5.94-.94,1.01l-1.94-4.97c3.96-.29,9-.79,14.54-1.3v-7.42h-11.67v-3.74h11.67v-5.69l5.83.36c-.07.5-.5.86-1.37.94v4.39h11.81v3.74h-11.81v6.98c4.39-.43,8.93-.94,13.39-1.37l.07,3.17c4.18-3.96,6.62-9.15,8.07-15.55-2.38-1.73-4.83-3.38-7.06-4.75l2.23-3.46c1.8,1.08,3.74,2.3,5.69,3.6.43-3.17.72-6.48.94-10.08h-8.42v-4.39h8.57c.14-3.38.14-6.91.22-10.66l5.98.36c-.07.65-.58,1.01-1.51,1.08l-.22,9.22h11.81v30.82ZM1330.9,353.57c-2.02,4.82-5.33,10.22-9.14,13.46-1.01-.43-2.09-.86-4.39-1.94,3.67-2.88,7.13-7.92,9.07-12.75l4.46,1.22ZM1340.19,366.32c-.07-3.1-.65-8.28-1.44-12.24l4.46-.36c.94,3.89,1.66,9,1.73,11.95l-4.75.65ZM1357.91,366.25c-.58-3.17-2.38-8.42-4.1-12.31l4.54-.79c1.8,3.82,3.67,8.93,4.32,12.02l-4.75,1.08ZM1378.21,367.04c-1.73-3.6-5.69-9.29-9.22-13.39l4.54-1.51c3.53,4.03,7.56,9.5,9.5,13.18l-4.83,1.73Z"/><path d="M1391.17,320.38c4.46,1.87,9.87,5.04,12.53,7.49l-2.88,3.89c-2.52-2.52-7.85-5.76-12.31-7.85l2.66-3.53ZM1390.09,363.15c3.31-5.69,7.99-15.41,11.3-23.62l3.89,2.74c-3.1,7.63-7.27,16.63-10.3,22.18.29.43.43.79.43,1.08s-.07.5-.22.72l-5.11-3.1ZM1404.2,312.67c-2.52-2.59-7.78-6.19-12.17-8.42l2.81-3.46c4.39,2.09,9.72,5.4,12.31,8.06l-2.95,3.82ZM1451.15,341.48h-13.68v20.23c0,4.97-2.02,5.33-12.24,5.18-.22-1.22-.86-2.95-1.44-4.18,3.67.07,6.91.07,7.85.07.94-.07,1.22-.36,1.22-1.15v-20.16h-12.53v-24.84h11.09c.72-2.59,1.44-6.05,1.87-8.64h-17.64v15.63c0,12.67-1.15,30.75-9.79,42.99-.86-.86-2.95-2.09-4.03-2.59,8.35-11.81,9.14-28.37,9.14-40.4v-20.09h44.21v4.46h-18.36l2.81.72c-.22.5-.72.72-1.58.79-.43,1.94-1.22,4.75-2.02,7.13h15.12v24.84ZM1428.11,347.31c-.22.5-.79.72-1.51.65-2.66,5.33-6.84,11.23-10.8,14.98-.86-.79-2.45-2.02-3.46-2.67,3.89-3.38,7.92-9.14,10.37-14.69l5.4,1.73ZM1424.72,320.52v6.55h21.82v-6.55h-21.82ZM1424.72,330.89v6.62h21.82v-6.62h-21.82ZM1451.87,362.5c-1.66-4.1-5.83-10.51-9.58-15.19l3.96-1.94c3.82,4.54,8.14,10.73,9.94,14.83l-4.32,2.3Z"/><path d="M1460.57,366.61c7.85-6.55,14.26-18.58,14.26-33.12s-6.62-26.79-14.26-33.12v-.36h4.32c7.34,6.55,13.75,18.65,13.75,33.48s-6.41,26.93-13.75,33.48h-4.32v-.36Z"/></g></svg>