<?xml version="1.0" encoding="UTF-8"?><svg id="_レイヤー_1" xmlns="http://www.w3.org/2000/svg" viewBox="0 0 1560 560"><rect width="1560" height="560" rx="18" ry="18" fill="#c8dbc3"/><path d="M150.79,155.51c-1.66-8.35-2.52-12.24-11.02-12.24-10.94,0-16.13,9.58-16.13,24.12,0,22.9,11.38,25.27,15.41,25.27,7.63,0,11.52-5.98,13.47-11.95l2.88.79c-3.1,9.5-9.29,14.4-17.07,14.4-6.26,0-11.3-2.3-14.83-6.34-4.25-5.11-6.19-12.17-6.19-21.89,0-18.15,8.93-27.22,22.32-27.22,3.02,0,6.26.14,12.1,2.45.5,4.1,1.08,8.28,1.87,12.02l-2.81.58Z"/><path d="M215.88,169.77v25.92h-2.88v-25.92h-25.92v-2.88h25.92v-25.92h2.88v25.92h25.92v2.88h-25.92Z"/><path d="M270.38,153.57c0-2.95-.43-4.25-1.8-4.25-1.3,0-2.74.65-4.97,1.44l-.58-2.16c5.47-2.16,9-4.03,12.31-6.26l.79.43v44c0,5.33.43,5.76,6.84,5.76v2.3h-19.8v-2.3c6.77,0,7.2-.43,7.2-5.76v-33.2Z"/><path d="M325.75,139.24l-25.13,56.45h-3.82l25.06-56.45h3.89Z"/><path d="M366.5,183.88l-2.23,10.94h-31.32l-.94-1.15c3.46-14.69,12.17-21.53,18.87-26.21,5.54-3.96,8.86-7.2,8.86-12.82,0-4.75-2.02-10.01-10.66-10.01-4.25,0-8.42,1.44-10.44,8.14-.58,2.16-1.51,2.81-3.1,2.81-1.3,0-2.23-1.08-2.23-3.17,0-4.03,5.04-10.58,16.06-10.58,13.03,0,16.49,7.49,16.49,13.03,0,6.26-4.39,10.73-8.78,13.68-9.43,6.41-17.07,11.52-20.38,21.82h20.38c4.68,0,5.4-.79,7.06-6.84l2.38.36Z"/><path d="M374.85,168.18c0-19.44,9.22-27.72,22.39-27.72,14.26,0,22.39,9.58,22.39,27.72s-8.06,27.72-22.39,27.72c-17.14,0-22.39-13.18-22.39-27.72ZM385.94,148.45c-2.95,3.74-4.82,9.72-4.82,19.73,0,8.35,1.58,15.19,4.75,19.59,2.59,3.24,6.84,5.33,11.3,5.33s8.64-2.09,11.31-5.33c3.17-4.39,4.75-11.23,4.75-19.59,0-10.01-1.8-15.99-4.75-19.73-2.88-3.6-6.91-5.18-11.23-5.18s-8.57,1.8-11.31,5.18Z"/><path d="M426.33,194.03c1.01-4.61,3.46-8.21,6.34-10.8,2.66-2.52,6.7-4.54,9.07-6.77,1.8-1.73,2.66-3.46,2.66-5.69,0-1.58-.5-2.95-1.8-4.1-1.15-.94-2.74-1.37-4.75-1.37-1.51,0-2.81.36-3.82,1.08-.86.65-1.51,1.51-2.23,3.1-.58,1.51-1.3,2.23-2.59,2.23-1.22,0-1.94-.72-1.94-2.09,0-1.58,1.15-3.53,3.53-4.82,2.02-1.08,4.46-1.73,7.42-1.73,3.46,0,5.83.65,7.78,2.02,2.09,1.37,3.17,3.1,3.17,5.69,0,2.3-.86,4.1-2.38,5.83-3.31,3.74-7.85,5.18-11.52,7.92-2.23,1.73-3.89,3.74-4.9,6.48h12.82c3.1,0,3.53-.22,4.46-3.74l1.94.29-1.51,7.27h-20.81l-.94-.79Z"/><path d="M554.85,159.61v2.95h-50.4v-2.95h50.4ZM554.85,174.09v2.95h-50.4v-2.95h50.4Z"/><path d="M674.44,155.51c-1.66-8.35-2.52-12.24-11.02-12.24-10.94,0-16.13,9.58-16.13,24.12,0,22.9,11.38,25.27,15.41,25.27,7.63,0,11.52-5.98,13.47-11.95l2.88.79c-3.1,9.5-9.29,14.4-17.07,14.4-6.26,0-11.3-2.3-14.83-6.34-4.25-5.11-6.19-12.17-6.19-21.89,0-18.15,8.93-27.22,22.32-27.22,3.02,0,6.26.14,12.1,2.45.5,4.1,1.08,8.28,1.87,12.02l-2.81.58Z"/><path d="M685.45,168.18c0-19.44,9.22-27.72,22.39-27.72,14.26,0,22.39,9.58,22.39,27.72s-8.06,27.72-22.39,27.72c-17.14,0-22.39-13.18-22.39-27.72ZM696.54,148.45c-2.95,3.74-4.82,9.72-4.82,19.73,0,8.35,1.58,15.19,4.75,19.59,2.59,3.24,6.84,5.33,11.3,5.33s8.64-2.09,11.31-5.33c3.17-4.39,4.75-11.23,4.75-19.59,0-10.01-1.8-15.99-4.75-19.73-2.88-3.6-6.91-5.18-11.23-5.18s-8.57,1.8-11.31,5.18Z"/><path d="M843.07,169.77v25.92h-2.88v-25.92h-25.92v-2.88h25.92v-25.92h2.88v25.92h25.92v2.88h-25.92Z"/><path d="M969.57,153.57c0-2.95-.43-4.25-1.8-4.25-1.3,0-2.74.65-4.97,1.44l-.58-2.16c5.47-2.16,9-4.03,12.31-6.26l.79.43v44c0,5.33.43,5.76,6.84,5.76v2.3h-19.8v-2.3c6.77,0,7.2-.43,7.2-5.76v-33.2Z"/><path d="M1013.78,153.57c0-2.95-.43-4.25-1.8-4.25-1.3,0-2.74.65-4.97,1.44l-.58-2.16c5.47-2.16,9-4.03,12.31-6.26l.79.43v44c0,5.33.43,5.76,6.84,5.76v2.3h-19.8v-2.3c6.77,0,7.2-.43,7.2-5.76v-33.2Z"/><path d="M1047.25,190.36c-3.74-4.25-5.83-11.16-5.83-21.82s2.09-17.79,6.7-22.25c2.88-2.66,6.77-4.46,11.95-4.46s9.14,1.8,12.02,4.46c4.68,4.46,6.77,12.02,6.77,22.25s-2.09,17.57-5.83,21.82c-3.67,4.03-8.14,5.54-12.96,5.54-2.45,0-8.07-.22-12.82-5.54ZM1047.4,168.61c0,11.52,1.66,24.55,12.6,24.55s12.67-11.67,12.67-24.55c0-11.45-2.09-17.57-4.75-20.74-2.3-2.52-5.33-3.31-7.92-3.31-9.07,0-12.6,8.5-12.6,24.05Z"/><path d="M1094.92,175.1h.14l11.09-11.16c1.01-.94,1.58-1.73,1.58-2.23,0-.65-.79-.94-2.74-.94v-2.02h11.67v2.02c-2.23,0-3.53.58-5.33,2.38l-8.14,8.06,11.81,18.51c1.73,2.88,3.46,3.17,5.83,3.17v1.94h-9.15l-12.53-20.09-4.25,4.39v8.42c0,4.68.22,5.26,4.46,5.26v2.02h-14.76v-2.02c4.46,0,4.68-.65,4.68-5.33v-37.95c0-4.61-.43-5.18-4.68-5.18v-1.73c3.74-.58,6.55-1.51,9.5-3.38l.79.5v35.36Z"/><path d="M1134.73,191.8c0,10.58-1.3,22.32-12.03,22.32-4.9,0-9-3.17-9-6.12,0-1.3.79-2.16,2.09-2.16,1.73,0,2.45,1.15,3.38,2.95,1.01,1.94,2.16,2.81,3.67,2.81,5.83,0,6.26-11.09,6.26-19.37v-24.41c0-4.82-.29-4.9-5.33-4.9v-1.73c4.61-.65,6.98-1.51,10.23-3.38l.72.43v33.55ZM1135.02,148.88c0,2.81-1.51,4.54-3.6,4.54s-3.6-1.73-3.6-4.54,1.51-4.61,3.6-4.61c2.3,0,3.6,2.09,3.6,4.61Z"/><path d="M1232.8,201.16c-12.38-5.76-21.24-17.28-21.24-33.7s9.29-28.15,21.24-33.7l1.15,1.51c-11.02,6.12-17.93,17.43-17.93,32.19s6.91,26.07,17.93,32.19l-1.15,1.51Z"/><path d="M1267.57,177.83h-18.65l-2.67,9.29c-.43,1.51-.72,2.66-.72,3.46,0,1.58,1.08,1.94,3.96,1.94v2.3h-11.74v-2.3c2.66,0,3.53-.65,4.61-4.03l14.91-48.03h3.17l16.49,47.02c1.44,4.32,2.3,5.04,4.97,5.04v2.3h-14.33v-2.3c2.95,0,3.96-.5,3.96-1.94,0-.72-.22-1.66-.65-2.88l-3.31-9.87ZM1266.57,174.88l-8.71-25.56h-.22l-7.7,25.56h16.63Z"/><path d="M1286.94,133.76c12.38,5.76,21.24,17.28,21.24,33.7s-9.29,28.15-21.24,33.7l-1.15-1.51c11.02-6.12,17.93-17.43,17.93-32.19s-6.91-26.07-17.93-32.19l1.15-1.51Z"/><path d="M154.1,347.41c-1.66-8.35-2.52-12.24-11.02-12.24-10.94,0-16.13,9.58-16.13,24.12,0,22.9,11.38,25.28,15.41,25.28,7.63,0,11.52-5.98,13.47-11.95l2.88.79c-3.1,9.51-9.29,14.4-17.07,14.4-6.26,0-11.3-2.3-14.83-6.34-4.25-5.11-6.19-12.17-6.19-21.89,0-18.15,8.93-27.22,22.32-27.22,3.02,0,6.26.14,12.1,2.45.5,4.1,1.08,8.28,1.87,12.02l-2.81.58Z"/><path d="M219.19,361.66v25.92h-2.88v-25.92h-25.92v-2.88h25.92v-25.92h2.88v25.92h25.92v2.88h-25.92Z"/><path d="M257.13,360.08c0-19.44,9.22-27.72,22.39-27.72,14.26,0,22.39,9.58,22.39,27.72s-8.06,27.72-22.39,27.72c-17.14,0-22.39-13.18-22.39-27.72ZM268.22,340.35c-2.95,3.74-4.82,9.72-4.82,19.73,0,8.35,1.58,15.19,4.75,19.59,2.59,3.24,6.84,5.33,11.3,5.33s8.64-2.09,11.31-5.33c3.17-4.39,4.75-11.23,4.75-19.59,0-10.01-1.8-15.99-4.75-19.73-2.88-3.6-6.91-5.18-11.23-5.18s-8.57,1.8-11.31,5.18Z"/><path d="M308.61,385.93c1.01-4.61,3.46-8.21,6.34-10.8,2.66-2.52,6.7-4.54,9.07-6.77,1.8-1.73,2.66-3.46,2.66-5.69,0-1.58-.5-2.95-1.8-4.1-1.15-.94-2.74-1.37-4.75-1.37-1.51,0-2.81.36-3.82,1.08-.86.65-1.51,1.51-2.23,3.1-.58,1.51-1.3,2.23-2.59,2.23-1.22,0-1.94-.72-1.94-2.09,0-1.58,1.15-3.53,3.53-4.82,2.02-1.08,4.46-1.73,7.42-1.73,3.46,0,5.83.65,7.78,2.02,2.09,1.37,3.17,3.1,3.17,5.69,0,2.3-.86,4.1-2.38,5.83-3.31,3.75-7.85,5.19-11.52,7.92-2.23,1.73-3.89,3.74-4.9,6.48h12.82c3.1,0,3.53-.22,4.46-3.74l1.94.29-1.51,7.27h-20.81l-.94-.79Z"/><path d="M437.13,351.51v2.95h-50.4v-2.95h50.4ZM437.13,365.98v2.95h-50.4v-2.95h50.4Z"/><path d="M556.72,347.41c-1.66-8.35-2.52-12.24-11.02-12.24-10.94,0-16.13,9.58-16.13,24.12,0,22.9,11.38,25.28,15.41,25.28,7.63,0,11.52-5.98,13.47-11.95l2.88.79c-3.1,9.51-9.29,14.4-17.07,14.4-6.26,0-11.3-2.3-14.83-6.34-4.25-5.11-6.19-12.17-6.19-21.89,0-18.15,8.93-27.22,22.32-27.22,3.02,0,6.26.14,12.1,2.45.5,4.1,1.08,8.28,1.87,12.02l-2.81.58Z"/><path d="M567.73,360.08c0-19.44,9.22-27.72,22.39-27.72,14.26,0,22.39,9.58,22.39,27.72s-8.06,27.72-22.39,27.72c-17.14,0-22.39-13.18-22.39-27.72ZM578.82,340.35c-2.95,3.74-4.82,9.72-4.82,19.73,0,8.35,1.58,15.19,4.75,19.59,2.59,3.24,6.84,5.33,11.3,5.33s8.64-2.09,11.31-5.33c3.17-4.39,4.75-11.23,4.75-19.59,0-10.01-1.8-15.99-4.75-19.73-2.88-3.6-6.91-5.18-11.23-5.18s-8.57,1.8-11.31,5.18Z"/><path d="M619.21,385.93c1.01-4.61,3.46-8.21,6.34-10.8,2.66-2.52,6.7-4.54,9.07-6.77,1.8-1.73,2.66-3.46,2.66-5.69,0-1.58-.5-2.95-1.8-4.1-1.15-.94-2.74-1.37-4.75-1.37-1.51,0-2.81.36-3.82,1.08-.86.65-1.51,1.51-2.23,3.1-.58,1.51-1.3,2.23-2.59,2.23-1.22,0-1.94-.72-1.94-2.09,0-1.58,1.15-3.53,3.53-4.82,2.02-1.08,4.46-1.73,7.42-1.73,3.46,0,5.83.65,7.78,2.02,2.09,1.37,3.17,3.1,3.17,5.69,0,2.3-.86,4.1-2.38,5.83-3.31,3.75-7.85,5.19-11.52,7.92-2.23,1.73-3.89,3.74-4.9,6.48h12.82c3.1,0,3.53-.22,4.46-3.74l1.94.29-1.51,7.27h-20.81l-.94-.79Z"/><path d="M755.94,361.66v25.92h-2.88v-25.92h-25.92v-2.88h25.92v-25.92h2.88v25.92h25.92v2.88h-25.92Z"/><path d="M887.13,358.35c7.99.5,15.19,5.11,15.19,13.9,0,7.63-5.54,15.55-18.29,15.55-11.16,0-16.85-6.48-16.85-10.73,0-1.94.79-3.1,2.45-3.1,1.08,0,1.87.5,2.81,2.23.72,1.37,1.66,3.17,3.31,4.68,1.73,2.23,4.18,4.18,8.42,4.18,3.89,0,12.03-1.8,12.03-12.53,0-2.74-.72-5.26-2.45-7.49-3.02-3.82-8.71-5.19-14.76-5.19v-2.66c7.27,0,15.27-3.17,15.27-11.23,0-5.47-3.74-9.43-10.15-9.43s-9.07,4.75-9.86,7.06c-.86,2.45-1.58,3.67-3.6,3.67-1.44,0-2.3-1.15-2.3-3.17,0-3.38,5.04-10.37,15.91-10.37s15.84,5.54,15.84,12.46c0,4.25-2.38,10.58-12.96,11.95v.22Z"/><path d="M940.12,360.37c-2.81,4.54-7.42,7.35-13.18,7.35-10.44,0-16.2-7.13-16.2-16.42s5.47-17.57,17.57-17.57c9.43,0,18.07,7.13,18.07,25.42,0,14.26-4.61,28.66-19.08,28.66-10.44,0-15.05-5.98-15.05-9.79,0-1.73.86-2.88,2.3-2.88,1.8,0,2.38.94,3.74,3.67,1.37,3.46,3.74,6.19,9,6.19,12.67,0,13.03-19.95,13.03-24.63h-.22ZM928.24,364.76c6.84,0,11.67-5.69,11.67-11.95,0-7.49-4.03-16.34-11.52-16.34s-11.52,6.19-11.52,14.62c0,3.74,1.22,13.68,11.38,13.68Z"/><path d="M958.55,360.58l3.74-25.92h19.8c2.66,0,2.95-.14,3.46-1.22h2.23l-1.51,5.83h-21.24l-2.66,16.71.14.07c3.02-2.23,6.41-3.31,10.73-3.31,10.22,0,16.27,6.48,16.27,16.49s-5.47,18.58-17.57,18.58c-9.29,0-15.7-5.9-15.7-10.44,0-2.3,1.22-3.24,2.59-3.24,1.22,0,2.09.5,3.02,2.45.94,3.02,3.53,8.42,10.3,8.42,5.11,0,11.23-3.82,11.23-15.34,0-7.13-2.3-14.04-11.38-14.04-5.04,0-8.86,2.52-11.16,5.62l-2.3-.65Z"/><path d="M1007.8,366.99h.14l11.09-11.16c1.01-.94,1.58-1.73,1.58-2.23,0-.65-.79-.94-2.74-.94v-2.02h11.67v2.02c-2.23,0-3.53.58-5.33,2.38l-8.14,8.06,11.81,18.51c1.73,2.88,3.46,3.17,5.83,3.17v1.95h-9.15l-12.53-20.09-4.25,4.39v8.42c0,4.68.22,5.26,4.46,5.26v2.02h-14.76v-2.02c4.46,0,4.68-.65,4.68-5.33v-37.95c0-4.61-.43-5.18-4.68-5.18v-1.73c3.74-.58,6.55-1.51,9.5-3.38l.79.5v35.36Z"/><path d="M1047.61,383.7c0,10.59-1.3,22.32-12.03,22.32-4.9,0-9-3.17-9-6.12,0-1.3.79-2.16,2.09-2.16,1.73,0,2.45,1.15,3.38,2.95,1.01,1.94,2.16,2.81,3.67,2.81,5.83,0,6.26-11.09,6.26-19.37v-24.41c0-4.82-.29-4.9-5.33-4.9v-1.73c4.61-.65,6.98-1.51,10.23-3.38l.72.43v33.55ZM1047.9,340.78c0,2.81-1.51,4.54-3.6,4.54s-3.6-1.73-3.6-4.54,1.51-4.61,3.6-4.61c2.3,0,3.6,2.09,3.6,4.61Z"/><path d="M1145.68,393.06c-12.38-5.76-21.24-17.28-21.24-33.7s9.29-28.15,21.24-33.7l1.15,1.51c-11.02,6.12-17.93,17.43-17.93,32.19s6.91,26.07,17.93,32.19l-1.15,1.51Z"/><path d="M1157.7,341.5c0-5.33-.43-5.76-5.69-5.76v-2.3h17.5c6.12,0,10.08.5,13.54,3.1,2.66,2.02,4.39,5.11,4.39,8.86,0,3.38-1.08,11.09-12.82,13.03v.14c8.28.29,15.34,4.68,15.34,13.03,0,4.39-1.3,7.99-3.89,10.66-2.74,2.88-6.77,4.46-13.54,4.46h-20.52v-2.3c5.26,0,5.69-.43,5.69-5.76v-37.16ZM1165.76,336.32c-1.8,0-2.02.65-2.02,2.45v18.58h5.04c7.56,0,12.53-3.74,12.53-11.23,0-5.76-3.17-9.79-10.73-9.79h-4.82ZM1163.75,360.3v19.87c0,3.02.43,3.6,2.67,3.6h5.98c7.99,0,11.3-4.39,11.3-12.31,0-3.53-1.3-6.34-3.53-8.28-2.16-1.94-5.47-2.88-10.01-2.88h-6.41Z"/><path d="M1196.79,325.66c12.38,5.76,21.24,17.28,21.24,33.7s-9.29,28.15-21.24,33.7l-1.15-1.51c11.02-6.12,17.93-17.43,17.93-32.19s-6.91-26.07-17.93-32.19l1.15-1.51Z"/></svg>