<?xml version="1.0" encoding="UTF-8"?><svg id="_レイヤー_2" xmlns="http://www.w3.org/2000/svg" viewBox="0 0 1118.83 116.75"><style>
  *{ vector-effect: non-scaling-stroke; shape-rendering: geometricPrecision; text-rendering: optimizeLegibility; }
  @media (max-width:480px){ .stroke-3{ stroke-width:2.2; } } /* 例：必要なら微調整 */
</style>
<g id="_レイヤー_1-2"><rect x="133.7" y="1.5" width="234.67" height="113.75" style="fill:#fff;"/><path d="M366.87,3v110.75h-231.67V3h231.67M369.87,0h-237.67v116.75h237.67V0h0Z"/><text transform="translate(214.43 77.85)" style="font-family:KozGoPr6N-Regular-83pv-RKSJ-H, &apos;Kozuka Gothic Pr6N&apos;; font-size:72px;"><tspan x="0" y="0">R1</tspan></text><line x1="682.86" y1="58.38" x2="815.06" y2="58.38" style="fill:none; stroke:#000; stroke-miterlimit:10; stroke-width:6px;"/><line y1="58.21" x2="132.2" y2="58.21" style="fill:none; stroke:#000; stroke-miterlimit:10; stroke-width:6px;"/><rect x="454.88" y="1.5" width="234.67" height="113.75" style="fill:#fff;"/><path d="M688.05,3v110.75h-231.67V3h231.67M691.05,0h-237.67v116.75h237.67V0h0Z"/><text transform="translate(535.6 77.85)" style="font-family:KozGoPr6N-Regular-83pv-RKSJ-H, &apos;Kozuka Gothic Pr6N&apos;; font-size:72px;"><tspan x="0" y="0">R2</tspan></text><line x1="369.89" y1="58.21" x2="453.58" y2="58.3" style="fill:none; stroke:#000; stroke-miterlimit:10; stroke-width:6px;"/><rect x="750.46" y="1.5" width="234.67" height="113.75" style="fill:#fff;"/><path d="M983.63,3v110.75h-231.67V3h231.67M986.63,0h-237.67v116.75h237.67V0h0Z"/><line x1="986.63" y1="58.21" x2="1118.83" y2="58.21" style="fill:none; stroke:#000; stroke-miterlimit:10; stroke-width:6px;"/><text transform="translate(829.27 78.72)" style="font-family:KozGoPr6N-Regular-83pv-RKSJ-H, &apos;Kozuka Gothic Pr6N&apos;; font-size:72px;"><tspan x="0" y="0">R3</tspan></text></g></svg>