<?xml version="1.0" encoding="UTF-8"?><svg id="_レイヤー_1" xmlns="http://www.w3.org/2000/svg" viewBox="0 0 907.94 93.73"><defs><style>.cls-1,.cls-2{fill:none;}.cls-2,.cls-3,.cls-4{stroke:#000;stroke-miterlimit:10;}.cls-4{fill:#e6e6e6;}</style></defs><rect class="cls-4" x=".5" y=".5" width="906.94" height="62.68"/><path d="M41.57,71.1l6.93,6.93,6.93-6.93.61.61-6.93,6.93,6.93,6.93-.61.61-6.93-6.93-6.95,6.95-.61-.61,6.95-6.95-6.93-6.93.61-.61ZM42.51,80.21c-.86,0-1.57-.71-1.57-1.57s.71-1.57,1.57-1.57,1.57.71,1.57,1.57-.76,1.57-1.57,1.57ZM46.92,72.65c0-.86.71-1.57,1.57-1.57s1.57.71,1.57,1.57-.71,1.57-1.57,1.57-1.57-.76-1.57-1.57ZM50.07,84.62c0,.86-.71,1.57-1.57,1.57s-1.57-.71-1.57-1.57.71-1.57,1.57-1.57,1.57.76,1.57,1.57ZM54.48,77.06c.86,0,1.57.71,1.57,1.57s-.71,1.57-1.57,1.57-1.57-.71-1.57-1.57.76-1.57,1.57-1.57Z"/><path d="M82.98,84.07v-15.41h6.99v1.09h-5.9v14.32h-1.09Z"/><path d="M101,88.4c-5.4,0-9.76-4.37-9.76-9.76s4.37-9.76,9.76-9.76,9.76,4.37,9.76,9.76-4.41,9.76-9.76,9.76ZM91.89,78.63c0,5.04,4.07,9.11,9.11,9.11s9.11-4.07,9.11-9.11-4.07-9.11-9.11-9.11-9.11,4.12-9.11,9.11ZM101.86,84.03v-2.83h-5.58v-.94l5.54-7.01h1.41v6.84h1.62v1.11h-1.62v2.83h-1.36ZM101.86,80.08v-4.14c0-.38.02-.94.04-1.32l-.04-.02c-.25.44-.52.88-.78,1.26l-3.49,4.18v.04h4.26Z"/><path d="M116.37,76.24c0,1.64-.04,3.28-.27,4.87.59.73,2.1,2.92,2.46,3.46l-.97.99c-.36-.67-1.11-1.91-1.76-2.9-.44,2.08-1.28,4.03-2.75,5.77-.21-.29-.65-.73-.94-.92,2.69-3.23,2.98-7.31,2.98-11.27v-7.35l1.68.1c-.02.13-.15.23-.42.27v6.97ZM112.15,78.36c.8-1.13,1.15-3.21,1.2-5.12l.99.15c-.04,2.02-.36,4.26-1.28,5.56l-.9-.59ZM119.31,72.67c-.04.13-.19.19-.42.19-.38,1.24-1.09,3.13-1.66,4.28l-.82-.38c.52-1.22,1.18-3.23,1.51-4.62l1.39.52ZM121.33,83.69c-.5,1.72-1.28,3.59-2.67,4.72l-1.05-.71c1.3-1.01,2.16-2.77,2.6-4.39l1.11.38ZM131.66,74.71h-2.96c.5,3.07,1.53,5.92,3.23,7.22-.29.25-.73.71-.92,1.05-1.34-1.15-2.25-3.13-2.83-5.44-.5,1.95-1.57,3.82-3.8,5.4-.19-.27-.59-.71-.88-.9,2.96-2.1,3.7-4.75,3.84-7.33h-2.37v-.17c-.99,4.07-2.83,6.89-5.23,8.44-.17-.31-.5-.73-.8-.99,1.2-.71,2.27-1.85,3.15-3.34-.52-.52-1.39-1.18-2.12-1.62l.63-.76c.67.38,1.47.94,1.99,1.41.27-.57.52-1.15.73-1.78-.55-.44-1.41-.97-2.12-1.32l.52-.86c.65.29,1.39.69,1.93,1.09.21-.78.4-1.6.52-2.46h-2.41c-.67,2.04-1.6,3.88-2.69,5.19-.21-.23-.65-.59-.92-.78,1.51-1.72,2.67-4.77,3.3-7.92l1.55.36c-.04.17-.19.25-.44.25-.13.59-.27,1.18-.44,1.74h2.52l.23-.04.73.23c-.02.13-.08.19-.13.25-.08.63-.19,1.26-.29,1.85h2.18v-4.58l1.62.1c-.02.15-.13.25-.4.27v4.2h3.07v1.22ZM122.98,88.1c.02-1.09-.19-2.79-.48-4.12l1.15-.17c.36,1.3.57,3,.57,4.09l-1.24.19ZM126.74,88.14c-.17-1.13-.76-2.83-1.39-4.14l1.11-.34c.67,1.28,1.28,3,1.49,4.12l-1.22.36ZM130.75,88.44c-.42-1.24-1.49-3.23-2.5-4.7l1.11-.44c1.05,1.45,2.14,3.4,2.58,4.64l-1.2.5ZM130.1,69.39c.63.99,1.26,2.27,1.51,3.11l-1.03.44c-.23-.88-.84-2.18-1.43-3.17l.94-.38Z"/><path d="M137.75,76.2c0,1.64-.04,3.28-.27,4.87.71.78,2.6,3,3.04,3.57l-.97,1.03c-.44-.71-1.53-2.12-2.37-3.13-.48,2.12-1.41,4.14-3.09,5.9-.21-.29-.65-.76-.97-.94,3-3.19,3.34-7.31,3.34-11.3v-7.31c.99.08,1.34.08,1.68.1-.02.15-.13.25-.4.27v6.93ZM133.15,78.38c.86-1.11,1.24-3.19,1.28-5.14l1.03.15c-.04,2.02-.4,4.22-1.36,5.5l-.94-.5ZM141.09,73.13c-.06.1-.21.17-.42.17-.42,1.18-1.15,2.94-1.74,4.07-.02-.02-.88-.46-.88-.46.55-1.15,1.26-3.09,1.62-4.41l1.43.63ZM148.56,86.42c0,.48.08.57.65.57h1.81c.5,0,.61-.29.67-2.39.27.21.82.42,1.18.52-.13,2.46-.48,3.07-1.7,3.07h-2.12c-1.49,0-1.83-.38-1.83-1.78v-4.85h-2.2c-.02.13-.17.21-.4.23-.29,3.3-1.05,5.48-4.72,6.66-.13-.31-.48-.8-.78-1.03,3.23-.99,3.97-2.77,4.18-5.86h-3.17v-1.24h2.58v-2.77h-2.58v-1.26h2.58v-2.62l1.7.13c-.02.13-.13.23-.4.27v2.23h4.75v-2.62l1.72.13c-.02.13-.13.23-.4.27v2.23h2.6v1.26h-2.6v2.77h2.65v1.24h-3.76c-.04.13-.15.21-.4.23v4.64ZM145.69,74.94v-2.56h-4.75v-1.22h4.75v-2.27l1.76.1c-.02.15-.13.25-.42.29v1.87h4.87v1.22h-4.87v2.56h-1.34ZM144.01,77.54v2.77h4.75v-2.77h-4.75Z"/><path d="M165.22,72.71c-.08.19-.25.34-.52.34-.76,6.53-2.94,12.22-6.42,12.22-1.76,0-3.36-1.76-3.36-5.08,0-5.04,3.93-9.26,9.45-9.26,6.07,0,8.69,3.84,8.69,7.94,0,5-2.9,7.41-7.98,8.59-.19-.34-.55-.9-.88-1.28,4.83-.92,7.31-3.28,7.31-7.24,0-3.46-2.23-6.61-7.14-6.61-.21,0-.44.02-.63.04l1.49.36ZM163.2,72.44c-4.24.52-6.87,4.03-6.87,7.71,0,2.25.97,3.65,1.97,3.65,2.54,0,4.37-5.61,4.89-11.36Z"/><path d="M181.11,78.21c-.34-.71-.76-1.47-1.15-2.1l1.05-.44c.92,1.41,1.87,3.25,2.18,4.45l-1.11.52c-.1-.38-.27-.84-.46-1.34l-1.76.1v8.99h-1.26v-8.92c-1.11.04-2.12.08-2.92.13-.04.15-.17.23-.31.27l-.38-1.57h1.45c.46-.59.94-1.26,1.45-1.97-.63-.97-1.72-2.23-2.69-3.15.44-.46.59-.67.73-.9.23.21.46.42.69.65.69-1.22,1.43-2.86,1.87-4.03l1.51.63c-.06.13-.23.17-.46.17-.52,1.2-1.39,2.88-2.14,4.05.46.5.9,1.01,1.22,1.47.86-1.34,1.66-2.75,2.25-3.93l1.47.69c-.06.1-.23.17-.46.17-1.05,1.81-2.69,4.3-4.14,6.13l3.38-.06ZM177.82,81.36c-.04.19-.21.23-.4.21-.27,1.76-.73,3.8-1.34,5.04-.25-.17-.71-.38-1.03-.52.59-1.18,1.01-3.19,1.26-5.1l1.51.38ZM181.97,85.46c-.19-1.13-.76-2.88-1.34-4.18l1.07-.34c.61,1.3,1.18,3.02,1.39,4.14l-1.11.38ZM194.76,86.02v1.32h-9.97v1.03h-1.32v-18.64l1.72.13c-.02.13-.13.23-.4.27v15.89h9.97ZM189.16,85.62v-6.66c-.94,2.16-2.27,4.37-3.57,5.61-.13-.38-.46-.94-.69-1.28,1.39-1.28,2.9-3.67,3.74-5.84h-3.4v-1.28h3.93v-6.84l1.66.1c-.02.15-.13.23-.4.27v6.47h4.09v1.28h-4.09v.82c.9.84,3.36,3.34,3.95,3.99-.1.1-.21.23-.88,1.11-.55-.8-2.02-2.54-3.07-3.7v5.94h-1.26ZM186.57,70.93c.69,1.34,1.34,3.07,1.57,4.2l-1.15.42c-.21-1.15-.84-2.9-1.49-4.24l1.07-.38ZM194.43,71.33c-.08.1-.23.19-.46.19-.46,1.24-1.28,3.13-1.97,4.3,0-.02-.97-.44-.97-.44.63-1.22,1.45-3.23,1.87-4.64l1.53.59Z"/><path d="M203,80.61c-.1-.38-.25-.82-.44-1.3l-1.68.1v8.99h-1.26v-8.92c-1.13.04-2.14.08-2.94.13-.04.15-.17.23-.31.27l-.38-1.57h1.43c.46-.59.97-1.26,1.47-1.97-.63-.97-1.72-2.23-2.71-3.15.46-.44.61-.67.76-.9.23.21.46.42.69.65.69-1.22,1.45-2.86,1.91-4.03l1.49.63c-.08.15-.25.19-.44.17-.55,1.2-1.43,2.88-2.18,4.05.46.5.9,1.03,1.22,1.49.86-1.36,1.7-2.77,2.29-3.95l1.47.69c-.06.1-.23.19-.46.19-1.05,1.78-2.73,4.28-4.18,6.11l3.32-.06c-.34-.71-.76-1.45-1.15-2.08l1.05-.44c.92,1.39,1.85,3.21,2.16,4.39l-1.11.52ZM198.82,81.36c-.04.15-.15.23-.38.23-.27,1.76-.73,3.78-1.34,5.02-.25-.17-.73-.38-1.05-.52.59-1.18,1.01-3.19,1.26-5.1l1.51.38ZM202.79,80.94c.59,1.28,1.13,2.96,1.32,4.05l-1.13.38c-.19-1.11-.71-2.81-1.26-4.09l1.07-.34ZM208.66,79.93c0,.17-.13.25-.38.29-.23,4.16-1.53,6.95-4.64,8.23-.21-.29-.61-.78-.88-1.01,2.9-1.13,4.03-3.63,4.14-7.62l1.76.1ZM209.11,74.2v-2.04h-5.04v-1.22h5.04v-2.08l1.81.1c-.02.15-.13.25-.42.29v1.68h5.12v1.22h-5.12v2.04h4.26v1.22h-9.89v-1.22h4.24ZM215.51,80.9h-1.3v-2.71h-8.67v2.71h-1.26v-3.88h11.23v3.88ZM212,86.42c0,.5.06.59.52.59h1.39c.44,0,.52-.34.57-2.62.27.25.82.46,1.18.57-.1,2.62-.46,3.3-1.6,3.3h-1.72c-1.32,0-1.64-.4-1.64-1.83v-6.63l1.7.13c-.02.13-.13.23-.4.27v6.24Z"/><path d="M236.76,68.97c-2.29,1.91-4.16,5.42-4.16,9.66s1.93,7.81,4.16,9.66v.1h-1.26c-2.12-1.91-4.01-5.44-4.01-9.76s1.89-7.85,4.01-9.76h1.26v.1Z"/><path d="M255.54,80.02l.84.4c-.02.1-.13.17-.17.21-.65,1.74-1.66,3.21-2.92,4.41,1.32,1.03,2.94,1.81,4.75,2.25-.29.27-.69.78-.88,1.13-1.83-.52-3.49-1.41-4.85-2.54-1.47,1.13-3.15,1.97-4.89,2.52-.13-.25-.4-.65-.63-.92v.38h-1.18v-1.05h-5.5v1.32h-1.13v-13.82h2.16v-3.23h-2.9v-1.22h9.26v1.22h-3v3.23h2.29v4.18c2.04-.82,2.75-2.25,2.98-4.12l1.6.19c-.02.13-.15.21-.38.25-.31,1.93-1.05,3.63-3.42,4.66-.15-.31-.5-.76-.78-.97v4.77c1.66-1.18,3.3-3.17,4.16-5.33l1.51.48c-.04.13-.19.19-.42.19-.23.5-.48.99-.78,1.47h4.05l.23-.06ZM242.2,75.55v1.3c0,1.3-.25,3.19-1.39,4.51-.15-.17-.5-.42-.71-.52v1.36h5.5v-1.93c-.1.02-.23.04-.38.04h-.78c-.8,0-1.03-.21-1.03-1.2v-3.57h-1.22ZM241.32,75.55h-1.22v5.25c1.03-1.24,1.22-2.77,1.22-3.99v-1.26ZM240.1,85.62h5.5v-2.27h-5.5v2.27ZM242.2,71.07v3.23h1.22v-3.23h-1.22ZM245.06,79.41c.25,0,.31-.08.34-.8.06.04.13.1.21.15v-3.21h-1.3v3.55c0,.27.04.31.23.31h.52ZM246.78,87.33c1.64-.48,3.25-1.24,4.62-2.27-.76-.78-1.39-1.64-1.91-2.6-.61.65-1.24,1.24-1.89,1.7-.19-.21-.55-.57-.82-.8v3.97ZM246.97,73.07l1.85-.06c.73-1.22,1.6-2.94,2.06-4.16l1.62.57c-.04.15-.21.21-.44.21-.44.97-1.13,2.25-1.81,3.32,1.49-.06,3.15-.13,4.81-.21-.55-.55-1.13-1.07-1.68-1.51l.97-.65c1.3,1.03,2.81,2.48,3.51,3.51l-1.03.73c-.19-.29-.46-.65-.78-1.01-3.09.21-6.26.42-8.29.52,0,.15-.15.25-.27.27l-.5-1.53ZM250.31,81.47c.5,1.03,1.2,1.95,2.06,2.77.92-.86,1.7-1.89,2.25-3.04h-4.09l-.21.27ZM253.04,74.27l1.64.1c-.02.15-.13.25-.4.27v2.27c0,.4.06.44.5.44h1.45c.38,0,.46-.15.5-1.49.25.21.78.38,1.11.46-.13,1.74-.48,2.18-1.43,2.18h-1.81c-1.28,0-1.57-.34-1.57-1.57v-2.67Z"/><path d="M262.53,88.4v-12.11c-.9,1.36-1.85,2.6-2.83,3.63-.17-.36-.55-1.01-.8-1.34,2.18-2.18,4.41-5.86,5.75-9.53l1.72.59c-.08.19-.27.23-.48.19-.61,1.51-1.32,3-2.12,4.43l.61.17c-.04.15-.15.25-.42.27v13.71h-1.43ZM270.13,85.27c0,1.18.25,1.45,1.47,1.45h4.39c1.2,0,1.39-.8,1.53-3.93.36.27.92.55,1.34.63-.23,3.44-.65,4.64-2.81,4.64h-4.54c-2.16,0-2.79-.59-2.79-2.83v-15.87l1.83.13c-.02.15-.13.25-.42.29v7.79c2.48-1.39,5.04-3.09,6.61-4.58l1.15,1.34c-.08.06-.23.1-.4.06-1.76,1.49-4.66,3.17-7.37,4.6v6.28Z"/><path d="M291.22,72.71c-.08.19-.25.34-.52.34-.76,6.53-2.94,12.22-6.42,12.22-1.76,0-3.36-1.76-3.36-5.08,0-5.04,3.93-9.26,9.45-9.26,6.07,0,8.69,3.84,8.69,7.94,0,5-2.9,7.41-7.98,8.59-.19-.34-.55-.9-.88-1.28,4.83-.92,7.31-3.28,7.31-7.24,0-3.46-2.23-6.61-7.14-6.61-.21,0-.44.02-.63.04l1.49.36ZM289.2,72.44c-4.24.52-6.87,4.03-6.87,7.71,0,2.25.97,3.65,1.97,3.65,2.54,0,4.37-5.61,4.89-11.36Z"/><path d="M305.5,77.29v6.91c1.64,2.5,4.7,2.5,8.65,2.5,2.31,0,5-.04,6.63-.15-.17.31-.4.97-.44,1.39-1.45.04-3.76.08-5.84.08-4.62,0-7.52,0-9.6-2.6-.97.94-1.95,1.87-2.77,2.58.02.17-.02.25-.17.34l-.82-1.49c.9-.67,1.99-1.6,2.98-2.5v-5.71h-2.77v-1.34h4.14ZM302.68,69.42c1.32.99,2.81,2.46,3.46,3.51l-1.15.88c-.61-1.07-2.08-2.58-3.4-3.61l1.09-.78ZM312.61,85.86v-2.44h-6.19v-1.22h6.19v-1.62h-4.79v-6.84h4.79v-1.57h-5.88v-1.2h5.88v-2.08l1.78.1c-.02.15-.15.25-.42.29v1.68h6.13v1.2h-6.13v1.57h4.98v6.84h-4.98v1.62h6.47v1.22h-6.47v2.44h-1.36ZM309.15,74.85v1.76h3.46v-1.76h-3.46ZM309.15,79.49h3.46v-1.83h-3.46v1.83ZM317.59,74.85h-3.61v1.76h3.61v-1.76ZM317.59,79.49v-1.83h-3.61v1.83h3.61Z"/><path d="M327.21,85.1c1.09-.19,2.23-.36,3.36-.55l.08,1.2c-2.81.52-5.77,1.03-7.62,1.36-.02.15-.15.25-.29.29l-.48-1.57,3.67-.55v-6.17h-3.44v-1.26h3.44v-2.41h-2.25v-.44c-.21.25-.42.48-.65.71-.21-.31-.67-.73-.99-.92,1.83-1.81,3.21-4.16,3.99-5.92l1.7.27c-.02.15-.15.25-.42.25l-.04.08c1.3,1.09,2.83,2.52,3.59,3.46l-.86,1.11c-.69-.92-2.08-2.31-3.34-3.42-.61,1.13-1.36,2.37-2.31,3.57h5.29v1.24h-2.44v2.41h3.13v1.26h-3.13v5.98ZM323.94,84.41c-.06-1.07-.44-2.71-.9-3.99l1.01-.25c.5,1.26.88,2.9.99,3.95l-1.09.29ZM330.38,80.5c-.06.1-.21.19-.44.19-.25,1.01-.71,2.56-1.11,3.55l-.92-.36c.36-1.03.84-2.75,1.05-3.88l1.43.5ZM334.9,85.39c-.08.08-.21.13-.4.13-.99.99-2.94,2.16-4.58,2.88-.19-.27-.59-.71-.84-.99,1.6-.67,3.57-1.81,4.47-2.79l1.34.78ZM332,69.56c.73,1.15,1.49,2.71,1.78,3.7l-1.2.52c-.27-.99-1.01-2.58-1.72-3.78l1.13-.44ZM331.43,74.29h3.84v-5.42l1.72.13c-.02.13-.13.23-.4.27v5.02h3.99v10.16h-9.15v-10.16ZM339.22,77.31v-1.89h-6.49v1.89h6.49ZM339.22,80.31v-1.91h-6.49v1.91h6.49ZM339.22,83.34v-1.95h-6.49v1.95h6.49ZM340.75,88.4c-.8-.9-2.25-2.1-3.57-3l1.01-.71c1.39.9,2.92,2.08,3.78,2.98l-1.22.73ZM341.26,70.21c-.06.13-.21.17-.44.17-.48,1.01-1.32,2.52-1.97,3.46-.02,0-1.03-.5-1.03-.5.61-1.03,1.45-2.69,1.87-3.82l1.57.69Z"/><path d="M359.21,75.76l.99.42c-.04.13-.13.19-.21.25-.9,3.21-2.5,5.73-4.56,7.66,1.85,1.36,4.12,2.37,6.76,2.96-.34.31-.73.9-.94,1.3-2.73-.69-5.04-1.78-6.95-3.3-1.93,1.51-4.16,2.58-6.53,3.32-.15-.4-.52-.99-.82-1.3,2.25-.59,4.39-1.57,6.26-3-1.76-1.7-3.11-3.82-4.07-6.34l1.34-.42c.84,2.31,2.12,4.26,3.82,5.84,1.7-1.55,3.07-3.55,3.91-5.96h-10.77c-.06,3.49-.57,8.02-2.75,11.17-.25-.25-.84-.67-1.2-.84,2.33-3.34,2.56-8.04,2.56-11.44v-5.75h15.52v1.39h-14.11v4.12h11.48l.27-.06Z"/><path d="M383.59,73.05h-16.23v4.2c0,3.23-.27,7.96-2.08,11.17-.25-.25-.88-.65-1.22-.82,1.72-3.04,1.89-7.31,1.89-10.35v-5.54h7.92v-2.81l1.87.13c-.02.15-.13.25-.42.29v2.39h8.27v1.34ZM370.87,79.54c-.31,2.29-.86,5.14-1.97,6.84l-1.26-.61c1.09-1.64,1.66-4.28,1.95-6.53l1.28.29ZM373.79,86.11c0,.69.15.82.99.82h2.88c.86,0,1.01-.55,1.09-3.74.31.27.9.5,1.28.61-.17,3.51-.55,4.43-2.27,4.43h-3.13c-1.76,0-2.25-.46-2.25-2.12v-7.98l1.83.13c-.02.15-.15.25-.42.29v7.56ZM373.7,73.59c1.81.84,4.12,2.18,5.29,3.15l-1.03,1.05c-1.09-.97-3.38-2.37-5.21-3.28l.94-.92ZM382.52,86.44c-.36-1.85-1.64-4.75-3.02-6.93l1.26-.5c1.43,2.14,2.77,4.98,3.13,6.84l-1.36.59Z"/><path d="M385.23,88.29c2.29-1.91,4.16-5.42,4.16-9.66s-1.93-7.81-4.16-9.66v-.1h1.26c2.14,1.91,4.01,5.44,4.01,9.76s-1.87,7.85-4.01,9.76h-1.26v-.1Z"/><path d="M402.73,72.98v15.41h-6.99v-1.11h5.9v-14.3h1.09Z"/><path d="M417.72,71.73c1.57-.06,14.51-.99,17.24-1.01l.02,1.57c-.27-.02-.52-.02-.78-.02-1.22,0-2.25.21-3.59,1.07-3.15,1.89-6.19,5.27-6.19,7.98,0,2.94,2.06,4.68,7.26,5.35l-.69,1.47c-5.96-.86-8.19-3.09-8.19-6.82,0-2.96,2.92-6.55,6.76-8.97-2.31.17-8.5.63-11.21.88-.06.17-.29.31-.46.34l-.17-1.85ZM431.33,75.86c1.01.76,2.2,1.99,2.86,2.9l-.8.65c-.59-.92-1.87-2.23-2.77-2.92l.71-.63ZM433.59,74.01c1.03.76,2.25,1.97,2.86,2.9l-.8.63c-.57-.84-1.78-2.14-2.77-2.9l.71-.63Z"/><path d="M438.85,82.6c1.55,1.24,3.61,3.32,4.75,4.64l-1.26,1.15c-1.05-1.34-3.19-3.55-4.6-4.81l1.11-.99Z"/><path d="M459.83,70.84h17.43v16.78h-1.47v-1.39h-14.55v1.55h-1.41v-16.94ZM461.23,84.87h14.55v-12.64h-4.58v6.47c0,.76.08.84.78.84h1.09c1.15,0,1.18,0,1.24-2.6.27.23.73.46,1.11.57-.04.88-.1,1.91-.23,2.29-.23.57-.65.94-2.02.94h-1.47c-1.89,0-1.89-1.07-1.89-2.2v-6.3h-3c-.23,4.37-.82,7.92-4.28,9.87-.17-.34-.59-.8-.88-1.03,3.02-1.66,3.61-4.72,3.78-8.84h-4.2v12.64Z"/><path d="M499.18,81.8h-4.28c-.65,1.41-1.57,2.54-2.81,3.46,2.5.63,4.77,1.32,6.45,1.97l-.86,1.18c-1.85-.76-4.3-1.53-7.08-2.25-2.39,1.22-5.65,1.89-9.91,2.2-.1-.42-.34-.94-.57-1.26,3.51-.19,6.28-.63,8.44-1.43-1.36-.31-2.75-.61-4.18-.88l-.48.63-1.32-.48c.67-.86,1.51-1.97,2.33-3.15h-5.08v-1.22h5.92c.5-.73.99-1.47,1.41-2.12h-5.5v-5.44h4.72v-1.91h-6.38v-1.28h19.04v1.28h-6.51v1.91h4.87v5.44h-9.43l1.01.27c-.06.15-.21.21-.5.19-.34.5-.69,1.07-1.09,1.66h11.8v1.22ZM482.99,74.22v3.04h3.38v-3.04h-3.38ZM486.54,81.8c-.46.67-.94,1.34-1.41,1.97,1.76.31,3.53.67,5.21,1.07,1.3-.78,2.27-1.76,2.96-3.04h-6.76ZM487.71,71.12v1.91h3.44v-1.91h-3.44ZM487.71,77.27h3.44v-3.04h-3.44v3.04ZM495.99,74.22h-3.46v3.04h3.46v-3.04Z"/><path d="M511.17,75.86h8.99v1.13h-10.16l.21.1c-.08.13-.23.17-.46.15-.8.73-2.04,1.76-3.09,2.52.69.4,1.34.82,1.85,1.2,1.64-1.13,3.3-2.44,4.43-3.49l1.47.86c-.08.1-.25.15-.46.15-1.45,1.18-3.55,2.67-5.48,3.84,2.35-.02,4.93-.06,7.47-.1-.86-.55-1.76-1.05-2.6-1.47.73-.59.84-.69.92-.8,1.93.9,4.28,2.33,5.48,3.44l-.99.9c-.34-.34-.8-.71-1.32-1.09-2.08.08-4.2.15-6.26.19v5h-1.41v-4.96c-2.96.08-5.67.13-7.68.17-.04.17-.17.25-.31.27l-.5-1.49c1.36,0,3.13-.02,5.1-.04.34-.19.67-.4,1.03-.63-1.09-.82-2.73-1.76-4.12-2.44l.9-.8c.44.21.92.44,1.41.69.84-.61,1.76-1.45,2.5-2.18h-7.2v-1.13h8.88v-1.47h-6.24v-1.11h6.24v-1.45h-7.66v-1.13h7.66v-1.85l1.83.13c-.02.15-.15.25-.42.29v1.43h7.92v1.13h-7.92v1.45h6.42v1.11h-6.42v1.47ZM507.71,84.66c-.08.13-.25.19-.48.15-1.41,1.18-3.51,2.41-5.33,3.21-.23-.25-.71-.71-1.01-.9,1.83-.73,3.95-1.91,5.27-3.13l1.55.67ZM518.71,87.96c-1.13-.99-3.42-2.33-5.29-3.19l1.05-.78c1.83.8,4.16,2.12,5.35,3.11l-1.11.86Z"/><path d="M538.15,76.34s-.1.02-.17.02c-.15,0-.31-.04-.44-.13-6.24,1.83-11.88,4.58-11.86,7.39,0,2.02,2.23,2.71,5.63,2.71s5.96-.25,7.43-.48l.13,1.53c-1.93.25-5.06.38-7.52.38-4.16,0-7.18-.97-7.2-4.05-.02-2.25,2.23-4.22,5.52-5.92-.71-1.28-.97-3.72-.97-8.46l2.31.19c-.02.27-.23.44-.65.5-.02,3.67.1,5.96.69,7.1,1.97-.92,4.24-1.76,6.55-2.52l.55,1.74Z"/><path d="M553.13,72.35c-.02-.46-.08-2.75-.13-3.28l2.16.08c-.02.17-.17.38-.54.44,0,.25,0,.5.04,2.71,2.58-.08,5.29-.15,6.87-.17v1.45c-1.78-.04-4.33,0-6.82.08.04,1.64.08,3.15.15,4.3.21.69.25,1.32.25,2.2,0,.67-.06,1.45-.21,2.04-.55,2.46-2.35,4.62-6.05,6.09-.27-.36-.73-.88-1.07-1.2,3.21-1.15,4.93-2.9,5.46-4.89h-.02c-.44.63-1.22,1.11-2.16,1.11-1.87,0-3.53-1.53-3.53-3.67-.02-2.23,1.78-3.93,3.78-3.93.76,0,1.53.27,1.95.65,0-.36-.04-1.76-.08-2.67-2.18.04-8.82.27-9.68.31l-.04-1.39,4.79-.13,4.89-.17ZM553.53,79.72c0-.82,0-2.73-2.14-2.73-1.45.02-2.48,1.13-2.5,2.67,0,1.47,1.11,2.44,2.33,2.44,1.49,0,2.31-1.15,2.31-2.37Z"/><path d="M570.89,78.11c1.39-.71,3.55-1.22,5.21-1.22,3.34,0,5.44,1.95,5.44,5.04,0,3.8-3.34,5.9-7.56,5.9-2.73,0-4.6-1.09-4.6-2.94,0-1.55,1.53-2.81,3.44-2.81,2.37,0,3.97,1.89,4.28,3.8,1.68-.63,2.9-1.97,2.9-3.93,0-2.27-1.68-3.72-4.33-3.72-3.15,0-6.24,1.41-7.62,2.75-.63.59-1.45,1.47-2.02,2.12l-1.07-1.07c1.89-1.97,7.89-7.71,10.75-10.37-1.22.17-5.42.34-7.81.42-.06.15-.27.27-.44.31l-.17-1.78c2.83-.02,8.25-.23,9.78-.46l.32-.15,1.11,1.36c-.1.08-.29.17-.5.19-1.49,1.22-5.48,4.96-7.12,6.53v.02ZM573.79,86.51c.63,0,1.36-.08,1.91-.21-.23-1.62-1.43-2.98-2.98-2.98-1.09,0-2.06.59-2.06,1.55,0,1.28,1.74,1.64,3.13,1.64Z"/><path d="M588.89,81.22l2.31-1.05c.04.13.08.25.29,1.24-2.16,1.05-4.47,2.16-5.94,2.83,0,.17-.1.29-.23.36l-.69-1.57c.8-.31,1.81-.73,2.92-1.22v-6.95h-2.56v-1.36h2.56v-4.58l1.74.13c-.02.15-.13.23-.4.27v4.18h2.37v1.36h-2.37v6.36ZM604.24,78.91h-8.86c-.27.55-.61,1.07-.97,1.6h8.29l.29-.02.78.13-.08.42c-.36,4.56-.69,6.21-1.26,6.82-.5.52-1.03.52-2.12.52-.36,0-.78-.02-1.2-.04-.02-.36-.13-.86-.31-1.18.82.08,1.55.08,1.87.08s.48-.02.65-.21c.38-.4.69-1.81.99-5.33h-1.89c-.8,2.6-2.39,5.42-4.14,6.84-.27-.27-.69-.63-1.07-.82,1.7-1.22,3.21-3.65,4.03-6.03h-2.23c-1.11,2.27-3.17,4.66-5.12,5.94-.23-.29-.63-.67-.97-.9,1.78-1.01,3.67-3.02,4.81-5.04h-2.27c-.88,1.03-1.91,1.93-2.96,2.6-.21-.23-.63-.63-.9-.84,1.66-1.01,3.3-2.67,4.33-4.56h-3.13v-1.24h13.44v1.24ZM602.71,69.54v6.84h-9.72v-6.84h9.72ZM601.38,72.42v-1.81h-7.12v1.81h7.12ZM601.38,75.29v-1.83h-7.12v1.83h7.12Z"/><path d="M616.78,69c-.06.19-.21.27-.44.31,2.08,2.81,5.9,5.79,9.2,7.33-.34.31-.69.8-.92,1.22-3.34-1.74-7.14-4.77-9.15-7.52-1.74,2.6-5.27,5.69-8.94,7.68-.19-.31-.59-.82-.88-1.11,3.74-1.93,7.39-5.23,9.07-8.04l2.08.13ZM609.07,88.42v-8.5h12.93v8.5h-1.43v-.9h-10.12v.9h-1.39ZM610.14,75.86h10.75v1.28h-10.75v-1.28ZM620.58,81.22h-10.12v5.02h10.12v-5.02Z"/><path d="M639.08,80.4c-1.34.15-3.25.25-5.02.25-.06.73-.13,1.55-.13,1.95,0,3.36,2.23,3.63,4.18,3.63,3.3,0,4.93-.94,4.93-2.88,0-1.09-.59-2.46-1.72-3.86.4-.13,1.01-.36,1.34-.52,1.28,1.66,1.93,3.25,1.93,4.62,0,3.53-3.95,4.05-6.49,4.05-2.02,0-5.63-.15-5.63-5.04,0-.94.08-1.64.12-1.99-1.76-.06-4.6-.17-4.6-2.33,0-.94.55-1.83,1.79-2.71l1.11.65c-.92.57-1.47,1.26-1.47,1.83,0,1.11,1.68,1.15,3.28,1.2.15-1.41.34-3.07.53-4.7-1.51-.17-3.25-.59-4.41-1.15l.38-1.36c1.15.55,2.62.94,4.2,1.13.17-1.32.31-2.67.46-3.78l2.18.27c-.06.25-.29.4-.67.42-.15.88-.31,2.04-.48,3.23.61.04,1.26.06,1.93.06.8,0,1.62-.02,2.37-.08l-.06,1.39c-.63.04-1.34.06-2.06.06-.82,0-1.64-.02-2.37-.06-.21,1.57-.4,3.19-.54,4.62,1.66,0,3.51-.1,4.89-.29l.02,1.41Z"/><path d="M661.28,75.78c-.06.27-.13.55-.21.8,3.7.65,5.06,2.96,5.06,5.44,0,3.34-2.86,5.35-8.1,5.94-.08-.29-.38-.92-.57-1.26,4.35-.42,7.14-1.93,7.14-4.64v-.15c-.1-2.44-1.74-3.63-3.99-4.01-.9,2.37-2.44,4.58-4.18,6.17.15.44.34.82.54,1.13l-1.24.78c-.19-.29-.36-.65-.5-1.05-1.68,1.24-3.02,1.57-3.97,1.57-1.68,0-2.54-1.24-2.54-2.79,0-2.9,2.39-5.21,5.44-6.42-.04-1.09-.04-2.29-.02-3.53-3.55,0-3.93,0-4.62-.04l-.04-1.39c1.07.06,2.9.06,4.7.06.02-.97.06-2.14.1-3.13l2.1.15c-.02.21-.23.38-.54.42-.06.78-.11,1.74-.17,2.52,2.29-.06,6.3-.34,8.42-.88l.19,1.43c-2.22.55-6.28.76-8.67.82-.04,1.09-.06,2.14-.04,3.13,1.47-.46,2.79-.48,3.15-.48.32,0,.59,0,.86.02.08-.34.15-.65.21-.99l1.49.38ZM654.83,83.61c-.34-1.3-.53-2.96-.61-4.91-2.29,1.01-4.07,2.75-4.07,4.79,0,1.24.69,1.66,1.45,1.62.99-.02,2.12-.59,3.23-1.49ZM659.14,77.71c-.34-.02-1.97-.06-3.55.5.04,1.7.19,3.15.48,4.33,1.26-1.28,2.39-2.98,3.07-4.83Z"/><path d="M675.89,78.11c1.39-.71,3.55-1.22,5.21-1.22,3.34,0,5.44,1.95,5.44,5.04,0,3.8-3.34,5.9-7.56,5.9-2.73,0-4.6-1.09-4.6-2.94,0-1.55,1.53-2.81,3.44-2.81,2.37,0,3.97,1.89,4.28,3.8,1.68-.63,2.9-1.97,2.9-3.93,0-2.27-1.68-3.72-4.33-3.72-3.15,0-6.24,1.41-7.62,2.75-.63.59-1.45,1.47-2.02,2.12l-1.07-1.07c1.89-1.97,7.89-7.71,10.75-10.37-1.22.17-5.42.34-7.81.42-.06.15-.27.27-.44.31l-.17-1.78c2.83-.02,8.25-.23,9.78-.46l.32-.15,1.11,1.36c-.1.08-.29.17-.5.19-1.49,1.22-5.48,4.96-7.12,6.53v.02ZM678.79,86.51c.63,0,1.36-.08,1.91-.21-.23-1.62-1.43-2.98-2.98-2.98-1.09,0-2.06.59-2.06,1.55,0,1.28,1.74,1.64,3.13,1.64Z"/><path d="M695.61,85.46c0,1.62-1.32,2.94-2.94,2.94s-2.94-1.32-2.94-2.94,1.32-2.94,2.94-2.94,2.94,1.36,2.94,2.94ZM694.86,85.46c0-1.22-.96-2.18-2.18-2.18s-2.16.97-2.16,2.18.97,2.16,2.16,2.16c1.26,0,2.18-1.01,2.18-2.16Z"/><rect class="cls-1" x=".5" y=".5" width="906.94" height="62.68"/><path d="M38.89,40.04c-6.17,0-11.16-4.99-11.16-11.16s4.99-11.16,11.16-11.16,11.16,4.99,11.16,11.16-5.04,11.16-11.16,11.16ZM28.47,28.88c0,5.76,4.66,10.42,10.42,10.42s10.42-4.66,10.42-10.42-4.66-10.42-10.42-10.42-10.42,4.7-10.42,10.42ZM38.36,24.15h-.02l-2.06,1.1-.31-1.25,2.5-1.3h1.49v12.34h-1.58v-10.9Z"/><path d="M70.91,31.11l.1,5.23c0,2.83-.98,3.62-5.5,3.62-.48,0-.53-.05-.62-.29l-1.46-3.22c1.13,0,2.78-.05,3.19-.1.5-.05.65-.19.65-.77v-13.34h-11.64l-3.98.07-.17-.17v-2.83l.17-.17,3.98.07h14.59l3.96-.07.17.17v2.83l-.17.17-3.26-.05v8.83ZM57.66,33.13v1.61h-3.24l.1-4.9v-2.95l-.07-2.4.17-.17,3,.07h3.96l2.98-.07.17.17-.07,2.4v2.88l.1,4.58h-3.36v-1.22h-3.72ZM61.38,27.18h-3.72v3.17h3.72v-3.17Z"/><path d="M91.88,22.93c.07-1.22.1-2.78.1-4.87l.17-.19,2.62.05.17.17c0,.55-.02,1.08-.02,1.58l1.58-.72.24.07c.58.67.96,1.37,1.51,2.42l-.14.22-1.87.94-.19-.12c-.31-.82-.62-1.39-1.13-2.23-.02.89-.07,1.8-.12,2.69h.82l2.38-.07.14.1v2.5l-.14.12-2.38-.07h-.55c.62,3.02,2.06,5.16,3.62,6.67l-2.18,2.3.14.07c.74,1.25,1.27,2.59,1.73,4.01l-.07.29-2.52,1.08-.19-.14c-.43-1.73-.84-2.9-1.44-4.13l.1-.24,2.11-.89c-.07,0-.12-.07-.19-.17-1.27-1.56-2.14-3.1-2.66-5.06-.89,2.57-2.35,4.2-4.15,5.4-.1.07-.17.1-.26.1-.07,0-.14-.02-.24-.12l-1.99-1.9c2.38-1.37,3.91-3.38,4.49-5.71.12-.48.22-.96.31-1.56h-1.42c-.41,1.39-.91,2.64-1.54,3.77-1.13,1.99-2.78,3.58-4.82,4.75-.12.07-.19.1-.26.1-.1,0-.19-.07-.34-.22l-1.68-1.8c1.63-.89,2.93-1.9,3.89-3.1-.41-.34-.82-.65-1.25-.96-.14.22-.29.43-.43.62-.12.17-.22.22-.31.22s-.19-.05-.29-.14l-1.78-1.56c.82-.98,1.54-2.23,2.11-3.62-.72.79-1.46,1.58-2.26,2.3-.05,2.59-.14,4.34-.34,5.69-.02.19-.05.36-.1.55,1.01.91,1.9,1.87,2.71,2.93.05-.12.1-.22.12-.34l.17-.12,2.35.94.07.24c-.53,1.73-1.1,3.19-1.85,4.54h-.19l-2.45-1.2-.02-.24c.55-.91,1.2-2.23,1.63-3.31l-1.92,1.82-.26-.07c-.31-.6-.72-1.22-1.2-1.85-.6,1.66-1.39,3.12-2.35,4.34-.07.1-.14.12-.22.12s-.17-.05-.24-.14l-1.75-2.23c1.22-1.49,2.26-3.34,2.66-6.53.22-1.51.29-3.14.29-6.6,0-1.66-.02-3.74-.05-6.43l.17-.19h2.62l.17.17v4.51c.24-.36.5-.74.72-1.1h.19l1.58,1.54c.58-1.54,1.01-3.24,1.25-5.04l.22-.1,2.35.58.17.17c-.1.58-.19,1.13-.31,1.68h1.25l1.1-.07.98.98c.24.24.22.38.17.7-.05.38-.12.77-.17,1.15h1.08ZM77.98,23.09l.07.29c0,2.57-.22,4.49-.7,6.74l-.17.07-1.68-.94-.07-.19c.38-1.92.58-4.46.65-6.62l.22-.1,1.68.74ZM87.08,26.17c-.43-.29-.89-.55-1.34-.79-.14.31-.29.6-.46.91.48.24.94.53,1.39.84.14-.31.29-.65.41-.96ZM88.79,35.02l.19.14c.46,1.13.84,2.64,1.13,4.08l-.12.24-2.64.6-.1-.14c-.24-1.75-.53-3.05-.91-4.13l.1-.22,2.35-.58ZM86.82,22.57c-.1.31-.22.62-.31.94.43.17.84.36,1.25.55.12-.48.24-.98.34-1.49h-1.27ZM92.53,34.76l.17.05c.65,1.27,1.13,2.69,1.49,4.06l-.1.22-2.59.74-.14-.12c-.34-1.63-.74-2.76-1.18-4.01l.07-.24,2.28-.7Z"/><path d="M118.19,24.42c-.46,4.94-1.49,7.82-2.83,10.06-1.22,2.04-2.64,3.53-4.73,5.06-.24.17-.41.24-.55.24-.12,0-.22-.07-.34-.17l-1.9-1.87c1.9-1.27,3.48-2.64,4.82-4.61,1.22-1.8,2.28-4.32,2.69-8.71h-.55c-.38,3.1-1.08,4.66-1.78,5.93-.79,1.44-1.85,2.81-3.05,3.86-.22.17-.34.24-.46.24-.07,0-.14-.05-.22-.12l-1.92-1.82c1.37-.98,2.4-2.14,3.17-3.5.65-1.15,1.08-2.21,1.54-4.58h-.36c-.65,1.56-1.37,2.93-2.06,3.94-.17.24-.31.36-.43.36-.1,0-.19-.05-.29-.14l-2.02-1.63c.31-.41.6-.86.89-1.37l-1.32-.05v3.65c.67-.22,1.37-.43,2.09-.67l-.02,2.52c0,.29-.1.41-.34.5-.5.22-1.08.43-1.73.67l.12,8.04h-3.22l.1-7.01c-.89.31-1.82.6-2.74.89l-.22-.05-1.25-2.86.14-.24c1.42-.31,2.74-.62,4.08-.96v-4.51h-.67c-.19,1.37-.38,2.62-.6,3.65-.05.19-.14.29-.31.29-.1,0-.24-.02-.38-.12l-2.18-1.15c.5-2.4.89-5.33.98-8.3l.17-.05,2.59.62.07.26c-.05.65-.12,1.3-.19,1.92h.53v-4.97l.14-.19h2.69l.14.17v4.97l1.7-.05.12.12v1.92c1.08-2.16,1.97-4.85,2.35-7.01l.19-.14,2.83.65.07.24c-.26,1.13-.6,2.26-.98,3.34h5.81l2.9-.07.19.22c-.05,5.21-.02,11.18-.46,13.92-.22,1.37-.53,2.4-1.2,3.14-.67.74-1.51,1.22-4.06,1.22-.38,0-.55-.07-.67-.36l-1.27-2.9c1.08.02,1.73.02,2.5-.05.89-.07,1.27-.29,1.49-1.49.43-2.42.48-6.7.46-10.87h-.29Z"/><path d="M206.89,40.04c-6.17,0-11.16-4.99-11.16-11.16s4.99-11.16,11.16-11.16,11.16,4.99,11.16,11.16-5.04,11.16-11.16,11.16ZM196.47,28.88c0,5.76,4.66,10.42,10.42,10.42s10.42-4.66,10.42-10.42-4.66-10.42-10.42-10.42-10.42,4.7-10.42,10.42ZM202.69,34.93v-1.01l1.34-1.2c3.96-3.48,5.09-4.66,5.11-6.26,0-1.13-.62-2.47-2.74-2.47-1.15,0-2.21.58-2.9,1.13l-.5-1.13c1.03-.86,2.35-1.34,3.74-1.34,3.02,0,4.01,2.11,4.01,3.53,0,2.35-1.66,3.84-4.94,6.67l-.86.7v.05h6.14v1.34h-8.4Z"/><path d="M227.41,22.71h.43l2.06-.07.24.19-.07,3.38v1.25c1.39-.65,2.4-1.68,2.71-3.22-.6.05-1.2.12-1.8.17l-.22-.07-.7-2.5.17-.22c.65-.02,1.27-.02,1.9-.05.58-1.25,1.18-2.74,1.54-4.13l.22-.1,2.9.77.07.22c-.5,1.06-1.03,2.09-1.61,3.07.91-.07,1.8-.14,2.71-.26-.29-.34-.62-.65-1.01-.98l.02-.22,1.85-1.27.29.07c1.37,1.22,2.35,2.4,3.41,3.94l-.07.24-2.04,1.46-.29-.02c-.24-.41-.46-.79-.67-1.13-.14.05-.26.07-.41.1v2.28c0,.5.05.55.43.55.43,0,.62-.05.77-1.54l2.16.91c.24.1.26.17.24.41-.1,1.32-.24,1.7-.7,2.26-.41.5-1.1.67-2.86.67-2.38,0-3.07-.19-3.07-2.38l.05-1.85v-.82c-.62.07-1.25.17-1.87.24l1.2.48.07.22c-.19,1.3-.74,2.42-1.51,3.31l2.47.91.05.26c-.12.29-.24.6-.38.89h2.02l1.75-.12,1.37,1.3c.1.07.12.14.12.26,0,.1-.02.22-.12.41-.72,1.51-1.51,2.81-2.45,3.91,1.08.55,2.3,1.01,3.77,1.42l-1.68,2.54c-.14.19-.26.31-.48.31-.07,0-.17-.02-.29-.07-1.3-.58-2.52-1.27-3.6-2.11-1.42,1.03-3.1,1.8-5.16,2.4-.1.02-.17.05-.24.05-.14,0-.22-.07-.36-.26l-1.46-1.99-2.62-.05h-4.01v1.85h-2.62l.12-8.69v-5.09l-.07-3.41.17-.17,2.06.07h.43v-1.7h-.38l-2.66.07-.17-.14v-2.33l.14-.14,2.69.07h5.4l2.69-.07.14.12v2.38l-.14.12-2.69-.07h-.36v1.7ZM227.1,30.75c-1.56,0-1.78-.41-1.78-2.38v-3.43h-.5v1.34c0,3.34-.31,4.3-1.34,5.26-.1.1-.14.14-.22.14-.1,0-.17-.1-.29-.26l-.31-.46v1.39h4.82v-1.61h-.38ZM222.66,24.94v4.37c.5-.6.58-1.32.58-2.98v-1.39h-.58ZM222.66,34.78v.89h4.82v-.89h-4.82ZM224.82,21.01v1.7h.5v-1.7h-.5ZM227.48,24.94h-.55v2.59c0,.41.05.46.5.46h.05v-3.05ZM230.07,33.94c1.66-1.51,2.86-3.41,3.6-5.52-.58.6-1.22,1.06-1.87,1.39-.12.07-.22.1-.29.1-.17,0-.29-.1-.38-.22l-1.06-1.25v5.5ZM230.15,37.71c1.46-.41,2.9-.94,4.2-1.78-.34-.38-.65-.82-.94-1.27-.48.6-.96,1.13-1.49,1.58-.14.12-.24.19-.34.19-.07,0-.17-.07-.29-.19l-1.2-1.2.05,2.66ZM235.14,32.43c.34.62.79,1.2,1.27,1.7.46-.53.84-1.08,1.18-1.7h-2.45Z"/><path d="M254.65,28.4l.02.22c-.62.7-1.25,1.34-1.92,1.99.43.24.84.53,1.25.79,1.1-1.1,2.11-2.23,2.98-3.34l.26-.02,2.54,1.37.05.24c-.98,1.01-1.94,1.92-2.9,2.76,1.1-.05,2.18-.1,3.29-.14-.34-.31-.67-.62-1.03-.91l.05-.24,1.99-1.3h.26c1.75,1.32,3.26,2.86,4.51,4.49l-.05.24-2.33,1.61-.24-.05c-.38-.58-.79-1.13-1.2-1.66-1.9.12-3.79.22-5.69.31v1.8l.12,3.82h-3.65l.12-3.82v-1.63c-2.74.14-5.57.26-8.4.41l-.22-.12-.96-2.5.17-.19h7.2c-1.27-.79-2.54-1.44-4.08-2.14v-.24l1.51-1.7.24-.07c.6.26,1.15.55,1.7.82.38-.43.72-.89,1.06-1.37h-3.77l-3.62.07-.17-.14v-2.23l.14-.17,3.65.1h5.47v-.86h-2.57l-3.38.07-.17-.14v-1.97l.14-.17,3.41.1h2.57v-.86h-4.75l-3.38.07-.17-.14v-2.21l.14-.17,3.41.07h4.75v-1.66l.17-.19h3.12l.19.17v1.68h4.82l3.65-.07.14.14v2.26l-.14.12-3.65-.07h-4.82v.86h2.59l3.65-.1.14.14v2.02l-.14.12-3.65-.07h-2.59v.86h5.71l3.65-.1.14.14v2.28l-.14.12-3.65-.07h-8.64l1.08.58ZM252.06,37.18c-1.78,1.15-3.98,2.16-6.05,2.83-.12.05-.22.07-.29.07-.14,0-.22-.1-.36-.26l-1.75-2.16c2.42-.67,4.22-1.39,5.95-2.35h.24l2.26,1.63v.24ZM264.06,40.04l-.29.1c-1.9-1.2-4.13-2.28-6.12-2.95l.02-.26,1.75-1.9.26-.07c1.87.58,4.18,1.58,6.05,2.66l.07.24-1.75,2.18Z"/><path d="M272.84,38.29c2.26-1.32,3.74-2.83,4.99-4.44l.26-.07,2.54,1.58.07.26c-1.75,2.11-3.46,3.67-5.18,4.7-.17.1-.34.17-.5.17-.14,0-.26-.05-.41-.17l-1.78-1.58v1.66h-3.34l.12-7.42v-2.64c-.31.7-.53,1.13-.89,1.73-.1.17-.19.24-.29.24-.12,0-.22-.1-.26-.26l-.86-3.31c1.78-3.24,3.17-6.98,3.86-11.21l.22-.12,2.9.65.12.22c-.5,2.06-1.01,3.84-1.58,5.45v14.57ZM289.35,22.61l.14.12v2.83l-.14.12-3.12-.07v4.73h.41l3.24-.07.14.12v2.86l-.14.12-3.24-.07h-9.87l-3.34.07-.14-.14v-2.81l.12-.14,3.22.07v-4.73l-2.86.07-.14-.14v-2.78l.12-.14,2.88.07v-4.7l.17-.17h3.02l.17.17v4.7h2.88v-4.7l.17-.17h3.02l.17.17v4.7l3.12-.07ZM282.87,25.61h-2.88v4.73h2.88v-4.73ZM287.17,40.4h-.29c-1.25-1.66-2.95-3.46-4.56-4.85v-.22l2.26-1.63.29.02c1.66,1.3,3.34,2.81,4.75,4.44v.24l-2.45,1.99Z"/><path d="M294.63,32.07l.14.17c-.14,2.45-.41,4.46-.91,6.29-.07.26-.17.36-.31.36-.07,0-.14-.02-.26-.07l-2.02-.91c.55-1.97.89-3.86.94-6.12l.14-.12,2.28.41ZM298.28,18.61c-.84,1.61-1.82,3.31-2.69,4.58.22.17.43.36.67.53.55-.98,1.1-1.99,1.68-3.1l.22-.1,2.47,1.3.1.22c-1.3,2.23-2.81,4.37-4.1,6.05.55-.05,1.08-.1,1.61-.14-.12-.38-.26-.77-.41-1.1l.1-.19,1.78-.7.22.07c.58,1.2,1.22,2.88,1.54,4.39l-.1.22-1.99.77-.22-.14c-.07-.34-.14-.7-.24-1.06l-.86.14v4.13l.12,5.9h-3.14l.12-5.9v-3.7c-.94.14-1.94.24-3,.36l-.22-.12-.53-2.52.17-.17c.6,0,1.2-.02,1.78-.05.5-.72,1.01-1.44,1.46-2.18-1.08-1.01-2.16-1.87-3.48-2.69l-.02-.19,1.27-1.92.22-.02c.22.12.43.24.65.38.67-1.37,1.27-2.71,1.82-4.22l.22-.1,2.71,1.06.1.22ZM300.23,31.52l.22.1c.46,1.3.89,3.05,1.13,4.54l-.1.22-2.16.72-.17-.12c-.19-1.7-.55-3.55-.89-4.75l.12-.17,1.85-.53ZM303.42,26.81c-.31.29-.62.58-.94.84-.19.17-.36.26-.5.26-.12,0-.24-.07-.36-.22l-1.85-2.04c2.64-2.04,4.75-4.99,6.07-8.26l.24-.07,2.93.84.07.22c-.12.29-.22.58-.34.84,1.44,2.21,3.46,4.08,6.07,5.69l-1.68,2.35c-.24.31-.36.48-.5.48-.1,0-.22-.07-.38-.22-.38-.31-.77-.62-1.13-.94v1.75l-.14.12-2.26-.07h-2.9l-2.23.07-.17-.14v-1.51ZM305.19,38.67v1.46h-3.34l.12-5.26v-2.16l-.07-2.59.14-.17,2.98.07h4.78l2.95-.07.17.17-.07,2.59v2.26l.12,5.02h-3.48v-1.32h-4.3ZM305.82,25.76h2.9l1.46-.05c-1.13-1.08-2.09-2.3-2.93-3.62-.77,1.3-1.7,2.52-2.74,3.62l1.3.05ZM309.49,32.67h-4.3v3.31h4.3v-3.31Z"/><path d="M318.54,28.78l-.29.07c-.98-.91-2.06-1.78-2.93-2.3l-.07-.19,1.75-2.14.29-.07c.96.46,2.09,1.27,3.05,1.99l.07.24-1.87,2.4ZM315.42,38.36c1.13-2.4,1.7-4.13,2.54-7.68l2.4,1.58c.24.17.24.34.19.58-.55,2.3-1.18,4.51-2.18,7.13l-.22.12-2.66-1.54-.07-.19ZM319.19,22.61l-.29.05c-.84-.86-1.85-1.75-2.88-2.4l-.05-.19,1.85-2.04.29-.05c.91.53,1.87,1.22,3.02,2.14l.05.24-1.99,2.26ZM329.43,32.24l-3.31.1-.17-.19.07-3.29v-3.38l-.07-2.62.17-.19,2.9.07c.14-.5.29-1.01.41-1.54h-4.37v5.59c0,6.41-.96,9.67-2.95,12.6-.1.14-.17.19-.29.19-.07,0-.17-.02-.26-.12l-2.16-1.8c1.51-2.47,2.54-4.99,2.54-9.72v-6.19l-.07-3.22.17-.17,3.6.07h9.17l3.36-.07.19.14v2.62l-.19.14-3.36-.07h-1.97c-.19.53-.41,1.06-.62,1.56h1.03l3.43-.1.17.19-.07,2.62v3.38l.07,3.29-.17.19-3.43-.1h-.24v2.38l.12,3.07c0,2.14-.98,2.71-3.7,2.71-.41,0-.53-.05-.62-.26l-1.25-2.64c-.34.55-.74,1.1-1.2,1.75-.1.1-.19.17-.31.17-.1,0-.19-.02-.34-.12l-2.16-1.3c1.32-1.56,2.14-3.07,2.78-4.9l.22-.1,2.45.82.12.19c-.43,1.3-.86,2.3-1.49,3.34.7,0,1.13,0,1.51-.05.5-.05.65-.19.65-.72v-4.34h-.36ZM329.05,26.36h4.56v-1.22h-4.56v1.22ZM329.05,29.84h4.56v-1.27h-4.56v1.27ZM336.03,39.03l-.24-.1c-.7-1.82-1.61-3.53-2.54-4.8l.1-.19,2.04-1.15.24.05c1.08,1.2,2.16,2.86,2.95,4.63l-.14.19-2.4,1.37Z"/><path d="M362.05,17.84c-2.62,2.18-4.75,6.19-4.75,11.04s2.21,8.93,4.75,11.04v.12h-1.44c-2.42-2.18-4.58-6.22-4.58-11.16s2.16-8.98,4.58-11.16h1.44v.12Z"/><path d="M372.83,22.9c-.05.17-.22.29-.5.31-.65,3.48-1.97,6.05-7.39,7.37-.17-.41-.58-1.03-.89-1.34,4.94-1.08,6.22-3.24,6.67-6.55l2.11.22ZM375.66,32.77v5.02h9.96v1.51h-21.43v-1.51h9.82v-5.02h-7.22v-1.49h16.39v1.49h-7.51ZM366.34,22.13v3.29h-1.61v-4.78h9.26v-2.93l2.14.14c-.02.17-.17.29-.48.34v2.45h9.36v4.78h-1.66v-3.29h-17.02ZM376.79,22.49l2.06.12c-.02.17-.14.29-.48.34v4.39c0,.58.17.7,1.22.7h3.62c.77,0,.91-.22.98-1.63.34.24.98.46,1.44.55-.19,1.99-.67,2.5-2.23,2.5h-3.96c-2.14,0-2.66-.43-2.66-2.09v-4.87Z"/><path d="M409.26,21.77h-16.13c-1.1,2.18-2.5,4.13-4.01,5.5-.31-.29-.94-.74-1.34-.98,2.23-1.87,4.13-5.14,5.21-8.59l2.04.55c-.05.17-.24.26-.53.26-.22.62-.46,1.25-.7,1.85h15.46v1.42ZM391.88,30.22c1.54.84,3.19,1.87,4.78,2.95,1.15-1.22,2.16-2.57,2.95-3.98l1.87.72c-.07.19-.34.24-.58.22-.82,1.42-1.82,2.74-2.98,3.96,1.82,1.32,3.43,2.66,4.49,3.82l-1.3,1.22c-1.01-1.15-2.57-2.54-4.34-3.89-2.14,2.02-4.66,3.7-7.27,4.94-.24-.34-.77-.91-1.13-1.2,2.57-1.13,5.04-2.71,7.13-4.68-1.56-1.1-3.22-2.16-4.78-3.02l1.15-1.06ZM390.03,27.29h15.82c.02,6.41.38,11.16,2.3,11.16.5,0,.62-1.39.67-3.5.34.36.82.74,1.15.94-.17,3.07-.5,4.15-1.92,4.15-3.17,0-3.7-4.54-3.84-11.33h-14.19v-1.42ZM406.91,25.21h-14.09v-1.39h14.09v1.39Z"/><path d="M413,33.42c1.78,1.42,4.13,3.79,5.42,5.3l-1.44,1.32c-1.2-1.54-3.65-4.06-5.26-5.5l1.27-1.13Z"/><path d="M455.51,30.46l.96.46c-.02.12-.14.19-.19.24-.74,1.99-1.9,3.67-3.34,5.04,1.51,1.18,3.36,2.06,5.42,2.57-.34.31-.79.89-1.01,1.3-2.09-.6-3.98-1.61-5.54-2.9-1.68,1.3-3.6,2.26-5.59,2.88-.14-.29-.46-.74-.72-1.06v.43h-1.34v-1.2h-6.29v1.51h-1.3v-15.79h2.47v-3.7h-3.31v-1.39h10.58v1.39h-3.43v3.7h2.62v4.78c2.33-.94,3.14-2.57,3.41-4.7l1.82.22c-.02.14-.17.24-.43.29-.36,2.21-1.2,4.15-3.91,5.33-.17-.36-.58-.86-.89-1.1v5.45c1.9-1.34,3.77-3.62,4.75-6.1l1.73.55c-.05.14-.22.22-.48.22-.26.58-.55,1.13-.89,1.68h4.63l.26-.07ZM440.27,25.35v1.49c0,1.49-.29,3.65-1.58,5.16-.17-.19-.58-.48-.82-.6v1.56h6.29v-2.21c-.12.02-.26.05-.43.05h-.89c-.91,0-1.18-.24-1.18-1.37v-4.08h-1.39ZM439.26,25.35h-1.39v6c1.18-1.42,1.39-3.17,1.39-4.56v-1.44ZM437.86,36.87h6.29v-2.59h-6.29v2.59ZM440.27,20.24v3.7h1.39v-3.7h-1.39ZM443.53,29.77c.29,0,.36-.1.38-.91.07.05.14.12.24.17v-3.67h-1.49v4.06c0,.31.05.36.26.36h.6ZM445.5,38.82c1.87-.55,3.72-1.42,5.28-2.59-.86-.89-1.58-1.87-2.18-2.98-.7.74-1.42,1.42-2.16,1.94-.22-.24-.62-.65-.94-.91v4.54ZM445.71,22.52l2.11-.07c.84-1.39,1.82-3.36,2.35-4.75l1.85.65c-.05.17-.24.24-.5.24-.5,1.1-1.3,2.57-2.06,3.79,1.7-.07,3.6-.14,5.5-.24-.62-.62-1.3-1.22-1.92-1.73l1.1-.74c1.49,1.18,3.22,2.83,4.01,4.01l-1.18.84c-.22-.34-.53-.74-.89-1.15-3.53.24-7.15.48-9.48.6,0,.17-.17.29-.31.31l-.58-1.75ZM449.53,32.12c.58,1.18,1.37,2.23,2.35,3.17,1.06-.98,1.94-2.16,2.57-3.48h-4.68l-.24.31ZM452.65,23.89l1.87.12c-.02.17-.14.29-.46.31v2.59c0,.46.07.5.58.5h1.66c.43,0,.53-.17.58-1.7.29.24.89.43,1.27.53-.14,1.99-.55,2.5-1.63,2.5h-2.06c-1.46,0-1.8-.38-1.8-1.8v-3.05Z"/><path d="M471.66,25.71h10.27v1.3h-11.62l.24.12c-.1.14-.26.19-.53.17-.91.84-2.33,2.02-3.53,2.88.79.46,1.54.94,2.11,1.37,1.87-1.3,3.77-2.78,5.06-3.98l1.68.98c-.1.12-.29.17-.53.17-1.66,1.34-4.06,3.05-6.26,4.39,2.69-.02,5.64-.07,8.54-.12-.98-.62-2.02-1.2-2.98-1.68.84-.67.96-.79,1.06-.91,2.21,1.03,4.9,2.66,6.26,3.94l-1.13,1.03c-.38-.38-.91-.82-1.51-1.25-2.38.1-4.8.17-7.15.22v5.71h-1.61v-5.66c-3.38.1-6.48.14-8.79.19-.05.19-.19.29-.36.31l-.58-1.7c1.56,0,3.58-.02,5.83-.05.38-.22.77-.46,1.18-.72-1.25-.94-3.12-2.02-4.7-2.78l1.03-.91c.5.24,1.06.5,1.61.79.96-.7,2.02-1.66,2.86-2.5h-8.23v-1.3h10.15v-1.68h-7.13v-1.27h7.13v-1.66h-8.76v-1.3h8.76v-2.11l2.09.14c-.02.17-.17.29-.48.34v1.63h9.05v1.3h-9.05v1.66h7.34v1.27h-7.34v1.68ZM467.7,35.77c-.1.14-.29.22-.55.17-1.61,1.34-4.01,2.76-6.1,3.67-.26-.29-.82-.82-1.15-1.03,2.09-.84,4.51-2.18,6.02-3.58l1.78.77ZM480.27,39.54c-1.3-1.13-3.91-2.66-6.05-3.65l1.2-.89c2.09.91,4.75,2.42,6.12,3.55l-1.27.98Z"/><path d="M490.26,23c-1.75,1.15-3.72,2.21-5.71,3.02-.19-.36-.58-.96-.89-1.27,4.18-1.61,8.3-4.37,10.32-6.94l2.33.12c-.05.17-.24.26-.46.31,2.4,2.52,6.7,4.97,10.37,6.19-.34.38-.74.96-.96,1.39-1.78-.67-3.74-1.66-5.54-2.76v1.22h-9.46v-1.3ZM501.06,26.26l1.15.55c-.05.1-.14.22-.24.31-.62,1.15-1.63,2.88-2.59,4.42h3.12v8.52h-1.63v-.98h-11.83v.98h-1.61v-8.52h10.1c.72-1.15,1.54-2.59,2.16-3.74h-12.72v-1.44h13.75l.34-.1ZM500.87,37.64v-4.66h-11.83v4.66h11.83ZM499.43,22.9c-1.8-1.13-3.43-2.4-4.63-3.65-1.06,1.2-2.59,2.47-4.37,3.65h9Z"/><path d="M529.55,22.49h-13.08c-.46,1.01-.96,1.99-1.51,2.95h11.59v12.48c0,2.04-.96,2.09-5.26,2.09-.07-.46-.31-1.15-.55-1.61.84.02,1.63.02,2.28.02,1.73,0,1.92,0,1.92-.53v-2.74h-10.15v4.85h-1.61v-11.88c-1.22,1.63-2.64,3.1-4.3,4.3-.24-.36-.74-.96-1.08-1.3,2.98-2.09,5.26-5.26,6.82-8.64h-6.31v-1.56h6.98c.43-1.06.77-2.14,1.06-3.19l2.09.53c-.05.17-.24.26-.53.26-.24.79-.5,1.58-.82,2.4h12.46v1.56ZM524.94,29.6v-2.69h-10.15v2.69h10.15ZM514.79,33.75h10.15v-2.74h-10.15v2.74Z"/><path d="M541.14,31.06l-3.38.74v8.23h-1.58v-7.87c-1.32.29-2.52.55-3.48.74-.02.17-.14.31-.31.36l-.62-1.85c1.2-.19,2.74-.48,4.42-.82v-6.19h-2.38c-.24,1.44-.53,2.76-.89,3.77-.31-.22-.84-.5-1.2-.67.67-1.94,1.03-5.3,1.27-8.45l1.87.41c-.05.17-.22.24-.5.26-.07,1.01-.19,2.09-.31,3.12h2.14v-5.09l2.04.12c-.02.17-.14.29-.46.34v4.63h3.05v1.56h-3.05v5.9l3.24-.65.14,1.39ZM552.59,22.47l.86.07c0,.14-.02.38-.05.55-.46,11.23-.86,14.93-1.78,16.06-.46.65-.96.91-2.54.91-.53,0-1.13-.02-1.73-.05-.02-.48-.19-1.18-.46-1.61,1.08.07,2.04.1,2.47.1.41,0,.62-.07.86-.41.7-.82,1.18-4.32,1.56-14.09h-1.87c-.7,5.81-2.35,12.65-4.92,16.06-.34-.26-.94-.62-1.39-.79,2.64-3.17,4.25-9.6,4.97-15.27h-2.06c-.91,4.92-2.76,10.75-5.16,13.73-.36-.29-.96-.6-1.44-.79,2.42-2.74,4.27-8.14,5.18-12.94h-1.92c-.62,2.04-1.42,3.89-2.35,5.28-.26-.26-.86-.67-1.22-.91,1.66-2.38,2.81-6.53,3.43-10.7l1.99.43c-.05.17-.22.26-.53.26-.24,1.39-.53,2.78-.89,4.13h8.59l.38-.02Z"/><path d="M565.04,18.44c-.07.19-.31.38-.74.41-.17,1.06-.38,2.3-.6,3.24,2.35-.14,4.97-.55,7.06-1.18l.26,1.63c-2.23.55-4.87.94-7.63,1.15-1.15,4.61-2.74,8.35-5.09,11.81l-1.61-.65c2.18-3.14,3.84-6.74,4.87-11.11h-4.78v-1.56h2.86c.74,0,1.51-.02,2.21-.02.29-1.27.5-2.64.67-4.06l2.52.34ZM571.43,28.66c.02,1.94.17,3.26.31,4.92,1.54.6,3.53,1.63,5.11,2.78l-.86,1.54c-1.32-1.01-2.95-1.94-4.25-2.52,0,2.4-.96,4.27-4.49,4.27-2.66,0-4.71-1.2-4.68-3.46,0-2.4,2.52-3.55,4.73-3.55.86,0,1.75.17,2.71.43-.1-1.54-.22-3.1-.22-4.22l1.63-.19ZM570.11,34.66c-.98-.38-1.99-.55-2.86-.55-1.44,0-3.14.58-3.17,2.06,0,1.37,1.34,2.02,3.22,2.02,1.73,0,2.83-.84,2.83-2.42,0-.38,0-.74-.02-1.1ZM576.68,26.19c-2.71.02-6,.46-8.5,1.18l-.26-1.51c2.74-.79,6.05-1.3,8.67-1.3l.1,1.63Z"/><path d="M598.5,26.26s-.12.02-.19.02c-.17,0-.36-.05-.5-.14-7.13,2.09-13.59,5.23-13.56,8.45,0,2.3,2.54,3.1,6.43,3.1s6.82-.29,8.5-.55l.14,1.75c-2.21.29-5.78.43-8.59.43-4.75,0-8.21-1.1-8.23-4.63-.02-2.57,2.54-4.82,6.31-6.77-.82-1.46-1.1-4.25-1.1-9.67l2.64.22c-.02.31-.26.5-.74.58-.02,4.2.12,6.82.79,8.11,2.26-1.06,4.85-2.02,7.49-2.88l.62,1.99ZM595.43,18.77c1.25,1.08,2.4,2.45,3.05,3.58l-1.03.7c-.62-1.1-1.73-2.52-2.95-3.58l.94-.7ZM598.64,17.41c1.25,1.1,2.33,2.35,3,3.55l-.98.67c-.67-1.15-1.75-2.47-2.93-3.5l.91-.72Z"/><path d="M603.73,39.92c2.62-2.18,4.75-6.19,4.75-11.04s-2.21-8.93-4.75-11.04v-.12h1.44c2.45,2.18,4.58,6.22,4.58,11.16s-2.14,8.98-4.58,11.16h-1.44v-.12Z"/><path d="M674.89,40.04c-6.17,0-11.16-4.99-11.16-11.16s4.99-11.16,11.16-11.16,11.16,4.99,11.16,11.16-5.04,11.16-11.16,11.16ZM664.47,28.88c0,5.76,4.66,10.42,10.42,10.42s10.42-4.66,10.42-10.42-4.66-10.42-10.42-10.42-10.42,4.7-10.42,10.42ZM671.22,32.96c.53.34,1.75.84,3,.84,2.57,0,3.07-1.61,3.07-2.3,0-1.97-2.06-2.45-3.6-2.45h-1.01v-1.25h1.06c1.44,0,3.05-.58,3.05-1.99,0-.84-.55-1.82-2.38-1.82-1.06,0-2.11.41-2.71.84l-.43-1.18c.7-.5,2.06-1.01,3.43-1.01,2.74,0,3.75,1.54,3.75,2.9,0,1.27-.84,2.3-2.38,2.81v.05c1.7.34,2.9,1.56,2.9,3.1,0,1.75-1.49,3.62-4.78,3.62-1.56,0-2.83-.5-3.41-.91l.43-1.25Z"/><path d="M687.58,38.74l-.1-.22c1.01-1.34,1.71-2.69,2.26-4.18l.19-.07,2.76,1.03.02.26c-.46,1.61-1.3,3.36-2.21,4.68l-.26.05-2.66-1.56ZM696.63,17.74l.17-.22h3.14l.19.19v2.47h4.58l3.91-.07.17.17v2.71l-.17.17-3.91-.07h-4.58v1.92h3.74l3.46-.07.19.17-.07,2.62v2.86l.07,2.76-.22.14-3.43-.07h-10.08l-3.43.07-.17-.14.07-2.76v-2.86l-.07-2.66.17-.12,3.43.07h2.83v-7.27ZM693.71,27.8v2.78h10.22v-2.78h-10.22ZM695.27,40.11l-.24-.12c-.24-1.56-.67-3.22-1.18-4.46l.14-.22,2.69-.74.24.17c.62,1.32,1.15,2.88,1.42,4.32l-.12.24-2.95.82ZM701.24,40.04l-.24-.1c-.53-1.68-1.15-3.05-1.8-4.2l.1-.22,2.57-1.13.26.1c.79,1.18,1.58,2.83,1.99,4.06l-.07.24-2.81,1.25ZM707.58,40.06l-.26-.05c-.74-1.46-1.7-2.93-2.74-4.15l.05-.24,2.4-1.44.24.02c1.25,1.3,2.18,2.5,3,3.91l-.05.24-2.64,1.7Z"/><path d="M724.64,18.03c0,4.06-.05,6.6-.24,8.64,1.25,5.16,4.97,8.88,10.23,10.63l-2.26,2.9c-.1.12-.19.17-.29.17s-.19-.05-.29-.1c-3.98-1.75-6.99-4.46-8.67-8.35-1.58,4.37-5.62,7.32-9.31,8.5-.1.02-.17.05-.24.05-.14,0-.26-.07-.38-.22l-2.09-2.59c4.9-1.54,8.21-4.15,9.22-8.4.65-2.71.77-5.33.67-11.21l.19-.19h3.26l.19.17ZM718.47,24.27l.02.29c-.67,2.09-1.42,3.7-2.76,5.66h-.29l-2.59-1.63-.02-.22c1.2-1.68,1.92-3.19,2.54-5.11l.31-.02,2.78,1.03ZM732.68,24.17l.05.24c-1.18,2.47-1.85,3.53-3.1,5.14-.14.19-.29.24-.41.24-.14,0-.26-.05-.36-.12l-2.35-1.51c1.25-1.61,2.21-3.24,3-5.33l.22-.05,2.95,1.39Z"/><path d="M738.54,28.78l-.29.07c-.98-.91-2.06-1.78-2.93-2.3l-.07-.19,1.75-2.14.29-.07c.96.46,2.09,1.27,3.05,1.99l.07.24-1.87,2.4ZM735.42,38.36c1.13-2.4,1.7-4.13,2.54-7.68l2.4,1.58c.24.17.24.34.19.58-.55,2.3-1.18,4.51-2.18,7.13l-.22.12-2.67-1.54-.07-.19ZM739.18,22.61l-.29.05c-.84-.86-1.85-1.75-2.88-2.4l-.05-.19,1.85-2.04.29-.05c.91.53,1.87,1.22,3.02,2.14l.05.24-1.99,2.26ZM749.43,32.24l-3.31.1-.17-.19.07-3.29v-3.38l-.07-2.62.17-.19,2.9.07c.14-.5.29-1.01.41-1.54h-4.37v5.59c0,6.41-.96,9.67-2.95,12.6-.1.14-.17.19-.29.19-.07,0-.17-.02-.26-.12l-2.16-1.8c1.51-2.47,2.54-4.99,2.54-9.72v-6.19l-.07-3.22.17-.17,3.6.07h9.17l3.36-.07.19.14v2.62l-.19.14-3.36-.07h-1.97c-.19.53-.41,1.06-.62,1.56h1.03l3.43-.1.17.19-.07,2.62v3.38l.07,3.29-.17.19-3.43-.1h-.24v2.38l.12,3.07c0,2.14-.98,2.71-3.7,2.71-.41,0-.53-.05-.62-.26l-1.25-2.64c-.34.55-.74,1.1-1.2,1.75-.1.1-.19.17-.31.17-.1,0-.19-.02-.34-.12l-2.16-1.3c1.32-1.56,2.14-3.07,2.78-4.9l.22-.1,2.45.82.12.19c-.43,1.3-.86,2.3-1.49,3.34.7,0,1.13,0,1.51-.05.5-.05.65-.19.65-.72v-4.34h-.36ZM749.05,26.36h4.56v-1.22h-4.56v1.22ZM749.05,29.84h4.56v-1.27h-4.56v1.27ZM756.03,39.03l-.24-.1c-.7-1.82-1.61-3.53-2.54-4.8l.1-.19,2.04-1.15.24.05c1.08,1.2,2.16,2.86,2.95,4.63l-.14.19-2.4,1.37Z"/><path d="M782.05,17.84c-2.62,2.18-4.75,6.19-4.75,11.04s2.21,8.93,4.75,11.04v.12h-1.44c-2.42-2.18-4.58-6.22-4.58-11.16s2.16-8.98,4.58-11.16h1.44v.12Z"/><path d="M790.57,24.08h-2.02c-.31,1.82-1.18,3.17-3.96,3.91-.12-.34-.46-.82-.74-1.06,2.21-.5,3.05-1.37,3.36-2.86h-2.95v-1.25h4.56v-1.97h-3.62v-1.22h3.62v-1.78l1.94.12c-.02.17-.17.26-.46.31v1.34h3.7v1.22h-3.7v1.97h4.51v1.25h-3v1.54c0,.36.05.43.46.43h1.18c.36,0,.43-.12.48-1.1.26.22.77.36,1.1.46-.1,1.42-.48,1.78-1.37,1.78h-1.56c-1.22,0-1.54-.29-1.54-1.54v-1.56ZM803.55,31.54c0,1.18.02,1.22.43,1.22.72,0,.79,0,.94-.14.26-.34.26-2.3.26-3.7.31.26.77.48,1.15.6-.07,3.5-.12,4.58-1.78,4.58h-.91c-.41,0-.86-.12-1.18-.41-.31-.31-.41-.67-.41-2.33v-8.64h-2.52c-.1,1.54-.22,2.95-.46,4.27,1.03.77,1.97,1.51,2.57,2.14l-.79,1.32c-.5-.55-1.25-1.2-2.11-1.87-.62,2.47-1.73,4.46-3.67,5.95-.24-.36-.72-.84-1.08-1.06.22-.14.41-.31.6-.48-3.6.46-7.32.86-9.67,1.1-.02.19-.17.31-.31.34l-.65-1.66c1.32-.1,3-.26,4.85-.43v-2.47h-3.89v-1.25h3.89v-1.9l1.94.12c-.02.17-.17.29-.46.31v1.46h3.94v1.25h-3.94v2.33c1.46-.14,2.98-.31,4.46-.46l.02,1.06c1.39-1.32,2.21-3.05,2.69-5.18-.79-.58-1.61-1.13-2.35-1.58l.74-1.15c.6.36,1.25.77,1.9,1.2.14-1.06.24-2.16.31-3.36h-2.81v-1.46h2.86c.05-1.13.05-2.3.07-3.55l1.99.12c-.02.22-.19.34-.5.36l-.07,3.07h3.94v10.27ZM788.5,35.58c-.67,1.61-1.78,3.41-3.05,4.49-.34-.14-.7-.29-1.46-.65,1.22-.96,2.38-2.64,3.02-4.25l1.49.41ZM791.6,39.82c-.02-1.03-.22-2.76-.48-4.08l1.49-.12c.31,1.3.55,3,.58,3.98l-1.58.22ZM797.51,39.8c-.19-1.06-.79-2.81-1.37-4.1l1.51-.26c.6,1.27,1.22,2.98,1.44,4.01l-1.58.36ZM804.27,40.06c-.58-1.2-1.9-3.1-3.07-4.46l1.51-.5c1.18,1.34,2.52,3.17,3.17,4.39l-1.61.58Z"/><path d="M808.59,24.51c1.49.62,3.29,1.68,4.18,2.5l-.96,1.3c-.84-.84-2.62-1.92-4.1-2.62l.89-1.18ZM808.23,38.77c1.1-1.9,2.67-5.14,3.77-7.87l1.3.91c-1.03,2.54-2.42,5.54-3.43,7.39.1.14.14.26.14.36s-.02.17-.07.24l-1.7-1.03ZM812.94,21.94c-.84-.86-2.59-2.06-4.06-2.81l.94-1.15c1.46.7,3.24,1.8,4.1,2.69l-.98,1.27ZM828.59,31.54h-4.56v6.74c0,1.66-.67,1.78-4.08,1.73-.07-.41-.29-.98-.48-1.39,1.22.02,2.3.02,2.62.02.31-.02.41-.12.41-.38v-6.72h-4.18v-8.28h3.7c.24-.86.48-2.02.62-2.88h-5.88v5.21c0,4.22-.38,10.25-3.26,14.33-.29-.29-.98-.7-1.34-.86,2.78-3.94,3.05-9.46,3.05-13.47v-6.7h14.74v1.49h-6.12l.94.24c-.07.17-.24.24-.53.26-.14.65-.41,1.58-.67,2.38h5.04v8.28ZM820.91,33.49c-.07.17-.26.24-.5.22-.89,1.78-2.28,3.74-3.6,4.99-.29-.26-.82-.67-1.15-.89,1.3-1.13,2.64-3.05,3.46-4.9l1.8.58ZM819.78,24.56v2.18h7.27v-2.18h-7.27ZM819.78,28.02v2.21h7.27v-2.21h-7.27ZM828.83,38.55c-.55-1.37-1.94-3.5-3.19-5.06l1.32-.65c1.27,1.51,2.71,3.58,3.31,4.94l-1.44.77Z"/><path d="M831.73,39.92c2.62-2.18,4.75-6.19,4.75-11.04s-2.21-8.93-4.75-11.04v-.12h1.44c2.45,2.18,4.58,6.22,4.58,11.16s-2.14,8.98-4.58,11.16h-1.44v-.12Z"/><line class="cls-1" x1="151.89" y1=".5" x2="150.5" y2="63.18"/><line class="cls-3" x1="639.39" y1=".5" x2="639.39" y2="63.18"/><line class="cls-2" x1="168.56" y1=".5" x2="168.56" y2="63.18"/></svg>