<?xml version="1.0" encoding="UTF-8"?><svg id="_レイヤー_1" xmlns="http://www.w3.org/2000/svg" viewBox="0 0 1560 560"><rect width="1560" height="560" rx="18" ry="18" fill="#c8dbc3"/><path d="M642.94,240.68c-1.66-8.35-2.52-12.24-11.02-12.24-10.94,0-16.13,9.58-16.13,24.12,0,22.9,11.38,25.27,15.41,25.27,7.63,0,11.52-5.98,13.47-11.95l2.88.79c-3.1,9.5-9.29,14.4-17.07,14.4-6.26,0-11.3-2.3-14.83-6.34-4.25-5.11-6.19-12.17-6.19-21.89,0-18.15,8.93-27.22,22.32-27.22,3.02,0,6.26.14,12.1,2.45.5,4.1,1.08,8.28,1.87,12.02l-2.81.58Z"/><path d="M678.22,269.92c0,6.7-5.18,10.58-12.1,10.58s-12.38-4.68-12.38-15.55c0-8.35,3.74-16.85,13.18-16.85,2.95,0,5.18.72,6.84,1.8,1.58,1.08,3.02,2.88,3.02,4.32,0,1.01-.72,2.09-1.8,2.09-1.87,0-2.45-2.3-3.46-3.67-1.3-1.73-2.81-2.38-4.75-2.38-6.34,0-8.35,8.06-8.35,14.11h.14c1.73-2.74,5.26-4.39,8.42-4.39,6.84,0,11.23,4.1,11.23,9.86v.07ZM673.32,269.92c0-4.25-2.74-7.56-7.06-7.56-3.6,0-7.42,3.17-7.42,7.06,0,4.18,2.74,8.71,7.2,8.71,4.82,0,7.27-3.67,7.27-8.14v-.07Z"/><path d="M731.93,229.02c-5.33,0-5.76.43-5.76,5.62v37.44c0,5.18.43,5.62,5.76,5.62v2.3h-16.78v-2.3c4.68,0,5.04-.43,5.04-5.54v-18.43h-24.7v18.43c0,5.11.36,5.54,5.04,5.54v2.3h-16.78v-2.3c5.26,0,5.69-.43,5.69-5.62v-37.44c0-5.18-.43-5.62-5.69-5.62v-2.3h16.78v2.3c-4.68,0-5.04.36-5.04,5.47v16.27h24.7v-16.2c0-5.18-.36-5.54-5.04-5.54v-2.3h16.78v2.3Z"/><path d="M741.94,248.61h13.39c1.8,0,2.02-.36,2.3-1.01h1.8l-1.08,4.54h-14.19l-1.73,9.43h.07c2.09-1.37,4.46-2.16,7.34-2.16,6.19,0,11.23,3.31,11.23,9.94,0,7.34-5.33,11.16-12.39,11.16-3.02,0-5.98-.79-7.78-1.94-1.94-1.15-3.24-2.88-3.24-4.32s.94-2.38,1.8-2.38c.79,0,1.94.36,2.45,1.66,1.15,3.02,3.6,4.75,6.91,4.75,5.18,0,7.42-3.6,7.42-8.57,0-5.33-2.45-8.06-7.27-8.06-3.38,0-5.98,1.51-7.49,3.31l-2.09-.65,2.52-15.7Z"/><path d="M767.28,260.56h31.54v3.02h-31.54v-3.02Z"/><path d="M837.84,240.68c-1.66-8.35-2.52-12.24-11.02-12.24-10.95,0-16.13,9.58-16.13,24.12,0,22.9,11.38,25.27,15.41,25.27,7.63,0,11.52-5.98,13.47-11.95l2.88.79c-3.1,9.5-9.29,14.4-17.07,14.4-6.26,0-11.3-2.3-14.83-6.34-4.25-5.11-6.19-12.17-6.19-21.89,0-18.15,8.93-27.22,22.32-27.22,3.02,0,6.26.14,12.1,2.45.5,4.1,1.08,8.28,1.87,12.02l-2.81.58Z"/><path d="M896.16,229.02c-5.33,0-5.76.43-5.76,5.62v37.44c0,5.18.43,5.62,5.76,5.62v2.3h-16.78v-2.3c4.68,0,5.04-.43,5.04-5.54v-18.43h-24.7v18.43c0,5.11.36,5.54,5.04,5.54v2.3h-16.78v-2.3c5.26,0,5.69-.43,5.69-5.62v-37.44c0-5.18-.43-5.62-5.69-5.62v-2.3h16.78v2.3c-4.68,0-5.04.36-5.04,5.47v16.27h24.7v-16.2c0-5.18-.36-5.54-5.04-5.54v-2.3h16.78v2.3Z"/><path d="M909.98,261.93c1.94,0,3.82-.29,5.11-.72,1.22-.36,2.45-.94,3.31-1.94.86-1.08,1.15-2.3,1.15-3.67,0-1.3-.43-2.88-1.51-3.89-1.15-1.01-2.81-1.44-4.9-1.44-1.58,0-2.95.29-4.1,1.15-.94.65-1.51,1.58-2.16,3.1-.65,1.44-1.44,2.02-2.38,2.02-1.08,0-1.8-.79-1.8-2.02,0-1.37,1.01-3.24,3.46-4.61,1.87-1.08,4.1-1.8,7.27-1.8,3.82,0,6.84.79,8.57,2.23,1.58,1.3,2.38,3.1,2.38,5.33,0,1.73-.94,3.46-2.38,4.68-1.58,1.3-3.82,1.94-6.48,2.3v.22c2.81.29,5.4.94,7.27,2.3,2.09,1.51,2.95,3.74,2.95,6.05s-.86,4.82-3.17,6.7c-1.8,1.44-4.46,2.59-9.5,2.59-2.74,0-5.47-.43-7.78-1.8-2.16-1.3-3.31-3.17-3.31-4.75,0-1.44.72-2.23,1.87-2.23.72,0,1.44.43,1.8,1.08.43.58.72,1.37,1.22,2.23.94,1.66,2.81,3.24,6.19,3.24,2.52,0,4.39-.5,5.76-1.8,1.3-1.22,1.94-3.02,1.94-5.26,0-1.58-.5-3.02-1.44-4.25-1.01-1.3-2.66-2.16-4.61-2.66-1.3-.29-2.88-.36-4.75-.36v-2.02Z"/></svg>