<?xml version="1.0" encoding="UTF-8"?><svg id="_レイヤー_2" xmlns="http://www.w3.org/2000/svg" viewBox="0 0 1077.12 530.51"><style>
  *{ vector-effect: non-scaling-stroke; shape-rendering: geometricPrecision; text-rendering: optimizeLegibility; }
  @media (max-width:480px){ .stroke-3{ stroke-width:2.2; } } /* 例：必要なら微調整 */
</style>
<g id="_レイヤー_1-2"><rect x="270.14" y="1.5" width="541.07" height="142.76" style="fill:#fff;"/><path d="M809.71,3v139.76H271.64V3h538.07M812.71,0H268.64v145.76h544.07V0h0Z"/><text transform="translate(502.1 100.41)" style="font-family:KozGoPr6N-Regular-83pv-RKSJ-H, &apos;Kozuka Gothic Pr6N&apos;; font-size:72px;"><tspan x="0" y="0">R1</tspan></text><rect x="270.14" y="386.25" width="541.07" height="142.76" style="fill:#fff;"/><path d="M809.71,387.75v139.76H271.64v-139.76h538.07M812.71,384.75H268.64v145.76h544.07v-145.76h0Z"/><text transform="translate(508.15 488.36)" style="font-family:KozGoPr6N-Regular-83pv-RKSJ-H, &apos;Kozuka Gothic Pr6N&apos;; font-size:72px;"><tspan x="0" y="0">R3</tspan></text><rect x="270.14" y="184.31" width="541.07" height="142.76" style="fill:#fff;"/><path d="M809.71,185.81v139.76H271.64v-139.76h538.07M812.71,182.81H268.64v145.76h544.07v-145.76h0Z"/><text transform="translate(502.03 283.22)" style="font-family:KozGoPr6N-Regular-83pv-RKSJ-H, &apos;Kozuka Gothic Pr6N&apos;; font-size:72px;"><tspan x="0" y="0">R2</tspan></text><line x1="812.71" y1="72.88" x2="944.92" y2="72.88" style="fill:none; stroke:#000; stroke-miterlimit:10; stroke-width:6px;"/><line x1="812.71" y1="457.63" x2="944.92" y2="457.63" style="fill:none; stroke:#000; stroke-miterlimit:10; stroke-width:6px;"/><line x1="136.44" y1="457.63" x2="268.64" y2="457.63" style="fill:none; stroke:#000; stroke-miterlimit:10; stroke-width:6px;"/><line x1="136.44" y1="73.05" x2="268.64" y2="73.05" style="fill:none; stroke:#000; stroke-miterlimit:10; stroke-width:6px;"/><line x1="944.92" y1="72.88" x2="944.92" y2="457.63" style="fill:none; stroke:#000; stroke-miterlimit:10; stroke-width:6px;"/><line x1="136.44" y1="72.88" x2="136.44" y2="457.63" style="fill:none; stroke:#000; stroke-miterlimit:10; stroke-width:6px;"/><line x1="812.71" y1="255.86" x2="944.92" y2="255.86" style="fill:none; stroke:#000; stroke-miterlimit:10; stroke-width:6px;"/><line x1="136.44" y1="255.69" x2="268.64" y2="255.69" style="fill:none; stroke:#000; stroke-miterlimit:10; stroke-width:6px;"/><line x1="944.92" y1="255.86" x2="1077.12" y2="255.86" style="fill:none; stroke:#000; stroke-miterlimit:10; stroke-width:6px;"/><line y1="255.69" x2="132.2" y2="255.69" style="fill:none; stroke:#000; stroke-miterlimit:10; stroke-width:6px;"/><circle cx="947.46" cy="256.78" r="17.8" style="stroke:#000; stroke-miterlimit:10; stroke-width:6px;"/><circle cx="136.44" cy="255.69" r="17.8" style="stroke:#000; stroke-miterlimit:10; stroke-width:6px;"/></g></svg>

