<?xml version="1.0" encoding="UTF-8"?><svg id="_レイヤー_1" xmlns="http://www.w3.org/2000/svg" viewBox="0 0 612.14 175.8"><defs><style>.cls-1{fill:#e6e6e6;}</style></defs><rect class="cls-1" x=".5" y=".5" width="611.14" height="161.31"/><path d="M611.14,1v160.31H1V1h610.14M612.14,0H0v162.31h612.14V0h0Z"/><path d="M49.48,30.1c-.79,1.42-1.63,2.74-2.52,3.84-.17-.38-.55-1.2-.79-1.56,2.06-2.5,4.06-6.67,5.28-10.83l1.9.6c-.07.17-.24.26-.55.26-.53,1.61-1.15,3.22-1.85,4.75l.55.17c-.05.17-.17.26-.46.31v16.08h-1.56v-13.63ZM62.15,22.68v1.46h-5.06c-.19,1.13-.41,2.35-.74,3.6h3.77c.19-.05.24-.05.29-.05.22.07.43.14.98.36-.02.12-.12.22-.19.29-.98,7.61-3.65,12.77-7.39,15.46-.22-.38-.74-1.01-1.08-1.27,2.06-1.42,3.79-3.58,5.04-6.55-.7-.77-1.97-1.82-3.05-2.57l.7-1.22c1.01.67,2.23,1.58,2.9,2.3.53-1.58.96-3.34,1.22-5.28h-3.58c-.74,2.42-1.78,4.8-3.26,6.55-.22-.34-.7-.86-1.01-1.13,2.21-2.64,3.29-6.91,3.82-10.49h-2.38v-1.46h9.02ZM63.55,38.16h-1.49v-14.02l1.94.12c-.02.17-.14.29-.46.34v13.56ZM66.57,21.77l1.99.12c-.02.17-.14.29-.46.31v19.39c0,1.99-.91,2.14-4.73,2.14-.07-.43-.31-1.15-.53-1.61.74.02,1.44.05,1.99.05,1.58,0,1.73,0,1.73-.55v-19.85Z"/><path d="M82.07,41.67v-16.11h-.05l-2.95,1.7-.48-1.49,3.72-2.09h1.7v17.98h-1.94Z"/><path d="M96.09,30.63c0-.89.58-1.54,1.42-1.54s1.42.65,1.42,1.54-.55,1.54-1.42,1.54c-.91,0-1.42-.74-1.42-1.54ZM96.09,40.44c0-.89.58-1.54,1.42-1.54s1.42.65,1.42,1.54c0,.84-.55,1.51-1.42,1.51-.91,0-1.42-.72-1.42-1.51Z"/><path d="M127.6,24.27c-.05.1-.19.17-.31.22-1.3,3.07-3.36,5.74-5.69,7.68-.36-.31-1.03-.74-1.46-.98,2.21-1.61,3.98-3.94,4.78-5.95h-17.19v-1.63h18.1l.26-.12,1.51.79ZM118.24,28.63c-.02.19-.24.36-.55.41-.7,5.66-2.64,11.06-7.58,13.92-.34-.29-.96-.84-1.42-1.1,4.9-2.69,6.65-7.7,7.22-13.49l2.33.26Z"/><path d="M151.36,27.55c-.07.12-.22.22-.38.29-1.08,2.59-2.98,5.86-5.02,7.82-.36-.26-.98-.62-1.44-.86,1.82-1.63,3.31-4.03,4.1-5.95l-9.19,2.4v6.22c0,2.35,1.42,3.14,3.34,3.14h3.91c.98,0,2.64-.14,3.58-.26,0,.53.02,1.18.05,1.68-.96.12-2.64.19-3.55.19h-4.01c-3.02,0-5.04-1.42-5.04-4.73v-5.81l-6.05,1.56-.41-1.61,6.46-1.61v-7.3l2.33.1c-.05.29-.26.43-.6.48v6.26l10.15-2.62.26-.19,1.51.79Z"/><path d="M175.39,32.4h-8.38c-.53,4.61-2.09,8.06-6.74,10.7-.36-.38-.94-.84-1.34-1.15,4.32-2.35,5.88-5.33,6.38-9.55h-9.79v-1.58h9.91c.12-1.58.12-3.22.14-5.14-2.45.55-5.62,1.08-8.26,1.37-.12-.46-.29-.94-.5-1.39,8.42-1.01,13.39-2.66,14.88-3.31l1.27,1.42c-.1.05-.19.07-.31.07-.1,0-.17,0-.26-.02-1.34.5-3.48,1.13-5.38,1.58l.79.07c-.02.22-.19.36-.5.41-.02,1.8-.05,3.43-.14,4.94h8.23v1.58Z"/><path d="M184.74,40.25c6.1-1.7,10.95-4.63,13.9-9.86.31.41.91.91,1.27,1.2-3.24,5.52-8.59,8.74-15.82,10.63-.05.19-.19.41-.38.48l-1.01-1.68.29-.46v-17.69l2.47.12c-.02.26-.24.48-.72.53v16.73Z"/><path d="M205.19,24.03c2.5.79,5.38,2.04,7.15,3.26l-.91,1.51c-1.73-1.22-4.56-2.5-7.01-3.34l.77-1.44ZM205.1,40.66c8.52-2.64,14.19-7.42,17.07-14.06.5.41,1.06.72,1.56.98-3,6.58-8.86,11.69-16.99,14.4-.02.22-.17.46-.34.55l-1.3-1.87Z"/><path d="M287.51,41.11c-.84.41-2.47.82-4.56.82-4.7,0-8.5-3.05-8.5-9.24s3.67-9.58,9.02-9.58c2.18,0,3.46.46,4.03.74l-.53,1.68c-.84-.41-2.02-.74-3.46-.74-4.15,0-6.98,2.78-6.98,7.82s2.59,7.63,6.86,7.63c1.39,0,2.76-.31,3.67-.74l.43,1.61Z"/><path d="M288.66,45.65v-.86l1.63-1.56c2.14-2.06,3.41-3.48,3.41-4.97,0-1.1-.65-1.97-2.09-1.97-.94,0-1.73.48-2.21.84l-.5-1.08c.67-.58,1.82-1.1,3.12-1.1,2.45,0,3.41,1.61,3.41,3,0,2.04-1.54,3.67-3.58,5.47l-.89.86v.05h4.66v1.32h-6.96Z"/><path d="M311.13,41.67h-1.99v-8.74h-8.74v8.74h-1.99v-18.27h1.99v7.8h8.74v-7.8h1.99v18.27Z"/><path d="M313.46,45.65v-.86l1.63-1.56c2.14-2.06,3.41-3.48,3.41-4.97,0-1.1-.65-1.97-2.09-1.97-.94,0-1.73.48-2.21.84l-.5-1.08c.67-.58,1.82-1.1,3.12-1.1,2.45,0,3.41,1.61,3.41,3,0,2.04-1.54,3.67-3.58,5.47l-.89.86v.05h4.66v1.32h-6.96Z"/><path d="M341.82,32.45h-13.99v-1.44h13.99v1.44ZM341.82,37.71h-13.99v-1.44h13.99v1.44Z"/><path d="M360.33,41.67h-10.63v-1.22l1.75-1.85c4.27-4.32,6.43-6.94,6.43-9.86,0-1.92-.84-3.7-3.43-3.7-1.44,0-2.74.79-3.6,1.49l-.67-1.39c1.1-.98,2.74-1.75,4.66-1.75,3.62,0,5.06,2.64,5.06,5.11,0,3.38-2.38,6.26-6.1,10.01l-1.42,1.49v.05h7.94v1.63Z"/><path d="M375.78,41.11c-.84.41-2.47.82-4.56.82-4.7,0-8.5-3.05-8.5-9.24s3.67-9.58,9.02-9.58c2.18,0,3.46.46,4.03.74l-.53,1.68c-.84-.41-2.02-.74-3.46-.74-4.15,0-6.98,2.78-6.98,7.82s2.59,7.63,6.86,7.63c1.39,0,2.76-.31,3.67-.74l.43,1.61Z"/><path d="M389.56,27.22h1.54v6.48h6.24v1.44h-6.24v6.53h-1.54v-6.53h-6.24v-1.44h6.24v-6.48Z"/><path d="M418.77,41.67h-1.99v-8.74h-8.74v8.74h-1.99v-18.27h1.99v7.8h8.74v-7.8h1.99v18.27Z"/><path d="M421.09,45.65v-.86l1.63-1.56c2.14-2.06,3.41-3.48,3.41-4.97,0-1.1-.65-1.97-2.09-1.97-.94,0-1.73.48-2.21.84l-.5-1.08c.67-.58,1.82-1.1,3.12-1.1,2.45,0,3.41,1.61,3.41,3,0,2.04-1.54,3.67-3.58,5.47l-.89.86v.05h4.66v1.32h-6.96Z"/><path d="M441.71,27.22h1.54v6.48h6.24v1.44h-6.24v6.53h-1.54v-6.53h-6.24v-1.44h6.24v-6.48Z"/><path d="M467.97,41.67h-10.63v-1.22l1.75-1.85c4.27-4.32,6.43-6.94,6.43-9.86,0-1.92-.84-3.7-3.43-3.7-1.44,0-2.74.79-3.6,1.49l-.67-1.39c1.1-.98,2.74-1.75,4.66-1.75,3.62,0,5.06,2.64,5.06,5.11,0,3.38-2.38,6.26-6.1,10.01l-1.42,1.49v.05h7.94v1.63Z"/><path d="M481.19,41.67h-10.63v-1.22l1.75-1.85c4.27-4.32,6.43-6.94,6.43-9.86,0-1.92-.84-3.7-3.43-3.7-1.44,0-2.74.79-3.6,1.49l-.67-1.39c1.1-.98,2.74-1.75,4.66-1.75,3.62,0,5.06,2.64,5.06,5.11,0,3.38-2.38,6.26-6.1,10.01l-1.42,1.49v.05h7.94v1.63Z"/><path d="M484.12,23.69h10.54v1.27l-7.51,16.71h-2.04l7.51-16.27v-.05h-8.5v-1.66Z"/><path d="M507.95,41.67h-2.45l-4.51-6.46-1.2,1.37v5.09h-1.99v-19.2h1.99v12.22h.05c.31-.46.77-1.03,1.13-1.46l3.91-4.63h2.4l-4.92,5.4,5.59,7.68Z"/><path d="M515.34,35.86c0,4.68-2.23,6.1-5.16,6.1-.82,0-1.78-.17-2.28-.38l.29-1.63c.46.17,1.1.31,1.85.31,2.11,0,3.31-.94,3.31-4.56v-12.29h1.99v12.46Z"/><path d="M49.48,72.1c-.79,1.42-1.63,2.74-2.52,3.84-.17-.38-.55-1.2-.79-1.56,2.06-2.5,4.06-6.67,5.28-10.83l1.9.6c-.07.17-.24.26-.55.26-.53,1.61-1.15,3.22-1.85,4.75l.55.17c-.05.17-.17.26-.46.31v16.08h-1.56v-13.63ZM62.15,64.68v1.46h-5.06c-.19,1.13-.41,2.35-.74,3.6h3.77c.19-.05.24-.05.29-.05.22.07.43.14.98.36-.02.12-.12.22-.19.29-.98,7.61-3.65,12.77-7.39,15.46-.22-.38-.74-1.01-1.08-1.27,2.06-1.42,3.79-3.58,5.04-6.55-.7-.77-1.97-1.82-3.05-2.57l.7-1.22c1.01.67,2.23,1.58,2.9,2.3.53-1.58.96-3.34,1.22-5.28h-3.58c-.74,2.42-1.78,4.8-3.26,6.55-.22-.34-.7-.86-1.01-1.13,2.21-2.64,3.29-6.91,3.82-10.49h-2.38v-1.46h9.02ZM63.55,80.16h-1.49v-14.02l1.94.12c-.02.17-.14.29-.46.34v13.56ZM66.57,63.77l1.99.12c-.02.17-.14.29-.46.31v19.39c0,1.99-.91,2.14-4.73,2.14-.07-.43-.31-1.15-.53-1.61.74.02,1.44.05,1.99.05,1.58,0,1.73,0,1.73-.55v-19.85Z"/><path d="M87.23,83.67h-10.63v-1.22l1.75-1.85c4.27-4.32,6.43-6.94,6.43-9.86,0-1.92-.84-3.7-3.43-3.7-1.44,0-2.74.79-3.6,1.49l-.67-1.39c1.1-.98,2.74-1.75,4.66-1.75,3.62,0,5.06,2.64,5.06,5.11,0,3.38-2.38,6.26-6.1,10.01l-1.42,1.49v.05h7.94v1.63Z"/><path d="M95.68,72.63c0-.89.58-1.54,1.42-1.54s1.42.65,1.42,1.54-.55,1.54-1.42,1.54c-.91,0-1.42-.74-1.42-1.54ZM95.68,82.44c0-.89.58-1.54,1.42-1.54s1.42.65,1.42,1.54c0,.84-.55,1.51-1.42,1.51-.91,0-1.42-.72-1.42-1.51Z"/><path d="M108.86,67.54h16.42v1.63h-7.39v11.64h9.12v1.63h-19.83v-1.63h8.98v-11.64h-7.3v-1.63Z"/><path d="M150.98,74.4h-8.38c-.53,4.61-2.09,8.06-6.74,10.7-.36-.38-.94-.84-1.34-1.15,4.32-2.35,5.88-5.33,6.38-9.55h-9.79v-1.58h9.91c.12-1.58.12-3.22.14-5.14-2.45.55-5.62,1.08-8.26,1.37-.12-.46-.29-.94-.5-1.39,8.42-1.01,13.39-2.66,14.88-3.31l1.27,1.42c-.1.05-.19.07-.31.07-.1,0-.17,0-.26-.02-1.34.5-3.48,1.13-5.38,1.58l.79.07c-.02.22-.19.36-.5.41-.02,1.8-.05,3.43-.14,4.94h8.23v1.58Z"/><path d="M160.34,82.25c6.1-1.7,10.95-4.63,13.9-9.86.31.41.91.91,1.27,1.2-3.24,5.52-8.59,8.74-15.82,10.63-.05.19-.19.41-.38.48l-1.01-1.68.29-.46v-17.69l2.47.12c-.02.26-.24.48-.72.53v16.73Z"/><path d="M180.78,66.03c2.5.79,5.38,2.04,7.15,3.26l-.91,1.51c-1.73-1.22-4.56-2.5-7.01-3.34l.77-1.44ZM180.69,82.66c8.52-2.64,14.19-7.42,17.07-14.06.5.41,1.06.72,1.56.98-3,6.58-8.86,11.69-16.99,14.4-.02.22-.17.46-.34.55l-1.3-1.87Z"/><path d="M287.11,83.11c-.84.41-2.47.82-4.56.82-4.7,0-8.5-3.05-8.5-9.24s3.67-9.58,9.02-9.58c2.18,0,3.46.46,4.03.74l-.53,1.68c-.84-.41-2.02-.74-3.46-.74-4.15,0-6.98,2.78-6.98,7.82s2.59,7.63,6.86,7.63c1.39,0,2.76-.31,3.67-.74l.43,1.61Z"/><path d="M288.26,87.65v-.86l1.63-1.56c2.14-2.06,3.41-3.48,3.41-4.97,0-1.1-.65-1.97-2.09-1.97-.94,0-1.73.48-2.21.84l-.5-1.08c.67-.58,1.82-1.1,3.12-1.1,2.45,0,3.41,1.61,3.41,3,0,2.04-1.54,3.67-3.58,5.47l-.89.86v.05h4.66v1.32h-6.96Z"/><path d="M310.72,83.67h-1.99v-8.74h-8.74v8.74h-1.99v-18.27h1.99v7.8h8.74v-7.8h1.99v18.27Z"/><path d="M319.7,87.65h-1.58v-2.86h-4.97v-.96l4.75-6.74h1.8v6.5h1.49v1.2h-1.49v2.86ZM318.11,83.59v-3.29c0-.65.07-1.2.1-1.7h-.07c-.31.62-.58,1.08-.91,1.58l-2.4,3.36.02.05h3.26Z"/><path d="M342.33,74.45h-13.99v-1.44h13.99v1.44ZM342.33,79.71h-13.99v-1.44h13.99v1.44Z"/><path d="M363.06,83.11c-.84.41-2.47.82-4.56.82-4.7,0-8.5-3.05-8.5-9.24s3.67-9.58,9.02-9.58c2.18,0,3.46.46,4.03.74l-.53,1.68c-.84-.41-2.02-.74-3.46-.74-4.15,0-6.98,2.78-6.98,7.82s2.59,7.63,6.86,7.63c1.39,0,2.76-.31,3.67-.74l.43,1.61Z"/><path d="M376.84,69.22h1.54v6.48h6.24v1.44h-6.24v6.53h-1.54v-6.53h-6.24v-1.44h6.24v-6.48Z"/><path d="M405.33,83.11c-.84.41-2.47.82-4.56.82-4.7,0-8.5-3.05-8.5-9.24s3.67-9.58,9.02-9.58c2.18,0,3.46.46,4.03.74l-.53,1.68c-.84-.41-2.02-.74-3.46-.74-4.15,0-6.98,2.78-6.98,7.82s2.59,7.63,6.86,7.63c1.39,0,2.76-.31,3.67-.74l.43,1.61Z"/><path d="M420.95,83.67h-1.99v-8.74h-8.74v8.74h-1.99v-18.27h1.99v7.8h8.74v-7.8h1.99v18.27Z"/><path d="M429.93,87.65h-1.58v-2.86h-4.97v-.96l4.75-6.74h1.8v6.5h1.49v1.2h-1.49v2.86ZM428.34,83.59v-3.29c0-.65.07-1.2.1-1.7h-.07c-.31.62-.58,1.08-.91,1.58l-2.4,3.36.02.05h3.26Z"/><path d="M450.4,69.22h1.54v6.48h6.24v1.44h-6.24v6.53h-1.54v-6.53h-6.24v-1.44h6.24v-6.48Z"/><path d="M471.09,83.67v-16.11h-.05l-2.95,1.7-.48-1.49,3.72-2.09h1.7v17.98h-1.94Z"/><path d="M489.88,83.67h-10.63v-1.22l1.75-1.85c4.27-4.32,6.43-6.94,6.43-9.86,0-1.92-.84-3.7-3.43-3.7-1.44,0-2.74.79-3.6,1.49l-.67-1.39c1.1-.98,2.74-1.75,4.66-1.75,3.62,0,5.06,2.64,5.06,5.11,0,3.38-2.38,6.26-6.1,10.01l-1.42,1.49v.05h7.94v1.63Z"/><path d="M492.8,65.69h10.54v1.27l-7.51,16.71h-2.04l7.51-16.27v-.05h-8.5v-1.66Z"/><path d="M516.64,83.67h-2.45l-4.51-6.46-1.2,1.37v5.09h-1.99v-19.2h1.99v12.22h.05c.31-.46.77-1.03,1.13-1.46l3.91-4.63h2.4l-4.92,5.4,5.59,7.68Z"/><path d="M524.03,77.86c0,4.68-2.23,6.1-5.16,6.1-.82,0-1.78-.17-2.28-.38l.29-1.63c.46.17,1.1.31,1.85.31,2.11,0,3.31-.94,3.31-4.56v-12.29h1.99v12.46Z"/><path d="M49.48,114.1c-.79,1.42-1.63,2.74-2.52,3.84-.17-.38-.55-1.2-.79-1.56,2.06-2.5,4.06-6.67,5.28-10.83l1.9.6c-.07.17-.24.26-.55.26-.53,1.61-1.15,3.22-1.85,4.75l.55.17c-.05.17-.17.26-.46.31v16.08h-1.56v-13.63ZM62.15,106.68v1.46h-5.06c-.19,1.13-.41,2.35-.74,3.6h3.77c.19-.05.24-.05.29-.05.22.07.43.14.98.36-.02.12-.12.22-.19.29-.98,7.61-3.65,12.77-7.39,15.46-.22-.38-.74-1.01-1.08-1.27,2.06-1.42,3.79-3.58,5.04-6.55-.7-.77-1.97-1.82-3.05-2.57l.7-1.22c1.01.67,2.23,1.58,2.9,2.3.53-1.58.96-3.34,1.22-5.28h-3.58c-.74,2.42-1.78,4.8-3.26,6.55-.22-.34-.7-.86-1.01-1.13,2.21-2.64,3.29-6.91,3.82-10.49h-2.38v-1.46h9.02ZM63.55,122.16h-1.49v-14.02l1.94.12c-.02.17-.14.29-.46.34v13.56ZM66.57,105.77l1.99.12c-.02.17-.14.29-.46.31v19.39c0,1.99-.91,2.14-4.73,2.14-.07-.43-.31-1.15-.53-1.61.74.02,1.44.05,1.99.05,1.58,0,1.73,0,1.73-.55v-19.85Z"/><path d="M82.96,115.95c2.11.36,3.91,2.06,3.91,4.66,0,2.86-2.06,5.35-6.1,5.35-1.8,0-3.43-.58-4.25-1.15l.6-1.54c.65.43,2.09,1.08,3.67,1.08,3.02,0,4.01-2.11,4.01-3.77,0-2.64-2.23-3.84-4.58-3.84h-1.18v-1.49h1.18c1.73,0,3.96-1.08,3.96-3.34,0-1.56-.94-2.9-3.1-2.9-1.32,0-2.57.65-3.29,1.18l-.6-1.46c.86-.67,2.54-1.34,4.27-1.34,3.29,0,4.75,2.09,4.75,4.25,0,1.85-1.18,3.5-3.26,4.25v.07Z"/><path d="M95.68,114.63c0-.89.58-1.54,1.42-1.54s1.42.65,1.42,1.54-.55,1.54-1.42,1.54c-.91,0-1.42-.74-1.42-1.54ZM95.68,124.44c0-.89.58-1.54,1.42-1.54s1.42.65,1.42,1.54c0,.84-.55,1.51-1.42,1.51-.91,0-1.42-.72-1.42-1.51Z"/><path d="M125.68,118.13l.96.46c-.02.12-.14.19-.19.24-.74,1.99-1.9,3.67-3.34,5.04,1.51,1.18,3.36,2.06,5.42,2.57-.34.31-.79.89-1.01,1.3-2.09-.6-3.98-1.61-5.54-2.9-1.68,1.3-3.6,2.26-5.59,2.88-.14-.29-.46-.74-.72-1.06v.43h-1.34v-1.2h-6.29v1.51h-1.3v-15.79h2.47v-3.7h-3.31v-1.39h10.58v1.39h-3.43v3.7h2.62v4.78c2.33-.94,3.14-2.57,3.41-4.7l1.82.22c-.02.14-.17.24-.43.29-.36,2.21-1.2,4.15-3.91,5.33-.17-.36-.58-.86-.89-1.1v5.45c1.9-1.34,3.77-3.62,4.75-6.1l1.73.55c-.05.14-.22.22-.48.22-.26.58-.55,1.13-.89,1.68h4.63l.26-.07ZM110.44,113.02v1.49c0,1.49-.29,3.65-1.58,5.16-.17-.19-.58-.48-.82-.6v1.56h6.29v-2.21c-.12.02-.26.05-.43.05h-.89c-.91,0-1.18-.24-1.18-1.37v-4.08h-1.39ZM109.43,113.02h-1.39v6c1.18-1.42,1.39-3.17,1.39-4.56v-1.44ZM108.04,124.54h6.29v-2.59h-6.29v2.59ZM110.44,107.9v3.7h1.39v-3.7h-1.39ZM113.7,117.43c.29,0,.36-.1.38-.91.07.05.14.12.24.17v-3.67h-1.49v4.06c0,.31.05.36.26.36h.6ZM115.67,126.48c1.87-.55,3.72-1.42,5.28-2.59-.86-.89-1.58-1.87-2.18-2.98-.7.74-1.42,1.42-2.16,1.94-.22-.24-.62-.65-.94-.91v4.54ZM115.89,110.19l2.11-.07c.84-1.39,1.82-3.36,2.35-4.75l1.85.65c-.05.17-.24.24-.5.24-.5,1.1-1.3,2.57-2.06,3.79,1.7-.07,3.6-.14,5.5-.24-.62-.62-1.3-1.22-1.92-1.73l1.1-.74c1.49,1.18,3.22,2.83,4.01,4.01l-1.18.84c-.22-.34-.53-.74-.89-1.15-3.53.24-7.15.48-9.48.6,0,.17-.17.29-.31.31l-.58-1.75ZM119.71,119.79c.58,1.18,1.37,2.23,2.35,3.17,1.06-.98,1.94-2.16,2.57-3.48h-4.68l-.24.31ZM122.83,111.55l1.87.12c-.02.17-.14.29-.46.31v2.59c0,.46.07.5.58.5h1.66c.43,0,.53-.17.58-1.7.29.24.89.43,1.27.53-.14,1.99-.55,2.5-1.63,2.5h-2.06c-1.46,0-1.8-.38-1.8-1.8v-3.05Z"/><path d="M133.67,127.71v-13.85c-1.03,1.56-2.11,2.98-3.24,4.15-.19-.41-.62-1.15-.91-1.54,2.5-2.5,5.04-6.7,6.58-10.9l1.97.67c-.1.22-.31.26-.55.22-.7,1.73-1.51,3.43-2.42,5.06l.7.19c-.05.17-.17.29-.48.31v15.67h-1.63ZM142.36,124.13c0,1.34.29,1.66,1.68,1.66h5.02c1.37,0,1.58-.91,1.75-4.49.41.31,1.06.62,1.54.72-.26,3.94-.74,5.3-3.22,5.3h-5.18c-2.47,0-3.19-.67-3.19-3.24v-18.15l2.09.14c-.02.17-.14.29-.48.34v8.9c2.83-1.58,5.76-3.53,7.56-5.23l1.32,1.54c-.1.07-.26.12-.46.07-2.02,1.7-5.33,3.62-8.42,5.26v7.18Z"/><path d="M156.86,109.54h16.42v1.63h-7.39v11.64h9.12v1.63h-19.83v-1.63h8.98v-11.64h-7.3v-1.63Z"/><path d="M198.98,116.4h-8.38c-.53,4.61-2.09,8.06-6.74,10.7-.36-.38-.94-.84-1.34-1.15,4.32-2.35,5.88-5.33,6.38-9.55h-9.79v-1.58h9.91c.12-1.58.12-3.22.14-5.14-2.45.55-5.62,1.08-8.26,1.37-.12-.46-.29-.94-.5-1.39,8.42-1.01,13.39-2.66,14.88-3.31l1.27,1.42c-.1.05-.19.07-.31.07-.1,0-.17,0-.26-.02-1.34.5-3.48,1.13-5.38,1.58l.79.07c-.02.22-.19.36-.5.41-.02,1.8-.05,3.43-.14,4.94h8.23v1.58Z"/><path d="M208.34,124.25c6.1-1.7,10.95-4.63,13.9-9.86.31.41.91.91,1.27,1.2-3.24,5.52-8.59,8.74-15.82,10.63-.05.19-.19.41-.38.48l-1.01-1.68.29-.46v-17.69l2.47.12c-.02.26-.24.48-.72.53v16.73Z"/><path d="M228.78,108.03c2.5.79,5.38,2.04,7.15,3.26l-.91,1.51c-1.73-1.22-4.56-2.5-7.01-3.34l.77-1.44ZM228.69,124.66c8.52-2.64,14.19-7.42,17.07-14.06.5.41,1.06.72,1.56.98-3,6.58-8.86,11.69-16.99,14.4-.02.22-.17.46-.34.55l-1.3-1.87Z"/><path d="M285.47,125.11c-.84.41-2.47.82-4.56.82-4.7,0-8.5-3.05-8.5-9.24s3.67-9.58,9.02-9.58c2.18,0,3.46.46,4.03.74l-.53,1.68c-.84-.41-2.02-.74-3.46-.74-4.15,0-6.98,2.78-6.98,7.82s2.59,7.63,6.86,7.63c1.39,0,2.76-.31,3.67-.74l.43,1.61Z"/><path d="M286.62,129.65v-.86l1.63-1.56c2.14-2.06,3.41-3.48,3.41-4.97,0-1.1-.65-1.97-2.09-1.97-.94,0-1.73.48-2.21.84l-.5-1.08c.67-.58,1.82-1.1,3.12-1.1,2.45,0,3.41,1.61,3.41,3,0,2.04-1.54,3.67-3.58,5.47l-.89.86v.05h4.66v1.32h-6.96Z"/><path d="M309.09,125.67h-1.99v-8.74h-8.74v8.74h-1.99v-18.27h1.99v7.8h8.74v-7.8h1.99v18.27Z"/><path d="M318.06,129.65h-1.58v-2.86h-4.97v-.96l4.75-6.74h1.8v6.5h1.49v1.2h-1.49v2.86ZM316.48,125.59v-3.29c0-.65.07-1.2.1-1.7h-.07c-.31.62-.58,1.08-.91,1.58l-2.4,3.36.02.05h3.26Z"/><path d="M336.69,116.35c0,6.43-3.6,9.6-7.92,9.6-4.54,0-7.75-3.58-7.75-9.29s3.38-9.58,7.97-9.58,7.7,3.74,7.7,9.26ZM323.1,116.62c0,3.89,2.02,7.68,5.74,7.68s5.76-3.67,5.76-7.85c0-3.67-1.8-7.7-5.71-7.7s-5.78,3.98-5.78,7.87Z"/><path d="M363.93,116.45h-13.99v-1.44h13.99v1.44ZM363.93,121.71h-13.99v-1.44h13.99v1.44Z"/><path d="M384.66,125.11c-.84.41-2.47.82-4.56.82-4.7,0-8.5-3.05-8.5-9.24s3.67-9.58,9.02-9.58c2.18,0,3.46.46,4.03.74l-.53,1.68c-.84-.41-2.02-.74-3.46-.74-4.15,0-6.98,2.78-6.98,7.82s2.59,7.63,6.86,7.63c1.39,0,2.76-.31,3.67-.74l.43,1.61Z"/><path d="M402.18,116.35c0,6.43-3.6,9.6-7.92,9.6-4.54,0-7.75-3.58-7.75-9.29s3.38-9.58,7.97-9.58,7.7,3.74,7.7,9.26ZM388.6,116.62c0,3.89,2.02,7.68,5.74,7.68s5.76-3.67,5.76-7.85c0-3.67-1.8-7.7-5.71-7.7s-5.78,3.98-5.78,7.87Z"/><path d="M416.08,111.22h1.54v6.48h6.24v1.44h-6.24v6.53h-1.54v-6.53h-6.24v-1.44h6.24v-6.48Z"/><path d="M444.57,125.11c-.84.41-2.47.82-4.56.82-4.7,0-8.5-3.05-8.5-9.24s3.67-9.58,9.02-9.58c2.18,0,3.46.46,4.03.74l-.53,1.68c-.84-.41-2.02-.74-3.46-.74-4.15,0-6.98,2.78-6.98,7.82s2.59,7.63,6.86,7.63c1.39,0,2.76-.31,3.67-.74l.43,1.61Z"/><path d="M460.19,125.67h-1.99v-8.74h-8.74v8.74h-1.99v-18.27h1.99v7.8h8.74v-7.8h1.99v18.27Z"/><path d="M469.16,129.65h-1.58v-2.86h-4.97v-.96l4.75-6.74h1.8v6.5h1.49v1.2h-1.49v2.86ZM467.58,125.59v-3.29c0-.65.07-1.2.1-1.7h-.07c-.31.62-.58,1.08-.91,1.58l-2.4,3.36.02.05h3.26Z"/><path d="M489.64,111.22h1.54v6.48h6.24v1.44h-6.24v6.53h-1.54v-6.53h-6.24v-1.44h6.24v-6.48Z"/><path d="M510.32,125.67v-16.11h-.05l-2.95,1.7-.48-1.49,3.72-2.09h1.7v17.98h-1.94Z"/><path d="M524.84,115.95c2.11.36,3.91,2.06,3.91,4.66,0,2.86-2.06,5.35-6.1,5.35-1.8,0-3.43-.58-4.25-1.15l.6-1.54c.65.43,2.09,1.08,3.67,1.08,3.02,0,4.01-2.11,4.01-3.77,0-2.64-2.23-3.84-4.58-3.84h-1.18v-1.49h1.18c1.73,0,3.96-1.08,3.96-3.34,0-1.56-.94-2.9-3.1-2.9-1.32,0-2.57.65-3.29,1.18l-.6-1.46c.86-.67,2.54-1.34,4.27-1.34,3.29,0,4.75,2.09,4.75,4.25,0,1.85-1.18,3.5-3.26,4.25v.07Z"/><path d="M540.76,125.67h-1.9v-5.04h-7.85v-1.27l7.68-11.67h2.06v11.4h2.45v1.54h-2.45v5.04ZM533.03,119.09h5.83v-6.38c0-.98.05-1.94.1-2.88h-.1c-.55,1.1-.98,1.87-1.44,2.69l-4.39,6.53v.05Z"/><path d="M555.87,125.67h-2.45l-4.51-6.46-1.2,1.37v5.09h-1.99v-19.2h1.99v12.22h.05c.31-.46.77-1.03,1.13-1.46l3.91-4.63h2.4l-4.92,5.4,5.59,7.68Z"/><path d="M563.27,119.86c0,4.68-2.23,6.1-5.16,6.1-.82,0-1.78-.17-2.28-.38l.29-1.63c.46.17,1.1.31,1.85.31,2.11,0,3.31-.94,3.31-4.56v-12.29h1.99v12.46Z"/></svg>