<?xml version="1.0" encoding="UTF-8"?><svg id="_レイヤー_1" xmlns="http://www.w3.org/2000/svg" viewBox="0 0 1560 560"><rect width="1560" height="560" rx="18" ry="18" fill="#c8dbc3"/><path d="M146.18,201.16c-12.39-5.76-21.24-17.28-21.24-33.7s9.29-28.15,21.24-33.7l1.15,1.51c-11.02,6.12-17.93,17.43-17.93,32.19s6.91,26.07,17.93,32.19l-1.15,1.51Z"/><path d="M186.79,155.51c-1.66-8.35-2.52-12.24-11.02-12.24-10.94,0-16.13,9.58-16.13,24.12,0,22.9,11.38,25.27,15.41,25.27,7.63,0,11.52-5.98,13.47-11.95l2.88.79c-3.1,9.5-9.29,14.4-17.07,14.4-6.26,0-11.3-2.3-14.83-6.34-4.25-5.11-6.19-12.17-6.19-21.89,0-18.15,8.93-27.22,22.32-27.22,3.02,0,6.26.14,12.1,2.45.5,4.1,1.08,8.28,1.87,12.02l-2.81.58Z"/><path d="M198.23,133.76c12.38,5.76,21.24,17.28,21.24,33.7s-9.29,28.15-21.24,33.7l-1.15-1.51c11.02-6.12,17.93-17.43,17.93-32.19s-6.91-26.07-17.93-32.19l1.15-1.51Z"/><path d="M321.14,143.84c-5.33,0-5.76.43-5.76,5.62v37.44c0,5.18.43,5.62,5.76,5.62v2.3h-16.78v-2.3c4.68,0,5.04-.43,5.04-5.54v-18.43h-24.7v18.43c0,5.11.36,5.54,5.04,5.54v2.3h-16.78v-2.3c5.26,0,5.69-.43,5.69-5.62v-37.44c0-5.18-.43-5.62-5.69-5.62v-2.3h16.78v2.3c-4.68,0-5.04.36-5.04,5.47v16.27h24.7v-16.2c0-5.18-.36-5.54-5.04-5.54v-2.3h16.78v2.3Z"/><path d="M326.9,194.03c1.01-4.61,3.46-8.21,6.34-10.8,2.66-2.52,6.7-4.54,9.07-6.77,1.8-1.73,2.66-3.46,2.66-5.69,0-1.58-.5-2.95-1.8-4.1-1.15-.94-2.74-1.37-4.75-1.37-1.51,0-2.81.36-3.82,1.08-.86.65-1.51,1.51-2.23,3.1-.58,1.51-1.3,2.23-2.59,2.23-1.22,0-1.94-.72-1.94-2.09,0-1.58,1.15-3.53,3.53-4.82,2.02-1.08,4.46-1.73,7.42-1.73,3.46,0,5.83.65,7.78,2.02,2.09,1.37,3.17,3.1,3.17,5.69,0,2.3-.86,4.1-2.38,5.83-3.31,3.74-7.85,5.18-11.52,7.92-2.23,1.73-3.89,3.74-4.9,6.48h12.82c3.1,0,3.53-.22,4.46-3.74l1.94.29-1.51,7.27h-20.81l-.94-.79Z"/><path d="M411.64,169.77v25.92h-2.88v-25.92h-25.92v-2.88h25.92v-25.92h2.88v25.92h25.92v2.88h-25.92Z"/><path d="M486.16,153.57c0-2.95-.43-4.25-1.8-4.25-1.3,0-2.74.65-4.97,1.44l-.58-2.16c5.47-2.16,9-4.03,12.31-6.26l.79.43v44c0,5.33.43,5.76,6.84,5.76v2.3h-19.8v-2.3c6.77,0,7.2-.43,7.2-5.76v-33.2Z"/><path d="M541.53,139.24l-25.13,56.45h-3.82l25.06-56.45h3.89Z"/><path d="M582.28,183.88l-2.23,10.94h-31.32l-.94-1.15c3.46-14.69,12.17-21.53,18.87-26.21,5.54-3.96,8.86-7.2,8.86-12.82,0-4.75-2.02-10.01-10.66-10.01-4.25,0-8.42,1.44-10.44,8.14-.58,2.16-1.51,2.81-3.1,2.81-1.3,0-2.23-1.08-2.23-3.17,0-4.03,5.04-10.58,16.06-10.58,13.03,0,16.49,7.49,16.49,13.03,0,6.26-4.39,10.73-8.78,13.68-9.43,6.41-17.07,11.52-20.38,21.82h20.38c4.68,0,5.4-.79,7.06-6.84l2.38.36Z"/><path d="M590.63,168.18c0-19.44,9.22-27.72,22.39-27.72,14.26,0,22.39,9.58,22.39,27.72s-8.06,27.72-22.39,27.72c-17.14,0-22.39-13.18-22.39-27.72ZM601.72,148.45c-2.95,3.74-4.82,9.72-4.82,19.73,0,8.35,1.58,15.19,4.75,19.59,2.59,3.24,6.84,5.33,11.3,5.33s8.64-2.09,11.31-5.33c3.17-4.39,4.75-11.23,4.75-19.59,0-10.01-1.8-15.99-4.75-19.73-2.88-3.6-6.91-5.18-11.23-5.18s-8.57,1.8-11.31,5.18Z"/><path d="M642.11,194.03c1.01-4.61,3.46-8.21,6.34-10.8,2.66-2.52,6.7-4.54,9.07-6.77,1.8-1.73,2.66-3.46,2.66-5.69,0-1.58-.5-2.95-1.8-4.1-1.15-.94-2.74-1.37-4.75-1.37-1.51,0-2.81.36-3.82,1.08-.86.65-1.51,1.51-2.23,3.1-.58,1.51-1.3,2.23-2.59,2.23-1.22,0-1.94-.72-1.94-2.09,0-1.58,1.15-3.53,3.53-4.82,2.02-1.08,4.46-1.73,7.42-1.73,3.46,0,5.83.65,7.78,2.02,2.09,1.37,3.17,3.1,3.17,5.69,0,2.3-.86,4.1-2.38,5.83-3.31,3.74-7.85,5.18-11.52,7.92-2.23,1.73-3.89,3.74-4.9,6.48h12.82c3.1,0,3.53-.22,4.46-3.74l1.94.29-1.51,7.27h-20.81l-.94-.79Z"/><path d="M750.62,159.61v2.95h-50.4v-2.95h50.4ZM750.62,174.09v2.95h-50.4v-2.95h50.4Z"/><path d="M832.12,143.84c-5.33,0-5.76.43-5.76,5.62v37.44c0,5.18.43,5.62,5.76,5.62v2.3h-16.78v-2.3c4.68,0,5.04-.43,5.04-5.54v-18.43h-24.7v18.43c0,5.11.36,5.54,5.04,5.54v2.3h-16.78v-2.3c5.26,0,5.69-.43,5.69-5.62v-37.44c0-5.18-.43-5.62-5.69-5.62v-2.3h16.78v2.3c-4.68,0-5.04.36-5.04,5.47v16.27h24.7v-16.2c0-5.18-.36-5.54-5.04-5.54v-2.3h16.78v2.3Z"/><path d="M837.88,194.03c1.01-4.61,3.46-8.21,6.34-10.8,2.67-2.52,6.7-4.54,9.07-6.77,1.8-1.73,2.66-3.46,2.66-5.69,0-1.58-.5-2.95-1.8-4.1-1.15-.94-2.74-1.37-4.75-1.37-1.51,0-2.81.36-3.82,1.08-.86.65-1.51,1.51-2.23,3.1-.58,1.51-1.3,2.23-2.59,2.23-1.22,0-1.94-.72-1.94-2.09,0-1.58,1.15-3.53,3.53-4.82,2.02-1.08,4.46-1.73,7.42-1.73,3.46,0,5.83.65,7.78,2.02,2.09,1.37,3.17,3.1,3.17,5.69,0,2.3-.86,4.1-2.38,5.83-3.31,3.74-7.85,5.18-11.52,7.92-2.23,1.73-3.89,3.74-4.9,6.48h12.82c3.1,0,3.53-.22,4.46-3.74l1.94.29-1.51,7.27h-20.81l-.94-.79Z"/><path d="M868.55,168.18c0-19.44,9.22-27.72,22.39-27.72,14.26,0,22.39,9.58,22.39,27.72s-8.06,27.72-22.39,27.72c-17.14,0-22.39-13.18-22.39-27.72ZM879.64,148.45c-2.95,3.74-4.83,9.72-4.83,19.73,0,8.35,1.58,15.19,4.75,19.59,2.59,3.24,6.84,5.33,11.3,5.33s8.64-2.09,11.3-5.33c3.17-4.39,4.75-11.23,4.75-19.59,0-10.01-1.8-15.99-4.75-19.73-2.88-3.6-6.91-5.18-11.23-5.18s-8.57,1.8-11.3,5.18Z"/><path d="M974.17,169.77v25.92h-2.88v-25.92h-25.92v-2.88h25.92v-25.92h2.88v25.92h25.92v2.88h-25.92Z"/><path d="M1067.99,183.88l-2.23,10.94h-31.32l-.94-1.15c3.46-14.69,12.17-21.53,18.87-26.21,5.54-3.96,8.86-7.2,8.86-12.82,0-4.75-2.02-10.01-10.66-10.01-4.25,0-8.42,1.44-10.44,8.14-.58,2.16-1.51,2.81-3.1,2.81-1.3,0-2.23-1.08-2.23-3.17,0-4.03,5.04-10.58,16.06-10.58,13.03,0,16.49,7.49,16.49,13.03,0,6.26-4.39,10.73-8.79,13.68-9.43,6.41-17.07,11.52-20.38,21.82h20.38c4.68,0,5.4-.79,7.06-6.84l2.38.36Z"/><path d="M1100.39,166.38c6.41,2.52,12.6,8.06,12.6,14.69,0,7.56-5.47,14.83-18.15,14.83-9.58,0-17.64-4.97-17.64-14.55,0-4.32,2.67-9.86,11.88-13.54v-.14c-7.13-3.17-10.3-8.06-10.3-13.54s4.54-12.31,16.13-12.31,16.13,5.9,16.13,12.39c0,5.76-4.25,9.58-10.66,11.95v.22ZM1106.73,182.22c0-2.81-1.66-5.62-4.32-7.85-2.23-1.8-4.68-3.17-9.79-4.97-4.1,1.66-9.79,4.9-9.79,12.02s4.68,11.67,11.95,11.67c6.7,0,11.95-3.74,11.95-10.87ZM1084.26,153.42c0,6.41,5.91,9.15,12.17,11.38,5.04-2.02,9.15-4.68,9.15-10.66,0-3.74-1.87-9.5-10.73-9.5-7.13,0-10.58,4.1-10.58,8.78Z"/><path d="M1127.96,169.19c2.66-4.39,7.27-7.34,13.11-7.34,9.94,0,16.13,6.77,16.13,16.2,0,10.22-6.19,17.86-17.5,17.86-9.79,0-18-7.13-18-25.99,0-12.75,4.1-28.08,18.94-28.08,9.5,0,14.04,5.54,14.04,9.58,0,1.73-.79,2.95-2.23,2.95-1.73,0-2.52-1.08-3.6-3.67-1.3-3.67-4.03-6.05-8.57-6.05-9.5,0-12.6,13.39-12.53,24.55h.22ZM1139.84,164.8c-7.2,0-11.74,5.98-11.74,11.74,0,7.78,3.89,16.63,11.52,16.63s11.52-7.2,11.52-14.76c0-3.53-1.51-13.61-11.31-13.61Z"/><path d="M1194.06,175.1h.14l11.09-11.16c1.01-.94,1.58-1.73,1.58-2.23,0-.65-.79-.94-2.74-.94v-2.02h11.67v2.02c-2.23,0-3.53.58-5.33,2.38l-8.14,8.06,11.81,18.51c1.73,2.88,3.46,3.17,5.83,3.17v1.94h-9.15l-12.53-20.09-4.25,4.39v8.42c0,4.68.22,5.26,4.46,5.26v2.02h-14.76v-2.02c4.46,0,4.68-.65,4.68-5.33v-37.95c0-4.61-.43-5.18-4.68-5.18v-1.73c3.74-.58,6.55-1.51,9.5-3.38l.79.5v35.36Z"/><path d="M1243.24,184.38c0,5.11,0,18.36-13.1,18.36-6.26,0-10.44-2.81-10.44-5.62,0-1.37.94-2.23,2.3-2.23,1.44,0,2.45.58,3.67,2.59,1.08,1.51,2.38,2.45,4.61,2.45,5.9,0,6.98-5.83,6.98-14.04v-36.22c0-5.4-.43-5.83-6.41-5.83v-2.3h18.07v2.3c-5.26,0-5.69.5-5.69,5.76v34.78Z"/><path d="M149.49,393.06c-12.39-5.76-21.24-17.28-21.24-33.7s9.29-28.15,21.24-33.7l1.15,1.51c-11.02,6.12-17.93,17.43-17.93,32.19s6.91,26.07,17.93,32.19l-1.15,1.51Z"/><path d="M155.82,386.72v-2.3c5.26,0,5.69-.43,5.69-5.62v-37.44c0-5.18-.43-5.62-5.69-5.62v-2.3h19.37c7.99,0,13.1,1.66,17.28,5.98,4.68,4.97,6.55,11.95,6.55,20.09,0,20.74-10.66,27.22-25.35,27.22h-17.86ZM169.79,336.32c-1.87,0-2.23.5-2.23,3.02v40.61c0,3.38.36,3.89,2.45,3.89h3.46c11.38,0,19.3-6.48,19.3-23.47,0-8.21-1.3-14.04-4.68-18.58-3.1-4.03-7.56-5.47-13.18-5.47h-5.11Z"/><path d="M206.15,325.66c12.38,5.76,21.24,17.28,21.24,33.7s-9.29,28.15-21.24,33.7l-1.15-1.51c11.02-6.12,17.93-17.43,17.93-32.19s-6.91-26.07-17.93-32.19l1.15-1.51Z"/><path d="M329.06,335.74c-5.33,0-5.76.43-5.76,5.62v37.44c0,5.19.43,5.62,5.76,5.62v2.3h-16.78v-2.3c4.68,0,5.04-.43,5.04-5.54v-18.43h-24.7v18.43c0,5.11.36,5.54,5.04,5.54v2.3h-16.78v-2.3c5.26,0,5.69-.43,5.69-5.62v-37.44c0-5.18-.43-5.62-5.69-5.62v-2.3h16.78v2.3c-4.68,0-5.04.36-5.04,5.47v16.27h24.7v-16.2c0-5.18-.36-5.54-5.04-5.54v-2.3h16.78v2.3Z"/><path d="M334.82,385.93c1.01-4.61,3.46-8.21,6.34-10.8,2.66-2.52,6.7-4.54,9.07-6.77,1.8-1.73,2.66-3.46,2.66-5.69,0-1.58-.5-2.95-1.8-4.1-1.15-.94-2.74-1.37-4.75-1.37-1.51,0-2.81.36-3.82,1.08-.86.65-1.51,1.51-2.23,3.1-.58,1.51-1.3,2.23-2.59,2.23-1.22,0-1.94-.72-1.94-2.09,0-1.58,1.15-3.53,3.53-4.82,2.02-1.08,4.46-1.73,7.42-1.73,3.46,0,5.83.65,7.78,2.02,2.09,1.37,3.17,3.1,3.17,5.69,0,2.3-.86,4.1-2.38,5.83-3.31,3.75-7.85,5.19-11.52,7.92-2.23,1.73-3.89,3.74-4.9,6.48h12.82c3.1,0,3.53-.22,4.46-3.74l1.94.29-1.51,7.27h-20.81l-.94-.79Z"/><path d="M365.49,360.08c0-19.44,9.22-27.72,22.39-27.72,14.26,0,22.39,9.58,22.39,27.72s-8.06,27.72-22.39,27.72c-17.14,0-22.39-13.18-22.39-27.72ZM376.58,340.35c-2.95,3.74-4.82,9.72-4.82,19.73,0,8.35,1.58,15.19,4.75,19.59,2.59,3.24,6.84,5.33,11.3,5.33s8.64-2.09,11.31-5.33c3.17-4.39,4.75-11.23,4.75-19.59,0-10.01-1.8-15.99-4.75-19.73-2.88-3.6-6.91-5.18-11.23-5.18s-8.57,1.8-11.31,5.18Z"/><path d="M494.88,351.51v2.95h-50.4v-2.95h50.4ZM494.88,365.98v2.95h-50.4v-2.95h50.4Z"/><path d="M576.38,335.74c-5.33,0-5.76.43-5.76,5.62v37.44c0,5.19.43,5.62,5.76,5.62v2.3h-16.78v-2.3c4.68,0,5.04-.43,5.04-5.54v-18.43h-24.7v18.43c0,5.11.36,5.54,5.04,5.54v2.3h-16.78v-2.3c5.26,0,5.69-.43,5.69-5.62v-37.44c0-5.18-.43-5.62-5.69-5.62v-2.3h16.78v2.3c-4.68,0-5.04.36-5.04,5.47v16.27h24.7v-16.2c0-5.18-.36-5.54-5.04-5.54v-2.3h16.78v2.3Z"/><path d="M582.13,385.93c1.01-4.61,3.46-8.21,6.34-10.8,2.66-2.52,6.7-4.54,9.07-6.77,1.8-1.73,2.66-3.46,2.66-5.69,0-1.58-.5-2.95-1.8-4.1-1.15-.94-2.74-1.37-4.75-1.37-1.51,0-2.81.36-3.82,1.08-.86.65-1.51,1.51-2.23,3.1-.58,1.51-1.3,2.23-2.59,2.23-1.22,0-1.94-.72-1.94-2.09,0-1.58,1.15-3.53,3.53-4.82,2.02-1.08,4.46-1.73,7.42-1.73,3.46,0,5.83.65,7.78,2.02,2.09,1.37,3.17,3.1,3.17,5.69,0,2.3-.86,4.1-2.38,5.83-3.31,3.75-7.85,5.19-11.52,7.92-2.23,1.73-3.89,3.74-4.9,6.48h12.82c3.1,0,3.53-.22,4.46-3.74l1.94.29-1.51,7.27h-20.81l-.94-.79Z"/><path d="M666.88,361.66v25.92h-2.88v-25.92h-25.92v-2.88h25.92v-25.92h2.88v25.92h25.92v2.88h-25.92Z"/><path d="M741.4,345.46c0-2.95-.43-4.25-1.8-4.25-1.3,0-2.74.65-4.97,1.44l-.58-2.16c5.47-2.16,9-4.03,12.31-6.26l.79.43v44c0,5.33.43,5.76,6.84,5.76v2.3h-19.8v-2.3c6.77,0,7.2-.43,7.2-5.76v-33.2Z"/><path d="M796.77,331.13l-25.13,56.45h-3.82l25.06-56.45h3.89Z"/><path d="M837.52,375.78l-2.23,10.95h-31.32l-.94-1.15c3.46-14.69,12.17-21.53,18.87-26.21,5.54-3.96,8.86-7.2,8.86-12.82,0-4.75-2.02-10.01-10.66-10.01-4.25,0-8.42,1.44-10.44,8.14-.58,2.16-1.51,2.81-3.1,2.81-1.3,0-2.23-1.08-2.23-3.17,0-4.03,5.04-10.58,16.06-10.58,13.03,0,16.49,7.49,16.49,13.03,0,6.26-4.39,10.73-8.79,13.68-9.43,6.41-17.07,11.52-20.38,21.82h20.38c4.68,0,5.4-.79,7.06-6.84l2.38.36Z"/><path d="M845.87,360.08c0-19.44,9.22-27.72,22.39-27.72,14.26,0,22.39,9.58,22.39,27.72s-8.06,27.72-22.39,27.72c-17.14,0-22.39-13.18-22.39-27.72ZM856.96,340.35c-2.95,3.74-4.83,9.72-4.83,19.73,0,8.35,1.58,15.19,4.75,19.59,2.59,3.24,6.84,5.33,11.3,5.33s8.64-2.09,11.3-5.33c3.17-4.39,4.75-11.23,4.75-19.59,0-10.01-1.8-15.99-4.75-19.73-2.88-3.6-6.91-5.18-11.23-5.18s-8.57,1.8-11.3,5.18Z"/><path d="M897.35,385.93c1.01-4.61,3.46-8.21,6.34-10.8,2.67-2.52,6.7-4.54,9.07-6.77,1.8-1.73,2.66-3.46,2.66-5.69,0-1.58-.5-2.95-1.8-4.1-1.15-.94-2.74-1.37-4.75-1.37-1.51,0-2.81.36-3.82,1.08-.86.65-1.51,1.51-2.23,3.1-.58,1.51-1.3,2.23-2.59,2.23-1.22,0-1.94-.72-1.94-2.09,0-1.58,1.15-3.53,3.53-4.82,2.02-1.08,4.46-1.73,7.42-1.73,3.46,0,5.83.65,7.78,2.02,2.09,1.37,3.17,3.1,3.17,5.69,0,2.3-.86,4.1-2.38,5.83-3.31,3.75-7.85,5.19-11.52,7.92-2.23,1.73-3.89,3.74-4.9,6.48h12.82c3.1,0,3.53-.22,4.46-3.74l1.94.29-1.51,7.27h-20.81l-.94-.79Z"/><path d="M1008.01,358.78v2.88h-54.72v-2.88h54.72Z"/><path d="M1075.91,375.78l-2.23,10.95h-31.32l-.94-1.15c3.46-14.69,12.17-21.53,18.87-26.21,5.54-3.96,8.86-7.2,8.86-12.82,0-4.75-2.02-10.01-10.66-10.01-4.25,0-8.42,1.44-10.44,8.14-.58,2.16-1.51,2.81-3.1,2.81-1.3,0-2.23-1.08-2.23-3.17,0-4.03,5.04-10.58,16.06-10.58,13.03,0,16.49,7.49,16.49,13.03,0,6.26-4.39,10.73-8.79,13.68-9.43,6.41-17.07,11.52-20.38,21.82h20.38c4.68,0,5.4-.79,7.06-6.84l2.38.36Z"/><path d="M1108.31,358.28c6.41,2.52,12.6,8.06,12.6,14.69,0,7.56-5.47,14.83-18.15,14.83-9.58,0-17.64-4.97-17.64-14.55,0-4.32,2.67-9.86,11.88-13.54v-.14c-7.13-3.17-10.3-8.06-10.3-13.54s4.54-12.31,16.13-12.31,16.13,5.9,16.13,12.39c0,5.76-4.25,9.58-10.66,11.95v.22ZM1114.64,374.12c0-2.81-1.66-5.62-4.32-7.85-2.23-1.8-4.68-3.17-9.79-4.97-4.1,1.66-9.79,4.9-9.79,12.02s4.68,11.67,11.95,11.67c6.7,0,11.95-3.74,11.95-10.87ZM1092.18,345.32c0,6.41,5.91,9.14,12.17,11.38,5.04-2.02,9.15-4.68,9.15-10.66,0-3.74-1.87-9.51-10.73-9.51-7.13,0-10.58,4.11-10.58,8.79Z"/><path d="M1135.88,361.09c2.66-4.39,7.27-7.34,13.11-7.34,9.94,0,16.13,6.77,16.13,16.2,0,10.22-6.19,17.86-17.5,17.86-9.79,0-18-7.13-18-25.99,0-12.75,4.1-28.08,18.94-28.08,9.5,0,14.04,5.54,14.04,9.58,0,1.73-.79,2.95-2.23,2.95-1.73,0-2.52-1.08-3.6-3.67-1.3-3.67-4.03-6.05-8.57-6.05-9.5,0-12.6,13.39-12.53,24.55h.22ZM1147.76,356.69c-7.2,0-11.74,5.98-11.74,11.74,0,7.78,3.89,16.63,11.52,16.63s11.52-7.2,11.52-14.76c0-3.53-1.51-13.61-11.31-13.61Z"/><path d="M1201.98,366.99h.14l11.09-11.16c1.01-.94,1.58-1.73,1.58-2.23,0-.65-.79-.94-2.74-.94v-2.02h11.67v2.02c-2.23,0-3.53.58-5.33,2.38l-8.14,8.06,11.81,18.51c1.73,2.88,3.46,3.17,5.83,3.17v1.95h-9.15l-12.53-20.09-4.25,4.39v8.42c0,4.68.22,5.26,4.46,5.26v2.02h-14.76v-2.02c4.46,0,4.68-.65,4.68-5.33v-37.95c0-4.61-.43-5.18-4.68-5.18v-1.73c3.74-.58,6.55-1.51,9.5-3.38l.79.5v35.36Z"/><path d="M1251.15,376.28c0,5.11,0,18.36-13.1,18.36-6.26,0-10.44-2.81-10.44-5.62,0-1.37.94-2.23,2.3-2.23,1.44,0,2.45.58,3.67,2.59,1.08,1.51,2.38,2.45,4.61,2.45,5.9,0,6.98-5.83,6.98-14.04v-36.22c0-5.4-.43-5.83-6.41-5.83v-2.3h18.07v2.3c-5.26,0-5.69.5-5.69,5.76v34.78Z"/></svg>