<?xml version="1.0" encoding="UTF-8"?><svg id="_レイヤー_1" xmlns="http://www.w3.org/2000/svg" viewBox="0 0 1560 560"><rect width="1560" height="560" rx="18" ry="18" fill="#c8dbc3"/><path d="M273.22,270.14l-2.23,10.94h-31.32l-.94-1.15c3.46-14.69,12.17-21.53,18.87-26.21,5.54-3.96,8.86-7.2,8.86-12.82,0-4.75-2.02-10.01-10.66-10.01-4.25,0-8.42,1.44-10.44,8.14-.58,2.16-1.51,2.81-3.1,2.81-1.3,0-2.23-1.08-2.23-3.17,0-4.03,5.04-10.58,16.06-10.58,13.03,0,16.49,7.49,16.49,13.03,0,6.26-4.39,10.73-8.78,13.68-9.43,6.41-17.07,11.52-20.38,21.82h20.38c4.68,0,5.4-.79,7.06-6.84l2.38.36Z"/><path d="M314.98,241.76c-1.66-8.35-2.52-12.24-11.02-12.24-10.94,0-16.13,9.58-16.13,24.12,0,22.9,11.38,25.27,15.41,25.27,7.63,0,11.52-5.98,13.47-11.95l2.88.79c-3.1,9.5-9.29,14.4-17.07,14.4-6.26,0-11.3-2.3-14.83-6.34-4.25-5.11-6.19-12.17-6.19-21.89,0-18.15,8.93-27.22,22.32-27.22,3.02,0,6.26.14,12.1,2.45.5,4.1,1.08,8.28,1.87,12.02l-2.81.58Z"/><path d="M326.28,272.66v-1.73l15.7-21.6h3.89v20.88h4.46l-.36,2.45h-4.1v3.17c0,3.02.36,3.31,3.82,3.31v1.8h-12.82v-1.8c4.25,0,4.61-.36,4.61-3.31v-3.17h-15.19ZM329.88,270.21h11.59v-11.3c0-1.37,0-3.1.14-5.04h-.29c-.72,1.08-1.66,2.74-2.66,4.18l-8.79,12.17Z"/><path d="M404.9,230.1c-5.33,0-5.76.43-5.76,5.62v37.44c0,5.18.43,5.62,5.76,5.62v2.3h-16.78v-2.3c4.68,0,5.04-.43,5.04-5.54v-18.43h-24.7v18.43c0,5.11.36,5.54,5.04,5.54v2.3h-16.78v-2.3c5.26,0,5.69-.43,5.69-5.62v-37.44c0-5.18-.43-5.62-5.69-5.62v-2.3h16.78v2.3c-4.68,0-5.04.36-5.04,5.47v16.27h24.7v-16.2c0-5.18-.36-5.54-5.04-5.54v-2.3h16.78v2.3Z"/><path d="M415.92,253.5c3.6-1.37,6.19-2.66,8.42-3.96l.94.36v25.92c0,3.1.14,3.46,4.54,3.46v1.8h-13.9v-1.8c4.61,0,4.75-.36,4.75-3.53v-19.3c0-1.58-.22-2.3-1.15-2.3-.72,0-1.58.36-3.17,1.01l-.43-1.66Z"/><path d="M453.21,281.58c-9.5,0-12.53-7.99-12.53-16.35s3.24-16.06,12.6-16.06,12.6,7.63,12.6,16.06-2.95,16.35-12.6,16.35h-.07ZM453.21,251.34c-7.2,0-7.85,8.21-7.85,13.9s.58,14.11,7.92,14.11,7.92-8.35,7.92-14.11-.65-13.9-7.92-13.9h-.07Z"/><path d="M509.44,245.94v14.33h14.69v3.6h-14.69v15.19h-3.6v-15.19h-14.62v-3.6h14.62v-14.33h3.6Z"/><path d="M566.68,239.82c0-2.95-.43-4.25-1.8-4.25-1.3,0-2.74.65-4.97,1.44l-.58-2.16c5.47-2.16,9-4.03,12.31-6.26l.79.43v44c0,5.33.43,5.76,6.84,5.76v2.3h-19.8v-2.3c6.77,0,7.2-.43,7.2-5.76v-33.2Z"/><path d="M615.57,252.71c7.99.5,15.19,5.11,15.19,13.9,0,7.63-5.54,15.55-18.29,15.55-11.16,0-16.85-6.48-16.85-10.73,0-1.94.79-3.1,2.45-3.1,1.08,0,1.87.5,2.81,2.23.72,1.37,1.66,3.17,3.31,4.68,1.73,2.23,4.18,4.18,8.42,4.18,3.89,0,12.02-1.8,12.02-12.53,0-2.74-.72-5.26-2.45-7.49-3.02-3.82-8.71-5.18-14.76-5.18v-2.66c7.27,0,15.27-3.17,15.27-11.23,0-5.47-3.74-9.43-10.15-9.43s-9.07,4.75-9.87,7.06c-.86,2.45-1.58,3.67-3.6,3.67-1.44,0-2.3-1.15-2.3-3.17,0-3.38,5.04-10.37,15.91-10.37s15.84,5.54,15.84,12.46c0,4.25-2.38,10.58-12.96,11.95v.22Z"/><path d="M638.54,254.44c0-19.44,9.22-27.72,22.39-27.72,14.26,0,22.39,9.58,22.39,27.72s-8.06,27.72-22.39,27.72c-17.14,0-22.39-13.18-22.39-27.72ZM649.63,234.71c-2.95,3.74-4.82,9.72-4.82,19.73,0,8.35,1.58,15.19,4.75,19.59,2.59,3.24,6.84,5.33,11.3,5.33s8.64-2.09,11.31-5.33c3.17-4.39,4.75-11.23,4.75-19.59,0-10.01-1.8-15.99-4.75-19.73-2.88-3.6-6.91-5.18-11.23-5.18s-8.57,1.8-11.31,5.18Z"/><path d="M690.02,280.29c1.01-4.61,3.46-8.21,6.34-10.8,2.66-2.52,6.7-4.54,9.07-6.77,1.8-1.73,2.66-3.46,2.66-5.69,0-1.58-.5-2.95-1.8-4.1-1.15-.94-2.74-1.37-4.75-1.37-1.51,0-2.81.36-3.82,1.08-.86.65-1.51,1.51-2.23,3.1-.58,1.51-1.3,2.23-2.59,2.23-1.22,0-1.94-.72-1.94-2.09,0-1.58,1.15-3.53,3.53-4.82,2.02-1.08,4.46-1.73,7.42-1.73,3.46,0,5.83.65,7.78,2.02,2.09,1.37,3.17,3.1,3.17,5.69,0,2.3-.86,4.1-2.38,5.83-3.31,3.74-7.85,5.18-11.52,7.92-2.23,1.73-3.89,3.74-4.9,6.48h12.82c3.1,0,3.53-.22,4.46-3.74l1.94.29-1.51,7.27h-20.81l-.94-.79Z"/><path d="M740.2,255.16v-2.88h59.55c-4.75-3.6-10.15-8.78-13.97-13.97l2.3-1.87c4.9,6.7,12.24,13.11,18.79,17.28-6.55,4.18-13.9,10.58-18.79,17.28l-2.3-1.87c3.82-5.18,9.22-10.37,13.97-13.97h-59.55Z"/><path d="M856.77,252.64c6.41,2.52,12.6,8.06,12.6,14.69,0,7.56-5.47,14.83-18.15,14.83-9.58,0-17.64-4.97-17.64-14.55,0-4.32,2.66-9.86,11.88-13.54v-.14c-7.13-3.17-10.3-8.06-10.3-13.54s4.54-12.31,16.13-12.31,16.13,5.9,16.13,12.39c0,5.76-4.25,9.58-10.66,11.95v.22ZM863.11,268.48c0-2.81-1.66-5.62-4.32-7.85-2.23-1.8-4.68-3.17-9.79-4.97-4.1,1.66-9.79,4.9-9.79,12.02s4.68,11.67,11.95,11.67c6.7,0,11.95-3.74,11.95-10.87ZM840.64,239.68c0,6.41,5.9,9.15,12.17,11.38,5.04-2.02,9.14-4.68,9.14-10.66,0-3.74-1.87-9.5-10.73-9.5-7.13,0-10.58,4.1-10.58,8.78Z"/><path d="M910.34,241.76c-1.66-8.35-2.52-12.24-11.02-12.24-10.94,0-16.13,9.58-16.13,24.12,0,22.9,11.38,25.27,15.41,25.27,7.63,0,11.52-5.98,13.46-11.95l2.88.79c-3.1,9.5-9.29,14.4-17.07,14.4-6.26,0-11.31-2.3-14.83-6.34-4.25-5.11-6.19-12.17-6.19-21.89,0-18.15,8.93-27.22,22.32-27.22,3.02,0,6.26.14,12.1,2.45.5,4.1,1.08,8.28,1.87,12.02l-2.81.58Z"/><path d="M921.35,254.44c0-19.44,9.22-27.72,22.39-27.72,14.26,0,22.39,9.58,22.39,27.72s-8.06,27.72-22.39,27.72c-17.14,0-22.39-13.18-22.39-27.72ZM932.44,234.71c-2.95,3.74-4.83,9.72-4.83,19.73,0,8.35,1.58,15.19,4.75,19.59,2.59,3.24,6.84,5.33,11.3,5.33s8.64-2.09,11.3-5.33c3.17-4.39,4.75-11.23,4.75-19.59,0-10.01-1.8-15.99-4.75-19.73-2.88-3.6-6.91-5.18-11.23-5.18s-8.57,1.8-11.3,5.18Z"/><path d="M972.83,280.29c1.01-4.61,3.46-8.21,6.34-10.8,2.67-2.52,6.7-4.54,9.07-6.77,1.8-1.73,2.66-3.46,2.66-5.69,0-1.58-.5-2.95-1.8-4.1-1.15-.94-2.74-1.37-4.75-1.37-1.51,0-2.81.36-3.82,1.08-.86.65-1.51,1.51-2.23,3.1-.58,1.51-1.3,2.23-2.59,2.23-1.22,0-1.94-.72-1.94-2.09,0-1.58,1.15-3.53,3.53-4.82,2.02-1.08,4.46-1.73,7.42-1.73,3.46,0,5.83.65,7.78,2.02,2.09,1.37,3.17,3.1,3.17,5.69,0,2.3-.86,4.1-2.38,5.83-3.31,3.74-7.85,5.18-11.52,7.92-2.23,1.73-3.89,3.74-4.9,6.48h12.82c3.1,0,3.53-.22,4.46-3.74l1.94.29-1.51,7.27h-20.81l-.94-.79Z"/><path d="M1040.94,245.94v14.33h14.69v3.6h-14.69v15.19h-3.6v-15.19h-14.62v-3.6h14.62v-14.33h3.6Z"/><path d="M1098.18,239.82c0-2.95-.43-4.25-1.8-4.25-1.3,0-2.74.65-4.97,1.44l-.58-2.16c5.47-2.16,9-4.03,12.31-6.26l.79.43v44c0,5.33.43,5.76,6.84,5.76v2.3h-19.8v-2.3c6.77,0,7.2-.43,7.2-5.76v-33.2Z"/><path d="M1131.66,276.62c-3.74-4.25-5.83-11.16-5.83-21.82s2.09-17.79,6.7-22.25c2.88-2.66,6.77-4.46,11.95-4.46s9.14,1.8,12.02,4.46c4.68,4.46,6.77,12.02,6.77,22.25s-2.09,17.57-5.83,21.82c-3.67,4.03-8.14,5.54-12.96,5.54-2.45,0-8.07-.22-12.82-5.54ZM1131.81,254.87c0,11.52,1.66,24.55,12.6,24.55s12.67-11.67,12.67-24.55c0-11.45-2.09-17.57-4.75-20.74-2.3-2.52-5.33-3.31-7.92-3.31-9.07,0-12.6,8.5-12.6,24.05Z"/><path d="M1217.35,230.1c-5.33,0-5.76.43-5.76,5.62v37.44c0,5.18.43,5.62,5.76,5.62v2.3h-16.78v-2.3c4.68,0,5.04-.43,5.04-5.54v-18.43h-24.7v18.43c0,5.11.36,5.54,5.04,5.54v2.3h-16.78v-2.3c5.26,0,5.69-.43,5.69-5.62v-37.44c0-5.18-.43-5.62-5.69-5.62v-2.3h16.78v2.3c-4.68,0-5.04.36-5.04,5.47v16.27h24.7v-16.2c0-5.18-.36-5.54-5.04-5.54v-2.3h16.78v2.3Z"/><path d="M1223.1,280.29c1.01-4.61,3.46-8.21,6.34-10.8,2.67-2.52,6.7-4.54,9.07-6.77,1.8-1.73,2.66-3.46,2.66-5.69,0-1.58-.5-2.95-1.8-4.1-1.15-.94-2.74-1.37-4.75-1.37-1.51,0-2.81.36-3.82,1.08-.86.65-1.51,1.51-2.23,3.1-.58,1.51-1.3,2.23-2.59,2.23-1.22,0-1.94-.72-1.94-2.09,0-1.58,1.15-3.53,3.53-4.82,2.02-1.08,4.46-1.73,7.42-1.73,3.46,0,5.83.65,7.78,2.02,2.09,1.37,3.17,3.1,3.17,5.69,0,2.3-.86,4.1-2.38,5.83-3.31,3.74-7.85,5.18-11.52,7.92-2.23,1.73-3.89,3.74-4.9,6.48h12.82c3.1,0,3.53-.22,4.46-3.74l1.94.29-1.51,7.27h-20.81l-.94-.79Z"/><path d="M1253.77,254.44c0-19.44,9.22-27.72,22.39-27.72,14.26,0,22.39,9.58,22.39,27.72s-8.06,27.72-22.39,27.72c-17.14,0-22.39-13.18-22.39-27.72ZM1264.86,234.71c-2.95,3.74-4.83,9.72-4.83,19.73,0,8.35,1.58,15.19,4.75,19.59,2.59,3.24,6.84,5.33,11.3,5.33s8.64-2.09,11.3-5.33c3.17-4.39,4.75-11.23,4.75-19.59,0-10.01-1.8-15.99-4.75-19.73-2.88-3.6-6.91-5.18-11.23-5.18s-8.57,1.8-11.3,5.18Z"/></svg>