<?xml version="1.0" encoding="UTF-8"?><svg id="_レイヤー_2" xmlns="http://www.w3.org/2000/svg" viewBox="0 0 1560 560"><g id="_レイヤー_1-2"><rect width="1560" height="560" rx="18" ry="18" fill="#c8dbc3"/><path d="M72.57,128.94c-2.38,4.25-4.9,8.21-7.56,11.52-.5-1.15-1.66-3.6-2.38-4.68,6.19-7.49,12.17-20.02,15.84-32.48l5.69,1.8c-.22.5-.72.79-1.66.79-1.58,4.82-3.46,9.65-5.54,14.26l1.66.5c-.14.5-.5.79-1.37.94v48.24h-4.68v-40.9ZM110.59,106.69v4.39h-15.19c-.58,3.38-1.22,7.06-2.23,10.8h11.31c.58-.14.72-.14.86-.14.65.22,1.3.43,2.95,1.08-.07.36-.36.65-.58.86-2.95,22.83-10.94,38.31-22.18,46.37-.65-1.15-2.23-3.02-3.24-3.82,6.19-4.25,11.38-10.73,15.12-19.66-2.09-2.3-5.9-5.47-9.15-7.7l2.09-3.67c3.02,2.02,6.7,4.75,8.71,6.91,1.58-4.75,2.88-10.01,3.67-15.84h-10.73c-2.23,7.27-5.33,14.4-9.79,19.66-.65-1.01-2.09-2.59-3.02-3.38,6.62-7.92,9.87-20.74,11.45-31.47h-7.13v-4.39h27.07ZM114.77,153.13h-4.46v-42.05l5.83.36c-.07.5-.43.86-1.37,1.01v40.68ZM123.84,103.95l5.98.36c-.07.5-.43.86-1.37.94v58.18c0,5.98-2.74,6.41-14.19,6.41-.22-1.3-.94-3.46-1.58-4.82,2.23.07,4.32.14,5.98.14,4.75,0,5.18,0,5.18-1.66v-59.55Z"/><path d="M174.53,118.79c0,2.66-2.16,4.82-4.9,4.82s-4.9-2.16-4.9-4.82,2.16-4.9,4.9-4.9c2.88,0,4.9,2.3,4.9,4.9ZM174.53,153.78c0,2.74-2.16,4.9-4.9,4.9s-4.9-2.16-4.9-4.9,2.16-4.82,4.9-4.82c2.88,0,4.9,2.3,4.9,4.82Z"/><path d="M273.24,125.84h-26.86c6.7,12.6,18.29,25.35,29.23,31.47-1.22,1.01-2.88,2.88-3.74,4.18-10.15-6.41-20.59-18.22-27.79-30.67v38.96h-5.04v-38.74c-7.06,12.75-17.43,24.34-27.87,30.75-.86-1.22-2.45-3.1-3.6-4.03,11.23-6.19,22.61-18.94,29.16-31.9h-26.64v-4.82h28.95v-18.07l6.55.36c-.07.58-.5.94-1.51,1.01v16.71h29.16v4.82Z"/><path d="M291.16,130.67v9.79c0,8.64-1.22,20.81-7.7,28.87-.79-.94-2.81-2.59-3.82-3.17,5.98-7.49,6.7-18,6.7-25.71v-14.26h59.33v4.46h-54.51ZM343.15,106.11c-.07.43-.5.79-1.51.94v13.25h-55.3v-14.62l6.26.43c-.07.43-.43.79-1.44.94v8.86h19.87v-13.1l6.41.36c-.07.5-.5.86-1.44,1.01v11.74h20.59v-10.22l6.55.43ZM321.62,132.25c-.07.5-.58.94-1.58,1.08l-.07,1.3c1.01,13.75,3.74,25.99,26.86,30.6-1.08,1.15-2.3,3.24-2.88,4.54-16.71-3.67-23.04-11.74-25.92-21.31-2.66,10.44-8.93,17.5-24.84,21.39-.43-1.22-1.66-3.1-2.66-4.03,21.31-4.82,23.91-15.27,24.77-34.06l6.34.5ZM306.72,137.58c-1.8,5.76-4.9,11.38-9.72,14.55l-3.74-2.45c4.32-2.66,7.56-7.7,9.14-13.1l4.32,1.01ZM342.86,138.44c-.22.43-.72.72-1.58.65-2.3,3.6-6.05,8.71-9.07,12.1-.07,0-3.89-1.8-3.96-1.8,3.02-3.53,6.91-9.14,9-13.1l5.62,2.16Z"/><path d="M409.75,161.99c-2.52,1.22-7.42,2.45-13.68,2.45-14.11,0-25.49-9.14-25.49-27.72s11.02-28.73,27.07-28.73c6.55,0,10.37,1.37,12.1,2.23l-1.58,5.04c-2.52-1.22-6.05-2.23-10.37-2.23-12.46,0-20.95,8.35-20.95,23.47s7.78,22.9,20.59,22.9c4.18,0,8.28-.94,11.02-2.23l1.3,4.82Z"/><path d="M491.4,134.41v4.54h-24.05v23.98h-4.46v-23.98h-24.05v-4.54h24.05v-24.05h4.46v24.05h24.05Z"/><path d="M551.08,135.71c0,19.3-10.8,28.8-23.76,28.8-13.61,0-23.26-10.73-23.26-27.87s10.15-28.73,23.91-28.73,23.11,11.23,23.11,27.79ZM510.33,136.5c0,11.67,6.05,23.04,17.21,23.04s17.28-11.02,17.28-23.55c0-11.02-5.4-23.11-17.14-23.11s-17.35,11.95-17.35,23.62Z"/><path d="M554.9,175.6v-2.59l4.9-4.68c6.41-6.19,10.23-10.44,10.23-14.91,0-3.31-1.94-5.9-6.26-5.9-2.81,0-5.18,1.44-6.62,2.52l-1.51-3.24c2.02-1.73,5.47-3.31,9.36-3.31,7.34,0,10.23,4.82,10.23,9,0,6.12-4.61,11.02-10.73,16.42l-2.66,2.59v.14h13.97v3.96h-20.88Z"/><path d="M597.66,138.52v-4.46h56.38c-3.82-2.88-8.71-7.56-12.1-12.1l3.89-2.38c4.9,6.34,12.03,12.6,18.43,16.71-6.41,4.1-13.54,10.37-18.43,16.71l-3.89-2.38c3.38-4.54,8.28-9.22,12.1-12.1h-56.38Z"/><path d="M780.91,161.99c-2.52,1.22-7.42,2.45-13.68,2.45-14.11,0-25.49-9.14-25.49-27.72s11.02-28.73,27.07-28.73c6.55,0,10.37,1.37,12.1,2.23l-1.58,5.04c-2.52-1.22-6.05-2.23-10.37-2.23-12.46,0-20.95,8.35-20.95,23.47s7.78,22.9,20.59,22.9c4.18,0,8.28-.94,11.02-2.23l1.3,4.82Z"/><path d="M833.47,135.71c0,19.3-10.8,28.8-23.76,28.8-13.61,0-23.26-10.73-23.26-27.87s10.15-28.73,23.91-28.73,23.11,11.23,23.11,27.79ZM792.71,136.5c0,11.67,6.05,23.04,17.21,23.04s17.28-11.02,17.28-23.55c0-11.02-5.4-23.11-17.14-23.11s-17.35,11.95-17.35,23.62Z"/><path d="M837.28,175.6v-2.59l4.9-4.68c6.41-6.19,10.22-10.44,10.22-14.91,0-3.31-1.94-5.9-6.26-5.9-2.81,0-5.18,1.44-6.62,2.52l-1.51-3.24c2.02-1.73,5.47-3.31,9.36-3.31,7.34,0,10.22,4.82,10.22,9,0,6.12-4.61,11.02-10.73,16.42l-2.66,2.59v.14h13.97v3.96h-20.88Z"/><path d="M982.65,103.16c-7.85,6.55-14.26,18.58-14.26,33.12s6.62,26.79,14.26,33.12v.36h-4.32c-7.27-6.55-13.75-18.65-13.75-33.48s6.48-26.93,13.75-33.48h4.32v.36Z"/><path d="M1031.53,161.13c0,2.09.58,2.45,3.74,2.45h10.8c2.88,0,3.38-1.3,3.6-9.79,1.08.79,3.17,1.51,4.46,1.94-.58,9.87-1.94,12.39-7.71,12.39h-11.59c-6.41,0-8.14-1.51-8.14-6.98v-18.58h-13.11l-.36.07c-1.87,12.46-5.62,22.25-23.04,27.22-.5-1.22-1.8-3.1-2.81-4.1,15.41-3.96,19.23-12.03,20.67-23.19h-19.23v-4.61h64.88v4.61h-22.18v18.58ZM995.82,116.41v10.44h-4.9v-15.12h27.58v-8.93l6.48.43c-.07.5-.43.86-1.44,1.01v7.49h27.87v15.12h-5.04v-10.44h-50.55ZM1041.04,129.37h-39.6v-4.54h39.6v4.54Z"/><path d="M1097.34,102.95c-.14.58-.72.94-1.44,1.08,6.98,9.5,19.95,20.38,31.11,26.14-1.22,1.15-2.38,2.81-3.24,4.25-11.3-6.62-24.19-17.57-30.89-26.86-5.9,8.93-17.79,20.02-30.24,27.36-.65-1.08-2.02-2.81-3.02-3.82,12.6-7.06,25.06-18.94,30.67-28.51l7.06.36ZM1095.47,150.61v12.6h29.02v4.46h-62.29v-4.46h28.23v-12.6h-22.18v-4.39h22.18v-11.95h-19.01v-4.39h43.85v4.39h-19.8v11.95h22.47v4.39h-22.47Z"/><path d="M1145.87,128.08c0,5.62-.14,11.23-.94,16.71,2.02,2.52,7.2,10.01,8.42,11.88l-3.31,3.38c-1.22-2.3-3.82-6.55-6.05-9.94-1.51,7.13-4.39,13.83-9.43,19.8-.72-1.01-2.23-2.52-3.24-3.17,9.22-11.09,10.22-25.06,10.22-38.67v-25.2l5.76.36c-.07.43-.5.79-1.44.94v23.91ZM1131.4,135.35c2.74-3.89,3.96-11.02,4.1-17.57l3.38.5c-.14,6.91-1.22,14.62-4.39,19.08l-3.1-2.02ZM1155.95,115.83c-.14.43-.65.65-1.44.65-1.3,4.25-3.74,10.73-5.69,14.69l-2.81-1.3c1.8-4.18,4.03-11.09,5.18-15.84l4.75,1.8ZM1162.86,153.64c-1.73,5.9-4.39,12.31-9.15,16.2l-3.6-2.45c4.46-3.46,7.42-9.5,8.93-15.05l3.82,1.3ZM1198.29,122.82h-10.15c1.73,10.51,5.26,20.31,11.09,24.77-1.01.86-2.52,2.45-3.17,3.6-4.61-3.96-7.7-10.73-9.72-18.65-1.73,6.7-5.4,13.11-13.03,18.51-.65-.94-2.02-2.45-3.02-3.1,10.15-7.2,12.67-16.27,13.18-25.13h-8.14v-.58c-3.38,13.97-9.72,23.62-17.93,28.95-.58-1.08-1.73-2.52-2.74-3.38,4.1-2.45,7.78-6.34,10.8-11.45-1.8-1.8-4.75-4.03-7.27-5.54l2.16-2.59c2.3,1.3,5.04,3.24,6.84,4.82.94-1.94,1.8-3.96,2.52-6.12-1.87-1.51-4.82-3.31-7.27-4.54l1.8-2.95c2.23,1.01,4.75,2.38,6.62,3.74.72-2.66,1.37-5.47,1.8-8.42h-8.28c-2.3,6.98-5.47,13.32-9.22,17.79-.72-.79-2.23-2.02-3.17-2.66,5.18-5.9,9.14-16.35,11.3-27.15l5.33,1.22c-.14.58-.65.86-1.51.86-.43,2.02-.94,4.03-1.51,5.98h8.64l.79-.14,2.52.79c-.07.43-.29.65-.43.86-.29,2.16-.65,4.32-1.01,6.34h7.49v-15.7l5.54.36c-.07.5-.43.86-1.37.94v14.4h10.51v4.18ZM1168.55,168.76c.07-3.74-.65-9.58-1.66-14.11l3.96-.58c1.22,4.46,1.94,10.3,1.94,14.04l-4.25.65ZM1181.44,168.9c-.58-3.89-2.59-9.72-4.75-14.19l3.82-1.15c2.3,4.39,4.39,10.3,5.11,14.11l-4.18,1.22ZM1195.19,169.91c-1.44-4.25-5.11-11.09-8.57-16.13l3.82-1.51c3.6,4.97,7.34,11.67,8.86,15.91l-4.1,1.73ZM1192.96,104.6c2.16,3.38,4.32,7.78,5.18,10.66l-3.53,1.51c-.79-3.02-2.88-7.49-4.9-10.87l3.24-1.3Z"/><path d="M1219.16,127.93c0,5.62-.14,11.23-.94,16.71,2.45,2.66,8.93,10.3,10.44,12.24l-3.31,3.53c-1.51-2.45-5.26-7.27-8.14-10.73-1.66,7.27-4.82,14.19-10.58,20.23-.72-1.01-2.23-2.59-3.31-3.24,10.3-10.95,11.45-25.06,11.45-38.74v-25.06c3.38.29,4.61.29,5.76.36-.07.5-.43.86-1.37.94v23.76ZM1203.4,135.42c2.95-3.82,4.25-10.94,4.39-17.64l3.53.5c-.14,6.91-1.37,14.47-4.68,18.87l-3.24-1.73ZM1230.61,117.42c-.22.36-.72.58-1.44.58-1.44,4.03-3.96,10.08-5.98,13.97-.07-.07-3.02-1.58-3.02-1.58,1.87-3.96,4.32-10.58,5.54-15.12l4.9,2.16ZM1256.25,163c0,1.66.29,1.94,2.23,1.94h6.19c1.73,0,2.09-1.01,2.3-8.21.94.72,2.81,1.44,4.03,1.8-.43,8.42-1.66,10.51-5.83,10.51h-7.27c-5.11,0-6.26-1.3-6.26-6.12v-16.63h-7.56c-.07.43-.58.72-1.37.79-1.01,11.31-3.6,18.79-16.2,22.83-.43-1.08-1.66-2.74-2.66-3.53,11.09-3.38,13.61-9.5,14.33-20.09h-10.87v-4.25h8.86v-9.5h-8.86v-4.32h8.86v-9l5.83.43c-.07.43-.43.79-1.37.94v7.63h16.27v-9l5.91.43c-.07.43-.43.79-1.37.94v7.63h8.93v4.32h-8.93v9.5h9.07v4.25h-12.89c-.14.43-.5.72-1.37.79v15.91ZM1246.38,123.61v-8.78h-16.27v-4.18h16.27v-7.78l6.05.36c-.07.5-.43.86-1.44,1.01v6.41h16.71v4.18h-16.71v8.78h-4.61ZM1240.62,132.54v9.5h16.27v-9.5h-16.27Z"/><path d="M1298.8,107.63v47.67h-15.84v5.83h-4.61v-53.5h20.45ZM1294.26,112.09h-11.3v16.92h11.3v-16.92ZM1282.96,150.83h11.3v-17.43h-11.3v17.43ZM1323.64,126.06h18.94v4.39h-42.48v-4.39h18.79v-9.86h-15.7v-4.32h15.7v-8.93l6.19.36c-.07.5-.5.86-1.44,1.01v7.56h16.06v4.32h-16.06v9.86ZM1335.09,132.47c-.07.5-.43.86-1.37.94v6.19h8.71v4.32h-8.71v20.16c0,2.95-.65,4.32-2.88,5.04-2.16.72-5.83.79-11.81.79-.22-1.3-.94-3.24-1.66-4.54,2.74.07,5.33.14,7.2.14,4.03,0,4.39,0,4.39-1.51v-20.09h-28.59v-4.32h28.59v-7.49l6.12.36ZM1314.57,162.35c-1.66-3.6-5.69-9.07-9.43-12.96l3.89-2.3c3.82,3.74,7.99,9.07,9.72,12.67l-4.18,2.59Z"/><path d="M1347.68,169.41c7.85-6.55,14.26-18.58,14.26-33.12s-6.62-26.79-14.26-33.12v-.36h4.32c7.34,6.55,13.75,18.65,13.75,33.48s-6.41,26.93-13.75,33.48h-4.32v-.36Z"/><path d="M274.25,258.02h-26.86c6.7,12.6,18.29,25.35,29.23,31.47-1.22,1.01-2.88,2.88-3.74,4.18-10.15-6.41-20.59-18.22-27.79-30.67v38.96h-5.04v-38.74c-7.06,12.75-17.43,24.34-27.87,30.75-.86-1.22-2.45-3.1-3.6-4.03,11.23-6.19,22.61-18.94,29.16-31.9h-26.64v-4.82h28.95v-18.07l6.55.36c-.07.58-.5.94-1.51,1.01v16.71h29.16v4.82Z"/><path d="M292.17,262.85v9.79c0,8.64-1.22,20.81-7.7,28.87-.79-.94-2.81-2.59-3.82-3.17,5.98-7.49,6.7-18,6.7-25.71v-14.26h59.33v4.46h-54.51ZM344.16,238.29c-.07.43-.5.79-1.51.94v13.25h-55.3v-14.62l6.26.43c-.07.43-.43.79-1.44.94v8.86h19.87v-13.1l6.41.36c-.07.5-.5.86-1.44,1.01v11.74h20.59v-10.22l6.55.43ZM322.63,264.43c-.07.5-.58.94-1.58,1.08l-.07,1.3c1.01,13.75,3.74,25.99,26.86,30.6-1.08,1.15-2.3,3.24-2.88,4.54-16.71-3.67-23.04-11.74-25.92-21.31-2.66,10.44-8.93,17.5-24.84,21.39-.43-1.22-1.66-3.1-2.66-4.03,21.31-4.82,23.91-15.26,24.77-34.06l6.34.5ZM307.72,269.76c-1.8,5.76-4.9,11.38-9.72,14.55l-3.74-2.45c4.32-2.66,7.56-7.7,9.14-13.1l4.32,1.01ZM343.87,270.62c-.22.43-.72.72-1.58.65-2.3,3.6-6.05,8.71-9.07,12.1-.07,0-3.89-1.8-3.96-1.8,3.02-3.53,6.91-9.14,9-13.1l5.62,2.16Z"/><path d="M404.06,295.82h-31.9v-3.67l5.26-5.54c12.82-12.96,19.3-20.81,19.3-29.59,0-5.76-2.52-11.09-10.3-11.09-4.32,0-8.21,2.38-10.8,4.46l-2.02-4.18c3.31-2.95,8.21-5.26,13.97-5.26,10.87,0,15.19,7.92,15.19,15.34,0,10.15-7.13,18.79-18.29,30.03l-4.25,4.46v.14h23.83v4.9Z"/><path d="M450.43,294.17c-2.52,1.22-7.42,2.45-13.68,2.45-14.11,0-25.49-9.14-25.49-27.72s11.02-28.73,27.07-28.73c6.55,0,10.37,1.37,12.1,2.23l-1.58,5.04c-2.52-1.22-6.05-2.23-10.37-2.23-12.46,0-20.95,8.35-20.95,23.47s7.78,22.9,20.59,22.9c4.18,0,8.28-.94,11.02-2.23l1.3,4.82Z"/><path d="M532.08,266.59v4.54h-24.05v23.98h-4.46v-23.98h-24.05v-4.54h24.05v-24.05h4.46v24.05h24.05Z"/><path d="M591.76,267.89c0,19.3-10.8,28.8-23.76,28.8-13.61,0-23.26-10.73-23.26-27.87s10.15-28.73,23.91-28.73,23.11,11.23,23.11,27.79ZM551.01,268.68c0,11.67,6.05,23.04,17.21,23.04s17.28-11.02,17.28-23.55c0-11.02-5.4-23.11-17.14-23.11s-17.35,11.95-17.35,23.62Z"/><path d="M595.58,307.78v-2.59l4.9-4.68c6.41-6.19,10.23-10.44,10.23-14.91,0-3.31-1.94-5.9-6.26-5.9-2.81,0-5.18,1.44-6.62,2.52l-1.51-3.24c2.02-1.73,5.47-3.31,9.36-3.31,7.34,0,10.23,4.82,10.23,9,0,6.12-4.61,11.02-10.73,16.42l-2.66,2.59v.14h13.97v3.96h-20.88Z"/><path d="M638.34,270.69v-4.46h56.38c-3.82-2.88-8.71-7.56-12.1-12.1l3.89-2.38c4.9,6.34,12.03,12.6,18.43,16.71-6.41,4.1-13.54,10.37-18.43,16.71l-3.89-2.38c3.38-4.54,8.28-9.22,12.1-12.1h-56.38Z"/><path d="M814.89,295.82h-31.9v-3.67l5.26-5.54c12.82-12.96,19.3-20.81,19.3-29.59,0-5.76-2.52-11.09-10.3-11.09-4.32,0-8.21,2.38-10.8,4.46l-2.02-4.18c3.31-2.95,8.21-5.26,13.97-5.26,10.87,0,15.19,7.92,15.19,15.34,0,10.15-7.13,18.79-18.29,30.03l-4.25,4.46v.14h23.83v4.9Z"/><path d="M861.26,294.17c-2.52,1.22-7.42,2.45-13.68,2.45-14.11,0-25.49-9.14-25.49-27.72s11.02-28.73,27.07-28.73c6.55,0,10.37,1.37,12.1,2.23l-1.58,5.04c-2.52-1.22-6.05-2.23-10.37-2.23-12.46,0-20.95,8.35-20.95,23.47s7.78,22.9,20.59,22.9c4.18,0,8.28-.94,11.02-2.23l1.3,4.82Z"/><path d="M913.82,267.89c0,19.3-10.8,28.8-23.76,28.8-13.61,0-23.26-10.73-23.26-27.87s10.15-28.73,23.91-28.73,23.11,11.23,23.11,27.79ZM873.06,268.68c0,11.67,6.05,23.04,17.21,23.04s17.28-11.02,17.28-23.55c0-11.02-5.4-23.11-17.14-23.11s-17.35,11.95-17.35,23.62Z"/><path d="M1039.03,235.34c-7.85,6.55-14.26,18.58-14.26,33.12s6.62,26.79,14.26,33.12v.36h-4.32c-7.27-6.55-13.75-18.65-13.75-33.48s6.48-26.93,13.75-33.48h4.32v.36Z"/><path d="M1108.94,245.06h-22.25c-.29.5-1.01.65-1.8.58-1.58,3.02-3.46,6.05-5.47,9l2.02.58c-.14.43-.58.86-1.51.94v45.87h-4.97v-41.4c-7.42,9.22-16.92,17.86-27.51,24.05-.72-1.15-2.23-3.02-3.24-4.03,14.91-8.21,27.87-22.03,35.21-35.57h-33.27v-4.82h62.79v4.82ZM1106.99,283.8c-5.26-5.26-16.27-13.18-24.99-18.58l3.46-3.31c8.64,5.04,19.73,12.75,25.2,17.93l-3.67,3.96Z"/><path d="M1159.91,293.3c0,2.09.58,2.45,3.74,2.45h10.8c2.88,0,3.38-1.3,3.6-9.79,1.08.79,3.17,1.51,4.46,1.94-.58,9.87-1.94,12.39-7.71,12.39h-11.59c-6.41,0-8.14-1.51-8.14-6.98v-18.58h-13.11l-.36.07c-1.87,12.46-5.62,22.25-23.04,27.22-.5-1.22-1.8-3.1-2.81-4.1,15.41-3.96,19.23-12.03,20.67-23.19h-19.23v-4.61h64.88v4.61h-22.18v18.58ZM1124.2,248.59v10.44h-4.9v-15.12h27.58v-8.93l6.48.43c-.07.5-.43.86-1.44,1.01v7.49h27.87v15.12h-5.04v-10.44h-50.55ZM1169.42,261.55h-39.6v-4.54h39.6v4.54Z"/><path d="M1225.72,235.12c-.14.58-.72.94-1.44,1.08,6.98,9.5,19.95,20.38,31.11,26.14-1.22,1.15-2.38,2.81-3.24,4.25-11.3-6.62-24.19-17.57-30.89-26.86-5.9,8.93-17.79,20.02-30.24,27.36-.65-1.08-2.02-2.81-3.02-3.82,12.6-7.06,25.06-18.94,30.67-28.51l7.06.36ZM1223.85,282.79v12.6h29.02v4.46h-62.29v-4.46h28.23v-12.6h-22.18v-4.39h22.18v-11.95h-19.01v-4.39h43.85v4.39h-19.8v11.95h22.47v4.39h-22.47Z"/><path d="M1274.24,260.25c0,5.62-.14,11.23-.94,16.71,2.02,2.52,7.2,10.01,8.42,11.88l-3.31,3.38c-1.22-2.3-3.82-6.55-6.05-9.94-1.51,7.13-4.39,13.83-9.43,19.8-.72-1.01-2.23-2.52-3.24-3.17,9.22-11.09,10.22-25.06,10.22-38.67v-25.2l5.76.36c-.07.43-.5.79-1.44.94v23.91ZM1259.77,267.53c2.74-3.89,3.96-11.02,4.1-17.57l3.38.5c-.14,6.91-1.22,14.62-4.39,19.08l-3.1-2.02ZM1284.32,248.01c-.14.43-.65.65-1.44.65-1.3,4.25-3.75,10.73-5.69,14.69l-2.81-1.3c1.8-4.18,4.03-11.09,5.18-15.84l4.75,1.8ZM1291.24,285.82c-1.73,5.9-4.39,12.31-9.15,16.2l-3.6-2.45c4.46-3.46,7.42-9.5,8.93-15.05l3.82,1.3ZM1326.66,255h-10.15c1.73,10.51,5.26,20.31,11.09,24.77-1.01.86-2.52,2.45-3.17,3.6-4.61-3.96-7.7-10.73-9.72-18.65-1.73,6.7-5.4,13.11-13.03,18.51-.65-.94-2.02-2.45-3.02-3.1,10.15-7.2,12.67-16.27,13.18-25.13h-8.14v-.58c-3.38,13.97-9.72,23.62-17.93,28.95-.58-1.08-1.73-2.52-2.74-3.38,4.1-2.45,7.78-6.34,10.8-11.45-1.8-1.8-4.75-4.03-7.27-5.54l2.16-2.59c2.3,1.3,5.04,3.24,6.84,4.82.94-1.94,1.8-3.96,2.52-6.12-1.87-1.51-4.82-3.31-7.27-4.54l1.8-2.95c2.23,1.01,4.75,2.38,6.62,3.74.72-2.66,1.37-5.47,1.8-8.42h-8.28c-2.3,6.98-5.47,13.32-9.22,17.79-.72-.79-2.23-2.02-3.17-2.66,5.18-5.9,9.14-16.35,11.3-27.15l5.33,1.22c-.14.58-.65.86-1.51.86-.43,2.02-.94,4.03-1.51,5.98h8.64l.79-.14,2.52.79c-.07.43-.29.65-.43.86-.29,2.16-.65,4.32-1.01,6.34h7.49v-15.7l5.54.36c-.07.5-.43.86-1.37.94v14.4h10.51v4.18ZM1296.93,300.94c.07-3.74-.65-9.58-1.66-14.11l3.96-.58c1.22,4.46,1.94,10.3,1.94,14.04l-4.25.65ZM1309.82,301.08c-.58-3.89-2.59-9.72-4.75-14.19l3.82-1.15c2.3,4.39,4.39,10.3,5.11,14.11l-4.18,1.22ZM1323.57,302.09c-1.44-4.25-5.11-11.09-8.57-16.13l3.82-1.51c3.6,4.97,7.34,11.67,8.86,15.91l-4.1,1.73ZM1321.34,236.78c2.16,3.38,4.32,7.78,5.18,10.66l-3.53,1.51c-.79-3.02-2.88-7.49-4.9-10.87l3.24-1.3Z"/><path d="M1347.54,260.11c0,5.62-.14,11.23-.94,16.71,2.45,2.66,8.93,10.3,10.44,12.24l-3.31,3.53c-1.51-2.45-5.26-7.27-8.14-10.73-1.66,7.27-4.82,14.18-10.58,20.23-.72-1.01-2.23-2.59-3.31-3.24,10.3-10.95,11.45-25.06,11.45-38.74v-25.06c3.38.29,4.61.29,5.76.36-.07.5-.43.86-1.37.94v23.76ZM1331.77,267.6c2.95-3.82,4.25-10.94,4.39-17.64l3.53.5c-.14,6.91-1.37,14.47-4.68,18.87l-3.24-1.73ZM1358.99,249.6c-.22.36-.72.58-1.44.58-1.44,4.03-3.96,10.08-5.98,13.97-.07-.07-3.02-1.58-3.02-1.58,1.87-3.96,4.32-10.58,5.54-15.12l4.9,2.16ZM1384.62,295.18c0,1.66.29,1.94,2.23,1.94h6.19c1.73,0,2.09-1.01,2.3-8.21.94.72,2.81,1.44,4.03,1.8-.43,8.42-1.66,10.51-5.83,10.51h-7.27c-5.11,0-6.26-1.3-6.26-6.12v-16.63h-7.56c-.07.43-.58.72-1.37.79-1.01,11.31-3.6,18.79-16.2,22.83-.43-1.08-1.66-2.74-2.67-3.53,11.09-3.38,13.61-9.5,14.33-20.09h-10.87v-4.25h8.86v-9.5h-8.86v-4.32h8.86v-9l5.83.43c-.07.43-.43.79-1.37.94v7.63h16.27v-9l5.91.43c-.07.43-.43.79-1.37.94v7.63h8.93v4.32h-8.93v9.5h9.07v4.25h-12.89c-.14.43-.5.72-1.37.79v15.91ZM1374.76,255.79v-8.78h-16.27v-4.18h16.27v-7.78l6.05.36c-.07.5-.43.86-1.44,1.01v6.41h16.71v4.18h-16.71v8.78h-4.61ZM1369,264.72v9.5h16.27v-9.5h-16.27Z"/><path d="M1427.17,239.8v47.67h-15.84v5.83h-4.61v-53.5h20.45ZM1422.64,244.27h-11.3v16.92h11.3v-16.92ZM1411.33,283.01h11.3v-17.43h-11.3v17.43ZM1452.02,258.24h18.94v4.39h-42.48v-4.39h18.79v-9.86h-15.7v-4.32h15.7v-8.93l6.19.36c-.07.5-.5.86-1.44,1.01v7.56h16.06v4.32h-16.06v9.86ZM1463.46,264.65c-.07.5-.43.86-1.37.94v6.19h8.71v4.32h-8.71v20.16c0,2.95-.65,4.32-2.88,5.04-2.16.72-5.83.79-11.81.79-.22-1.3-.94-3.24-1.66-4.54,2.74.07,5.33.14,7.2.14,4.03,0,4.39,0,4.39-1.51v-20.09h-28.59v-4.32h28.59v-7.49l6.12.36ZM1442.94,294.53c-1.66-3.6-5.69-9.07-9.43-12.96l3.89-2.3c3.82,3.74,7.99,9.07,9.72,12.67l-4.18,2.59Z"/><path d="M1476.06,301.59c7.85-6.55,14.26-18.58,14.26-33.12s-6.62-26.79-14.26-33.12v-.36h4.32c7.34,6.55,13.75,18.65,13.75,33.48s-6.41,26.93-13.75,33.48h-4.32v-.36Z"/><path d="M220.17,388.05v9.79c0,8.64-1.22,20.81-7.7,28.87-.79-.94-2.81-2.59-3.82-3.17,5.98-7.49,6.7-18,6.7-25.71v-14.26h59.33v4.46h-54.51ZM272.16,363.5c-.07.43-.5.79-1.51.94v13.25h-55.3v-14.62l6.26.43c-.07.43-.43.79-1.44.94v8.86h19.87v-13.1l6.41.36c-.07.5-.5.86-1.44,1.01v11.74h20.59v-10.22l6.55.43ZM250.63,389.64c-.07.5-.58.94-1.58,1.08l-.07,1.3c1.01,13.75,3.74,25.99,26.86,30.6-1.08,1.15-2.3,3.24-2.88,4.54-16.71-3.67-23.04-11.74-25.92-21.31-2.66,10.44-8.93,17.5-24.84,21.39-.43-1.22-1.66-3.1-2.66-4.03,21.31-4.82,23.91-15.26,24.77-34.06l6.34.5ZM235.72,394.97c-1.8,5.76-4.9,11.38-9.72,14.55l-3.74-2.45c4.32-2.66,7.56-7.71,9.14-13.11l4.32,1.01ZM271.87,395.83c-.22.43-.72.72-1.58.65-2.3,3.6-6.05,8.71-9.07,12.1-.07,0-3.89-1.8-3.96-1.8,3.02-3.53,6.91-9.14,9-13.11l5.62,2.16Z"/><path d="M292.46,427.15v-41.55c-3.1,4.68-6.34,8.93-9.72,12.46-.58-1.22-1.87-3.46-2.74-4.61,7.49-7.49,15.12-20.09,19.73-32.69l5.9,2.02c-.29.65-.94.79-1.66.65-2.09,5.18-4.54,10.3-7.27,15.19l2.09.58c-.14.5-.5.86-1.44.94v47.02h-4.9ZM318.53,416.42c0,4.03.86,4.97,5.04,4.97h15.05c4.1,0,4.75-2.74,5.26-13.46,1.22.94,3.17,1.87,4.61,2.16-.79,11.81-2.23,15.91-9.65,15.91h-15.55c-7.42,0-9.58-2.02-9.58-9.72v-54.44l6.26.43c-.07.5-.43.86-1.44,1.01v26.71c8.5-4.75,17.28-10.58,22.68-15.7l3.96,4.61c-.29.22-.79.36-1.37.22-6.05,5.11-15.99,10.87-25.27,15.77v21.53Z"/><path d="M376.99,379.27l3.46,1.58c-.14.29-.43.65-.79.86-3.74,18.15-12.6,31.54-23.33,38.81-.86-1.22-2.74-3.1-3.89-3.89,9.72-6.05,17.79-17.21,21.46-32.26h-19.51v-4.9h21.75l.86-.22ZM389.23,373.65c1.58,5.98,3.74,11.74,6.34,17.07,6.05-5.11,13.39-12.67,17.86-18.51l5.11,3.82c-.36.43-1.01.5-1.58.43-4.97,5.47-13.03,13.18-19.3,18.22,5.76,10.08,13.47,18.22,23.33,22.39-1.22,1.01-2.88,2.95-3.74,4.39-13.11-6.26-22.11-19.08-28.01-34.71v33.34c0,6.55-3.02,7.13-16.56,7.13-.29-1.44-1.22-3.89-2.02-5.26,2.74.07,5.26.07,7.27.07,6.05,0,6.26,0,6.26-1.94v-59.69l6.48.36c-.07.58-.43.94-1.44,1.01v11.88Z"/><path d="M460.94,384.17h30.82v3.89h-34.85l.72.36c-.29.43-.79.58-1.58.5-2.74,2.52-6.98,6.05-10.58,8.64,2.38,1.37,4.61,2.81,6.34,4.1,5.62-3.89,11.3-8.35,15.19-11.95l5.04,2.95c-.29.36-.86.5-1.58.5-4.97,4.03-12.17,9.14-18.79,13.18,8.06-.07,16.92-.22,25.63-.36-2.95-1.87-6.05-3.6-8.93-5.04,2.52-2.02,2.88-2.38,3.17-2.74,6.62,3.1,14.69,7.99,18.79,11.81l-3.38,3.1c-1.15-1.15-2.74-2.45-4.54-3.74-7.13.29-14.4.5-21.46.65v17.14h-4.82v-16.99c-10.15.29-19.44.43-26.35.58-.14.58-.58.86-1.08.94l-1.73-5.11c4.68,0,10.73-.07,17.5-.14,1.15-.65,2.3-1.37,3.53-2.16-3.74-2.81-9.36-6.05-14.11-8.35l3.1-2.74c1.51.72,3.17,1.51,4.82,2.38,2.88-2.09,6.05-4.97,8.57-7.49h-24.7v-3.89h30.46v-5.04h-21.39v-3.82h21.39v-4.97h-26.28v-3.89h26.28v-6.34l6.26.43c-.07.5-.5.86-1.44,1.01v4.9h27.15v3.89h-27.15v4.97h22.03v3.82h-22.03v5.04ZM449.06,414.34c-.29.43-.86.65-1.66.5-4.82,4.03-12.02,8.28-18.29,11.02-.79-.86-2.45-2.45-3.46-3.1,6.26-2.52,13.54-6.55,18.07-10.73l5.33,2.3ZM486.79,425.64c-3.89-3.38-11.74-7.99-18.15-10.94l3.6-2.67c6.26,2.74,14.26,7.27,18.36,10.66l-3.82,2.95Z"/><path d="M553.53,419.38c-2.52,1.22-7.42,2.45-13.68,2.45-14.11,0-25.49-9.14-25.49-27.72s11.02-28.73,27.07-28.73c6.55,0,10.37,1.37,12.1,2.23l-1.58,5.04c-2.52-1.22-6.05-2.23-10.37-2.23-12.46,0-20.95,8.35-20.95,23.47s7.78,22.9,20.59,22.9c4.18,0,8.28-.94,11.02-2.23l1.3,4.82Z"/><path d="M615.45,421.03h-5.9v-22.68c0-7.63-2.74-12.53-8.64-12.53-4.82,0-9.22,4.54-9.22,10.51v24.7h-5.9v-24.19c0-6.26-2.66-11.02-8.21-11.02-5.11,0-9.65,5.04-9.65,11.16v24.05h-5.9v-29.16c0-4.03-.14-6.91-.29-10.15h5.26l.36,6.34h.22c2.16-3.82,5.76-7.2,11.95-7.2,5.11,0,9.07,3.17,10.73,7.85h.14c2.59-4.68,6.55-7.85,12.6-7.85,4.82,0,12.46,3.1,12.46,16.56v23.62Z"/><path d="M665.42,421.03h-5.98v-26.21h-26.21v26.21h-5.98v-54.8h5.98v23.4h26.21v-23.4h5.98v54.8Z"/><path d="M708.84,421.03h-5.98v-23.19c0-6.41-2.3-12.03-9.15-12.03-5.11,0-10.3,4.32-10.3,11.16v24.05h-5.98v-29.16c0-4.03-.14-6.98-.29-10.15h5.33l.36,6.41h.14c1.94-3.82,6.48-7.27,12.6-7.27,4.9,0,13.25,2.95,13.25,16.27v23.91Z"/><path d="M793.58,391.8v4.54h-24.05v23.98h-4.46v-23.98h-24.05v-4.54h24.05v-24.05h4.46v24.05h24.05Z"/><path d="M853.27,393.09c0,19.3-10.8,28.8-23.76,28.8-13.61,0-23.26-10.73-23.26-27.87s10.15-28.73,23.91-28.73,23.11,11.23,23.11,27.79ZM812.51,393.89c0,11.67,6.05,23.04,17.21,23.04s17.28-11.02,17.28-23.55c0-11.02-5.4-23.11-17.14-23.11s-17.35,11.95-17.35,23.62Z"/><path d="M857.08,432.99v-2.59l4.9-4.68c6.41-6.19,10.22-10.44,10.22-14.91,0-3.31-1.94-5.9-6.26-5.9-2.81,0-5.18,1.44-6.62,2.52l-1.51-3.24c2.02-1.73,5.47-3.31,9.36-3.31,7.34,0,10.22,4.82,10.22,9,0,6.12-4.61,11.02-10.73,16.42l-2.66,2.59v.14h13.97v3.96h-20.88Z"/><path d="M899.84,395.9v-4.46h56.38c-3.82-2.88-8.71-7.56-12.1-12.1l3.89-2.38c4.9,6.34,12.02,12.6,18.43,16.71-6.41,4.1-13.54,10.37-18.43,16.71l-3.89-2.38c3.38-4.54,8.28-9.22,12.1-12.1h-56.38Z"/><path d="M1083.09,419.38c-2.52,1.22-7.42,2.45-13.68,2.45-14.11,0-25.49-9.14-25.49-27.72s11.02-28.73,27.07-28.73c6.55,0,10.37,1.37,12.1,2.23l-1.58,5.04c-2.52-1.22-6.05-2.23-10.37-2.23-12.46,0-20.95,8.35-20.95,23.47s7.78,22.9,20.59,22.9c4.18,0,8.28-.94,11.02-2.23l1.3,4.82Z"/><path d="M1135.65,393.09c0,19.3-10.8,28.8-23.76,28.8-13.61,0-23.26-10.73-23.26-27.87s10.15-28.73,23.91-28.73,23.11,11.23,23.11,27.79ZM1094.89,393.89c0,11.67,6.05,23.04,17.21,23.04s17.28-11.02,17.28-23.55c0-11.02-5.4-23.11-17.14-23.11s-17.35,11.95-17.35,23.62Z"/><path d="M1139.46,432.99v-2.59l4.9-4.68c6.41-6.19,10.22-10.44,10.22-14.91,0-3.31-1.94-5.9-6.26-5.9-2.81,0-5.18,1.44-6.62,2.52l-1.51-3.24c2.02-1.73,5.47-3.31,9.36-3.31,7.34,0,10.22,4.82,10.22,9,0,6.12-4.61,11.02-10.73,16.42l-2.66,2.59v.14h13.97v3.96h-20.88Z"/><path d="M1241.63,391.8v4.54h-24.05v23.98h-4.46v-23.98h-24.05v-4.54h24.05v-24.05h4.46v24.05h24.05Z"/><path d="M1312.4,421.03h-5.98v-26.21h-26.21v26.21h-5.98v-54.8h5.98v23.4h26.21v-23.4h5.98v54.8Z"/><path d="M1319.38,432.99v-2.59l4.9-4.68c6.41-6.19,10.22-10.44,10.22-14.91,0-3.31-1.94-5.9-6.26-5.9-2.81,0-5.18,1.44-6.62,2.52l-1.51-3.24c2.02-1.73,5.47-3.31,9.36-3.31,7.34,0,10.22,4.82,10.22,9,0,6.12-4.61,11.02-10.73,16.42l-2.66,2.59v.14h13.97v3.96h-20.88Z"/><path d="M1392.47,393.09c0,19.3-10.8,28.8-23.76,28.8-13.61,0-23.26-10.73-23.26-27.87s10.15-28.73,23.91-28.73,23.11,11.23,23.11,27.79ZM1351.71,393.89c0,11.67,6.05,23.04,17.21,23.04s17.28-11.02,17.28-23.55c0-11.02-5.4-23.11-17.14-23.11s-17.35,11.95-17.35,23.62Z"/></g></svg>