<?xml version="1.0" encoding="UTF-8"?><svg id="_レイヤー_1" xmlns="http://www.w3.org/2000/svg" viewBox="0 0 1560 560"><rect width="1560" height="560" rx="18" ry="18" fill="#c8dbc3"/><path d="M515.55,226.71l25.85,45.58h.14v-37.66c0-5.18-.58-5.62-5.83-5.62v-2.3h14.4v2.3c-4.82,0-5.4.43-5.4,5.62v46.01h-4.46l-27.43-48.03h-.14v39.46c0,5.18.5,5.62,5.54,5.62v2.3h-14.4v-2.3c5.18,0,5.69-.43,5.69-5.62v-37.44c0-5.33-.43-5.62-5.76-5.62v-2.3h11.81Z"/><path d="M555.94,279.21c1.01-4.61,3.46-8.21,6.34-10.8,2.66-2.52,6.7-4.54,9.07-6.77,1.8-1.73,2.66-3.46,2.66-5.69,0-1.58-.5-2.95-1.8-4.1-1.15-.94-2.74-1.37-4.75-1.37-1.51,0-2.81.36-3.82,1.08-.86.65-1.51,1.51-2.23,3.1-.58,1.51-1.3,2.23-2.59,2.23-1.22,0-1.94-.72-1.94-2.09,0-1.58,1.15-3.53,3.53-4.82,2.02-1.08,4.46-1.73,7.42-1.73,3.46,0,5.83.65,7.78,2.02,2.09,1.37,3.17,3.1,3.17,5.69,0,2.3-.86,4.1-2.38,5.83-3.31,3.74-7.85,5.18-11.52,7.92-2.23,1.73-3.89,3.74-4.9,6.48h12.82c3.1,0,3.53-.22,4.46-3.74l1.94.29-1.51,7.27h-20.81l-.94-.79Z"/><path d="M640.69,254.94v25.92h-2.88v-25.92h-25.92v-2.88h25.92v-25.92h2.88v25.92h25.92v2.88h-25.92Z"/><path d="M719.89,251.63c7.99.5,15.19,5.11,15.19,13.9,0,7.63-5.54,15.55-18.29,15.55-11.16,0-16.85-6.48-16.85-10.73,0-1.94.79-3.1,2.45-3.1,1.08,0,1.87.5,2.81,2.23.72,1.37,1.66,3.17,3.31,4.68,1.73,2.23,4.18,4.18,8.42,4.18,3.89,0,12.02-1.8,12.02-12.53,0-2.74-.72-5.26-2.45-7.49-3.02-3.82-8.71-5.18-14.76-5.18v-2.66c7.27,0,15.27-3.17,15.27-11.23,0-5.47-3.74-9.43-10.15-9.43s-9.07,4.75-9.87,7.06c-.86,2.45-1.58,3.67-3.6,3.67-1.44,0-2.3-1.15-2.3-3.17,0-3.38,5.04-10.37,15.91-10.37s15.84,5.54,15.84,12.46c0,4.25-2.38,10.58-12.96,11.95v.22Z"/><path d="M790.16,229.02c-5.33,0-5.76.43-5.76,5.62v37.44c0,5.18.43,5.62,5.76,5.62v2.3h-16.78v-2.3c4.68,0,5.04-.43,5.04-5.54v-18.43h-24.7v18.43c0,5.11.36,5.54,5.04,5.54v2.3h-16.78v-2.3c5.26,0,5.69-.43,5.69-5.62v-37.44c0-5.18-.43-5.62-5.69-5.62v-2.3h16.78v2.3c-4.68,0-5.04.36-5.04,5.47v16.27h24.7v-16.2c0-5.18-.36-5.54-5.04-5.54v-2.3h16.78v2.3Z"/><path d="M795.92,279.21c1.01-4.61,3.46-8.21,6.34-10.8,2.66-2.52,6.7-4.54,9.07-6.77,1.8-1.73,2.66-3.46,2.66-5.69,0-1.58-.5-2.95-1.8-4.1-1.15-.94-2.74-1.37-4.75-1.37-1.51,0-2.81.36-3.82,1.08-.86.65-1.51,1.51-2.23,3.1-.58,1.51-1.3,2.23-2.59,2.23-1.22,0-1.94-.72-1.94-2.09,0-1.58,1.15-3.53,3.53-4.82,2.02-1.08,4.46-1.73,7.42-1.73,3.46,0,5.83.65,7.78,2.02,2.09,1.37,3.17,3.1,3.17,5.69,0,2.3-.86,4.1-2.38,5.83-3.31,3.74-7.85,5.18-11.52,7.92-2.23,1.73-3.89,3.74-4.9,6.48h12.82c3.1,0,3.53-.22,4.46-3.74l1.94.29-1.51,7.27h-20.81l-.94-.79Z"/><path d="M912.35,264.3v2.88h-57.68c4.68,3.89,10.3,9.29,13.68,13.9l-2.3,1.87c-4.9-6.7-13.75-14.4-20.31-18.65h66.61ZM846.1,240.97v-2.88h57.68c-4.68-3.89-10.3-9.29-13.68-13.9l2.3-1.87c4.9,6.7,13.75,14.4,20.31,18.65h-66.61Z"/><path d="M974.48,269.05l-2.23,10.94h-31.32l-.94-1.15c3.46-14.69,12.17-21.53,18.87-26.21,5.54-3.96,8.86-7.2,8.86-12.82,0-4.75-2.02-10.01-10.66-10.01-4.25,0-8.42,1.44-10.44,8.14-.58,2.16-1.51,2.81-3.1,2.81-1.3,0-2.23-1.08-2.23-3.17,0-4.03,5.04-10.58,16.06-10.58,13.03,0,16.49,7.49,16.49,13.03,0,6.26-4.39,10.73-8.79,13.68-9.43,6.41-17.07,11.52-20.38,21.82h20.38c4.68,0,5.4-.79,7.06-6.84l2.38.36Z"/><path d="M993.49,226.71l25.85,45.58h.14v-37.66c0-5.18-.58-5.62-5.83-5.62v-2.3h14.4v2.3c-4.82,0-5.4.43-5.4,5.62v46.01h-4.46l-27.43-48.03h-.14v39.46c0,5.18.5,5.62,5.54,5.62v2.3h-14.4v-2.3c5.18,0,5.69-.43,5.69-5.62v-37.44c0-5.33-.43-5.62-5.76-5.62v-2.3h11.81Z"/><path d="M1081.26,229.02c-5.33,0-5.76.43-5.76,5.62v37.44c0,5.18.43,5.62,5.76,5.62v2.3h-16.78v-2.3c4.68,0,5.04-.43,5.04-5.54v-18.43h-24.7v18.43c0,5.11.36,5.54,5.04,5.54v2.3h-16.78v-2.3c5.26,0,5.69-.43,5.69-5.62v-37.44c0-5.18-.43-5.62-5.69-5.62v-2.3h16.78v2.3c-4.68,0-5.04.36-5.04,5.47v16.27h24.7v-16.2c0-5.18-.36-5.54-5.04-5.54v-2.3h16.78v2.3Z"/><path d="M1095.08,261.93c1.94,0,3.82-.29,5.11-.72,1.22-.36,2.45-.94,3.31-1.94.86-1.08,1.15-2.3,1.15-3.67,0-1.3-.43-2.88-1.51-3.89-1.15-1.01-2.81-1.44-4.9-1.44-1.58,0-2.95.29-4.1,1.15-.94.65-1.51,1.58-2.16,3.1-.65,1.44-1.44,2.02-2.38,2.02-1.08,0-1.8-.79-1.8-2.02,0-1.37,1.01-3.24,3.46-4.61,1.87-1.08,4.1-1.8,7.27-1.8,3.82,0,6.84.79,8.57,2.23,1.58,1.3,2.38,3.1,2.38,5.33,0,1.73-.94,3.46-2.38,4.68-1.58,1.3-3.82,1.94-6.48,2.3v.22c2.81.29,5.4.94,7.27,2.3,2.09,1.51,2.95,3.74,2.95,6.05s-.86,4.82-3.17,6.7c-1.8,1.44-4.46,2.59-9.5,2.59-2.74,0-5.47-.43-7.78-1.8-2.16-1.3-3.31-3.17-3.31-4.75,0-1.44.72-2.23,1.87-2.23.72,0,1.44.43,1.8,1.08.43.58.72,1.37,1.22,2.23.94,1.66,2.81,3.24,6.19,3.24,2.52,0,4.39-.5,5.76-1.8,1.3-1.22,1.94-3.02,1.94-5.26,0-1.58-.5-3.02-1.44-4.25-1.01-1.3-2.66-2.16-4.61-2.66-1.3-.29-2.88-.36-4.75-.36v-2.02Z"/></svg>