<?xml version="1.0" encoding="UTF-8"?><svg id="_レイヤー_2" xmlns="http://www.w3.org/2000/svg" viewBox="0 0 1560 560"><g id="_レイヤー_1-2"><rect width="1560" height="560" rx="18" ry="18" fill="#c8dbc3"/><path d="M25.15,121.06c-2.38,4.25-4.9,8.21-7.56,11.52-.5-1.15-1.66-3.6-2.38-4.68,6.19-7.49,12.17-20.02,15.84-32.48l5.69,1.8c-.22.5-.72.79-1.66.79-1.58,4.82-3.46,9.65-5.54,14.26l1.66.5c-.14.5-.5.79-1.37.94v48.24h-4.68v-40.9ZM63.17,98.81v4.39h-15.19c-.58,3.38-1.22,7.06-2.23,10.8h11.31c.58-.14.72-.14.86-.14.65.22,1.3.43,2.95,1.08-.07.36-.36.65-.58.86-2.95,22.83-10.94,38.31-22.18,46.37-.65-1.15-2.23-3.02-3.24-3.82,6.19-4.25,11.38-10.73,15.12-19.66-2.09-2.3-5.9-5.47-9.15-7.7l2.09-3.67c3.02,2.02,6.7,4.75,8.71,6.91,1.58-4.75,2.88-10.01,3.67-15.84h-10.73c-2.23,7.27-5.33,14.4-9.79,19.66-.65-1.01-2.09-2.59-3.02-3.38,6.62-7.92,9.87-20.74,11.45-31.47h-7.13v-4.39h27.07ZM67.34,145.25h-4.46v-42.05l5.83.36c-.07.5-.43.86-1.37,1.01v40.68ZM76.42,96.07l5.98.36c-.07.5-.43.86-1.37.94v58.18c0,5.98-2.74,6.41-14.19,6.41-.22-1.3-.94-3.46-1.58-4.82,2.23.07,4.32.14,5.98.14,4.75,0,5.18,0,5.18-1.66v-59.55Z"/><path d="M122.92,155.76v-48.32h-.14l-8.86,5.11-1.44-4.46,11.16-6.26h5.11v53.93h-5.83Z"/><path d="M184.77,110.9c0,2.66-2.16,4.82-4.9,4.82s-4.9-2.16-4.9-4.82,2.16-4.9,4.9-4.9c2.88,0,4.9,2.3,4.9,4.9ZM184.77,145.9c0,2.74-2.16,4.9-4.9,4.9s-4.9-2.16-4.9-4.9,2.16-4.82,4.9-4.82c2.88,0,4.9,2.3,4.9,4.82Z"/><path d="M282.26,103.56c-.14.29-.58.5-.94.65-3.89,9.22-10.08,17.21-17.07,23.04-1.08-.94-3.1-2.23-4.39-2.95,6.62-4.82,11.95-11.81,14.33-17.86h-51.56v-4.9h54.29l.79-.36,4.54,2.38ZM254.18,116.66c-.07.58-.72,1.08-1.66,1.22-2.09,16.99-7.92,33.2-22.75,41.76-1.01-.86-2.88-2.52-4.25-3.31,14.69-8.06,19.95-23.11,21.67-40.47l6.98.79Z"/><path d="M353.54,113.42c-.22.36-.65.65-1.15.86-3.24,7.78-8.93,17.57-15.05,23.47-1.08-.79-2.95-1.87-4.32-2.59,5.47-4.9,9.94-12.1,12.31-17.86l-27.58,7.2v18.65c0,7.06,4.25,9.43,10.01,9.43h11.74c2.95,0,7.92-.43,10.73-.79,0,1.58.07,3.53.14,5.04-2.88.36-7.92.58-10.66.58h-12.03c-9.07,0-15.12-4.25-15.12-14.19v-17.43l-18.15,4.68-1.22-4.82,19.37-4.82v-21.89l6.98.29c-.14.86-.79,1.3-1.8,1.44v18.79l30.46-7.85.79-.58,4.54,2.38Z"/><path d="M425.62,127.97h-25.13c-1.58,13.83-6.26,24.19-20.23,32.11-1.08-1.15-2.81-2.52-4.03-3.46,12.96-7.06,17.64-15.99,19.15-28.66h-29.38v-4.75h29.74c.36-4.75.36-9.65.43-15.41-7.34,1.66-16.85,3.24-24.77,4.1-.36-1.37-.86-2.81-1.51-4.18,25.27-3.02,40.18-7.99,44.64-9.94l3.82,4.25c-.29.14-.58.22-.94.22-.29,0-.5,0-.79-.07-4.03,1.51-10.44,3.38-16.13,4.75l2.38.22c-.07.65-.58,1.08-1.51,1.22-.07,5.4-.14,10.3-.43,14.83h24.7v4.75Z"/><path d="M453.69,151.51c18.29-5.11,32.83-13.9,41.69-29.59.94,1.22,2.74,2.74,3.82,3.6-9.72,16.56-25.78,26.21-47.45,31.9-.14.58-.58,1.22-1.15,1.44l-3.02-5.04.86-1.37v-53.07l7.42.36c-.07.79-.72,1.44-2.16,1.58v50.19Z"/><path d="M515.03,102.84c7.49,2.38,16.13,6.12,21.46,9.79l-2.74,4.54c-5.18-3.67-13.68-7.49-21.03-10.01l2.3-4.32ZM514.75,152.74c25.56-7.92,42.56-22.25,51.2-42.2,1.51,1.22,3.17,2.16,4.68,2.95-9,19.73-26.57,35.07-50.98,43.2-.07.65-.5,1.37-1.01,1.66l-3.89-5.62Z"/><path d="M735.42,154.11c-2.52,1.22-7.42,2.45-13.68,2.45-14.11,0-25.49-9.14-25.49-27.72s11.02-28.73,27.07-28.73c6.55,0,10.37,1.37,12.1,2.23l-1.58,5.04c-2.52-1.22-6.05-2.23-10.37-2.23-12.46,0-20.95,8.35-20.95,23.47s7.78,22.9,20.59,22.9c4.18,0,8.28-.94,11.02-2.23l1.3,4.82Z"/><path d="M738.87,167.72v-2.59l4.9-4.68c6.41-6.19,10.22-10.44,10.22-14.91,0-3.31-1.94-5.9-6.26-5.9-2.81,0-5.18,1.44-6.62,2.52l-1.51-3.24c2.02-1.73,5.47-3.31,9.36-3.31,7.34,0,10.22,4.82,10.22,9,0,6.12-4.61,11.02-10.73,16.42l-2.66,2.59v.14h13.97v3.96h-20.88Z"/><path d="M806.27,155.76h-5.98v-26.21h-26.21v26.21h-5.98v-54.8h5.98v23.4h26.21v-23.4h5.98v54.8Z"/><path d="M813.25,167.72v-2.59l4.9-4.68c6.41-6.19,10.22-10.44,10.22-14.91,0-3.31-1.94-5.9-6.26-5.9-2.81,0-5.18,1.44-6.62,2.52l-1.51-3.24c2.02-1.73,5.47-3.31,9.36-3.31,7.34,0,10.22,4.82,10.22,9,0,6.12-4.61,11.02-10.73,16.42l-2.66,2.59v.14h13.97v3.96h-20.88Z"/><path d="M862.86,118.03h52.56v4.54h-52.56v-4.54ZM862.86,138.77v-4.54h52.56v4.54h-52.56Z"/><path d="M960.56,155.76h-31.9v-3.67l5.26-5.54c12.82-12.96,19.3-20.81,19.3-29.59,0-5.76-2.52-11.09-10.3-11.09-4.32,0-8.21,2.38-10.8,4.46l-2.02-4.18c3.31-2.95,8.21-5.26,13.97-5.26,10.87,0,15.19,7.92,15.19,15.34,0,10.15-7.13,18.79-18.29,30.03l-4.25,4.46v.14h23.83v4.9Z"/><path d="M1006.93,154.11c-2.52,1.22-7.42,2.45-13.68,2.45-14.11,0-25.49-9.14-25.49-27.72s11.02-28.73,27.07-28.73c6.55,0,10.37,1.37,12.1,2.23l-1.58,5.04c-2.52-1.22-6.05-2.23-10.37-2.23-12.46,0-20.95,8.35-20.95,23.47s7.78,22.9,20.59,22.9c4.18,0,8.28-.94,11.02-2.23l1.3,4.82Z"/><path d="M1071.8,126.53v4.54h-24.05v23.98h-4.46v-23.98h-24.05v-4.54h24.05v-24.05h4.46v24.05h24.05Z"/><path d="M1125.8,155.76h-5.98v-26.21h-26.21v26.21h-5.98v-54.8h5.98v23.4h26.21v-23.4h5.98v54.8Z"/><path d="M1132.78,167.72v-2.59l4.9-4.68c6.41-6.19,10.22-10.44,10.22-14.91,0-3.31-1.94-5.9-6.26-5.9-2.81,0-5.18,1.44-6.62,2.52l-1.51-3.24c2.02-1.73,5.47-3.31,9.36-3.31,7.34,0,10.22,4.82,10.22,9,0,6.12-4.61,11.02-10.73,16.42l-2.66,2.59v.14h13.97v3.96h-20.88Z"/><path d="M1218.18,126.53v4.54h-24.05v23.98h-4.46v-23.98h-24.05v-4.54h24.05v-24.05h4.46v24.05h24.05Z"/><path d="M1263.32,155.76h-31.9v-3.67l5.26-5.54c12.82-12.96,19.3-20.81,19.3-29.59,0-5.76-2.52-11.09-10.3-11.09-4.32,0-8.21,2.38-10.8,4.46l-2.02-4.18c3.31-2.95,8.21-5.26,13.97-5.26,10.87,0,15.19,7.92,15.19,15.34,0,10.15-7.13,18.79-18.29,30.03l-4.25,4.46v.14h23.83v4.9Z"/><path d="M1302.99,155.76h-31.9v-3.67l5.26-5.54c12.82-12.96,19.3-20.81,19.3-29.59,0-5.76-2.52-11.09-10.3-11.09-4.32,0-8.21,2.38-10.8,4.46l-2.02-4.18c3.31-2.95,8.21-5.26,13.97-5.26,10.87,0,15.19,7.92,15.19,15.34,0,10.15-7.13,18.79-18.29,30.03l-4.25,4.46v.14h23.83v4.9Z"/><path d="M1311.77,101.83h31.61v3.82l-22.54,50.12h-6.12l22.54-48.82v-.14h-25.49v-4.97Z"/><path d="M1383.27,155.76h-7.34l-13.54-19.37-3.6,4.1v15.27h-5.98v-57.6h5.98v36.65h.14c.94-1.37,2.3-3.1,3.38-4.39l11.74-13.9h7.2l-14.76,16.2,16.78,23.04Z"/><path d="M1405.45,138.34c0,14.04-6.7,18.29-15.48,18.29-2.45,0-5.33-.5-6.84-1.15l.86-4.9c1.37.5,3.31.94,5.54.94,6.34,0,9.94-2.81,9.94-13.68v-36.87h5.98v37.37Z"/><path d="M26.15,245.29c-2.38,4.25-4.9,8.21-7.56,11.52-.5-1.15-1.66-3.6-2.38-4.68,6.19-7.49,12.17-20.02,15.84-32.48l5.69,1.8c-.22.5-.72.79-1.66.79-1.58,4.82-3.46,9.65-5.54,14.26l1.66.5c-.14.5-.5.79-1.37.94v48.24h-4.68v-40.9ZM64.17,223.04v4.39h-15.19c-.58,3.38-1.22,7.06-2.23,10.8h11.31c.58-.14.72-.14.86-.14.65.22,1.3.43,2.95,1.08-.07.36-.36.65-.58.86-2.95,22.83-10.94,38.31-22.18,46.37-.65-1.15-2.23-3.02-3.24-3.82,6.19-4.25,11.38-10.73,15.12-19.66-2.09-2.3-5.9-5.47-9.15-7.7l2.09-3.67c3.02,2.02,6.7,4.75,8.71,6.91,1.58-4.75,2.88-10.01,3.67-15.84h-10.73c-2.23,7.27-5.33,14.4-9.79,19.66-.65-1.01-2.09-2.59-3.02-3.38,6.62-7.92,9.87-20.74,11.45-31.47h-7.13v-4.39h27.07ZM68.35,269.49h-4.46v-42.05l5.83.36c-.07.5-.43.86-1.37,1.01v40.68ZM77.42,220.31l5.98.36c-.07.5-.43.86-1.37.94v58.18c0,5.98-2.74,6.41-14.19,6.41-.22-1.3-.94-3.46-1.58-4.82,2.23.07,4.32.14,5.98.14,4.75,0,5.18,0,5.18-1.66v-59.55Z"/><path d="M140.64,280h-31.9v-3.67l5.26-5.54c12.82-12.96,19.3-20.81,19.3-29.59,0-5.76-2.52-11.09-10.3-11.09-4.32,0-8.21,2.38-10.8,4.46l-2.02-4.18c3.31-2.95,8.21-5.26,13.97-5.26,10.87,0,15.19,7.92,15.19,15.34,0,10.15-7.13,18.79-18.29,30.03l-4.25,4.46v.14h23.83v4.9Z"/><path d="M185.78,235.14c0,2.66-2.16,4.82-4.9,4.82s-4.9-2.16-4.9-4.82,2.16-4.9,4.9-4.9c2.88,0,4.9,2.3,4.9,4.9ZM185.78,270.14c0,2.74-2.16,4.9-4.9,4.9s-4.9-2.16-4.9-4.9,2.16-4.82,4.9-4.82c2.88,0,4.9,2.3,4.9,4.82Z"/><path d="M228.26,231.61h49.25v4.9h-22.18v34.92h27.36v4.9h-59.48v-4.9h26.93v-34.92h-21.89v-4.9Z"/><path d="M354.62,252.21h-25.13c-1.58,13.83-6.26,24.19-20.23,32.11-1.08-1.15-2.81-2.52-4.03-3.46,12.96-7.06,17.64-15.99,19.15-28.66h-29.38v-4.75h29.74c.36-4.75.36-9.65.43-15.41-7.34,1.66-16.85,3.24-24.77,4.1-.36-1.37-.86-2.81-1.51-4.18,25.27-3.02,40.18-7.99,44.64-9.94l3.82,4.25c-.29.14-.58.22-.94.22-.29,0-.5,0-.79-.07-4.03,1.51-10.44,3.38-16.13,4.75l2.38.22c-.07.65-.58,1.08-1.51,1.22-.07,5.4-.14,10.3-.43,14.83h24.7v4.75Z"/><path d="M382.7,275.75c18.29-5.11,32.83-13.9,41.69-29.59.94,1.22,2.74,2.74,3.82,3.6-9.72,16.56-25.78,26.21-47.45,31.9-.14.58-.58,1.22-1.15,1.44l-3.02-5.04.86-1.37v-53.07l7.42.36c-.07.79-.72,1.44-2.16,1.58v50.19Z"/><path d="M444.04,227.08c7.49,2.38,16.13,6.12,21.46,9.79l-2.74,4.54c-5.18-3.67-13.68-7.49-21.03-10.01l2.3-4.32ZM443.75,276.98c25.56-7.92,42.56-22.25,51.2-42.2,1.51,1.22,3.17,2.16,4.68,2.95-9,19.73-26.57,35.07-50.98,43.2-.07.65-.5,1.37-1.01,1.66l-3.89-5.62Z"/><path d="M736.43,278.34c-2.52,1.22-7.42,2.45-13.68,2.45-14.11,0-25.49-9.14-25.49-27.72s11.02-28.73,27.07-28.73c6.55,0,10.37,1.37,12.1,2.23l-1.58,5.04c-2.52-1.22-6.05-2.23-10.37-2.23-12.46,0-20.95,8.35-20.95,23.47s7.78,22.9,20.59,22.9c4.18,0,8.28-.94,11.02-2.23l1.3,4.82Z"/><path d="M739.88,291.95v-2.59l4.9-4.68c6.41-6.19,10.22-10.44,10.22-14.9,0-3.31-1.94-5.9-6.26-5.9-2.81,0-5.18,1.44-6.62,2.52l-1.51-3.24c2.02-1.73,5.47-3.31,9.36-3.31,7.34,0,10.22,4.82,10.22,9,0,6.12-4.61,11.02-10.73,16.42l-2.66,2.59v.14h13.97v3.96h-20.88Z"/><path d="M807.28,280h-5.98v-26.21h-26.21v26.21h-5.98v-54.8h5.98v23.4h26.21v-23.4h5.98v54.8Z"/><path d="M834.2,291.95h-4.75v-8.57h-14.91v-2.88l14.26-20.23h5.4v19.51h4.46v3.6h-4.46v8.57ZM829.45,279.78v-9.87c0-1.94.22-3.6.29-5.11h-.22c-.94,1.87-1.73,3.24-2.74,4.75l-7.2,10.08.07.14h9.79Z"/><path d="M866.6,242.27h52.56v4.54h-52.56v-4.54ZM866.6,263.01v-4.54h52.56v4.54h-52.56Z"/><path d="M971,278.34c-2.52,1.22-7.42,2.45-13.68,2.45-14.11,0-25.49-9.14-25.49-27.72s11.02-28.73,27.07-28.73c6.55,0,10.37,1.37,12.1,2.23l-1.58,5.04c-2.52-1.22-6.05-2.23-10.37-2.23-12.46,0-20.95,8.35-20.95,23.47s7.78,22.9,20.59,22.9c4.18,0,8.28-.94,11.02-2.23l1.3,4.82Z"/><path d="M1035.87,250.77v4.54h-24.05v23.98h-4.46v-23.98h-24.05v-4.54h24.05v-24.05h4.46v24.05h24.05Z"/><path d="M1087.71,278.34c-2.52,1.22-7.42,2.45-13.68,2.45-14.11,0-25.49-9.14-25.49-27.72s11.02-28.73,27.07-28.73c6.55,0,10.37,1.37,12.1,2.23l-1.58,5.04c-2.52-1.22-6.05-2.23-10.37-2.23-12.46,0-20.95,8.35-20.95,23.47s7.78,22.9,20.59,22.9c4.18,0,8.28-.94,11.02-2.23l1.3,4.82Z"/><path d="M1134.58,280h-5.98v-26.21h-26.21v26.21h-5.98v-54.8h5.98v23.4h26.21v-23.4h5.98v54.8Z"/><path d="M1161.51,291.95h-4.75v-8.57h-14.91v-2.88l14.26-20.23h5.4v19.51h4.46v3.6h-4.46v8.57ZM1156.76,279.78v-9.87c0-1.94.22-3.6.29-5.11h-.22c-.94,1.87-1.73,3.24-2.74,4.75l-7.2,10.08.07.14h9.79Z"/><path d="M1229.69,250.77v4.54h-24.05v23.98h-4.46v-23.98h-24.05v-4.54h24.05v-24.05h4.46v24.05h24.05Z"/><path d="M1258.13,280v-48.32h-.14l-8.86,5.11-1.44-4.46,11.16-6.26h5.11v53.93h-5.83Z"/><path d="M1314.51,280h-31.9v-3.67l5.26-5.54c12.82-12.96,19.3-20.81,19.3-29.59,0-5.76-2.52-11.09-10.3-11.09-4.32,0-8.21,2.38-10.8,4.46l-2.02-4.18c3.31-2.95,8.21-5.26,13.97-5.26,10.87,0,15.19,7.92,15.19,15.34,0,10.15-7.13,18.79-18.29,30.03l-4.25,4.46v.14h23.83v4.9Z"/><path d="M1323.29,226.07h31.61v3.82l-22.54,50.12h-6.12l22.54-48.82v-.14h-25.49v-4.97Z"/><path d="M1394.79,280h-7.34l-13.54-19.37-3.6,4.1v15.27h-5.98v-57.6h5.98v36.65h.14c.94-1.37,2.3-3.1,3.38-4.39l11.74-13.9h7.2l-14.76,16.2,16.78,23.04Z"/><path d="M1416.96,262.57c0,14.04-6.7,18.29-15.48,18.29-2.45,0-5.33-.5-6.84-1.15l.86-4.9c1.37.5,3.31.94,5.54.94,6.34,0,9.94-2.81,9.94-13.68v-36.87h5.98v37.37Z"/><path d="M26.15,372.66c-2.38,4.25-4.9,8.21-7.56,11.52-.5-1.15-1.66-3.6-2.38-4.68,6.19-7.49,12.17-20.02,15.84-32.48l5.69,1.8c-.22.5-.72.79-1.66.79-1.58,4.82-3.46,9.65-5.54,14.26l1.66.5c-.14.5-.5.79-1.37.94v48.24h-4.68v-40.9ZM64.17,350.41v4.39h-15.19c-.58,3.38-1.22,7.06-2.23,10.8h11.31c.58-.14.72-.14.86-.14.65.22,1.3.43,2.95,1.08-.07.36-.36.65-.58.86-2.95,22.83-10.94,38.31-22.18,46.37-.65-1.15-2.23-3.02-3.24-3.82,6.19-4.25,11.38-10.73,15.12-19.66-2.09-2.3-5.9-5.47-9.15-7.71l2.09-3.67c3.02,2.02,6.7,4.75,8.71,6.91,1.58-4.75,2.88-10.01,3.67-15.84h-10.73c-2.23,7.27-5.33,14.4-9.79,19.66-.65-1.01-2.09-2.59-3.02-3.38,6.62-7.92,9.87-20.74,11.45-31.47h-7.13v-4.39h27.07ZM68.35,396.86h-4.46v-42.05l5.83.36c-.07.5-.43.86-1.37,1.01v40.68ZM77.42,347.67l5.98.36c-.07.5-.43.86-1.37.94v58.18c0,5.98-2.74,6.41-14.19,6.41-.22-1.3-.94-3.46-1.58-4.82,2.23.07,4.32.14,5.98.14,4.75,0,5.18,0,5.18-1.66v-59.55Z"/><path d="M127.82,378.21c6.34,1.08,11.74,6.19,11.74,13.97,0,8.57-6.19,16.06-18.29,16.06-5.4,0-10.3-1.73-12.75-3.46l1.8-4.61c1.94,1.3,6.26,3.24,11.02,3.24,9.07,0,12.02-6.34,12.02-11.3,0-7.92-6.7-11.52-13.75-11.52h-3.53v-4.46h3.53c5.18,0,11.88-3.24,11.88-10.01,0-4.68-2.81-8.71-9.29-8.71-3.96,0-7.71,1.94-9.87,3.53l-1.8-4.39c2.59-2.02,7.63-4.03,12.82-4.03,9.86,0,14.26,6.26,14.26,12.75,0,5.54-3.53,10.51-9.79,12.75v.22Z"/><path d="M185.78,362.51c0,2.66-2.16,4.82-4.9,4.82s-4.9-2.16-4.9-4.82,2.16-4.9,4.9-4.9c2.88,0,4.9,2.3,4.9,4.9ZM185.78,397.5c0,2.74-2.16,4.9-4.9,4.9s-4.9-2.16-4.9-4.9,2.16-4.82,4.9-4.82c2.88,0,4.9,2.3,4.9,4.82Z"/><path d="M278.73,384.76l2.88,1.37c-.07.36-.43.58-.58.72-2.23,5.98-5.69,11.02-10.01,15.12,4.54,3.53,10.08,6.19,16.27,7.7-1.01.94-2.38,2.66-3.02,3.89-6.26-1.8-11.95-4.82-16.63-8.71-5.04,3.89-10.8,6.77-16.78,8.64-.43-.86-1.37-2.23-2.16-3.17v1.3h-4.03v-3.6h-18.87v4.54h-3.89v-47.38h7.42v-11.09h-9.94v-4.18h31.75v4.18h-10.3v11.09h7.85v14.33c6.98-2.81,9.43-7.71,10.23-14.11l5.47.65c-.07.43-.5.72-1.3.86-1.08,6.62-3.6,12.46-11.74,15.99-.5-1.08-1.73-2.59-2.66-3.31v16.35c5.69-4.03,11.31-10.87,14.26-18.29l5.18,1.66c-.14.43-.65.65-1.44.65-.79,1.73-1.66,3.38-2.66,5.04h13.9l.79-.22ZM233.01,369.42v4.46c0,4.46-.86,10.95-4.75,15.48-.5-.58-1.73-1.44-2.45-1.8v4.68h18.87v-6.62c-.36.07-.79.14-1.3.14h-2.66c-2.74,0-3.53-.72-3.53-4.1v-12.24h-4.18ZM229.99,369.42h-4.18v18c3.53-4.25,4.18-9.5,4.18-13.68v-4.32ZM225.81,403.98h18.87v-7.78h-18.87v7.78ZM233.01,354.08v11.09h4.18v-11.09h-4.18ZM242.8,382.67c.86,0,1.08-.29,1.15-2.74.22.14.43.36.72.5v-11.02h-4.46v12.17c0,.94.14,1.08.79,1.08h1.8ZM248.71,409.82c5.62-1.66,11.16-4.25,15.84-7.78-2.59-2.66-4.75-5.62-6.55-8.93-2.09,2.23-4.25,4.25-6.48,5.83-.65-.72-1.87-1.94-2.81-2.74v13.61ZM249.36,360.92l6.34-.22c2.52-4.18,5.47-10.08,7.06-14.26l5.54,1.94c-.14.5-.72.72-1.51.72-1.51,3.31-3.89,7.7-6.19,11.38,5.11-.22,10.8-.43,16.49-.72-1.87-1.87-3.89-3.67-5.76-5.18l3.31-2.23c4.46,3.53,9.65,8.5,12.02,12.02l-3.53,2.52c-.65-1.01-1.58-2.23-2.66-3.46-10.58.72-21.46,1.44-28.44,1.8,0,.5-.5.86-.94.94l-1.73-5.26ZM260.8,389.73c1.73,3.53,4.1,6.7,7.06,9.5,3.17-2.95,5.83-6.48,7.7-10.44h-14.04l-.72.94ZM270.17,365.03l5.62.36c-.07.5-.43.86-1.37.94v7.78c0,1.37.22,1.51,1.73,1.51h4.97c1.3,0,1.58-.5,1.73-5.11.86.72,2.66,1.3,3.82,1.58-.43,5.98-1.66,7.49-4.9,7.49h-6.19c-4.39,0-5.4-1.15-5.4-5.4v-9.14Z"/><path d="M302.71,413.49v-41.55c-3.1,4.68-6.34,8.93-9.72,12.46-.58-1.22-1.87-3.46-2.74-4.61,7.49-7.49,15.12-20.09,19.73-32.69l5.9,2.02c-.29.65-.94.79-1.66.65-2.09,5.18-4.54,10.3-7.27,15.19l2.09.58c-.14.5-.5.86-1.44.94v47.02h-4.9ZM328.77,402.76c0,4.03.86,4.97,5.04,4.97h15.05c4.1,0,4.75-2.74,5.26-13.46,1.22.94,3.17,1.87,4.61,2.16-.79,11.81-2.23,15.91-9.65,15.91h-15.55c-7.42,0-9.58-2.02-9.58-9.72v-54.44l6.26.43c-.07.5-.43.86-1.44,1.01v26.71c8.5-4.75,17.28-10.58,22.68-15.7l3.96,4.61c-.29.22-.79.36-1.37.22-6.05,5.11-15.99,10.87-25.27,15.77v21.53Z"/><path d="M372.26,358.98h49.25v4.9h-22.18v34.92h27.36v4.9h-59.48v-4.9h26.93v-34.92h-21.89v-4.9Z"/><path d="M498.62,379.57h-25.13c-1.58,13.83-6.26,24.19-20.23,32.12-1.08-1.15-2.81-2.52-4.03-3.46,12.96-7.06,17.64-15.99,19.15-28.66h-29.38v-4.75h29.74c.36-4.75.36-9.65.43-15.41-7.34,1.66-16.85,3.24-24.77,4.1-.36-1.37-.86-2.81-1.51-4.18,25.27-3.02,40.18-7.99,44.64-9.94l3.82,4.25c-.29.14-.58.22-.94.22-.29,0-.5,0-.79-.07-4.03,1.51-10.44,3.38-16.13,4.75l2.38.22c-.07.65-.58,1.08-1.51,1.22-.07,5.4-.14,10.3-.43,14.83h24.7v4.75Z"/><path d="M526.7,403.12c18.29-5.11,32.83-13.9,41.69-29.59.94,1.22,2.74,2.74,3.82,3.6-9.72,16.56-25.78,26.21-47.45,31.9-.14.58-.58,1.22-1.15,1.44l-3.02-5.04.86-1.37v-53.07l7.42.36c-.07.79-.72,1.44-2.16,1.58v50.19Z"/><path d="M588.04,354.44c7.49,2.38,16.13,6.12,21.46,9.79l-2.74,4.54c-5.18-3.67-13.68-7.49-21.03-10.01l2.3-4.32ZM587.75,404.34c25.56-7.92,42.56-22.25,51.2-42.2,1.51,1.22,3.17,2.16,4.68,2.95-9,19.73-26.57,35.07-50.98,43.2-.07.65-.5,1.37-1.01,1.66l-3.89-5.62Z"/><path d="M741.33,405.71c-2.52,1.22-7.42,2.45-13.68,2.45-14.11,0-25.49-9.14-25.49-27.72s11.02-28.73,27.07-28.73c6.55,0,10.37,1.37,12.1,2.23l-1.58,5.04c-2.52-1.22-6.05-2.23-10.37-2.23-12.46,0-20.95,8.35-20.95,23.47s7.78,22.9,20.59,22.9c4.18,0,8.28-.94,11.02-2.23l1.3,4.82Z"/><path d="M744.78,419.32v-2.59l4.9-4.68c6.41-6.19,10.22-10.44,10.22-14.91,0-3.31-1.94-5.9-6.26-5.9-2.81,0-5.18,1.44-6.62,2.52l-1.51-3.24c2.02-1.73,5.47-3.31,9.36-3.31,7.34,0,10.22,4.82,10.22,9,0,6.12-4.61,11.02-10.73,16.42l-2.66,2.59v.14h13.97v3.96h-20.88Z"/><path d="M812.18,407.37h-5.98v-26.21h-26.21v26.21h-5.98v-54.8h5.98v23.4h26.21v-23.4h5.98v54.8Z"/><path d="M839.1,419.32h-4.75v-8.57h-14.91v-2.88l14.26-20.23h5.4v19.51h4.46v3.6h-4.46v8.57ZM834.35,407.15v-9.87c0-1.94.22-3.6.29-5.11h-.22c-.94,1.87-1.73,3.24-2.74,4.75l-7.2,10.08.07.14h9.79Z"/><path d="M894.98,379.43c0,19.3-10.8,28.8-23.76,28.8-13.61,0-23.26-10.73-23.26-27.87s10.15-28.73,23.91-28.73,23.11,11.23,23.11,27.79ZM854.22,380.22c0,11.67,6.05,23.04,17.21,23.04s17.28-11.02,17.28-23.55c0-11.02-5.4-23.11-17.14-23.11s-17.35,11.95-17.35,23.62Z"/><path d="M924.42,369.64h52.56v4.54h-52.56v-4.54ZM924.42,390.37v-4.54h52.56v4.54h-52.56Z"/><path d="M1028.82,405.71c-2.52,1.22-7.42,2.45-13.68,2.45-14.11,0-25.49-9.14-25.49-27.72s11.02-28.73,27.07-28.73c6.55,0,10.37,1.37,12.1,2.23l-1.58,5.04c-2.52-1.22-6.05-2.23-10.37-2.23-12.46,0-20.95,8.35-20.95,23.47s7.78,22.9,20.59,22.9c4.18,0,8.28-.94,11.02-2.23l1.3,4.82Z"/><path d="M1081.38,379.43c0,19.3-10.8,28.8-23.76,28.8-13.61,0-23.26-10.73-23.26-27.87s10.15-28.73,23.91-28.73,23.11,11.23,23.11,27.79ZM1040.62,380.22c0,11.67,6.05,23.04,17.21,23.04s17.28-11.02,17.28-23.55c0-11.02-5.4-23.11-17.14-23.11s-17.35,11.95-17.35,23.62Z"/><path d="M1146.61,378.13v4.54h-24.05v23.98h-4.46v-23.98h-24.05v-4.54h24.05v-24.05h4.46v24.05h24.05Z"/><path d="M1198.45,405.71c-2.52,1.22-7.42,2.45-13.68,2.45-14.11,0-25.49-9.14-25.49-27.72s11.02-28.73,27.07-28.73c6.55,0,10.37,1.37,12.1,2.23l-1.58,5.04c-2.52-1.22-6.05-2.23-10.37-2.23-12.46,0-20.95,8.35-20.95,23.47s7.78,22.9,20.59,22.9c4.18,0,8.28-.94,11.02-2.23l1.3,4.82Z"/><path d="M1245.32,407.37h-5.98v-26.21h-26.21v26.21h-5.98v-54.8h5.98v23.4h26.21v-23.4h5.98v54.8Z"/><path d="M1272.25,419.32h-4.75v-8.57h-14.91v-2.88l14.26-20.23h5.4v19.51h4.46v3.6h-4.46v8.57ZM1267.49,407.15v-9.87c0-1.94.22-3.6.29-5.11h-.22c-.94,1.87-1.73,3.24-2.74,4.75l-7.2,10.08.07.14h9.79Z"/><path d="M1340.43,378.13v4.54h-24.05v23.98h-4.46v-23.98h-24.05v-4.54h24.05v-24.05h4.46v24.05h24.05Z"/><path d="M1368.87,407.37v-48.32h-.14l-8.86,5.11-1.44-4.46,11.16-6.26h5.11v53.93h-5.83Z"/><path d="M1412.43,378.21c6.34,1.08,11.74,6.19,11.74,13.97,0,8.57-6.19,16.06-18.29,16.06-5.4,0-10.3-1.73-12.75-3.46l1.8-4.61c1.94,1.3,6.26,3.24,11.02,3.24,9.07,0,12.02-6.34,12.02-11.3,0-7.92-6.7-11.52-13.75-11.52h-3.53v-4.46h3.53c5.18,0,11.88-3.24,11.88-10.01,0-4.68-2.81-8.71-9.29-8.71-3.96,0-7.7,1.94-9.86,3.53l-1.8-4.39c2.59-2.02,7.63-4.03,12.82-4.03,9.87,0,14.26,6.26,14.26,12.75,0,5.54-3.53,10.51-9.79,12.75v.22Z"/><path d="M1460.17,407.37h-5.69v-15.12h-23.55v-3.82l23.04-35h6.19v34.2h7.34v4.61h-7.34v15.12ZM1436.98,387.64h17.5v-19.15c0-2.95.14-5.83.29-8.64h-.29c-1.66,3.31-2.95,5.62-4.32,8.06l-13.18,19.59v.14Z"/><path d="M1505.53,407.37h-7.34l-13.54-19.37-3.6,4.1v15.27h-5.98v-57.61h5.98v36.65h.14c.94-1.37,2.3-3.1,3.38-4.39l11.74-13.9h7.2l-14.76,16.2,16.78,23.04Z"/><path d="M1527.7,389.94c0,14.04-6.7,18.29-15.48,18.29-2.45,0-5.33-.5-6.84-1.15l.86-4.9c1.37.5,3.31.94,5.54.94,6.34,0,9.94-2.81,9.94-13.68v-36.87h5.98v37.37Z"/></g></svg>