<?xml version="1.0" encoding="UTF-8"?><svg id="_レイヤー_1" xmlns="http://www.w3.org/2000/svg" viewBox="0 0 1560 560"><rect width="1560" height="560" rx="18" ry="18" fill="#c8dbc3"/><path d="M298.26,197.13c-1.66-8.35-2.52-12.24-11.02-12.24-10.94,0-16.13,9.58-16.13,24.12,0,22.9,11.38,25.27,15.41,25.27,7.63,0,11.52-5.98,13.47-11.95l2.88.79c-3.1,9.5-9.29,14.4-17.07,14.4-6.26,0-11.3-2.3-14.83-6.34-4.25-5.11-6.19-12.17-6.19-21.89,0-18.15,8.93-27.22,22.32-27.22,3.02,0,6.26.14,12.1,2.45.5,4.1,1.08,8.28,1.87,12.02l-2.81.58Z"/><path d="M356.58,185.46c-5.33,0-5.76.43-5.76,5.62v37.44c0,5.18.43,5.62,5.76,5.62v2.3h-16.78v-2.3c4.68,0,5.04-.43,5.04-5.54v-18.43h-24.7v18.43c0,5.11.36,5.54,5.04,5.54v2.3h-16.78v-2.3c5.26,0,5.69-.43,5.69-5.62v-37.44c0-5.18-.43-5.62-5.69-5.62v-2.3h16.78v2.3c-4.68,0-5.04.36-5.04,5.47v16.27h24.7v-16.2c0-5.18-.36-5.54-5.04-5.54v-2.3h16.78v2.3Z"/><path d="M362.69,228.02v-1.73l15.7-21.6h3.89v20.88h4.46l-.36,2.45h-4.1v3.17c0,3.02.36,3.31,3.82,3.31v1.8h-12.82v-1.8c4.25,0,4.61-.36,4.61-3.31v-3.17h-15.19ZM366.29,225.57h11.59v-11.3c0-1.37,0-3.1.14-5.04h-.29c-.72,1.08-1.66,2.74-2.66,4.18l-8.79,12.17Z"/><path d="M422.82,242.78c-12.39-5.76-21.24-17.28-21.24-33.7s9.29-28.15,21.24-33.7l1.15,1.51c-11.02,6.12-17.93,17.43-17.93,32.19s6.91,26.07,17.93,32.19l-1.15,1.51Z"/><path d="M494.02,184.52c-.58,1.08-1.37,1.51-3.46,1.51h-44.64c-4.68,8.14-10.37,14.98-16.49,19.59l-.94-.79c6.05-6.41,12.6-18,16.56-30.03l7.42,2.88c-.36.79-1.01,1.22-2.81,1.01-.86,1.94-1.8,3.82-2.81,5.62h37.01l3.53-4.46,6.62,4.68ZM436.92,212.03c8.06,3.02,14.47,6.05,19.44,8.93,3.74-4.46,6.84-9.22,9-13.75l6.84,3.38c-.36.58-.79.86-1.73.86-.36,0-.65,0-1.08-.07-2.38,3.96-5.47,7.99-9.22,11.95,9.43,6.19,12.46,11.45,12.46,14.33,0,1.51-.79,2.3-1.94,2.3-.58,0-1.22-.22-1.94-.65-2.16-3.53-6.19-8.06-11.81-12.75-6.77,6.26-15.27,12.02-25.13,15.84l-.65-1.15c8.64-4.39,16.35-10.51,22.61-17.28-4.9-3.74-10.73-7.49-17.43-10.8l.58-1.15ZM495.61,228.74l-.86,8.71c1.15,1.37,1.73,2.45,1.73,3.17,0,.86-.86,1.8-2.38,1.8s-3.46-.86-4.97-2.02c-8.42-5.83-10.73-17.57-11.23-35.5h-41.33l-.5-1.73h41.12l2.3-3.02,6.19,4.68c-.5.5-1.44.94-2.88,1.15,0,14.19,1.87,25.56,8.42,29.67.36.22.58.36.79.36.72,0,2.45-5.98,2.88-7.34l.72.07ZM444.12,193.45h34.85l3.31-4.25,6.41,4.46c-.58,1.08-1.44,1.51-3.38,1.51h-40.76l-.43-1.73Z"/><path d="M502.44,175.38c12.38,5.76,21.24,17.28,21.24,33.7s-9.29,28.15-21.24,33.7l-1.15-1.51c11.02-6.12,17.93-17.43,17.93-32.19s-6.91-26.07-17.93-32.19l1.15-1.51Z"/><path d="M572.07,211.38v25.92h-2.88v-25.92h-25.92v-2.88h25.92v-25.92h2.88v25.92h25.92v2.88h-25.92Z"/><path d="M665.89,225.5l-2.23,10.94h-31.32l-.94-1.15c3.46-14.69,12.17-21.53,18.87-26.21,5.54-3.96,8.86-7.2,8.86-12.82,0-4.75-2.02-10.01-10.66-10.01-4.25,0-8.42,1.44-10.44,8.14-.58,2.16-1.51,2.81-3.1,2.81-1.3,0-2.23-1.08-2.23-3.17,0-4.03,5.04-10.58,16.06-10.58,13.03,0,16.49,7.49,16.49,13.03,0,6.26-4.39,10.73-8.78,13.68-9.43,6.41-17.07,11.52-20.38,21.82h20.38c4.68,0,5.4-.79,7.06-6.84l2.38.36Z"/><path d="M674.23,209.8c0-19.44,9.22-27.72,22.39-27.72,14.26,0,22.39,9.58,22.39,27.72s-8.06,27.72-22.39,27.72c-17.14,0-22.39-13.18-22.39-27.72ZM685.32,190.07c-2.95,3.74-4.82,9.72-4.82,19.73,0,8.35,1.58,15.19,4.75,19.59,2.59,3.24,6.84,5.33,11.3,5.33s8.64-2.09,11.31-5.33c3.17-4.39,4.75-11.23,4.75-19.59,0-10.01-1.8-15.99-4.75-19.73-2.88-3.6-6.91-5.18-11.23-5.18s-8.57,1.8-11.31,5.18Z"/><path d="M725.71,235.65c1.01-4.61,3.46-8.21,6.34-10.8,2.66-2.52,6.7-4.54,9.07-6.77,1.8-1.73,2.66-3.46,2.66-5.69,0-1.58-.5-2.95-1.8-4.1-1.15-.94-2.74-1.37-4.75-1.37-1.51,0-2.81.36-3.82,1.08-.86.65-1.51,1.51-2.23,3.1-.58,1.51-1.3,2.23-2.59,2.23-1.22,0-1.94-.72-1.94-2.09,0-1.58,1.15-3.53,3.53-4.82,2.02-1.08,4.46-1.73,7.42-1.73,3.46,0,5.83.65,7.78,2.02,2.09,1.37,3.17,3.1,3.17,5.69,0,2.3-.86,4.1-2.38,5.83-3.31,3.74-7.85,5.18-11.52,7.92-2.23,1.73-3.89,3.74-4.9,6.48h12.82c3.1,0,3.53-.22,4.46-3.74l1.94.29-1.51,7.27h-20.81l-.94-.79Z"/><path d="M785.19,242.78c-12.38-5.76-21.24-17.28-21.24-33.7s9.29-28.15,21.24-33.7l1.15,1.51c-11.02,6.12-17.93,17.43-17.93,32.19s6.91,26.07,17.93,32.19l-1.15,1.51Z"/><path d="M856.4,184.52c-.58,1.08-1.37,1.51-3.46,1.51h-44.64c-4.68,8.14-10.37,14.98-16.49,19.59l-.94-.79c6.05-6.41,12.6-18,16.56-30.03l7.42,2.88c-.36.79-1.01,1.22-2.81,1.01-.86,1.94-1.8,3.82-2.81,5.62h37.01l3.53-4.46,6.62,4.68ZM799.3,212.03c8.06,3.02,14.47,6.05,19.44,8.93,3.74-4.46,6.84-9.22,9-13.75l6.84,3.38c-.36.58-.79.86-1.73.86-.36,0-.65,0-1.08-.07-2.38,3.96-5.47,7.99-9.22,11.95,9.43,6.19,12.46,11.45,12.46,14.33,0,1.51-.79,2.3-1.94,2.3-.58,0-1.22-.22-1.94-.65-2.16-3.53-6.19-8.06-11.81-12.75-6.77,6.26-15.27,12.02-25.13,15.84l-.65-1.15c8.64-4.39,16.35-10.51,22.61-17.28-4.9-3.74-10.73-7.49-17.43-10.8l.58-1.15ZM857.98,228.74l-.86,8.71c1.15,1.37,1.73,2.45,1.73,3.17,0,.86-.86,1.8-2.38,1.8s-3.46-.86-4.97-2.02c-8.42-5.83-10.73-17.57-11.23-35.5h-41.33l-.5-1.73h41.12l2.3-3.02,6.19,4.68c-.5.5-1.44.94-2.88,1.15,0,14.19,1.87,25.56,8.42,29.67.36.22.58.36.79.36.72,0,2.45-5.98,2.88-7.34l.72.07ZM806.5,193.45h34.85l3.31-4.25,6.41,4.46c-.58,1.08-1.44,1.51-3.38,1.51h-40.75l-.43-1.73Z"/><path d="M864.82,175.38c12.38,5.76,21.24,17.28,21.24,33.7s-9.29,28.15-21.24,33.7l-1.15-1.51c11.02-6.12,17.93-17.43,17.93-32.19s-6.91-26.07-17.93-32.19l1.15-1.51Z"/><path d="M899.88,210.52v-2.88h59.55c-4.75-3.6-10.15-8.78-13.97-13.97l2.3-1.87c4.9,6.7,12.24,13.11,18.79,17.28-6.55,4.18-13.9,10.58-18.79,17.28l-2.3-1.87c3.82-5.18,9.22-10.37,13.97-13.97h-59.55Z"/><path d="M298.26,323.13c-1.66-8.35-2.52-12.24-11.02-12.24-10.94,0-16.13,9.58-16.13,24.12,0,22.9,11.38,25.27,15.41,25.27,7.63,0,11.52-5.98,13.47-11.95l2.88.79c-3.1,9.5-9.29,14.4-17.07,14.4-6.26,0-11.3-2.3-14.83-6.34-4.25-5.11-6.19-12.17-6.19-21.89,0-18.15,8.93-27.22,22.32-27.22,3.02,0,6.26.14,12.1,2.45.5,4.1,1.08,8.28,1.87,12.03l-2.81.58Z"/><path d="M309.27,335.8c0-19.44,9.22-27.72,22.39-27.72,14.26,0,22.39,9.58,22.39,27.72s-8.06,27.72-22.39,27.72c-17.14,0-22.39-13.18-22.39-27.72ZM320.36,316.07c-2.95,3.74-4.82,9.72-4.82,19.73,0,8.35,1.58,15.19,4.75,19.59,2.59,3.24,6.84,5.33,11.3,5.33s8.64-2.09,11.31-5.33c3.17-4.39,4.75-11.23,4.75-19.59,0-10.01-1.8-15.99-4.75-19.73-2.88-3.6-6.91-5.18-11.23-5.18s-8.57,1.8-11.31,5.18Z"/><path d="M360.75,361.65c1.01-4.61,3.46-8.21,6.34-10.8,2.66-2.52,6.7-4.54,9.07-6.77,1.8-1.73,2.66-3.46,2.66-5.69,0-1.58-.5-2.95-1.8-4.1-1.15-.94-2.74-1.37-4.75-1.37-1.51,0-2.81.36-3.82,1.08-.86.65-1.51,1.51-2.23,3.1-.58,1.51-1.3,2.23-2.59,2.23-1.22,0-1.94-.72-1.94-2.09,0-1.58,1.15-3.53,3.53-4.82,2.02-1.08,4.46-1.73,7.42-1.73,3.46,0,5.83.65,7.78,2.02,2.09,1.37,3.17,3.1,3.17,5.69,0,2.3-.86,4.1-2.38,5.83-3.31,3.74-7.85,5.18-11.52,7.92-2.23,1.73-3.89,3.74-4.9,6.48h12.82c3.1,0,3.53-.22,4.46-3.74l1.94.29-1.51,7.27h-20.81l-.94-.79Z"/><path d="M420.22,368.78c-12.39-5.76-21.24-17.28-21.24-33.7s9.29-28.15,21.24-33.7l1.15,1.51c-11.02,6.12-17.93,17.43-17.93,32.19s6.91,26.07,17.93,32.19l-1.15,1.51Z"/><path d="M491.43,310.52c-.58,1.08-1.37,1.51-3.46,1.51h-44.64c-4.68,8.14-10.37,14.98-16.49,19.58l-.94-.79c6.05-6.41,12.6-18,16.56-30.03l7.42,2.88c-.36.79-1.01,1.22-2.81,1.01-.86,1.94-1.8,3.82-2.81,5.62h37.01l3.53-4.46,6.62,4.68ZM434.33,338.03c8.06,3.02,14.47,6.05,19.44,8.93,3.74-4.46,6.84-9.22,9-13.75l6.84,3.38c-.36.58-.79.86-1.73.86-.36,0-.65,0-1.08-.07-2.38,3.96-5.47,7.99-9.22,11.95,9.43,6.19,12.46,11.45,12.46,14.33,0,1.51-.79,2.3-1.94,2.3-.58,0-1.22-.22-1.94-.65-2.16-3.53-6.19-8.06-11.81-12.75-6.77,6.26-15.27,12.03-25.13,15.84l-.65-1.15c8.64-4.39,16.35-10.51,22.61-17.28-4.9-3.74-10.73-7.49-17.43-10.8l.58-1.15ZM493.02,354.74l-.86,8.71c1.15,1.37,1.73,2.45,1.73,3.17,0,.86-.86,1.8-2.38,1.8s-3.46-.86-4.97-2.02c-8.42-5.83-10.73-17.57-11.23-35.5h-41.33l-.5-1.73h41.12l2.3-3.02,6.19,4.68c-.5.5-1.44.94-2.88,1.15,0,14.19,1.87,25.56,8.42,29.67.36.22.58.36.79.36.72,0,2.45-5.98,2.88-7.34l.72.07ZM441.53,319.45h34.85l3.31-4.25,6.41,4.46c-.58,1.08-1.44,1.51-3.38,1.51h-40.76l-.43-1.73Z"/><path d="M499.85,301.38c12.38,5.76,21.24,17.28,21.24,33.7s-9.29,28.15-21.24,33.7l-1.15-1.51c11.02-6.12,17.93-17.43,17.93-32.19s-6.91-26.07-17.93-32.19l1.15-1.51Z"/><path d="M569.48,337.38v25.92h-2.88v-25.92h-25.92v-2.88h25.92v-25.92h2.88v25.92h25.92v2.88h-25.92Z"/><path d="M663.29,351.5l-2.23,10.95h-31.32l-.94-1.15c3.46-14.69,12.17-21.53,18.87-26.21,5.54-3.96,8.86-7.2,8.86-12.82,0-4.75-2.02-10.01-10.66-10.01-4.25,0-8.42,1.44-10.44,8.14-.58,2.16-1.51,2.81-3.1,2.81-1.3,0-2.23-1.08-2.23-3.17,0-4.03,5.04-10.58,16.06-10.58,13.03,0,16.49,7.49,16.49,13.03,0,6.26-4.39,10.73-8.78,13.68-9.43,6.41-17.07,11.52-20.38,21.82h20.38c4.68,0,5.4-.79,7.06-6.84l2.38.36Z"/><path d="M718.95,311.46c-5.33,0-5.76.43-5.76,5.62v37.44c0,5.18.43,5.62,5.76,5.62v2.3h-16.78v-2.3c4.68,0,5.04-.43,5.04-5.54v-18.43h-24.7v18.43c0,5.11.36,5.54,5.04,5.54v2.3h-16.78v-2.3c5.26,0,5.69-.43,5.69-5.62v-37.44c0-5.18-.43-5.62-5.69-5.62v-2.3h16.78v2.3c-4.68,0-5.04.36-5.04,5.47v16.27h24.7v-16.2c0-5.18-.36-5.54-5.04-5.54v-2.3h16.78v2.3Z"/><path d="M724.71,361.65c1.01-4.61,3.46-8.21,6.34-10.8,2.66-2.52,6.7-4.54,9.07-6.77,1.8-1.73,2.66-3.46,2.66-5.69,0-1.58-.5-2.95-1.8-4.1-1.15-.94-2.74-1.37-4.75-1.37-1.51,0-2.81.36-3.82,1.08-.86.65-1.51,1.51-2.23,3.1-.58,1.51-1.3,2.23-2.59,2.23-1.22,0-1.94-.72-1.94-2.09,0-1.58,1.15-3.53,3.53-4.82,2.02-1.08,4.46-1.73,7.42-1.73,3.46,0,5.83.65,7.78,2.02,2.09,1.37,3.17,3.1,3.17,5.69,0,2.3-.86,4.1-2.38,5.83-3.31,3.74-7.85,5.18-11.52,7.92-2.23,1.73-3.89,3.74-4.9,6.48h12.82c3.1,0,3.53-.22,4.46-3.74l1.94.29-1.51,7.27h-20.81l-.94-.79Z"/><path d="M755.38,335.8c0-19.44,9.22-27.72,22.39-27.72,14.26,0,22.39,9.58,22.39,27.72s-8.06,27.72-22.39,27.72c-17.14,0-22.39-13.18-22.39-27.72ZM766.46,316.07c-2.95,3.74-4.82,9.72-4.82,19.73,0,8.35,1.58,15.19,4.75,19.59,2.59,3.24,6.84,5.33,11.3,5.33s8.64-2.09,11.3-5.33c3.17-4.39,4.75-11.23,4.75-19.59,0-10.01-1.8-15.99-4.75-19.73-2.88-3.6-6.91-5.18-11.23-5.18s-8.57,1.8-11.31,5.18Z"/><path d="M871.73,368.78c-12.39-5.76-21.24-17.28-21.24-33.7s9.29-28.15,21.24-33.7l1.15,1.51c-11.02,6.12-17.93,17.43-17.93,32.19s6.91,26.07,17.93,32.19l-1.15,1.51Z"/><path d="M878.71,320.53c7.92.86,10.44,4.18,10.44,6.62,0,1.58-1.08,2.81-2.45,2.81-.65,0-1.3-.29-1.94-.79-.86-2.88-3.74-6.19-6.41-7.92l.36-.72ZM882.02,348.26c.79,0,1.08,0,1.73-1.44.36-.58,1.22-2.52,12.38-29.95l1.37.36c-2.74,8.57-7.99,24.55-8.86,27.79-.58,2.16-1.01,4.39-1.01,6.19,0,3.02,1.73,6.19,1.73,11.52,0,1.22,0,5.9-3.82,5.9-1.3,0-2.09-1.37-2.23-3.67.36-2.66.58-5.18.58-7.27,0-6.98-1.44-7.49-4.97-7.85v-1.58c2.3,0,3.1-.07,3.1-.07v.07ZM881.16,302.6c8.71,1.08,11.52,4.68,11.52,7.27,0,1.58-1.01,2.74-2.45,2.74-.58,0-1.22-.14-1.87-.65-1.22-3.02-4.61-6.62-7.63-8.64l.43-.72ZM913.85,318.16c-.29.79-.94,1.22-2.74,1.01-1.3,3.24-3.1,6.91-5.26,10.66l2.16.86c-.29.58-1.01,1.08-2.23,1.22v35.21c0,.07-.86,1.51-4.32,1.51v-31.97c-2.52,3.46-5.4,6.77-8.64,9.5l-.79-1.01c6.99-8.14,12.38-20.59,14.76-29.67l7.06,2.66ZM896.71,313.62l-.5-1.73h21.24v-10.15l7.56.65c-.07,1.01-.72,1.44-2.95,1.8v7.7h13.18l3.53-4.46,6.55,4.68c-.58,1.08-1.37,1.51-3.38,1.51h-45.22ZM938.04,323.77l5.18,4.75c-.5.65-1.22.86-2.88,1.01-2.16,9.22-5.54,17.64-11.45,24.7,4.25,4.25,9.65,7.49,16.71,9.72l-.14.79c-2.02.43-3.46,1.58-3.96,3.82-6.62-2.88-11.52-6.7-15.27-11.38-4.61,4.61-10.44,8.5-18,11.52l-.5-1.3c6.91-3.46,12.31-7.85,16.49-13.03-3.31-5.04-5.54-10.95-7.27-17.5-2.23,3.67-4.9,7.13-7.92,10.08l-.86-1.01c6.34-8.5,10.66-21.31,12.53-30.46l7.34,2.45c-.36.79-1.01,1.22-2.81,1.08-.79,2.38-1.8,4.97-3.02,7.71h12.82l3.02-2.95ZM921.48,328.45c-1.01,2.16-2.16,4.39-3.38,6.55,1.87,6.26,4.54,11.81,8.28,16.49,4.61-6.7,7.42-14.47,9.15-23.04h-14.04ZM921.63,332.63c5.98,1.94,7.92,5.04,7.92,7.34,0,1.51-.94,2.66-2.16,2.66-.5,0-1.08-.22-1.66-.79-.07-2.95-2.3-6.62-4.68-8.57l.58-.65Z"/><path d="M951.36,301.38c12.38,5.76,21.24,17.28,21.24,33.7s-9.29,28.15-21.24,33.7l-1.15-1.51c11.02-6.12,17.93-17.43,17.93-32.19s-6.91-26.07-17.93-32.19l1.15-1.51Z"/><path d="M1020.99,337.38v25.92h-2.88v-25.92h-25.92v-2.88h25.92v-25.92h2.88v25.92h25.92v2.88h-25.92Z"/><path d="M1102.99,334c6.41,2.52,12.6,8.06,12.6,14.69,0,7.56-5.47,14.83-18.15,14.83-9.58,0-17.64-4.97-17.64-14.55,0-4.32,2.67-9.86,11.88-13.54v-.14c-7.13-3.17-10.3-8.06-10.3-13.54s4.54-12.31,16.13-12.31,16.13,5.9,16.13,12.39c0,5.76-4.25,9.58-10.66,11.95v.22ZM1109.33,349.84c0-2.81-1.66-5.62-4.32-7.85-2.23-1.8-4.68-3.17-9.79-4.97-4.1,1.66-9.79,4.9-9.79,12.02s4.68,11.67,11.95,11.67c6.7,0,11.95-3.74,11.95-10.87ZM1086.86,321.04c0,6.41,5.91,9.15,12.17,11.38,5.04-2.02,9.15-4.68,9.15-10.66,0-3.74-1.87-9.5-10.73-9.5-7.13,0-10.58,4.1-10.58,8.78Z"/><path d="M1153.18,336.09c-2.81,4.54-7.42,7.34-13.18,7.34-10.44,0-16.2-7.13-16.2-16.42s5.47-17.57,17.57-17.57c9.43,0,18.07,7.13,18.07,25.42,0,14.26-4.61,28.66-19.08,28.66-10.44,0-15.05-5.98-15.05-9.79,0-1.73.86-2.88,2.3-2.88,1.8,0,2.38.94,3.74,3.67,1.37,3.46,3.74,6.19,9,6.19,12.67,0,13.03-19.95,13.03-24.63h-.22ZM1141.3,340.48c6.84,0,11.67-5.69,11.67-11.95,0-7.49-4.03-16.35-11.52-16.35s-11.52,6.19-11.52,14.62c0,3.74,1.22,13.68,11.38,13.68Z"/><path d="M1183.92,321.18c0-2.95-.43-4.25-1.8-4.25-1.3,0-2.74.65-4.97,1.44l-.58-2.16c5.47-2.16,9-4.03,12.31-6.26l.79.43v44c0,5.33.43,5.76,6.84,5.76v2.3h-19.8v-2.3c6.77,0,7.2-.43,7.2-5.76v-33.2Z"/><path d="M1240.87,342.71h.14l11.09-11.16c1.01-.94,1.58-1.73,1.58-2.23,0-.65-.79-.94-2.74-.94v-2.02h11.67v2.02c-2.23,0-3.53.58-5.33,2.38l-8.14,8.06,11.81,18.51c1.73,2.88,3.46,3.17,5.83,3.17v1.94h-9.15l-12.53-20.09-4.25,4.39v8.42c0,4.68.22,5.26,4.46,5.26v2.02h-14.76v-2.02c4.46,0,4.68-.65,4.68-5.33v-37.95c0-4.61-.43-5.18-4.68-5.18v-1.73c3.74-.58,6.55-1.51,9.5-3.38l.79.5v35.36Z"/><path d="M1290.05,352c0,5.11,0,18.36-13.1,18.36-6.26,0-10.44-2.81-10.44-5.62,0-1.37.94-2.23,2.3-2.23,1.44,0,2.45.58,3.67,2.59,1.08,1.51,2.38,2.45,4.61,2.45,5.9,0,6.98-5.83,6.98-14.04v-36.22c0-5.4-.43-5.83-6.41-5.83v-2.3h18.07v2.3c-5.26,0-5.69.5-5.69,5.76v34.78Z"/></svg>