<?xml version="1.0" encoding="UTF-8"?><svg id="_レイヤー_1" xmlns="http://www.w3.org/2000/svg" viewBox="0 0 1560 560"><rect width="1560" height="560" rx="18" ry="18" fill="#c8dbc3"/><path d="M421.62,255.09h-18.65l-2.66,9.29c-.43,1.51-.72,2.66-.72,3.46,0,1.58,1.08,1.94,3.96,1.94v2.3h-11.74v-2.3c2.66,0,3.53-.65,4.61-4.03l14.91-48.03h3.17l16.49,47.02c1.44,4.32,2.3,5.04,4.97,5.04v2.3h-14.33v-2.3c2.95,0,3.96-.5,3.96-1.94,0-.72-.22-1.66-.65-2.88l-3.31-9.87ZM420.62,252.13l-8.71-25.56h-.22l-7.7,25.56h16.63Z"/><path d="M494.63,247.02v25.92h-2.88v-25.92h-25.92v-2.88h25.92v-25.92h2.88v25.92h25.92v2.88h-25.92Z"/><path d="M557.41,226.86c0-5.33-.43-5.76-5.69-5.76v-2.3h17.5c6.12,0,10.08.5,13.54,3.1,2.66,2.02,4.39,5.11,4.39,8.86,0,3.38-1.08,11.09-12.82,13.03v.14c8.28.29,15.34,4.68,15.34,13.03,0,4.39-1.3,7.99-3.89,10.66-2.74,2.88-6.77,4.46-13.54,4.46h-20.52v-2.3c5.26,0,5.69-.43,5.69-5.76v-37.16ZM565.48,221.68c-1.8,0-2.02.65-2.02,2.45v18.58h5.04c7.56,0,12.53-3.74,12.53-11.23,0-5.76-3.17-9.79-10.73-9.79h-4.82ZM563.46,245.65v19.87c0,3.02.43,3.6,2.66,3.6h5.98c7.99,0,11.31-4.39,11.31-12.31,0-3.53-1.3-6.34-3.53-8.28-2.16-1.94-5.47-2.88-10.01-2.88h-6.41Z"/><path d="M681.83,256.38v2.88h-57.68c4.68,3.89,10.3,9.29,13.68,13.9l-2.3,1.87c-4.9-6.7-13.75-14.4-20.31-18.65h66.61ZM615.59,233.05v-2.88h57.68c-4.68-3.89-10.3-9.29-13.68-13.9l2.3-1.87c4.9,6.7,13.75,14.4,20.31,18.65h-66.61Z"/><path d="M741.52,232.76c-1.66-8.35-2.52-12.24-11.02-12.24-10.94,0-16.13,9.58-16.13,24.12,0,22.9,11.38,25.27,15.41,25.27,7.63,0,11.52-5.98,13.47-11.95l2.88.79c-3.1,9.5-9.29,14.4-17.07,14.4-6.26,0-11.3-2.3-14.83-6.34-4.25-5.11-6.19-12.17-6.19-21.89,0-18.15,8.93-27.22,22.32-27.22,3.02,0,6.26.14,12.1,2.45.5,4.1,1.08,8.28,1.87,12.02l-2.81.58Z"/><path d="M786.59,247.02v25.92h-2.88v-25.92h-25.92v-2.88h25.92v-25.92h2.88v25.92h25.92v2.88h-25.92Z"/><path d="M860.39,261.13l-2.23,10.94h-31.32l-.94-1.15c3.46-14.69,12.17-21.53,18.87-26.21,5.54-3.96,8.86-7.2,8.86-12.82,0-4.75-2.02-10.01-10.66-10.01-4.25,0-8.42,1.44-10.44,8.14-.58,2.16-1.51,2.81-3.1,2.81-1.3,0-2.23-1.08-2.23-3.17,0-4.03,5.04-10.58,16.06-10.58,13.03,0,16.49,7.49,16.49,13.03,0,6.26-4.39,10.73-8.78,13.68-9.43,6.41-17.07,11.52-20.38,21.82h20.38c4.68,0,5.4-.79,7.06-6.84l2.38.36Z"/><path d="M867.88,272.08v-2.3c5.26,0,5.69-.43,5.69-5.62v-37.44c0-5.18-.43-5.62-5.69-5.62v-2.3h19.37c7.99,0,13.11,1.66,17.28,5.98,4.68,4.97,6.55,11.95,6.55,20.09,0,20.74-10.66,27.22-25.35,27.22h-17.86ZM881.85,221.68c-1.87,0-2.23.5-2.23,3.02v40.61c0,3.38.36,3.89,2.45,3.89h3.46c11.38,0,19.3-6.48,19.3-23.47,0-8.21-1.3-14.04-4.68-18.58-3.1-4.03-7.56-5.47-13.18-5.47h-5.11Z"/><path d="M951.83,247.02v25.92h-2.88v-25.92h-25.92v-2.88h25.92v-25.92h2.88v25.92h25.92v2.88h-25.92Z"/><path d="M1011.01,243.71c7.99.5,15.19,5.11,15.19,13.9,0,7.63-5.54,15.55-18.29,15.55-11.16,0-16.85-6.48-16.85-10.73,0-1.94.79-3.1,2.45-3.1,1.08,0,1.87.5,2.81,2.23.72,1.37,1.66,3.17,3.31,4.68,1.73,2.23,4.18,4.18,8.42,4.18,3.89,0,12.03-1.8,12.03-12.53,0-2.74-.72-5.26-2.45-7.49-3.02-3.82-8.71-5.18-14.76-5.18v-2.66c7.27,0,15.27-3.17,15.27-11.23,0-5.47-3.74-9.43-10.15-9.43s-9.07,4.75-9.87,7.06c-.86,2.45-1.58,3.67-3.6,3.67-1.44,0-2.3-1.15-2.3-3.17,0-3.38,5.04-10.37,15.91-10.37s15.84,5.54,15.84,12.46c0,4.25-2.38,10.58-12.96,11.95v.22Z"/><path d="M1039.81,267.62c-3.74-4.25-5.83-11.16-5.83-21.82s2.09-17.79,6.7-22.25c2.88-2.66,6.77-4.46,11.95-4.46s9.14,1.8,12.02,4.46c4.68,4.46,6.77,12.02,6.77,22.25s-2.09,17.57-5.83,21.82c-3.67,4.03-8.14,5.54-12.96,5.54-2.45,0-8.07-.22-12.82-5.54ZM1039.96,245.87c0,11.52,1.66,24.55,12.6,24.55s12.67-11.67,12.67-24.55c0-11.45-2.09-17.57-4.75-20.74-2.3-2.52-5.33-3.31-7.92-3.31-9.07,0-12.6,8.5-12.6,24.05Z"/><path d="M1084.02,267.62c-3.74-4.25-5.83-11.16-5.83-21.82s2.09-17.79,6.7-22.25c2.88-2.66,6.77-4.46,11.95-4.46s9.14,1.8,12.02,4.46c4.68,4.46,6.77,12.02,6.77,22.25s-2.09,17.57-5.83,21.82c-3.67,4.03-8.14,5.54-12.96,5.54-2.45,0-8.07-.22-12.82-5.54ZM1084.16,245.87c0,11.52,1.66,24.55,12.6,24.55s12.67-11.67,12.67-24.55c0-11.45-2.09-17.57-4.75-20.74-2.3-2.52-5.33-3.31-7.92-3.31-9.07,0-12.6,8.5-12.6,24.05Z"/><path d="M1131.68,252.35h.14l11.09-11.16c1.01-.94,1.58-1.73,1.58-2.23,0-.65-.79-.94-2.74-.94v-2.02h11.67v2.02c-2.23,0-3.53.58-5.33,2.38l-8.14,8.06,11.81,18.51c1.73,2.88,3.46,3.17,5.83,3.17v1.94h-9.15l-12.53-20.09-4.25,4.39v8.42c0,4.68.22,5.26,4.46,5.26v2.02h-14.76v-2.02c4.46,0,4.68-.65,4.68-5.33v-37.95c0-4.61-.43-5.18-4.68-5.18v-1.73c3.74-.58,6.55-1.51,9.5-3.38l.79.5v35.36Z"/><path d="M1180.86,261.64c0,5.11,0,18.36-13.1,18.36-6.26,0-10.44-2.81-10.44-5.62,0-1.37.94-2.23,2.3-2.23,1.44,0,2.45.58,3.67,2.59,1.08,1.51,2.38,2.45,4.61,2.45,5.9,0,6.98-5.83,6.98-14.04v-36.22c0-5.4-.43-5.83-6.41-5.83v-2.3h18.07v2.3c-5.26,0-5.69.5-5.69,5.76v34.78Z"/></svg>