<?xml version="1.0" encoding="UTF-8"?><svg id="_レイヤー_2" xmlns="http://www.w3.org/2000/svg" viewBox="0 0 1560 560"><g id="_レイヤー_1-2"><rect width="1560" height="560" rx="18" ry="18" fill="#c8dbc3"/><rect x="15.45" y="17.61" width="185.28" height="504.41" fill="#c03"/><rect x="681.28" y="17.61" width="185.28" height="504.41" fill="#f63"/><rect x="457.55" y="17.61" width="185.28" height="504.41" fill="#96f"/><rect x="233.82" y="17.61" width="185.28" height="504.41" fill="#fc0"/><rect x="899.65" y="17.61" width="185.28" height="504.41" fill="#f36"/><rect x="1118.03" y="17.61" width="185.28" height="504.41" fill="#9c3"/><rect x="1341.76" y="17.61" width="185.28" height="504.41" fill="#0c9"/><path d="M114.58,280h-28.66v-54.87h5.98v49.76h22.68v5.11Z"/><path d="M125.09,233.84c-2.3,0-3.89-1.8-3.89-4.1s1.66-4.03,3.96-4.03,3.89,1.8,3.89,4.03c0,2.52-1.66,4.1-3.96,4.1ZM128.12,280h-5.98v-39.24h5.98v39.24Z"/><path d="M329.85,280h-5.98l-17.5-28.87c-3.67-6.12-7.2-12.24-9.86-18.29l-.29.07c.5,6.98.58,13.39.58,22.9v24.19h-5.62v-54.87h6.26l17.71,28.87c3.89,6.55,7.06,12.24,9.58,17.93l.14-.07c-.58-7.63-.72-14.19-.72-22.83v-23.91h5.69v54.87Z"/><path d="M367.58,270.64c0,3.24.07,6.62.58,9.36h-5.47l-.58-5.04h-.22c-2.02,3.1-6.05,5.91-11.59,5.91-7.49,0-11.45-5.47-11.45-11.16,0-9.43,8.21-14.55,22.75-14.47,0-3.31,0-10.8-8.93-10.8-3.38,0-6.91.94-9.58,2.81l-1.44-4.1c3.17-2.09,7.56-3.31,11.95-3.31,11.09,0,13.97,7.85,13.97,15.63v15.19ZM361.67,259.62c-7.42,0-16.71,1.08-16.71,9.36,0,5.04,3.17,7.27,6.77,7.27,5.83,0,9.94-4.46,9.94-9.22v-7.42Z"/><path d="M566.36,280h-7.06l-17.93-27.51-5.11,5.98v21.53h-5.98v-54.87h5.98v26.79h.29c1.37-2.09,2.88-4.1,4.25-5.9l16.71-20.88h7.34l-19.3,23.33,20.81,31.54Z"/><path d="M775.73,278.34c-2.52,1.22-7.42,2.45-13.68,2.45-14.11,0-25.49-9.15-25.49-27.72s11.02-28.73,27.07-28.73c6.55,0,10.37,1.37,12.1,2.23l-1.58,5.04c-2.52-1.22-6.05-2.23-10.37-2.23-12.46,0-20.95,8.35-20.95,23.47s7.78,22.9,20.59,22.9c4.18,0,8.28-.94,11.02-2.23l1.3,4.82Z"/><path d="M809.92,270.64c0,3.24.07,6.62.58,9.36h-5.47l-.58-5.04h-.22c-2.02,3.1-6.05,5.91-11.59,5.91-7.49,0-11.45-5.47-11.45-11.16,0-9.43,8.21-14.55,22.75-14.47,0-3.31,0-10.8-8.93-10.8-3.38,0-6.91.94-9.58,2.81l-1.44-4.1c3.17-2.09,7.56-3.31,11.95-3.31,11.09,0,13.97,7.85,13.97,15.63v15.19ZM804.02,259.62c-7.42,0-16.71,1.08-16.71,9.36,0,5.04,3.17,7.27,6.77,7.27,5.83,0,9.94-4.46,9.94-9.22v-7.42Z"/><path d="M997.12,231.9c-1.58-1.01-5.04-2.52-9.65-2.52-7.63,0-10.51,4.68-10.51,8.64,0,5.4,3.31,8.14,10.66,11.23,8.86,3.74,13.39,8.28,13.39,16.13,0,8.71-6.34,15.41-18.15,15.41-4.97,0-10.37-1.51-13.11-3.46l1.66-4.97c2.95,1.94,7.34,3.38,11.81,3.38,7.34,0,11.67-3.96,11.67-9.86,0-5.4-2.95-8.71-10.08-11.59-8.28-3.1-13.9-7.92-13.9-15.48,0-8.35,6.77-14.47,16.78-14.47,5.18,0,9.14,1.3,11.23,2.59l-1.8,4.97Z"/><path d="M1028.29,245.8c-.65-.07-1.3-.14-2.16-.14-6.48,0-9.79,6.41-9.79,13.03v21.31h-5.98v-27.51c0-4.18-.07-7.99-.29-11.74h5.26l.29,7.56h.22c1.73-4.9,5.83-8.42,10.66-8.42.65,0,1.15.14,1.8.22v5.69Z"/><path d="M1207.57,250.62c5.18,1.22,11.3,5.54,11.3,13.83,0,4.9-1.87,8.35-4.39,10.8-3.67,3.6-9.58,5.18-17.86,5.18-4.54,0-7.92-.36-10.15-.58v-53.93c3.02-.65,7.34-1.15,11.81-1.15,6.77,0,11.23,1.3,14.47,4.03,2.59,2.23,4.1,5.4,4.1,9.5,0,5.4-3.67,10.08-9.29,12.1v.22ZM1198.85,248.61c7.27,0,11.95-4.18,11.95-9.79v-.07c0-6.48-4.75-9.29-12.24-9.29-3.17,0-5.04.22-6.12.5v18.65h6.41ZM1192.44,275.32c1.37.29,3.31.36,5.83.36,7.56,0,14.33-2.95,14.33-11.23s-7.13-11.23-14.4-11.23h-5.76v22.11Z"/><path d="M1253.72,270.64c0,3.24.07,6.62.58,9.36h-5.47l-.58-5.04h-.22c-2.02,3.1-6.05,5.91-11.59,5.91-7.49,0-11.45-5.47-11.45-11.16,0-9.43,8.21-14.55,22.75-14.47,0-3.31,0-10.8-8.93-10.8-3.38,0-6.91.94-9.58,2.81l-1.44-4.1c3.17-2.09,7.56-3.31,11.95-3.31,11.09,0,13.97,7.85,13.97,15.63v15.19ZM1247.81,259.62c-7.42,0-16.71,1.08-16.71,9.36,0,5.04,3.17,7.27,6.77,7.27,5.83,0,9.94-4.46,9.94-9.22v-7.42Z"/><path d="M1435.66,278.34c-2.52,1.22-7.42,2.45-13.68,2.45-14.11,0-25.49-9.15-25.49-27.72s11.02-28.73,27.07-28.73c6.55,0,10.37,1.37,12.1,2.23l-1.58,5.04c-2.52-1.22-6.05-2.23-10.37-2.23-12.46,0-20.95,8.35-20.95,23.47s7.78,22.9,20.59,22.9c4.18,0,8.28-.94,11.02-2.23l1.3,4.82Z"/><path d="M1474.9,269.56c0,4.03.22,7.42.36,10.44h-5.4l-.29-6.19h-.22c-1.8,3.1-5.83,7.06-12.53,7.06-5.9,0-12.89-3.38-12.89-16.92v-23.19h5.98v22.11c0,7.63,2.23,12.96,8.79,12.96,4.68,0,10.22-3.74,10.22-10.66v-24.41h5.98v28.8Z"/></g></svg>