<?xml version="1.0" encoding="UTF-8"?><svg id="_レイヤー_1" xmlns="http://www.w3.org/2000/svg" viewBox="0 0 877.78 93.28"><defs><style>.cls-1{fill:#fff;}.cls-2{fill:#f2f2f2;}</style></defs><rect class="cls-1" x=".5" y="1.07" width="876.78" height="91.71"/><path d="M876.78,1.57v90.71H1V1.57h875.78M877.78.57H0v92.71h877.78V.57h0Z"/><rect class="cls-2" x=".5" y=".5" width="389.91" height="91.71"/><path d="M389.91,1v90.71H1V1h388.91M390.91,0H0v92.71h390.91V0h0Z"/><path d="M108.76,45.61c1.3.55,2.9,1.45,3.7,2.16l-.82,1.15c-.76-.71-2.33-1.68-3.65-2.27l.78-1.05ZM108.55,58.06c1.01-1.66,2.44-4.47,3.49-6.89l1.09.86c-.94,2.23-2.23,4.85-3.15,6.47.08.1.1.21.1.29s-.02.17-.06.23l-1.47-.97ZM109.88,39.9c1.28.61,2.88,1.57,3.63,2.33-.46.61-.65.88-.84,1.13-.76-.76-2.31-1.78-3.61-2.44l.82-1.03ZM116.2,53.42v3.46c1.28-.23,2.67-.5,4.05-.76l.08,1.22c-2.48.55-5.06,1.07-6.68,1.39-.02.17-.13.27-.27.31l-.59-1.55c.59-.1,1.28-.23,2.04-.36v-7.73l1.76.1c-.02.15-.13.25-.4.29v2.33h4.01v1.28h-4.01ZM126,40.61v7.77h-11.36v-7.77h11.36ZM124.62,43.91v-2.1h-8.63v2.1h8.63ZM124.62,47.18v-2.14h-8.63v2.14h8.63ZM122.26,56.86c0,.61.1.71.84.71h2.46c.65,0,.76-.36.82-2.58.29.25.86.44,1.24.55-.15,2.62-.52,3.32-1.93,3.32h-2.75c-1.64,0-2.04-.42-2.04-1.99v-7.45l1.78.1c-.02.15-.15.25-.42.29v3.3c1.47-.69,2.98-1.51,3.88-2.25l1.15,1.15c-.04.06-.13.08-.23.08-.04,0-.1,0-.17-.02-1.11.76-2.94,1.62-4.64,2.29v2.5Z"/><path d="M140.05,39.81c-.06.19-.21.27-.44.31,2.08,2.81,5.9,5.79,9.2,7.33-.34.31-.69.8-.92,1.22-3.34-1.74-7.14-4.77-9.15-7.52-1.74,2.6-5.27,5.69-8.94,7.68-.19-.31-.59-.82-.88-1.11,3.74-1.93,7.39-5.23,9.07-8.04l2.08.13ZM132.35,59.23v-8.5h12.93v8.5h-1.43v-.9h-10.12v.9h-1.39ZM133.42,46.68h10.75v1.28h-10.75v-1.28ZM143.85,52.03h-10.12v5.02h10.12v-5.02Z"/><path d="M168.84,43.24h-14.11c-.97,1.91-2.18,3.61-3.51,4.81-.27-.25-.82-.65-1.18-.86,1.95-1.64,3.61-4.49,4.56-7.52l1.78.48c-.04.15-.21.23-.46.23-.19.55-.4,1.09-.61,1.62h13.52v1.24ZM153.64,50.63c1.34.73,2.79,1.64,4.18,2.58,1.01-1.07,1.89-2.25,2.58-3.49l1.64.63c-.06.17-.29.21-.5.19-.71,1.24-1.6,2.39-2.6,3.46,1.6,1.15,3,2.33,3.93,3.34l-1.13,1.07c-.88-1.01-2.25-2.23-3.8-3.4-1.87,1.76-4.07,3.23-6.36,4.33-.21-.29-.67-.8-.99-1.05,2.25-.99,4.41-2.37,6.24-4.09-1.36-.97-2.81-1.89-4.18-2.65l1.01-.92ZM152.02,48.06h13.84c.02,5.61.34,9.76,2.02,9.76.44,0,.55-1.22.59-3.07.29.31.71.65,1.01.82-.15,2.69-.44,3.63-1.68,3.63-2.77,0-3.23-3.97-3.36-9.91h-12.41v-1.24ZM166.78,46.24h-12.32v-1.22h12.32v1.22Z"/><path d="M181.99,43.53c-.08.19-.25.34-.52.34-.76,6.53-2.94,12.22-6.42,12.22-1.76,0-3.36-1.76-3.36-5.08,0-5.04,3.93-9.26,9.45-9.26,6.07,0,8.69,3.84,8.69,7.94,0,5-2.9,7.41-7.98,8.59-.19-.34-.55-.9-.88-1.28,4.83-.92,7.31-3.28,7.31-7.24,0-3.46-2.23-6.61-7.14-6.61-.21,0-.44.02-.63.04l1.49.36ZM179.97,43.26c-4.24.52-6.87,4.03-6.87,7.71,0,2.25.97,3.65,1.97,3.65,2.54,0,4.37-5.61,4.89-11.36Z"/><path d="M198.52,47.43l.9.4c-.04.1-.13.17-.19.21-1.13,3.07-3.74,5.4-6.42,6.55-.19-.31-.52-.84-.82-1.11,2.18-.8,4.39-2.58,5.52-4.81h-5.02v-1.18h5.77l.25-.06ZM196.27,55.83c-.52,1.36-1.41,2.67-3,3.4l-1.05-.82c1.45-.61,2.39-1.81,2.88-3.04l1.18.46ZM197.45,44.05v-1.41h-5.08v-1.24h5.08v-1.7l1.83.1c-.02.15-.15.25-.42.29v1.3h5.75v-1.7l1.81.1c-.02.17-.13.25-.4.29v1.3h5.21v1.24h-5.21v1.41h-1.41v-1.41h-5.75v1.41h-1.41ZM207.38,45.21c-.06.1-.21.17-.34.17-.61.52-1.43,1.11-2.31,1.66.29.63.63,1.22,1.05,1.78,1.34-.86,2.98-2.06,3.97-2.96l1.32.94c-.08.1-.25.15-.44.13-1.07.82-2.79,1.95-4.16,2.75,1.34,1.53,3.13,2.73,5.1,3.38-.34.27-.73.8-.94,1.18-2.98-1.15-5.5-3.59-6.93-6.59-.42.23-.84.44-1.26.63v3.3c0,1.32-.57,1.41-3.38,1.41-.06-.36-.25-.82-.44-1.13.52,0,.99.02,1.34.02,1.09,0,1.09-.02,1.09-.31v-4.3l.99.06c.88-.44,1.81-1.01,2.56-1.57h-9.13v-1.15h10.58l.23-.08,1.09.71ZM207.67,54.87h-11.74v-1.24h11.74v1.24ZM199.11,59.09c-.04-.84-.34-2.16-.69-3.19l1.3-.19c.38,1.01.71,2.33.76,3.15l-1.36.23ZM204.04,59.05c-.23-.84-.88-2.18-1.53-3.19l1.15-.38c.69.97,1.39,2.27,1.62,3.13l-1.24.44ZM210.23,59.21c-.67-.94-2.16-2.35-3.44-3.3l1.03-.69c1.28.92,2.79,2.27,3.53,3.23l-1.11.76Z"/><path d="M231.84,43.24h-14.11c-.97,1.91-2.18,3.61-3.51,4.81-.27-.25-.82-.65-1.18-.86,1.95-1.64,3.61-4.49,4.56-7.52l1.78.48c-.04.15-.21.23-.46.23-.19.55-.4,1.09-.61,1.62h13.52v1.24ZM216.64,50.63c1.34.73,2.79,1.64,4.18,2.58,1.01-1.07,1.89-2.25,2.58-3.49l1.64.63c-.06.17-.29.21-.5.19-.71,1.24-1.6,2.39-2.6,3.46,1.6,1.15,3,2.33,3.93,3.34l-1.13,1.07c-.88-1.01-2.25-2.23-3.8-3.4-1.87,1.76-4.07,3.23-6.36,4.33-.21-.29-.67-.8-.99-1.05,2.25-.99,4.41-2.37,6.24-4.09-1.36-.97-2.81-1.89-4.18-2.65l1.01-.92ZM215.02,48.06h13.84c.02,5.61.34,9.76,2.02,9.76.44,0,.55-1.22.59-3.07.29.31.71.65,1.01.82-.15,2.69-.44,3.63-1.68,3.63-2.77,0-3.23-3.97-3.36-9.91h-12.41v-1.24ZM229.78,46.24h-12.32v-1.22h12.32v1.22Z"/><path d="M234.76,45.65c1.28.5,2.83,1.36,3.61,2.04l-.82,1.15c-.76-.67-2.31-1.6-3.57-2.14l.78-1.05ZM234.45,58.12c.9-1.64,2.18-4.43,3.11-6.8l1.11.8c-.84,2.2-1.95,4.81-2.79,6.38.08.13.13.23.13.34,0,.06-.02.15-.06.21l-1.49-.92ZM235.81,39.9c1.22.59,2.71,1.51,3.44,2.25l-.86,1.13c-.71-.73-2.18-1.74-3.4-2.35l.82-1.03ZM247.91,53.9c.36.67.8,1.28,1.34,1.81.92-.44,2.1-1.11,2.81-1.6l1.01.92c-.06.06-.15.1-.25.1-.04,0-.08,0-.15-.02-.67.4-1.76.88-2.67,1.28,1.01.8,2.27,1.41,3.7,1.74-.31.25-.65.73-.84,1.07-2.88-.84-5.06-2.73-6.19-5.31h-2.18v3.38l4.12-.48.04,1.05c-2.35.34-4.77.67-6.32.88-.02.15-.13.25-.27.27l-.55-1.41c.5-.04,1.07-.1,1.68-.17v-3.53h-1.93c-.27,1.83-.88,3.78-2.14,5.29-.23-.25-.78-.61-1.09-.73,1.87-2.16,2.14-5.12,2.14-7.26v-2.86h13.27v1.11h-11.99v1.76c0,.5-.02,1.03-.06,1.6h12.16v1.09h-5.63ZM252.34,41.47v5.75h-11.72v-5.75h3.46v-1.76l1.57.1c-.02.13-.13.23-.4.27v1.39h2.27v-1.76l1.57.1c-.02.13-.13.23-.38.27v1.39h3.61ZM241.9,42.48v1.39h2.18v-1.39h-2.18ZM241.9,44.83v1.39h2.18v-1.39h-2.18ZM251.94,51.59h-9.55v-.99h9.55v.99ZM247.53,42.48h-2.27v1.39h2.27v-1.39ZM247.53,44.83h-2.27v1.39h2.27v-1.39ZM251.02,43.87v-1.39h-2.29v1.39h2.29ZM251.02,46.22v-1.39h-2.29v1.39h2.29Z"/><path d="M274.37,43.17h-16.27v4.87c0,3.28-.25,8.04-2.1,11.25-.23-.25-.82-.65-1.15-.8,1.74-3.04,1.89-7.37,1.89-10.46v-6.17h7.92v-2.16l1.87.13c-.02.15-.13.25-.42.29v1.74h8.27v1.3ZM271.55,51.8l.94.46c-.04.1-.13.17-.21.21-.97,1.74-2.46,3.09-4.28,4.09,1.93.73,4.16,1.22,6.55,1.45-.31.31-.65.86-.84,1.24-2.65-.36-5.1-.99-7.2-1.95-2.27.99-4.91,1.57-7.62,1.91-.1-.36-.38-.88-.61-1.2,2.37-.25,4.75-.71,6.82-1.47-1.45-.86-2.62-1.91-3.51-3.17l.88-.34h-3.34v-1.18h12.16l.25-.06ZM270.44,50.33h-8.04v-3.49h-3.42v-1.18h3.42v-1.93l1.76.13c-.02.15-.15.25-.42.27v1.53h5.31v-1.93l1.81.13c-.02.15-.15.25-.42.27v1.53h3.8v1.18h-3.8v3.49ZM262.9,53.04c.86,1.18,2.12,2.12,3.65,2.9,1.53-.76,2.83-1.7,3.76-2.9h-7.41ZM269.05,46.85h-5.31v2.35h5.31v-2.35Z"/><path d="M530.81,28.96l.9.4c-.04.1-.13.17-.19.21-1.13,3.07-3.74,5.4-6.42,6.55-.19-.31-.53-.84-.82-1.11,2.18-.8,4.39-2.58,5.52-4.81h-5.02v-1.18h5.77l.25-.06ZM528.56,37.35c-.52,1.36-1.41,2.67-3,3.4l-1.05-.82c1.45-.61,2.39-1.81,2.88-3.04l1.18.46ZM529.74,25.57v-1.41h-5.08v-1.24h5.08v-1.7l1.83.1c-.02.15-.15.25-.42.29v1.3h5.75v-1.7l1.81.1c-.02.17-.13.25-.4.29v1.3h5.21v1.24h-5.21v1.41h-1.41v-1.41h-5.75v1.41h-1.41ZM539.67,26.73c-.06.1-.21.17-.34.17-.61.52-1.43,1.11-2.31,1.66.29.63.63,1.22,1.05,1.78,1.34-.86,2.98-2.06,3.97-2.96l1.32.94c-.08.1-.25.15-.44.13-1.07.82-2.79,1.95-4.16,2.75,1.34,1.53,3.13,2.73,5.1,3.38-.34.27-.73.8-.94,1.18-2.98-1.15-5.5-3.59-6.93-6.59-.42.23-.84.44-1.26.63v3.3c0,1.32-.57,1.41-3.38,1.41-.06-.36-.25-.82-.44-1.13.52,0,.99.02,1.34.02,1.09,0,1.09-.02,1.09-.31v-4.3l.99.06c.88-.44,1.8-1.01,2.56-1.57h-9.13v-1.15h10.58l.23-.08,1.09.71ZM539.96,36.39h-11.74v-1.24h11.74v1.24ZM531.4,40.61c-.04-.84-.34-2.16-.69-3.19l1.3-.19c.38,1.01.71,2.33.76,3.15l-1.36.23ZM536.33,40.57c-.23-.84-.88-2.18-1.53-3.19l1.16-.38c.69.97,1.39,2.27,1.62,3.13l-1.24.44ZM542.52,40.73c-.67-.94-2.16-2.35-3.44-3.3l1.03-.69c1.28.92,2.79,2.27,3.53,3.23l-1.11.76Z"/><path d="M564.13,24.76h-14.11c-.97,1.91-2.18,3.61-3.51,4.81-.27-.25-.82-.65-1.18-.86,1.95-1.64,3.61-4.49,4.56-7.52l1.78.48c-.04.15-.21.23-.46.23-.19.55-.4,1.09-.61,1.62h13.52v1.24ZM548.93,32.15c1.34.73,2.79,1.64,4.18,2.58,1.01-1.07,1.89-2.25,2.58-3.49l1.64.63c-.06.17-.29.21-.5.19-.71,1.24-1.6,2.39-2.6,3.46,1.6,1.15,3,2.33,3.93,3.34l-1.13,1.07c-.88-1.01-2.25-2.23-3.8-3.4-1.87,1.76-4.07,3.23-6.36,4.33-.21-.29-.67-.8-.99-1.05,2.25-.99,4.41-2.37,6.24-4.09-1.36-.97-2.81-1.89-4.18-2.65l1.01-.92ZM547.31,29.58h13.84c.02,5.61.34,9.76,2.02,9.76.44,0,.55-1.22.59-3.07.29.31.71.65,1.01.82-.15,2.69-.44,3.63-1.68,3.63-2.77,0-3.23-3.97-3.36-9.91h-12.41v-1.24ZM562.07,27.76h-12.33v-1.22h12.33v1.22Z"/><path d="M576.71,39.08h8.99v1.11h-19.27v-1.11h8.92v-1.32h-7.16v-1.03h7.16v-1.09h-6.19v-5.33h13.84v5.33h-6.28v1.09h7.31v1.03h-7.31v1.32ZM585.59,28.14v1.11h-19.04v-1.11h19.04ZM582.67,22.11v5h-13.21v-5h13.21ZM570.5,31.22v1.28h4.85v-1.28h-4.85ZM570.5,34.71h4.85v-1.32h-4.85v1.32ZM581.25,24.17v-1.15h-10.41v1.15h10.41ZM581.25,26.2v-1.18h-10.41v1.18h10.41ZM581.58,32.5v-1.28h-4.87v1.28h4.87ZM581.58,34.71v-1.32h-4.87v1.32h4.87Z"/><path d="M447.48,48.61h21v.84h-21v-.84Z"/><path d="M468.48,48.61h21v.84h-21v-.84Z"/><path d="M489.48,48.61h21v.84h-21v-.84Z"/><path d="M510.48,48.61h21v.84h-21v-.84Z"/><path d="M531.48,48.61h21v.84h-21v-.84Z"/><path d="M552.48,48.61h21v.84h-21v-.84Z"/><path d="M573.48,48.61h21v.84h-21v-.84Z"/><path d="M594.48,48.61h21v.84h-21v-.84Z"/><path d="M615.48,48.61h21v.84h-21v-.84Z"/><path d="M636.48,48.61h21v.84h-21v-.84Z"/><path d="M450.58,80.4c-1.49-1.95-3.11-5-3.11-9.64s1.6-7.73,3.11-9.72h1.43c-1.74,2.33-3,5.42-3,9.74s1.3,7.24,3,9.62h-1.43Z"/><path d="M466.39,64.31c-.04.15-.19.25-.44.27-.57,3.04-1.72,5.29-6.47,6.45-.15-.36-.5-.9-.78-1.18,4.33-.94,5.44-2.83,5.84-5.73l1.85.19ZM468.87,72.94v4.39h8.71v1.32h-18.75v-1.32h8.59v-4.39h-6.32v-1.3h14.34v1.3h-6.57ZM460.73,63.64v2.88h-1.41v-4.18h8.1v-2.56l1.87.13c-.02.15-.15.25-.42.29v2.14h8.19v4.18h-1.45v-2.88h-14.89ZM469.86,63.96l1.81.1c-.02.15-.13.25-.42.29v3.84c0,.5.15.61,1.07.61h3.17c.67,0,.8-.19.86-1.43.29.21.86.4,1.26.48-.17,1.74-.59,2.18-1.95,2.18h-3.46c-1.87,0-2.33-.38-2.33-1.83v-4.26Z"/><path d="M498.27,63.33h-14.11c-.97,1.91-2.18,3.61-3.51,4.81-.27-.25-.82-.65-1.18-.86,1.95-1.64,3.61-4.49,4.56-7.52l1.78.48c-.04.15-.21.23-.46.23-.19.55-.4,1.09-.61,1.62h13.52v1.24ZM483.07,70.72c1.34.73,2.79,1.64,4.18,2.58,1.01-1.07,1.89-2.25,2.58-3.49l1.64.63c-.06.17-.29.21-.5.19-.71,1.24-1.6,2.39-2.6,3.46,1.6,1.15,3,2.33,3.93,3.34l-1.13,1.07c-.88-1.01-2.25-2.23-3.8-3.4-1.87,1.76-4.07,3.23-6.36,4.33-.21-.29-.67-.8-.99-1.05,2.25-.99,4.41-2.37,6.24-4.09-1.36-.97-2.81-1.89-4.18-2.65l1.01-.92ZM481.45,68.16h13.84c.02,5.61.34,9.76,2.02,9.76.44,0,.55-1.22.59-3.07.29.31.71.65,1.01.82-.15,2.69-.44,3.63-1.68,3.63-2.77,0-3.23-3.97-3.36-9.91h-12.41v-1.24ZM496.21,66.33h-12.33v-1.22h12.33v1.22Z"/><path d="M510.85,77.65h8.99v1.11h-19.27v-1.11h8.92v-1.32h-7.16v-1.03h7.16v-1.09h-6.19v-5.33h13.84v5.33h-6.28v1.09h7.31v1.03h-7.31v1.32ZM519.73,66.71v1.11h-19.04v-1.11h19.04ZM516.81,60.68v5h-13.21v-5h13.21ZM504.64,69.79v1.28h4.85v-1.28h-4.85ZM504.64,73.28h4.85v-1.32h-4.85v1.32ZM515.39,62.74v-1.15h-10.41v1.15h10.41ZM515.39,64.78v-1.18h-10.41v1.18h10.41ZM515.72,71.08v-1.28h-4.87v1.28h4.87ZM515.72,73.28v-1.32h-4.87v1.32h4.87Z"/><path d="M559.86,69v1.32h-7.01v6.99h-1.3v-6.99h-7.01v-1.32h7.01v-7.01h1.3v7.01h7.01Z"/><path d="M590.95,67.53l.9.4c-.04.1-.13.17-.19.21-1.13,3.07-3.74,5.4-6.42,6.55-.19-.31-.53-.84-.82-1.11,2.18-.8,4.39-2.58,5.52-4.81h-5.02v-1.18h5.77l.25-.06ZM588.7,75.93c-.52,1.36-1.41,2.67-3,3.4l-1.05-.82c1.45-.61,2.39-1.81,2.88-3.04l1.18.46ZM589.88,64.15v-1.41h-5.08v-1.24h5.08v-1.7l1.83.1c-.02.15-.15.25-.42.29v1.3h5.75v-1.7l1.81.1c-.02.17-.13.25-.4.29v1.3h5.21v1.24h-5.21v1.41h-1.41v-1.41h-5.75v1.41h-1.41ZM599.81,65.3c-.06.1-.21.17-.34.17-.61.52-1.43,1.11-2.31,1.66.29.63.63,1.22,1.05,1.78,1.34-.86,2.98-2.06,3.97-2.96l1.32.94c-.08.1-.25.15-.44.13-1.07.82-2.79,1.95-4.16,2.75,1.34,1.53,3.13,2.73,5.1,3.38-.34.27-.73.8-.94,1.18-2.98-1.15-5.5-3.59-6.93-6.59-.42.23-.84.44-1.26.63v3.3c0,1.32-.57,1.41-3.38,1.41-.06-.36-.25-.82-.44-1.13.52,0,.99.02,1.34.02,1.09,0,1.09-.02,1.09-.31v-4.3l.99.06c.88-.44,1.8-1.01,2.56-1.57h-9.13v-1.15h10.58l.23-.08,1.09.71ZM600.1,74.96h-11.74v-1.24h11.74v1.24ZM591.53,79.18c-.04-.84-.34-2.16-.69-3.19l1.3-.19c.38,1.01.71,2.33.76,3.15l-1.36.23ZM596.47,79.14c-.23-.84-.88-2.18-1.53-3.19l1.16-.38c.69.97,1.39,2.27,1.62,3.13l-1.24.44ZM602.66,79.31c-.67-.94-2.16-2.35-3.44-3.3l1.03-.69c1.28.92,2.79,2.27,3.53,3.23l-1.11.76Z"/><path d="M624.27,63.33h-14.11c-.97,1.91-2.18,3.61-3.51,4.81-.27-.25-.82-.65-1.18-.86,1.95-1.64,3.61-4.49,4.56-7.52l1.78.48c-.04.15-.21.23-.46.23-.19.55-.4,1.09-.61,1.62h13.52v1.24ZM609.07,70.72c1.34.73,2.79,1.64,4.18,2.58,1.01-1.07,1.89-2.25,2.58-3.49l1.64.63c-.06.17-.29.21-.5.19-.71,1.24-1.6,2.39-2.6,3.46,1.6,1.15,3,2.33,3.93,3.34l-1.13,1.07c-.88-1.01-2.25-2.23-3.8-3.4-1.87,1.76-4.07,3.23-6.36,4.33-.21-.29-.67-.8-.99-1.05,2.25-.99,4.41-2.37,6.24-4.09-1.36-.97-2.81-1.89-4.18-2.65l1.01-.92ZM607.45,68.16h13.84c.02,5.61.34,9.76,2.02,9.76.44,0,.55-1.22.59-3.07.29.31.71.65,1.01.82-.15,2.69-.44,3.63-1.68,3.63-2.77,0-3.23-3.97-3.36-9.91h-12.41v-1.24ZM622.21,66.33h-12.33v-1.22h12.33v1.22Z"/><path d="M636.85,77.65h8.99v1.11h-19.27v-1.11h8.92v-1.32h-7.16v-1.03h7.16v-1.09h-6.19v-5.33h13.84v5.33h-6.28v1.09h7.31v1.03h-7.31v1.32ZM645.73,66.71v1.11h-19.04v-1.11h19.04ZM642.81,60.68v5h-13.21v-5h13.21ZM630.64,69.79v1.28h4.85v-1.28h-4.85ZM630.64,73.28h4.85v-1.32h-4.85v1.32ZM641.39,62.74v-1.15h-10.41v1.15h10.41ZM641.39,64.78v-1.18h-10.41v1.18h10.41ZM641.72,71.08v-1.28h-4.87v1.28h4.87ZM641.72,73.28v-1.32h-4.87v1.32h4.87Z"/><path d="M647.44,79.2c2.29-1.91,4.16-5.42,4.16-9.66s-1.93-7.81-4.16-9.66v-.1h1.26c2.14,1.91,4.01,5.44,4.01,9.76s-1.87,7.85-4.01,9.76h-1.26v-.1Z"/><path d="M717.24,57.68l-.92.94-5.82-5.82-5.79,5.82-.92-.94,5.79-5.79-5.79-5.79.92-.94,5.79,5.82,5.82-5.82.92.92-5.79,5.82,5.79,5.79Z"/><path d="M747.46,59.76v-14.09h-.04l-2.58,1.49-.42-1.3,3.25-1.83h1.49v15.73h-1.7Z"/><path d="M754.41,51.94c0-5.5,2.14-8.17,5.08-8.17s4.81,2.81,4.81,7.96c0,5.46-1.91,8.27-5.04,8.27-2.86,0-4.85-2.81-4.85-8.06ZM762.54,51.82c0-3.93-.95-6.63-3.15-6.63-1.87,0-3.19,2.5-3.19,6.63s1.16,6.76,3.13,6.76c2.33,0,3.21-3.02,3.21-6.76Z"/><path d="M765.98,51.94c0-5.5,2.14-8.17,5.08-8.17s4.81,2.81,4.81,7.96c0,5.46-1.91,8.27-5.04,8.27-2.86,0-4.85-2.81-4.85-8.06ZM774.11,51.82c0-3.93-.94-6.63-3.15-6.63-1.87,0-3.19,2.5-3.19,6.63s1.15,6.76,3.13,6.76c2.33,0,3.21-3.02,3.21-6.76Z"/><path d="M789.23,48.67c0,3.28-1.62,4.85-3.49,4.85s-3.4-1.53-3.4-4.64,1.64-4.79,3.51-4.79c2.12,0,3.38,1.72,3.38,4.58ZM783.77,48.88c0,1.91.69,3.55,2.02,3.55,1.43,0,2.02-1.66,2.02-3.65,0-1.89-.53-3.59-2.02-3.59s-2.02,1.89-2.02,3.7ZM786.67,60.05h-1.2l8.99-16h1.2l-8.99,16ZM798.82,55.09c0,3.25-1.62,4.83-3.49,4.83s-3.4-1.53-3.4-4.64,1.64-4.81,3.51-4.81c2.12,0,3.38,1.74,3.38,4.62ZM793.36,55.2c0,1.99.69,3.61,2.02,3.61,1.45,0,2.02-1.64,2.02-3.65,0-1.87-.5-3.59-2-3.59-1.41,0-2.04,1.83-2.04,3.63Z"/></svg>