<?xml version="1.0" encoding="UTF-8"?><svg id="_レイヤー_2" xmlns="http://www.w3.org/2000/svg" viewBox="0 0 1560 860"><g id="_レイヤー_1-2"><rect width="1560" height="860" rx="18" ry="18" style="fill:#c8dbc3;"/><g style="isolation:isolate;"><text transform="translate(140.39 261.4) scale(.91 1)" style="font-family:TimesNewRomanPS-ItalicMT, &apos;Times New Roman&apos;; font-size:113.28px; font-style:italic; isolation:isolate;"><tspan x="0" y="0">1</tspan></text><text transform="translate(191.66 261.4) scale(.91 1)" style="font-family:TimesNewRomanPSMT, &apos;Times New Roman&apos;; font-size:113.28px;"><tspan x="0" y="0">/</tspan></text><text transform="translate(220.15 261.4) scale(.91 1)" style="font-family:TimesNewRomanPS-ItalicMT, &apos;Times New Roman&apos;; font-size:113.28px; font-style:italic; isolation:isolate;"><tspan x="0" y="0">R</tspan></text><text transform="translate(282.78 284.05) scale(.91 1)" style="font-family:TimesNewRomanPSMT, &apos;Times New Roman&apos;; font-size:73.63px; isolation:isolate;"><tspan x="0" y="0">eq</tspan></text><text transform="translate(345.69 261.4) scale(.91 1)" style="font-family:TimesNewRomanPSMT, &apos;Times New Roman&apos;; font-size:113.28px;"><tspan x="0" y="0" xml:space="preserve"> = </tspan></text><text transform="translate(454.79 261.4) scale(.91 1)" style="font-family:TimesNewRomanPS-ItalicMT, &apos;Times New Roman&apos;; font-size:113.28px; font-style:italic; isolation:isolate;"><tspan x="0" y="0">1</tspan></text><text transform="translate(506.06 261.4) scale(.91 1)" style="font-family:TimesNewRomanPSMT, &apos;Times New Roman&apos;; font-size:113.28px;"><tspan x="0" y="0">/</tspan></text><text transform="translate(534.55 261.4) scale(.91 1)" style="font-family:TimesNewRomanPS-ItalicMT, &apos;Times New Roman&apos;; font-size:113.28px; font-style:italic; isolation:isolate;"><tspan x="0" y="0">R</tspan></text><text transform="translate(597.18 284.05) scale(.91 1)" style="font-family:TimesNewRomanPSMT, &apos;Times New Roman&apos;; font-size:73.63px; isolation:isolate;"><tspan x="0" y="0">1</tspan></text><text transform="translate(630.51 261.4) scale(.91 1)" style="font-family:TimesNewRomanPSMT, &apos;Times New Roman&apos;; font-size:113.28px;"><tspan x="0" y="0" xml:space="preserve"> + </tspan></text><text transform="translate(739.61 261.4) scale(.91 1)" style="font-family:TimesNewRomanPS-ItalicMT, &apos;Times New Roman&apos;; font-size:113.28px; font-style:italic; isolation:isolate;"><tspan x="0" y="0">1</tspan></text><text transform="translate(790.88 261.4) scale(.91 1)" style="font-family:TimesNewRomanPSMT, &apos;Times New Roman&apos;; font-size:113.28px;"><tspan x="0" y="0">/</tspan></text><text transform="translate(819.37 261.4) scale(.91 1)" style="font-family:TimesNewRomanPS-ItalicMT, &apos;Times New Roman&apos;; font-size:113.28px; font-style:italic; isolation:isolate;"><tspan x="0" y="0">R</tspan></text><text transform="translate(882.01 284.05) scale(.91 1)" style="font-family:TimesNewRomanPSMT, &apos;Times New Roman&apos;; font-size:73.63px; isolation:isolate;"><tspan x="0" y="0">2</tspan></text><text transform="translate(915.33 261.4) scale(.91 1)" style="font-family:TimesNewRomanPSMT, &apos;Times New Roman&apos;; font-size:113.28px;"><tspan x="0" y="0" xml:space="preserve"> + … + </tspan></text><text transform="translate(1236.07 261.4) scale(.91 1)" style="font-family:TimesNewRomanPS-ItalicMT, &apos;Times New Roman&apos;; font-size:113.28px; font-style:italic; isolation:isolate;"><tspan x="0" y="0">1</tspan></text><text transform="translate(1287.34 261.4) scale(.91 1)" style="font-family:TimesNewRomanPSMT, &apos;Times New Roman&apos;; font-size:113.28px;"><tspan x="0" y="0">/</tspan></text><text transform="translate(1315.83 261.4) scale(.91 1)" style="font-family:TimesNewRomanPS-ItalicMT, &apos;Times New Roman&apos;; font-size:113.28px; font-style:italic; isolation:isolate;"><tspan x="0" y="0">R</tspan></text><text transform="translate(1378.46 284.05) scale(.91 1)" style="font-family:TimesNewRomanPSMT, &apos;Times New Roman&apos;; font-size:73.63px; isolation:isolate;"><tspan x="0" y="0">n</tspan></text></g><line x1="160" y1="440" x2="1400" y2="440" style="fill:none; stroke:#000; stroke-linecap:square; stroke-width:10px;"/><line x1="160" y1="720" x2="1400" y2="720" style="fill:none; stroke:#000; stroke-linecap:square; stroke-width:10px;"/><line x1="180" y1="520" x2="180" y2="640" style="fill:none; stroke:#000; stroke-linecap:square; stroke-width:10px;"/><line x1="210" y1="490" x2="210" y2="670" style="fill:none; stroke:#000; stroke-linecap:square; stroke-width:10px;"/><line x1="500" y1="440" x2="500" y2="500" style="fill:none; stroke:#000; stroke-linecap:square; stroke-width:10px;"/><rect x="450" y="500" width="100" height="160" rx="10" ry="10" style="fill:#fff; stroke:#000; stroke-linecap:square; stroke-width:10px;"/><line x1="500" y1="660" x2="500" y2="720" style="fill:none; stroke:#000; stroke-linecap:square; stroke-width:10px;"/><line x1="780" y1="440" x2="780" y2="500" style="fill:none; stroke:#000; stroke-linecap:square; stroke-width:10px;"/><rect x="730" y="500" width="100" height="160" rx="10" ry="10" style="fill:#fff; stroke:#000; stroke-linecap:square; stroke-width:10px;"/><line x1="780" y1="660" x2="780" y2="720" style="fill:none; stroke:#000; stroke-linecap:square; stroke-width:10px;"/><line x1="1060" y1="440" x2="1060" y2="500" style="fill:none; stroke:#000; stroke-linecap:square; stroke-width:10px;"/><rect x="1010" y="500" width="100" height="160" rx="10" ry="10" style="fill:#fff; stroke:#000; stroke-linecap:square; stroke-width:10px;"/><line x1="1060" y1="660" x2="1060" y2="720" style="fill:none; stroke:#000; stroke-linecap:square; stroke-width:10px;"/><g style="isolation:isolate;"><text transform="translate(453.8 597)" style="font-family:TimesNewRomanPS-ItalicMT, &apos;Times New Roman&apos;; font-size:92px; font-style:italic; isolation:isolate;"><tspan x="0" y="0">R</tspan></text><text transform="translate(509.99 615.4)" style="font-family:TimesNewRomanPS-ItalicMT, &apos;Times New Roman&apos;; font-size:64px; font-style:italic; isolation:isolate;"><tspan x="0" y="0">1</tspan></text></g><g style="isolation:isolate;"><text transform="translate(733.8 597)" style="font-family:TimesNewRomanPS-ItalicMT, &apos;Times New Roman&apos;; font-size:92px; font-style:italic; isolation:isolate;"><tspan x="0" y="0">R</tspan></text><text transform="translate(789.99 615.4)" style="font-family:TimesNewRomanPS-ItalicMT, &apos;Times New Roman&apos;; font-size:64px; font-style:italic; isolation:isolate;"><tspan x="0" y="0">2</tspan></text></g><g style="isolation:isolate;"><text transform="translate(1013.8 597)" style="font-family:TimesNewRomanPS-ItalicMT, &apos;Times New Roman&apos;; font-size:92px; font-style:italic; isolation:isolate;"><tspan x="0" y="0">R</tspan></text><text transform="translate(1069.99 615.4)" style="font-family:TimesNewRomanPS-ItalicMT, &apos;Times New Roman&apos;; font-size:64px; font-style:italic; isolation:isolate;"><tspan x="0" y="0">3</tspan></text></g></g></svg>