<?xml version="1.0" encoding="UTF-8"?><svg id="_レイヤー_2" xmlns="http://www.w3.org/2000/svg" viewBox="0 0 1560 863.2"><g id="_レイヤー_1-2"><rect width="1560" height="860" rx="18" ry="18" style="fill:#c8dbc3;"/><rect x="109.29" y="138.38" width="566.57" height="566.57" style="fill:#fff;"/><path d="M673.36,140.88v561.57H111.79V140.88h561.57M678.36,135.88H106.79v571.57h571.57V135.88h0Z" style="fill:#12750f;"/><rect x="894.75" y="138.38" width="566.57" height="566.57" style="fill:#fff;"/><path d="M1458.82,140.88v561.57h-561.57V140.88h561.57M1463.82,135.88h-571.57v571.57h571.57V135.88h0Z" style="fill:#12750f;"/><rect x="137.41" y="163.33" width="121.57" height="121.57" style="fill:#e6e6e6;"/><rect x="1298.73" y="164.05" width="121.57" height="121.57" style="fill:#e6e6e6;"/><text transform="translate(175.08 252.23)" style="font-family:HiraKakuStd-W8-83pv-RKSJ-H, &apos;Hiragino Kaku Gothic Std&apos;; font-size:72px;"><tspan x="0" y="0">A</tspan></text><text transform="translate(1335.29 255.18)" style="font-family:HiraKakuStd-W8-83pv-RKSJ-H, &apos;Hiragino Kaku Gothic Std&apos;; font-size:72px;"><tspan x="0" y="0">B</tspan></text><circle cx="416.82" cy="327.55" r="47.06" style="fill:#fff; stroke:#5598ff; stroke-miterlimit:10; stroke-width:3px;"/><circle cx="400.97" cy="486.86" r="47.06" style="fill:#fff; stroke:red; stroke-miterlimit:10; stroke-width:3px;"/><text transform="translate(392.58 345.28)" style="fill:#5598ff; font-family:HiraKakuStd-W8-83pv-RKSJ-H, &apos;Hiragino Kaku Gothic Std&apos;; font-size:72px;"><tspan x="0" y="0">−</tspan></text><text transform="translate(365.05 513.46)" style="fill:red; font-family:HiraKakuStd-W8-83pv-RKSJ-H, &apos;Hiragino Kaku Gothic Std&apos;; font-size:72px;"><tspan x="0" y="0">＋</tspan></text><circle cx="1383.65" cy="374.61" r="47.06" style="fill:#fff; stroke:red; stroke-miterlimit:10; stroke-width:3px;"/><circle cx="1169.92" cy="618.24" r="47.06" style="fill:#fff; stroke:red; stroke-miterlimit:10; stroke-width:3px;"/><circle cx="212.24" cy="524.12" r="47.06" style="fill:#fff; stroke:red; stroke-miterlimit:10; stroke-width:3px;"/><circle cx="1204.35" cy="250.47" r="47.06" style="fill:#fff; stroke:red; stroke-miterlimit:10; stroke-width:3px;"/><circle cx="1122.86" cy="412.35" r="47.06" style="fill:#fff; stroke:red; stroke-miterlimit:10; stroke-width:3px;"/><circle cx="463.88" cy="208.43" r="47.06" style="fill:#fff; stroke:red; stroke-miterlimit:10; stroke-width:3px;"/><circle cx="510.93" cy="618.24" r="47.06" style="fill:#fff; stroke:red; stroke-miterlimit:10; stroke-width:3px;"/><text transform="translate(176.24 557.12)" style="fill:red; font-family:HiraKakuStd-W8-83pv-RKSJ-H, &apos;Hiragino Kaku Gothic Std&apos;; font-size:72px;"><tspan x="0" y="0">＋</tspan></text><text transform="translate(1141.71 647.32)" style="fill:red; font-family:HiraKakuStd-W8-83pv-RKSJ-H, &apos;Hiragino Kaku Gothic Std&apos;; font-size:72px;"><tspan x="0" y="0">＋</tspan></text><text transform="translate(468.6 639.48)" style="fill:red; font-family:HiraKakuStd-W8-83pv-RKSJ-H, &apos;Hiragino Kaku Gothic Std&apos;; font-size:72px;"><tspan x="0" y="0">＋</tspan></text><text transform="translate(1089.35 445.85)" style="fill:red; font-family:HiraKakuStd-W8-83pv-RKSJ-H, &apos;Hiragino Kaku Gothic Std&apos;; font-size:72px;"><tspan x="0" y="0">＋</tspan></text><text transform="translate(1350.16 399.14)" style="fill:red; font-family:HiraKakuStd-W8-83pv-RKSJ-H, &apos;Hiragino Kaku Gothic Std&apos;; font-size:72px;"><tspan x="0" y="0">＋</tspan></text><text transform="translate(1169.92 277.83)" style="fill:red; font-family:HiraKakuStd-W8-83pv-RKSJ-H, &apos;Hiragino Kaku Gothic Std&apos;; font-size:72px;"><tspan x="0" y="0">＋</tspan></text><text transform="translate(427.69 233.59)" style="fill:red; font-family:HiraKakuStd-W8-83pv-RKSJ-H, &apos;Hiragino Kaku Gothic Std&apos;; font-size:72px;"><tspan x="0" y="0">＋</tspan></text><circle cx="184.28" cy="382.49" r="47.06" style="fill:#fff; stroke:#5598ff; stroke-miterlimit:10; stroke-width:3px;"/><circle cx="303.25" cy="374.61" r="47.06" style="fill:#fff; stroke:#5598ff; stroke-miterlimit:10; stroke-width:3px;"/><circle cx="327.6" cy="643" r="47.06" style="fill:#fff; stroke:#5598ff; stroke-miterlimit:10; stroke-width:3px;"/><circle cx="1359.52" cy="623.88" r="47.06" style="fill:#fff; stroke:#5598ff; stroke-miterlimit:10; stroke-width:3px;"/><circle cx="1277.48" cy="439.8" r="47.06" style="fill:#fff; stroke:#5598ff; stroke-miterlimit:10; stroke-width:3px;"/><circle cx="980.33" cy="214.47" r="47.06" style="fill:#fff; stroke:#5598ff; stroke-miterlimit:10; stroke-width:3px;"/><circle cx="1018.94" cy="558.7" r="47.06" style="fill:#fff; stroke:#5598ff; stroke-miterlimit:10; stroke-width:3px;"/><text transform="translate(951.54 238.75)" style="fill:#e6e6d0; font-family:HiraKakuStd-W8-83pv-RKSJ-H, &apos;Hiragino Kaku Gothic Std&apos;; font-size:72px;"><tspan x="0" y="0">−</tspan></text><text transform="translate(1249.42 459.6)" style="fill:#5598ff; font-family:HiraKakuStd-W8-83pv-RKSJ-H, &apos;Hiragino Kaku Gothic Std&apos;; font-size:72px;"><tspan x="0" y="0">−</tspan></text><text transform="translate(1336.59 648.12)" style="fill:#5598ff; font-family:HiraKakuStd-W8-83pv-RKSJ-H, &apos;Hiragino Kaku Gothic Std&apos;; font-size:72px;"><tspan x="0" y="0">−</tspan></text><text transform="translate(989.9 576.82)" style="fill:#e6e6d0; font-family:HiraKakuStd-W8-83pv-RKSJ-H, &apos;Hiragino Kaku Gothic Std&apos;; font-size:72px;"><tspan x="0" y="0">−</tspan></text><text transform="translate(280.54 393.73)" style="fill:#5598ff; font-family:HiraKakuStd-W8-83pv-RKSJ-H, &apos;Hiragino Kaku Gothic Std&apos;; font-size:72px;"><tspan x="0" y="0">−</tspan></text><text transform="translate(154.72 396.24)" style="fill:#5598ff; font-family:HiraKakuStd-W8-83pv-RKSJ-H, &apos;Hiragino Kaku Gothic Std&apos;; font-size:72px;"><tspan x="0" y="0">−</tspan></text><text transform="translate(306.86 656.76)" style="fill:#5598ff; font-family:HiraKakuStd-W8-83pv-RKSJ-H, &apos;Hiragino Kaku Gothic Std&apos;; font-size:72px;"><tspan x="0" y="0">−</tspan></text><text transform="translate(198.19 820)" style="font-family:HiraKakuStd-W8-83pv-RKSJ-H, &apos;Hiragino Kaku Gothic Std&apos;; font-size:72px;"><tspan x="0" y="0" style="fill:red;">＋</tspan><tspan x="72" y="0">4 ＜ </tspan><tspan x="247.61" y="0" style="fill:#5598ff;">－</tspan><tspan x="319.61" y="0">6</tspan></text><text transform="translate(103.75 80.98)" style="font-family:HiraKakuStd-W8-83pv-RKSJ-H, &apos;Hiragino Kaku Gothic Std&apos;; font-size:48px;"><tspan x="0" y="0" style="fill:red; letter-spacing:-.5em;">＋</tspan><tspan x="24" y="0">（赤</tspan><tspan x="120" y="0" style="letter-spacing:-.5em;">）</tspan><tspan x="144" y="0" xml:space="preserve"> / </tspan><tspan x="203.38" y="0" style="fill:#5598ff; letter-spacing:-.5em;">－</tspan><tspan x="227.38" y="0">（青</tspan><tspan x="323.38" y="0" style="letter-spacing:-.5em;">）</tspan></text><text transform="translate(58.23 194.56)" style="font-family:HiraKakuStd-W8-83pv-RKSJ-H, &apos;Hiragino Kaku Gothic Std&apos;; font-size:48px; glyph-orientation-vertical:0deg; text-orientation:upright; writing-mode:tb;"><tspan x="0" y="0">マイナスに帯電</tspan></text><text transform="translate(1510.09 200.32)" style="font-family:HiraKakuStd-W8-83pv-RKSJ-H, &apos;Hiragino Kaku Gothic Std&apos;; font-size:48px; glyph-orientation-vertical:0deg; text-orientation:upright; writing-mode:tb;"><tspan x="0" y="0">プラスに帯電</tspan></text><text transform="translate(1018.94 823.74)" style="font-family:HiraKakuStd-W8-83pv-RKSJ-H, &apos;Hiragino Kaku Gothic Std&apos;; font-size:72px;"><tspan x="0" y="0" style="fill:red;">＋</tspan><tspan x="72" y="0">4 ＞</tspan><tspan x="223.63" y="0" style="fill:red;"> </tspan><tspan x="247.61" y="0" style="fill:#5598ff;">－</tspan><tspan x="319.61" y="0">2</tspan></text><line x1="781.65" y1="563.07" x2="961.88" y2="563.07" style="fill:none; stroke:#000; stroke-miterlimit:10; stroke-width:13px;"/><polygon points="800.62 627.89 688.37 563.08 800.62 498.26 800.62 627.89"/><line x1="740.49" y1="224.12" x2="920.72" y2="224.12" style="fill:none; stroke:#000; stroke-miterlimit:10; stroke-width:13px;"/><polygon points="759.46 288.94 647.21 224.12 759.46 159.3 759.46 288.94"/><circle cx="570.57" cy="345.28" r="47.06" style="fill:#fff; stroke:#5598ff; stroke-miterlimit:10; stroke-width:3px;"/><text transform="translate(547.87 364.4)" style="fill:#5598ff; font-family:HiraKakuStd-W8-83pv-RKSJ-H, &apos;Hiragino Kaku Gothic Std&apos;; font-size:72px;"><tspan x="0" y="0">−</tspan></text><circle cx="606.02" cy="565.76" r="47.06" style="fill:#fff; stroke:#5598ff; stroke-miterlimit:10; stroke-width:3px;"/><text transform="translate(583.32 584.89)" style="fill:#5598ff; font-family:HiraKakuStd-W8-83pv-RKSJ-H, &apos;Hiragino Kaku Gothic Std&apos;; font-size:72px;"><tspan x="0" y="0">−</tspan></text><path d="M701.83,323.56c23.65,1.5,46.89,9,66.95,21.62,15.7-25.44,32.65-50.62,48.35-76.06,1.4,31.29,2.79,62.57,4.19,93.86,51.77,1.14,103.54,2.29,155.31,3.43-41.91,15.92-84.69,29.57-128.09,40.85,19.35,31.83,37.48,64.41,54.33,97.64-22-19.64-44.01-39.29-66.01-58.93-9.78,26.08-15.6,53.64-17.21,81.44-8.35-30.08-16.7-60.16-25.05-90.24-24.44,14.28-48.88,28.56-73.32,42.84,15.36-22.19,31.89-43.58,49.49-64.05-29.94-.04-59.86-5.59-87.82-16.29,18.46-7.13,37.76-12.11,57.36-14.82-13.37-19.46-30.39-39.11-38.47-61.29Z" style="fill:#f15a24; stroke:#fcee21; stroke-miterlimit:10; stroke-width:12px;"/></g></svg>