<?xml version="1.0" encoding="UTF-8"?><svg id="_レイヤー_2" xmlns="http://www.w3.org/2000/svg" viewBox="0 0 1560 860"><g id="_レイヤー_2-2"><g id="_レイヤー_1-2"><rect width="1560" height="860" rx="18" ry="18" style="fill:#c8dbc3;"/><rect x="79.58" y="154.2" width="1467.6" height="639.22" style="fill:#fff; stroke:#12750f; stroke-miterlimit:10; stroke-width:3px;"/><text transform="translate(1514.23 171.71) scale(1 .92)" style="font-family:KozGoPr6N-Regular-83pv-RKSJ-H, &apos;Kozuka Gothic Pr6N&apos;; font-size:48px; glyph-orientation-vertical:0deg; text-orientation:upright; writing-mode:tb;"><tspan x="0" y="0">テフロン</tspan><tspan x="-74" y="0">塩化ビニル</tspan><tspan x="-148" y="0">ポリエチレン</tspan><tspan x="-222" y="0">アクリル</tspan><tspan x="-296" y="0">ポリエステル</tspan><tspan x="-370" y="0">ポリプロピレン</tspan><tspan x="-444" y="0">ゴム</tspan><tspan x="-518" y="0">金</tspan><tspan x="-592" y="0">銅</tspan><tspan x="-666" y="0">鉄</tspan><tspan x="-740" y="0">アルミニウム</tspan><tspan x="-814" y="0">亜鉛</tspan><tspan x="-888" y="0">人の皮膚</tspan><tspan x="-962" y="0">木材</tspan><tspan x="-1036" y="0">木綿</tspan><tspan x="-1110" y="0">絹</tspan><tspan x="-1184" y="0">レーヨン</tspan><tspan x="-1258" y="0">ナイロン</tspan><tspan x="-1332" y="0">ガラス</tspan><tspan x="-1406" y="0">髪の毛・毛皮</tspan></text><rect x="11.25" y="30.67" width="59.2" height="762.75" style="fill:#e6e6d0; stroke:#12750f; stroke-miterlimit:10; stroke-width:3px;"/><text transform="translate(40.85 308.47) scale(1 1.01)" style="font-family:KozGoPr6N-Regular-83pv-RKSJ-H, &apos;Kozuka Gothic Pr6N&apos;; font-size:36px; glyph-orientation-vertical:0deg; letter-spacing:.04em; text-orientation:upright; writing-mode:tb;"><tspan x="0" y="0">帯電列</tspan></text><rect x="79.58" y="30.67" width="1467.6" height="123.53" style="fill:#e6e6d0; stroke:#12750f; stroke-miterlimit:10; stroke-width:3px;"/><text transform="translate(84.23 127.29)" style="font-family:KozGoPr6N-Regular-83pv-RKSJ-H, &apos;Kozuka Gothic Pr6N&apos;; font-size:48px;"><tspan x="0" y="0" style="fill:red; letter-spacing:-.48em; stroke:red; stroke-miterlimit:10; stroke-width:2px;">←</tspan><tspan x="24.96" y="0" style="letter-spacing:-.02em;">（</tspan><tspan x="72" y="0" style="fill:red; letter-spacing:-.02em;">＋</tspan><tspan x="119.04" y="0" style="letter-spacing:-.48em;">）</tspan><tspan x="144" y="0" style="letter-spacing:0em;">に</tspan><tspan x="191.52" y="0">帯</tspan><tspan x="239.52" y="0" style="letter-spacing:-.1em;">電</tspan><tspan x="282.72" y="0" style="letter-spacing:-.06em;">し</tspan><tspan x="327.84" y="0">や</tspan><tspan x="375.84" y="0" style="letter-spacing:0em;">す</tspan><tspan x="423.36" y="0">い</tspan></text><text transform="translate(1047.19 133.05)" style="font-family:KozGoPr6N-Regular-83pv-RKSJ-H, &apos;Kozuka Gothic Pr6N&apos;; font-size:48px;"><tspan x="0" y="0" style="letter-spacing:-.02em;">（</tspan><tspan x="47.04" y="0" style="fill:#5598ff; letter-spacing:-.02em;">−</tspan><tspan x="94.08" y="0" style="letter-spacing:-.48em;">）</tspan><tspan x="119.04" y="0" style="letter-spacing:0em;">に</tspan><tspan x="166.56" y="0">帯</tspan><tspan x="214.56" y="0" style="letter-spacing:-.1em;">電</tspan><tspan x="257.76" y="0" style="letter-spacing:-.06em;">し</tspan><tspan x="302.88" y="0">や</tspan><tspan x="350.88" y="0" style="letter-spacing:0em;">す</tspan><tspan x="398.4" y="0">い</tspan><tspan x="446.4" y="0" style="fill:#5598ff; stroke:#5598ff; stroke-miterlimit:10; stroke-width:2px;">→</tspan></text></g></g></svg>