<?xml version="1.0" encoding="UTF-8"?><svg id="_レイヤー_2" xmlns="http://www.w3.org/2000/svg" viewBox="0 0 1560 560"><g id="_レイヤー_1-2"><rect width="1560" height="560" rx="18" ry="18" fill="#fcd995"/><path d="M64.61,122.71c.78-1.2,1.98-1.8,3.3-1.8,3.18,0,7.74,3.06,7.74,5.28,0,.72-.72.84-1.62,1.5-.54.42-1.02.96-1.62,2.1-2.22,4.98-4.86,10.26-7.68,14.76,6.06,4.2,11.46,9.18,11.46,12.12,0,1.5-1.02,2.64-2.28,2.64-1.74,0-4.2-5.28-11.4-11.28-6.66,9.66-15.24,18.18-26.4,23.64l-.96-1.32c9.96-6.48,19.14-15.9,24.12-24.54-5.46-3.96-11.88-7.2-17.88-9.66l.6-1.32c6.84,2.04,14.1,4.8,19.26,7.68,2.64-4.5,7.5-14.76,7.5-17.22,0-2.1-2.76-2.46-4.02-2.34l-.12-.24Z"/><path d="M96.05,148.15c11.52-9.24,17.46-21.54,17.46-24.48,0-1.5-2.7-1.92-3.6-1.92.36-1.2,1.2-1.68,2.76-1.68,2.58,0,7.2,2.16,7.2,3.84,0,.66-.66,1.02-1.14,1.38-.54.36-1.02.9-1.62,2.16-.48.96-.96,1.98-1.62,2.94.6.12,1.26.18,1.8.18,2.04,0,9.48-.48,13.08-1.02,1.32-.18,1.44-.24,1.98-.72.42-.42,1.26-1.08,1.62-1.08,1.2,0,4.92,3.48,4.92,4.32,0,.72-.6.9-1.44,1.26-.66.3-1.5.6-1.86,1.5-1.8,4.14-5.16,10.68-7.74,14.34,3.18,1.92,6.6,4.62,6.6,7.2,0,1.26-.96,2.04-2.1,2.04-1.2,0-2.22-1.44-3.12-2.4-1.02-1.14-2.64-2.34-3.78-3.3-5.82,7.2-14.94,14.46-26.52,18.72l-.9-1.2c10.02-4.74,19.02-12.48,24.3-19.8-2.82-1.92-7.2-4.26-13.08-5.94l.54-1.32c5.64.84,11.22,2.76,14.52,4.32,4.86-7.14,7.5-14.7,7.5-15.36,0-.36-.18-.42-.66-.42-2.34,0-13.32,1.86-14.58,1.86-.9,0-1.86-.3-2.52-.78-3.9,5.94-9.06,11.52-17.04,16.5l-.96-1.14Z"/><path d="M186.83,123.43c.6-1.02,1.86-1.62,3-1.62,2.94,0,7.8,2.76,7.8,5.16,0,.9-1.08,1.26-2.1,2.34-.42.42-.9,1.08-1.44,2.16-7.32,14.82-18.54,29.7-38.4,39.6l-.96-1.2c26.82-16.86,35.7-40.74,35.7-43.92,0-.9-.18-2.16-3.54-2.46l-.06-.06Z"/><path d="M249.71,143.65c3.96,0,6.3-.48,7.26-.48,2.88,0,6.6,1.02,6.6,2.52,0,1.02-1.08,1.56-3.42,1.56-1.08,0-2.34,0-3.54-.06-2.58-.12-7.26-.12-10.92-.12-7.08,0-23.04,0-25.98,1.08-.78.3-1.56.9-2.58.9-2.16,0-6.18-3.72-6.18-6.12,0-1.44.36-2.28,1.14-3l.42-.06c.66,3.18,3,3.78,9.12,3.78h28.08Z"/><path d="M279.53,132.55c.42-.9,1.8-1.86,3.12-1.86,2.46,0,6.78,1.92,6.78,3.66,0,.72-.54.96-.84,1.5-.3.42-.36.84-.48,1.62-1.56,12.78-5.64,24.36-16.02,32.52l-1.2-1.08c8.34-8.46,12.36-21.42,12.96-32.94,0-2.52-1.92-3.42-4.26-3.18l-.06-.24ZM325.01,139.51c-4.02,12.84-11.52,20.28-20.64,25.32-1.14.66-1.8,1.26-2.28,1.86-.72.9-1.08,1.74-1.74,1.74-1.26,0-3.9-2.82-3.9-4.5,0-.78.54-1.38.9-2.04.24-.54.36-1.56.42-3.3.12-3.3.18-9.78.18-16.02,0-5.4-.06-10.62-.12-13.38-.06-2.46-.18-4.32-1.44-4.86-.84-.42-1.98-.6-3.12-.48l-.06-.06c.24-1.08,1.38-2.16,3.24-2.16,2.46,0,6.78,1.68,6.78,3.78,0,.78-.42,1.2-.84,1.86-.48.6-.72,1.5-.78,2.88-.36,5.82-.42,15.66-.42,24.48v6.3c.06.3.12.42.36.42,1.02,0,15.72-6.9,22.08-22.44l1.38.6Z"/><path d="M359.03,147.91v21.6h-2.4v-21.6h-21.6v-2.4h21.6v-21.6h2.4v21.6h21.6v2.4h-21.6Z"/><path d="M422.27,127.93c0,2.52-.06,5.58-.18,8.52,3.72-.3,7.02-.36,9.06-.48,1.98-.12,3.6-.96,4.56-2.04,3.06.42,7.2,2.4,7.2,3.84,0,1.26-1.08,1.56-2.22,1.56-1.2,0-5.04-.66-8.64-.72h-1.32c-2.34,0-5.46.12-8.76.36-.48,12.72-5.16,25.86-19.86,33l-.9-1.02c11.58-7.5,16.26-20.28,16.5-31.68-4.74.36-9.48,1.02-13.5,1.56-1.56.24-2.7.54-4.08,1.02-.78.24-1.08.78-2.04.78-2.52,0-5.34-3.24-5.34-5.4,0-1.14.18-2.28,1.38-2.58.48,3.48,3.72,3.48,5.64,3.48,2.04,0,10.26-.72,18.12-1.32.18-12.42.24-14.88-4.86-14.58l-.06-.06c.54-1.2,1.86-2.04,3.18-2.04,3.3,0,7.32,1.5,7.32,3.12,0,1.26-1.2.78-1.2,2.94v1.74Z"/><path d="M465.17,122.47c.3-.96,1.68-1.98,3.06-1.98,2.88,0,7.62,1.98,7.62,4.26,0,.54-.54.9-.96,1.5-.18.3-.3.9-.36,1.74-.18,2.46-.24,7.5-.36,12.06,7.02.9,13.44,2.58,16.98,4.56,3.36,1.98,5.04,3.36,5.04,5.52,0,1.32-.96,2.16-1.98,2.16-1.56,0-3.18-1.44-4.68-2.82-2.52-2.4-8.52-5.76-15.36-7.68-.06,4.32-.06,8.82-.06,12.48,0,1.98.24,11.64.24,13.8,0,2.64-1.08,3.66-2.34,3.66-2.28,0-3.06-5.34-3.54-7.38.42-.6.96-1.5,1.08-2.58.48-2.82.72-6.78.72-19.86,0-5.4-.06-10.8-.24-13.56-.06-2.94-.54-5.82-4.8-5.82l-.06-.06Z"/><path d="M519.53,126.61c.3-.96,1.62-1.68,3-1.68,1.92,0,6.24,1.62,6.24,3.96,0,.42-.3,1.32-.6,2.16-.36,1.02-.48,2.4-.48,4.98,0,1.92.12,11.28.12,13.44,0,2.46-.42,4.62-2.1,4.62-1.86,0-2.7-2.76-2.7-5.58,0-.78.72-1.14.78-5.46.06-2.64.06-5.52.06-7.38,0-6.36-.12-8.76-4.26-8.88l-.06-.18ZM542.93,123.01c.12-.9,1.74-2.04,3-2.04,2.34,0,7.08,1.74,7.08,3.54,0,.54-.6.9-.84,1.32-.18.3-.36.9-.36,1.44v15.18c0,15.12-7.02,24.48-23.7,29.22l-.78-1.38c14.04-5.34,20.4-13.98,20.4-28.14v-8.76c0-7.08,0-10.62-4.74-10.26l-.06-.12Z"/><path d="M591.17,121.57c.6-1.02,1.56-1.8,3.3-1.8,2.52,0,6.54,1.5,6.54,3.06,0,.78-.6,1.14-.96,1.68-.6,1.02-.54,6.9-.66,8.22,3.9-.18,7.92-.36,10.2-.54,1.74-.12,3.06-.36,3.6-.84.72-.66,1.26-1.38,1.8-1.38,1.26,0,5.4,3.66,5.4,4.5,0,.72-.78.96-1.56,1.32-.54.18-1.14.54-1.32,1.44-3.36,15.66-11.46,28.38-30.96,34.5l-.72-1.26c17.22-6.9,25.02-19.86,27.54-35.28.06-.18.06-.3.06-.48,0-.54-.36-.66-1.02-.66-5.34.36-17.88,1.2-22.14,1.68-2.28.3-3.42.54-4.98.54-1.02,0-1.92-.18-2.64-.42.06,2.16,1.02,13.08,1.02,13.5,0,1.5-.36,2.4-1.8,2.4-1.68,0-2.64-2.22-3.06-5.52.48-.54.6-1.14.6-2.28,0-2.58-.48-6.96-.84-8.76-.42-1.8-1.26-3.3-3.3-4.02l-.06-.42c.72-.42,1.86-.54,2.7-.54,1.44,0,3.66,1.32,4.44,2.94,1.02.24,1.26.3,2.1.3,1.86,0,6.9-.24,11.28-.48.24-9.66-.42-11.16-3.54-11.16-.24,0-.54,0-.84.06l-.18-.3Z"/><path d="M664.73,146.35c9.18,5.22,17.52,14.7,17.52,19.5,0,2.28-.48,3.78-2.34,3.78-1.68,0-2.46-1.8-3.24-4.56-.24-.72-.48-1.56-.84-2.34-9.6,1.56-25.08,3.54-32.76,4.5-2.04.24-2.58,1.5-4.26,1.5-2.1,0-5.34-3.72-5.34-6.06,0-.84.36-1.68.9-2.34l.42-.12c.36,1.38,1.02,3.3,3.9,3.3.72,0,1.62-.06,2.7-.12,5.34-12.84,11.16-34.5,11.16-37.02,0-2.82-3.54-2.82-4.26-2.76l-.06-.18c.54-1.2,2.16-1.98,3.6-1.98,2.82,0,7.38,2.28,7.38,4.38,0,.72-.72,1.2-1.2,1.5-.48.36-.84,1.2-1.02,1.98-3.3,10.38-7.98,23.28-13.26,34.02,6.3-.3,22.08-1.5,31.26-2.34-2.46-4.56-6.96-10.38-11.16-13.56l.9-1.08Z"/><path d="M690.23,147.19v-2.4h49.62c-3.96-3-8.46-7.32-11.64-11.64l1.92-1.56c4.08,5.58,10.2,10.92,15.66,14.4-5.46,3.48-11.58,8.82-15.66,14.4l-1.92-1.56c3.18-4.32,7.68-8.64,11.64-11.64h-49.62Z"/><path d="M782.27,127.93c0,2.52-.06,5.58-.18,8.52,3.72-.3,7.02-.36,9.06-.48,1.98-.12,3.6-.96,4.56-2.04,3.06.42,7.2,2.4,7.2,3.84,0,1.26-1.08,1.56-2.22,1.56-1.2,0-5.04-.66-8.64-.72h-1.32c-2.34,0-5.46.12-8.76.36-.48,12.72-5.16,25.86-19.86,33l-.9-1.02c11.58-7.5,16.26-20.28,16.5-31.68-4.74.36-9.48,1.02-13.5,1.56-1.56.24-2.7.54-4.08,1.02-.78.24-1.08.78-2.04.78-2.52,0-5.34-3.24-5.34-5.4,0-1.14.18-2.28,1.38-2.58.48,3.48,3.72,3.48,5.64,3.48,2.04,0,10.26-.72,18.12-1.32.18-12.42.24-14.88-4.86-14.58l-.06-.06c.54-1.2,1.86-2.04,3.18-2.04,3.3,0,7.32,1.5,7.32,3.12,0,1.26-1.2.78-1.2,2.94v1.74Z"/><path d="M825.17,122.47c.3-.96,1.68-1.98,3.06-1.98,2.88,0,7.62,1.98,7.62,4.26,0,.54-.54.9-.96,1.5-.18.3-.3.9-.36,1.74-.18,2.46-.24,7.5-.36,12.06,7.02.9,13.44,2.58,16.98,4.56,3.36,1.98,5.04,3.36,5.04,5.52,0,1.32-.96,2.16-1.98,2.16-1.56,0-3.18-1.44-4.68-2.82-2.52-2.4-8.52-5.76-15.36-7.68-.06,4.32-.06,8.82-.06,12.48,0,1.98.24,11.64.24,13.8,0,2.64-1.08,3.66-2.34,3.66-2.28,0-3.06-5.34-3.54-7.38.42-.6.96-1.5,1.08-2.58.48-2.82.72-6.78.72-19.86,0-5.4-.06-10.8-.24-13.56-.06-2.94-.54-5.82-4.8-5.82l-.06-.06Z"/><path d="M879.53,126.61c.3-.96,1.62-1.68,3-1.68,1.92,0,6.24,1.62,6.24,3.96,0,.42-.3,1.32-.6,2.16-.36,1.02-.48,2.4-.48,4.98,0,1.92.12,11.28.12,13.44,0,2.46-.42,4.62-2.1,4.62-1.86,0-2.7-2.76-2.7-5.58,0-.78.72-1.14.78-5.46.06-2.64.06-5.52.06-7.38,0-6.36-.12-8.76-4.26-8.88l-.06-.18ZM902.93,123.01c.12-.9,1.74-2.04,3-2.04,2.34,0,7.08,1.74,7.08,3.54,0,.54-.6.9-.84,1.32-.18.3-.36.9-.36,1.44v15.18c0,15.12-7.02,24.48-23.7,29.22l-.78-1.38c14.04-5.34,20.4-13.98,20.4-28.14v-8.76c0-7.08,0-10.62-4.74-10.26l-.06-.12Z"/><path d="M951.17,121.57c.6-1.02,1.56-1.8,3.3-1.8,2.52,0,6.54,1.5,6.54,3.06,0,.78-.6,1.14-.96,1.68-.6,1.02-.54,6.9-.66,8.22,3.9-.18,7.92-.36,10.2-.54,1.74-.12,3.06-.36,3.6-.84.72-.66,1.26-1.38,1.8-1.38,1.26,0,5.4,3.66,5.4,4.5,0,.72-.78.96-1.56,1.32-.54.18-1.14.54-1.32,1.44-3.36,15.66-11.46,28.38-30.96,34.5l-.72-1.26c17.22-6.9,25.02-19.86,27.54-35.28.06-.18.06-.3.06-.48,0-.54-.36-.66-1.02-.66-5.34.36-17.88,1.2-22.14,1.68-2.28.3-3.42.54-4.98.54-1.02,0-1.92-.18-2.64-.42.06,2.16,1.02,13.08,1.02,13.5,0,1.5-.36,2.4-1.8,2.4-1.68,0-2.64-2.22-3.06-5.52.48-.54.6-1.14.6-2.28,0-2.58-.48-6.96-.84-8.76-.42-1.8-1.26-3.3-3.3-4.02l-.06-.42c.72-.42,1.86-.54,2.7-.54,1.44,0,3.66,1.32,4.44,2.94,1.02.24,1.26.3,2.1.3,1.86,0,6.9-.24,11.28-.48.24-9.66-.42-11.16-3.54-11.16-.24,0-.54,0-.84.06l-.18-.3Z"/><path d="M1024.73,146.35c9.18,5.22,17.52,14.7,17.52,19.5,0,2.28-.48,3.78-2.34,3.78-1.68,0-2.46-1.8-3.24-4.56-.24-.72-.48-1.56-.84-2.34-9.6,1.56-25.08,3.54-32.76,4.5-2.04.24-2.58,1.5-4.26,1.5-2.1,0-5.34-3.72-5.34-6.06,0-.84.36-1.68.9-2.34l.42-.12c.36,1.38,1.02,3.3,3.9,3.3.72,0,1.62-.06,2.7-.12,5.34-12.84,11.16-34.5,11.16-37.02,0-2.82-3.54-2.82-4.26-2.76l-.06-.18c.54-1.2,2.16-1.98,3.6-1.98,2.82,0,7.38,2.28,7.38,4.38,0,.72-.72,1.2-1.2,1.5-.48.36-.84,1.2-1.02,1.98-3.3,10.38-7.98,23.28-13.26,34.02,6.3-.3,22.08-1.5,31.26-2.34-2.46-4.56-6.96-10.38-11.16-13.56l.9-1.08Z"/><path d="M1084.61,122.71c.78-1.2,1.98-1.8,3.3-1.8,3.18,0,7.74,3.06,7.74,5.28,0,.72-.72.84-1.62,1.5-.54.42-1.02.96-1.62,2.1-2.22,4.98-4.86,10.26-7.68,14.76,6.06,4.2,11.46,9.18,11.46,12.12,0,1.5-1.02,2.64-2.28,2.64-1.74,0-4.2-5.28-11.4-11.28-6.66,9.66-15.24,18.18-26.4,23.64l-.96-1.32c9.96-6.48,19.14-15.9,24.12-24.54-5.46-3.96-11.88-7.2-17.88-9.66l.6-1.32c6.84,2.04,14.1,4.8,19.26,7.68,2.64-4.5,7.5-14.76,7.5-17.22,0-2.1-2.76-2.46-4.02-2.34l-.12-.24Z"/><path d="M1125.17,122.47c.3-.96,1.68-1.98,3.06-1.98,2.88,0,7.62,1.98,7.62,4.26,0,.54-.54.9-.96,1.5-.18.3-.3.9-.36,1.74-.18,2.46-.24,7.5-.36,12.06,7.02.9,13.44,2.58,16.98,4.56,3.36,1.98,5.04,3.36,5.04,5.52,0,1.32-.96,2.16-1.98,2.16-1.56,0-3.18-1.44-4.68-2.82-2.52-2.4-8.52-5.76-15.36-7.68-.06,4.32-.06,8.82-.06,12.48,0,1.98.24,11.64.24,13.8,0,2.64-1.08,3.66-2.34,3.66-2.28,0-3.06-5.34-3.54-7.38.42-.6.96-1.5,1.08-2.58.48-2.82.72-6.78.72-19.86,0-5.4-.06-10.8-.24-13.56-.06-2.94-.54-5.82-4.8-5.82l-.06-.06Z"/><path d="M1199.81,149.23c4.32-.66,8.04-1.14,11.28-1.5,3.24-.42,4.98-1.02,5.94-2.28,3.78.54,6.96,1.32,6.96,2.88s-2.58,1.56-5.94,1.56c-4.5,0-11.46.78-17.94,1.68.42,3.78,1.02,8.52,1.32,11.04.06.84.9,4.98.9,5.94,0,1.68-.42,3.36-1.8,3.36-1.8,0-2.82-2.58-3.24-4.68.42-1.02.36-2.28.42-4.08,0-2.04-.54-8.16-.78-11.1-4.32.72-14.28,2.34-17.28,3.84-1.02.48-1.56.78-2.46.78-2.1,0-5.34-2.76-5.34-4.74,0-1.44.66-1.92.9-1.92,1.02,1.68,2.46,2.4,5.04,2.4,1.14,0,2.52-.18,4.2-.42,5.04-.9,10.14-1.62,14.7-2.28-.24-3.66-.96-10.74-1.44-13.98-.24.06-9.42,1.74-10.8,2.4-.96.42-1.68,1.02-2.76,1.02-2.76,0-5.82-2.46-5.82-4.74,0-.66.24-1.32.66-1.74h.3c.9,2.04,2.22,2.58,4.62,2.58,3.06,0,9-1.02,13.5-1.8-1.02-9.18-1.56-10.68-5.04-10.68-.48,0-.96.06-1.38.12l-.12-.12c.24-1.08,1.68-2.4,3.36-2.4,2.46,0,6.6.78,6.6,2.34,0,.72-.24,1.08-.48,1.62-.18.42-.3,1.08-.3,1.92,0,.96.54,5.58.6,6.6,8.22-1.62,10.32-2.16,11.4-3.48,3.24.3,6.78.9,6.78,2.82,0,1.44-2.34,1.44-4.98,1.44-3.06,0-7.74.6-13.02,1.56l1.44,14.04Z"/><path d="M1235.21,137.35c7.8.78,14.64,3.48,14.64,7.14,0,1.26-.96,2.16-2.22,2.16-1.08,0-2.28-1.62-3.9-3.12-1.62-1.5-4.98-3.48-9.06-4.98l.54-1.2ZM1283.69,132.91c-7.56,15.9-22.8,27.42-33.78,32.7-1.62.78-2.4,1.44-2.88,1.86-.66.6-.9,1.44-1.98,1.44-2.16.06-6.42-4.02-6.42-6.18,0-1.32.42-2.46,1.26-2.94.9,2.34,2.28,3.48,4.14,3.48.78,0,1.68-.24,2.7-.66,11.28-4.86,26.88-15.6,35.7-30.36l1.26.66ZM1242.53,124.51c7.5.66,13.92,3.84,13.92,7.44,0,1.32-.96,2.04-2.16,2.04-1.08,0-2.16-1.68-3.6-3.06-1.86-1.74-4.74-3.6-8.76-5.4l.6-1.02Z"/><path d="M1305.17,122.47c.3-.96,1.68-1.98,3.06-1.98,2.88,0,7.62,1.98,7.62,4.26,0,.54-.54.9-.96,1.5-.18.3-.3.9-.36,1.74-.18,2.46-.24,7.5-.36,12.06,14.34,1.86,22.02,6.12,22.02,10.08,0,1.32-.96,2.16-1.98,2.16-1.56,0-3.18-1.44-4.68-2.82-2.52-2.4-8.52-5.76-15.36-7.68-.06,4.32-.06,8.82-.06,12.48,0,1.98.24,11.64.24,13.8,0,2.64-1.08,3.66-2.34,3.66-2.28,0-3.06-5.34-3.54-7.38.42-.6.96-1.5,1.08-2.58.48-2.82.72-6.78.72-19.86,0-5.4-.06-10.8-.24-13.56-.06-2.94-.54-5.82-4.8-5.82l-.06-.06ZM1326.47,124.99c4.74,1.8,8.16,4.92,8.16,7.56,0,1.5-.96,2.1-1.74,2.1-.84,0-1.26-.36-1.8-1.74-.72-2.04-2.22-4.74-5.52-6.84l.9-1.08ZM1332.83,121.21c4.8,1.74,8.16,4.86,8.16,7.44,0,1.56-.96,2.1-1.74,2.1-.84,0-1.26-.3-1.8-1.74-.72-2.04-2.22-4.62-5.52-6.84l.9-.96Z"/><path d="M1379.03,147.91v21.6h-2.4v-21.6h-21.6v-2.4h21.6v-21.6h2.4v21.6h21.6v2.4h-21.6Z"/><path d="M1427.33,132.97l4.32,3.9c-.48.54-1.08.72-2.4.78-2.58,11.46-7.92,23.46-19.2,31.2l-.6-.96c8.88-7.86,13.62-19.56,15.72-31.08h-14.58l-.48-1.44h14.76l2.46-2.4ZM1439.51,127.33c1.5,6.96,3.84,12.84,6.78,17.76,5.04-4.62,10.5-10.98,13.38-15.3l5.52,3.42c-.3.42-.66.6-1.26.6-.3,0-.66,0-1.14-.12-3.6,3.66-9.78,8.76-15.78,12.54,5.34,8.46,12.3,14.1,19.26,17.94l-.24.66c-1.68.18-3.12,1.44-3.78,3.3-10.26-7.5-18.54-17.94-22.74-36.9v36.42c0,3.24-.9,5.7-6.72,6.3,0-3.36-2.58-3.6-7.32-4.02v-.96h8.64c1.14,0,1.5-.42,1.5-1.38v-49.62l6.66.6c-.12.9-.42,1.32-2.76,1.62v7.14Z"/><path d="M1489.85,164.34c-.24.36-.54.6-1.08.6-.3,0-.66-.06-1.14-.24-3.78,3-10.74,6.36-17.1,8.22l-.6-.96c5.52-2.7,11.82-7.26,14.94-10.74l4.98,3.12ZM1520.45,135.43l5.22,3.72c-.48.84-1.2,1.26-2.88,1.26h-26.94l2.64,1.56c-.24.36-.54.54-1.02.54-.3,0-.6-.06-.96-.18-1.92,1.74-5.28,4.08-8.28,5.94,1.32,1.14,1.92,2.34,1.92,3.3,0,1.02-.66,1.8-1.68,1.8-.3,0-.66-.12-1.08-.3-2.04-2.7-6.6-5.76-10.14-7.2l.18-.84c4.44.24,7.44,1.2,9.48,2.34,1.92-2.1,4.02-4.74,5.58-6.96h-22.02l-.42-1.44h25.74v-5.82h-18.12l-.42-1.44h18.54v-5.7h-21.9l-.42-1.44h22.32v-6.72l6.66.6c-.06.96-.72,1.38-2.82,1.68v4.44h15.12l2.76-3.42,5.22,3.6c-.48.84-1.14,1.26-2.82,1.26h-20.28v5.7h12l2.52-3.12,4.86,3.3c-.42.9-1.08,1.26-2.76,1.26h-16.62v5.82h18.06l2.76-3.54ZM1509.89,145.45c-.3.36-.6.6-1.14.6-.3,0-.66-.06-1.14-.24-3.72,2.94-9.78,6.84-15.84,9.84,7.14,0,15.24-.12,23.7-.24-2.4-1.74-5.04-3.3-7.38-4.2l.18-.84c11.64,1.32,15.42,6,15.42,8.64,0,1.14-.66,1.92-1.68,1.92-.36,0-.78-.12-1.2-.3-.84-1.26-2.1-2.58-3.54-3.84-4.86.42-10.68.84-17.7,1.26v14.64c0,.3-1.26,1.14-3.24,1.14h-.6v-15.6c-5.88.36-12.48.72-19.92,1.08-.42.72-1.02,1.14-1.62,1.26l-2.88-4.92c3.96.06,9.96.06,17.28.06,6.12-3.9,12.96-9.48,16.56-13.5l4.74,3.24ZM1506.05,161.59c13.62,1.5,18.06,6.6,18.06,9.36,0,1.02-.66,1.74-1.74,1.74-.3,0-.72-.06-1.14-.24-3-3.66-10.14-7.98-15.3-10.02l.12-.84Z"/><path d="M357.43,225.67l-1.86,9.12h-26.1l-.78-.96c2.88-12.24,10.14-17.94,15.72-21.84,4.62-3.3,7.38-6,7.38-10.68,0-3.96-1.68-8.34-8.88-8.34-3.54,0-7.02,1.2-8.7,6.78-.48,1.8-1.26,2.34-2.58,2.34-1.08,0-1.86-.9-1.86-2.64,0-3.36,4.2-8.82,13.38-8.82,10.86,0,13.74,6.24,13.74,10.86,0,5.22-3.66,8.94-7.32,11.4-7.86,5.34-14.22,9.6-16.98,18.18h16.98c3.9,0,4.5-.66,5.88-5.7l1.98.3Z"/><path d="M392.23,202.03c-1.38-6.96-2.1-10.2-9.18-10.2-9.12,0-13.44,7.98-13.44,20.1,0,19.08,9.48,21.06,12.84,21.06,6.36,0,9.6-4.98,11.22-9.96l2.4.66c-2.58,7.92-7.74,12-14.22,12-5.22,0-9.42-1.92-12.36-5.28-3.54-4.26-5.16-10.14-5.16-18.24,0-15.12,7.44-22.68,18.6-22.68,2.52,0,5.22.12,10.08,2.04.42,3.42.9,6.9,1.56,10.02l-2.34.48Z"/><path d="M440.83,192.31c-4.44,0-4.8.36-4.8,4.68v31.2c0,4.32.36,4.68,4.8,4.68v1.92h-13.98v-1.92c3.9,0,4.2-.36,4.2-4.62v-15.36h-20.58v15.36c0,4.26.3,4.62,4.2,4.62v1.92h-13.98v-1.92c4.38,0,4.74-.36,4.74-4.68v-31.2c0-4.32-.36-4.68-4.74-4.68v-1.92h13.98v1.92c-3.9,0-4.2.3-4.2,4.56v13.56h20.58v-13.5c0-4.32-.3-4.62-4.2-4.62v-1.92h13.98v1.92Z"/><path d="M452.35,219.73c1.62,0,3.18-.24,4.26-.6,1.02-.3,2.04-.78,2.76-1.62.72-.9.96-1.92.96-3.06,0-1.08-.36-2.4-1.26-3.24-.96-.84-2.34-1.2-4.08-1.2-1.32,0-2.46.24-3.42.96-.78.54-1.26,1.32-1.8,2.58-.54,1.2-1.2,1.68-1.98,1.68-.9,0-1.5-.66-1.5-1.68,0-1.14.84-2.7,2.88-3.84,1.56-.9,3.42-1.5,6.06-1.5,3.18,0,5.7.66,7.14,1.86,1.32,1.08,1.98,2.58,1.98,4.44,0,1.44-.78,2.88-1.98,3.9-1.32,1.08-3.18,1.62-5.4,1.92v.18c2.34.24,4.5.78,6.06,1.92,1.74,1.26,2.46,3.12,2.46,5.04s-.72,4.02-2.64,5.58c-1.5,1.2-3.72,2.16-7.92,2.16-2.28,0-4.56-.36-6.48-1.5-1.8-1.08-2.76-2.64-2.76-3.96,0-1.2.6-1.86,1.56-1.86.6,0,1.2.36,1.5.9.36.48.6,1.14,1.02,1.86.78,1.38,2.34,2.7,5.16,2.7,2.1,0,3.66-.42,4.8-1.5,1.08-1.02,1.62-2.52,1.62-4.38,0-1.32-.42-2.52-1.2-3.54-.84-1.08-2.22-1.8-3.84-2.22-1.08-.24-2.4-.3-3.96-.3v-1.68Z"/><path d="M471.19,212.59c0-16.2,7.68-23.1,18.66-23.1,11.88,0,18.66,7.98,18.66,23.1s-6.72,23.1-18.66,23.1c-14.28,0-18.66-10.98-18.66-23.1ZM480.43,196.15c-2.46,3.12-4.02,8.1-4.02,16.44,0,6.96,1.32,12.66,3.96,16.32,2.16,2.7,5.7,4.44,9.42,4.44s7.2-1.74,9.42-4.44c2.64-3.66,3.96-9.36,3.96-16.32,0-8.34-1.5-13.32-3.96-16.44-2.4-3-5.76-4.32-9.36-4.32s-7.14,1.5-9.42,4.32Z"/><path d="M553.57,192.31c-4.44,0-4.8.36-4.8,4.68v31.2c0,4.32.36,4.68,4.8,4.68v1.92h-13.98v-1.92c3.9,0,4.2-.36,4.2-4.62v-15.36h-20.58v15.36c0,4.26.3,4.62,4.2,4.62v1.92h-13.98v-1.92c4.38,0,4.74-.36,4.74-4.68v-31.2c0-4.32-.36-4.68-4.74-4.68v-1.92h13.98v1.92c-3.9,0-4.2.3-4.2,4.56v13.56h20.58v-13.5c0-4.32-.3-4.62-4.2-4.62v-1.92h13.98v1.92Z"/><path d="M589.63,205.51v11.94h12.24v3h-12.24v12.66h-3v-12.66h-12.18v-3h12.18v-11.94h3Z"/><path d="M653.41,225.67l-1.86,9.12h-26.1l-.78-.96c2.88-12.24,10.14-17.94,15.72-21.84,4.62-3.3,7.38-6,7.38-10.68,0-3.96-1.68-8.34-8.88-8.34-3.54,0-7.02,1.2-8.7,6.78-.48,1.8-1.26,2.34-2.58,2.34-1.08,0-1.86-.9-1.86-2.64,0-3.36,4.2-8.82,13.38-8.82,10.86,0,13.74,6.24,13.74,10.86,0,5.22-3.66,8.94-7.32,11.4-7.86,5.34-14.22,9.6-16.98,18.18h16.98c3.9,0,4.5-.66,5.88-5.7l1.98.3Z"/><path d="M669.25,190.39l21.54,37.98h.12v-31.38c0-4.32-.48-4.68-4.86-4.68v-1.92h12v1.92c-4.02,0-4.5.36-4.5,4.68v38.34h-3.72l-22.86-40.02h-.12v32.88c0,4.32.42,4.68,4.62,4.68v1.92h-12v-1.92c4.32,0,4.74-.36,4.74-4.68v-31.2c0-4.44-.36-4.68-4.8-4.68v-1.92h9.84Z"/><path d="M721.03,212.77c0-4.38-1.68-6.72-6.12-6.72-3.6,0-5.58,1.74-6.84,4.8-.36,1.02-.96,1.62-2.34,1.62s-1.92-.9-1.92-1.92c0-2.7,4.02-6.6,11.4-6.6,6.06,0,10.5,2.04,10.5,9.42v15.42c0,3,.66,4.44,2.04,4.44.72,0,1.32-.18,1.8-.48l.48,1.56c-1.14.54-2.34.84-4.14.84-2.46,0-3.84-1.14-4.5-3.42h-.18c-2.34,2.22-5.16,3.78-9.66,3.78s-9.06-2.46-9.06-7.74c0-3.06,1.14-5.52,4.2-7.44,2.4-1.56,5.76-2.82,10.26-3.78l4.08-1.02v-2.76ZM721.03,217.63c-10.26,2.7-13.62,5.46-13.62,9.54,0,3.72,2.28,5.76,6.12,5.76,3.36,0,5.76-1.74,7.5-3.48v-11.82Z"/><path d="M749.77,213.19v-2.4h49.62c-3.96-3-8.46-7.32-11.64-11.64l1.92-1.56c4.08,5.58,10.2,10.92,15.66,14.4-5.46,3.48-11.58,8.82-15.66,14.4l-1.92-1.56c3.18-4.32,7.68-8.64,11.64-11.64h-49.62Z"/><path d="M856.75,225.67l-1.86,9.12h-26.1l-.78-.96c2.88-12.24,10.14-17.94,15.72-21.84,4.62-3.3,7.38-6,7.38-10.68,0-3.96-1.68-8.34-8.88-8.34-3.54,0-7.02,1.2-8.7,6.78-.48,1.8-1.26,2.34-2.58,2.34-1.08,0-1.86-.9-1.86-2.64,0-3.36,4.2-8.82,13.38-8.82,10.86,0,13.74,6.24,13.74,10.86,0,5.22-3.66,8.94-7.32,11.4-7.86,5.34-14.22,9.6-16.98,18.18h16.98c3.9,0,4.5-.66,5.88-5.7l1.98.3Z"/><path d="M891.55,202.03c-1.38-6.96-2.1-10.2-9.18-10.2-9.12,0-13.44,7.98-13.44,20.1,0,19.08,9.48,21.06,12.84,21.06,6.36,0,9.6-4.98,11.22-9.96l2.4.66c-2.58,7.92-7.74,12-14.22,12-5.22,0-9.42-1.92-12.36-5.28-3.54-4.26-5.16-10.14-5.16-18.24,0-15.12,7.44-22.68,18.6-22.68,2.52,0,5.22.12,10.08,2.04.42,3.42.9,6.9,1.56,10.02l-2.34.48Z"/><path d="M940.15,192.31c-4.44,0-4.8.36-4.8,4.68v31.2c0,4.32.36,4.68,4.8,4.68v1.92h-13.98v-1.92c3.9,0,4.2-.36,4.2-4.62v-15.36h-20.58v15.36c0,4.26.3,4.62,4.2,4.62v1.92h-13.98v-1.92c4.38,0,4.74-.36,4.74-4.68v-31.2c0-4.32-.36-4.68-4.74-4.68v-1.92h13.98v1.92c-3.9,0-4.2.3-4.2,4.56v13.56h20.58v-13.5c0-4.32-.3-4.62-4.2-4.62v-1.92h13.98v1.92Z"/><path d="M951.67,219.73c1.62,0,3.18-.24,4.26-.6,1.02-.3,2.04-.78,2.76-1.62.72-.9.96-1.92.96-3.06,0-1.08-.36-2.4-1.26-3.24-.96-.84-2.34-1.2-4.08-1.2-1.32,0-2.46.24-3.42.96-.78.54-1.26,1.32-1.8,2.58-.54,1.2-1.2,1.68-1.98,1.68-.9,0-1.5-.66-1.5-1.68,0-1.14.84-2.7,2.88-3.84,1.56-.9,3.42-1.5,6.06-1.5,3.18,0,5.7.66,7.14,1.86,1.32,1.08,1.98,2.58,1.98,4.44,0,1.44-.78,2.88-1.98,3.9-1.32,1.08-3.18,1.62-5.4,1.92v.18c2.34.24,4.5.78,6.06,1.92,1.74,1.26,2.46,3.12,2.46,5.04s-.72,4.02-2.64,5.58c-1.5,1.2-3.72,2.16-7.92,2.16-2.28,0-4.56-.36-6.48-1.5-1.8-1.08-2.76-2.64-2.76-3.96,0-1.2.6-1.86,1.56-1.86.6,0,1.2.36,1.5.9.36.48.6,1.14,1.02,1.86.78,1.38,2.34,2.7,5.16,2.7,2.1,0,3.66-.42,4.8-1.5,1.08-1.02,1.62-2.52,1.62-4.38,0-1.32-.42-2.52-1.2-3.54-.84-1.08-2.22-1.8-3.84-2.22-1.08-.24-2.4-.3-3.96-.3v-1.68Z"/><path d="M970.51,212.59c0-16.2,7.68-23.1,18.66-23.1,11.88,0,18.66,7.98,18.66,23.1s-6.72,23.1-18.66,23.1c-14.28,0-18.66-10.98-18.66-23.1ZM979.75,196.15c-2.46,3.12-4.02,8.1-4.02,16.44,0,6.96,1.32,12.66,3.96,16.32,2.16,2.7,5.7,4.44,9.42,4.44s7.2-1.74,9.42-4.44c2.64-3.66,3.96-9.36,3.96-16.32,0-8.34-1.5-13.32-3.96-16.44-2.4-3-5.76-4.32-9.36-4.32s-7.14,1.5-9.42,4.32Z"/><path d="M1022.35,190.39l21.54,37.98h.12v-31.38c0-4.32-.48-4.68-4.86-4.68v-1.92h12v1.92c-4.02,0-4.5.36-4.5,4.68v38.34h-3.72l-22.86-40.02h-.12v32.88c0,4.32.42,4.68,4.62,4.68v1.92h-12v-1.92c4.32,0,4.74-.36,4.74-4.68v-31.2c0-4.44-.36-4.68-4.8-4.68v-1.92h9.84Z"/><path d="M1074.13,212.77c0-4.38-1.68-6.72-6.12-6.72-3.6,0-5.58,1.74-6.84,4.8-.36,1.02-.96,1.62-2.34,1.62s-1.92-.9-1.92-1.92c0-2.7,4.02-6.6,11.4-6.6,6.06,0,10.5,2.04,10.5,9.42v15.42c0,3,.66,4.44,2.04,4.44.72,0,1.32-.18,1.8-.48l.48,1.56c-1.14.54-2.34.84-4.14.84-2.46,0-3.84-1.14-4.5-3.42h-.18c-2.34,2.22-5.16,3.78-9.66,3.78s-9.06-2.46-9.06-7.74c0-3.06,1.14-5.52,4.2-7.44,2.4-1.56,5.76-2.82,10.26-3.78l4.08-1.02v-2.76ZM1074.13,217.63c-10.26,2.7-13.62,5.46-13.62,9.54,0,3.72,2.28,5.76,6.12,5.76,3.36,0,5.76-1.74,7.5-3.48v-11.82Z"/><path d="M1117.8,205.51v11.94h12.24v3h-12.24v12.66h-3v-12.66h-12.18v-3h12.18v-11.94h3Z"/><path d="M1191.12,192.31c-4.44,0-4.8.36-4.8,4.68v31.2c0,4.32.36,4.68,4.8,4.68v1.92h-13.98v-1.92c3.9,0,4.2-.36,4.2-4.62v-15.36h-20.58v15.36c0,4.26.3,4.62,4.2,4.62v1.92h-13.98v-1.92c4.38,0,4.74-.36,4.74-4.68v-31.2c0-4.32-.36-4.68-4.74-4.68v-1.92h13.98v1.92c-3.9,0-4.2.3-4.2,4.56v13.56h20.58v-13.5c0-4.32-.3-4.62-4.2-4.62v-1.92h13.98v1.92Z"/><path d="M1195.92,234.12c.84-3.84,2.88-6.84,5.28-9,2.22-2.1,5.58-3.78,7.56-5.64,1.5-1.44,2.22-2.88,2.22-4.74,0-1.32-.42-2.46-1.5-3.42-.96-.78-2.28-1.14-3.96-1.14-1.26,0-2.34.3-3.18.9-.72.54-1.26,1.26-1.86,2.58-.48,1.26-1.08,1.86-2.16,1.86-1.02,0-1.62-.6-1.62-1.74,0-1.32.96-2.94,2.94-4.02,1.68-.9,3.72-1.44,6.18-1.44,2.88,0,4.86.54,6.48,1.68,1.74,1.14,2.64,2.58,2.64,4.74,0,1.92-.72,3.42-1.98,4.86-2.76,3.12-6.54,4.32-9.6,6.6-1.86,1.44-3.24,3.12-4.08,5.4h10.68c2.58,0,2.94-.18,3.72-3.12l1.62.24-1.26,6.06h-17.34l-.78-.66Z"/><path d="M82.01,379.43c0,1.02-.66,1.38-1.8,1.38-1.38,0-3.36-.48-5.64-.66-2.4-.18-5.88-.54-8.4-.66-1.02-.06-2.16-.06-3.36-.06-6.6,0-15.36.66-23.28,1.74-3.12.48-3.12,1.26-4.62,1.26-2.16,0-5.52-3.54-5.52-5.82,0-1.26.36-2.34,1.5-2.52,1.02,3.36,3.96,3.96,6.36,3.96,1.74,0,13.26-.72,15.72-.84.24-4.56.36-10.44.36-14.94,0-8.22-.3-9.3-2.04-10.56-2.16.18-4.26.36-5.76.6-2.64.36-2.82.9-4.38.9-3.12,0-5.88-2.82-5.88-4.56,0-.84.48-2.16,1.14-2.16,1.2,2.04,4.14,2.76,7.14,2.76,4.98,0,13.02-.6,18.48-1.38,4.98-.72,4.08-1.74,5.28-1.74,2.28,0,7.02,1.56,7.02,3.06,0,1.32-1.02,1.74-2.82,1.74-.96,0-5.7-.24-6.78-.24-1.74,0-5.28.24-9.06.54,1.32.84,2.58,2.1,2.58,2.88,0,1.2-.72,1.5-.72,4.86-.06,4.68-.42,12.54-.9,18.06,3.78-.18,10.74-.48,13.98-.72,1.68-.12,3-.48,3.96-1.38,4.56,1.2,7.44,2.7,7.44,4.5Z"/><path d="M93.89,365.27c11.52-9.24,17.46-21.54,17.46-24.48,0-1.5-2.7-1.92-3.6-1.92.36-1.2,1.2-1.68,2.76-1.68,2.58,0,7.2,2.16,7.2,3.84,0,.66-.66,1.02-1.14,1.38-.54.36-1.02.9-1.62,2.16-.48.96-.96,1.98-1.62,2.94.6.12,1.26.18,1.8.18,2.04,0,9.48-.48,13.08-1.02,1.32-.18,1.44-.24,1.98-.72.42-.42,1.26-1.08,1.62-1.08,1.2,0,4.92,3.48,4.92,4.32,0,.72-.6.9-1.44,1.26-.66.3-1.5.6-1.86,1.5-1.8,4.14-5.16,10.68-7.74,14.34,3.18,1.92,6.6,4.62,6.6,7.2,0,1.26-.96,2.04-2.1,2.04-1.2,0-2.22-1.44-3.12-2.4-1.02-1.14-2.64-2.34-3.78-3.3-5.82,7.2-14.94,14.46-26.52,18.72l-.9-1.2c10.02-4.74,19.02-12.48,24.3-19.8-2.82-1.92-7.2-4.26-13.08-5.94l.54-1.32c5.64.84,11.22,2.76,14.52,4.32,4.86-7.14,7.5-14.7,7.5-15.36,0-.36-.18-.42-.66-.42-2.34,0-13.32,1.86-14.58,1.86-.9,0-1.86-.3-2.52-.78-3.9,5.94-9.06,11.52-17.04,16.5l-.96-1.14Z"/><path d="M184.67,340.55c.6-1.02,1.86-1.62,3-1.62,2.94,0,7.8,2.76,7.8,5.16,0,.9-1.08,1.26-2.1,2.34-.42.42-.9,1.08-1.44,2.16-7.32,14.82-18.54,29.7-38.4,39.6l-.96-1.2c26.82-16.86,35.7-40.74,35.7-43.92,0-.9-.18-2.16-3.54-2.46l-.06-.06Z"/><path d="M247.55,360.77c3.96,0,6.3-.48,7.26-.48,2.88,0,6.6,1.02,6.6,2.52,0,1.02-1.08,1.56-3.42,1.56-1.08,0-2.34,0-3.54-.06-2.58-.12-7.26-.12-10.92-.12-7.08,0-23.04,0-25.98,1.08-.78.3-1.56.9-2.58.9-2.16,0-6.18-3.72-6.18-6.12,0-1.44.36-2.28,1.14-3l.42-.06c.66,3.18,3,3.78,9.12,3.78h28.08Z"/><path d="M277.37,349.67c.42-.9,1.8-1.86,3.12-1.86,2.46,0,6.78,1.92,6.78,3.66,0,.72-.54.96-.84,1.5-.3.42-.36.84-.48,1.62-1.56,12.78-5.64,24.36-16.02,32.52l-1.2-1.08c8.34-8.46,12.36-21.42,12.96-32.94,0-2.52-1.92-3.42-4.26-3.18l-.06-.24ZM322.85,356.63c-4.02,12.84-11.52,20.28-20.64,25.32-1.14.66-1.8,1.26-2.28,1.86-.72.9-1.08,1.74-1.74,1.74-1.26,0-3.9-2.82-3.9-4.5,0-.78.54-1.38.9-2.04.24-.54.36-1.56.42-3.3.12-3.3.18-9.78.18-16.02,0-5.4-.06-10.62-.12-13.38-.06-2.46-.18-4.32-1.44-4.86-.84-.42-1.98-.6-3.12-.48l-.06-.06c.24-1.08,1.38-2.16,3.24-2.16,2.46,0,6.78,1.68,6.78,3.78,0,.78-.42,1.2-.84,1.86-.48.6-.72,1.5-.78,2.88-.36,5.82-.42,15.66-.42,24.48v6.3c.06.3.12.42.36.42,1.02,0,15.72-6.9,22.08-22.44l1.38.6Z"/><path d="M356.87,365.03v21.6h-2.4v-21.6h-21.6v-2.4h21.6v-21.6h2.4v21.6h21.6v2.4h-21.6Z"/><path d="M420.11,345.05c0,2.52-.06,5.58-.18,8.52,3.72-.3,7.02-.36,9.06-.48,1.98-.12,3.6-.96,4.56-2.04,3.06.42,7.2,2.4,7.2,3.84,0,1.26-1.08,1.56-2.22,1.56-1.2,0-5.04-.66-8.64-.72h-1.32c-2.34,0-5.46.12-8.76.36-.48,12.72-5.16,25.86-19.86,33l-.9-1.02c11.58-7.5,16.26-20.28,16.5-31.68-4.74.36-9.48,1.02-13.5,1.56-1.56.24-2.7.54-4.08,1.02-.78.24-1.08.78-2.04.78-2.52,0-5.34-3.24-5.34-5.4,0-1.14.18-2.28,1.38-2.58.48,3.48,3.72,3.48,5.64,3.48,2.04,0,10.26-.72,18.12-1.32.18-12.42.24-14.88-4.86-14.58l-.06-.06c.54-1.2,1.86-2.04,3.18-2.04,3.3,0,7.32,1.5,7.32,3.12,0,1.26-1.2.78-1.2,2.94v1.74Z"/><path d="M463.01,339.59c.3-.96,1.68-1.98,3.06-1.98,2.88,0,7.62,1.98,7.62,4.26,0,.54-.54.9-.96,1.5-.18.3-.3.9-.36,1.74-.18,2.46-.24,7.5-.36,12.06,7.02.9,13.44,2.58,16.98,4.56,3.36,1.98,5.04,3.36,5.04,5.52,0,1.32-.96,2.16-1.98,2.16-1.56,0-3.18-1.44-4.68-2.82-2.52-2.4-8.52-5.76-15.36-7.68-.06,4.32-.06,8.82-.06,12.48,0,1.98.24,11.64.24,13.8,0,2.64-1.08,3.66-2.34,3.66-2.28,0-3.06-5.34-3.54-7.38.42-.6.96-1.5,1.08-2.58.48-2.82.72-6.78.72-19.86,0-5.4-.06-10.8-.24-13.56-.06-2.94-.54-5.82-4.8-5.82l-.06-.06Z"/><path d="M517.37,343.73c.3-.96,1.62-1.68,3-1.68,1.92,0,6.24,1.62,6.24,3.96,0,.42-.3,1.32-.6,2.16-.36,1.02-.48,2.4-.48,4.98,0,1.92.12,11.28.12,13.44,0,2.46-.42,4.62-2.1,4.62-1.86,0-2.7-2.76-2.7-5.58,0-.78.72-1.14.78-5.46.06-2.64.06-5.52.06-7.38,0-6.36-.12-8.76-4.26-8.88l-.06-.18ZM540.77,340.13c.12-.9,1.74-2.04,3-2.04,2.34,0,7.08,1.74,7.08,3.54,0,.54-.6.9-.84,1.32-.18.3-.36.9-.36,1.44v15.18c0,15.12-7.02,24.48-23.7,29.22l-.78-1.38c14.04-5.34,20.4-13.98,20.4-28.14v-8.76c0-7.08,0-10.62-4.74-10.26l-.06-.12Z"/><path d="M589.01,338.69c.6-1.02,1.56-1.8,3.3-1.8,2.52,0,6.54,1.5,6.54,3.06,0,.78-.6,1.14-.96,1.68-.6,1.02-.54,6.9-.66,8.22,3.9-.18,7.92-.36,10.2-.54,1.74-.12,3.06-.36,3.6-.84.72-.66,1.26-1.38,1.8-1.38,1.26,0,5.4,3.66,5.4,4.5,0,.72-.78.96-1.56,1.32-.54.18-1.14.54-1.32,1.44-3.36,15.66-11.46,28.38-30.96,34.5l-.72-1.26c17.22-6.9,25.02-19.86,27.54-35.28.06-.18.06-.3.06-.48,0-.54-.36-.66-1.02-.66-5.34.36-17.88,1.2-22.14,1.68-2.28.3-3.42.54-4.98.54-1.02,0-1.92-.18-2.64-.42.06,2.16,1.02,13.08,1.02,13.5,0,1.5-.36,2.4-1.8,2.4-1.68,0-2.64-2.22-3.06-5.52.48-.54.6-1.14.6-2.28,0-2.58-.48-6.96-.84-8.76-.42-1.8-1.26-3.3-3.3-4.02l-.06-.42c.72-.42,1.86-.54,2.7-.54,1.44,0,3.66,1.32,4.44,2.94,1.02.24,1.26.3,2.1.3,1.86,0,6.9-.24,11.28-.48.24-9.66-.42-11.16-3.54-11.16-.24,0-.54,0-.84.06l-.18-.3Z"/><path d="M662.57,363.47c9.18,5.22,17.52,14.7,17.52,19.5,0,2.28-.48,3.78-2.34,3.78-1.68,0-2.46-1.8-3.24-4.56-.24-.72-.48-1.56-.84-2.34-9.6,1.56-25.08,3.54-32.76,4.5-2.04.24-2.58,1.5-4.26,1.5-2.1,0-5.34-3.72-5.34-6.06,0-.84.36-1.68.9-2.34l.42-.12c.36,1.38,1.02,3.3,3.9,3.3.72,0,1.62-.06,2.7-.12,5.34-12.84,11.16-34.5,11.16-37.02,0-2.82-3.54-2.82-4.26-2.76l-.06-.18c.54-1.2,2.16-1.98,3.6-1.98,2.82,0,7.38,2.28,7.38,4.38,0,.72-.72,1.2-1.2,1.5-.48.36-.84,1.2-1.02,1.98-3.3,10.38-7.98,23.28-13.26,34.02,6.3-.3,22.08-1.5,31.26-2.34-2.46-4.56-6.96-10.38-11.16-13.56l.9-1.08Z"/><path d="M688.07,364.31v-2.4h49.62c-3.96-3-8.46-7.32-11.64-11.64l1.92-1.56c4.08,5.58,10.2,10.92,15.66,14.4-5.46,3.48-11.58,8.82-15.66,14.4l-1.92-1.56c3.18-4.32,7.68-8.64,11.64-11.64h-49.62Z"/><path d="M780.11,345.05c0,2.52-.06,5.58-.18,8.52,3.72-.3,7.02-.36,9.06-.48,1.98-.12,3.6-.96,4.56-2.04,3.06.42,7.2,2.4,7.2,3.84,0,1.26-1.08,1.56-2.22,1.56-1.2,0-5.04-.66-8.64-.72h-1.32c-2.34,0-5.46.12-8.76.36-.48,12.72-5.16,25.86-19.86,33l-.9-1.02c11.58-7.5,16.26-20.28,16.5-31.68-4.74.36-9.48,1.02-13.5,1.56-1.56.24-2.7.54-4.08,1.02-.78.24-1.08.78-2.04.78-2.52,0-5.34-3.24-5.34-5.4,0-1.14.18-2.28,1.38-2.58.48,3.48,3.72,3.48,5.64,3.48,2.04,0,10.26-.72,18.12-1.32.18-12.42.24-14.88-4.86-14.58l-.06-.06c.54-1.2,1.86-2.04,3.18-2.04,3.3,0,7.32,1.5,7.32,3.12,0,1.26-1.2.78-1.2,2.94v1.74Z"/><path d="M823.01,339.59c.3-.96,1.68-1.98,3.06-1.98,2.88,0,7.62,1.98,7.62,4.26,0,.54-.54.9-.96,1.5-.18.3-.3.9-.36,1.74-.18,2.46-.24,7.5-.36,12.06,7.02.9,13.44,2.58,16.98,4.56,3.36,1.98,5.04,3.36,5.04,5.52,0,1.32-.96,2.16-1.98,2.16-1.56,0-3.18-1.44-4.68-2.82-2.52-2.4-8.52-5.76-15.36-7.68-.06,4.32-.06,8.82-.06,12.48,0,1.98.24,11.64.24,13.8,0,2.64-1.08,3.66-2.34,3.66-2.28,0-3.06-5.34-3.54-7.38.42-.6.96-1.5,1.08-2.58.48-2.82.72-6.78.72-19.86,0-5.4-.06-10.8-.24-13.56-.06-2.94-.54-5.82-4.8-5.82l-.06-.06Z"/><path d="M877.37,343.73c.3-.96,1.62-1.68,3-1.68,1.92,0,6.24,1.62,6.24,3.96,0,.42-.3,1.32-.6,2.16-.36,1.02-.48,2.4-.48,4.98,0,1.92.12,11.28.12,13.44,0,2.46-.42,4.62-2.1,4.62-1.86,0-2.7-2.76-2.7-5.58,0-.78.72-1.14.78-5.46.06-2.64.06-5.52.06-7.38,0-6.36-.12-8.76-4.26-8.88l-.06-.18ZM900.77,340.13c.12-.9,1.74-2.04,3-2.04,2.34,0,7.08,1.74,7.08,3.54,0,.54-.6.9-.84,1.32-.18.3-.36.9-.36,1.44v15.18c0,15.12-7.02,24.48-23.7,29.22l-.78-1.38c14.04-5.34,20.4-13.98,20.4-28.14v-8.76c0-7.08,0-10.62-4.74-10.26l-.06-.12Z"/><path d="M949.01,338.69c.6-1.02,1.56-1.8,3.3-1.8,2.52,0,6.54,1.5,6.54,3.06,0,.78-.6,1.14-.96,1.68-.6,1.02-.54,6.9-.66,8.22,3.9-.18,7.92-.36,10.2-.54,1.74-.12,3.06-.36,3.6-.84.72-.66,1.26-1.38,1.8-1.38,1.26,0,5.4,3.66,5.4,4.5,0,.72-.78.96-1.56,1.32-.54.18-1.14.54-1.32,1.44-3.36,15.66-11.46,28.38-30.96,34.5l-.72-1.26c17.22-6.9,25.02-19.86,27.54-35.28.06-.18.06-.3.06-.48,0-.54-.36-.66-1.02-.66-5.34.36-17.88,1.2-22.14,1.68-2.28.3-3.42.54-4.98.54-1.02,0-1.92-.18-2.64-.42.06,2.16,1.02,13.08,1.02,13.5,0,1.5-.36,2.4-1.8,2.4-1.68,0-2.64-2.22-3.06-5.52.48-.54.6-1.14.6-2.28,0-2.58-.48-6.96-.84-8.76-.42-1.8-1.26-3.3-3.3-4.02l-.06-.42c.72-.42,1.86-.54,2.7-.54,1.44,0,3.66,1.32,4.44,2.94,1.02.24,1.26.3,2.1.3,1.86,0,6.9-.24,11.28-.48.24-9.66-.42-11.16-3.54-11.16-.24,0-.54,0-.84.06l-.18-.3Z"/><path d="M1022.57,363.47c9.18,5.22,17.52,14.7,17.52,19.5,0,2.28-.48,3.78-2.34,3.78-1.68,0-2.46-1.8-3.24-4.56-.24-.72-.48-1.56-.84-2.34-9.6,1.56-25.08,3.54-32.76,4.5-2.04.24-2.58,1.5-4.26,1.5-2.1,0-5.34-3.72-5.34-6.06,0-.84.36-1.68.9-2.34l.42-.12c.36,1.38,1.02,3.3,3.9,3.3.72,0,1.62-.06,2.7-.12,5.34-12.84,11.16-34.5,11.16-37.02,0-2.82-3.54-2.82-4.26-2.76l-.06-.18c.54-1.2,2.16-1.98,3.6-1.98,2.82,0,7.38,2.28,7.38,4.38,0,.72-.72,1.2-1.2,1.5-.48.36-.84,1.2-1.02,1.98-3.3,10.38-7.98,23.28-13.26,34.02,6.3-.3,22.08-1.5,31.26-2.34-2.46-4.56-6.96-10.38-11.16-13.56l.9-1.08Z"/><path d="M1102.01,379.43c0,1.02-.66,1.38-1.8,1.38-1.38,0-3.36-.48-5.64-.66-2.4-.18-5.88-.54-8.4-.66-1.02-.06-2.16-.06-3.36-.06-6.6,0-15.36.66-23.28,1.74-3.12.48-3.12,1.26-4.62,1.26-2.16,0-5.52-3.54-5.52-5.82,0-1.26.36-2.34,1.5-2.52,1.02,3.36,3.96,3.96,6.36,3.96,1.74,0,13.26-.72,15.72-.84.24-4.56.36-10.44.36-14.94,0-8.22-.3-9.3-2.04-10.56-2.16.18-4.26.36-5.76.6-2.64.36-2.82.9-4.38.9-3.12,0-5.88-2.82-5.88-4.56,0-.84.48-2.16,1.14-2.16,1.2,2.04,4.14,2.76,7.14,2.76,4.98,0,13.02-.6,18.48-1.38,4.98-.72,4.08-1.74,5.28-1.74,2.28,0,7.02,1.56,7.02,3.06,0,1.32-1.02,1.74-2.82,1.74-.96,0-5.7-.24-6.78-.24-1.74,0-5.28.24-9.06.54,1.32.84,2.58,2.1,2.58,2.88,0,1.2-.72,1.5-.72,4.86-.06,4.68-.42,12.54-.9,18.06,3.78-.18,10.74-.48,13.98-.72,1.68-.12,3-.48,3.96-1.38,4.56,1.2,7.44,2.7,7.44,4.5Z"/><path d="M1123.01,339.59c.3-.96,1.68-1.98,3.06-1.98,2.88,0,7.62,1.98,7.62,4.26,0,.54-.54.9-.96,1.5-.18.3-.3.9-.36,1.74-.18,2.46-.24,7.5-.36,12.06,7.02.9,13.44,2.58,16.98,4.56,3.36,1.98,5.04,3.36,5.04,5.52,0,1.32-.96,2.16-1.98,2.16-1.56,0-3.18-1.44-4.68-2.82-2.52-2.4-8.52-5.76-15.36-7.68-.06,4.32-.06,8.82-.06,12.48,0,1.98.24,11.64.24,13.8,0,2.64-1.08,3.66-2.34,3.66-2.28,0-3.06-5.34-3.54-7.38.42-.6.96-1.5,1.08-2.58.48-2.82.72-6.78.72-19.86,0-5.4-.06-10.8-.24-13.56-.06-2.94-.54-5.82-4.8-5.82l-.06-.06Z"/><path d="M1197.65,366.35c4.32-.66,8.04-1.14,11.28-1.5,3.24-.42,4.98-1.02,5.94-2.28,3.78.54,6.96,1.32,6.96,2.88s-2.58,1.56-5.94,1.56c-4.5,0-11.46.78-17.94,1.68.42,3.78,1.02,8.52,1.32,11.04.06.84.9,4.98.9,5.94,0,1.68-.42,3.36-1.8,3.36-1.8,0-2.82-2.58-3.24-4.68.42-1.02.36-2.28.42-4.08,0-2.04-.54-8.16-.78-11.1-4.32.72-14.28,2.34-17.28,3.84-1.02.48-1.56.78-2.46.78-2.1,0-5.34-2.76-5.34-4.74,0-1.44.66-1.92.9-1.92,1.02,1.68,2.46,2.4,5.04,2.4,1.14,0,2.52-.18,4.2-.42,5.04-.9,10.14-1.62,14.7-2.28-.24-3.66-.96-10.74-1.44-13.98-.24.06-9.42,1.74-10.8,2.4-.96.42-1.68,1.02-2.76,1.02-2.76,0-5.82-2.46-5.82-4.74,0-.66.24-1.32.66-1.74h.3c.9,2.04,2.22,2.58,4.62,2.58,3.06,0,9-1.02,13.5-1.8-1.02-9.18-1.56-10.68-5.04-10.68-.48,0-.96.06-1.38.12l-.12-.12c.24-1.08,1.68-2.4,3.36-2.4,2.46,0,6.6.78,6.6,2.34,0,.72-.24,1.08-.48,1.62-.18.42-.3,1.08-.3,1.92,0,.96.54,5.58.6,6.6,8.22-1.62,10.32-2.16,11.4-3.48,3.24.3,6.78.9,6.78,2.82,0,1.44-2.34,1.44-4.98,1.44-3.06,0-7.74.6-13.02,1.56l1.44,14.04Z"/><path d="M1233.05,354.47c7.8.78,14.64,3.48,14.64,7.14,0,1.26-.96,2.16-2.22,2.16-1.08,0-2.28-1.62-3.9-3.12-1.62-1.5-4.98-3.48-9.06-4.98l.54-1.2ZM1281.53,350.03c-7.56,15.9-22.8,27.42-33.78,32.7-1.62.78-2.4,1.44-2.88,1.86-.66.6-.9,1.44-1.98,1.44-2.16.06-6.42-4.02-6.42-6.18,0-1.32.42-2.46,1.26-2.94.9,2.34,2.28,3.48,4.14,3.48.78,0,1.68-.24,2.7-.66,11.28-4.86,26.88-15.6,35.7-30.36l1.26.66ZM1240.37,341.63c7.5.66,13.92,3.84,13.92,7.44,0,1.32-.96,2.04-2.16,2.04-1.08,0-2.16-1.68-3.6-3.06-1.86-1.74-4.74-3.6-8.76-5.4l.6-1.02Z"/><path d="M1303.01,339.59c.3-.96,1.68-1.98,3.06-1.98,2.88,0,7.62,1.98,7.62,4.26,0,.54-.54.9-.96,1.5-.18.3-.3.9-.36,1.74-.18,2.46-.24,7.5-.36,12.06,14.34,1.86,22.02,6.12,22.02,10.08,0,1.32-.96,2.16-1.98,2.16-1.56,0-3.18-1.44-4.68-2.82-2.52-2.4-8.52-5.76-15.36-7.68-.06,4.32-.06,8.82-.06,12.48,0,1.98.24,11.64.24,13.8,0,2.64-1.08,3.66-2.34,3.66-2.28,0-3.06-5.34-3.54-7.38.42-.6.96-1.5,1.08-2.58.48-2.82.72-6.78.72-19.86,0-5.4-.06-10.8-.24-13.56-.06-2.94-.54-5.82-4.8-5.82l-.06-.06ZM1324.31,342.11c4.74,1.8,8.16,4.92,8.16,7.56,0,1.5-.96,2.1-1.74,2.1-.84,0-1.26-.36-1.8-1.74-.72-2.04-2.22-4.74-5.52-6.84l.9-1.08ZM1330.67,338.33c4.8,1.74,8.16,4.86,8.16,7.44,0,1.56-.96,2.1-1.74,2.1-.84,0-1.26-.3-1.8-1.74-.72-2.04-2.22-4.62-5.52-6.84l.9-.96Z"/><path d="M1376.87,365.03v21.6h-2.4v-21.6h-21.6v-2.4h21.6v-21.6h2.4v21.6h21.6v2.4h-21.6Z"/><path d="M1425.17,350.09l4.32,3.9c-.48.54-1.08.72-2.4.78-2.58,11.46-7.92,23.46-19.2,31.2l-.6-.96c8.88-7.86,13.62-19.56,15.72-31.08h-14.58l-.48-1.44h14.76l2.46-2.4ZM1437.35,344.45c1.5,6.96,3.84,12.84,6.78,17.76,5.04-4.62,10.5-10.98,13.38-15.3l5.52,3.42c-.3.42-.66.6-1.26.6-.3,0-.66,0-1.14-.12-3.6,3.66-9.78,8.76-15.78,12.54,5.34,8.46,12.3,14.1,19.26,17.94l-.24.66c-1.68.18-3.12,1.44-3.78,3.3-10.26-7.5-18.54-17.94-22.74-36.9v36.42c0,3.24-.9,5.7-6.72,6.3,0-3.36-2.58-3.6-7.32-4.02v-.96h8.64c1.14,0,1.5-.42,1.5-1.38v-49.62l6.66.6c-.12.9-.42,1.32-2.76,1.62v7.14Z"/><path d="M1487.69,381.47c-.24.36-.54.6-1.08.6-.3,0-.66-.06-1.14-.24-3.78,3-10.74,6.36-17.1,8.22l-.6-.96c5.52-2.7,11.82-7.26,14.94-10.74l4.98,3.12ZM1518.29,352.55l5.22,3.72c-.48.84-1.2,1.26-2.88,1.26h-26.94l2.64,1.56c-.24.36-.54.54-1.02.54-.3,0-.6-.06-.96-.18-1.92,1.74-5.28,4.08-8.28,5.94,1.32,1.14,1.92,2.34,1.92,3.3,0,1.02-.66,1.8-1.68,1.8-.3,0-.66-.12-1.08-.3-2.04-2.7-6.6-5.76-10.14-7.2l.18-.84c4.44.24,7.44,1.2,9.48,2.34,1.92-2.1,4.02-4.74,5.58-6.96h-22.02l-.42-1.44h25.74v-5.82h-18.12l-.42-1.44h18.54v-5.7h-21.9l-.42-1.44h22.32v-6.72l6.66.6c-.06.96-.72,1.38-2.82,1.68v4.44h15.12l2.76-3.42,5.22,3.6c-.48.84-1.14,1.26-2.82,1.26h-20.28v5.7h12l2.52-3.12,4.86,3.3c-.42.9-1.08,1.26-2.76,1.26h-16.62v5.82h18.06l2.76-3.54ZM1507.73,362.57c-.3.36-.6.6-1.14.6-.3,0-.66-.06-1.14-.24-3.72,2.94-9.78,6.84-15.84,9.84,7.14,0,15.24-.12,23.7-.24-2.4-1.74-5.04-3.3-7.38-4.2l.18-.84c11.64,1.32,15.42,6,15.42,8.64,0,1.14-.66,1.92-1.68,1.92-.36,0-.78-.12-1.2-.3-.84-1.26-2.1-2.58-3.54-3.84-4.86.42-10.68.84-17.7,1.26v14.64c0,.3-1.26,1.14-3.24,1.14h-.6v-15.6c-5.88.36-12.48.72-19.92,1.08-.42.72-1.02,1.14-1.62,1.26l-2.88-4.92c3.96.06,9.96.06,17.28.06,6.12-3.9,12.96-9.48,16.56-13.5l4.74,3.24ZM1503.89,378.71c13.62,1.5,18.06,6.6,18.06,9.36,0,1.02-.66,1.74-1.74,1.74-.3,0-.72-.06-1.14-.24-3-3.66-10.14-7.98-15.3-10.02l.12-.84Z"/><path d="M355.27,442.79l-1.86,9.12h-26.1l-.78-.96c2.88-12.24,10.14-17.94,15.72-21.84,4.62-3.3,7.38-6,7.38-10.68,0-3.96-1.68-8.34-8.88-8.34-3.54,0-7.02,1.2-8.7,6.78-.48,1.8-1.26,2.34-2.58,2.34-1.08,0-1.86-.9-1.86-2.64,0-3.36,4.2-8.82,13.38-8.82,10.86,0,13.74,6.24,13.74,10.86,0,5.22-3.66,8.94-7.32,11.4-7.86,5.34-14.22,9.6-16.98,18.18h16.98c3.9,0,4.5-.66,5.88-5.7l1.98.3Z"/><path d="M390.07,419.15c-1.38-6.96-2.1-10.2-9.18-10.2-9.12,0-13.44,7.98-13.44,20.1,0,19.08,9.48,21.06,12.84,21.06,6.36,0,9.6-4.98,11.22-9.96l2.4.66c-2.58,7.92-7.74,12-14.22,12-5.22,0-9.42-1.92-12.36-5.28-3.54-4.26-5.16-10.14-5.16-18.24,0-15.12,7.44-22.68,18.6-22.68,2.52,0,5.22.12,10.08,2.04.42,3.42.9,6.9,1.56,10.02l-2.34.48Z"/><path d="M399.19,451.25c.84-3.84,2.88-6.84,5.28-9,2.22-2.1,5.58-3.78,7.56-5.64,1.5-1.44,2.22-2.88,2.22-4.74,0-1.32-.42-2.46-1.5-3.42-.96-.78-2.28-1.14-3.96-1.14-1.26,0-2.34.3-3.18.9-.72.54-1.26,1.26-1.86,2.58-.48,1.26-1.08,1.86-2.16,1.86-1.02,0-1.62-.6-1.62-1.74,0-1.32.96-2.94,2.94-4.02,1.68-.9,3.72-1.44,6.18-1.44,2.88,0,4.86.54,6.48,1.68,1.74,1.14,2.64,2.58,2.64,4.74,0,1.92-.72,3.42-1.98,4.86-2.76,3.12-6.54,4.32-9.6,6.6-1.86,1.44-3.24,3.12-4.08,5.4h10.68c2.58,0,2.94-.18,3.72-3.12l1.62.24-1.26,6.06h-17.34l-.78-.66Z"/><path d="M464.17,409.43c-4.44,0-4.8.36-4.8,4.68v31.2c0,4.32.36,4.68,4.8,4.68v1.92h-13.98v-1.92c3.9,0,4.2-.36,4.2-4.62v-15.36h-20.58v15.36c0,4.26.3,4.62,4.2,4.62v1.92h-13.98v-1.92c4.38,0,4.74-.36,4.74-4.68v-31.2c0-4.32-.36-4.68-4.74-4.68v-1.92h13.98v1.92c-3.9,0-4.2.3-4.2,4.56v13.56h20.58v-13.5c0-4.32-.3-4.62-4.2-4.62v-1.92h13.98v1.92Z"/><path d="M472.51,425.75h11.16c1.5,0,1.68-.3,1.92-.84h1.5l-.9,3.78h-11.82l-1.44,7.86h.06c1.74-1.14,3.72-1.8,6.12-1.8,5.16,0,9.36,2.76,9.36,8.28,0,6.12-4.44,9.3-10.32,9.3-2.52,0-4.98-.66-6.48-1.62-1.62-.96-2.7-2.4-2.7-3.6s.78-1.98,1.5-1.98c.66,0,1.62.3,2.04,1.38.96,2.52,3,3.96,5.76,3.96,4.32,0,6.18-3,6.18-7.14,0-4.44-2.04-6.72-6.06-6.72-2.82,0-4.98,1.26-6.24,2.76l-1.74-.54,2.1-13.08Z"/><path d="M494.59,429.71c0-16.2,7.68-23.1,18.66-23.1,11.88,0,18.66,7.98,18.66,23.1s-6.72,23.1-18.66,23.1c-14.28,0-18.66-10.98-18.66-23.1ZM503.83,413.27c-2.46,3.12-4.02,8.1-4.02,16.44,0,6.96,1.32,12.66,3.96,16.32,2.16,2.7,5.7,4.44,9.42,4.44s7.2-1.74,9.42-4.44c2.64-3.66,3.96-9.36,3.96-16.32,0-8.34-1.5-13.32-3.96-16.44-2.4-3-5.76-4.32-9.36-4.32s-7.14,1.5-9.42,4.32Z"/><path d="M576.97,409.43c-4.44,0-4.8.36-4.8,4.68v31.2c0,4.32.36,4.68,4.8,4.68v1.92h-13.98v-1.92c3.9,0,4.2-.36,4.2-4.62v-15.36h-20.58v15.36c0,4.26.3,4.62,4.2,4.62v1.92h-13.98v-1.92c4.38,0,4.74-.36,4.74-4.68v-31.2c0-4.32-.36-4.68-4.74-4.68v-1.92h13.98v1.92c-3.9,0-4.2.3-4.2,4.56v13.56h20.58v-13.5c0-4.32-.3-4.62-4.2-4.62v-1.92h13.98v1.92Z"/><path d="M613.03,422.63v11.94h12.24v3h-12.24v12.66h-3v-12.66h-12.18v-3h12.18v-11.94h3Z"/><path d="M676.81,442.79l-1.86,9.12h-26.1l-.78-.96c2.88-12.24,10.14-17.94,15.72-21.84,4.62-3.3,7.38-6,7.38-10.68,0-3.96-1.68-8.34-8.88-8.34-3.54,0-7.02,1.2-8.7,6.78-.48,1.8-1.26,2.34-2.58,2.34-1.08,0-1.86-.9-1.86-2.64,0-3.36,4.2-8.82,13.38-8.82,10.86,0,13.74,6.24,13.74,10.86,0,5.22-3.66,8.94-7.32,11.4-7.86,5.34-14.22,9.6-16.98,18.18h16.98c3.9,0,4.5-.66,5.88-5.7l1.98.3Z"/><path d="M692.65,407.51l21.54,37.98h.12v-31.38c0-4.32-.48-4.68-4.86-4.68v-1.92h12v1.92c-4.02,0-4.5.36-4.5,4.68v38.34h-3.72l-22.86-40.02h-.12v32.88c0,4.32.42,4.68,4.62,4.68v1.92h-12v-1.92c4.32,0,4.74-.36,4.74-4.68v-31.2c0-4.44-.36-4.68-4.8-4.68v-1.92h9.84Z"/><path d="M744.43,429.89c0-4.38-1.68-6.72-6.12-6.72-3.6,0-5.58,1.74-6.84,4.8-.36,1.02-.96,1.62-2.34,1.62s-1.92-.9-1.92-1.92c0-2.7,4.02-6.6,11.4-6.6,6.06,0,10.5,2.04,10.5,9.42v15.42c0,3,.66,4.44,2.04,4.44.72,0,1.32-.18,1.8-.48l.48,1.56c-1.14.54-2.34.84-4.14.84-2.46,0-3.84-1.14-4.5-3.42h-.18c-2.34,2.22-5.16,3.78-9.66,3.78s-9.06-2.46-9.06-7.74c0-3.06,1.14-5.52,4.2-7.44,2.4-1.56,5.76-2.82,10.26-3.78l4.08-1.02v-2.76ZM744.43,434.75c-10.26,2.7-13.62,5.46-13.62,9.54,0,3.72,2.28,5.76,6.12,5.76,3.36,0,5.76-1.74,7.5-3.48v-11.82Z"/><path d="M773.17,430.31v-2.4h49.62c-3.96-3-8.46-7.32-11.64-11.64l1.92-1.56c4.08,5.58,10.2,10.92,15.66,14.4-5.46,3.48-11.58,8.82-15.66,14.4l-1.92-1.56c3.18-4.32,7.68-8.64,11.64-11.64h-49.62Z"/><path d="M880.15,442.79l-1.86,9.12h-26.1l-.78-.96c2.88-12.24,10.14-17.94,15.72-21.84,4.62-3.3,7.38-6,7.38-10.68,0-3.96-1.68-8.34-8.88-8.34-3.54,0-7.02,1.2-8.7,6.78-.48,1.8-1.26,2.34-2.58,2.34-1.08,0-1.86-.9-1.86-2.64,0-3.36,4.2-8.82,13.38-8.82,10.86,0,13.74,6.24,13.74,10.86,0,5.22-3.66,8.94-7.32,11.4-7.86,5.34-14.22,9.6-16.98,18.18h16.98c3.9,0,4.5-.66,5.88-5.7l1.98.3Z"/><path d="M914.95,419.15c-1.38-6.96-2.1-10.2-9.18-10.2-9.12,0-13.44,7.98-13.44,20.1,0,19.08,9.48,21.06,12.84,21.06,6.36,0,9.6-4.98,11.22-9.96l2.4.66c-2.58,7.92-7.74,12-14.22,12-5.22,0-9.42-1.92-12.36-5.28-3.54-4.26-5.16-10.14-5.16-18.24,0-15.12,7.44-22.68,18.6-22.68,2.52,0,5.22.12,10.08,2.04.42,3.42.9,6.9,1.56,10.02l-2.34.48Z"/><path d="M924.07,451.25c.84-3.84,2.88-6.84,5.28-9,2.22-2.1,5.58-3.78,7.56-5.64,1.5-1.44,2.22-2.88,2.22-4.74,0-1.32-.42-2.46-1.5-3.42-.96-.78-2.28-1.14-3.96-1.14-1.26,0-2.34.3-3.18.9-.72.54-1.26,1.26-1.86,2.58-.48,1.26-1.08,1.86-2.16,1.86-1.02,0-1.62-.6-1.62-1.74,0-1.32.96-2.94,2.94-4.02,1.68-.9,3.72-1.44,6.18-1.44,2.88,0,4.86.54,6.48,1.68,1.74,1.14,2.64,2.58,2.64,4.74,0,1.92-.72,3.42-1.98,4.86-2.76,3.12-6.54,4.32-9.6,6.6-1.86,1.44-3.24,3.12-4.08,5.4h10.68c2.58,0,2.94-.18,3.72-3.12l1.62.24-1.26,6.06h-17.34l-.78-.66Z"/><path d="M989.05,409.43c-4.44,0-4.8.36-4.8,4.68v31.2c0,4.32.36,4.68,4.8,4.68v1.92h-13.98v-1.92c3.9,0,4.2-.36,4.2-4.62v-15.36h-20.58v15.36c0,4.26.3,4.62,4.2,4.62v1.92h-13.98v-1.92c4.38,0,4.74-.36,4.74-4.68v-31.2c0-4.32-.36-4.68-4.74-4.68v-1.92h13.98v1.92c-3.9,0-4.2.3-4.2,4.56v13.56h20.58v-13.5c0-4.32-.3-4.62-4.2-4.62v-1.92h13.98v1.92Z"/><path d="M997.39,425.75h11.16c1.5,0,1.68-.3,1.92-.84h1.5l-.9,3.78h-11.82l-1.44,7.86h.06c1.74-1.14,3.72-1.8,6.12-1.8,5.16,0,9.36,2.76,9.36,8.28,0,6.12-4.44,9.3-10.32,9.3-2.52,0-4.98-.66-6.48-1.62-1.62-.96-2.7-2.4-2.7-3.6s.78-1.98,1.5-1.98c.66,0,1.62.3,2.04,1.38.96,2.52,3,3.96,5.76,3.96,4.32,0,6.18-3,6.18-7.14,0-4.44-2.04-6.72-6.06-6.72-2.82,0-4.98,1.26-6.24,2.76l-1.74-.54,2.1-13.08Z"/><path d="M1019.47,429.71c0-16.2,7.68-23.1,18.66-23.1,11.88,0,18.66,7.98,18.66,23.1s-6.72,23.1-18.66,23.1c-14.28,0-18.66-10.98-18.66-23.1ZM1028.71,413.27c-2.46,3.12-4.02,8.1-4.02,16.44,0,6.96,1.32,12.66,3.96,16.32,2.16,2.7,5.7,4.44,9.42,4.44s7.2-1.74,9.42-4.44c2.64-3.66,3.96-9.36,3.96-16.32,0-8.34-1.5-13.32-3.96-16.44-2.4-3-5.76-4.32-9.36-4.32s-7.14,1.5-9.42,4.32Z"/><path d="M1071.3,407.51l21.54,37.98h.12v-31.38c0-4.32-.48-4.68-4.86-4.68v-1.92h12v1.92c-4.02,0-4.5.36-4.5,4.68v38.34h-3.72l-22.86-40.02h-.12v32.88c0,4.32.42,4.68,4.62,4.68v1.92h-12v-1.92c4.32,0,4.74-.36,4.74-4.68v-31.2c0-4.44-.36-4.68-4.8-4.68v-1.92h9.84Z"/><path d="M1123.08,429.89c0-4.38-1.68-6.72-6.12-6.72-3.6,0-5.58,1.74-6.84,4.8-.36,1.02-.96,1.62-2.34,1.62s-1.92-.9-1.92-1.92c0-2.7,4.02-6.6,11.4-6.6,6.06,0,10.5,2.04,10.5,9.42v15.42c0,3,.66,4.44,2.04,4.44.72,0,1.32-.18,1.8-.48l.48,1.56c-1.14.54-2.34.84-4.14.84-2.46,0-3.84-1.14-4.5-3.42h-.18c-2.34,2.22-5.16,3.78-9.66,3.78s-9.06-2.46-9.06-7.74c0-3.06,1.14-5.52,4.2-7.44,2.4-1.56,5.76-2.82,10.26-3.78l4.08-1.02v-2.76ZM1123.08,434.75c-10.26,2.7-13.62,5.46-13.62,9.54,0,3.72,2.28,5.76,6.12,5.76,3.36,0,5.76-1.74,7.5-3.48v-11.82Z"/><path d="M1166.76,422.63v11.94h12.24v3h-12.24v12.66h-3v-12.66h-12.18v-3h12.18v-11.94h3Z"/><path d="M1240.08,409.43c-4.44,0-4.8.36-4.8,4.68v31.2c0,4.32.36,4.68,4.8,4.68v1.92h-13.98v-1.92c3.9,0,4.2-.36,4.2-4.62v-15.36h-20.58v15.36c0,4.26.3,4.62,4.2,4.62v1.92h-13.98v-1.92c4.38,0,4.74-.36,4.74-4.68v-31.2c0-4.32-.36-4.68-4.74-4.68v-1.92h13.98v1.92c-3.9,0-4.2.3-4.2,4.56v13.56h20.58v-13.5c0-4.32-.3-4.62-4.2-4.62v-1.92h13.98v1.92Z"/><path d="M1244.88,451.25c.84-3.84,2.88-6.84,5.28-9,2.22-2.1,5.58-3.78,7.56-5.64,1.5-1.44,2.22-2.88,2.22-4.74,0-1.32-.42-2.46-1.5-3.42-.96-.78-2.28-1.14-3.96-1.14-1.26,0-2.34.3-3.18.9-.72.54-1.26,1.26-1.86,2.58-.48,1.26-1.08,1.86-2.16,1.86-1.02,0-1.62-.6-1.62-1.74,0-1.32.96-2.94,2.94-4.02,1.68-.9,3.72-1.44,6.18-1.44,2.88,0,4.86.54,6.48,1.68,1.74,1.14,2.64,2.58,2.64,4.74,0,1.92-.72,3.42-1.98,4.86-2.76,3.12-6.54,4.32-9.6,6.6-1.86,1.44-3.24,3.12-4.08,5.4h10.68c2.58,0,2.94-.18,3.72-3.12l1.62.24-1.26,6.06h-17.34l-.78-.66Z"/></g></svg>