<?xml version="1.0" encoding="UTF-8"?><svg id="_レイヤー_1" xmlns="http://www.w3.org/2000/svg" viewBox="0 0 1069.44 487.5"><rect x=".5" y=".5" width="1068.44" height="486.5" style="fill:#e6e6e6;"/><path d="M1068.44,1v485.5H1V1h1067.44M1069.44,0H0v487.5h1069.44V0h0Z"/><g style="isolation:isolate;"><path d="M143.6,90.74c3.2,1.39,6.56,3.09,9.65,4.9,2.18-3.26,4.42-7.55,6.12-11.86l3.33,1.36c-.14.31-.61.48-1.22.41-1.56,3.6-3.77,7.89-6.05,11.35,2.62,1.63,5.34,3.47,7.41,5.24l-1.63,2.14c-1.87-1.63-4.42-3.5-7.24-5.3-3.5,5-8.6,10.06-14.38,13.9-.41-.51-1.36-1.33-1.94-1.7,5.68-3.67,10.88-8.74,14.24-13.43-3.09-1.83-6.39-3.57-9.59-5l1.29-2.01Z" style="fill:#0f172a;"/><path d="M193.72,89.25c-.03.17-.2.31-.41.37-1.26,4.22-2.96,8.09-5,11.25,1.46.85,3.13,1.9,4.39,2.82l-1.43,2.24c-1.22-.95-2.96-2.07-4.39-2.96-3.13,4.35-7.14,7.85-12.27,10.33-.37-.58-1.26-1.39-1.87-1.77,4.96-2.31,8.94-5.75,12.03-9.79-2.52-1.39-5-2.58-7.51-3.54l1.29-1.9c2.48.88,5.03,2.04,7.65,3.43,1.77-2.79,3.16-5.75,4.11-9.01h-11.52c-2.07,3.47-4.86,6.9-7.85,9.35-.44-.41-1.36-1.16-1.94-1.53,4.45-3.4,8.67-9.52,10.71-15.33l3.23.75c-.14.37-.48.48-.92.44-.48,1.12-1.26,2.79-1.9,4.05h11.29l.48-.14,1.84.92Z" style="fill:#0f172a;"/><path d="M222.99,85.34c-.17.34-.54.44-.95.41-5.17,12.75-13.56,21.79-23.02,27.09-.41-.51-1.22-1.33-1.9-1.8,9.25-5.1,17.68-13.87,22.54-26.96l3.33,1.26Z" style="fill:#0f172a;"/><path d="M228.27,96.52h28.39v2.41h-27.1c-.2.34-.65.58-1.09.65l-.2-3.06Z" style="fill:#0f172a;"/><path d="M269.71,88.84c-.03.31-.34.51-.78.58-.2,9.15-.95,17.47-6.19,23.56-.54-.41-1.36-.92-2.04-1.29,5.07-5.51,5.68-14.01,5.78-23.15l3.23.31ZM278.52,108.42c5.68-2.75,9.35-7.72,11.32-13.67.51.44,1.53,1.02,2.11,1.33-2.41,6.87-6.63,11.93-13.87,15.37-.1.27-.34.54-.58.68l-1.77-2.24.37-.51v-24.95l3.16.17c-.03.31-.27.58-.75.65v23.19Z" style="fill:#0f172a;"/><path d="M310.04,107.47v-7h-6.77v-2.41h6.77v-7.04h2.45v7.04h6.77v2.41h-6.77v7h-2.45Z" style="fill:#0f172a;"/><path d="M359.4,94.93h-12.31c-.65,8.74-2.86,14.04-10.27,18.29-.48-.54-1.29-1.19-1.94-1.67,7.04-3.91,9.11-8.57,9.76-16.62h-13.63v-2.35h13.73c.1-2.65.14-5.71.14-9.15l3.33.2c-.03.34-.34.54-.82.61-.03,3.09-.03,5.85-.17,8.33h12.17v2.35Z" style="fill:#0f172a;"/><path d="M383.03,101.59c-3.47-1.87-8.23-4.08-11.93-5.54v17h-2.55v-29.54l3.43.2c-.03.37-.31.61-.88.71v9.93l.51-.71c3.98,1.46,9.25,3.81,12.78,5.68l-1.36,2.28Z" style="fill:#0f172a;"/><path d="M392.83,102.3v-16.52l3.23.2c-.03.31-.27.54-.82.61v15.71h-2.41ZM411.76,84.46c-.03.34-.27.51-.82.58v10.81c0,7.14-2.45,13.67-12.21,17.44-.34-.51-1.19-1.39-1.77-1.84,9.42-3.5,11.52-9.32,11.52-15.6v-11.59l3.26.2Z" style="fill:#0f172a;"/><path d="M429.95,83.33l3.4.2c-.03.34-.44.65-.95.68v5.34h9.11l.51-.2,2.11.95c-.07.14-.24.27-.37.37-1.56,11.9-6.49,18.8-17.27,22.57-.34-.58-1.05-1.46-1.6-2.04,10.1-3.47,14.75-9.79,15.91-19.34h-19.21v8.43h-2.35v-10.74h10.71v-6.22Z" style="fill:#0f172a;"/><path d="M475.1,112.23c-.51-1.16-1.12-2.38-1.8-3.6-7.07.75-18.7,1.46-23.9,1.73-.1.34-.34.61-.65.68l-.92-3.06c1.02-.03,2.24-.07,3.57-.14,2.24-6.53,5.47-16.69,7.34-23.49l3.3.88c-.14.31-.48.48-.99.48-1.87,6.25-4.79,15.37-7.14,22.03,5.64-.24,13.7-.82,18.19-1.22-1.77-2.92-4.01-6.02-6.05-8.29l2.04-1.16c3.57,3.91,7.65,10.37,9.38,14.08l-2.38,1.09Z" style="fill:#0f172a;"/><path d="M488.71,99.38v-2.11h26.62c-1.8-1.36-4.11-3.57-5.71-5.71l1.84-1.12c2.31,2.99,5.68,5.95,8.7,7.89-3.03,1.94-6.39,4.9-8.7,7.89l-1.84-1.12c1.6-2.14,3.91-4.35,5.71-5.71h-26.62Z" style="fill:#0f172a;"/><path d="M560,94.93h-12.31c-.65,8.74-2.86,14.04-10.27,18.29-.48-.54-1.29-1.19-1.94-1.67,7.04-3.91,9.11-8.57,9.76-16.62h-13.63v-2.35h13.73c.1-2.65.14-5.71.14-9.15l3.33.2c-.03.34-.34.54-.82.61-.03,3.09-.03,5.85-.17,8.33h12.17v2.35Z" style="fill:#0f172a;"/><path d="M583.63,101.59c-3.47-1.87-8.23-4.08-11.93-5.54v17h-2.55v-29.54l3.43.2c-.03.37-.31.61-.88.71v9.93l.51-.71c3.98,1.46,9.25,3.81,12.78,5.68l-1.36,2.28Z" style="fill:#0f172a;"/><path d="M593.43,102.3v-16.52l3.23.2c-.03.31-.27.54-.82.61v15.71h-2.41ZM612.36,84.46c-.03.34-.27.51-.82.58v10.81c0,7.14-2.45,13.67-12.2,17.44-.34-.51-1.19-1.39-1.77-1.84,9.42-3.5,11.53-9.32,11.53-15.6v-11.59l3.26.2Z" style="fill:#0f172a;"/><path d="M630.55,83.33l3.4.2c-.03.34-.44.65-.95.68v5.34h9.11l.51-.2,2.11.95c-.07.14-.24.27-.37.37-1.56,11.9-6.49,18.8-17.27,22.57-.34-.58-1.05-1.46-1.6-2.04,10.1-3.47,14.75-9.79,15.91-19.34h-19.21v8.43h-2.35v-10.74h10.71v-6.22Z" style="fill:#0f172a;"/><path d="M675.71,112.23c-.51-1.16-1.12-2.38-1.8-3.6-7.07.75-18.7,1.46-23.9,1.73-.1.34-.34.61-.65.68l-.92-3.06c1.02-.03,2.24-.07,3.57-.14,2.24-6.53,5.47-16.69,7.34-23.49l3.3.88c-.14.31-.48.48-.99.48-1.87,6.25-4.79,15.37-7.14,22.03,5.64-.24,13.7-.82,18.19-1.22-1.77-2.92-4.01-6.02-6.05-8.29l2.04-1.16c3.57,3.91,7.65,10.37,9.38,14.08l-2.38,1.09Z" style="fill:#0f172a;"/><path d="M687.17,90.74c3.2,1.39,6.56,3.09,9.65,4.9,2.18-3.26,4.42-7.55,6.12-11.86l3.33,1.36c-.14.31-.61.48-1.22.41-1.56,3.6-3.77,7.89-6.05,11.35,2.62,1.63,5.34,3.47,7.41,5.24l-1.63,2.14c-1.87-1.63-4.42-3.5-7.24-5.3-3.5,5-8.6,10.06-14.38,13.9-.41-.51-1.36-1.33-1.94-1.7,5.68-3.67,10.88-8.74,14.24-13.43-3.09-1.83-6.39-3.57-9.59-5l1.29-2.01Z" style="fill:#0f172a;"/><path d="M732.55,101.59c-3.47-1.87-8.23-4.08-11.93-5.54v17h-2.55v-29.54l3.43.2c-.03.37-.31.61-.88.71v9.93l.51-.71c3.98,1.46,9.25,3.81,12.78,5.68l-1.36,2.28Z" style="fill:#0f172a;"/><path d="M755.51,102.2l1.22,10.67-2.45.27-1.19-10.64-12.75,1.63-.31-2.24,12.82-1.63-.88-7.65-10.68,1.39-.31-2.28,10.71-1.36-.75-6.73,3.33-.14c0,.34-.31.61-.78.75l.61,5.78,10.33-1.36.27,2.31-10.33,1.33.88,7.62,12.78-1.6.31,2.24-12.85,1.63Z" style="fill:#0f172a;"/><path d="M773.87,93.26c3.06.68,6.87,1.97,9.15,3.06l-1.02,2.14c-2.24-1.09-6.15-2.45-9.15-3.13l1.02-2.07ZM775.91,109.89c11.05-3.71,18.6-9.59,23.12-19.79.51.44,1.56,1.16,2.07,1.5-4.56,10.1-12.48,16.39-22.88,20.09.07.31-.1.71-.41.85l-1.9-2.65ZM777.61,84.83c3.06.82,6.8,2.18,9.11,3.33l-1.12,2.07c-2.41-1.22-5.95-2.58-9.01-3.43l1.02-1.97Z" style="fill:#0f172a;"/><path d="M825.72,101.62c-3.47-1.87-8.23-4.08-11.93-5.54v16.96h-2.55v-29.54l3.43.2c-.03.37-.31.61-.88.71v10l.51-.75c3.98,1.46,9.25,3.81,12.78,5.68l-1.36,2.28ZM822.15,85.61c1.56,1.29,3.6,3.43,4.69,5l-1.29,1.05c-1.02-1.46-3.09-3.74-4.62-4.96l1.22-1.09ZM826.7,82.69c1.6,1.33,3.64,3.47,4.66,4.96l-1.22,1.05c-1.05-1.46-3.13-3.71-4.66-4.96l1.22-1.05Z" style="fill:#0f172a;"/><path d="M849.18,107.47v-7h-6.77v-2.41h6.77v-7.04h2.45v7.04h6.77v2.41h-6.77v7h-2.45Z" style="fill:#0f172a;"/><path d="M880.83,91.53l1.63.75c-.07.14-.2.31-.37.41-1.77,8.57-5.95,14.89-11.01,18.32-.41-.58-1.29-1.46-1.84-1.84,4.59-2.86,8.4-8.12,10.13-15.23h-9.21v-2.31h10.27l.41-.1ZM886.61,88.87c.75,2.82,1.77,5.54,2.99,8.06,2.86-2.41,6.32-5.98,8.43-8.74l2.41,1.8c-.17.2-.48.24-.75.2-2.35,2.58-6.15,6.22-9.11,8.6,2.72,4.76,6.36,8.6,11.01,10.57-.58.48-1.36,1.39-1.77,2.07-6.19-2.96-10.44-9.01-13.22-16.39v15.74c0,3.09-1.43,3.37-7.82,3.37-.14-.68-.58-1.84-.95-2.48,1.29.03,2.48.03,3.43.03,2.86,0,2.96,0,2.96-.92v-28.18l3.06.17c-.03.27-.2.44-.68.48v5.61Z" style="fill:#0f172a;"/><path d="M920.47,93.84h14.55v1.84h-16.45l.34.17c-.14.2-.37.27-.75.24-1.29,1.19-3.3,2.86-5,4.08,1.12.65,2.18,1.33,2.99,1.94,2.65-1.83,5.34-3.94,7.17-5.64l2.38,1.39c-.14.17-.41.24-.75.24-2.35,1.9-5.75,4.32-8.87,6.22,3.81-.03,7.99-.1,12.1-.17-1.39-.88-2.86-1.7-4.22-2.38,1.19-.95,1.36-1.12,1.5-1.29,3.13,1.46,6.93,3.77,8.87,5.58l-1.6,1.46c-.54-.54-1.29-1.16-2.14-1.77-3.37.14-6.8.24-10.13.31v8.09h-2.28v-8.02c-4.79.14-9.18.2-12.44.27-.07.27-.27.41-.51.44l-.82-2.41c2.21,0,5.07-.03,8.26-.07.54-.31,1.09-.65,1.67-1.02-1.77-1.33-4.42-2.86-6.66-3.94l1.46-1.29c.71.34,1.5.71,2.28,1.12,1.36-.99,2.86-2.35,4.05-3.54h-11.66v-1.84h14.38v-2.38h-10.1v-1.8h10.1v-2.35h-12.41v-1.84h12.41v-2.99l2.96.2c-.03.24-.24.41-.68.48v2.31h12.82v1.84h-12.82v2.35h10.4v1.8h-10.4v2.38ZM914.87,108.08c-.14.2-.41.31-.78.24-2.28,1.9-5.68,3.91-8.64,5.2-.37-.41-1.16-1.16-1.63-1.46,2.96-1.19,6.39-3.09,8.53-5.07l2.52,1.09ZM932.68,113.42c-1.84-1.6-5.54-3.77-8.57-5.17l1.7-1.26c2.96,1.29,6.73,3.43,8.67,5.03l-1.8,1.39Z" style="fill:#0f172a;"/></g><g style="isolation:isolate;"><path d="M218.75,167.24h-12.4v-1.43l2.04-2.16c4.98-5.04,7.5-8.09,7.5-11.51,0-2.24-.98-4.31-4-4.31-1.68,0-3.19.92-4.2,1.74l-.78-1.62c1.29-1.15,3.19-2.04,5.43-2.04,4.23,0,5.91,3.08,5.91,5.96,0,3.95-2.77,7.31-7.11,11.68l-1.65,1.74v.06h9.27v1.9Z" style="fill:#0f172a;"/><path d="M243.79,166.6c-.98.48-2.88.95-5.32.95-5.49,0-9.91-3.56-9.91-10.78s4.28-11.17,10.53-11.17c2.55,0,4.03.53,4.7.87l-.62,1.96c-.98-.48-2.35-.87-4.03-.87-4.84,0-8.15,3.25-8.15,9.13s3.02,8.9,8.01,8.9c1.62,0,3.22-.36,4.28-.87l.5,1.88Z" style="fill:#0f172a;"/><path d="M262.01,167.24h-2.32v-10.19h-10.19v10.19h-2.32v-21.31h2.32v9.1h10.19v-9.1h2.32v21.31Z" style="fill:#0f172a;"/><path d="M267.42,164.67c1.15,0,2.91-.56,2.91-2.13,0-.87-.62-1.68-2.02-1.68-1.12,0-2.07.5-2.58.84l-.5-1.32c.7-.48,1.96-.98,3.39-.98,2.58,0,3.67,1.43,3.67,2.94,0,1.26-.9,2.32-2.35,2.86v.06c1.62.25,2.83,1.48,2.83,3.11,0,1.93-1.65,3.7-4.76,3.7-1.4,0-2.69-.42-3.39-.87l.53-1.4c.48.34,1.65.81,2.83.81,1.96,0,2.8-1.18,2.8-2.27,0-2.38-2.83-2.38-4.14-2.38v-1.29h.78Z" style="fill:#0f172a;"/><path d="M292.92,156.38c0,7.5-4.2,11.2-9.24,11.2-5.29,0-9.04-4.17-9.04-10.84s3.95-11.17,9.3-11.17,8.99,4.37,8.99,10.81ZM277.08,156.69c0,4.54,2.35,8.96,6.69,8.96s6.72-4.28,6.72-9.16c0-4.28-2.1-8.99-6.66-8.99s-6.75,4.65-6.75,9.18Z" style="fill:#0f172a;"/><path d="M311.29,167.24h-2.32v-10.19h-10.19v10.19h-2.32v-21.31h2.32v9.1h10.19v-9.1h2.32v21.31Z" style="fill:#0f172a;"/><path d="M327.45,164.14v-5.77h-5.57v-1.99h5.57v-5.8h2.02v5.8h5.57v1.99h-5.57v5.77h-2.02Z" style="fill:#0f172a;"/><path d="M357.04,167.24h-12.4v-1.43l2.04-2.16c4.98-5.04,7.5-8.09,7.5-11.51,0-2.24-.98-4.31-4-4.31-1.68,0-3.19.92-4.2,1.74l-.78-1.62c1.29-1.15,3.19-2.04,5.43-2.04,4.23,0,5.91,3.08,5.91,5.96,0,3.95-2.77,7.31-7.11,11.68l-1.65,1.74v.06h9.27v1.9Z" style="fill:#0f172a;"/><path d="M383.11,167.24h-2.32l-6.8-11.23c-1.43-2.38-2.8-4.76-3.84-7.11l-.11.03c.2,2.72.22,5.21.22,8.9v9.41h-2.18v-21.34h2.44l6.89,11.23c1.51,2.55,2.74,4.76,3.72,6.97l.06-.03c-.22-2.97-.28-5.52-.28-8.88v-9.3h2.21v21.34Z" style="fill:#0f172a;"/><path d="M397.78,163.6c0,1.26.03,2.58.22,3.64h-2.13l-.22-1.96h-.08c-.78,1.2-2.35,2.3-4.51,2.3-2.91,0-4.45-2.13-4.45-4.34,0-3.67,3.19-5.66,8.85-5.63,0-1.29,0-4.2-3.47-4.2-1.32,0-2.69.36-3.72,1.09l-.56-1.6c1.23-.81,2.94-1.29,4.65-1.29,4.31,0,5.43,3.05,5.43,6.08v5.91ZM395.49,159.32c-2.88,0-6.5.42-6.5,3.64,0,1.96,1.23,2.83,2.63,2.83,2.27,0,3.86-1.74,3.86-3.58v-2.88Z" style="fill:#0f172a;"/><path d="M408.09,157.47v-1.74h21.92c-1.48-1.12-3.39-2.94-4.7-4.7l1.51-.92c1.9,2.46,4.68,4.9,7.17,6.5-2.49,1.6-5.26,4.03-7.17,6.5l-1.51-.92c1.32-1.76,3.22-3.58,4.7-4.7h-21.92Z" style="fill:#0f172a;"/><path d="M455.74,167.24h-12.4v-1.43l2.04-2.16c4.98-5.04,7.5-8.09,7.5-11.51,0-2.24-.98-4.31-4-4.31-1.68,0-3.19.92-4.2,1.74l-.78-1.62c1.29-1.15,3.19-2.04,5.43-2.04,4.23,0,5.91,3.08,5.91,5.96,0,3.95-2.77,7.31-7.11,11.68l-1.65,1.74v.06h9.27v1.9Z" style="fill:#0f172a;"/><path d="M480.78,166.6c-.98.48-2.88.95-5.32.95-5.49,0-9.91-3.56-9.91-10.78s4.28-11.17,10.53-11.17c2.55,0,4.03.53,4.7.87l-.62,1.96c-.98-.48-2.35-.87-4.03-.87-4.84,0-8.15,3.25-8.15,9.13s3.02,8.9,8.01,8.9c1.62,0,3.22-.36,4.28-.87l.5,1.88Z" style="fill:#0f172a;"/><path d="M499,167.24h-2.32v-10.19h-10.19v10.19h-2.32v-21.31h2.32v9.1h10.19v-9.1h2.32v21.31Z" style="fill:#0f172a;"/><path d="M504.41,164.67c1.15,0,2.91-.56,2.91-2.13,0-.87-.62-1.68-2.02-1.68-1.12,0-2.07.5-2.58.84l-.5-1.32c.7-.48,1.96-.98,3.39-.98,2.58,0,3.67,1.43,3.67,2.94,0,1.26-.9,2.32-2.35,2.86v.06c1.62.25,2.83,1.48,2.83,3.11,0,1.93-1.65,3.7-4.76,3.7-1.4,0-2.69-.42-3.39-.87l.53-1.4c.48.34,1.65.81,2.83.81,1.96,0,2.8-1.18,2.8-2.27,0-2.38-2.83-2.38-4.14-2.38v-1.29h.78Z" style="fill:#0f172a;"/><path d="M529.92,156.38c0,7.5-4.2,11.2-9.24,11.2-5.29,0-9.04-4.17-9.04-10.84s3.95-11.17,9.3-11.17,8.99,4.37,8.99,10.81ZM514.07,156.69c0,4.54,2.35,8.96,6.69,8.96s6.72-4.28,6.72-9.16c0-4.28-2.1-8.99-6.66-8.99s-6.75,4.65-6.75,9.18Z" style="fill:#0f172a;"/><path d="M548.48,167.24h-2.32l-6.8-11.23c-1.43-2.38-2.8-4.76-3.84-7.11l-.11.03c.2,2.72.22,5.21.22,8.9v9.41h-2.18v-21.34h2.44l6.89,11.23c1.51,2.55,2.74,4.76,3.72,6.97l.06-.03c-.22-2.97-.28-5.52-.28-8.88v-9.3h2.21v21.34Z" style="fill:#0f172a;"/><path d="M563.15,163.6c0,1.26.03,2.58.22,3.64h-2.13l-.22-1.96h-.08c-.78,1.2-2.35,2.3-4.51,2.3-2.91,0-4.45-2.13-4.45-4.34,0-3.67,3.19-5.66,8.85-5.63,0-1.29,0-4.2-3.47-4.2-1.32,0-2.69.36-3.72,1.09l-.56-1.6c1.23-.81,2.94-1.29,4.65-1.29,4.31,0,5.43,3.05,5.43,6.08v5.91ZM560.85,159.32c-2.88,0-6.5.42-6.5,3.64,0,1.96,1.23,2.83,2.63,2.83,2.27,0,3.86-1.74,3.86-3.58v-2.88Z" style="fill:#0f172a;"/><path d="M579.11,164.14v-5.77h-5.57v-1.99h5.57v-5.8h2.02v5.8h5.57v1.99h-5.57v5.77h-2.02Z" style="fill:#0f172a;"/><path d="M612.15,167.24h-2.32v-10.19h-10.19v10.19h-2.32v-21.31h2.32v9.1h10.19v-9.1h2.32v21.31Z" style="fill:#0f172a;"/><path d="M614.87,171.89v-1.01l1.9-1.82c2.49-2.41,3.98-4.06,3.98-5.8,0-1.29-.76-2.3-2.44-2.3-1.09,0-2.02.56-2.58.98l-.59-1.26c.78-.67,2.13-1.29,3.64-1.29,2.86,0,3.98,1.88,3.98,3.5,0,2.38-1.79,4.28-4.17,6.38l-1.04,1.01v.06h5.43v1.54h-8.12Z" style="fill:#0f172a;"/></g><g style="isolation:isolate;"><path d="M142.69,283.46h23.25v2.31h-10.47v16.49h12.92v2.31h-28.08v-2.31h12.71v-16.49h-10.33v-2.31Z" style="fill:#0f172a;"/><path d="M197.53,284.31c-.03.17-.2.31-.41.37-1.26,4.22-2.96,8.09-5,11.25,1.46.85,3.13,1.9,4.39,2.82l-1.43,2.24c-1.22-.95-2.96-2.07-4.39-2.96-3.13,4.35-7.14,7.85-12.27,10.33-.37-.58-1.26-1.39-1.87-1.77,4.96-2.31,8.94-5.75,12.03-9.79-2.52-1.39-5-2.58-7.51-3.54l1.29-1.9c2.48.88,5.03,2.04,7.65,3.43,1.77-2.79,3.16-5.75,4.11-9.01h-11.52c-2.07,3.47-4.86,6.9-7.85,9.35-.44-.41-1.36-1.16-1.94-1.53,4.45-3.4,8.67-9.52,10.71-15.33l3.23.75c-.14.37-.48.48-.92.44-.48,1.12-1.26,2.79-1.9,4.05h11.29l.48-.14,1.84.92Z" style="fill:#0f172a;"/><path d="M226.8,280.4c-.17.34-.54.44-.95.41-5.17,12.75-13.56,21.79-23.02,27.09-.41-.51-1.22-1.33-1.9-1.8,9.25-5.1,17.68-13.87,22.54-26.96l3.33,1.26Z" style="fill:#0f172a;"/><path d="M232.07,291.59h28.39v2.41h-27.1c-.2.34-.65.58-1.09.65l-.2-3.06Z" style="fill:#0f172a;"/><path d="M273.52,283.91c-.03.31-.34.51-.78.58-.2,9.15-.95,17.47-6.19,23.56-.54-.41-1.36-.92-2.04-1.29,5.07-5.51,5.68-14.01,5.78-23.15l3.23.31ZM282.32,303.49c5.68-2.75,9.35-7.72,11.32-13.67.51.44,1.53,1.02,2.11,1.33-2.41,6.87-6.63,11.93-13.87,15.37-.1.27-.34.54-.58.68l-1.77-2.24.37-.51v-24.95l3.16.17c-.03.31-.27.58-.75.65v23.19Z" style="fill:#0f172a;"/><path d="M313.84,302.54v-7h-6.77v-2.41h6.77v-7.04h2.45v7.04h6.77v2.41h-6.77v7h-2.45Z" style="fill:#0f172a;"/><path d="M363.21,289.99h-12.31c-.65,8.74-2.86,14.04-10.27,18.29-.48-.54-1.29-1.19-1.94-1.67,7.04-3.91,9.11-8.57,9.76-16.62h-13.63v-2.35h13.73c.1-2.65.14-5.71.14-9.15l3.33.2c-.03.34-.34.54-.82.61-.03,3.09-.03,5.85-.17,8.33h12.17v2.35Z" style="fill:#0f172a;"/><path d="M386.84,296.65c-3.47-1.87-8.23-4.08-11.93-5.54v17h-2.55v-29.54l3.43.2c-.03.37-.31.61-.88.71v9.93l.51-.71c3.98,1.46,9.25,3.81,12.78,5.68l-1.36,2.28Z" style="fill:#0f172a;"/><path d="M396.63,297.37v-16.52l3.23.2c-.03.31-.27.54-.82.61v15.71h-2.41ZM415.57,279.52c-.03.34-.27.51-.82.58v10.81c0,7.14-2.45,13.67-12.2,17.44-.34-.51-1.19-1.39-1.77-1.84,9.42-3.5,11.52-9.32,11.52-15.6v-11.59l3.26.2Z" style="fill:#0f172a;"/><path d="M433.76,278.4l3.4.2c-.03.34-.44.65-.95.68v5.34h9.11l.51-.2,2.11.95c-.07.14-.24.27-.37.37-1.56,11.9-6.49,18.8-17.27,22.57-.34-.58-1.05-1.46-1.6-2.04,10.1-3.47,14.75-9.79,15.91-19.34h-19.21v8.43h-2.35v-10.74h10.71v-6.22Z" style="fill:#0f172a;"/><path d="M478.91,307.3c-.51-1.16-1.12-2.38-1.8-3.6-7.07.75-18.7,1.46-23.9,1.73-.1.34-.34.61-.65.68l-.92-3.06c1.02-.03,2.24-.07,3.57-.14,2.24-6.53,5.47-16.69,7.34-23.49l3.3.88c-.14.31-.48.48-.99.48-1.87,6.25-4.79,15.37-7.14,22.03,5.64-.24,13.7-.82,18.19-1.22-1.77-2.92-4.01-6.02-6.05-8.29l2.04-1.16c3.57,3.91,7.65,10.37,9.38,14.08l-2.38,1.09Z" style="fill:#0f172a;"/><path d="M492.52,294.44v-2.11h26.62c-1.8-1.36-4.11-3.57-5.71-5.71l1.84-1.12c2.31,2.99,5.68,5.95,8.7,7.89-3.03,1.94-6.39,4.9-8.7,7.89l-1.84-1.12c1.6-2.14,3.91-4.35,5.71-5.71h-26.62Z" style="fill:#0f172a;"/><path d="M563.81,289.99h-12.31c-.65,8.74-2.86,14.04-10.27,18.29-.48-.54-1.29-1.19-1.94-1.67,7.04-3.91,9.11-8.57,9.76-16.62h-13.63v-2.35h13.73c.1-2.65.14-5.71.14-9.15l3.33.2c-.03.34-.34.54-.82.61-.03,3.09-.03,5.85-.17,8.33h12.17v2.35Z" style="fill:#0f172a;"/><path d="M587.44,296.65c-3.47-1.87-8.23-4.08-11.93-5.54v17h-2.55v-29.54l3.43.2c-.03.37-.31.61-.88.71v9.93l.51-.71c3.98,1.46,9.25,3.81,12.78,5.68l-1.36,2.28Z" style="fill:#0f172a;"/><path d="M597.24,297.37v-16.52l3.23.2c-.03.31-.27.54-.82.61v15.71h-2.41ZM616.17,279.52c-.03.34-.27.51-.82.58v10.81c0,7.14-2.45,13.67-12.2,17.44-.34-.51-1.19-1.39-1.77-1.84,9.42-3.5,11.53-9.32,11.53-15.6v-11.59l3.26.2Z" style="fill:#0f172a;"/><path d="M634.36,278.4l3.4.2c-.03.34-.44.65-.95.68v5.34h9.11l.51-.2,2.11.95c-.07.14-.24.27-.37.37-1.56,11.9-6.49,18.8-17.27,22.57-.34-.58-1.05-1.46-1.6-2.04,10.1-3.47,14.75-9.79,15.91-19.34h-19.21v8.43h-2.35v-10.74h10.71v-6.22Z" style="fill:#0f172a;"/><path d="M679.51,307.3c-.51-1.16-1.12-2.38-1.8-3.6-7.07.75-18.7,1.46-23.9,1.73-.1.34-.34.61-.65.68l-.92-3.06c1.02-.03,2.24-.07,3.57-.14,2.24-6.53,5.47-16.69,7.34-23.49l3.3.88c-.14.31-.48.48-.99.48-1.87,6.25-4.79,15.37-7.14,22.03,5.64-.24,13.7-.82,18.19-1.22-1.77-2.92-4.01-6.02-6.05-8.29l2.04-1.16c3.57,3.91,7.65,10.37,9.38,14.08l-2.38,1.09Z" style="fill:#0f172a;"/><path d="M688.29,283.46h23.25v2.31h-10.47v16.49h12.92v2.31h-28.08v-2.31h12.71v-16.49h-10.33v-2.31Z" style="fill:#0f172a;"/><path d="M738.4,296.65c-3.47-1.87-8.23-4.08-11.93-5.54v17h-2.55v-29.54l3.43.2c-.03.37-.31.61-.88.71v9.93l.51-.71c3.98,1.46,9.25,3.81,12.78,5.68l-1.36,2.28Z" style="fill:#0f172a;"/><path d="M761.35,297.27l1.22,10.67-2.45.27-1.19-10.64-12.75,1.63-.31-2.24,12.82-1.63-.88-7.65-10.67,1.39-.31-2.28,10.71-1.36-.75-6.73,3.33-.14c0,.34-.31.61-.78.75l.61,5.78,10.33-1.36.27,2.31-10.33,1.33.88,7.62,12.78-1.6.31,2.24-12.85,1.63Z" style="fill:#0f172a;"/><path d="M779.72,288.33c3.06.68,6.87,1.97,9.14,3.06l-1.02,2.14c-2.24-1.09-6.15-2.45-9.15-3.13l1.02-2.07ZM781.76,304.95c11.05-3.71,18.6-9.59,23.12-19.79.51.44,1.56,1.16,2.07,1.5-4.56,10.1-12.48,16.39-22.88,20.09.07.31-.1.71-.41.85l-1.9-2.65ZM783.46,279.89c3.06.82,6.8,2.18,9.11,3.33l-1.12,2.07c-2.41-1.22-5.95-2.58-9.01-3.43l1.02-1.97Z" style="fill:#0f172a;"/><path d="M831.56,296.69c-3.47-1.87-8.23-4.08-11.93-5.54v16.96h-2.55v-29.54l3.43.2c-.03.37-.31.61-.88.71v10l.51-.75c3.98,1.46,9.25,3.81,12.78,5.68l-1.36,2.28ZM828,280.68c1.56,1.29,3.6,3.43,4.69,5l-1.29,1.05c-1.02-1.46-3.09-3.74-4.62-4.96l1.22-1.09ZM832.55,277.75c1.6,1.33,3.64,3.47,4.66,4.96l-1.22,1.05c-1.05-1.46-3.13-3.71-4.66-4.96l1.22-1.05Z" style="fill:#0f172a;"/><path d="M855.03,302.54v-7h-6.77v-2.41h6.77v-7.04h2.45v7.04h6.77v2.41h-6.77v7h-2.45Z" style="fill:#0f172a;"/><path d="M886.68,286.59l1.63.75c-.07.14-.2.31-.37.41-1.77,8.57-5.95,14.89-11.01,18.32-.41-.58-1.29-1.46-1.84-1.84,4.59-2.86,8.4-8.12,10.13-15.23h-9.21v-2.31h10.27l.41-.1ZM892.46,283.94c.75,2.82,1.77,5.54,2.99,8.06,2.86-2.41,6.32-5.98,8.43-8.74l2.41,1.8c-.17.2-.48.24-.75.2-2.35,2.58-6.15,6.22-9.11,8.6,2.72,4.76,6.36,8.6,11.01,10.57-.58.48-1.36,1.39-1.77,2.07-6.19-2.96-10.44-9.01-13.23-16.39v15.74c0,3.09-1.43,3.37-7.82,3.37-.14-.68-.58-1.84-.95-2.48,1.29.03,2.48.03,3.43.03,2.86,0,2.96,0,2.96-.92v-28.18l3.06.17c-.03.27-.2.44-.68.48v5.61Z" style="fill:#0f172a;"/><path d="M926.32,288.9h14.55v1.84h-16.45l.34.17c-.14.2-.37.27-.75.24-1.29,1.19-3.3,2.86-5,4.08,1.12.65,2.18,1.33,2.99,1.94,2.65-1.83,5.34-3.94,7.17-5.64l2.38,1.39c-.14.17-.41.24-.75.24-2.35,1.9-5.75,4.32-8.87,6.22,3.81-.03,7.99-.1,12.1-.17-1.39-.88-2.86-1.7-4.22-2.38,1.19-.95,1.36-1.12,1.5-1.29,3.13,1.46,6.93,3.77,8.87,5.58l-1.6,1.46c-.54-.54-1.29-1.16-2.14-1.77-3.37.14-6.8.24-10.13.31v8.09h-2.28v-8.02c-4.79.14-9.18.2-12.44.27-.07.27-.27.41-.51.44l-.82-2.41c2.21,0,5.07-.03,8.26-.07.54-.31,1.09-.65,1.67-1.02-1.77-1.33-4.42-2.86-6.66-3.94l1.46-1.29c.71.34,1.5.71,2.28,1.12,1.36-.99,2.86-2.35,4.05-3.54h-11.66v-1.84h14.38v-2.38h-10.1v-1.8h10.1v-2.35h-12.41v-1.84h12.41v-2.99l2.96.2c-.03.24-.24.41-.68.48v2.31h12.82v1.84h-12.82v2.35h10.4v1.8h-10.4v2.38ZM920.71,303.15c-.14.2-.41.31-.78.24-2.28,1.9-5.68,3.91-8.63,5.2-.37-.41-1.16-1.16-1.63-1.46,2.96-1.19,6.39-3.09,8.53-5.07l2.52,1.09ZM938.53,308.49c-1.84-1.6-5.54-3.77-8.57-5.17l1.7-1.26c2.96,1.29,6.73,3.43,8.67,5.03l-1.8,1.39Z" style="fill:#0f172a;"/></g><g style="isolation:isolate;"><path d="M204.45,362.31h-12.4v-1.43l2.04-2.16c4.98-5.04,7.5-8.09,7.5-11.51,0-2.24-.98-4.31-4-4.31-1.68,0-3.19.92-4.2,1.74l-.78-1.62c1.29-1.15,3.19-2.04,5.43-2.04,4.23,0,5.91,3.08,5.91,5.96,0,3.95-2.77,7.31-7.11,11.68l-1.65,1.74v.06h9.27v1.9Z" style="fill:#0f172a;"/><path d="M229.48,361.67c-.98.48-2.88.95-5.32.95-5.49,0-9.91-3.56-9.91-10.78s4.28-11.17,10.53-11.17c2.55,0,4.03.53,4.7.87l-.62,1.96c-.98-.48-2.35-.87-4.03-.87-4.84,0-8.15,3.25-8.15,9.13s3.02,8.9,8.01,8.9c1.62,0,3.22-.36,4.28-.87l.5,1.88Z" style="fill:#0f172a;"/><path d="M230.83,366.96v-1.01l1.9-1.82c2.49-2.41,3.98-4.06,3.98-5.8,0-1.29-.76-2.3-2.44-2.3-1.09,0-2.02.56-2.58.98l-.59-1.26c.78-.67,2.13-1.29,3.64-1.29,2.86,0,3.98,1.88,3.98,3.5,0,2.38-1.79,4.28-4.17,6.38l-1.04,1.01v.06h5.43v1.54h-8.12Z" style="fill:#0f172a;"/><path d="M257.03,362.31h-2.32v-10.19h-10.19v10.19h-2.32v-21.31h2.32v9.1h10.19v-9.1h2.32v21.31Z" style="fill:#0f172a;"/><path d="M267.51,354.69v1.57h-4.7l-.45,2.88c.25,0,.53-.03.95-.03,2.6,0,4.48,1.37,4.48,3.84s-1.93,4.2-4.68,4.2c-1.34,0-2.52-.39-3.14-.73l.45-1.4c.5.28,1.51.64,2.63.64,1.48,0,2.83-.95,2.83-2.55s-1.06-2.63-3.5-2.63c-.7,0-1.29.06-1.71.14l.78-5.94h6.05Z" style="fill:#0f172a;"/><path d="M288.11,351.45c0,7.5-4.2,11.2-9.24,11.2-5.29,0-9.04-4.17-9.04-10.84s3.95-11.17,9.3-11.17,8.99,4.37,8.99,10.81ZM272.26,351.75c0,4.54,2.35,8.96,6.69,8.96s6.72-4.28,6.72-9.16c0-4.28-2.1-8.99-6.66-8.99s-6.75,4.65-6.75,9.18Z" style="fill:#0f172a;"/><path d="M306.48,362.31h-2.32v-10.19h-10.19v10.19h-2.32v-21.31h2.32v9.1h10.19v-9.1h2.32v21.31Z" style="fill:#0f172a;"/><path d="M322.64,359.2v-5.77h-5.57v-1.99h5.57v-5.8h2.02v5.8h5.57v1.99h-5.57v5.77h-2.02Z" style="fill:#0f172a;"/><path d="M352.23,362.31h-12.4v-1.43l2.04-2.16c4.98-5.04,7.5-8.09,7.5-11.51,0-2.24-.98-4.31-4-4.31-1.68,0-3.19.92-4.2,1.74l-.78-1.62c1.29-1.15,3.19-2.04,5.43-2.04,4.23,0,5.91,3.08,5.91,5.96,0,3.95-2.77,7.31-7.11,11.68l-1.65,1.74v.06h9.27v1.9Z" style="fill:#0f172a;"/><path d="M378.3,362.31h-2.32l-6.8-11.23c-1.43-2.38-2.8-4.76-3.84-7.11l-.11.03c.2,2.72.22,5.21.22,8.9v9.41h-2.18v-21.34h2.44l6.89,11.23c1.51,2.55,2.74,4.76,3.72,6.97l.06-.03c-.22-2.97-.28-5.52-.28-8.88v-9.3h2.21v21.34Z" style="fill:#0f172a;"/><path d="M392.97,358.67c0,1.26.03,2.58.22,3.64h-2.13l-.22-1.96h-.08c-.78,1.2-2.35,2.3-4.51,2.3-2.91,0-4.45-2.13-4.45-4.34,0-3.67,3.19-5.66,8.85-5.63,0-1.29,0-4.2-3.47-4.2-1.32,0-2.69.36-3.72,1.09l-.56-1.6c1.23-.81,2.94-1.29,4.65-1.29,4.31,0,5.43,3.05,5.43,6.08v5.91ZM390.68,354.39c-2.88,0-6.5.42-6.5,3.64,0,1.96,1.23,2.83,2.63,2.83,2.27,0,3.86-1.74,3.86-3.58v-2.88Z" style="fill:#0f172a;"/><path d="M403.28,352.54v-1.74h21.92c-1.48-1.12-3.39-2.94-4.7-4.7l1.51-.92c1.9,2.46,4.68,4.9,7.17,6.5-2.49,1.6-5.26,4.03-7.17,6.5l-1.51-.92c1.32-1.76,3.22-3.58,4.7-4.7h-21.92Z" style="fill:#0f172a;"/><path d="M450.93,362.31h-12.4v-1.43l2.04-2.16c4.98-5.04,7.5-8.09,7.5-11.51,0-2.24-.98-4.31-4-4.31-1.68,0-3.19.92-4.2,1.74l-.78-1.62c1.29-1.15,3.19-2.04,5.43-2.04,4.23,0,5.91,3.08,5.91,5.96,0,3.95-2.77,7.31-7.11,11.68l-1.65,1.74v.06h9.27v1.9Z" style="fill:#0f172a;"/><path d="M475.96,361.67c-.98.48-2.88.95-5.32.95-5.49,0-9.91-3.56-9.91-10.78s4.28-11.17,10.53-11.17c2.55,0,4.03.53,4.7.87l-.62,1.96c-.98-.48-2.35-.87-4.03-.87-4.84,0-8.15,3.25-8.15,9.13s3.02,8.9,8.01,8.9c1.62,0,3.22-.36,4.28-.87l.5,1.88Z" style="fill:#0f172a;"/><path d="M477.31,366.96v-1.01l1.9-1.82c2.49-2.41,3.98-4.06,3.98-5.8,0-1.29-.76-2.3-2.44-2.3-1.09,0-2.02.56-2.58.98l-.59-1.26c.78-.67,2.13-1.29,3.64-1.29,2.86,0,3.98,1.88,3.98,3.5,0,2.38-1.79,4.28-4.17,6.38l-1.04,1.01v.06h5.43v1.54h-8.12Z" style="fill:#0f172a;"/><path d="M503.51,362.31h-2.32v-10.19h-10.19v10.19h-2.32v-21.31h2.32v9.1h10.19v-9.1h2.32v21.31Z" style="fill:#0f172a;"/><path d="M513.99,354.69v1.57h-4.7l-.45,2.88c.25,0,.53-.03.95-.03,2.6,0,4.48,1.37,4.48,3.84s-1.93,4.2-4.68,4.2c-1.34,0-2.52-.39-3.14-.73l.45-1.4c.5.28,1.51.64,2.63.64,1.48,0,2.83-.95,2.83-2.55s-1.06-2.63-3.5-2.63c-.7,0-1.29.06-1.71.14l.78-5.94h6.05Z" style="fill:#0f172a;"/><path d="M534.59,351.45c0,7.5-4.2,11.2-9.24,11.2-5.29,0-9.04-4.17-9.04-10.84s3.95-11.17,9.3-11.17,8.99,4.37,8.99,10.81ZM518.75,351.75c0,4.54,2.35,8.96,6.69,8.96s6.72-4.28,6.72-9.16c0-4.28-2.1-8.99-6.66-8.99s-6.75,4.65-6.75,9.18Z" style="fill:#0f172a;"/><path d="M553.16,362.31h-2.32l-6.8-11.23c-1.43-2.38-2.8-4.76-3.84-7.11l-.11.03c.2,2.72.22,5.21.22,8.9v9.41h-2.18v-21.34h2.44l6.89,11.23c1.51,2.55,2.74,4.76,3.72,6.97l.06-.03c-.22-2.97-.28-5.52-.28-8.88v-9.3h2.21v21.34Z" style="fill:#0f172a;"/><path d="M567.83,358.67c0,1.26.03,2.58.22,3.64h-2.13l-.22-1.96h-.08c-.78,1.2-2.35,2.3-4.51,2.3-2.91,0-4.45-2.13-4.45-4.34,0-3.67,3.19-5.66,8.85-5.63,0-1.29,0-4.2-3.47-4.2-1.32,0-2.69.36-3.72,1.09l-.56-1.6c1.23-.81,2.94-1.29,4.65-1.29,4.31,0,5.43,3.05,5.43,6.08v5.91ZM565.53,354.39c-2.88,0-6.5.42-6.5,3.64,0,1.96,1.23,2.83,2.63,2.83,2.27,0,3.86-1.74,3.86-3.58v-2.88Z" style="fill:#0f172a;"/><path d="M583.79,359.2v-5.77h-5.57v-1.99h5.57v-5.8h2.02v5.8h5.57v1.99h-5.57v5.77h-2.02Z" style="fill:#0f172a;"/><path d="M616.83,362.31h-2.32v-10.19h-10.19v10.19h-2.32v-21.31h2.32v9.1h10.19v-9.1h2.32v21.31Z" style="fill:#0f172a;"/><path d="M619.55,366.96v-1.01l1.9-1.82c2.49-2.41,3.98-4.06,3.98-5.8,0-1.29-.76-2.3-2.44-2.3-1.09,0-2.02.56-2.58.98l-.59-1.26c.78-.67,2.13-1.29,3.64-1.29,2.86,0,3.98,1.88,3.98,3.5,0,2.38-1.79,4.28-4.17,6.38l-1.04,1.01v.06h5.43v1.54h-8.12Z" style="fill:#0f172a;"/></g></svg>