<?xml version="1.0" encoding="UTF-8"?><svg id="_レイヤー_1" xmlns="http://www.w3.org/2000/svg" viewBox="0 0 1366 768"><rect
  x="45.5"
  y="151.67"
  width="1172.83"
  height="324.27"
  fill="#ffffff" />



  <!-- ここから元の線や文字たち -->
  <!-- ・・・既存の <rect> / <text> / <path> たち・・・ -->

<path d="M238.66,288.6h-90.68v17.4c0,18.54-2.92,44.83-19.43,62.61-1.27-1.78-4.7-4.7-6.48-5.71,15.62-16.76,17.53-39.88,17.53-57.02v-15.88c-3.3,3.05-6.73,5.97-10.54,8.76-1.52-2.03-4.32-4.95-6.48-6.1,17.65-12.32,29.84-29.34,35.94-42.93l11.18,1.65c-.13,1.14-1.02,1.65-2.67,1.78-.89,1.78-1.91,3.68-3.05,5.59h34.29l1.52-.51,6.86,4.32c-.25.64-1.02,1.02-1.78,1.27-2.54,4.95-6.35,11.3-10.16,16.89h43.94v7.87ZM184.81,280.73c3.05-4.19,6.1-9.65,8.51-14.48h-33.91c-3.05,4.83-6.73,9.65-10.92,14.48h36.32ZM170.59,351.98c0,5.59,2.03,6.86,12.45,6.86h37.85c9.27,0,10.67-3.05,11.68-19.43,2.03,1.52,5.71,2.92,8,3.43-1.52,18.92-4.57,23.88-19.43,23.88h-38.1c-15.88,0-20.83-2.79-20.83-14.73v-50.42h52.45l1.9-.13,4.7.63c0,.89-.13,1.78-.38,2.67-1.91,34.42-3.94,35.31-17.53,35.31-3.18,0-7.37-.13-11.43-.38-.25-2.16-1.14-5.33-2.41-7.49,6.48.51,12.57.63,14.6.63,2.16,0,3.43-.13,4.32-1.14,1.78-1.78,2.92-7.75,3.94-22.48h-41.78v42.8Z"/><path d="M287.69,255.2l5.71,3.43c-.25.38-.63.89-1.14,1.14-3.56,9.78-8.89,23.37-13.84,34.29,12.83,12.45,14.48,20.57,14.48,27.31,0,16.76-11.68,16.76-18.54,16.76-1.4,0-2.67,0-3.94-.13-.13-2.16-1.02-5.59-2.29-7.62,2.16.25,4.32.38,6.1.38,5.71,0,10.79,0,10.79-10.67,0-6.99-4.19-14.99-14.6-24.89,4.45-10.16,8.76-22.61,11.94-31.88h-19.3v104.77h-7.75v-112.52h31.11l1.27-.38ZM362.23,333.31h-26.16c7.24,16.13,17.91,22.73,33.53,27.94-2.03,1.78-4.19,4.83-5.08,7.37-16-6.1-27.18-13.97-34.8-30.86-4.32,12.06-14.86,23.24-38.35,30.73-.89-1.78-3.17-5.08-4.7-6.35,23.62-7.49,32.77-17.78,36.19-28.83h-26.67v-32.77h28.45v-12.57h-20.57v-6.1c-3.81,2.67-7.87,5.08-11.94,7.24-.89-1.91-2.67-4.95-4.19-6.73,14.86-7.37,29.59-20.32,36.58-32.26l10.92.38c-.25.76-.89,1.4-1.9,1.52,8.38,11.3,23.49,22.86,36.83,28.83-1.65,1.9-3.43,5.08-4.57,7.37-3.68-1.9-7.62-4.19-11.43-6.73v6.48h-21.84v12.57h29.72v32.77ZM303.94,326.2h20.32c.25-2.41.38-4.83.38-7.24v-11.43h-20.7v18.67ZM352.84,280.48c-9.4-6.6-18.41-14.73-24.26-22.61-5.08,7.49-13.21,15.62-22.61,22.61h46.86ZM354.36,307.53h-21.84v11.68c0,2.29-.13,4.7-.38,6.98h22.22v-18.67Z"/><path d="M426.75,320.48l-17.91,3.94v43.56h-8.38v-41.66c-6.99,1.52-13.33,2.92-18.42,3.94-.13.89-.76,1.65-1.65,1.91l-3.3-9.78c6.35-1.02,14.48-2.54,23.37-4.32v-32.77h-12.57c-1.27,7.62-2.79,14.6-4.7,19.94-1.65-1.14-4.44-2.67-6.35-3.56,3.56-10.29,5.46-28.07,6.73-44.7l9.91,2.16c-.25.89-1.14,1.27-2.67,1.4-.38,5.33-1.02,11.05-1.65,16.51h11.3v-26.92l10.79.63c-.13.89-.76,1.52-2.41,1.78v24.51h16.13v8.25h-16.13v31.24l17.14-3.43.76,7.37ZM487.33,275.02l4.57.38c0,.76-.13,2.03-.25,2.92-2.41,59.44-4.57,78.99-9.4,84.96-2.41,3.43-5.08,4.83-13.46,4.83-2.79,0-5.97-.13-9.14-.25-.13-2.54-1.02-6.22-2.41-8.51,5.71.38,10.79.51,13.08.51,2.16,0,3.3-.38,4.57-2.16,3.68-4.32,6.22-22.86,8.25-74.55h-9.91c-3.68,30.73-12.45,66.93-26.03,84.96-1.78-1.4-4.95-3.3-7.37-4.19,13.97-16.76,22.48-50.8,26.29-80.77h-10.92c-4.83,26.04-14.6,56.9-27.3,72.64-1.91-1.52-5.08-3.17-7.62-4.19,12.83-14.48,22.61-43.05,27.43-68.45h-10.16c-3.3,10.79-7.49,20.57-12.45,27.94-1.4-1.4-4.57-3.56-6.48-4.83,8.76-12.57,14.86-34.54,18.16-56.64l10.54,2.29c-.25.89-1.14,1.4-2.79,1.4-1.27,7.37-2.79,14.73-4.7,21.84h45.47l2.03-.13Z"/><path d="M521.11,325.43c-.25.89-1.02,1.27-2.54,1.27-1.78,10.79-4.95,22.99-8.89,30.48-1.65-1.02-4.45-2.41-6.35-3.17,3.81-7.24,6.73-19.3,8.51-30.86l9.27,2.29ZM543.84,306.13c-2.29-4.06-5.08-8.13-7.75-11.56l6.35-3.05c5.84,7.37,11.94,17.27,14.22,23.75l-6.73,3.56c-.63-1.78-1.52-3.94-2.67-6.22l-13.59.76v54.61h-7.75v-54.36c-6.86.38-13.08.63-18.03.76-.25,1.02-1.02,1.52-1.9,1.65l-2.16-9.4h9.14c2.79-3.56,5.71-7.62,8.76-11.94-4.06-5.84-11.43-13.33-17.91-18.67l4.32-5.84,5.08,4.32c4.19-7.37,9.02-17.4,11.81-24.51l9.14,3.94c-.38.76-1.27,1.02-2.67,1.02-3.3,7.11-8.64,17.27-13.33,24.26,3.17,3.05,5.97,6.1,8,8.76,5.33-8.13,10.41-16.64,13.97-23.75l9.02,4.19c-.51.64-1.4,1.02-2.79,1.02-6.48,10.92-16.51,26.03-25.4,37.08l22.86-.38ZM547.27,349.69c-1.14-6.86-4.7-17.14-8.25-25.02l6.6-2.16c3.81,7.75,7.37,18.03,8.64,24.64l-6.98,2.54ZM593.12,250.63c-.13.89-.89,1.4-1.9,1.78,7.49,13.59,21.08,31.62,32.51,41.78-1.78,2.16-3.94,5.33-5.33,8-11.81-11.43-24.89-29.08-32-42.42-6.22,13.46-18.16,30.86-31.11,42.8-1.14-2.29-3.43-5.46-5.08-7.24,12.95-11.43,25.91-30.48,31.88-45.21l11.05.51ZM559.97,367.98v-50.67h54.36v50.16h-8.25v-4.95h-38.1v5.46h-8ZM566.07,293.68h41.4v7.87h-41.4v-7.87ZM606.07,325.18h-38.1v29.59h38.1v-29.59Z"/><path d="M635.41,285.81c8.38,3.18,18.8,8.89,24,13.21l-4.83,7.11c-5.08-4.44-15.37-10.41-23.75-13.97l4.57-6.35ZM634.9,360.49c6.48-10.03,16-27.05,23.11-41.66l6.35,5.46c-6.35,13.46-14.86,29.46-20.96,39.37.38.63.51,1.27.51,1.78s-.13,1.02-.38,1.52l-8.64-6.48ZM660.81,272.22c-4.83-4.7-14.86-11.05-23.24-14.99l4.83-6.1c8.25,3.56,18.42,9.52,23.5,14.22l-5.08,6.86ZM712.12,277.3h31.62v89.79h-8.38v-6.86h-53.72v7.87h-8.13v-90.8h30.23v-27.43l10.79.63c-.13.89-.76,1.52-2.41,1.78v25.02ZM703.74,285.56h-22.1v28.57h22.1v-28.57ZM681.64,322.39v29.72h22.1v-29.72h-22.1ZM735.36,285.56h-23.24v28.57h23.24v-28.57ZM712.12,352.1h23.24v-29.72h-23.24v29.72Z"/><path d="M823.37,264.35h-11.81v103.63h-8.25v-26.16c-15.24,2.67-30.35,5.33-40.26,6.86-.25,1.02-1.02,1.65-1.91,1.78l-3.3-9.78c3.3-.38,7.11-.89,11.3-1.52v-74.8h-11.05v-8h65.28v8ZM803.3,282.76v-18.42h-26.03v18.42h26.03ZM803.3,309.31v-18.67h-26.03v18.67h26.03ZM777.27,317.18v20.96c8.13-1.14,17.14-2.54,26.03-3.81v-17.15h-26.03ZM866.55,268.41l5.33,1.78c-.13.63-.64,1.27-1.02,1.65-3.43,25.65-10.54,46.61-20.45,62.99,6.98,11.3,15.75,20.32,26.54,26.29-2.03,1.52-4.83,4.83-6.1,6.98-10.29-6.22-18.67-14.73-25.53-25.4-7.62,10.67-16.51,19.05-26.42,25.27-1.27-2.03-3.81-5.21-5.71-6.86,10.16-5.84,19.43-14.86,27.18-26.67-8-15.24-13.59-33.78-17.4-54.61l7.87-1.52c3.17,17.65,7.87,33.91,14.73,47.62,7.24-13.46,12.83-29.97,16-48.89h-42.54v-8.38h45.97l1.52-.25Z"/><path d="M930.18,313.75l-17.27,5.33v38.35c0,10.16-5.84,10.54-22.35,10.54-.38-2.16-1.52-5.71-2.79-8,3.3.13,6.35.13,8.89.13,6.99,0,7.75,0,7.75-2.67v-35.69c-5.59,1.65-10.79,3.17-14.86,4.44-.13,1.02-.76,1.78-1.65,2.03l-3.43-10.16c5.46-1.27,12.32-3.05,19.94-5.08v-28.7h-18.8v-8h18.8v-26.29l10.92.63c-.13,1.02-.76,1.52-2.41,1.78v23.88h15.88v8h-15.88v26.42l16.38-4.32.89,7.37ZM996.73,288.86l5.33,2.16c-.25.64-.63,1.14-1.02,1.4-4.44,21.08-13.08,37.85-24.26,50.8,7.62,7.62,16.64,13.59,27.3,17.4-2.03,1.78-4.57,5.21-5.97,7.62-10.67-4.44-19.68-10.79-27.18-18.8-8.38,8.13-17.78,14.35-27.81,18.67-1.14-2.03-3.43-5.21-5.21-6.73,9.91-3.94,19.3-10.03,27.69-18.29-8.89-11.43-15.37-25.53-20.19-41.66h-.13c-2.41,28.57-8,51.82-20.96,66.04-1.4-1.27-4.44-3.81-6.6-5.08,17.02-18.42,20.32-54.23,20.95-97.28h-9.65v-8h46.61l1.78-.25,4.83,1.27c-.89,4.44-4.83,26.16-5.72,31.11h18.67l1.52-.38ZM965.61,302.96c2.41-11.43,5.21-26.92,6.99-37.85h-25.53c-.13,4.83-.25,9.65-.51,14.22,4.7,22.73,12.57,42.67,24.64,57.66,8.89-10.67,16-24.13,20.19-40h-16.51l-1.4,6.86-7.87-.89Z"/><path d="M1066.07,318.83h-38.23c-.38,15.62-2.54,35.43-11.56,49.28-1.27-1.52-4.7-4.19-6.73-5.21,9.14-13.97,10.03-33.65,10.03-48.51v-35.05h46.48v39.5ZM1070,257.11v7.87h-56.9v-7.87h56.9ZM1057.81,287.21h-29.97v23.88h29.97v-23.88ZM1131.09,293.94v8.25h-15.11v65.91h-8.38v-65.91h-23.62c-.51,20.19-4.06,46.35-21.84,65.4-1.14-1.91-4.19-4.7-6.35-5.84,17.78-19.05,19.81-44.7,19.81-64.52v-33.91l6.6,1.78c14.1-3.68,29.46-8.51,38.23-13.46l8.25,6.86c-.51.51-1.4.76-2.54.51-10.29,4.7-26.92,9.65-42.16,13.33v21.59h47.12Z"/><rect x="45.5" y="151.67" width="1172.83" height="324.27" style="fill:none; stroke:#000; stroke-miterlimit:10; stroke-width:7px;"/><path d="M1233.56,269.54c0-9.43,3.67-14,8.71-14s8.24,4.82,8.24,13.64c0,9.36-3.28,14.18-8.64,14.18-4.9,0-8.32-4.82-8.32-13.82ZM1247.5,269.32c0-6.73-1.62-11.37-5.4-11.37-3.2,0-5.47,4.28-5.47,11.37s1.98,11.59,5.36,11.59c4,0,5.51-5.18,5.51-11.59Z"/><path d="M1254.08,281.1c0-1.37.9-2.34,2.16-2.34s2.12.97,2.12,2.34c0,1.3-.83,2.27-2.16,2.27s-2.12-1.08-2.12-2.27Z"/><path d="M1271.11,268.35c3.17.54,5.87,3.1,5.87,6.98,0,4.28-3.1,8.03-9.14,8.03-2.7,0-5.15-.86-6.37-1.73l.9-2.3c.97.65,3.13,1.62,5.51,1.62,4.54,0,6.01-3.17,6.01-5.65,0-3.96-3.35-5.76-6.88-5.76h-1.76v-2.23h1.76c2.59,0,5.94-1.62,5.94-5,0-2.34-1.4-4.36-4.64-4.36-1.98,0-3.85.97-4.93,1.76l-.9-2.2c1.3-1.01,3.82-2.02,6.41-2.02,4.93,0,7.13,3.13,7.13,6.37,0,2.77-1.76,5.25-4.9,6.37v.11Z"/><path d="M1309.3,282.93h-2.95v-11.34c0-3.82-1.37-6.26-4.32-6.26-2.41,0-4.61,2.27-4.61,5.25v12.35h-2.95v-12.09c0-3.13-1.33-5.51-4.1-5.51-2.56,0-4.82,2.52-4.82,5.58v12.02h-2.95v-14.58c0-2.02-.07-3.46-.14-5.08h2.63l.18,3.17h.11c1.08-1.91,2.88-3.6,5.97-3.6,2.56,0,4.54,1.58,5.36,3.92h.07c1.3-2.34,3.28-3.92,6.3-3.92,2.41,0,6.23,1.55,6.23,8.28v11.81Z"/><path d="M1240.69,339.96c2.66-.79,5.54-1.66,8.35-2.52l.36,2.27c-5.29,1.73-10.94,3.56-14.51,4.64,0,.29-.22.5-.47.58l-1.15-2.84c1.37-.36,3.02-.83,4.86-1.37l-.47-23.25c1.84.14,2.56.18,3.28.22-.04.25-.25.43-.72.5l.47,21.78ZM1264.23,317.89c-.07.32-.32.47-.83.5-.97,8.03-2.48,14.4-5.29,19.4,3.2,3.1,7.09,7.02,9.11,9.5l-2.12,1.8c-1.8-2.38-5.29-6.08-8.35-9.14-2.88,4.03-6.88,7.02-12.49,9.18-.36-.54-1.19-1.48-1.76-1.98,12.67-4.43,16.7-13.64,18.43-29.77l3.31.5ZM1247.64,319.73c2.45,2.63,4.82,6.23,5.83,8.75l-2.34,1.22c-.9-2.52-3.28-6.26-5.65-8.93l2.16-1.04Z"/><path d="M1286.16,344.82h16.34v2.45h-32.72v-2.45h13.86v-28.69l3.28.22c-.04.25-.25.43-.76.5v10.65h13.82v2.45h-13.82v14.87Z"/><line x1="1269.72" y1="372.42" x2="1269.72" y2="445.76" style="fill:none; stroke:#000; stroke-miterlimit:10; stroke-width:5px;"/><path d="M1269.72,475.94c-5.27-14.2-14.26-31.82-23.78-42.74l23.78,8.6,23.77-8.6c-9.52,10.92-18.51,28.54-23.77,42.74Z"/><line x1="75.68" y1="539.17" x2="457.29" y2="539.17" style="fill:none; stroke:#000; stroke-miterlimit:10; stroke-width:5px;"/><path d="M45.5,539.17c14.2,5.27,31.82,14.26,42.74,23.78l-8.6-23.78,8.6-23.77c-10.92,9.52-28.54,18.51-42.74,23.77Z"/><line x1="1182.6" y1="539.17" x2="860" y2="539.17" style="fill:none; stroke:#000; stroke-miterlimit:10; stroke-width:5px;"/><path d="M1212.77,539.17c-14.2-5.27-31.82-14.26-42.74-23.78l8.6,23.78-8.6,23.77c10.92-9.52,28.54-18.51,42.74-23.77Z"/><path d="M587.46,535.52c0-9.43,3.67-14,8.71-14s8.24,4.82,8.24,13.64c0,9.36-3.28,14.18-8.64,14.18-4.9,0-8.31-4.82-8.31-13.82ZM601.39,535.3c0-6.73-1.62-11.37-5.4-11.37-3.2,0-5.47,4.28-5.47,11.37s1.98,11.59,5.36,11.59c4,0,5.51-5.18,5.51-11.59Z"/><path d="M607.98,547.07c0-1.37.9-2.34,2.16-2.34s2.12.97,2.12,2.34c0,1.3-.83,2.27-2.16,2.27s-2.12-1.08-2.12-2.27Z"/><path d="M618.24,534.62c1.22-1.8,3.42-3.31,6.3-3.31,4.57,0,7.63,3.42,7.63,8.6s-3.02,9.43-8.28,9.43-8.78-4.36-8.78-11.34,3.38-14.79,12.13-16.23c1.01-.14,1.91-.25,2.52-.25l.04,2.48c-7.49,0-11.05,5.44-11.66,10.62h.11ZM629.14,540.13c0-4.14-2.23-6.55-5.47-6.55s-5.58,3.1-5.58,5.11c.04,4.93,2.12,8.31,5.87,8.31,3.13,0,5.18-2.81,5.18-6.88Z"/><path d="M663.2,548.91h-2.95v-11.34c0-3.82-1.37-6.26-4.32-6.26-2.41,0-4.61,2.27-4.61,5.25v12.35h-2.95v-12.09c0-3.13-1.33-5.51-4.1-5.51-2.56,0-4.82,2.52-4.82,5.58v12.02h-2.95v-14.58c0-2.02-.07-3.46-.14-5.08h2.63l.18,3.17h.11c1.08-1.91,2.88-3.6,5.98-3.6,2.56,0,4.54,1.58,5.36,3.92h.07c1.3-2.34,3.28-3.92,6.3-3.92,2.41,0,6.23,1.55,6.23,8.28v11.81Z"/><path d="M683.61,542.93c2.66-.79,5.54-1.66,8.35-2.52l.36,2.27c-5.29,1.73-10.94,3.56-14.51,4.64,0,.29-.22.5-.47.58l-1.15-2.84c1.37-.36,3.02-.83,4.86-1.37l-.47-23.25c1.84.14,2.56.18,3.28.22-.04.25-.25.43-.72.5l.47,21.78ZM707.15,520.87c-.07.32-.32.47-.83.5-.97,8.03-2.48,14.4-5.29,19.4,3.2,3.1,7.09,7.02,9.11,9.5l-2.12,1.8c-1.8-2.38-5.29-6.08-8.35-9.14-2.88,4.03-6.88,7.02-12.49,9.18-.36-.54-1.19-1.48-1.76-1.98,12.67-4.43,16.7-13.64,18.43-29.77l3.31.5ZM690.56,522.7c2.45,2.63,4.82,6.23,5.83,8.75l-2.34,1.22c-.9-2.52-3.28-6.26-5.65-8.93l2.16-1.04Z"/><path d="M729.08,547.79h16.34v2.45h-32.72v-2.45h13.86v-28.69l3.28.22c-.04.25-.25.43-.76.5v10.65h13.82v2.45h-13.82v14.87Z"/><line x1="1269.72" y1="181.84" x2="1269.72" y2="245.42" style="fill:none; stroke:#000; stroke-miterlimit:10; stroke-width:5px;"/><path d="M1269.72,151.67c-5.27,14.2-14.26,31.82-23.78,42.74l23.78-8.6,23.77,8.6c-9.52-10.92-18.51-28.54-23.77-42.74Z"/></svg>