<?xml version="1.0" encoding="UTF-8"?><svg id="_レイヤー_1" xmlns="http://www.w3.org/2000/svg" viewBox="0 0 1200 1200"><rect x="137.14" y="169.97" width="810.86" height="797.3"/><path d="M947.51,170.47v796.31H137.64V170.47h809.86M948.51,169.47H136.64v798.31h811.86V169.47h0Z"/><line x1="166.82" y1="1042.26" x2="423.05" y2="1042.26" style="fill:none; stroke:#000; stroke-miterlimit:10; stroke-width:5px;"/><path d="M136.64,1042.26c14.2,5.27,31.82,14.26,42.74,23.78l-8.6-23.78,8.6-23.77c-10.92,9.52-28.54,18.51-42.74,23.77Z"/><line x1="918.33" y1="1042.26" x2="703.15" y2="1042.26" style="fill:none; stroke:#000; stroke-miterlimit:10; stroke-width:5px;"/><path d="M948.51,1042.26c-14.2-5.27-31.82-14.26-42.74-23.78l8.6,23.78-8.6,23.77c10.92-9.52,28.54-18.51,42.74-23.77Z"/><path d="M483.85,1040.32c0-11.27,3.05-16.73,7.24-16.73s6.85,5.76,6.85,16.3c0,11.18-2.72,16.94-7.18,16.94-4.07,0-6.91-5.76-6.91-16.51ZM495.42,1040.07c0-8.04-1.35-13.59-4.49-13.59-2.66,0-4.55,5.12-4.55,13.59s1.65,13.85,4.46,13.85c3.32,0,4.58-6.19,4.58-13.85Z"/><path d="M500.89,1054.13c0-1.63.75-2.79,1.79-2.79s1.76,1.16,1.76,2.79c0,1.55-.69,2.71-1.79,2.71s-1.76-1.29-1.76-2.71Z"/><path d="M515.04,1038.91c2.63.65,4.87,3.7,4.87,8.34,0,5.12-2.57,9.59-7.6,9.59-2.24,0-4.28-1.03-5.29-2.06l.75-2.75c.81.77,2.6,1.93,4.58,1.93,3.77,0,4.99-3.78,4.99-6.75,0-4.73-2.78-6.88-5.71-6.88h-1.47v-2.67h1.47c2.15,0,4.93-1.93,4.93-5.98,0-2.79-1.17-5.2-3.86-5.2-1.65,0-3.2,1.16-4.1,2.11l-.75-2.62c1.08-1.2,3.17-2.41,5.32-2.41,4.1,0,5.92,3.74,5.92,7.61,0,3.31-1.47,6.28-4.07,7.61v.13Z"/><path d="M546.77,1056.32h-2.45v-13.54c0-4.56-1.14-7.48-3.59-7.48-2,0-3.83,2.71-3.83,6.28v14.75h-2.45v-14.45c0-3.74-1.11-6.58-3.41-6.58-2.12,0-4.01,3.01-4.01,6.67v14.36h-2.45v-17.42c0-2.41-.06-4.13-.12-6.06h2.18l.15,3.78h.09c.9-2.28,2.39-4.3,4.96-4.3,2.12,0,3.77,1.89,4.46,4.69h.06c1.08-2.79,2.72-4.69,5.23-4.69,2,0,5.17,1.85,5.17,9.89v14.1Z"/><path d="M577.78,1038.17c-1.88,4.86-4.64,7.44-7.78,7.44-2.69,0-4.58-1.59-6.67-4.51-1.65-2.28-2.99-3.66-5.2-3.66-2.42,0-4.55,2.37-5.8,5.8l-1.94-1.46c1.88-4.86,4.64-7.44,7.78-7.44,2.69,0,4.58,1.59,6.67,4.51,1.65,2.28,3.02,3.66,5.2,3.66,2.42,0,4.55-2.37,5.8-5.8l1.94,1.46Z"/><path d="M580.24,1040.32c0-11.27,3.05-16.73,7.24-16.73s6.85,5.76,6.85,16.3c0,11.18-2.72,16.94-7.18,16.94-4.07,0-6.91-5.76-6.91-16.51ZM591.81,1040.07c0-8.04-1.35-13.59-4.49-13.59-2.66,0-4.55,5.12-4.55,13.59s1.64,13.85,4.46,13.85c3.32,0,4.58-6.19,4.58-13.85Z"/><path d="M597.28,1054.13c0-1.63.75-2.79,1.79-2.79s1.76,1.16,1.76,2.79c0,1.55-.69,2.71-1.79,2.71s-1.76-1.29-1.76-2.71Z"/><path d="M614.78,1056.32h-2.36v-9.03h-9.78v-2.28l9.57-20.9h2.57v20.42h3.05v2.75h-3.05v9.03ZM605.15,1044.54h7.27v-11.44c0-1.76.06-3.48.12-5.16h-.12c-.69,1.98-1.23,3.35-1.79,4.82l-5.47,11.7v.09Z"/><path d="M643.16,1056.32h-2.45v-13.54c0-4.56-1.14-7.48-3.59-7.48-2,0-3.83,2.71-3.83,6.28v14.75h-2.45v-14.45c0-3.74-1.11-6.58-3.41-6.58-2.12,0-4.01,3.01-4.01,6.67v14.36h-2.45v-17.42c0-2.41-.06-4.13-.12-6.06h2.18l.15,3.78h.09c.9-2.28,2.39-4.3,4.96-4.3,2.12,0,3.77,1.89,4.46,4.69h.06c1.08-2.79,2.72-4.69,5.23-4.69,2,0,5.17,1.85,5.17,9.89v14.1Z"/><path d="M968.6,548.33c0-9.43,3.7-14,8.77-14s8.3,4.82,8.3,13.64c0,9.36-3.3,14.18-8.7,14.18-4.93,0-8.37-4.82-8.37-13.82ZM982.63,548.11c0-6.73-1.63-11.37-5.44-11.37-3.22,0-5.51,4.28-5.51,11.37s1.99,11.59,5.4,11.59c4.02,0,5.54-5.18,5.54-11.59Z"/><path d="M989.26,559.88c0-1.37.91-2.34,2.17-2.34s2.14.97,2.14,2.34c0,1.3-.83,2.27-2.17,2.27s-2.14-1.08-2.14-2.27Z"/><path d="M1006.4,547.14c3.19.54,5.91,3.1,5.91,6.98,0,4.28-3.12,8.03-9.21,8.03-2.72,0-5.18-.86-6.41-1.73l.91-2.3c.98.65,3.15,1.62,5.54,1.62,4.57,0,6.05-3.17,6.05-5.65,0-3.96-3.37-5.76-6.92-5.76h-1.78v-2.23h1.78c2.61,0,5.98-1.62,5.98-5,0-2.34-1.41-4.36-4.67-4.36-1.99,0-3.88.97-4.96,1.76l-.91-2.2c1.3-1.01,3.84-2.02,6.45-2.02,4.96,0,7.17,3.13,7.17,6.37,0,2.77-1.78,5.25-4.93,6.37v.11Z"/><path d="M1044.85,561.72h-2.97v-11.34c0-3.82-1.38-6.26-4.35-6.26-2.43,0-4.64,2.27-4.64,5.25v12.35h-2.97v-12.09c0-3.13-1.34-5.51-4.13-5.51-2.57,0-4.86,2.52-4.86,5.58v12.02h-2.97v-14.58c0-2.02-.07-3.46-.14-5.08h2.65l.18,3.17h.11c1.09-1.91,2.9-3.6,6.02-3.6,2.57,0,4.57,1.58,5.4,3.92h.07c1.3-2.34,3.3-3.92,6.34-3.92,2.43,0,6.27,1.55,6.27,8.28v11.81Z"/><path d="M1069.92,547.28c.22,4.21-1.99,5.79-4.49,5.79-1.52,0-2.97-.47-5.83-1.76-1.96-.94-3.59-1.8-5.11-1.8s-2.43,1.15-2.46,3.46h-2.14c-.15-3.74,1.92-5.79,4.67-5.79,1.59,0,2.97.54,5.73,1.8,2.1.97,3.73,1.73,5.25,1.73s2.28-1.3,2.28-3.42h2.1Z"/><path d="M1073.58,548.33c0-9.43,3.7-14,8.77-14s8.3,4.82,8.3,13.64c0,9.36-3.3,14.18-8.7,14.18-4.93,0-8.37-4.82-8.37-13.82ZM1087.6,548.11c0-6.73-1.63-11.37-5.44-11.37-3.22,0-5.51,4.28-5.51,11.37s1.99,11.59,5.4,11.59c4.02,0,5.54-5.18,5.54-11.59Z"/><path d="M1094.23,559.88c0-1.37.91-2.34,2.17-2.34s2.14.97,2.14,2.34c0,1.3-.83,2.27-2.17,2.27s-2.14-1.08-2.14-2.27Z"/><path d="M1115.43,561.72h-2.86v-7.56h-11.85v-1.91l11.6-17.49h3.12v17.1h3.7v2.3h-3.7v7.56ZM1103.76,551.85h8.81v-9.57c0-1.48.07-2.92.14-4.32h-.14c-.83,1.66-1.49,2.81-2.17,4.03l-6.63,9.79v.07Z"/><path d="M1149.82,561.72h-2.97v-11.34c0-3.82-1.38-6.26-4.35-6.26-2.43,0-4.64,2.27-4.64,5.25v12.35h-2.97v-12.09c0-3.13-1.34-5.51-4.13-5.51-2.57,0-4.86,2.52-4.86,5.58v12.02h-2.97v-14.58c0-2.02-.07-3.46-.14-5.08h2.65l.18,3.17h.11c1.09-1.91,2.9-3.6,6.02-3.6,2.57,0,4.57,1.58,5.4,3.92h.07c1.3-2.34,3.3-3.92,6.34-3.92,2.43,0,6.27,1.55,6.27,8.28v11.81Z"/><line x1="1060.32" y1="712.94" x2="1060.32" y2="937.6" style="fill:none; stroke:#000; stroke-miterlimit:10; stroke-width:5px;"/><path d="M1060.32,967.78c-5.27-14.2-14.26-31.82-23.78-42.74l23.78,8.6,23.77-8.6c-9.52,10.92-18.51,28.54-23.77,42.74Z"/><line x1="1060.32" y1="199.65" x2="1060.32" y2="400.29" style="fill:none; stroke:#000; stroke-miterlimit:10; stroke-width:5px;"/><path d="M1060.32,169.47c-5.27,14.2-14.26,31.82-23.78,42.74l23.78-8.6,23.77,8.6c-9.52-10.92-18.51-28.54-23.77-42.74Z"/><path d="M795.45,442.28h-404.82v76.96c0,82.01-13.04,198.29-86.75,276.93-5.67-7.87-20.98-20.78-28.92-25.28,69.74-74.15,78.24-176.38,78.24-252.21v-70.22c-14.74,13.48-30.05,26.4-47.06,38.76-6.8-8.99-19.28-21.91-28.92-26.96,78.81-54.49,133.24-129.76,160.45-189.86l49.89,7.3c-.57,5.06-4.54,7.3-11.91,7.86-3.97,7.86-8.5,16.29-13.61,24.72h153.08l6.8-2.25,30.62,19.1c-1.13,2.81-4.54,4.49-7.94,5.62-11.34,21.91-28.35,49.99-45.36,74.71h196.17v34.83ZM555.05,407.45c13.61-18.54,27.21-42.69,37.99-64.04h-151.38c-13.61,21.35-30.05,42.69-48.76,64.04h162.15ZM491.55,722.58c0,24.72,9.07,30.33,55.56,30.33h168.96c41.39,0,47.63-13.48,52.16-85.94,9.07,6.74,25.51,12.92,35.72,15.17-6.8,83.7-20.41,105.6-86.75,105.6h-170.09c-70.87,0-92.98-12.36-92.98-65.16v-223h234.16l8.5-.56,20.98,2.81c0,3.93-.57,7.86-1.7,11.8-8.5,152.23-17.58,156.16-78.24,156.16-14.17,0-32.88-.56-51.03-1.69-1.13-9.55-5.1-23.59-10.77-33.14,28.92,2.25,56.13,2.81,65.2,2.81,9.64,0,15.31-.56,19.28-5.05,7.94-7.87,13.04-34.27,17.58-99.43h-186.53v189.3Z" style="fill:#fcee21;"/></svg>